<?xml version="1.0" encoding="utf-8" standalone="no"?>
<!DOCTYPE svg PUBLIC "-//W3C//DTD SVG 1.1//EN"
  "http://www.w3.org/Graphics/SVG/1.1/DTD/svg11.dtd">
<svg xmlns:xlink="http://www.w3.org/1999/xlink" width="605.252382pt" height="361.05263pt" viewBox="0 0 605.252382 361.05263" xmlns="http://www.w3.org/2000/svg" version="1.1">
 <metadata>
  <rdf:RDF xmlns:dc="http://purl.org/dc/elements/1.1/" xmlns:cc="http://creativecommons.org/ns#" xmlns:rdf="http://www.w3.org/1999/02/22-rdf-syntax-ns#">
   <cc:Work>
    <dc:type rdf:resource="http://purl.org/dc/dcmitype/StillImage"/>
    <dc:date>2025-04-08T14:00:38.987896</dc:date>
    <dc:format>image/svg+xml</dc:format>
    <dc:creator>
     <cc:Agent>
      <dc:title>Matplotlib v3.9.2, https://matplotlib.org/</dc:title>
     </cc:Agent>
    </dc:creator>
   </cc:Work>
  </rdf:RDF>
 </metadata>
 <defs>
  <style type="text/css">*{stroke-linejoin: round; stroke-linecap: butt}</style>
 </defs>
 <g id="figure_1">
  <g id="patch_1">
   <path d="M 0 361.05263 
L 605.252382 361.05263 
L 605.252382 0 
L 0 0 
z
" style="fill: #ffffff"/>
  </g>
  <g id="axes_1">
   <g id="patch_2">
    <path d="M 43.652382 336.24 
L 601.652382 336.24 
L 601.652382 3.6 
L 43.652382 3.6 
z
" style="fill: #ffffff"/>
   </g>
   <g id="PolyCollection_1">
    <defs>
     <path id="m914d03114d" d="M 69.016018 -92.149411 
L 69.016018 -78.451282 
L 70.901338 -76.270044 
L 72.725841 -67.72597 
L 74.611161 -68.404884 
L 76.435665 -75.019199 
L 78.320985 -72.019947 
L 80.206305 -69.439436 
L 82.030808 -68.385969 
L 83.916128 -57.062625 
L 85.740631 -61.755732 
L 87.625951 -64.936083 
L 89.511272 -65.125949 
L 91.214141 -64.723603 
L 93.099461 -61.942902 
L 94.923965 -66.065023 
L 96.809285 -62.761827 
L 98.633788 -60.773209 
L 100.519108 -56.98045 
L 102.404428 -49.176184 
L 104.228931 -51.313617 
L 106.114251 -47.856626 
L 107.938755 -47.159111 
L 109.824075 -51.416431 
L 111.709395 -50.071403 
L 113.412264 -49.813069 
L 115.297584 -45.50117 
L 117.122088 -46.853694 
L 119.007408 -49.592951 
L 120.831911 -53.175144 
L 122.717231 -56.636734 
L 124.602551 -54.824283 
L 126.427054 -55.353777 
L 128.312375 -58.114062 
L 130.136878 -59.092209 
L 132.022198 -59.465199 
L 133.907518 -61.705466 
L 135.671204 -65.835997 
L 137.556524 -65.682728 
L 139.381028 -64.555236 
L 141.266348 -63.933098 
L 143.090851 -62.460927 
L 144.976171 -65.214796 
L 146.861491 -63.222616 
L 148.685994 -62.284195 
L 150.571314 -64.454837 
L 152.395818 -63.901714 
L 154.281138 -67.682335 
L 156.166458 -69.472209 
L 157.869328 -67.920562 
L 159.754648 -69.41184 
L 161.579151 -68.491497 
L 163.464471 -66.87014 
L 165.288974 -68.180894 
L 167.174294 -69.788652 
L 169.059614 -70.585522 
L 170.884118 -70.70755 
L 172.769438 -70.942281 
L 174.593941 -68.469408 
L 176.479261 -71.951149 
L 178.364581 -73.542798 
L 180.067451 -74.449716 
L 181.952771 -73.771039 
L 183.777274 -75.085907 
L 185.662594 -75.263199 
L 187.487097 -74.640374 
L 189.372417 -72.148501 
L 191.257737 -73.091118 
L 193.082241 -75.480276 
L 194.967561 -77.418599 
L 196.792064 -80.348619 
L 198.677384 -81.8227 
L 200.562704 -83.466871 
L 202.265574 -83.1998 
L 204.150894 -85.059758 
L 205.975397 -82.387773 
L 207.860717 -86.37445 
L 209.685221 -89.530188 
L 211.570541 -88.811295 
L 213.455861 -89.964074 
L 215.280364 -85.597283 
L 217.165684 -88.994382 
L 218.990187 -91.489415 
L 220.875507 -86.401045 
L 222.760827 -87.185778 
L 224.524514 -80.676143 
L 226.409834 -78.828257 
L 228.234337 -76.969452 
L 230.119657 -80.195265 
L 231.944161 -82.153853 
L 233.829481 -77.248673 
L 235.714801 -72.326917 
L 237.539304 -74.94853 
L 239.424624 -70.274109 
L 241.249127 -50.089662 
L 243.134447 -46.129888 
L 245.019767 -49.015544 
L 246.722637 -44.864947 
L 248.607957 -39.93263 
L 250.43246 -39.959659 
L 252.31778 -48.090159 
L 254.142284 -47.357546 
L 256.027604 -52.553389 
L 257.912924 -52.299194 
L 259.737427 -57.061029 
L 261.622747 -59.18487 
L 263.44725 -61.735105 
L 265.33257 -65.503729 
L 267.217891 -64.852558 
L 268.92076 -65.376672 
L 270.80608 -61.711026 
L 272.630584 -66.617242 
L 274.515904 -69.04353 
L 276.340407 -63.648656 
L 278.225727 -61.364747 
L 280.111047 -61.321706 
L 281.93555 -62.590695 
L 283.82087 -64.143869 
L 285.645374 -67.92132 
L 287.530694 -68.039538 
L 289.416014 -70.214823 
L 291.118883 -75.098919 
L 293.004203 -76.266918 
L 294.828707 -75.623136 
L 296.714027 -77.27195 
L 298.53853 -78.257563 
L 300.42385 -74.162433 
L 302.30917 -77.229163 
L 304.133673 -67.551564 
L 306.018994 -68.130347 
L 307.843497 -68.444324 
L 309.728817 -71.510354 
L 311.614137 -71.821389 
L 313.377823 -76.227896 
L 315.263143 -79.163205 
L 317.087647 -79.700187 
L 318.972967 -81.36562 
L 320.79747 -78.409538 
L 322.68279 -77.549426 
L 324.56811 -79.850837 
L 326.392613 -80.908881 
L 328.277933 -85.264973 
L 330.102437 -83.50092 
L 331.987757 -80.750906 
L 333.873077 -82.920021 
L 335.575947 -85.95823 
L 337.461267 -89.26036 
L 339.28577 -91.555043 
L 341.17109 -93.290393 
L 342.995593 -96.343691 
L 344.880913 -93.038144 
L 346.766233 -99.660634 
L 348.590737 -98.774014 
L 350.476057 -99.834482 
L 352.30056 -102.506542 
L 354.18588 -105.483169 
L 356.0712 -106.754105 
L 357.77407 -108.390011 
L 359.65939 -108.318317 
L 361.483893 -111.258706 
L 363.369213 -110.850882 
L 365.193716 -113.209789 
L 367.079036 -116.415958 
L 368.964356 -118.538808 
L 370.78886 -117.328717 
L 372.67418 -118.860674 
L 374.498683 -115.751498 
L 376.384003 -123.500595 
L 378.269323 -124.171167 
L 379.972193 -123.135392 
L 381.857513 -124.20433 
L 383.682016 -124.646272 
L 385.567336 -126.253209 
L 387.39184 -125.200683 
L 389.27716 -126.251739 
L 391.16248 -126.184897 
L 392.986983 -122.289987 
L 394.872303 -114.802584 
L 396.696806 -122.91947 
L 398.582126 -123.863975 
L 400.467446 -123.352625 
L 402.231133 -112.906665 
L 404.116453 -115.463552 
L 405.940956 -121.886707 
L 407.826276 -125.835809 
L 409.65078 -123.75948 
L 411.5361 -125.726912 
L 413.42142 -130.83754 
L 415.245923 -130.073495 
L 417.131243 -129.307232 
L 418.955746 -128.458867 
L 420.841066 -129.595665 
L 422.726386 -136.25077 
L 424.429256 -137.785798 
L 426.314576 -140.820199 
L 428.139079 -142.665047 
L 430.024399 -142.77073 
L 431.848903 -145.178508 
L 433.734223 -148.158525 
L 435.619543 -148.151244 
L 437.444046 -149.145142 
L 439.329366 -151.440701 
L 441.153869 -155.159539 
L 443.039189 -157.897711 
L 444.92451 -162.568956 
L 446.627379 -170.48075 
L 448.512699 -163.262855 
L 450.337203 -164.718833 
L 452.222523 -161.040403 
L 454.047026 -164.86792 
L 455.932346 -168.568503 
L 457.817666 -170.569611 
L 459.642169 -174.880779 
L 461.527489 -177.119884 
L 463.351993 -168.538439 
L 465.237313 -165.373035 
L 467.122633 -154.887791 
L 468.825502 -159.520877 
L 470.710822 -170.025378 
L 472.535326 -172.123593 
L 474.420646 -178.626118 
L 476.245149 -174.376886 
L 478.130469 -178.561882 
L 480.015789 -187.163955 
L 481.840292 -176.27981 
L 483.725613 -183.116324 
L 485.550116 -181.65311 
L 487.435436 -190.701024 
L 489.320756 -195.214153 
L 491.084442 -201.093264 
L 492.969762 -199.815159 
L 494.794266 -153.135454 
L 496.679586 -169.004924 
L 498.504089 -176.843249 
L 500.389409 -191.250449 
L 502.274729 -199.581153 
L 504.099232 -210.162658 
L 505.984552 -205.462986 
L 507.809056 -209.063235 
L 509.694376 -219.624239 
L 511.579696 -230.040232 
L 513.282566 -232.642945 
L 515.167886 -240.838254 
L 516.992389 -240.8961 
L 518.877709 -258.1637 
L 520.702212 -257.420558 
L 522.587532 -261.939288 
L 524.472852 -272.734042 
L 526.297356 -276.687353 
L 528.182676 -273.147226 
L 530.007179 -275.735496 
L 531.892499 -291.262715 
L 533.777819 -288.215097 
L 535.480689 -282.158565 
L 537.366009 -272.792187 
L 539.190512 -270.100755 
L 541.075832 -269.324393 
L 542.900335 -246.74699 
L 544.785655 -239.249447 
L 546.670975 -240.676225 
L 548.495479 -260.594342 
L 550.380799 -230.263584 
L 552.205302 -226.513555 
L 554.090622 -245.096142 
L 555.975942 -240.329612 
L 557.678812 -245.088659 
L 559.564132 -250.611508 
L 561.388635 -243.467355 
L 563.273955 -256.505083 
L 565.098459 -253.556388 
L 566.983779 -269.592737 
L 568.869099 -280.062321 
L 570.693602 -272.206272 
L 572.578922 -270.645732 
L 574.403425 -261.057724 
L 576.288745 -279.014639 
L 576.288745 -328.186283 
L 576.288745 -328.186283 
L 574.403425 -307.109988 
L 572.578922 -318.351064 
L 570.693602 -320.210101 
L 568.869099 -329.431816 
L 566.983779 -317.172658 
L 565.098459 -298.342652 
L 563.273955 -301.820567 
L 561.388635 -286.537222 
L 559.564132 -294.918997 
L 557.678812 -288.462099 
L 555.975942 -282.908531 
L 554.090622 -288.513912 
L 552.205302 -266.697171 
L 550.380799 -271.113973 
L 548.495479 -306.465654 
L 546.670975 -283.099867 
L 544.785655 -281.458331 
L 542.900335 -290.240613 
L 541.075832 -316.551961 
L 539.190512 -317.489659 
L 537.366009 -320.661037 
L 535.480689 -331.634571 
L 533.777819 -338.739656 
L 531.892499 -342.33263 
L 530.007179 -324.142551 
L 528.182676 -321.135668 
L 526.297356 -325.304768 
L 524.472852 -320.700588 
L 522.587532 -308.066797 
L 520.702212 -302.797785 
L 518.877709 -303.693348 
L 516.992389 -283.447316 
L 515.167886 -283.404356 
L 513.282566 -273.81056 
L 511.579696 -270.782638 
L 509.694376 -258.108743 
L 507.809056 -245.762886 
L 505.984552 -241.57174 
L 504.099232 -247.08261 
L 502.274729 -235.131448 
L 500.389409 -225.383446 
L 498.504089 -208.015094 
L 496.679586 -198.801995 
L 494.794266 -180.167853 
L 492.969762 -234.124804 
L 491.084442 -235.625222 
L 489.320756 -228.781583 
L 487.435436 -223.529591 
L 485.550116 -212.974125 
L 483.725613 -214.697864 
L 481.840292 -206.72807 
L 480.015789 -219.385068 
L 478.130469 -209.365791 
L 476.245149 -204.503071 
L 474.420646 -209.458863 
L 472.535326 -201.885895 
L 470.710822 -199.460405 
L 468.825502 -187.206642 
L 467.122633 -181.8132 
L 465.237313 -194.000355 
L 463.351993 -197.704538 
L 461.527489 -207.688968 
L 459.642169 -205.093275 
L 457.817666 -200.08186 
L 455.932346 -197.76302 
L 454.047026 -193.464397 
L 452.222523 -189.012591 
L 450.337203 -193.314092 
L 448.512699 -191.635214 
L 446.627379 -200.047552 
L 444.92451 -190.805261 
L 443.039189 -185.370935 
L 441.153869 -182.191198 
L 439.329366 -177.869206 
L 437.444046 -175.205265 
L 435.619543 -174.059576 
L 433.734223 -174.08371 
L 431.848903 -170.620671 
L 430.024399 -168.095271 
L 428.139079 -167.988803 
L 426.314576 -165.84488 
L 424.429256 -162.307552 
L 422.726386 -160.523877 
L 420.841066 -152.49987 
L 418.955746 -151.184695 
L 417.131243 -152.189109 
L 415.245923 -153.09959 
L 413.42142 -154.007504 
L 411.5361 -148.049287 
L 409.65078 -145.761714 
L 407.826276 -148.196299 
L 405.940956 -143.587477 
L 404.116453 -136.295237 
L 402.231133 -133.316723 
L 400.467446 -145.248643 
L 398.582126 -146.098491 
L 396.696806 -145.00836 
L 394.872303 -135.495279 
L 392.986983 -144.231283 
L 391.16248 -148.787221 
L 389.27716 -148.878563 
L 387.39184 -147.665206 
L 385.567336 -148.911061 
L 383.682016 -147.045116 
L 381.857513 -146.543333 
L 379.972193 -145.305255 
L 378.269323 -146.522375 
L 376.384003 -145.751929 
L 374.498683 -136.67289 
L 372.67418 -140.317814 
L 370.78886 -138.536366 
L 368.964356 -139.962899 
L 367.079036 -137.489474 
L 365.193716 -133.745464 
L 363.369213 -130.994857 
L 361.483893 -131.485332 
L 359.65939 -128.052312 
L 357.77407 -128.148628 
L 356.0712 -126.244462 
L 354.18588 -124.765084 
L 352.30056 -121.285518 
L 350.476057 -118.165624 
L 348.590737 -116.934599 
L 346.766233 -117.980831 
L 344.880913 -110.208658 
L 342.995593 -114.092846 
L 341.17109 -110.521745 
L 339.28577 -108.499527 
L 337.461267 -105.818974 
L 335.575947 -101.956917 
L 333.873077 -98.391249 
L 331.987757 -95.855689 
L 330.102437 -99.081836 
L 328.277933 -101.156501 
L 326.392613 -96.053573 
L 324.56811 -94.820389 
L 322.68279 -92.133325 
L 320.79747 -93.14255 
L 318.972967 -96.601144 
L 317.087647 -94.659178 
L 315.263143 -94.03867 
L 313.377823 -90.601462 
L 311.614137 -85.433062 
L 309.728817 -85.076783 
L 307.843497 -81.485452 
L 306.018994 -81.125371 
L 304.133673 -80.454988 
L 302.30917 -91.69129 
L 300.42385 -88.101356 
L 298.53853 -92.885217 
L 296.714027 -91.740375 
L 294.828707 -89.815883 
L 293.004203 -90.575831 
L 291.118883 -89.216204 
L 289.416014 -83.488059 
L 287.530694 -80.934513 
L 285.645374 -80.805933 
L 283.82087 -76.377621 
L 281.93555 -74.563115 
L 280.111047 -73.084358 
L 278.225727 -73.143057 
L 276.340407 -75.819186 
L 274.515904 -82.11417 
L 272.630584 -79.273735 
L 270.80608 -73.511424 
L 268.92076 -77.26871 
L 267.217891 -76.839087 
L 265.33257 -77.594248 
L 263.44725 -73.201701 
L 261.622747 -70.239727 
L 259.737427 -67.757151 
L 257.912924 -62.184754 
L 256.027604 -62.487267 
L 254.142284 -56.426601 
L 252.31778 -57.283383 
L 250.43246 -47.173661 
L 248.607957 -47.474513 
L 246.722637 -53.192318 
L 245.019767 -58.44368 
L 243.134447 -55.070209 
L 241.249127 -59.874282 
L 239.424624 -82.938436 
L 237.539304 -88.349438 
L 235.714801 -85.30387 
L 233.829481 -91.005887 
L 231.944161 -96.700683 
L 230.119657 -94.427379 
L 228.234337 -90.675407 
L 226.409834 -92.83703 
L 224.524514 -94.991868 
L 222.760827 -102.514895 
L 220.875507 -101.614637 
L 218.990187 -107.495831 
L 217.165684 -104.606654 
L 215.280364 -100.661196 
L 213.455861 -105.71699 
L 211.570541 -104.391183 
L 209.685221 -105.234201 
L 207.860717 -101.570147 
L 205.975397 -96.92768 
L 204.150894 -100.030364 
L 202.265574 -97.876967 
L 200.562704 -98.406424 
L 198.677384 -96.500491 
L 196.792064 -94.792453 
L 194.967561 -91.383812 
L 193.082241 -89.133714 
L 191.257737 -86.357363 
L 189.372417 -85.267728 
L 187.487097 -88.173602 
L 185.662594 -88.907859 
L 183.777274 -88.711052 
L 181.952771 -87.184926 
L 180.067451 -87.772149 
L 178.364581 -86.729565 
L 176.479261 -84.888607 
L 174.593941 -80.40223 
L 172.769438 -83.716736 
L 170.884118 -83.454986 
L 169.059614 -83.32217 
L 167.174294 -82.415354 
L 165.288974 -80.553625 
L 163.464471 -79.034486 
L 161.579151 -80.926475 
L 159.754648 -82.007098 
L 157.869328 -80.277452 
L 156.166458 -82.087683 
L 154.281138 -80.011892 
L 152.395818 -75.605337 
L 150.571314 -76.257562 
L 148.685994 -73.733985 
L 146.861491 -74.832304 
L 144.976171 -77.154301 
L 143.090851 -73.949944 
L 141.266348 -75.825163 
L 139.381028 -76.401322 
L 137.556524 -77.718631 
L 135.671204 -78.068938 
L 133.907518 -73.241088 
L 132.022198 -70.627787 
L 130.136878 -70.055892 
L 128.312375 -68.922109 
L 126.427054 -65.704403 
L 124.602551 -65.096037 
L 122.717231 -67.21421 
L 120.831911 -63.175486 
L 119.007408 -58.991131 
L 117.122088 -55.793821 
L 115.297584 -54.219065 
L 113.412264 -59.218791 
L 111.709395 -59.525803 
L 109.824075 -61.096279 
L 107.938755 -56.122852 
L 106.114251 -56.942287 
L 104.228931 -60.950136 
L 102.404428 -58.459508 
L 100.519108 -67.49055 
L 98.633788 -72.007733 
L 96.809285 -74.330443 
L 94.923965 -78.177489 
L 93.099461 -73.238385 
L 91.214141 -76.470264 
L 89.511272 -76.944106 
L 87.625951 -76.728141 
L 85.740631 -73.020582 
L 83.916128 -67.545696 
L 82.030808 -80.586288 
L 80.206305 -81.813427 
L 78.320985 -84.814189 
L 76.435665 -88.292913 
L 74.611161 -80.577509 
L 72.725841 -79.798114 
L 70.901338 -89.619158 
L 69.016018 -92.149411 
z
" style="stroke: #808080; stroke-opacity: 0.4"/>
    </defs>
    <g clip-path="url(#pc1c80fd46f)">
     <use xlink:href="#m914d03114d" x="0" y="361.05263" style="fill: #808080; fill-opacity: 0.4; stroke: #808080; stroke-opacity: 0.4"/>
    </g>
   </g>
   <g id="matplotlib.axis_1">
    <g id="xtick_1">
     <g id="line2d_1">
      <defs>
       <path id="m9ccbd11aee" d="M 0 0 
L 0 -3 
" style="stroke: #000000; stroke-width: 0.5"/>
      </defs>
      <g>
       <use xlink:href="#m9ccbd11aee" x="132.083015" y="336.24" style="stroke: #000000; stroke-width: 0.5"/>
      </g>
     </g>
     <g id="line2d_2">
      <defs>
       <path id="m806bbaaa07" d="M 0 0 
L 0 3 
" style="stroke: #000000; stroke-width: 0.5"/>
      </defs>
      <g>
       <use xlink:href="#m806bbaaa07" x="132.083015" y="3.6" style="stroke: #000000; stroke-width: 0.5"/>
      </g>
     </g>
     <g id="text_1">
      <!-- $\mathdefault{2004}$ -->
      <g transform="translate(113.806824 353.576997) scale(0.2 -0.2)">
       <defs>
        <path id="CMR17-32" d="M 2669 990 
L 2554 990 
C 2490 537 2438 460 2413 422 
C 2381 371 1920 371 1830 371 
L 602 371 
C 832 620 1280 1073 1824 1596 
C 2214 1966 2669 2400 2669 3033 
C 2669 3788 2067 4224 1395 4224 
C 691 4224 262 3603 262 3027 
C 262 2777 448 2745 525 2745 
C 589 2745 781 2783 781 3007 
C 781 3206 614 3264 525 3264 
C 486 3264 448 3257 422 3244 
C 544 3788 915 4057 1306 4057 
C 1862 4057 2227 3616 2227 3033 
C 2227 2477 1901 1998 1536 1583 
L 262 147 
L 262 0 
L 2515 0 
L 2669 990 
z
" transform="scale(0.015625)"/>
        <path id="CMR17-30" d="M 2688 2038 
C 2688 2430 2682 3099 2413 3613 
C 2176 4063 1798 4224 1466 4224 
C 1158 4224 768 4082 525 3620 
C 269 3137 243 2539 243 2038 
C 243 1671 250 1112 448 623 
C 723 -39 1216 -128 1466 -128 
C 1760 -128 2208 -7 2470 604 
C 2662 1048 2688 1568 2688 2038 
z
M 1466 -26 
C 1056 -26 813 328 723 816 
C 653 1196 653 1749 653 2109 
C 653 2604 653 3015 736 3407 
C 858 3954 1216 4121 1466 4121 
C 1728 4121 2067 3947 2189 3420 
C 2272 3054 2278 2623 2278 2109 
C 2278 1691 2278 1176 2202 797 
C 2067 96 1690 -26 1466 -26 
z
" transform="scale(0.015625)"/>
        <path id="CMR17-34" d="M 2150 4147 
C 2150 4281 2144 4288 2029 4288 
L 128 1254 
L 128 1088 
L 1779 1088 
L 1779 460 
C 1779 230 1766 166 1318 166 
L 1197 166 
L 1197 0 
C 1402 12 1747 12 1965 12 
C 2182 12 2528 12 2733 0 
L 2733 166 
L 2611 166 
C 2163 166 2150 230 2150 460 
L 2150 1088 
L 2803 1088 
L 2803 1254 
L 2150 1254 
L 2150 4147 
z
M 1798 3723 
L 1798 1254 
L 256 1254 
L 1798 3723 
z
" transform="scale(0.015625)"/>
       </defs>
       <use xlink:href="#CMR17-32" transform="scale(0.996264)"/>
       <use xlink:href="#CMR17-30" transform="translate(45.690477 0) scale(0.996264)"/>
       <use xlink:href="#CMR17-30" transform="translate(91.380954 0) scale(0.996264)"/>
       <use xlink:href="#CMR17-34" transform="translate(137.071431 0) scale(0.996264)"/>
      </g>
     </g>
    </g>
    <g id="xtick_2">
     <g id="line2d_3">
      <g>
       <use xlink:href="#m9ccbd11aee" x="220.936324" y="336.24" style="stroke: #000000; stroke-width: 0.5"/>
      </g>
     </g>
     <g id="line2d_4">
      <g>
       <use xlink:href="#m806bbaaa07" x="220.936324" y="3.6" style="stroke: #000000; stroke-width: 0.5"/>
      </g>
     </g>
     <g id="text_2">
      <!-- $\mathdefault{2008}$ -->
      <g transform="translate(202.660133 353.576997) scale(0.2 -0.2)">
       <defs>
        <path id="CMR17-38" d="M 1741 2289 
C 2144 2494 2554 2803 2554 3298 
C 2554 3884 1990 4224 1472 4224 
C 890 4224 378 3800 378 3215 
C 378 3054 416 2777 666 2533 
C 730 2469 998 2276 1171 2154 
C 883 2006 211 1652 211 945 
C 211 282 838 -128 1459 -128 
C 2144 -128 2720 366 2720 1022 
C 2720 1607 2330 1877 2074 2051 
L 1741 2289 
z
M 902 2855 
C 851 2887 595 3086 595 3388 
C 595 3781 998 4076 1459 4076 
C 1965 4076 2336 3716 2336 3298 
C 2336 2700 1670 2359 1638 2359 
C 1632 2359 1626 2359 1574 2398 
L 902 2855 
z
M 2080 1536 
C 2176 1466 2483 1253 2483 861 
C 2483 385 2010 25 1472 25 
C 890 25 448 443 448 951 
C 448 1459 838 1884 1280 2083 
L 2080 1536 
z
" transform="scale(0.015625)"/>
       </defs>
       <use xlink:href="#CMR17-32" transform="scale(0.996264)"/>
       <use xlink:href="#CMR17-30" transform="translate(45.690477 0) scale(0.996264)"/>
       <use xlink:href="#CMR17-30" transform="translate(91.380954 0) scale(0.996264)"/>
       <use xlink:href="#CMR17-38" transform="translate(137.071431 0) scale(0.996264)"/>
      </g>
     </g>
    </g>
    <g id="xtick_3">
     <g id="line2d_5">
      <g>
       <use xlink:href="#m9ccbd11aee" x="309.789634" y="336.24" style="stroke: #000000; stroke-width: 0.5"/>
      </g>
     </g>
     <g id="line2d_6">
      <g>
       <use xlink:href="#m806bbaaa07" x="309.789634" y="3.6" style="stroke: #000000; stroke-width: 0.5"/>
      </g>
     </g>
     <g id="text_3">
      <!-- $\mathdefault{2012}$ -->
      <g transform="translate(291.513443 353.576997) scale(0.2 -0.2)">
       <defs>
        <path id="CMR17-31" d="M 1702 4083 
C 1702 4217 1696 4224 1606 4224 
C 1357 3927 979 3833 621 3820 
C 602 3820 570 3820 563 3808 
C 557 3795 557 3782 557 3648 
C 755 3648 1088 3686 1344 3839 
L 1344 467 
C 1344 243 1331 166 781 166 
L 589 166 
L 589 0 
C 896 6 1216 12 1523 12 
C 1830 12 2150 6 2458 0 
L 2458 166 
L 2266 166 
C 1715 166 1702 236 1702 467 
L 1702 4083 
z
" transform="scale(0.015625)"/>
       </defs>
       <use xlink:href="#CMR17-32" transform="scale(0.996264)"/>
       <use xlink:href="#CMR17-30" transform="translate(45.690477 0) scale(0.996264)"/>
       <use xlink:href="#CMR17-31" transform="translate(91.380954 0) scale(0.996264)"/>
       <use xlink:href="#CMR17-32" transform="translate(137.071431 0) scale(0.996264)"/>
      </g>
     </g>
    </g>
    <g id="xtick_4">
     <g id="line2d_7">
      <g>
       <use xlink:href="#m9ccbd11aee" x="398.642943" y="336.24" style="stroke: #000000; stroke-width: 0.5"/>
      </g>
     </g>
     <g id="line2d_8">
      <g>
       <use xlink:href="#m806bbaaa07" x="398.642943" y="3.6" style="stroke: #000000; stroke-width: 0.5"/>
      </g>
     </g>
     <g id="text_4">
      <!-- $\mathdefault{2016}$ -->
      <g transform="translate(380.366752 353.576997) scale(0.2 -0.2)">
       <defs>
        <path id="CMR17-36" d="M 678 2198 
C 678 3712 1395 4076 1811 4076 
C 1946 4076 2272 4049 2400 3782 
C 2298 3782 2106 3782 2106 3558 
C 2106 3385 2246 3328 2336 3328 
C 2394 3328 2566 3353 2566 3571 
C 2566 3987 2246 4224 1805 4224 
C 1043 4224 243 3411 243 2011 
C 243 257 966 -128 1478 -128 
C 2099 -128 2688 431 2688 1295 
C 2688 2101 2170 2688 1517 2688 
C 1126 2688 838 2430 678 1979 
L 678 2198 
z
M 1478 25 
C 691 25 691 1212 691 1450 
C 691 1914 909 2585 1504 2585 
C 1613 2585 1926 2585 2138 2140 
C 2253 1889 2253 1624 2253 1302 
C 2253 954 2253 696 2118 438 
C 1978 173 1773 25 1478 25 
z
" transform="scale(0.015625)"/>
       </defs>
       <use xlink:href="#CMR17-32" transform="scale(0.996264)"/>
       <use xlink:href="#CMR17-30" transform="translate(45.690477 0) scale(0.996264)"/>
       <use xlink:href="#CMR17-31" transform="translate(91.380954 0) scale(0.996264)"/>
       <use xlink:href="#CMR17-36" transform="translate(137.071431 0) scale(0.996264)"/>
      </g>
     </g>
    </g>
    <g id="xtick_5">
     <g id="line2d_9">
      <g>
       <use xlink:href="#m9ccbd11aee" x="487.496253" y="336.24" style="stroke: #000000; stroke-width: 0.5"/>
      </g>
     </g>
     <g id="line2d_10">
      <g>
       <use xlink:href="#m806bbaaa07" x="487.496253" y="3.6" style="stroke: #000000; stroke-width: 0.5"/>
      </g>
     </g>
     <g id="text_5">
      <!-- $\mathdefault{2020}$ -->
      <g transform="translate(469.220062 353.576997) scale(0.2 -0.2)">
       <use xlink:href="#CMR17-32" transform="scale(0.996264)"/>
       <use xlink:href="#CMR17-30" transform="translate(45.690477 0) scale(0.996264)"/>
       <use xlink:href="#CMR17-32" transform="translate(91.380954 0) scale(0.996264)"/>
       <use xlink:href="#CMR17-30" transform="translate(137.071431 0) scale(0.996264)"/>
      </g>
     </g>
    </g>
    <g id="xtick_6">
     <g id="line2d_11">
      <g>
       <use xlink:href="#m9ccbd11aee" x="576.349562" y="336.24" style="stroke: #000000; stroke-width: 0.5"/>
      </g>
     </g>
     <g id="line2d_12">
      <g>
       <use xlink:href="#m806bbaaa07" x="576.349562" y="3.6" style="stroke: #000000; stroke-width: 0.5"/>
      </g>
     </g>
     <g id="text_6">
      <!-- $\mathdefault{2024}$ -->
      <g transform="translate(558.073371 353.576997) scale(0.2 -0.2)">
       <use xlink:href="#CMR17-32" transform="scale(0.996264)"/>
       <use xlink:href="#CMR17-30" transform="translate(45.690477 0) scale(0.996264)"/>
       <use xlink:href="#CMR17-32" transform="translate(91.380954 0) scale(0.996264)"/>
       <use xlink:href="#CMR17-34" transform="translate(137.071431 0) scale(0.996264)"/>
      </g>
     </g>
    </g>
    <g id="xtick_7">
     <g id="line2d_13">
      <defs>
       <path id="m5aa10651e0" d="M 0 0 
L 0 -1.5 
" style="stroke: #000000; stroke-width: 0.5"/>
      </defs>
      <g>
       <use xlink:href="#m5aa10651e0" x="65.443032" y="336.24" style="stroke: #000000; stroke-width: 0.5"/>
      </g>
     </g>
     <g id="line2d_14">
      <defs>
       <path id="m874ed09df8" d="M 0 0 
L 0 1.5 
" style="stroke: #000000; stroke-width: 0.5"/>
      </defs>
      <g>
       <use xlink:href="#m874ed09df8" x="65.443032" y="3.6" style="stroke: #000000; stroke-width: 0.5"/>
      </g>
     </g>
    </g>
    <g id="xtick_8">
     <g id="line2d_15">
      <g>
       <use xlink:href="#m5aa10651e0" x="87.65636" y="336.24" style="stroke: #000000; stroke-width: 0.5"/>
      </g>
     </g>
     <g id="line2d_16">
      <g>
       <use xlink:href="#m874ed09df8" x="87.65636" y="3.6" style="stroke: #000000; stroke-width: 0.5"/>
      </g>
     </g>
    </g>
    <g id="xtick_9">
     <g id="line2d_17">
      <g>
       <use xlink:href="#m5aa10651e0" x="109.869687" y="336.24" style="stroke: #000000; stroke-width: 0.5"/>
      </g>
     </g>
     <g id="line2d_18">
      <g>
       <use xlink:href="#m874ed09df8" x="109.869687" y="3.6" style="stroke: #000000; stroke-width: 0.5"/>
      </g>
     </g>
    </g>
    <g id="xtick_10">
     <g id="line2d_19">
      <g>
       <use xlink:href="#m5aa10651e0" x="154.296342" y="336.24" style="stroke: #000000; stroke-width: 0.5"/>
      </g>
     </g>
     <g id="line2d_20">
      <g>
       <use xlink:href="#m874ed09df8" x="154.296342" y="3.6" style="stroke: #000000; stroke-width: 0.5"/>
      </g>
     </g>
    </g>
    <g id="xtick_11">
     <g id="line2d_21">
      <g>
       <use xlink:href="#m5aa10651e0" x="176.509669" y="336.24" style="stroke: #000000; stroke-width: 0.5"/>
      </g>
     </g>
     <g id="line2d_22">
      <g>
       <use xlink:href="#m874ed09df8" x="176.509669" y="3.6" style="stroke: #000000; stroke-width: 0.5"/>
      </g>
     </g>
    </g>
    <g id="xtick_12">
     <g id="line2d_23">
      <g>
       <use xlink:href="#m5aa10651e0" x="198.722997" y="336.24" style="stroke: #000000; stroke-width: 0.5"/>
      </g>
     </g>
     <g id="line2d_24">
      <g>
       <use xlink:href="#m874ed09df8" x="198.722997" y="3.6" style="stroke: #000000; stroke-width: 0.5"/>
      </g>
     </g>
    </g>
    <g id="xtick_13">
     <g id="line2d_25">
      <g>
       <use xlink:href="#m5aa10651e0" x="243.149651" y="336.24" style="stroke: #000000; stroke-width: 0.5"/>
      </g>
     </g>
     <g id="line2d_26">
      <g>
       <use xlink:href="#m874ed09df8" x="243.149651" y="3.6" style="stroke: #000000; stroke-width: 0.5"/>
      </g>
     </g>
    </g>
    <g id="xtick_14">
     <g id="line2d_27">
      <g>
       <use xlink:href="#m5aa10651e0" x="265.362979" y="336.24" style="stroke: #000000; stroke-width: 0.5"/>
      </g>
     </g>
     <g id="line2d_28">
      <g>
       <use xlink:href="#m874ed09df8" x="265.362979" y="3.6" style="stroke: #000000; stroke-width: 0.5"/>
      </g>
     </g>
    </g>
    <g id="xtick_15">
     <g id="line2d_29">
      <g>
       <use xlink:href="#m5aa10651e0" x="287.576306" y="336.24" style="stroke: #000000; stroke-width: 0.5"/>
      </g>
     </g>
     <g id="line2d_30">
      <g>
       <use xlink:href="#m874ed09df8" x="287.576306" y="3.6" style="stroke: #000000; stroke-width: 0.5"/>
      </g>
     </g>
    </g>
    <g id="xtick_16">
     <g id="line2d_31">
      <g>
       <use xlink:href="#m5aa10651e0" x="332.002961" y="336.24" style="stroke: #000000; stroke-width: 0.5"/>
      </g>
     </g>
     <g id="line2d_32">
      <g>
       <use xlink:href="#m874ed09df8" x="332.002961" y="3.6" style="stroke: #000000; stroke-width: 0.5"/>
      </g>
     </g>
    </g>
    <g id="xtick_17">
     <g id="line2d_33">
      <g>
       <use xlink:href="#m5aa10651e0" x="354.216288" y="336.24" style="stroke: #000000; stroke-width: 0.5"/>
      </g>
     </g>
     <g id="line2d_34">
      <g>
       <use xlink:href="#m874ed09df8" x="354.216288" y="3.6" style="stroke: #000000; stroke-width: 0.5"/>
      </g>
     </g>
    </g>
    <g id="xtick_18">
     <g id="line2d_35">
      <g>
       <use xlink:href="#m5aa10651e0" x="376.429616" y="336.24" style="stroke: #000000; stroke-width: 0.5"/>
      </g>
     </g>
     <g id="line2d_36">
      <g>
       <use xlink:href="#m874ed09df8" x="376.429616" y="3.6" style="stroke: #000000; stroke-width: 0.5"/>
      </g>
     </g>
    </g>
    <g id="xtick_19">
     <g id="line2d_37">
      <g>
       <use xlink:href="#m5aa10651e0" x="420.85627" y="336.24" style="stroke: #000000; stroke-width: 0.5"/>
      </g>
     </g>
     <g id="line2d_38">
      <g>
       <use xlink:href="#m874ed09df8" x="420.85627" y="3.6" style="stroke: #000000; stroke-width: 0.5"/>
      </g>
     </g>
    </g>
    <g id="xtick_20">
     <g id="line2d_39">
      <g>
       <use xlink:href="#m5aa10651e0" x="443.069598" y="336.24" style="stroke: #000000; stroke-width: 0.5"/>
      </g>
     </g>
     <g id="line2d_40">
      <g>
       <use xlink:href="#m874ed09df8" x="443.069598" y="3.6" style="stroke: #000000; stroke-width: 0.5"/>
      </g>
     </g>
    </g>
    <g id="xtick_21">
     <g id="line2d_41">
      <g>
       <use xlink:href="#m5aa10651e0" x="465.282925" y="336.24" style="stroke: #000000; stroke-width: 0.5"/>
      </g>
     </g>
     <g id="line2d_42">
      <g>
       <use xlink:href="#m874ed09df8" x="465.282925" y="3.6" style="stroke: #000000; stroke-width: 0.5"/>
      </g>
     </g>
    </g>
    <g id="xtick_22">
     <g id="line2d_43">
      <g>
       <use xlink:href="#m5aa10651e0" x="509.70958" y="336.24" style="stroke: #000000; stroke-width: 0.5"/>
      </g>
     </g>
     <g id="line2d_44">
      <g>
       <use xlink:href="#m874ed09df8" x="509.70958" y="3.6" style="stroke: #000000; stroke-width: 0.5"/>
      </g>
     </g>
    </g>
    <g id="xtick_23">
     <g id="line2d_45">
      <g>
       <use xlink:href="#m5aa10651e0" x="531.922907" y="336.24" style="stroke: #000000; stroke-width: 0.5"/>
      </g>
     </g>
     <g id="line2d_46">
      <g>
       <use xlink:href="#m874ed09df8" x="531.922907" y="3.6" style="stroke: #000000; stroke-width: 0.5"/>
      </g>
     </g>
    </g>
    <g id="xtick_24">
     <g id="line2d_47">
      <g>
       <use xlink:href="#m5aa10651e0" x="554.136235" y="336.24" style="stroke: #000000; stroke-width: 0.5"/>
      </g>
     </g>
     <g id="line2d_48">
      <g>
       <use xlink:href="#m874ed09df8" x="554.136235" y="3.6" style="stroke: #000000; stroke-width: 0.5"/>
      </g>
     </g>
    </g>
    <g id="xtick_25">
     <g id="line2d_49">
      <g>
       <use xlink:href="#m5aa10651e0" x="598.562889" y="336.24" style="stroke: #000000; stroke-width: 0.5"/>
      </g>
     </g>
     <g id="line2d_50">
      <g>
       <use xlink:href="#m874ed09df8" x="598.562889" y="3.6" style="stroke: #000000; stroke-width: 0.5"/>
      </g>
     </g>
    </g>
   </g>
   <g id="matplotlib.axis_2">
    <g id="ytick_1">
     <g id="line2d_51">
      <defs>
       <path id="m11b71061e9" d="M 0 0 
L 3 0 
" style="stroke: #000000; stroke-width: 0.5"/>
      </defs>
      <g>
       <use xlink:href="#m11b71061e9" x="43.652382" y="299.654648" style="stroke: #000000; stroke-width: 0.5"/>
      </g>
     </g>
     <g id="line2d_52">
      <defs>
       <path id="md6683e8d43" d="M 0 0 
L -3 0 
" style="stroke: #000000; stroke-width: 0.5"/>
      </defs>
      <g>
       <use xlink:href="#md6683e8d43" x="601.652382" y="299.654648" style="stroke: #000000; stroke-width: 0.5"/>
      </g>
     </g>
     <g id="text_7">
      <!-- $\mathdefault{1000}$ -->
      <g transform="translate(3.6 306.573146) scale(0.2 -0.2)">
       <use xlink:href="#CMR17-31" transform="scale(0.996264)"/>
       <use xlink:href="#CMR17-30" transform="translate(45.690477 0) scale(0.996264)"/>
       <use xlink:href="#CMR17-30" transform="translate(91.380954 0) scale(0.996264)"/>
       <use xlink:href="#CMR17-30" transform="translate(137.071431 0) scale(0.996264)"/>
      </g>
     </g>
    </g>
    <g id="ytick_2">
     <g id="line2d_53">
      <g>
       <use xlink:href="#m11b71061e9" x="43.652382" y="231.24337" style="stroke: #000000; stroke-width: 0.5"/>
      </g>
     </g>
     <g id="line2d_54">
      <g>
       <use xlink:href="#md6683e8d43" x="601.652382" y="231.24337" style="stroke: #000000; stroke-width: 0.5"/>
      </g>
     </g>
     <g id="text_8">
      <!-- $\mathdefault{2000}$ -->
      <g transform="translate(3.6 238.161868) scale(0.2 -0.2)">
       <use xlink:href="#CMR17-32" transform="scale(0.996264)"/>
       <use xlink:href="#CMR17-30" transform="translate(45.690477 0) scale(0.996264)"/>
       <use xlink:href="#CMR17-30" transform="translate(91.380954 0) scale(0.996264)"/>
       <use xlink:href="#CMR17-30" transform="translate(137.071431 0) scale(0.996264)"/>
      </g>
     </g>
    </g>
    <g id="ytick_3">
     <g id="line2d_55">
      <g>
       <use xlink:href="#m11b71061e9" x="43.652382" y="162.832092" style="stroke: #000000; stroke-width: 0.5"/>
      </g>
     </g>
     <g id="line2d_56">
      <g>
       <use xlink:href="#md6683e8d43" x="601.652382" y="162.832092" style="stroke: #000000; stroke-width: 0.5"/>
      </g>
     </g>
     <g id="text_9">
      <!-- $\mathdefault{3000}$ -->
      <g transform="translate(3.6 169.75059) scale(0.2 -0.2)">
       <defs>
        <path id="CMR17-33" d="M 1414 2176 
C 1984 2176 2234 1673 2234 1094 
C 2234 322 1824 25 1453 25 
C 1114 25 563 193 390 691 
C 422 678 454 678 486 678 
C 640 678 755 780 755 947 
C 755 1132 614 1216 486 1216 
C 378 1216 211 1164 211 927 
C 211 335 787 -128 1466 -128 
C 2176 -128 2720 432 2720 1087 
C 2720 1718 2208 2176 1600 2246 
C 2086 2347 2554 2776 2554 3353 
C 2554 3856 2048 4224 1472 4224 
C 890 4224 378 3862 378 3347 
C 378 3123 544 3084 627 3084 
C 762 3084 877 3167 877 3334 
C 877 3500 762 3584 627 3584 
C 602 3584 570 3584 544 3571 
C 730 3999 1235 4076 1459 4076 
C 1683 4076 2106 3966 2106 3347 
C 2106 3167 2080 2851 1862 2574 
C 1670 2329 1453 2316 1242 2297 
C 1210 2297 1062 2284 1037 2284 
C 992 2278 966 2272 966 2227 
C 966 2182 973 2176 1101 2176 
L 1414 2176 
z
" transform="scale(0.015625)"/>
       </defs>
       <use xlink:href="#CMR17-33" transform="scale(0.996264)"/>
       <use xlink:href="#CMR17-30" transform="translate(45.690477 0) scale(0.996264)"/>
       <use xlink:href="#CMR17-30" transform="translate(91.380954 0) scale(0.996264)"/>
       <use xlink:href="#CMR17-30" transform="translate(137.071431 0) scale(0.996264)"/>
      </g>
     </g>
    </g>
    <g id="ytick_4">
     <g id="line2d_57">
      <g>
       <use xlink:href="#m11b71061e9" x="43.652382" y="94.420814" style="stroke: #000000; stroke-width: 0.5"/>
      </g>
     </g>
     <g id="line2d_58">
      <g>
       <use xlink:href="#md6683e8d43" x="601.652382" y="94.420814" style="stroke: #000000; stroke-width: 0.5"/>
      </g>
     </g>
     <g id="text_10">
      <!-- $\mathdefault{4000}$ -->
      <g transform="translate(3.6 101.339313) scale(0.2 -0.2)">
       <use xlink:href="#CMR17-34" transform="scale(0.996264)"/>
       <use xlink:href="#CMR17-30" transform="translate(45.690477 0) scale(0.996264)"/>
       <use xlink:href="#CMR17-30" transform="translate(91.380954 0) scale(0.996264)"/>
       <use xlink:href="#CMR17-30" transform="translate(137.071431 0) scale(0.996264)"/>
      </g>
     </g>
    </g>
    <g id="ytick_5">
     <g id="line2d_59">
      <g>
       <use xlink:href="#m11b71061e9" x="43.652382" y="26.009537" style="stroke: #000000; stroke-width: 0.5"/>
      </g>
     </g>
     <g id="line2d_60">
      <g>
       <use xlink:href="#md6683e8d43" x="601.652382" y="26.009537" style="stroke: #000000; stroke-width: 0.5"/>
      </g>
     </g>
     <g id="text_11">
      <!-- $\mathdefault{5000}$ -->
      <g transform="translate(3.6 32.928035) scale(0.2 -0.2)">
       <defs>
        <path id="CMR17-35" d="M 730 3750 
C 794 3724 1056 3641 1325 3641 
C 1920 3641 2246 3961 2432 4140 
C 2432 4191 2432 4224 2394 4224 
C 2387 4224 2374 4224 2323 4198 
C 2099 4102 1837 4032 1517 4032 
C 1325 4032 1037 4055 723 4191 
C 653 4224 640 4224 634 4224 
C 602 4224 595 4217 595 4090 
L 595 2231 
C 595 2113 595 2080 659 2080 
C 691 2080 704 2093 736 2139 
C 941 2435 1222 2560 1542 2560 
C 1766 2560 2246 2415 2246 1293 
C 2246 1087 2246 716 2054 422 
C 1894 159 1645 25 1370 25 
C 947 25 518 319 403 812 
C 429 806 480 793 506 793 
C 589 793 749 838 749 1036 
C 749 1209 627 1280 506 1280 
C 358 1280 262 1190 262 1011 
C 262 454 704 -128 1382 -128 
C 2042 -128 2669 441 2669 1267 
C 2669 2054 2170 2662 1549 2662 
C 1222 2662 947 2540 730 2304 
L 730 3750 
z
" transform="scale(0.015625)"/>
       </defs>
       <use xlink:href="#CMR17-35" transform="scale(0.996264)"/>
       <use xlink:href="#CMR17-30" transform="translate(45.690477 0) scale(0.996264)"/>
       <use xlink:href="#CMR17-30" transform="translate(91.380954 0) scale(0.996264)"/>
       <use xlink:href="#CMR17-30" transform="translate(137.071431 0) scale(0.996264)"/>
      </g>
     </g>
    </g>
    <g id="ytick_6">
     <g id="line2d_61">
      <defs>
       <path id="m5e6e37c7d6" d="M 0 0 
L 1.5 0 
" style="stroke: #000000; stroke-width: 0.5"/>
      </defs>
      <g>
       <use xlink:href="#m5e6e37c7d6" x="43.652382" y="327.019159" style="stroke: #000000; stroke-width: 0.5"/>
      </g>
     </g>
     <g id="line2d_62">
      <defs>
       <path id="m86880d7e6d" d="M 0 0 
L -1.5 0 
" style="stroke: #000000; stroke-width: 0.5"/>
      </defs>
      <g>
       <use xlink:href="#m86880d7e6d" x="601.652382" y="327.019159" style="stroke: #000000; stroke-width: 0.5"/>
      </g>
     </g>
    </g>
    <g id="ytick_7">
     <g id="line2d_63">
      <g>
       <use xlink:href="#m5e6e37c7d6" x="43.652382" y="313.336903" style="stroke: #000000; stroke-width: 0.5"/>
      </g>
     </g>
     <g id="line2d_64">
      <g>
       <use xlink:href="#m86880d7e6d" x="601.652382" y="313.336903" style="stroke: #000000; stroke-width: 0.5"/>
      </g>
     </g>
    </g>
    <g id="ytick_8">
     <g id="line2d_65">
      <g>
       <use xlink:href="#m5e6e37c7d6" x="43.652382" y="285.972392" style="stroke: #000000; stroke-width: 0.5"/>
      </g>
     </g>
     <g id="line2d_66">
      <g>
       <use xlink:href="#m86880d7e6d" x="601.652382" y="285.972392" style="stroke: #000000; stroke-width: 0.5"/>
      </g>
     </g>
    </g>
    <g id="ytick_9">
     <g id="line2d_67">
      <g>
       <use xlink:href="#m5e6e37c7d6" x="43.652382" y="272.290137" style="stroke: #000000; stroke-width: 0.5"/>
      </g>
     </g>
     <g id="line2d_68">
      <g>
       <use xlink:href="#m86880d7e6d" x="601.652382" y="272.290137" style="stroke: #000000; stroke-width: 0.5"/>
      </g>
     </g>
    </g>
    <g id="ytick_10">
     <g id="line2d_69">
      <g>
       <use xlink:href="#m5e6e37c7d6" x="43.652382" y="258.607881" style="stroke: #000000; stroke-width: 0.5"/>
      </g>
     </g>
     <g id="line2d_70">
      <g>
       <use xlink:href="#m86880d7e6d" x="601.652382" y="258.607881" style="stroke: #000000; stroke-width: 0.5"/>
      </g>
     </g>
    </g>
    <g id="ytick_11">
     <g id="line2d_71">
      <g>
       <use xlink:href="#m5e6e37c7d6" x="43.652382" y="244.925625" style="stroke: #000000; stroke-width: 0.5"/>
      </g>
     </g>
     <g id="line2d_72">
      <g>
       <use xlink:href="#m86880d7e6d" x="601.652382" y="244.925625" style="stroke: #000000; stroke-width: 0.5"/>
      </g>
     </g>
    </g>
    <g id="ytick_12">
     <g id="line2d_73">
      <g>
       <use xlink:href="#m5e6e37c7d6" x="43.652382" y="217.561114" style="stroke: #000000; stroke-width: 0.5"/>
      </g>
     </g>
     <g id="line2d_74">
      <g>
       <use xlink:href="#m86880d7e6d" x="601.652382" y="217.561114" style="stroke: #000000; stroke-width: 0.5"/>
      </g>
     </g>
    </g>
    <g id="ytick_13">
     <g id="line2d_75">
      <g>
       <use xlink:href="#m5e6e37c7d6" x="43.652382" y="203.878859" style="stroke: #000000; stroke-width: 0.5"/>
      </g>
     </g>
     <g id="line2d_76">
      <g>
       <use xlink:href="#m86880d7e6d" x="601.652382" y="203.878859" style="stroke: #000000; stroke-width: 0.5"/>
      </g>
     </g>
    </g>
    <g id="ytick_14">
     <g id="line2d_77">
      <g>
       <use xlink:href="#m5e6e37c7d6" x="43.652382" y="190.196603" style="stroke: #000000; stroke-width: 0.5"/>
      </g>
     </g>
     <g id="line2d_78">
      <g>
       <use xlink:href="#m86880d7e6d" x="601.652382" y="190.196603" style="stroke: #000000; stroke-width: 0.5"/>
      </g>
     </g>
    </g>
    <g id="ytick_15">
     <g id="line2d_79">
      <g>
       <use xlink:href="#m5e6e37c7d6" x="43.652382" y="176.514348" style="stroke: #000000; stroke-width: 0.5"/>
      </g>
     </g>
     <g id="line2d_80">
      <g>
       <use xlink:href="#m86880d7e6d" x="601.652382" y="176.514348" style="stroke: #000000; stroke-width: 0.5"/>
      </g>
     </g>
    </g>
    <g id="ytick_16">
     <g id="line2d_81">
      <g>
       <use xlink:href="#m5e6e37c7d6" x="43.652382" y="149.149837" style="stroke: #000000; stroke-width: 0.5"/>
      </g>
     </g>
     <g id="line2d_82">
      <g>
       <use xlink:href="#m86880d7e6d" x="601.652382" y="149.149837" style="stroke: #000000; stroke-width: 0.5"/>
      </g>
     </g>
    </g>
    <g id="ytick_17">
     <g id="line2d_83">
      <g>
       <use xlink:href="#m5e6e37c7d6" x="43.652382" y="135.467581" style="stroke: #000000; stroke-width: 0.5"/>
      </g>
     </g>
     <g id="line2d_84">
      <g>
       <use xlink:href="#m86880d7e6d" x="601.652382" y="135.467581" style="stroke: #000000; stroke-width: 0.5"/>
      </g>
     </g>
    </g>
    <g id="ytick_18">
     <g id="line2d_85">
      <g>
       <use xlink:href="#m5e6e37c7d6" x="43.652382" y="121.785325" style="stroke: #000000; stroke-width: 0.5"/>
      </g>
     </g>
     <g id="line2d_86">
      <g>
       <use xlink:href="#m86880d7e6d" x="601.652382" y="121.785325" style="stroke: #000000; stroke-width: 0.5"/>
      </g>
     </g>
    </g>
    <g id="ytick_19">
     <g id="line2d_87">
      <g>
       <use xlink:href="#m5e6e37c7d6" x="43.652382" y="108.10307" style="stroke: #000000; stroke-width: 0.5"/>
      </g>
     </g>
     <g id="line2d_88">
      <g>
       <use xlink:href="#m86880d7e6d" x="601.652382" y="108.10307" style="stroke: #000000; stroke-width: 0.5"/>
      </g>
     </g>
    </g>
    <g id="ytick_20">
     <g id="line2d_89">
      <g>
       <use xlink:href="#m5e6e37c7d6" x="43.652382" y="80.738559" style="stroke: #000000; stroke-width: 0.5"/>
      </g>
     </g>
     <g id="line2d_90">
      <g>
       <use xlink:href="#m86880d7e6d" x="601.652382" y="80.738559" style="stroke: #000000; stroke-width: 0.5"/>
      </g>
     </g>
    </g>
    <g id="ytick_21">
     <g id="line2d_91">
      <g>
       <use xlink:href="#m5e6e37c7d6" x="43.652382" y="67.056303" style="stroke: #000000; stroke-width: 0.5"/>
      </g>
     </g>
     <g id="line2d_92">
      <g>
       <use xlink:href="#m86880d7e6d" x="601.652382" y="67.056303" style="stroke: #000000; stroke-width: 0.5"/>
      </g>
     </g>
    </g>
    <g id="ytick_22">
     <g id="line2d_93">
      <g>
       <use xlink:href="#m5e6e37c7d6" x="43.652382" y="53.374048" style="stroke: #000000; stroke-width: 0.5"/>
      </g>
     </g>
     <g id="line2d_94">
      <g>
       <use xlink:href="#m86880d7e6d" x="601.652382" y="53.374048" style="stroke: #000000; stroke-width: 0.5"/>
      </g>
     </g>
    </g>
    <g id="ytick_23">
     <g id="line2d_95">
      <g>
       <use xlink:href="#m5e6e37c7d6" x="43.652382" y="39.691792" style="stroke: #000000; stroke-width: 0.5"/>
      </g>
     </g>
     <g id="line2d_96">
      <g>
       <use xlink:href="#m86880d7e6d" x="601.652382" y="39.691792" style="stroke: #000000; stroke-width: 0.5"/>
      </g>
     </g>
    </g>
    <g id="ytick_24">
     <g id="line2d_97">
      <g>
       <use xlink:href="#m5e6e37c7d6" x="43.652382" y="12.327281" style="stroke: #000000; stroke-width: 0.5"/>
      </g>
     </g>
     <g id="line2d_98">
      <g>
       <use xlink:href="#m86880d7e6d" x="601.652382" y="12.327281" style="stroke: #000000; stroke-width: 0.5"/>
      </g>
     </g>
    </g>
   </g>
   <g id="line2d_99">
    <path d="M 69.016018 278.737899 
L 70.901338 286.940412 
L 72.725841 286.667451 
L 74.611161 281.15829 
L 78.320985 285.667962 
L 80.206305 287.443235 
L 82.030808 296.600768 
L 83.916128 294.415028 
L 85.740631 290.783073 
L 87.625951 289.739801 
L 89.511272 290.062702 
L 91.214141 292.767684 
L 93.099461 289.133677 
L 94.923965 291.997373 
L 96.809285 294.233054 
L 98.633788 298.695522 
L 100.519108 306.250179 
L 102.404428 305.637214 
L 104.228931 308.697934 
L 106.114251 309.599595 
L 107.938755 305.816451 
L 109.824075 306.551873 
L 111.709395 306.780366 
L 113.412264 310.803634 
L 115.297584 310.146885 
L 119.007408 304.035706 
L 120.831911 300.475583 
L 122.717231 300.164996 
L 124.602551 300.370914 
L 126.427054 298.324732 
L 128.312375 297.005079 
L 130.136878 296.240925 
L 132.022198 294.137962 
L 133.907518 290.588785 
L 135.671204 289.847207 
L 137.556524 291.173017 
L 139.381028 290.53132 
L 141.266348 292.623337 
L 143.090851 290.572366 
L 144.976171 292.413314 
L 146.861491 293.570149 
L 148.685994 291.605377 
L 150.571314 291.636162 
L 152.395818 288.097246 
L 154.281138 286.026437 
L 156.166458 287.244158 
L 157.869328 285.997704 
L 159.754648 286.32129 
L 161.579151 288.405781 
L 163.464471 287.458285 
L 165.288974 285.818467 
L 167.174294 284.450925 
L 170.884118 284.199172 
L 172.769438 286.522419 
L 174.593941 283.415863 
L 176.479261 281.726104 
L 178.364581 280.586372 
L 180.067451 280.728668 
L 181.952771 279.559519 
L 183.777274 278.982812 
L 185.662594 279.814693 
L 187.487097 282.334964 
L 189.372417 281.851297 
L 191.257737 280.010349 
L 193.082241 277.917648 
L 194.967561 274.795358 
L 198.677384 271.166823 
L 200.562704 270.63732 
L 202.265574 269.225311 
L 204.150894 271.814678 
L 205.975397 267.936443 
L 207.860717 264.686907 
L 209.685221 264.478253 
L 211.570541 264.032211 
L 213.455861 268.553513 
L 217.165684 262.735817 
L 218.990187 267.953546 
L 220.875507 266.870595 
L 222.760827 273.743192 
L 224.524514 275.377538 
L 226.409834 277.972377 
L 228.234337 274.310322 
L 230.119657 272.069852 
L 231.944161 276.309299 
L 233.829481 282.050374 
L 235.714801 280.398925 
L 237.539304 284.812821 
L 239.424624 301.78908 
L 241.249127 307.656031 
L 243.134447 308.030925 
L 245.019767 308.850492 
L 246.722637 312.979112 
L 248.607957 316.269695 
L 250.43246 310.0429 
L 252.31778 306.330904 
L 254.142284 304.708873 
L 256.027604 304.045283 
L 257.912924 298.989006 
L 259.737427 296.606925 
L 263.44725 293.629666 
L 265.33257 292.103411 
L 267.217891 291.200382 
L 268.92076 293.555098 
L 270.80608 289.252713 
L 272.630584 286.155734 
L 274.515904 291.099133 
L 276.340407 293.951884 
L 278.225727 294.195428 
L 280.111047 293.683711 
L 281.93555 291.302999 
L 283.82087 287.916641 
L 285.645374 286.048329 
L 291.118883 277.686418 
L 293.004203 278.824098 
L 294.828707 276.975625 
L 296.714027 276.510428 
L 298.53853 280.000772 
L 300.42385 277.407984 
L 302.30917 286.977354 
L 304.133673 287.759295 
L 306.018994 285.478463 
L 307.843497 284.164966 
L 309.728817 283.008816 
L 313.377823 275.540356 
L 315.263143 273.026242 
L 317.087647 273.218478 
L 318.972967 276.307931 
L 320.79747 277.524968 
L 322.68279 275.041638 
L 326.392613 269.319719 
L 328.277933 269.702822 
L 330.102437 272.665714 
L 331.987757 270.765249 
L 333.873077 266.78987 
L 335.575947 264.606866 
L 337.461267 261.971664 
L 339.28577 260.612331 
L 341.17109 255.882376 
L 342.995593 257.323801 
L 344.880913 253.909394 
L 346.766233 253.812935 
L 348.590737 252.64447 
L 350.476057 250.396475 
L 352.30056 246.051675 
L 354.18588 244.393386 
L 356.0712 243.395949 
L 357.77407 243.759897 
L 359.65939 240.580141 
L 361.483893 240.529517 
L 363.369213 238.784345 
L 365.193716 234.863011 
L 367.079036 233.083633 
L 368.964356 233.875152 
L 370.78886 231.706514 
L 372.67418 235.534809 
L 374.498683 228.194279 
L 376.384003 227.53069 
L 378.269323 229.31554 
L 379.972193 225.619963 
L 381.857513 225.771152 
L 385.567336 223.585411 
L 387.39184 224.450814 
L 389.27716 224.803132 
L 391.16248 228.515812 
L 392.986983 235.046353 
L 394.872303 229.546086 
L 396.696806 225.728053 
L 398.582126 227.543688 
L 400.467446 236.812048 
L 402.231133 237.78212 
L 404.116453 229.741742 
L 405.940956 226.075582 
L 407.826276 226.759011 
L 409.65078 225.504348 
L 411.5361 221.056931 
L 413.42142 219.548462 
L 417.131243 221.459189 
L 418.955746 219.956193 
L 420.841066 214.371096 
L 422.726386 212.422059 
L 424.429256 208.673805 
L 426.314576 206.148745 
L 428.139079 206.662514 
L 430.024399 204.196971 
L 431.848903 201.553559 
L 433.734223 200.177809 
L 435.619543 200.032777 
L 437.444046 197.527556 
L 439.329366 193.138288 
L 441.153869 190.633751 
L 443.039189 185.795022 
L 444.92451 177.212143 
L 446.627379 183.002473 
L 448.512699 183.165976 
L 450.337203 186.527706 
L 452.222523 183.253543 
L 454.047026 179.637322 
L 455.932346 176.949443 
L 457.817666 172.558808 
L 459.642169 169.570603 
L 461.527489 177.509048 
L 463.351993 181.766281 
L 465.237313 192.432968 
L 467.122633 189.691044 
L 468.825502 179.602433 
L 470.710822 176.242071 
L 472.535326 169.413257 
L 474.420646 172.771567 
L 476.245149 170.345703 
L 478.130469 163.097963 
L 480.015789 169.844372 
L 481.840292 164.052823 
L 483.725613 164.359032 
L 485.550116 155.655441 
L 487.435436 150.740431 
L 489.320756 143.799879 
L 491.084442 143.860673 
L 492.969762 186.612288 
L 494.794266 179.11567 
L 496.679586 168.331333 
L 498.504089 155.672106 
L 500.389409 148.628605 
L 502.274729 136.03471 
L 504.099232 137.82663 
L 505.984552 134.188197 
L 507.809056 125.274814 
L 509.694376 115.265047 
L 513.282566 102.395373 
L 515.167886 100.543059 
L 516.992389 84.762771 
L 518.877709 82.938016 
L 520.702212 78.10544 
L 522.587532 69.538753 
L 524.472852 63.347977 
L 526.297356 63.940626 
L 528.182676 62.90325 
L 530.007179 48.76404 
L 531.892499 48.25875 
L 533.777819 55.165363 
L 535.480689 64.594829 
L 537.366009 67.653861 
L 539.190512 67.651755 
L 541.075832 91.659735 
L 542.900335 101.334002 
L 544.785655 100.459512 
L 546.670975 83.573314 
L 548.495479 104.6469 
L 550.380799 113.162019 
L 552.205302 100.065527 
L 554.090622 100.414945 
L 555.975942 97.112353 
L 557.678812 88.96948 
L 559.564132 96.571724 
L 561.388635 86.111076 
L 563.273955 84.42092 
L 565.098459 70.793416 
L 566.983779 59.66272 
L 570.693602 66.434103 
L 572.578922 75.990754 
L 574.403425 62.947294 
L 576.288745 47.555566 
L 576.288745 47.555566 
" clip-path="url(#pc1c80fd46f)" style="fill: none; stroke-dasharray: 3.7,1.6; stroke-dashoffset: 0; stroke: #000000"/>
   </g>
   <g id="line2d_100">
    <path d="M 69.016018 275.752284 
L 70.901338 278.108029 
L 72.725841 287.290588 
L 74.611161 286.561434 
L 76.435665 279.396574 
L 78.320985 282.635562 
L 80.206305 285.426199 
L 82.030808 286.566502 
L 83.916128 298.74847 
L 85.740631 293.664473 
L 87.625951 290.220519 
L 89.511272 290.017603 
L 91.214141 290.455697 
L 93.099461 293.461987 
L 94.923965 288.931374 
L 96.809285 292.506496 
L 98.633788 294.66216 
L 100.519108 298.817131 
L 102.404428 307.234784 
L 104.228931 304.920754 
L 106.114251 308.653174 
L 107.938755 309.411649 
L 109.824075 304.796275 
L 111.709395 306.254027 
L 113.412264 306.5367 
L 115.297584 311.192513 
L 117.122088 309.728872 
L 119.007408 306.760589 
L 120.831911 302.877316 
L 122.717231 299.127158 
L 124.602551 301.092471 
L 126.427054 300.52354 
L 128.312375 297.534545 
L 130.136878 296.47858 
L 132.022198 296.006137 
L 133.907518 293.579353 
L 135.671204 289.100163 
L 137.556524 289.351951 
L 139.381028 290.574351 
L 141.266348 291.1735 
L 143.090851 292.847195 
L 144.976171 289.868082 
L 146.861491 292.02517 
L 148.685994 293.043541 
L 150.571314 290.696431 
L 152.395818 291.299105 
L 154.281138 287.205517 
L 156.166458 285.272684 
L 157.869328 286.953624 
L 159.754648 285.343161 
L 161.579151 286.343644 
L 163.464471 288.100317 
L 165.288974 286.685371 
L 167.174294 284.950628 
L 169.059614 284.098784 
L 170.884118 283.971362 
L 172.769438 283.723122 
L 174.593941 286.616811 
L 176.479261 282.632752 
L 178.364581 280.916449 
L 180.067451 279.941698 
L 181.952771 280.574648 
L 183.777274 279.154151 
L 185.662594 278.967102 
L 187.487097 279.645643 
L 189.372417 282.344516 
L 191.257737 281.32839 
L 193.082241 278.745635 
L 194.967561 276.651425 
L 196.792064 273.482094 
L 198.677384 271.891035 
L 200.562704 270.115983 
L 202.265574 270.514247 
L 204.150894 268.507569 
L 205.975397 271.394904 
L 207.860717 267.080332 
L 209.685221 263.670436 
L 211.570541 264.451391 
L 213.455861 263.212099 
L 215.280364 267.923391 
L 217.165684 264.252113 
L 218.990187 261.560008 
L 220.875507 267.044789 
L 222.760827 266.202294 
L 224.524514 273.218625 
L 228.234337 277.230201 
L 230.119657 273.741308 
L 231.944161 271.625362 
L 235.714801 282.237237 
L 237.539304 279.403646 
L 239.424624 284.446358 
L 241.249127 306.070659 
L 243.134447 310.452582 
L 245.019767 307.323018 
L 248.607957 317.349059 
L 250.43246 317.48597 
L 252.31778 308.365859 
L 254.142284 309.160557 
L 256.027604 303.532303 
L 257.912924 303.810656 
L 259.737427 298.643541 
L 261.622747 296.340332 
L 263.44725 293.584228 
L 265.33257 289.503642 
L 267.217891 290.206808 
L 268.92076 289.729939 
L 270.80608 293.441405 
L 272.630584 288.107142 
L 274.515904 285.47378 
L 276.340407 291.318709 
L 278.225727 293.798728 
L 280.111047 293.849599 
L 281.93555 292.475725 
L 283.82087 290.791886 
L 285.645374 286.689004 
L 287.530694 286.565605 
L 289.416014 284.201189 
L 291.118883 278.895069 
L 293.004203 277.631256 
L 294.828707 278.333121 
L 296.714027 276.546468 
L 298.53853 275.48124 
L 300.42385 279.920736 
L 302.30917 276.592404 
L 304.133673 287.049354 
L 306.018994 286.424771 
L 307.843497 286.087743 
L 309.728817 282.759062 
L 311.614137 282.425405 
L 313.377823 277.637951 
L 315.263143 274.451693 
L 317.087647 273.872948 
L 318.972967 272.069248 
L 320.79747 275.276586 
L 322.68279 276.211255 
L 324.56811 273.717017 
L 326.392613 272.571404 
L 328.277933 267.841893 
L 330.102437 269.761252 
L 331.987757 272.749333 
L 333.873077 270.396995 
L 337.461267 263.512963 
L 339.28577 261.025345 
L 341.17109 259.146562 
L 342.995593 255.834362 
L 344.880913 259.42923 
L 346.766233 252.231898 
L 348.590737 253.198324 
L 350.476057 252.052577 
L 352.30056 249.156601 
L 354.18588 245.928504 
L 356.0712 244.553347 
L 357.77407 242.783311 
L 359.65939 242.867316 
L 361.483893 239.680612 
L 363.369213 240.129761 
L 365.193716 237.575004 
L 367.079036 234.099914 
L 368.964356 231.801777 
L 370.78886 233.120089 
L 372.67418 231.463386 
L 374.498683 234.840436 
L 376.384003 226.426368 
L 378.269323 225.705859 
L 379.972193 226.832307 
L 381.857513 225.678799 
L 383.682016 225.206936 
L 385.567336 223.470495 
L 387.39184 224.619686 
L 389.27716 223.487479 
L 391.16248 223.566571 
L 392.986983 227.791995 
L 394.872303 235.903699 
L 396.696806 227.088715 
L 398.582126 226.071397 
L 400.467446 226.751996 
L 402.231133 237.940937 
L 404.116453 235.173236 
L 405.940956 228.315538 
L 407.826276 224.036576 
L 409.65078 226.292033 
L 411.5361 224.164531 
L 413.42142 218.630108 
L 418.955746 221.230849 
L 420.841066 220.004863 
L 422.726386 212.665307 
L 424.429256 211.005955 
L 426.314576 207.720091 
L 428.139079 205.725705 
L 430.024399 205.61963 
L 431.848903 203.153041 
L 433.734223 199.931513 
L 435.619543 199.947221 
L 437.444046 198.877427 
L 439.329366 196.397677 
L 441.153869 192.377262 
L 443.039189 189.418307 
L 444.92451 184.365522 
L 446.627379 175.788479 
L 448.512699 183.603596 
L 450.337203 182.036168 
L 452.222523 186.026133 
L 454.047026 181.886472 
L 455.932346 177.886869 
L 457.817666 175.726895 
L 459.642169 171.065603 
L 461.527489 168.648204 
L 463.351993 177.931142 
L 465.237313 181.365935 
L 467.122633 192.702135 
L 468.825502 187.688871 
L 470.710822 176.309739 
L 472.535326 174.047886 
L 474.420646 167.01014 
L 476.245149 171.612652 
L 478.130469 167.088794 
L 480.015789 157.778119 
L 481.840292 169.54869 
L 483.725613 162.145537 
L 485.550116 163.739013 
L 487.435436 153.937323 
L 489.320756 149.054762 
L 491.084442 142.693387 
L 492.969762 144.082649 
L 494.794266 194.400977 
L 496.679586 177.149171 
L 498.504089 168.623459 
L 500.389409 152.735683 
L 502.274729 143.69633 
L 504.099232 132.429996 
L 505.984552 137.535268 
L 507.809056 133.63957 
L 511.579696 110.641195 
L 513.282566 107.825878 
L 515.167886 98.931325 
L 516.992389 98.880922 
L 518.877709 80.124106 
L 520.702212 80.943459 
L 522.587532 76.049588 
L 524.472852 64.335315 
L 526.297356 60.05657 
L 528.182676 63.911183 
L 530.007179 61.113607 
L 531.892499 44.254958 
L 533.777819 47.575254 
L 535.480689 54.156062 
L 537.366009 64.326019 
L 539.190512 67.257424 
L 541.075832 68.114453 
L 542.900335 92.558829 
L 544.785655 100.698741 
L 546.670975 99.164585 
L 548.495479 77.522632 
L 550.380799 110.363852 
L 552.205302 114.447267 
L 554.090622 94.247603 
L 555.975942 99.433559 
L 559.564132 88.287378 
L 561.388635 96.050342 
L 563.273955 81.889806 
L 565.098459 85.10311 
L 566.983779 67.669933 
L 568.869099 56.305562 
L 570.693602 64.844444 
L 572.578922 66.554232 
L 574.403425 76.968774 
L 576.288745 57.452169 
L 576.288745 57.452169 
" clip-path="url(#pc1c80fd46f)" style="fill: none; stroke: #ff0000; stroke-linecap: square"/>
   </g>
   <g id="patch_3">
    <path d="M 43.652382 336.24 
L 43.652382 3.6 
" style="fill: none; stroke: #000000; stroke-width: 0.5; stroke-linejoin: miter; stroke-linecap: square"/>
   </g>
   <g id="patch_4">
    <path d="M 601.652382 336.24 
L 601.652382 3.6 
" style="fill: none; stroke: #000000; stroke-width: 0.5; stroke-linejoin: miter; stroke-linecap: square"/>
   </g>
   <g id="patch_5">
    <path d="M 43.652382 336.24 
L 601.652382 336.24 
" style="fill: none; stroke: #000000; stroke-width: 0.5; stroke-linejoin: miter; stroke-linecap: square"/>
   </g>
   <g id="patch_6">
    <path d="M 43.652382 3.6 
L 601.652382 3.6 
" style="fill: none; stroke: #000000; stroke-width: 0.5; stroke-linejoin: miter; stroke-linecap: square"/>
   </g>
   <g id="legend_1">
    <g id="line2d_101">
     <path d="M 56.252382 21.1 
L 70.252382 21.1 
L 84.252382 21.1 
" style="fill: none; stroke-dasharray: 3.7,1.6; stroke-dashoffset: 0; stroke: #000000"/>
    </g>
    <g id="text_12">
     <!-- SP 500 -->
     <g transform="translate(95.452382 26) scale(0.14 -0.14)">
      <defs>
       <path id="CMR17-53" d="M 2803 4351 
C 2803 4467 2797 4473 2758 4473 
C 2720 4473 2707 4447 2682 4390 
L 2490 3965 
C 2246 4320 1875 4480 1472 4480 
C 819 4480 294 3958 294 3301 
C 294 3101 339 2817 557 2546 
C 794 2250 1018 2198 1530 2063 
C 1722 2011 2042 1927 2106 1901 
C 2470 1747 2662 1360 2662 999 
C 2662 534 2336 38 1779 38 
C 1094 38 454 425 410 1328 
C 403 1431 397 1437 352 1437 
C 301 1437 294 1431 294 1302 
L 294 0 
C 294 -116 301 -122 339 -122 
C 384 -122 397 -90 486 109 
C 493 128 493 141 614 386 
C 934 -39 1472 -128 1779 -128 
C 2477 -128 2970 457 2970 1141 
C 2970 1476 2848 1734 2778 1850 
C 2509 2263 2221 2340 1914 2417 
C 1869 2437 1856 2437 1498 2527 
C 1152 2617 1005 2662 845 2836 
C 666 3036 602 3243 602 3449 
C 602 3868 934 4326 1478 4326 
C 2157 4326 2579 3842 2675 3036 
C 2694 2920 2701 2914 2746 2914 
C 2803 2914 2803 2933 2803 3043 
L 2803 4351 
z
" transform="scale(0.015625)"/>
       <path id="CMR17-50" d="M 1267 2048 
L 2291 2048 
C 3117 2048 3718 2583 3718 3187 
C 3718 3791 3130 4352 2291 4352 
L 333 4352 
L 333 4185 
C 774 4185 845 4185 845 3899 
L 845 453 
C 845 166 774 166 333 166 
L 333 0 
C 518 12 858 12 1056 12 
C 1254 12 1594 12 1779 0 
L 1779 166 
C 1338 166 1267 166 1267 453 
L 1267 2048 
z
M 1254 2182 
L 1254 3937 
C 1254 4153 1267 4185 1523 4185 
L 2170 4185 
C 2995 4185 3232 3715 3232 3187 
C 3232 2608 2950 2182 2170 2182 
L 1254 2182 
z
" transform="scale(0.015625)"/>
      </defs>
      <use xlink:href="#CMR17-53" transform="scale(0.996264)"/>
      <use xlink:href="#CMR17-50" transform="translate(50.89537 0) scale(0.996264)"/>
      <use xlink:href="#CMR17-35" transform="translate(143.557637 0) scale(0.996264)"/>
      <use xlink:href="#CMR17-30" transform="translate(189.248114 0) scale(0.996264)"/>
      <use xlink:href="#CMR17-30" transform="translate(234.938591 0) scale(0.996264)"/>
     </g>
    </g>
    <g id="line2d_102">
     <path d="M 56.252382 41.2728 
L 70.252382 41.2728 
L 84.252382 41.2728 
" style="fill: none; stroke: #ff0000; stroke-linecap: square"/>
    </g>
    <g id="text_13">
     <!-- combined forecast (BIC) -->
     <g transform="translate(95.452382 46.1728) scale(0.14 -0.14)">
      <defs>
       <path id="CMR17-63" d="M 2234 2240 
C 2112 2240 1933 2240 1933 2015 
C 1933 1836 2080 1785 2163 1785 
C 2208 1785 2394 1804 2394 2028 
C 2394 2476 1958 2816 1466 2816 
C 787 2816 211 2201 211 1379 
C 211 521 813 -64 1466 -64 
C 2259 -64 2458 676 2458 747 
C 2458 773 2451 792 2406 792 
C 2362 792 2355 786 2330 702 
C 2163 180 1798 51 1523 51 
C 1114 51 621 431 621 1385 
C 621 2358 1094 2700 1472 2700 
C 1722 2700 2093 2582 2234 2240 
z
" transform="scale(0.015625)"/>
       <path id="CMR17-6f" d="M 2758 1356 
C 2758 2176 2163 2816 1466 2816 
C 768 2816 173 2176 173 1356 
C 173 550 768 -64 1466 -64 
C 2163 -64 2758 550 2758 1356 
z
M 1466 51 
C 1165 51 909 230 762 480 
C 602 768 582 1126 582 1408 
C 582 1676 595 2009 762 2297 
C 890 2508 1139 2713 1466 2713 
C 1754 2713 1997 2553 2150 2329 
C 2349 2028 2349 1606 2349 1408 
C 2349 1158 2336 774 2163 467 
C 1984 172 1709 51 1466 51 
z
" transform="scale(0.015625)"/>
       <path id="CMR17-6d" d="M 4326 1954 
C 4326 2276 4269 2816 3507 2816 
C 3072 2816 2771 2520 2656 2173 
L 2650 2173 
C 2573 2700 2195 2816 1837 2816 
C 1331 2816 1069 2424 973 2166 
L 966 2166 
L 966 2816 
L 211 2745 
L 211 2578 
C 589 2578 646 2540 646 2231 
L 646 443 
C 646 198 621 166 211 166 
L 211 0 
C 365 12 646 12 813 12 
C 979 12 1267 12 1421 0 
L 1421 166 
C 1011 166 986 192 986 443 
L 986 1678 
C 986 2269 1344 2713 1792 2713 
C 2266 2713 2317 2289 2317 1980 
L 2317 443 
C 2317 198 2291 166 1882 166 
L 1882 0 
C 2035 12 2317 12 2483 12 
C 2650 12 2938 12 3091 0 
L 3091 166 
C 2682 166 2656 192 2656 443 
L 2656 1678 
C 2656 2269 3014 2713 3462 2713 
C 3936 2713 3987 2289 3987 1980 
L 3987 443 
C 3987 198 3962 166 3552 166 
L 3552 0 
C 3706 12 3987 12 4154 12 
C 4320 12 4608 12 4762 0 
L 4762 166 
C 4352 166 4326 192 4326 443 
L 4326 1954 
z
" transform="scale(0.015625)"/>
       <path id="CMR17-62" d="M 960 4416 
L 198 4345 
L 198 4179 
C 576 4179 634 4141 634 3843 
L 634 -13 
L 749 -13 
L 934 445 
C 1120 141 1395 -64 1766 -64 
C 2406 -64 3053 503 3053 1382 
C 3053 2209 2477 2816 1830 2816 
C 1434 2816 1152 2603 960 2351 
L 960 4416 
z
M 973 2022 
C 973 2138 973 2157 1062 2293 
C 1312 2681 1670 2713 1792 2713 
C 1984 2713 2643 2610 2643 1388 
C 2643 109 1888 38 1734 38 
C 1536 38 1248 115 1043 490 
C 973 613 973 626 973 742 
L 973 2022 
z
" transform="scale(0.015625)"/>
       <path id="CMR17-69" d="M 992 3961 
C 992 4102 877 4224 730 4224 
C 589 4224 467 4108 467 3961 
C 467 3820 582 3699 730 3699 
C 870 3699 992 3814 992 3961 
z
M 243 2745 
L 243 2579 
C 602 2579 653 2540 653 2231 
L 653 443 
C 653 198 627 166 218 166 
L 218 0 
C 371 12 646 12 806 12 
C 960 12 1222 12 1370 0 
L 1370 166 
C 992 166 979 205 979 436 
L 979 2816 
L 243 2745 
z
" transform="scale(0.015625)"/>
       <path id="CMR17-6e" d="M 2656 1954 
C 2656 2282 2592 2816 1837 2816 
C 1331 2816 1069 2424 973 2166 
L 966 2166 
L 966 2816 
L 211 2745 
L 211 2578 
C 589 2578 646 2540 646 2231 
L 646 443 
C 646 198 621 166 211 166 
L 211 0 
C 365 12 646 12 813 12 
C 979 12 1267 12 1421 0 
L 1421 166 
C 1011 166 986 192 986 443 
L 986 1678 
C 986 2269 1344 2713 1792 2713 
C 2266 2713 2317 2289 2317 1980 
L 2317 443 
C 2317 198 2291 166 1882 166 
L 1882 0 
C 2035 12 2317 12 2483 12 
C 2650 12 2938 12 3091 0 
L 3091 166 
C 2682 166 2656 192 2656 443 
L 2656 1954 
z
" transform="scale(0.015625)"/>
       <path id="CMR17-65" d="M 2438 1503 
C 2464 1529 2464 1542 2464 1606 
C 2464 2251 2118 2816 1389 2816 
C 710 2816 173 2175 173 1394 
C 173 554 781 -64 1459 -64 
C 2176 -64 2458 619 2458 755 
C 2458 800 2419 800 2406 800 
C 2362 800 2355 787 2330 709 
C 2189 270 1837 51 1504 51 
C 1229 51 954 206 781 490 
C 582 819 582 1200 582 1503 
L 2438 1503 
z
M 589 1600 
C 634 2511 1126 2713 1382 2713 
C 1818 2713 2112 2308 2118 1600 
L 589 1600 
z
" transform="scale(0.015625)"/>
       <path id="CMR17-64" d="M 1869 4345 
L 1869 4179 
C 2246 4179 2304 4141 2304 3843 
L 2304 2371 
C 2278 2403 2016 2816 1498 2816 
C 845 2816 211 2228 211 1376 
C 211 529 806 -64 1434 -64 
C 1978 -64 2259 361 2291 406 
L 2291 -64 
L 3066 -13 
L 3066 154 
C 2688 154 2630 193 2630 503 
L 2630 4416 
L 1869 4345 
z
M 2291 762 
C 2291 568 2176 393 2029 264 
C 1811 70 1594 38 1472 38 
C 1286 38 621 135 621 1369 
C 621 2636 1363 2713 1530 2713 
C 1824 2713 2061 2545 2208 2313 
C 2291 2177 2291 2157 2291 2041 
L 2291 762 
z
" transform="scale(0.015625)"/>
       <path id="CMR17-66" d="M 979 2585 
L 1709 2585 
L 1709 2752 
L 966 2752 
L 966 3539 
C 966 4076 1235 4377 1510 4377 
C 1594 4377 1690 4363 1754 4339 
C 1702 4326 1568 4281 1568 4121 
C 1568 3955 1696 3904 1786 3904 
C 1875 3904 2003 3955 2003 4121 
C 2003 4353 1773 4480 1517 4480 
C 1152 4480 653 4211 653 3526 
L 653 2752 
L 141 2752 
L 141 2585 
L 653 2585 
L 653 441 
C 653 198 627 166 218 166 
L 218 0 
C 371 12 666 12 832 12 
C 1018 12 1344 12 1517 0 
L 1517 166 
C 1056 166 979 166 979 454 
L 979 2585 
z
" transform="scale(0.015625)"/>
       <path id="CMR17-72" d="M 960 1517 
C 960 2134 1222 2713 1702 2713 
C 1747 2713 1792 2707 1837 2687 
C 1837 2687 1696 2642 1696 2475 
C 1696 2321 1818 2257 1914 2257 
C 1990 2257 2131 2302 2131 2482 
C 2131 2687 1926 2816 1709 2816 
C 1222 2816 1011 2340 947 2115 
L 941 2115 
L 941 2816 
L 198 2745 
L 198 2578 
C 576 2578 634 2540 634 2231 
L 634 443 
C 634 198 608 166 198 166 
L 198 0 
C 352 12 646 12 813 12 
C 998 12 1325 12 1498 0 
L 1498 166 
C 1037 166 960 166 960 455 
L 960 1517 
z
" transform="scale(0.015625)"/>
       <path id="CMR17-61" d="M 2304 1656 
C 2304 2048 2304 2275 2035 2534 
C 1798 2751 1523 2816 1306 2816 
C 800 2816 435 2408 435 1977 
C 435 1740 627 1728 666 1728 
C 749 1728 896 1779 896 1958 
C 896 2118 774 2188 666 2188 
C 640 2188 608 2182 589 2176 
C 723 2594 1069 2713 1293 2713 
C 1613 2713 1965 2421 1965 1875 
L 1965 1632 
C 1587 1619 1133 1568 774 1373 
C 371 1147 256 822 256 576 
C 256 77 832 -64 1171 -64 
C 1523 -64 1850 135 1990 505 
C 2003 219 2182 -39 2464 -39 
C 2598 -39 2938 51 2938 563 
L 2938 926 
L 2822 926 
L 2822 557 
C 2822 161 2650 109 2566 109 
C 2304 109 2304 446 2304 732 
L 2304 1656 
z
M 1965 887 
C 1965 323 1568 38 1216 38 
C 896 38 646 278 646 576 
C 646 771 730 1114 1101 1322 
C 1408 1497 1760 1523 1965 1536 
L 1965 887 
z
" transform="scale(0.015625)"/>
       <path id="CMR17-73" d="M 1978 2688 
C 1978 2803 1971 2809 1933 2809 
C 1907 2809 1901 2803 1824 2707 
C 1805 2681 1747 2617 1728 2592 
C 1523 2809 1235 2816 1126 2816 
C 416 2816 160 2444 160 2073 
C 160 1497 813 1363 998 1324 
C 1402 1241 1542 1216 1677 1100 
C 1760 1024 1901 883 1901 652 
C 1901 384 1747 38 1158 38 
C 602 38 403 460 288 1024 
C 269 1113 269 1120 218 1120 
C 166 1120 160 1113 160 985 
L 160 64 
C 160 -52 166 -58 205 -58 
C 237 -58 243 -52 275 0 
C 314 57 410 211 448 275 
C 576 102 800 -64 1158 -64 
C 1792 -64 2131 281 2131 780 
C 2131 1107 1958 1280 1875 1356 
C 1683 1555 1459 1600 1190 1651 
C 838 1728 390 1817 390 2208 
C 390 2374 480 2726 1126 2726 
C 1811 2726 1850 2086 1862 1881 
C 1869 1849 1901 1843 1920 1843 
C 1978 1843 1978 1862 1978 1971 
L 1978 2688 
z
" transform="scale(0.015625)"/>
       <path id="CMR17-74" d="M 966 2585 
L 1862 2585 
L 1862 2752 
L 966 2752 
L 966 3968 
L 851 3968 
C 838 3292 614 2700 70 2687 
L 70 2585 
L 627 2585 
L 627 778 
C 627 655 627 -64 1370 -64 
C 1747 -64 1965 308 1965 784 
L 1965 1151 
L 1850 1151 
L 1850 790 
C 1850 347 1677 51 1408 51 
C 1222 51 966 179 966 765 
L 966 2585 
z
" transform="scale(0.015625)"/>
       <path id="CMR17-28" d="M 1958 -1562 
C 1958 -1556 1958 -1543 1939 -1524 
C 1645 -1223 858 -403 858 1596 
C 858 3595 1632 4408 1946 4729 
C 1946 4735 1958 4748 1958 4767 
C 1958 4787 1939 4800 1914 4800 
C 1843 4800 1299 4325 986 3620 
C 666 2909 576 2218 576 1603 
C 576 1141 621 360 1005 -467 
C 1312 -1133 1837 -1600 1914 -1600 
C 1946 -1600 1958 -1588 1958 -1562 
z
" transform="scale(0.015625)"/>
       <path id="CMR17-42" d="M 333 4352 
L 333 4185 
C 774 4185 845 4185 845 3897 
L 845 451 
C 845 166 774 166 333 166 
L 333 0 
L 2534 0 
C 3354 0 3885 578 3885 1155 
C 3885 1726 3360 2214 2675 2259 
C 3290 2380 3718 2790 3718 3276 
C 3718 3808 3194 4352 2368 4352 
L 333 4352 
z
M 1248 2304 
L 1248 3936 
C 1248 4153 1261 4185 1517 4185 
L 2336 4185 
C 2970 4185 3251 3673 3251 3276 
C 3251 2790 2861 2304 2170 2304 
L 1248 2304 
z
M 1517 166 
C 1261 166 1248 198 1248 413 
L 1248 2201 
L 2432 2201 
C 3091 2201 3411 1624 3411 1161 
C 3411 698 3046 166 2349 166 
L 1517 166 
z
" transform="scale(0.015625)"/>
       <path id="CMR17-49" d="M 1261 3898 
C 1261 4185 1338 4185 1798 4185 
L 1798 4352 
C 1594 4339 1267 4339 1050 4339 
C 832 4339 506 4339 301 4352 
L 301 4185 
C 762 4185 838 4185 838 3898 
L 838 453 
C 838 166 762 166 301 166 
L 301 0 
C 506 12 832 12 1050 12 
C 1267 12 1594 12 1798 0 
L 1798 166 
C 1338 166 1261 166 1261 453 
L 1261 3898 
z
" transform="scale(0.015625)"/>
       <path id="CMR17-43" d="M 3974 4351 
C 3974 4467 3968 4473 3930 4473 
C 3904 4473 3898 4467 3853 4390 
L 3571 3849 
C 3258 4249 2874 4480 2381 4480 
C 1286 4480 294 3507 294 2179 
C 294 837 1286 -128 2387 -128 
C 3366 -128 3974 741 3974 1482 
C 3974 1547 3974 1573 3917 1573 
C 3866 1573 3866 1553 3859 1495 
C 3808 592 3168 38 2477 38 
C 1824 38 781 502 781 2179 
C 781 3862 1843 4313 2464 4313 
C 3187 4313 3712 3681 3834 2785 
C 3846 2707 3846 2695 3904 2695 
C 3974 2695 3974 2707 3974 2824 
L 3974 4351 
z
" transform="scale(0.015625)"/>
       <path id="CMR17-29" d="M 1683 1596 
C 1683 2057 1638 2839 1254 3665 
C 947 4332 422 4800 346 4800 
C 326 4800 301 4793 301 4761 
C 301 4748 307 4742 314 4729 
C 621 4408 1402 3595 1402 1603 
C 1402 -396 627 -1210 314 -1530 
C 307 -1543 301 -1549 301 -1562 
C 301 -1594 326 -1600 346 -1600 
C 416 -1600 960 -1127 1274 -422 
C 1594 289 1683 981 1683 1596 
z
" transform="scale(0.015625)"/>
      </defs>
      <use xlink:href="#CMR17-63" transform="scale(0.996264)"/>
      <use xlink:href="#CMR17-6f" transform="translate(40.48566 0) scale(0.996264)"/>
      <use xlink:href="#CMR17-6d" transform="translate(86.176138 0) scale(0.996264)"/>
      <use xlink:href="#CMR17-62" transform="translate(160.493274 0) scale(0.996264)"/>
      <use xlink:href="#CMR17-69" transform="translate(211.388643 0) scale(0.996264)"/>
      <use xlink:href="#CMR17-6e" transform="translate(236.259702 0) scale(0.996264)"/>
      <use xlink:href="#CMR17-65" transform="translate(287.155072 0) scale(0.996264)"/>
      <use xlink:href="#CMR17-64" transform="translate(327.640732 0) scale(0.996264)"/>
      <use xlink:href="#CMR17-66" transform="translate(408.612068 0) scale(0.996264)"/>
      <use xlink:href="#CMR17-6f" transform="translate(436.085581 0) scale(0.996264)"/>
      <use xlink:href="#CMR17-72" transform="translate(481.776058 0) scale(0.996264)"/>
      <use xlink:href="#CMR17-65" transform="translate(517.056825 0) scale(0.996264)"/>
      <use xlink:href="#CMR17-63" transform="translate(557.542486 0) scale(0.996264)"/>
      <use xlink:href="#CMR17-61" transform="translate(598.028146 0) scale(0.996264)"/>
      <use xlink:href="#CMR17-73" transform="translate(643.718624 0) scale(0.996264)"/>
      <use xlink:href="#CMR17-74" transform="translate(679.519961 0) scale(0.996264)"/>
      <use xlink:href="#CMR17-28" transform="translate(744.876695 0) scale(0.996264)"/>
      <use xlink:href="#CMR17-42" transform="translate(780.157463 0) scale(0.996264)"/>
      <use xlink:href="#CMR17-49" transform="translate(845.346218 0) scale(0.996264)"/>
      <use xlink:href="#CMR17-43" transform="translate(877.984627 0) scale(0.996264)"/>
      <use xlink:href="#CMR17-29" transform="translate(944.494507 0) scale(0.996264)"/>
     </g>
    </g>
    <g id="patch_7">
     <path d="M 56.252382 66.459725 
L 84.252382 66.459725 
L 84.252382 56.659725 
L 56.252382 56.659725 
z
" style="fill: #808080; fill-opacity: 0.4; stroke: #808080; stroke-opacity: 0.4; stroke-linejoin: miter"/>
    </g>
    <g id="text_14">
     <!-- 99 perc. CI -->
     <g transform="translate(95.452382 66.459725) scale(0.14 -0.14)">
      <defs>
       <path id="CMR17-39" d="M 2253 1871 
C 2253 448 1670 25 1190 25 
C 1043 25 685 43 538 281 
C 704 256 826 345 826 505 
C 826 678 685 736 595 736 
C 538 736 365 710 365 492 
C 365 68 742 -128 1203 -128 
C 1939 -128 2688 665 2688 2090 
C 2688 3857 1971 4224 1485 4224 
C 851 4224 243 3664 243 2800 
C 243 2000 762 1408 1414 1408 
C 1952 1408 2189 1910 2253 2122 
L 2253 1871 
z
M 1427 1510 
C 1254 1510 1011 1542 813 1929 
C 678 2181 678 2477 678 2793 
C 678 3174 678 3438 858 3722 
C 947 3857 1114 4076 1485 4076 
C 2240 4076 2240 2909 2240 2651 
C 2240 2193 2035 1510 1427 1510 
z
" transform="scale(0.015625)"/>
       <path id="CMR17-70" d="M 1408 -1114 
C 998 -1114 973 -1088 973 -834 
L 973 380 
C 1158 109 1427 -64 1766 -64 
C 2406 -64 3053 503 3053 1382 
C 3053 2196 2496 2816 1837 2816 
C 1453 2816 1139 2603 960 2345 
L 960 2816 
L 198 2745 
L 198 2577 
C 576 2577 634 2539 634 2228 
L 634 -834 
C 634 -1081 608 -1114 198 -1114 
L 198 -1280 
C 352 -1268 634 -1268 800 -1268 
C 966 -1268 1254 -1268 1408 -1280 
L 1408 -1114 
z
M 973 2015 
C 973 2106 973 2241 1222 2481 
C 1254 2506 1472 2700 1792 2700 
C 2259 2700 2643 2112 2643 1376 
C 2643 639 2234 38 1728 38 
C 1498 38 1248 148 1056 451 
C 973 594 973 632 973 736 
L 973 2015 
z
" transform="scale(0.015625)"/>
       <path id="CMR17-2e" d="M 1062 262 
C 1062 422 934 524 800 524 
C 672 524 538 422 538 262 
C 538 102 666 0 800 0 
C 928 0 1062 102 1062 262 
z
" transform="scale(0.015625)"/>
      </defs>
      <use xlink:href="#CMR17-39" transform="scale(0.996264)"/>
      <use xlink:href="#CMR17-39" transform="translate(45.690477 0) scale(0.996264)"/>
      <use xlink:href="#CMR17-70" transform="translate(121.456921 0) scale(0.996264)"/>
      <use xlink:href="#CMR17-65" transform="translate(174.954729 0) scale(0.996264)"/>
      <use xlink:href="#CMR17-72" transform="translate(215.44039 0) scale(0.996264)"/>
      <use xlink:href="#CMR17-63" transform="translate(250.721157 0) scale(0.996264)"/>
      <use xlink:href="#CMR17-2e" transform="translate(291.206818 0) scale(0.996264)"/>
      <use xlink:href="#CMR17-43" transform="translate(356.563537 0) scale(0.996264)"/>
      <use xlink:href="#CMR17-49" transform="translate(423.073417 0) scale(0.996264)"/>
     </g>
    </g>
   </g>
  </g>
 </g>
 <defs>
  <clipPath id="pc1c80fd46f">
   <rect x="43.652382" y="3.6" width="558" height="332.64"/>
  </clipPath>
 </defs>
</svg>
