<?xml version="1.0" encoding="utf-8" standalone="no"?>
<!DOCTYPE svg PUBLIC "-//W3C//DTD SVG 1.1//EN"
  "http://www.w3.org/Graphics/SVG/1.1/DTD/svg11.dtd">
<svg xmlns:xlink="http://www.w3.org/1999/xlink" width="599.096314pt" height="359.606756pt" viewBox="0 0 599.096314 359.606756" xmlns="http://www.w3.org/2000/svg" version="1.1">
 <metadata>
  <rdf:RDF xmlns:dc="http://purl.org/dc/elements/1.1/" xmlns:cc="http://creativecommons.org/ns#" xmlns:rdf="http://www.w3.org/1999/02/22-rdf-syntax-ns#">
   <cc:Work>
    <dc:type rdf:resource="http://purl.org/dc/dcmitype/StillImage"/>
    <dc:date>2025-03-20T12:36:30.928012</dc:date>
    <dc:format>image/svg+xml</dc:format>
    <dc:creator>
     <cc:Agent>
      <dc:title>Matplotlib v3.9.2, https://matplotlib.org/</dc:title>
     </cc:Agent>
    </dc:creator>
   </cc:Work>
  </rdf:RDF>
 </metadata>
 <defs>
  <style type="text/css">*{stroke-linejoin: round; stroke-linecap: butt}</style>
 </defs>
 <g id="figure_1">
  <g id="patch_1">
   <path d="M 0 359.606756 
L 599.096314 359.606756 
L 599.096314 0 
L 0 0 
z
" style="fill: #ffffff"/>
  </g>
  <g id="axes_1">
   <g id="patch_2">
    <path d="M 37.496314 336.565392 
L 595.496314 336.565392 
L 595.496314 3.925392 
L 37.496314 3.925392 
z
" style="fill: #ffffff"/>
   </g>
   <g id="PolyCollection_1">
    <defs>
     <path id="ma1daf1bca2" d="M 62.85995 -299.429816 
L 62.85995 -175.49873 
L 64.74527 -170.476684 
L 66.569773 -161.077475 
L 68.455093 -169.202541 
L 70.279597 -181.060048 
L 72.164917 -173.168022 
L 74.050237 -169.617661 
L 75.87474 -175.443623 
L 77.76006 -151.960726 
L 79.584563 -174.601873 
L 81.469883 -170.999533 
L 83.355203 -155.551253 
L 85.058073 -161.998768 
L 86.943393 -158.835801 
L 88.767896 -160.196318 
L 90.653216 -155.596507 
L 92.47772 -156.713728 
L 94.36304 -156.176594 
L 96.24836 -146.93612 
L 98.072863 -173.677067 
L 99.958183 -164.573057 
L 101.782686 -163.4534 
L 103.668006 -175.129486 
L 105.553327 -165.603399 
L 107.256196 -160.437183 
L 109.141516 -155.041705 
L 110.96602 -167.639314 
L 112.85134 -165.901182 
L 114.675843 -182.843733 
L 116.561163 -180.738392 
L 118.446483 -144.083894 
L 120.270986 -150.80709 
L 122.156306 -173.550626 
L 123.98081 -163.823015 
L 125.86613 -164.272874 
L 127.75145 -169.962537 
L 129.515136 -179.10134 
L 131.400456 -171.624124 
L 133.22496 -172.456579 
L 135.11028 -156.231336 
L 136.934783 -154.80144 
L 138.820103 -172.882719 
L 140.705423 -170.948275 
L 142.529926 -172.748284 
L 144.415246 -178.499396 
L 146.23975 -171.295526 
L 148.12507 -175.751841 
L 150.01039 -173.434652 
L 151.713259 -167.502142 
L 153.598579 -173.747188 
L 155.423083 -161.069744 
L 157.308403 -169.049605 
L 159.132906 -176.983896 
L 161.018226 -177.218619 
L 162.903546 -168.095551 
L 164.728049 -168.29853 
L 166.613369 -171.987441 
L 168.437873 -159.028701 
L 170.323193 -174.655114 
L 172.208513 -175.194732 
L 173.911383 -173.853186 
L 175.796703 -166.700275 
L 177.621206 -169.321723 
L 179.506526 -165.89638 
L 181.331029 -166.52217 
L 183.216349 -165.843747 
L 185.101669 -171.713632 
L 186.926173 -178.589095 
L 188.811493 -178.207858 
L 190.635996 -176.491876 
L 192.521316 -177.046928 
L 194.406636 -175.27472 
L 196.109506 -167.535723 
L 197.994826 -174.506632 
L 199.819329 -170.447591 
L 201.704649 -174.799892 
L 203.529152 -174.971838 
L 205.414472 -163.467587 
L 207.299792 -175.301265 
L 209.124296 -171.912604 
L 211.009616 -180.447521 
L 212.834119 -177.501872 
L 214.719439 -172.910278 
L 216.604759 -174.716909 
L 218.368446 -167.693646 
L 220.253766 -166.461854 
L 222.078269 -171.194327 
L 223.963589 -170.775443 
L 225.788092 -166.860291 
L 227.673412 -153.775552 
L 229.558732 -158.130969 
L 231.383236 -173.240348 
L 233.268556 -163.324335 
L 235.093059 -111.437536 
L 236.978379 -135.44666 
L 238.863699 -166.645987 
L 240.566569 -135.886003 
L 242.451889 -138.032139 
L 244.276392 -109.590315 
L 246.161712 -149.108878 
L 247.986216 -134.32927 
L 249.871536 -197.284305 
L 251.756856 -170.460234 
L 253.581359 -171.565436 
L 255.466679 -175.521495 
L 257.291182 -210.167033 
L 259.176502 -204.496076 
L 261.061822 -207.706306 
L 262.764692 -102.750071 
L 264.650012 -163.152086 
L 266.474515 -176.979508 
L 268.359835 -169.542135 
L 270.184339 -167.385893 
L 272.069659 -161.752746 
L 273.954979 -169.926843 
L 275.779482 -176.449579 
L 277.664802 -169.777245 
L 279.489305 -178.624918 
L 281.374625 -160.118275 
L 283.259946 -159.653455 
L 284.962815 -177.60168 
L 286.848135 -168.01635 
L 288.672639 -170.662413 
L 290.557959 -167.38239 
L 292.382462 -176.521055 
L 294.267782 -159.8395 
L 296.153102 -171.555992 
L 297.977605 -169.29734 
L 299.862925 -168.693381 
L 301.687429 -157.736017 
L 303.572749 -178.723561 
L 305.458069 -167.330573 
L 307.221755 -175.307122 
L 309.107075 -173.104095 
L 310.931579 -162.033205 
L 312.816899 -174.131022 
L 314.641402 -168.927648 
L 316.526722 -168.724452 
L 318.412042 -173.198381 
L 320.236545 -161.433456 
L 322.121865 -171.887635 
L 323.946369 -163.693504 
L 325.831689 -165.421085 
L 327.717009 -165.310972 
L 329.419878 -165.873014 
L 331.305198 -169.170949 
L 333.129702 -172.292108 
L 335.015022 -176.757877 
L 336.839525 -162.969516 
L 338.724845 -149.716717 
L 340.610165 -168.87622 
L 342.434668 -163.898215 
L 344.319988 -167.757602 
L 346.144492 -176.556144 
L 348.029812 -167.247983 
L 349.915132 -163.659237 
L 351.618002 -170.032686 
L 353.503322 -168.908576 
L 355.327825 -168.731325 
L 357.213145 -165.711707 
L 359.037648 -173.325943 
L 360.922968 -168.249307 
L 362.808288 -170.326324 
L 364.632792 -167.712073 
L 366.518112 -163.995895 
L 368.342615 -168.769549 
L 370.227935 -172.31407 
L 372.113255 -170.031203 
L 373.816125 -175.031458 
L 375.701445 -160.327963 
L 377.525948 -163.581096 
L 379.411268 -172.089776 
L 381.235771 -153.338753 
L 383.121091 -161.852023 
L 385.006411 -168.591855 
L 386.830915 -164.877153 
L 388.716235 -153.437671 
L 390.540738 -178.223596 
L 392.426058 -159.709229 
L 394.311378 -164.809765 
L 396.075065 -157.333593 
L 397.960385 -177.228504 
L 399.784888 -167.292279 
L 401.670208 -173.690445 
L 403.494711 -161.924098 
L 405.380031 -175.44427 
L 407.265351 -176.324088 
L 409.089855 -160.460932 
L 410.975175 -160.96797 
L 412.799678 -159.218946 
L 414.684998 -153.210552 
L 416.570318 -165.760687 
L 418.273188 -173.165439 
L 420.158508 -169.617816 
L 421.983011 -165.883304 
L 423.868331 -171.197288 
L 425.692835 -166.617672 
L 427.578155 -172.441034 
L 429.463475 -160.604292 
L 431.287978 -171.284431 
L 433.173298 -167.727588 
L 434.997801 -164.485261 
L 436.883121 -170.068154 
L 438.768441 -168.821621 
L 440.471311 -169.072764 
L 442.356631 -151.535416 
L 444.181134 -170.40879 
L 446.066454 -161.490132 
L 447.890958 -167.7994 
L 449.776278 -172.400659 
L 451.661598 -168.585816 
L 453.486101 -170.37808 
L 455.371421 -165.750669 
L 457.195924 -154.21323 
L 459.081244 -165.256531 
L 460.966565 -162.899656 
L 462.669434 -172.616066 
L 464.554754 -176.880007 
L 466.379258 -171.217871 
L 468.264578 -172.968225 
L 470.089081 -165.6105 
L 471.974401 -180.87092 
L 473.859721 -188.919102 
L 475.684224 -151.704038 
L 477.569544 -169.680195 
L 479.394048 -166.196051 
L 481.279368 -170.709116 
L 483.164688 -168.98081 
L 484.928374 -173.778625 
L 486.813694 -173.790702 
L 488.638198 -149.206672 
L 490.523518 -185.879694 
L 492.348021 -165.17719 
L 494.233341 -165.801331 
L 496.118661 -180.359022 
L 497.943164 -167.211664 
L 499.828484 -157.125226 
L 501.652988 -155.93788 
L 503.538308 -164.980873 
L 505.423628 -165.959522 
L 507.126497 -162.737568 
L 509.011817 -162.158606 
L 510.836321 -153.110556 
L 512.721641 -180.817783 
L 514.546144 -166.316223 
L 516.431464 -173.14246 
L 518.316784 -177.893476 
L 520.141287 -167.910804 
L 522.026607 -159.833185 
L 523.851111 -159.590827 
L 525.736431 -178.583465 
L 527.621751 -168.263055 
L 529.324621 -148.583207 
L 531.209941 -158.057659 
L 533.034444 -160.262242 
L 534.919764 -151.481283 
L 536.744267 -149.60611 
L 538.629587 -156.478169 
L 540.514907 -173.450742 
L 542.339411 -175.105751 
L 544.224731 -133.783625 
L 546.049234 -155.766849 
L 547.934554 -179.122426 
L 549.819874 -165.304416 
L 551.522744 -167.412363 
L 553.408064 -164.981973 
L 555.232567 -160.951181 
L 557.117887 -176.368927 
L 558.94239 -160.845215 
L 560.82771 -170.636283 
L 562.71303 -167.858839 
L 564.537534 -157.043788 
L 566.422854 -160.900982 
L 568.247357 -154.022621 
L 570.132677 -180.525574 
L 570.132677 -312.247122 
L 570.132677 -312.247122 
L 568.247357 -285.657722 
L 566.422854 -292.541809 
L 564.537534 -288.752245 
L 562.71303 -299.612709 
L 560.82771 -302.425969 
L 558.94239 -292.577663 
L 557.117887 -308.161174 
L 555.232567 -292.732471 
L 553.408064 -296.767356 
L 551.522744 -299.242631 
L 549.819874 -297.203716 
L 547.934554 -311.057878 
L 546.049234 -287.591847 
L 544.224731 -265.680073 
L 542.339411 -306.530898 
L 540.514907 -304.822678 
L 538.629587 -287.917572 
L 536.744267 -281.087 
L 534.919764 -282.722769 
L 533.034444 -291.57524 
L 531.209941 -289.439011 
L 529.324621 -280.020348 
L 527.621751 -299.711751 
L 525.736431 -310.078334 
L 523.851111 -291.02694 
L 522.026607 -291.340217 
L 520.141287 -299.482356 
L 518.316784 -309.537201 
L 516.431464 -304.847354 
L 514.546144 -298.088225 
L 512.721641 -312.642053 
L 510.836321 -284.745923 
L 509.011817 -293.865742 
L 507.126497 -294.493094 
L 505.423628 -297.765678 
L 503.538308 -296.78753 
L 501.652988 -287.706708 
L 499.828484 -288.944381 
L 497.943164 -299.088411 
L 496.118661 -312.25042 
L 494.233341 -297.72548 
L 492.348021 -296.991331 
L 490.523518 -317.736628 
L 488.638198 -280.986744 
L 486.813694 -302.45383 
L 484.928374 -302.500004 
L 483.164688 -297.741532 
L 481.279368 -299.532978 
L 479.394048 -295.007074 
L 477.569544 -298.555698 
L 475.684224 -280.547952 
L 473.859721 -317.560929 
L 471.974401 -309.574819 
L 470.089081 -294.383406 
L 468.264578 -301.753146 
L 466.379258 -300.040217 
L 464.554754 -305.775484 
L 462.669434 -301.472287 
L 460.966565 -291.81658 
L 459.081244 -293.987356 
L 457.195924 -283.005741 
L 455.371421 -294.480574 
L 453.486101 -299.180208 
L 451.661598 -297.448203 
L 449.776278 -301.336867 
L 447.890958 -296.80037 
L 446.066454 -290.54396 
L 444.181134 -299.481922 
L 442.356631 -280.674648 
L 440.471311 -298.182137 
L 438.768441 -297.914202 
L 436.883121 -299.217312 
L 434.997801 -293.701761 
L 433.173298 -296.997935 
L 431.287978 -300.629232 
L 429.463475 -290.023995 
L 427.578155 -301.934241 
L 425.692835 -296.180168 
L 423.868331 -300.834654 
L 421.983011 -295.591248 
L 420.158508 -299.399525 
L 418.273188 -303.01746 
L 416.570318 -295.685599 
L 414.684998 -283.069974 
L 412.799678 -289.144142 
L 410.975175 -290.966619 
L 409.089855 -290.534187 
L 407.265351 -306.469416 
L 405.380031 -305.654728 
L 403.494711 -292.207479 
L 401.670208 -304.023647 
L 399.784888 -297.680405 
L 397.960385 -307.588004 
L 396.075065 -287.769807 
L 394.311378 -294.969845 
L 392.426058 -289.938313 
L 390.540738 -308.527613 
L 388.716235 -283.653662 
L 386.830915 -294.985005 
L 385.006411 -298.693123 
L 383.121091 -292.030313 
L 381.235771 -283.594257 
L 379.411268 -302.42138 
L 377.525948 -293.989775 
L 375.701445 -290.814882 
L 373.816125 -305.591224 
L 372.113255 -300.630674 
L 370.227935 -302.986403 
L 368.342615 -299.388549 
L 366.518112 -294.62272 
L 364.632792 -298.413839 
L 362.808288 -301.086247 
L 360.922968 -299.087235 
L 359.037648 -304.228755 
L 357.213145 -296.690187 
L 355.327825 -299.78334 
L 353.503322 -300.024658 
L 351.618002 -301.214451 
L 349.915132 -294.919854 
L 348.029812 -298.586922 
L 346.144492 -307.956362 
L 344.319988 -299.230945 
L 342.434668 -295.449895 
L 340.610165 -300.502662 
L 338.724845 -281.298173 
L 336.839525 -294.614416 
L 335.015022 -308.4474 
L 333.129702 -304.062665 
L 331.305198 -301.009003 
L 329.419878 -297.778504 
L 327.717009 -297.219756 
L 325.831689 -297.399775 
L 323.946369 -295.670355 
L 322.121865 -303.924107 
L 320.236545 -293.504248 
L 318.412042 -305.334897 
L 316.526722 -300.925261 
L 314.641402 -301.171666 
L 312.816899 -306.28522 
L 310.931579 -294.269032 
L 309.107075 -305.414847 
L 307.221755 -307.671967 
L 305.458069 -299.688546 
L 303.572749 -311.159962 
L 301.687429 -290.233816 
L 299.862925 -301.256403 
L 297.977605 -301.916427 
L 296.153102 -303.161703 
L 294.267782 -291.467491 
L 292.382462 -307.99264 
L 290.557959 -298.936936 
L 288.672639 -302.296473 
L 286.848135 -299.700112 
L 284.962815 -309.364658 
L 283.259946 -291.424118 
L 281.374625 -291.886563 
L 279.489305 -310.47822 
L 277.664802 -301.645344 
L 275.779482 -308.393472 
L 273.954979 -301.954769 
L 272.069659 -293.864581 
L 270.184339 -299.431813 
L 268.359835 -301.285803 
L 266.474515 -308.784814 
L 264.650012 -294.843195 
L 262.764692 -233.183838 
L 261.061822 -337.999954 
L 259.176502 -334.849288 
L 257.291182 -340.561364 
L 255.466679 -306.725815 
L 253.581359 -302.828952 
L 251.756856 -301.550161 
L 249.871536 -328.406829 
L 247.986216 -265.385916 
L 246.161712 -279.986757 
L 244.276392 -239.873219 
L 242.451889 -268.374026 
L 240.566569 -266.274216 
L 238.863699 -297.103037 
L 236.978379 -265.719382 
L 235.093059 -241.735084 
L 233.268556 -289.805828 
L 231.383236 -299.491559 
L 229.558732 -284.418438 
L 227.673412 -279.931386 
L 225.788092 -292.91179 
L 223.963589 -296.895146 
L 222.078269 -297.328656 
L 220.253766 -292.598155 
L 218.368446 -293.872934 
L 216.604759 -300.436048 
L 214.719439 -298.712869 
L 212.834119 -303.031457 
L 211.009616 -306.056177 
L 209.124296 -297.578065 
L 207.299792 -300.778149 
L 205.414472 -289.026009 
L 203.529152 -300.601657 
L 201.704649 -300.487061 
L 199.819329 -296.142874 
L 197.994826 -300.157532 
L 196.109506 -293.262976 
L 194.406636 -301.078636 
L 192.521316 -302.933352 
L 190.635996 -302.461352 
L 188.811493 -304.241401 
L 186.926173 -304.704829 
L 185.101669 -297.904684 
L 183.216349 -292.119114 
L 181.331029 -292.79444 
L 179.506526 -292.240305 
L 177.621206 -295.750549 
L 175.796703 -293.20809 
L 173.911383 -300.428178 
L 172.208513 -301.854509 
L 170.323193 -301.397914 
L 168.437873 -285.716678 
L 166.613369 -298.637848 
L 164.728049 -295.032257 
L 162.903546 -294.913293 
L 161.018226 -304.1223 
L 159.132906 -303.973004 
L 157.308403 -296.123821 
L 155.423083 -288.18458 
L 153.598579 -300.924321 
L 151.713259 -294.759272 
L 150.01039 -300.714467 
L 148.12507 -303.111683 
L 146.23975 -298.64586 
L 144.415246 -305.905095 
L 142.529926 -300.226733 
L 140.705423 -298.460615 
L 138.820103 -300.373086 
L 136.934783 -282.275012 
L 135.11028 -283.761928 
L 133.22496 -300.074626 
L 131.400456 -299.264578 
L 129.515136 -306.821016 
L 127.75145 -297.657525 
L 125.86613 -292.001164 
L 123.98081 -291.63542 
L 122.156306 -301.451967 
L 120.270986 -278.645523 
L 118.446483 -271.985733 
L 116.561163 -308.705914 
L 114.675843 -310.835199 
L 112.85134 -293.812785 
L 110.96602 -295.487301 
L 109.141516 -282.949115 
L 107.256196 -288.079272 
L 105.553327 -293.333592 
L 103.668006 -302.890462 
L 101.782686 -290.993708 
L 99.958183 -292.179911 
L 98.072863 -301.039749 
L 96.24836 -274.32551 
L 94.36304 -282.701106 
L 92.47772 -283.079247 
L 90.653216 -282.019952 
L 88.767896 -286.619904 
L 86.943393 -285.124106 
L 85.058073 -288.283867 
L 83.355203 -281.930657 
L 81.469883 -297.474362 
L 79.584563 -301.07579 
L 77.76006 -278.380565 
L 75.87474 -300.454718 
L 74.050237 -294.654033 
L 72.164917 -298.168276 
L 70.279597 -305.975917 
L 68.455093 -293.919954 
L 66.569773 -285.885827 
L 64.74527 -294.430155 
L 62.85995 -299.429816 
z
" style="stroke: #808080; stroke-opacity: 0.3"/>
    </defs>
    <g clip-path="url(#pe8568b8c84)">
     <use xlink:href="#ma1daf1bca2" x="0" y="359.606756" style="fill: #808080; fill-opacity: 0.3; stroke: #808080; stroke-opacity: 0.3"/>
    </g>
   </g>
   <g id="matplotlib.axis_1">
    <g id="xtick_1">
     <g id="line2d_1">
      <defs>
       <path id="mfb6da6c6f7" d="M 0 0 
L 0 -3 
" style="stroke: #000000; stroke-width: 0.5"/>
      </defs>
      <g>
       <use xlink:href="#mfb6da6c6f7" x="125.926946" y="336.565392" style="stroke: #000000; stroke-width: 0.5"/>
      </g>
     </g>
     <g id="line2d_2">
      <defs>
       <path id="m22d5bd1996" d="M 0 0 
L 0 3 
" style="stroke: #000000; stroke-width: 0.5"/>
      </defs>
      <g>
       <use xlink:href="#m22d5bd1996" x="125.926946" y="3.925392" style="stroke: #000000; stroke-width: 0.5"/>
      </g>
     </g>
     <g id="text_1">
      <!-- $\mathdefault{2004}$ -->
      <g transform="translate(109.478375 352.518692) scale(0.18 -0.18)">
       <defs>
        <path id="CMR17-32" d="M 2669 990 
L 2554 990 
C 2490 537 2438 460 2413 422 
C 2381 371 1920 371 1830 371 
L 602 371 
C 832 620 1280 1073 1824 1596 
C 2214 1966 2669 2400 2669 3033 
C 2669 3788 2067 4224 1395 4224 
C 691 4224 262 3603 262 3027 
C 262 2777 448 2745 525 2745 
C 589 2745 781 2783 781 3007 
C 781 3206 614 3264 525 3264 
C 486 3264 448 3257 422 3244 
C 544 3788 915 4057 1306 4057 
C 1862 4057 2227 3616 2227 3033 
C 2227 2477 1901 1998 1536 1583 
L 262 147 
L 262 0 
L 2515 0 
L 2669 990 
z
" transform="scale(0.015625)"/>
        <path id="CMR17-30" d="M 2688 2038 
C 2688 2430 2682 3099 2413 3613 
C 2176 4063 1798 4224 1466 4224 
C 1158 4224 768 4082 525 3620 
C 269 3137 243 2539 243 2038 
C 243 1671 250 1112 448 623 
C 723 -39 1216 -128 1466 -128 
C 1760 -128 2208 -7 2470 604 
C 2662 1048 2688 1568 2688 2038 
z
M 1466 -26 
C 1056 -26 813 328 723 816 
C 653 1196 653 1749 653 2109 
C 653 2604 653 3015 736 3407 
C 858 3954 1216 4121 1466 4121 
C 1728 4121 2067 3947 2189 3420 
C 2272 3054 2278 2623 2278 2109 
C 2278 1691 2278 1176 2202 797 
C 2067 96 1690 -26 1466 -26 
z
" transform="scale(0.015625)"/>
        <path id="CMR17-34" d="M 2150 4147 
C 2150 4281 2144 4288 2029 4288 
L 128 1254 
L 128 1088 
L 1779 1088 
L 1779 460 
C 1779 230 1766 166 1318 166 
L 1197 166 
L 1197 0 
C 1402 12 1747 12 1965 12 
C 2182 12 2528 12 2733 0 
L 2733 166 
L 2611 166 
C 2163 166 2150 230 2150 460 
L 2150 1088 
L 2803 1088 
L 2803 1254 
L 2150 1254 
L 2150 4147 
z
M 1798 3723 
L 1798 1254 
L 256 1254 
L 1798 3723 
z
" transform="scale(0.015625)"/>
       </defs>
       <use xlink:href="#CMR17-32" transform="scale(0.996264)"/>
       <use xlink:href="#CMR17-30" transform="translate(45.690477 0) scale(0.996264)"/>
       <use xlink:href="#CMR17-30" transform="translate(91.380954 0) scale(0.996264)"/>
       <use xlink:href="#CMR17-34" transform="translate(137.071431 0) scale(0.996264)"/>
      </g>
     </g>
    </g>
    <g id="xtick_2">
     <g id="line2d_3">
      <g>
       <use xlink:href="#mfb6da6c6f7" x="214.780256" y="336.565392" style="stroke: #000000; stroke-width: 0.5"/>
      </g>
     </g>
     <g id="line2d_4">
      <g>
       <use xlink:href="#m22d5bd1996" x="214.780256" y="3.925392" style="stroke: #000000; stroke-width: 0.5"/>
      </g>
     </g>
     <g id="text_2">
      <!-- $\mathdefault{2008}$ -->
      <g transform="translate(198.331684 352.518692) scale(0.18 -0.18)">
       <defs>
        <path id="CMR17-38" d="M 1741 2289 
C 2144 2494 2554 2803 2554 3298 
C 2554 3884 1990 4224 1472 4224 
C 890 4224 378 3800 378 3215 
C 378 3054 416 2777 666 2533 
C 730 2469 998 2276 1171 2154 
C 883 2006 211 1652 211 945 
C 211 282 838 -128 1459 -128 
C 2144 -128 2720 366 2720 1022 
C 2720 1607 2330 1877 2074 2051 
L 1741 2289 
z
M 902 2855 
C 851 2887 595 3086 595 3388 
C 595 3781 998 4076 1459 4076 
C 1965 4076 2336 3716 2336 3298 
C 2336 2700 1670 2359 1638 2359 
C 1632 2359 1626 2359 1574 2398 
L 902 2855 
z
M 2080 1536 
C 2176 1466 2483 1253 2483 861 
C 2483 385 2010 25 1472 25 
C 890 25 448 443 448 951 
C 448 1459 838 1884 1280 2083 
L 2080 1536 
z
" transform="scale(0.015625)"/>
       </defs>
       <use xlink:href="#CMR17-32" transform="scale(0.996264)"/>
       <use xlink:href="#CMR17-30" transform="translate(45.690477 0) scale(0.996264)"/>
       <use xlink:href="#CMR17-30" transform="translate(91.380954 0) scale(0.996264)"/>
       <use xlink:href="#CMR17-38" transform="translate(137.071431 0) scale(0.996264)"/>
      </g>
     </g>
    </g>
    <g id="xtick_3">
     <g id="line2d_5">
      <g>
       <use xlink:href="#mfb6da6c6f7" x="303.633565" y="336.565392" style="stroke: #000000; stroke-width: 0.5"/>
      </g>
     </g>
     <g id="line2d_6">
      <g>
       <use xlink:href="#m22d5bd1996" x="303.633565" y="3.925392" style="stroke: #000000; stroke-width: 0.5"/>
      </g>
     </g>
     <g id="text_3">
      <!-- $\mathdefault{2012}$ -->
      <g transform="translate(287.184994 352.518692) scale(0.18 -0.18)">
       <defs>
        <path id="CMR17-31" d="M 1702 4083 
C 1702 4217 1696 4224 1606 4224 
C 1357 3927 979 3833 621 3820 
C 602 3820 570 3820 563 3808 
C 557 3795 557 3782 557 3648 
C 755 3648 1088 3686 1344 3839 
L 1344 467 
C 1344 243 1331 166 781 166 
L 589 166 
L 589 0 
C 896 6 1216 12 1523 12 
C 1830 12 2150 6 2458 0 
L 2458 166 
L 2266 166 
C 1715 166 1702 236 1702 467 
L 1702 4083 
z
" transform="scale(0.015625)"/>
       </defs>
       <use xlink:href="#CMR17-32" transform="scale(0.996264)"/>
       <use xlink:href="#CMR17-30" transform="translate(45.690477 0) scale(0.996264)"/>
       <use xlink:href="#CMR17-31" transform="translate(91.380954 0) scale(0.996264)"/>
       <use xlink:href="#CMR17-32" transform="translate(137.071431 0) scale(0.996264)"/>
      </g>
     </g>
    </g>
    <g id="xtick_4">
     <g id="line2d_7">
      <g>
       <use xlink:href="#mfb6da6c6f7" x="392.486875" y="336.565392" style="stroke: #000000; stroke-width: 0.5"/>
      </g>
     </g>
     <g id="line2d_8">
      <g>
       <use xlink:href="#m22d5bd1996" x="392.486875" y="3.925392" style="stroke: #000000; stroke-width: 0.5"/>
      </g>
     </g>
     <g id="text_4">
      <!-- $\mathdefault{2016}$ -->
      <g transform="translate(376.038303 352.518692) scale(0.18 -0.18)">
       <defs>
        <path id="CMR17-36" d="M 678 2198 
C 678 3712 1395 4076 1811 4076 
C 1946 4076 2272 4049 2400 3782 
C 2298 3782 2106 3782 2106 3558 
C 2106 3385 2246 3328 2336 3328 
C 2394 3328 2566 3353 2566 3571 
C 2566 3987 2246 4224 1805 4224 
C 1043 4224 243 3411 243 2011 
C 243 257 966 -128 1478 -128 
C 2099 -128 2688 431 2688 1295 
C 2688 2101 2170 2688 1517 2688 
C 1126 2688 838 2430 678 1979 
L 678 2198 
z
M 1478 25 
C 691 25 691 1212 691 1450 
C 691 1914 909 2585 1504 2585 
C 1613 2585 1926 2585 2138 2140 
C 2253 1889 2253 1624 2253 1302 
C 2253 954 2253 696 2118 438 
C 1978 173 1773 25 1478 25 
z
" transform="scale(0.015625)"/>
       </defs>
       <use xlink:href="#CMR17-32" transform="scale(0.996264)"/>
       <use xlink:href="#CMR17-30" transform="translate(45.690477 0) scale(0.996264)"/>
       <use xlink:href="#CMR17-31" transform="translate(91.380954 0) scale(0.996264)"/>
       <use xlink:href="#CMR17-36" transform="translate(137.071431 0) scale(0.996264)"/>
      </g>
     </g>
    </g>
    <g id="xtick_5">
     <g id="line2d_9">
      <g>
       <use xlink:href="#mfb6da6c6f7" x="481.340184" y="336.565392" style="stroke: #000000; stroke-width: 0.5"/>
      </g>
     </g>
     <g id="line2d_10">
      <g>
       <use xlink:href="#m22d5bd1996" x="481.340184" y="3.925392" style="stroke: #000000; stroke-width: 0.5"/>
      </g>
     </g>
     <g id="text_5">
      <!-- $\mathdefault{2020}$ -->
      <g transform="translate(464.891613 352.518692) scale(0.18 -0.18)">
       <use xlink:href="#CMR17-32" transform="scale(0.996264)"/>
       <use xlink:href="#CMR17-30" transform="translate(45.690477 0) scale(0.996264)"/>
       <use xlink:href="#CMR17-32" transform="translate(91.380954 0) scale(0.996264)"/>
       <use xlink:href="#CMR17-30" transform="translate(137.071431 0) scale(0.996264)"/>
      </g>
     </g>
    </g>
    <g id="xtick_6">
     <g id="line2d_11">
      <g>
       <use xlink:href="#mfb6da6c6f7" x="570.193494" y="336.565392" style="stroke: #000000; stroke-width: 0.5"/>
      </g>
     </g>
     <g id="line2d_12">
      <g>
       <use xlink:href="#m22d5bd1996" x="570.193494" y="3.925392" style="stroke: #000000; stroke-width: 0.5"/>
      </g>
     </g>
     <g id="text_6">
      <!-- $\mathdefault{2024}$ -->
      <g transform="translate(553.744922 352.518692) scale(0.18 -0.18)">
       <use xlink:href="#CMR17-32" transform="scale(0.996264)"/>
       <use xlink:href="#CMR17-30" transform="translate(45.690477 0) scale(0.996264)"/>
       <use xlink:href="#CMR17-32" transform="translate(91.380954 0) scale(0.996264)"/>
       <use xlink:href="#CMR17-34" transform="translate(137.071431 0) scale(0.996264)"/>
      </g>
     </g>
    </g>
    <g id="xtick_7">
     <g id="line2d_13">
      <defs>
       <path id="m463b779569" d="M 0 0 
L 0 -1.5 
" style="stroke: #000000; stroke-width: 0.5"/>
      </defs>
      <g>
       <use xlink:href="#m463b779569" x="59.286964" y="336.565392" style="stroke: #000000; stroke-width: 0.5"/>
      </g>
     </g>
     <g id="line2d_14">
      <defs>
       <path id="me23c627ac6" d="M 0 0 
L 0 1.5 
" style="stroke: #000000; stroke-width: 0.5"/>
      </defs>
      <g>
       <use xlink:href="#me23c627ac6" x="59.286964" y="3.925392" style="stroke: #000000; stroke-width: 0.5"/>
      </g>
     </g>
    </g>
    <g id="xtick_8">
     <g id="line2d_15">
      <g>
       <use xlink:href="#m463b779569" x="81.500292" y="336.565392" style="stroke: #000000; stroke-width: 0.5"/>
      </g>
     </g>
     <g id="line2d_16">
      <g>
       <use xlink:href="#me23c627ac6" x="81.500292" y="3.925392" style="stroke: #000000; stroke-width: 0.5"/>
      </g>
     </g>
    </g>
    <g id="xtick_9">
     <g id="line2d_17">
      <g>
       <use xlink:href="#m463b779569" x="103.713619" y="336.565392" style="stroke: #000000; stroke-width: 0.5"/>
      </g>
     </g>
     <g id="line2d_18">
      <g>
       <use xlink:href="#me23c627ac6" x="103.713619" y="3.925392" style="stroke: #000000; stroke-width: 0.5"/>
      </g>
     </g>
    </g>
    <g id="xtick_10">
     <g id="line2d_19">
      <g>
       <use xlink:href="#m463b779569" x="148.140274" y="336.565392" style="stroke: #000000; stroke-width: 0.5"/>
      </g>
     </g>
     <g id="line2d_20">
      <g>
       <use xlink:href="#me23c627ac6" x="148.140274" y="3.925392" style="stroke: #000000; stroke-width: 0.5"/>
      </g>
     </g>
    </g>
    <g id="xtick_11">
     <g id="line2d_21">
      <g>
       <use xlink:href="#m463b779569" x="170.353601" y="336.565392" style="stroke: #000000; stroke-width: 0.5"/>
      </g>
     </g>
     <g id="line2d_22">
      <g>
       <use xlink:href="#me23c627ac6" x="170.353601" y="3.925392" style="stroke: #000000; stroke-width: 0.5"/>
      </g>
     </g>
    </g>
    <g id="xtick_12">
     <g id="line2d_23">
      <g>
       <use xlink:href="#m463b779569" x="192.566929" y="336.565392" style="stroke: #000000; stroke-width: 0.5"/>
      </g>
     </g>
     <g id="line2d_24">
      <g>
       <use xlink:href="#me23c627ac6" x="192.566929" y="3.925392" style="stroke: #000000; stroke-width: 0.5"/>
      </g>
     </g>
    </g>
    <g id="xtick_13">
     <g id="line2d_25">
      <g>
       <use xlink:href="#m463b779569" x="236.993583" y="336.565392" style="stroke: #000000; stroke-width: 0.5"/>
      </g>
     </g>
     <g id="line2d_26">
      <g>
       <use xlink:href="#me23c627ac6" x="236.993583" y="3.925392" style="stroke: #000000; stroke-width: 0.5"/>
      </g>
     </g>
    </g>
    <g id="xtick_14">
     <g id="line2d_27">
      <g>
       <use xlink:href="#m463b779569" x="259.206911" y="336.565392" style="stroke: #000000; stroke-width: 0.5"/>
      </g>
     </g>
     <g id="line2d_28">
      <g>
       <use xlink:href="#me23c627ac6" x="259.206911" y="3.925392" style="stroke: #000000; stroke-width: 0.5"/>
      </g>
     </g>
    </g>
    <g id="xtick_15">
     <g id="line2d_29">
      <g>
       <use xlink:href="#m463b779569" x="281.420238" y="336.565392" style="stroke: #000000; stroke-width: 0.5"/>
      </g>
     </g>
     <g id="line2d_30">
      <g>
       <use xlink:href="#me23c627ac6" x="281.420238" y="3.925392" style="stroke: #000000; stroke-width: 0.5"/>
      </g>
     </g>
    </g>
    <g id="xtick_16">
     <g id="line2d_31">
      <g>
       <use xlink:href="#m463b779569" x="325.846893" y="336.565392" style="stroke: #000000; stroke-width: 0.5"/>
      </g>
     </g>
     <g id="line2d_32">
      <g>
       <use xlink:href="#me23c627ac6" x="325.846893" y="3.925392" style="stroke: #000000; stroke-width: 0.5"/>
      </g>
     </g>
    </g>
    <g id="xtick_17">
     <g id="line2d_33">
      <g>
       <use xlink:href="#m463b779569" x="348.06022" y="336.565392" style="stroke: #000000; stroke-width: 0.5"/>
      </g>
     </g>
     <g id="line2d_34">
      <g>
       <use xlink:href="#me23c627ac6" x="348.06022" y="3.925392" style="stroke: #000000; stroke-width: 0.5"/>
      </g>
     </g>
    </g>
    <g id="xtick_18">
     <g id="line2d_35">
      <g>
       <use xlink:href="#m463b779569" x="370.273548" y="336.565392" style="stroke: #000000; stroke-width: 0.5"/>
      </g>
     </g>
     <g id="line2d_36">
      <g>
       <use xlink:href="#me23c627ac6" x="370.273548" y="3.925392" style="stroke: #000000; stroke-width: 0.5"/>
      </g>
     </g>
    </g>
    <g id="xtick_19">
     <g id="line2d_37">
      <g>
       <use xlink:href="#m463b779569" x="414.700202" y="336.565392" style="stroke: #000000; stroke-width: 0.5"/>
      </g>
     </g>
     <g id="line2d_38">
      <g>
       <use xlink:href="#me23c627ac6" x="414.700202" y="3.925392" style="stroke: #000000; stroke-width: 0.5"/>
      </g>
     </g>
    </g>
    <g id="xtick_20">
     <g id="line2d_39">
      <g>
       <use xlink:href="#m463b779569" x="436.91353" y="336.565392" style="stroke: #000000; stroke-width: 0.5"/>
      </g>
     </g>
     <g id="line2d_40">
      <g>
       <use xlink:href="#me23c627ac6" x="436.91353" y="3.925392" style="stroke: #000000; stroke-width: 0.5"/>
      </g>
     </g>
    </g>
    <g id="xtick_21">
     <g id="line2d_41">
      <g>
       <use xlink:href="#m463b779569" x="459.126857" y="336.565392" style="stroke: #000000; stroke-width: 0.5"/>
      </g>
     </g>
     <g id="line2d_42">
      <g>
       <use xlink:href="#me23c627ac6" x="459.126857" y="3.925392" style="stroke: #000000; stroke-width: 0.5"/>
      </g>
     </g>
    </g>
    <g id="xtick_22">
     <g id="line2d_43">
      <g>
       <use xlink:href="#m463b779569" x="503.553512" y="336.565392" style="stroke: #000000; stroke-width: 0.5"/>
      </g>
     </g>
     <g id="line2d_44">
      <g>
       <use xlink:href="#me23c627ac6" x="503.553512" y="3.925392" style="stroke: #000000; stroke-width: 0.5"/>
      </g>
     </g>
    </g>
    <g id="xtick_23">
     <g id="line2d_45">
      <g>
       <use xlink:href="#m463b779569" x="525.766839" y="336.565392" style="stroke: #000000; stroke-width: 0.5"/>
      </g>
     </g>
     <g id="line2d_46">
      <g>
       <use xlink:href="#me23c627ac6" x="525.766839" y="3.925392" style="stroke: #000000; stroke-width: 0.5"/>
      </g>
     </g>
    </g>
    <g id="xtick_24">
     <g id="line2d_47">
      <g>
       <use xlink:href="#m463b779569" x="547.980167" y="336.565392" style="stroke: #000000; stroke-width: 0.5"/>
      </g>
     </g>
     <g id="line2d_48">
      <g>
       <use xlink:href="#me23c627ac6" x="547.980167" y="3.925392" style="stroke: #000000; stroke-width: 0.5"/>
      </g>
     </g>
    </g>
    <g id="xtick_25">
     <g id="line2d_49">
      <g>
       <use xlink:href="#m463b779569" x="592.406821" y="336.565392" style="stroke: #000000; stroke-width: 0.5"/>
      </g>
     </g>
     <g id="line2d_50">
      <g>
       <use xlink:href="#me23c627ac6" x="592.406821" y="3.925392" style="stroke: #000000; stroke-width: 0.5"/>
      </g>
     </g>
    </g>
   </g>
   <g id="matplotlib.axis_2">
    <g id="ytick_1">
     <g id="line2d_51">
      <defs>
       <path id="m73e705e8b4" d="M 0 0 
L 3 0 
" style="stroke: #000000; stroke-width: 0.5"/>
      </defs>
      <g>
       <use xlink:href="#m73e705e8b4" x="37.496314" y="298.328317" style="stroke: #000000; stroke-width: 0.5"/>
      </g>
     </g>
     <g id="line2d_52">
      <defs>
       <path id="m6c3dcf9dea" d="M 0 0 
L -3 0 
" style="stroke: #000000; stroke-width: 0.5"/>
      </defs>
      <g>
       <use xlink:href="#m6c3dcf9dea" x="595.496314" y="298.328317" style="stroke: #000000; stroke-width: 0.5"/>
      </g>
     </g>
     <g id="text_7">
      <!-- $\mathdefault{−20}$ -->
      <g transform="translate(3.6 304.554967) scale(0.18 -0.18)">
       <defs>
        <path id="CMSY10-0" d="M 4218 1472 
C 4326 1472 4442 1472 4442 1600 
C 4442 1728 4326 1728 4218 1728 
L 755 1728 
C 646 1728 531 1728 531 1600 
C 531 1472 646 1472 755 1472 
L 4218 1472 
z
" transform="scale(0.015625)"/>
       </defs>
       <use xlink:href="#CMSY10-0" transform="scale(0.996264)"/>
       <use xlink:href="#CMR17-32" transform="translate(77.487468 0) scale(0.996264)"/>
       <use xlink:href="#CMR17-30" transform="translate(123.177945 0) scale(0.996264)"/>
      </g>
     </g>
    </g>
    <g id="ytick_2">
     <g id="line2d_53">
      <g>
       <use xlink:href="#m73e705e8b4" x="37.496314" y="257.113793" style="stroke: #000000; stroke-width: 0.5"/>
      </g>
     </g>
     <g id="line2d_54">
      <g>
       <use xlink:href="#m6c3dcf9dea" x="595.496314" y="257.113793" style="stroke: #000000; stroke-width: 0.5"/>
      </g>
     </g>
     <g id="text_8">
      <!-- $\mathdefault{−15}$ -->
      <g transform="translate(3.6 263.340443) scale(0.18 -0.18)">
       <defs>
        <path id="CMR17-35" d="M 730 3750 
C 794 3724 1056 3641 1325 3641 
C 1920 3641 2246 3961 2432 4140 
C 2432 4191 2432 4224 2394 4224 
C 2387 4224 2374 4224 2323 4198 
C 2099 4102 1837 4032 1517 4032 
C 1325 4032 1037 4055 723 4191 
C 653 4224 640 4224 634 4224 
C 602 4224 595 4217 595 4090 
L 595 2231 
C 595 2113 595 2080 659 2080 
C 691 2080 704 2093 736 2139 
C 941 2435 1222 2560 1542 2560 
C 1766 2560 2246 2415 2246 1293 
C 2246 1087 2246 716 2054 422 
C 1894 159 1645 25 1370 25 
C 947 25 518 319 403 812 
C 429 806 480 793 506 793 
C 589 793 749 838 749 1036 
C 749 1209 627 1280 506 1280 
C 358 1280 262 1190 262 1011 
C 262 454 704 -128 1382 -128 
C 2042 -128 2669 441 2669 1267 
C 2669 2054 2170 2662 1549 2662 
C 1222 2662 947 2540 730 2304 
L 730 3750 
z
" transform="scale(0.015625)"/>
       </defs>
       <use xlink:href="#CMSY10-0" transform="scale(0.996264)"/>
       <use xlink:href="#CMR17-31" transform="translate(77.487468 0) scale(0.996264)"/>
       <use xlink:href="#CMR17-35" transform="translate(123.177945 0) scale(0.996264)"/>
      </g>
     </g>
    </g>
    <g id="ytick_3">
     <g id="line2d_55">
      <g>
       <use xlink:href="#m73e705e8b4" x="37.496314" y="215.89927" style="stroke: #000000; stroke-width: 0.5"/>
      </g>
     </g>
     <g id="line2d_56">
      <g>
       <use xlink:href="#m6c3dcf9dea" x="595.496314" y="215.89927" style="stroke: #000000; stroke-width: 0.5"/>
      </g>
     </g>
     <g id="text_9">
      <!-- $\mathdefault{−10}$ -->
      <g transform="translate(3.6 222.12592) scale(0.18 -0.18)">
       <use xlink:href="#CMSY10-0" transform="scale(0.996264)"/>
       <use xlink:href="#CMR17-31" transform="translate(77.487468 0) scale(0.996264)"/>
       <use xlink:href="#CMR17-30" transform="translate(123.177945 0) scale(0.996264)"/>
      </g>
     </g>
    </g>
    <g id="ytick_4">
     <g id="line2d_57">
      <g>
       <use xlink:href="#m73e705e8b4" x="37.496314" y="174.684746" style="stroke: #000000; stroke-width: 0.5"/>
      </g>
     </g>
     <g id="line2d_58">
      <g>
       <use xlink:href="#m6c3dcf9dea" x="595.496314" y="174.684746" style="stroke: #000000; stroke-width: 0.5"/>
      </g>
     </g>
     <g id="text_10">
      <!-- $\mathdefault{−5}$ -->
      <g transform="translate(11.824286 180.911396) scale(0.18 -0.18)">
       <use xlink:href="#CMSY10-0" transform="scale(0.996264)"/>
       <use xlink:href="#CMR17-35" transform="translate(77.487468 0) scale(0.996264)"/>
      </g>
     </g>
    </g>
    <g id="ytick_5">
     <g id="line2d_59">
      <g>
       <use xlink:href="#m73e705e8b4" x="37.496314" y="133.470222" style="stroke: #000000; stroke-width: 0.5"/>
      </g>
     </g>
     <g id="line2d_60">
      <g>
       <use xlink:href="#m6c3dcf9dea" x="595.496314" y="133.470222" style="stroke: #000000; stroke-width: 0.5"/>
      </g>
     </g>
     <g id="text_11">
      <!-- $\mathdefault{0}$ -->
      <g transform="translate(25.772028 139.696872) scale(0.18 -0.18)">
       <use xlink:href="#CMR17-30" transform="scale(0.996264)"/>
      </g>
     </g>
    </g>
    <g id="ytick_6">
     <g id="line2d_61">
      <g>
       <use xlink:href="#m73e705e8b4" x="37.496314" y="92.255698" style="stroke: #000000; stroke-width: 0.5"/>
      </g>
     </g>
     <g id="line2d_62">
      <g>
       <use xlink:href="#m6c3dcf9dea" x="595.496314" y="92.255698" style="stroke: #000000; stroke-width: 0.5"/>
      </g>
     </g>
     <g id="text_12">
      <!-- $\mathdefault{5}$ -->
      <g transform="translate(25.772028 98.482348) scale(0.18 -0.18)">
       <use xlink:href="#CMR17-35" transform="scale(0.996264)"/>
      </g>
     </g>
    </g>
    <g id="ytick_7">
     <g id="line2d_63">
      <g>
       <use xlink:href="#m73e705e8b4" x="37.496314" y="51.041174" style="stroke: #000000; stroke-width: 0.5"/>
      </g>
     </g>
     <g id="line2d_64">
      <g>
       <use xlink:href="#m6c3dcf9dea" x="595.496314" y="51.041174" style="stroke: #000000; stroke-width: 0.5"/>
      </g>
     </g>
     <g id="text_13">
      <!-- $\mathdefault{10}$ -->
      <g transform="translate(17.547742 57.267824) scale(0.18 -0.18)">
       <use xlink:href="#CMR17-31" transform="scale(0.996264)"/>
       <use xlink:href="#CMR17-30" transform="translate(45.690477 0) scale(0.996264)"/>
      </g>
     </g>
    </g>
    <g id="ytick_8">
     <g id="line2d_65">
      <g>
       <use xlink:href="#m73e705e8b4" x="37.496314" y="9.82665" style="stroke: #000000; stroke-width: 0.5"/>
      </g>
     </g>
     <g id="line2d_66">
      <g>
       <use xlink:href="#m6c3dcf9dea" x="595.496314" y="9.82665" style="stroke: #000000; stroke-width: 0.5"/>
      </g>
     </g>
     <g id="text_14">
      <!-- $\mathdefault{15}$ -->
      <g transform="translate(17.547742 16.0533) scale(0.18 -0.18)">
       <use xlink:href="#CMR17-31" transform="scale(0.996264)"/>
       <use xlink:href="#CMR17-35" transform="translate(45.690477 0) scale(0.996264)"/>
      </g>
     </g>
    </g>
    <g id="ytick_9">
     <g id="line2d_67">
      <defs>
       <path id="m1fbc2e8097" d="M 0 0 
L 1.5 0 
" style="stroke: #000000; stroke-width: 0.5"/>
      </defs>
      <g>
       <use xlink:href="#m1fbc2e8097" x="37.496314" y="331.299936" style="stroke: #000000; stroke-width: 0.5"/>
      </g>
     </g>
     <g id="line2d_68">
      <defs>
       <path id="m44fb59dd2f" d="M 0 0 
L -1.5 0 
" style="stroke: #000000; stroke-width: 0.5"/>
      </defs>
      <g>
       <use xlink:href="#m44fb59dd2f" x="595.496314" y="331.299936" style="stroke: #000000; stroke-width: 0.5"/>
      </g>
     </g>
    </g>
    <g id="ytick_10">
     <g id="line2d_69">
      <g>
       <use xlink:href="#m1fbc2e8097" x="37.496314" y="323.057032" style="stroke: #000000; stroke-width: 0.5"/>
      </g>
     </g>
     <g id="line2d_70">
      <g>
       <use xlink:href="#m44fb59dd2f" x="595.496314" y="323.057032" style="stroke: #000000; stroke-width: 0.5"/>
      </g>
     </g>
    </g>
    <g id="ytick_11">
     <g id="line2d_71">
      <g>
       <use xlink:href="#m1fbc2e8097" x="37.496314" y="314.814127" style="stroke: #000000; stroke-width: 0.5"/>
      </g>
     </g>
     <g id="line2d_72">
      <g>
       <use xlink:href="#m44fb59dd2f" x="595.496314" y="314.814127" style="stroke: #000000; stroke-width: 0.5"/>
      </g>
     </g>
    </g>
    <g id="ytick_12">
     <g id="line2d_73">
      <g>
       <use xlink:href="#m1fbc2e8097" x="37.496314" y="306.571222" style="stroke: #000000; stroke-width: 0.5"/>
      </g>
     </g>
     <g id="line2d_74">
      <g>
       <use xlink:href="#m44fb59dd2f" x="595.496314" y="306.571222" style="stroke: #000000; stroke-width: 0.5"/>
      </g>
     </g>
    </g>
    <g id="ytick_13">
     <g id="line2d_75">
      <g>
       <use xlink:href="#m1fbc2e8097" x="37.496314" y="290.085413" style="stroke: #000000; stroke-width: 0.5"/>
      </g>
     </g>
     <g id="line2d_76">
      <g>
       <use xlink:href="#m44fb59dd2f" x="595.496314" y="290.085413" style="stroke: #000000; stroke-width: 0.5"/>
      </g>
     </g>
    </g>
    <g id="ytick_14">
     <g id="line2d_77">
      <g>
       <use xlink:href="#m1fbc2e8097" x="37.496314" y="281.842508" style="stroke: #000000; stroke-width: 0.5"/>
      </g>
     </g>
     <g id="line2d_78">
      <g>
       <use xlink:href="#m44fb59dd2f" x="595.496314" y="281.842508" style="stroke: #000000; stroke-width: 0.5"/>
      </g>
     </g>
    </g>
    <g id="ytick_15">
     <g id="line2d_79">
      <g>
       <use xlink:href="#m1fbc2e8097" x="37.496314" y="273.599603" style="stroke: #000000; stroke-width: 0.5"/>
      </g>
     </g>
     <g id="line2d_80">
      <g>
       <use xlink:href="#m44fb59dd2f" x="595.496314" y="273.599603" style="stroke: #000000; stroke-width: 0.5"/>
      </g>
     </g>
    </g>
    <g id="ytick_16">
     <g id="line2d_81">
      <g>
       <use xlink:href="#m1fbc2e8097" x="37.496314" y="265.356698" style="stroke: #000000; stroke-width: 0.5"/>
      </g>
     </g>
     <g id="line2d_82">
      <g>
       <use xlink:href="#m44fb59dd2f" x="595.496314" y="265.356698" style="stroke: #000000; stroke-width: 0.5"/>
      </g>
     </g>
    </g>
    <g id="ytick_17">
     <g id="line2d_83">
      <g>
       <use xlink:href="#m1fbc2e8097" x="37.496314" y="248.870889" style="stroke: #000000; stroke-width: 0.5"/>
      </g>
     </g>
     <g id="line2d_84">
      <g>
       <use xlink:href="#m44fb59dd2f" x="595.496314" y="248.870889" style="stroke: #000000; stroke-width: 0.5"/>
      </g>
     </g>
    </g>
    <g id="ytick_18">
     <g id="line2d_85">
      <g>
       <use xlink:href="#m1fbc2e8097" x="37.496314" y="240.627984" style="stroke: #000000; stroke-width: 0.5"/>
      </g>
     </g>
     <g id="line2d_86">
      <g>
       <use xlink:href="#m44fb59dd2f" x="595.496314" y="240.627984" style="stroke: #000000; stroke-width: 0.5"/>
      </g>
     </g>
    </g>
    <g id="ytick_19">
     <g id="line2d_87">
      <g>
       <use xlink:href="#m1fbc2e8097" x="37.496314" y="232.385079" style="stroke: #000000; stroke-width: 0.5"/>
      </g>
     </g>
     <g id="line2d_88">
      <g>
       <use xlink:href="#m44fb59dd2f" x="595.496314" y="232.385079" style="stroke: #000000; stroke-width: 0.5"/>
      </g>
     </g>
    </g>
    <g id="ytick_20">
     <g id="line2d_89">
      <g>
       <use xlink:href="#m1fbc2e8097" x="37.496314" y="224.142174" style="stroke: #000000; stroke-width: 0.5"/>
      </g>
     </g>
     <g id="line2d_90">
      <g>
       <use xlink:href="#m44fb59dd2f" x="595.496314" y="224.142174" style="stroke: #000000; stroke-width: 0.5"/>
      </g>
     </g>
    </g>
    <g id="ytick_21">
     <g id="line2d_91">
      <g>
       <use xlink:href="#m1fbc2e8097" x="37.496314" y="207.656365" style="stroke: #000000; stroke-width: 0.5"/>
      </g>
     </g>
     <g id="line2d_92">
      <g>
       <use xlink:href="#m44fb59dd2f" x="595.496314" y="207.656365" style="stroke: #000000; stroke-width: 0.5"/>
      </g>
     </g>
    </g>
    <g id="ytick_22">
     <g id="line2d_93">
      <g>
       <use xlink:href="#m1fbc2e8097" x="37.496314" y="199.41346" style="stroke: #000000; stroke-width: 0.5"/>
      </g>
     </g>
     <g id="line2d_94">
      <g>
       <use xlink:href="#m44fb59dd2f" x="595.496314" y="199.41346" style="stroke: #000000; stroke-width: 0.5"/>
      </g>
     </g>
    </g>
    <g id="ytick_23">
     <g id="line2d_95">
      <g>
       <use xlink:href="#m1fbc2e8097" x="37.496314" y="191.170555" style="stroke: #000000; stroke-width: 0.5"/>
      </g>
     </g>
     <g id="line2d_96">
      <g>
       <use xlink:href="#m44fb59dd2f" x="595.496314" y="191.170555" style="stroke: #000000; stroke-width: 0.5"/>
      </g>
     </g>
    </g>
    <g id="ytick_24">
     <g id="line2d_97">
      <g>
       <use xlink:href="#m1fbc2e8097" x="37.496314" y="182.92765" style="stroke: #000000; stroke-width: 0.5"/>
      </g>
     </g>
     <g id="line2d_98">
      <g>
       <use xlink:href="#m44fb59dd2f" x="595.496314" y="182.92765" style="stroke: #000000; stroke-width: 0.5"/>
      </g>
     </g>
    </g>
    <g id="ytick_25">
     <g id="line2d_99">
      <g>
       <use xlink:href="#m1fbc2e8097" x="37.496314" y="166.441841" style="stroke: #000000; stroke-width: 0.5"/>
      </g>
     </g>
     <g id="line2d_100">
      <g>
       <use xlink:href="#m44fb59dd2f" x="595.496314" y="166.441841" style="stroke: #000000; stroke-width: 0.5"/>
      </g>
     </g>
    </g>
    <g id="ytick_26">
     <g id="line2d_101">
      <g>
       <use xlink:href="#m1fbc2e8097" x="37.496314" y="158.198936" style="stroke: #000000; stroke-width: 0.5"/>
      </g>
     </g>
     <g id="line2d_102">
      <g>
       <use xlink:href="#m44fb59dd2f" x="595.496314" y="158.198936" style="stroke: #000000; stroke-width: 0.5"/>
      </g>
     </g>
    </g>
    <g id="ytick_27">
     <g id="line2d_103">
      <g>
       <use xlink:href="#m1fbc2e8097" x="37.496314" y="149.956031" style="stroke: #000000; stroke-width: 0.5"/>
      </g>
     </g>
     <g id="line2d_104">
      <g>
       <use xlink:href="#m44fb59dd2f" x="595.496314" y="149.956031" style="stroke: #000000; stroke-width: 0.5"/>
      </g>
     </g>
    </g>
    <g id="ytick_28">
     <g id="line2d_105">
      <g>
       <use xlink:href="#m1fbc2e8097" x="37.496314" y="141.713127" style="stroke: #000000; stroke-width: 0.5"/>
      </g>
     </g>
     <g id="line2d_106">
      <g>
       <use xlink:href="#m44fb59dd2f" x="595.496314" y="141.713127" style="stroke: #000000; stroke-width: 0.5"/>
      </g>
     </g>
    </g>
    <g id="ytick_29">
     <g id="line2d_107">
      <g>
       <use xlink:href="#m1fbc2e8097" x="37.496314" y="125.227317" style="stroke: #000000; stroke-width: 0.5"/>
      </g>
     </g>
     <g id="line2d_108">
      <g>
       <use xlink:href="#m44fb59dd2f" x="595.496314" y="125.227317" style="stroke: #000000; stroke-width: 0.5"/>
      </g>
     </g>
    </g>
    <g id="ytick_30">
     <g id="line2d_109">
      <g>
       <use xlink:href="#m1fbc2e8097" x="37.496314" y="116.984412" style="stroke: #000000; stroke-width: 0.5"/>
      </g>
     </g>
     <g id="line2d_110">
      <g>
       <use xlink:href="#m44fb59dd2f" x="595.496314" y="116.984412" style="stroke: #000000; stroke-width: 0.5"/>
      </g>
     </g>
    </g>
    <g id="ytick_31">
     <g id="line2d_111">
      <g>
       <use xlink:href="#m1fbc2e8097" x="37.496314" y="108.741507" style="stroke: #000000; stroke-width: 0.5"/>
      </g>
     </g>
     <g id="line2d_112">
      <g>
       <use xlink:href="#m44fb59dd2f" x="595.496314" y="108.741507" style="stroke: #000000; stroke-width: 0.5"/>
      </g>
     </g>
    </g>
    <g id="ytick_32">
     <g id="line2d_113">
      <g>
       <use xlink:href="#m1fbc2e8097" x="37.496314" y="100.498603" style="stroke: #000000; stroke-width: 0.5"/>
      </g>
     </g>
     <g id="line2d_114">
      <g>
       <use xlink:href="#m44fb59dd2f" x="595.496314" y="100.498603" style="stroke: #000000; stroke-width: 0.5"/>
      </g>
     </g>
    </g>
    <g id="ytick_33">
     <g id="line2d_115">
      <g>
       <use xlink:href="#m1fbc2e8097" x="37.496314" y="84.012793" style="stroke: #000000; stroke-width: 0.5"/>
      </g>
     </g>
     <g id="line2d_116">
      <g>
       <use xlink:href="#m44fb59dd2f" x="595.496314" y="84.012793" style="stroke: #000000; stroke-width: 0.5"/>
      </g>
     </g>
    </g>
    <g id="ytick_34">
     <g id="line2d_117">
      <g>
       <use xlink:href="#m1fbc2e8097" x="37.496314" y="75.769888" style="stroke: #000000; stroke-width: 0.5"/>
      </g>
     </g>
     <g id="line2d_118">
      <g>
       <use xlink:href="#m44fb59dd2f" x="595.496314" y="75.769888" style="stroke: #000000; stroke-width: 0.5"/>
      </g>
     </g>
    </g>
    <g id="ytick_35">
     <g id="line2d_119">
      <g>
       <use xlink:href="#m1fbc2e8097" x="37.496314" y="67.526984" style="stroke: #000000; stroke-width: 0.5"/>
      </g>
     </g>
     <g id="line2d_120">
      <g>
       <use xlink:href="#m44fb59dd2f" x="595.496314" y="67.526984" style="stroke: #000000; stroke-width: 0.5"/>
      </g>
     </g>
    </g>
    <g id="ytick_36">
     <g id="line2d_121">
      <g>
       <use xlink:href="#m1fbc2e8097" x="37.496314" y="59.284079" style="stroke: #000000; stroke-width: 0.5"/>
      </g>
     </g>
     <g id="line2d_122">
      <g>
       <use xlink:href="#m44fb59dd2f" x="595.496314" y="59.284079" style="stroke: #000000; stroke-width: 0.5"/>
      </g>
     </g>
    </g>
    <g id="ytick_37">
     <g id="line2d_123">
      <g>
       <use xlink:href="#m1fbc2e8097" x="37.496314" y="42.798269" style="stroke: #000000; stroke-width: 0.5"/>
      </g>
     </g>
     <g id="line2d_124">
      <g>
       <use xlink:href="#m44fb59dd2f" x="595.496314" y="42.798269" style="stroke: #000000; stroke-width: 0.5"/>
      </g>
     </g>
    </g>
    <g id="ytick_38">
     <g id="line2d_125">
      <g>
       <use xlink:href="#m1fbc2e8097" x="37.496314" y="34.555364" style="stroke: #000000; stroke-width: 0.5"/>
      </g>
     </g>
     <g id="line2d_126">
      <g>
       <use xlink:href="#m44fb59dd2f" x="595.496314" y="34.555364" style="stroke: #000000; stroke-width: 0.5"/>
      </g>
     </g>
    </g>
    <g id="ytick_39">
     <g id="line2d_127">
      <g>
       <use xlink:href="#m1fbc2e8097" x="37.496314" y="26.31246" style="stroke: #000000; stroke-width: 0.5"/>
      </g>
     </g>
     <g id="line2d_128">
      <g>
       <use xlink:href="#m44fb59dd2f" x="595.496314" y="26.31246" style="stroke: #000000; stroke-width: 0.5"/>
      </g>
     </g>
    </g>
    <g id="ytick_40">
     <g id="line2d_129">
      <g>
       <use xlink:href="#m1fbc2e8097" x="37.496314" y="18.069555" style="stroke: #000000; stroke-width: 0.5"/>
      </g>
     </g>
     <g id="line2d_130">
      <g>
       <use xlink:href="#m44fb59dd2f" x="595.496314" y="18.069555" style="stroke: #000000; stroke-width: 0.5"/>
      </g>
     </g>
    </g>
   </g>
   <g id="line2d_131">
    <path d="M 62.85995 152.120208 
L 64.74527 212.864043 
L 66.569773 130.701408 
L 68.455093 79.487972 
L 70.279597 154.273402 
L 72.164917 156.589496 
L 74.050237 151.423753 
L 75.87474 232.855019 
L 77.76006 108.637391 
L 79.584563 93.792366 
L 81.469883 122.417234 
L 83.355203 136.875402 
L 85.058073 162.562211 
L 86.943393 94.618864 
L 88.767896 163.93182 
L 90.653216 158.059539 
L 92.47772 184.859562 
L 94.36304 228.512719 
L 96.24836 125.336815 
L 98.072863 174.907371 
L 99.958183 146.085303 
L 101.782686 81.787995 
L 103.668006 143.26645 
L 105.553327 136.537746 
L 107.256196 189.441122 
L 109.141516 124.070136 
L 110.96602 92.262781 
L 112.85134 91.993928 
L 114.675843 88.867899 
L 116.561163 129.691166 
L 118.446483 135.973782 
L 120.270986 108.923962 
L 122.156306 118.018603 
L 123.98081 124.653521 
L 127.75145 94.817774 
L 129.515136 125.617983 
L 131.400456 147.561746 
L 133.22496 126.619779 
L 135.11028 156.016551 
L 136.934783 111.360387 
L 138.820103 153.288524 
L 140.705423 146.172146 
L 142.529926 112.011906 
L 144.415246 133.80217 
L 146.23975 96.160486 
L 148.12507 112.396699 
L 150.01039 145.796963 
L 151.713259 120.854839 
L 153.598579 136.726726 
L 155.423083 154.762307 
L 157.308403 123.723769 
L 159.132906 116.869792 
L 161.018226 119.877309 
L 162.903546 132.102306 
L 164.728049 132.360039 
L 166.613369 156.626661 
L 168.437873 102.650703 
L 170.323193 117.178062 
L 172.208513 122.660338 
L 173.911383 134.812116 
L 175.796703 122.508981 
L 177.621206 128.116575 
L 179.506526 141.203825 
L 181.331029 157.352908 
L 183.216349 128.832897 
L 185.101669 116.054371 
L 186.926173 114.109554 
L 188.811493 105.404151 
L 190.635996 118.337946 
L 192.521316 117.142915 
L 194.406636 128.978164 
L 196.109506 121.609722 
L 197.994826 155.352383 
L 199.819329 100.908899 
L 201.704649 107.144157 
L 203.529152 131.808197 
L 205.414472 129.928502 
L 207.299792 170.095618 
L 209.124296 109.731839 
L 211.009616 110.374962 
L 212.834119 175.349083 
L 214.719439 124.601466 
L 216.604759 191.442882 
L 218.368446 147.878024 
L 220.253766 156.875657 
L 222.078269 100.628113 
L 223.963589 114.003902 
L 225.788092 170.701428 
L 227.673412 186.72894 
L 229.558732 117.794334 
L 231.383236 176.053173 
L 233.268556 321.445392 
L 235.093059 209.871804 
L 236.978379 138.601571 
L 238.863699 144.800528 
L 240.566569 193.043221 
L 242.451889 184.24073 
L 244.276392 39.894675 
L 246.161712 82.35477 
L 247.986216 112.092369 
L 249.871536 124.881664 
L 251.756856 70.811701 
L 253.581359 105.524135 
L 255.466679 115.432135 
L 257.291182 117.861336 
L 259.176502 116.739751 
L 261.061822 123.72899 
L 262.764692 159.116585 
L 264.650012 87.197681 
L 266.474515 101.69979 
L 268.359835 184.781775 
L 270.184339 164.602886 
L 272.069659 136.183361 
L 273.954979 127.779876 
L 275.779482 107.500999 
L 277.664802 97.886295 
L 279.489305 114.476209 
L 281.374625 104.66262 
L 283.259946 106.631018 
L 284.962815 109.09183 
L 286.848135 143.912088 
L 288.672639 116.57105 
L 290.557959 129.271296 
L 292.382462 165.509066 
L 294.267782 109.552105 
L 296.153102 225.421062 
L 297.977605 141.457466 
L 299.862925 110.385395 
L 301.687429 120.46361 
L 303.572749 122.189094 
L 305.458069 96.356462 
L 307.221755 101.20995 
L 309.107075 111.371409 
L 312.816899 160.766742 
L 314.641402 144.476392 
L 316.526722 111.16633 
L 318.412042 107.413931 
L 320.236545 110.322656 
L 322.121865 136.67442 
L 323.946369 158.681128 
L 325.831689 117.210969 
L 327.717009 100.462274 
L 329.419878 115.891435 
L 331.305198 112.737677 
L 333.129702 122.97609 
L 335.015022 97.962017 
L 336.839525 144.130008 
L 338.724845 108.439575 
L 340.610165 132.774007 
L 344.319988 117.570348 
L 346.144492 103.582751 
L 348.029812 122.342779 
L 349.915132 126.848868 
L 351.618002 135.880085 
L 353.503322 112.649989 
L 355.327825 133.142963 
L 357.213145 122.267342 
L 359.037648 108.839745 
L 360.922968 122.53192 
L 362.808288 138.31798 
L 364.632792 120.255479 
L 366.518112 156.943272 
L 368.342615 89.034591 
L 370.227935 129.568809 
L 372.113255 144.006067 
L 373.816125 111.802767 
L 375.701445 134.34557 
L 377.525948 127.598274 
L 379.411268 126.776793 
L 381.235771 138.422364 
L 383.121091 135.494864 
L 386.830915 172.976396 
L 388.716235 100.072214 
L 390.540738 111.057716 
L 392.426058 144.052353 
L 394.311378 189.713462 
L 397.960385 84.107675 
L 399.784888 111.907633 
L 401.670208 137.44728 
L 403.494711 126.183655 
L 405.380031 108.148229 
L 407.265351 125.055225 
L 409.089855 138.520365 
L 410.975175 139.09366 
L 412.799678 125.062712 
L 414.684998 102.958637 
L 416.570318 123.08294 
L 418.273188 113.854712 
L 420.158508 120.514319 
L 421.983011 136.089882 
L 423.868331 120.973851 
L 425.692835 120.27949 
L 429.463475 132.758457 
L 431.287978 121.271514 
L 433.173298 112.523292 
L 434.997801 121.752082 
L 436.883121 111.292155 
L 438.768441 95.541702 
L 440.471311 158.865662 
L 442.356631 134.198802 
L 444.181134 148.594847 
L 446.066454 118.736064 
L 447.890958 117.497115 
L 449.776278 121.795033 
L 451.661598 114.747542 
L 453.486101 120.966767 
L 455.371421 167.113485 
L 457.195924 152.094533 
L 459.081244 182.070403 
L 460.966565 120.701086 
L 462.669434 88.120312 
L 464.554754 118.902361 
L 466.379258 104.636221 
L 468.264578 147.524343 
L 470.089081 123.294305 
L 471.974401 103.795212 
L 473.859721 161.057844 
L 475.684224 109.731596 
L 477.569544 134.708351 
L 479.394048 98.983158 
L 481.279368 114.614121 
L 483.164688 107.557125 
L 484.928374 133.693699 
L 486.813694 307.858564 
L 488.638198 100.099977 
L 490.523518 87.717428 
L 492.348021 82.815311 
L 494.233341 106.578203 
L 496.118661 87.470466 
L 497.943164 139.86072 
L 501.652988 102.639285 
L 503.538308 100.16832 
L 505.423628 111.799533 
L 507.126497 114.210867 
L 509.011817 127.743027 
L 510.836321 86.228077 
L 512.721641 128.177993 
L 514.546144 119.61656 
L 516.431464 109.469932 
L 518.316784 116.551139 
L 520.141287 135.074954 
L 522.026607 130.66334 
L 523.851111 96.13645 
L 525.736431 132.166827 
L 527.621751 151.466782 
L 529.324621 158.692751 
L 531.209941 141.821347 
L 533.034444 133.464444 
L 534.919764 202.125873 
L 536.744267 162.83752 
L 538.629587 130.772177 
L 540.514907 83.031897 
L 542.339411 196.908659 
L 544.224731 160.555897 
L 546.049234 92.17176 
L 547.934554 134.545632 
L 549.819874 123.361398 
L 551.522744 109.063046 
L 553.408064 156.234343 
L 555.232567 102.306957 
L 557.117887 128.543828 
L 558.94239 94.789745 
L 560.82771 103.170313 
L 562.71303 142.796223 
L 564.537534 142.444204 
L 566.422854 160.009027 
L 568.247357 97.457423 
L 570.132677 92.903638 
L 570.132677 92.903638 
" clip-path="url(#pe8568b8c84)" style="fill: none; stroke-dasharray: 3.7,1.6; stroke-dashoffset: 0; stroke: #000000"/>
   </g>
   <g id="line2d_132">
    <path d="M 62.85995 122.142483 
L 64.74527 127.153336 
L 66.569773 136.125105 
L 68.455093 128.045509 
L 70.279597 116.088773 
L 72.164917 123.938606 
L 74.050237 127.470909 
L 75.87474 121.657585 
L 77.76006 144.43611 
L 79.584563 121.767924 
L 81.469883 125.369808 
L 83.355203 140.865801 
L 85.058073 134.465438 
L 86.943393 137.626802 
L 88.767896 136.198645 
L 90.653216 140.798526 
L 92.47772 139.710269 
L 94.36304 140.167906 
L 96.24836 148.975941 
L 98.072863 122.248347 
L 99.958183 131.230272 
L 101.782686 132.383202 
L 103.668006 120.596782 
L 105.553327 130.13826 
L 107.256196 135.348529 
L 109.141516 140.611346 
L 110.96602 128.043448 
L 112.85134 129.749772 
L 114.675843 112.76729 
L 116.561163 114.884603 
L 118.446483 151.571942 
L 120.270986 144.880449 
L 122.156306 122.10546 
L 123.98081 131.877538 
L 125.86613 131.469737 
L 127.75145 125.796725 
L 129.515136 116.645578 
L 131.400456 124.162405 
L 133.22496 123.341153 
L 135.11028 139.610124 
L 136.934783 141.06853 
L 138.820103 122.978854 
L 140.705423 124.902311 
L 142.529926 123.119247 
L 144.415246 117.40451 
L 146.23975 124.636063 
L 148.12507 120.174994 
L 150.01039 122.532196 
L 151.713259 128.476049 
L 153.598579 122.271001 
L 155.423083 134.979593 
L 159.132906 119.128306 
L 161.018226 118.936296 
L 162.903546 128.102334 
L 164.728049 127.941363 
L 166.613369 124.294111 
L 168.437873 137.234066 
L 170.323193 121.580242 
L 172.208513 121.082135 
L 173.911383 122.466074 
L 175.796703 129.652573 
L 177.621206 127.07062 
L 179.506526 130.538413 
L 181.331029 129.948451 
L 183.216349 130.625325 
L 185.101669 124.797598 
L 186.926173 117.959794 
L 188.811493 118.382126 
L 190.635996 120.130142 
L 192.521316 119.616616 
L 194.406636 121.430078 
L 196.109506 129.207407 
L 197.994826 122.274674 
L 199.819329 126.311523 
L 201.704649 121.96328 
L 203.529152 121.820008 
L 205.414472 133.359958 
L 207.299792 121.567049 
L 209.124296 124.861422 
L 211.009616 116.354907 
L 212.834119 119.340091 
L 214.719439 123.795183 
L 216.604759 122.030277 
L 218.368446 128.823466 
L 220.253766 130.076751 
L 222.078269 125.345264 
L 223.963589 125.771461 
L 225.788092 129.720715 
L 227.673412 142.753286 
L 229.558732 138.332052 
L 231.383236 123.240802 
L 233.268556 133.041674 
L 235.093059 183.020446 
L 236.978379 159.023735 
L 238.863699 127.732244 
L 240.566569 158.526646 
L 242.451889 156.403673 
L 244.276392 184.874989 
L 246.161712 145.058938 
L 247.986216 159.749163 
L 249.871536 96.761189 
L 251.756856 123.601558 
L 253.581359 122.409562 
L 255.466679 118.483101 
L 257.291182 84.242557 
L 259.176502 89.934073 
L 261.061822 86.753625 
L 262.764692 191.639801 
L 264.650012 130.609115 
L 266.474515 116.724595 
L 268.359835 124.192787 
L 270.184339 126.197903 
L 272.069659 131.798092 
L 273.954979 123.66595 
L 275.779482 117.18523 
L 277.664802 123.895461 
L 279.489305 115.055186 
L 281.374625 133.604337 
L 283.259946 134.06797 
L 284.962815 116.123587 
L 286.848135 125.748525 
L 288.672639 123.127313 
L 290.557959 126.447093 
L 292.382462 117.349908 
L 294.267782 133.95326 
L 296.153102 122.247908 
L 297.977605 123.999873 
L 299.862925 124.631864 
L 301.687429 135.621839 
L 303.572749 114.664994 
L 305.458069 126.097196 
L 307.221755 118.117211 
L 309.107075 120.347285 
L 310.931579 131.455637 
L 312.816899 119.398635 
L 314.641402 124.557099 
L 316.526722 124.781899 
L 318.412042 120.340117 
L 320.236545 132.137904 
L 322.121865 121.700885 
L 323.946369 129.924826 
L 325.831689 128.196326 
L 327.717009 128.341392 
L 329.419878 127.780997 
L 333.129702 121.42937 
L 335.015022 117.004117 
L 336.839525 130.81479 
L 338.724845 144.099311 
L 340.610165 124.917315 
L 342.434668 129.932701 
L 344.319988 126.112482 
L 346.144492 117.350502 
L 348.029812 126.689303 
L 349.915132 130.317211 
L 351.618002 123.983187 
L 353.503322 125.140139 
L 355.327825 125.349424 
L 357.213145 128.405809 
L 359.037648 120.829407 
L 360.922968 125.938484 
L 362.808288 123.90047 
L 364.632792 126.5438 
L 366.518112 130.297448 
L 368.342615 125.527707 
L 370.227935 121.956519 
L 372.113255 124.275817 
L 373.816125 119.295415 
L 375.701445 134.035333 
L 377.525948 130.821321 
L 379.411268 122.351178 
L 381.235771 141.140251 
L 383.121091 132.665588 
L 385.006411 125.964267 
L 386.830915 129.675677 
L 388.716235 141.061089 
L 390.540738 116.231152 
L 392.426058 134.782985 
L 394.311378 129.716951 
L 396.075065 137.055056 
L 397.960385 117.198502 
L 399.784888 127.120414 
L 401.670208 120.74971 
L 403.494711 132.540968 
L 405.380031 119.057257 
L 407.265351 118.210004 
L 409.089855 134.109197 
L 410.975175 133.639461 
L 412.799678 135.425211 
L 414.684998 141.466493 
L 416.570318 128.883613 
L 418.273188 121.515306 
L 420.158508 125.098085 
L 421.983011 128.869479 
L 423.868331 123.590785 
L 425.692835 128.207836 
L 427.578155 122.419118 
L 429.463475 134.292612 
L 431.287978 123.649924 
L 434.997801 130.513245 
L 436.883121 124.964023 
L 438.768441 126.238844 
L 440.471311 125.979305 
L 442.356631 143.501724 
L 444.181134 124.6614 
L 446.066454 133.58971 
L 447.890958 127.306871 
L 449.776278 122.737993 
L 451.661598 126.589746 
L 453.486101 124.827612 
L 455.371421 129.491134 
L 457.195924 140.997271 
L 459.081244 129.984812 
L 460.966565 132.248638 
L 462.669434 122.56258 
L 464.554754 118.27901 
L 466.379258 123.977712 
L 468.264578 122.24607 
L 470.089081 129.609803 
L 471.974401 114.383886 
L 473.859721 106.36674 
L 475.684224 143.480761 
L 477.569544 125.488809 
L 479.394048 129.005193 
L 481.279368 124.485709 
L 483.164688 126.245585 
L 484.928374 121.467441 
L 486.813694 121.48449 
L 488.638198 144.510048 
L 490.523518 107.798595 
L 492.348021 128.522495 
L 494.233341 127.843351 
L 496.118661 113.302035 
L 497.943164 126.456718 
L 499.828484 136.571952 
L 501.652988 137.784462 
L 503.538308 128.722554 
L 505.423628 127.744156 
L 507.126497 130.991425 
L 509.011817 131.594582 
L 510.836321 140.678516 
L 512.721641 112.876838 
L 514.546144 127.404532 
L 516.431464 120.611849 
L 518.316784 115.891418 
L 520.141287 125.910176 
L 522.026607 134.020055 
L 523.851111 134.297872 
L 525.736431 115.275857 
L 527.621751 125.619352 
L 529.324621 145.304978 
L 531.209941 135.858421 
L 533.034444 133.688015 
L 534.919764 142.50473 
L 536.744267 144.260201 
L 538.629587 137.408885 
L 540.514907 120.470046 
L 542.339411 118.788431 
L 544.224731 159.874907 
L 547.934554 114.516604 
L 549.819874 128.352689 
L 551.522744 126.279259 
L 553.408064 128.732091 
L 555.232567 132.76493 
L 557.117887 117.341705 
L 558.94239 132.895317 
L 560.82771 123.07563 
L 562.71303 125.870982 
L 564.537534 136.708739 
L 566.422854 132.88536 
L 568.247357 139.766585 
L 570.132677 113.220408 
L 570.132677 113.220408 
" clip-path="url(#pe8568b8c84)" style="fill: none; stroke: #0000ff; stroke-linecap: square"/>
   </g>
   <g id="patch_3">
    <path d="M 37.496314 336.565392 
L 37.496314 3.925392 
" style="fill: none; stroke: #000000; stroke-width: 0.5; stroke-linejoin: miter; stroke-linecap: square"/>
   </g>
   <g id="patch_4">
    <path d="M 595.496314 336.565392 
L 595.496314 3.925392 
" style="fill: none; stroke: #000000; stroke-width: 0.5; stroke-linejoin: miter; stroke-linecap: square"/>
   </g>
   <g id="patch_5">
    <path d="M 37.496314 336.565392 
L 595.496314 336.565392 
" style="fill: none; stroke: #000000; stroke-width: 0.5; stroke-linejoin: miter; stroke-linecap: square"/>
   </g>
   <g id="patch_6">
    <path d="M 37.496314 3.925392 
L 595.496314 3.925392 
" style="fill: none; stroke: #000000; stroke-width: 0.5; stroke-linejoin: miter; stroke-linecap: square"/>
   </g>
   <g id="legend_1">
    <g id="line2d_133">
     <path d="M 48.296314 285.791604 
L 60.296314 285.791604 
L 72.296314 285.791604 
" style="fill: none; stroke-dasharray: 3.7,1.6; stroke-dashoffset: 0; stroke: #000000"/>
    </g>
    <g id="text_15">
     <!-- rendimenti SP 500 -->
     <g transform="translate(81.896314 289.991604) scale(0.12 -0.12)">
      <defs>
       <path id="CMR17-72" d="M 960 1517 
C 960 2134 1222 2713 1702 2713 
C 1747 2713 1792 2707 1837 2687 
C 1837 2687 1696 2642 1696 2475 
C 1696 2321 1818 2257 1914 2257 
C 1990 2257 2131 2302 2131 2482 
C 2131 2687 1926 2816 1709 2816 
C 1222 2816 1011 2340 947 2115 
L 941 2115 
L 941 2816 
L 198 2745 
L 198 2578 
C 576 2578 634 2540 634 2231 
L 634 443 
C 634 198 608 166 198 166 
L 198 0 
C 352 12 646 12 813 12 
C 998 12 1325 12 1498 0 
L 1498 166 
C 1037 166 960 166 960 455 
L 960 1517 
z
" transform="scale(0.015625)"/>
       <path id="CMR17-65" d="M 2438 1503 
C 2464 1529 2464 1542 2464 1606 
C 2464 2251 2118 2816 1389 2816 
C 710 2816 173 2175 173 1394 
C 173 554 781 -64 1459 -64 
C 2176 -64 2458 619 2458 755 
C 2458 800 2419 800 2406 800 
C 2362 800 2355 787 2330 709 
C 2189 270 1837 51 1504 51 
C 1229 51 954 206 781 490 
C 582 819 582 1200 582 1503 
L 2438 1503 
z
M 589 1600 
C 634 2511 1126 2713 1382 2713 
C 1818 2713 2112 2308 2118 1600 
L 589 1600 
z
" transform="scale(0.015625)"/>
       <path id="CMR17-6e" d="M 2656 1954 
C 2656 2282 2592 2816 1837 2816 
C 1331 2816 1069 2424 973 2166 
L 966 2166 
L 966 2816 
L 211 2745 
L 211 2578 
C 589 2578 646 2540 646 2231 
L 646 443 
C 646 198 621 166 211 166 
L 211 0 
C 365 12 646 12 813 12 
C 979 12 1267 12 1421 0 
L 1421 166 
C 1011 166 986 192 986 443 
L 986 1678 
C 986 2269 1344 2713 1792 2713 
C 2266 2713 2317 2289 2317 1980 
L 2317 443 
C 2317 198 2291 166 1882 166 
L 1882 0 
C 2035 12 2317 12 2483 12 
C 2650 12 2938 12 3091 0 
L 3091 166 
C 2682 166 2656 192 2656 443 
L 2656 1954 
z
" transform="scale(0.015625)"/>
       <path id="CMR17-64" d="M 1869 4345 
L 1869 4179 
C 2246 4179 2304 4141 2304 3843 
L 2304 2371 
C 2278 2403 2016 2816 1498 2816 
C 845 2816 211 2228 211 1376 
C 211 529 806 -64 1434 -64 
C 1978 -64 2259 361 2291 406 
L 2291 -64 
L 3066 -13 
L 3066 154 
C 2688 154 2630 193 2630 503 
L 2630 4416 
L 1869 4345 
z
M 2291 762 
C 2291 568 2176 393 2029 264 
C 1811 70 1594 38 1472 38 
C 1286 38 621 135 621 1369 
C 621 2636 1363 2713 1530 2713 
C 1824 2713 2061 2545 2208 2313 
C 2291 2177 2291 2157 2291 2041 
L 2291 762 
z
" transform="scale(0.015625)"/>
       <path id="CMR17-69" d="M 992 3961 
C 992 4102 877 4224 730 4224 
C 589 4224 467 4108 467 3961 
C 467 3820 582 3699 730 3699 
C 870 3699 992 3814 992 3961 
z
M 243 2745 
L 243 2579 
C 602 2579 653 2540 653 2231 
L 653 443 
C 653 198 627 166 218 166 
L 218 0 
C 371 12 646 12 806 12 
C 960 12 1222 12 1370 0 
L 1370 166 
C 992 166 979 205 979 436 
L 979 2816 
L 243 2745 
z
" transform="scale(0.015625)"/>
       <path id="CMR17-6d" d="M 4326 1954 
C 4326 2276 4269 2816 3507 2816 
C 3072 2816 2771 2520 2656 2173 
L 2650 2173 
C 2573 2700 2195 2816 1837 2816 
C 1331 2816 1069 2424 973 2166 
L 966 2166 
L 966 2816 
L 211 2745 
L 211 2578 
C 589 2578 646 2540 646 2231 
L 646 443 
C 646 198 621 166 211 166 
L 211 0 
C 365 12 646 12 813 12 
C 979 12 1267 12 1421 0 
L 1421 166 
C 1011 166 986 192 986 443 
L 986 1678 
C 986 2269 1344 2713 1792 2713 
C 2266 2713 2317 2289 2317 1980 
L 2317 443 
C 2317 198 2291 166 1882 166 
L 1882 0 
C 2035 12 2317 12 2483 12 
C 2650 12 2938 12 3091 0 
L 3091 166 
C 2682 166 2656 192 2656 443 
L 2656 1678 
C 2656 2269 3014 2713 3462 2713 
C 3936 2713 3987 2289 3987 1980 
L 3987 443 
C 3987 198 3962 166 3552 166 
L 3552 0 
C 3706 12 3987 12 4154 12 
C 4320 12 4608 12 4762 0 
L 4762 166 
C 4352 166 4326 192 4326 443 
L 4326 1954 
z
" transform="scale(0.015625)"/>
       <path id="CMR17-74" d="M 966 2585 
L 1862 2585 
L 1862 2752 
L 966 2752 
L 966 3968 
L 851 3968 
C 838 3292 614 2700 70 2687 
L 70 2585 
L 627 2585 
L 627 778 
C 627 655 627 -64 1370 -64 
C 1747 -64 1965 308 1965 784 
L 1965 1151 
L 1850 1151 
L 1850 790 
C 1850 347 1677 51 1408 51 
C 1222 51 966 179 966 765 
L 966 2585 
z
" transform="scale(0.015625)"/>
       <path id="CMR17-53" d="M 2803 4351 
C 2803 4467 2797 4473 2758 4473 
C 2720 4473 2707 4447 2682 4390 
L 2490 3965 
C 2246 4320 1875 4480 1472 4480 
C 819 4480 294 3958 294 3301 
C 294 3101 339 2817 557 2546 
C 794 2250 1018 2198 1530 2063 
C 1722 2011 2042 1927 2106 1901 
C 2470 1747 2662 1360 2662 999 
C 2662 534 2336 38 1779 38 
C 1094 38 454 425 410 1328 
C 403 1431 397 1437 352 1437 
C 301 1437 294 1431 294 1302 
L 294 0 
C 294 -116 301 -122 339 -122 
C 384 -122 397 -90 486 109 
C 493 128 493 141 614 386 
C 934 -39 1472 -128 1779 -128 
C 2477 -128 2970 457 2970 1141 
C 2970 1476 2848 1734 2778 1850 
C 2509 2263 2221 2340 1914 2417 
C 1869 2437 1856 2437 1498 2527 
C 1152 2617 1005 2662 845 2836 
C 666 3036 602 3243 602 3449 
C 602 3868 934 4326 1478 4326 
C 2157 4326 2579 3842 2675 3036 
C 2694 2920 2701 2914 2746 2914 
C 2803 2914 2803 2933 2803 3043 
L 2803 4351 
z
" transform="scale(0.015625)"/>
       <path id="CMR17-50" d="M 1267 2048 
L 2291 2048 
C 3117 2048 3718 2583 3718 3187 
C 3718 3791 3130 4352 2291 4352 
L 333 4352 
L 333 4185 
C 774 4185 845 4185 845 3899 
L 845 453 
C 845 166 774 166 333 166 
L 333 0 
C 518 12 858 12 1056 12 
C 1254 12 1594 12 1779 0 
L 1779 166 
C 1338 166 1267 166 1267 453 
L 1267 2048 
z
M 1254 2182 
L 1254 3937 
C 1254 4153 1267 4185 1523 4185 
L 2170 4185 
C 2995 4185 3232 3715 3232 3187 
C 3232 2608 2950 2182 2170 2182 
L 1254 2182 
z
" transform="scale(0.015625)"/>
      </defs>
      <use xlink:href="#CMR17-72" transform="scale(0.996264)"/>
      <use xlink:href="#CMR17-65" transform="translate(35.280768 0) scale(0.996264)"/>
      <use xlink:href="#CMR17-6e" transform="translate(75.766428 0) scale(0.996264)"/>
      <use xlink:href="#CMR17-64" transform="translate(126.661798 0) scale(0.996264)"/>
      <use xlink:href="#CMR17-69" transform="translate(177.557168 0) scale(0.996264)"/>
      <use xlink:href="#CMR17-6d" transform="translate(202.428226 0) scale(0.996264)"/>
      <use xlink:href="#CMR17-65" transform="translate(279.347816 0) scale(0.996264)"/>
      <use xlink:href="#CMR17-6e" transform="translate(319.833477 0) scale(0.996264)"/>
      <use xlink:href="#CMR17-74" transform="translate(368.126392 0) scale(0.996264)"/>
      <use xlink:href="#CMR17-69" transform="translate(403.40716 0) scale(0.996264)"/>
      <use xlink:href="#CMR17-53" transform="translate(458.354185 0) scale(0.996264)"/>
      <use xlink:href="#CMR17-50" transform="translate(509.249555 0) scale(0.996264)"/>
      <use xlink:href="#CMR17-35" transform="translate(601.911822 0) scale(0.996264)"/>
      <use xlink:href="#CMR17-30" transform="translate(647.602299 0) scale(0.996264)"/>
      <use xlink:href="#CMR17-30" transform="translate(693.292776 0) scale(0.996264)"/>
     </g>
    </g>
    <g id="line2d_134">
     <path d="M 48.296314 302.5162 
L 60.296314 302.5162 
L 72.296314 302.5162 
" style="fill: none; stroke: #0000ff; stroke-linecap: square"/>
    </g>
    <g id="text_16">
     <!-- forecast Engle-Gragner -->
     <g transform="translate(81.896314 306.7162) scale(0.12 -0.12)">
      <defs>
       <path id="CMR17-66" d="M 979 2585 
L 1709 2585 
L 1709 2752 
L 966 2752 
L 966 3539 
C 966 4076 1235 4377 1510 4377 
C 1594 4377 1690 4363 1754 4339 
C 1702 4326 1568 4281 1568 4121 
C 1568 3955 1696 3904 1786 3904 
C 1875 3904 2003 3955 2003 4121 
C 2003 4353 1773 4480 1517 4480 
C 1152 4480 653 4211 653 3526 
L 653 2752 
L 141 2752 
L 141 2585 
L 653 2585 
L 653 441 
C 653 198 627 166 218 166 
L 218 0 
C 371 12 666 12 832 12 
C 1018 12 1344 12 1517 0 
L 1517 166 
C 1056 166 979 166 979 454 
L 979 2585 
z
" transform="scale(0.015625)"/>
       <path id="CMR17-6f" d="M 2758 1356 
C 2758 2176 2163 2816 1466 2816 
C 768 2816 173 2176 173 1356 
C 173 550 768 -64 1466 -64 
C 2163 -64 2758 550 2758 1356 
z
M 1466 51 
C 1165 51 909 230 762 480 
C 602 768 582 1126 582 1408 
C 582 1676 595 2009 762 2297 
C 890 2508 1139 2713 1466 2713 
C 1754 2713 1997 2553 2150 2329 
C 2349 2028 2349 1606 2349 1408 
C 2349 1158 2336 774 2163 467 
C 1984 172 1709 51 1466 51 
z
" transform="scale(0.015625)"/>
       <path id="CMR17-63" d="M 2234 2240 
C 2112 2240 1933 2240 1933 2015 
C 1933 1836 2080 1785 2163 1785 
C 2208 1785 2394 1804 2394 2028 
C 2394 2476 1958 2816 1466 2816 
C 787 2816 211 2201 211 1379 
C 211 521 813 -64 1466 -64 
C 2259 -64 2458 676 2458 747 
C 2458 773 2451 792 2406 792 
C 2362 792 2355 786 2330 702 
C 2163 180 1798 51 1523 51 
C 1114 51 621 431 621 1385 
C 621 2358 1094 2700 1472 2700 
C 1722 2700 2093 2582 2234 2240 
z
" transform="scale(0.015625)"/>
       <path id="CMR17-61" d="M 2304 1656 
C 2304 2048 2304 2275 2035 2534 
C 1798 2751 1523 2816 1306 2816 
C 800 2816 435 2408 435 1977 
C 435 1740 627 1728 666 1728 
C 749 1728 896 1779 896 1958 
C 896 2118 774 2188 666 2188 
C 640 2188 608 2182 589 2176 
C 723 2594 1069 2713 1293 2713 
C 1613 2713 1965 2421 1965 1875 
L 1965 1632 
C 1587 1619 1133 1568 774 1373 
C 371 1147 256 822 256 576 
C 256 77 832 -64 1171 -64 
C 1523 -64 1850 135 1990 505 
C 2003 219 2182 -39 2464 -39 
C 2598 -39 2938 51 2938 563 
L 2938 926 
L 2822 926 
L 2822 557 
C 2822 161 2650 109 2566 109 
C 2304 109 2304 446 2304 732 
L 2304 1656 
z
M 1965 887 
C 1965 323 1568 38 1216 38 
C 896 38 646 278 646 576 
C 646 771 730 1114 1101 1322 
C 1408 1497 1760 1523 1965 1536 
L 1965 887 
z
" transform="scale(0.015625)"/>
       <path id="CMR17-73" d="M 1978 2688 
C 1978 2803 1971 2809 1933 2809 
C 1907 2809 1901 2803 1824 2707 
C 1805 2681 1747 2617 1728 2592 
C 1523 2809 1235 2816 1126 2816 
C 416 2816 160 2444 160 2073 
C 160 1497 813 1363 998 1324 
C 1402 1241 1542 1216 1677 1100 
C 1760 1024 1901 883 1901 652 
C 1901 384 1747 38 1158 38 
C 602 38 403 460 288 1024 
C 269 1113 269 1120 218 1120 
C 166 1120 160 1113 160 985 
L 160 64 
C 160 -52 166 -58 205 -58 
C 237 -58 243 -52 275 0 
C 314 57 410 211 448 275 
C 576 102 800 -64 1158 -64 
C 1792 -64 2131 281 2131 780 
C 2131 1107 1958 1280 1875 1356 
C 1683 1555 1459 1600 1190 1651 
C 838 1728 390 1817 390 2208 
C 390 2374 480 2726 1126 2726 
C 1811 2726 1850 2086 1862 1881 
C 1869 1849 1901 1843 1920 1843 
C 1978 1843 1978 1862 1978 1971 
L 1978 2688 
z
" transform="scale(0.015625)"/>
       <path id="CMR17-45" d="M 3885 1614 
L 3770 1614 
C 3629 676 3546 166 2419 166 
L 1530 166 
C 1274 166 1261 198 1261 415 
L 1261 2176 
L 1862 2176 
C 2464 2176 2522 1959 2522 1429 
L 2637 1429 
L 2637 3086 
L 2522 3086 
C 2522 2558 2464 2342 1862 2342 
L 1261 2342 
L 1261 3924 
C 1261 4141 1274 4172 1530 4172 
L 2406 4172 
C 3398 4172 3514 3778 3603 2933 
L 3718 2933 
L 3565 4339 
L 326 4339 
L 326 4172 
C 768 4172 838 4172 838 3886 
L 838 453 
C 838 166 768 166 326 166 
L 326 0 
L 3654 0 
L 3885 1614 
z
" transform="scale(0.015625)"/>
       <path id="CMR17-67" d="M 710 1165 
C 832 1068 1043 960 1299 960 
C 1805 960 2240 1359 2240 1895 
C 2240 2063 2189 2321 1997 2521 
C 2176 2713 2438 2777 2586 2777 
C 2611 2777 2650 2777 2682 2758 
C 2656 2751 2598 2726 2598 2623 
C 2598 2540 2656 2483 2739 2483 
C 2835 2483 2886 2547 2886 2630 
C 2886 2751 2790 2880 2586 2880 
C 2330 2880 2106 2758 1926 2591 
C 1734 2764 1504 2828 1299 2828 
C 794 2828 358 2431 358 1895 
C 358 1527 570 1294 634 1230 
C 442 1004 442 742 442 710 
C 442 544 506 300 723 166 
C 390 82 128 -184 128 -517 
C 128 -996 736 -1344 1466 -1344 
C 2170 -1344 2803 -1009 2803 -510 
C 2803 384 1856 384 1363 384 
C 1216 384 954 384 922 390 
C 723 422 589 601 589 825 
C 589 883 589 1024 710 1165 
z
M 1299 1068 
C 736 1068 736 1766 736 1895 
C 736 2024 736 2719 1299 2719 
C 1862 2719 1862 2024 1862 1895 
C 1862 1766 1862 1068 1299 1068 
z
M 1466 -1236 
C 826 -1236 384 -883 384 -517 
C 384 -311 493 -118 634 -11 
C 794 102 858 102 1293 102 
C 1818 102 2547 102 2547 -517 
C 2547 -883 2106 -1236 1466 -1236 
z
" transform="scale(0.015625)"/>
       <path id="CMR17-6c" d="M 979 4416 
L 218 4345 
L 218 4179 
C 595 4179 653 4141 653 3835 
L 653 439 
C 653 198 627 166 218 166 
L 218 0 
C 371 12 653 12 813 12 
C 979 12 1261 12 1414 0 
L 1414 166 
C 1005 166 979 191 979 439 
L 979 4416 
z
" transform="scale(0.015625)"/>
       <path id="CMR17-2d" d="M 1632 1254 
L 1632 1536 
L 26 1536 
L 26 1254 
L 1632 1254 
z
" transform="scale(0.015625)"/>
       <path id="CMR17-47" d="M 3974 1258 
C 3974 1503 3994 1536 4390 1536 
L 4390 1702 
C 4237 1689 3891 1689 3718 1689 
C 3539 1689 3040 1696 2797 1702 
L 2797 1536 
L 2989 1536 
C 3539 1536 3552 1464 3552 1232 
L 3552 806 
C 3552 96 2720 38 2522 38 
C 1862 38 781 496 781 2179 
C 781 3862 1843 4313 2464 4313 
C 3187 4313 3712 3681 3834 2785 
C 3846 2708 3846 2695 3904 2695 
C 3974 2695 3974 2708 3974 2824 
L 3974 4351 
C 3974 4467 3968 4473 3930 4473 
C 3904 4473 3898 4467 3853 4390 
L 3571 3849 
C 3258 4249 2874 4480 2381 4480 
C 1286 4480 294 3507 294 2179 
C 294 858 1267 -128 2394 -128 
C 2912 -128 3418 57 3616 425 
C 3725 161 3904 -20 3936 -20 
C 3968 -20 3974 -13 3974 102 
L 3974 1258 
z
" transform="scale(0.015625)"/>
      </defs>
      <use xlink:href="#CMR17-66" transform="scale(0.996264)"/>
      <use xlink:href="#CMR17-6f" transform="translate(27.473512 0) scale(0.996264)"/>
      <use xlink:href="#CMR17-72" transform="translate(73.16399 0) scale(0.996264)"/>
      <use xlink:href="#CMR17-65" transform="translate(108.444757 0) scale(0.996264)"/>
      <use xlink:href="#CMR17-63" transform="translate(148.930418 0) scale(0.996264)"/>
      <use xlink:href="#CMR17-61" transform="translate(189.416078 0) scale(0.996264)"/>
      <use xlink:href="#CMR17-73" transform="translate(235.106555 0) scale(0.996264)"/>
      <use xlink:href="#CMR17-74" transform="translate(270.907893 0) scale(0.996264)"/>
      <use xlink:href="#CMR17-45" transform="translate(336.264627 0) scale(0.996264)"/>
      <use xlink:href="#CMR17-6e" transform="translate(398.850928 0) scale(0.996264)"/>
      <use xlink:href="#CMR17-67" transform="translate(449.746297 0) scale(0.996264)"/>
      <use xlink:href="#CMR17-6c" transform="translate(495.436775 0) scale(0.996264)"/>
      <use xlink:href="#CMR17-65" transform="translate(520.307833 0) scale(0.996264)"/>
      <use xlink:href="#CMR17-2d" transform="translate(560.793494 0) scale(0.996264)"/>
      <use xlink:href="#CMR17-47" transform="translate(590.86946 0) scale(0.996264)"/>
      <use xlink:href="#CMR17-72" transform="translate(663.224806 0) scale(0.996264)"/>
      <use xlink:href="#CMR17-61" transform="translate(698.505574 0) scale(0.996264)"/>
      <use xlink:href="#CMR17-67" transform="translate(744.196051 0) scale(0.996264)"/>
      <use xlink:href="#CMR17-6e" transform="translate(789.886528 0) scale(0.996264)"/>
      <use xlink:href="#CMR17-65" transform="translate(840.781898 0) scale(0.996264)"/>
      <use xlink:href="#CMR17-72" transform="translate(881.267558 0) scale(0.996264)"/>
     </g>
    </g>
    <g id="patch_7">
     <path d="M 48.296314 323.440796 
L 72.296314 323.440796 
L 72.296314 315.040796 
L 48.296314 315.040796 
z
" style="fill: #808080; fill-opacity: 0.3; stroke: #808080; stroke-opacity: 0.3; stroke-linejoin: miter"/>
    </g>
    <g id="text_17">
     <!-- 99 perc. CI -->
     <g transform="translate(81.896314 323.440796) scale(0.12 -0.12)">
      <defs>
       <path id="CMR17-39" d="M 2253 1871 
C 2253 448 1670 25 1190 25 
C 1043 25 685 43 538 281 
C 704 256 826 345 826 505 
C 826 678 685 736 595 736 
C 538 736 365 710 365 492 
C 365 68 742 -128 1203 -128 
C 1939 -128 2688 665 2688 2090 
C 2688 3857 1971 4224 1485 4224 
C 851 4224 243 3664 243 2800 
C 243 2000 762 1408 1414 1408 
C 1952 1408 2189 1910 2253 2122 
L 2253 1871 
z
M 1427 1510 
C 1254 1510 1011 1542 813 1929 
C 678 2181 678 2477 678 2793 
C 678 3174 678 3438 858 3722 
C 947 3857 1114 4076 1485 4076 
C 2240 4076 2240 2909 2240 2651 
C 2240 2193 2035 1510 1427 1510 
z
" transform="scale(0.015625)"/>
       <path id="CMR17-70" d="M 1408 -1114 
C 998 -1114 973 -1088 973 -834 
L 973 380 
C 1158 109 1427 -64 1766 -64 
C 2406 -64 3053 503 3053 1382 
C 3053 2196 2496 2816 1837 2816 
C 1453 2816 1139 2603 960 2345 
L 960 2816 
L 198 2745 
L 198 2577 
C 576 2577 634 2539 634 2228 
L 634 -834 
C 634 -1081 608 -1114 198 -1114 
L 198 -1280 
C 352 -1268 634 -1268 800 -1268 
C 966 -1268 1254 -1268 1408 -1280 
L 1408 -1114 
z
M 973 2015 
C 973 2106 973 2241 1222 2481 
C 1254 2506 1472 2700 1792 2700 
C 2259 2700 2643 2112 2643 1376 
C 2643 639 2234 38 1728 38 
C 1498 38 1248 148 1056 451 
C 973 594 973 632 973 736 
L 973 2015 
z
" transform="scale(0.015625)"/>
       <path id="CMR17-2e" d="M 1062 262 
C 1062 422 934 524 800 524 
C 672 524 538 422 538 262 
C 538 102 666 0 800 0 
C 928 0 1062 102 1062 262 
z
" transform="scale(0.015625)"/>
       <path id="CMR17-43" d="M 3974 4351 
C 3974 4467 3968 4473 3930 4473 
C 3904 4473 3898 4467 3853 4390 
L 3571 3849 
C 3258 4249 2874 4480 2381 4480 
C 1286 4480 294 3507 294 2179 
C 294 837 1286 -128 2387 -128 
C 3366 -128 3974 741 3974 1482 
C 3974 1547 3974 1573 3917 1573 
C 3866 1573 3866 1553 3859 1495 
C 3808 592 3168 38 2477 38 
C 1824 38 781 502 781 2179 
C 781 3862 1843 4313 2464 4313 
C 3187 4313 3712 3681 3834 2785 
C 3846 2707 3846 2695 3904 2695 
C 3974 2695 3974 2707 3974 2824 
L 3974 4351 
z
" transform="scale(0.015625)"/>
       <path id="CMR17-49" d="M 1261 3898 
C 1261 4185 1338 4185 1798 4185 
L 1798 4352 
C 1594 4339 1267 4339 1050 4339 
C 832 4339 506 4339 301 4352 
L 301 4185 
C 762 4185 838 4185 838 3898 
L 838 453 
C 838 166 762 166 301 166 
L 301 0 
C 506 12 832 12 1050 12 
C 1267 12 1594 12 1798 0 
L 1798 166 
C 1338 166 1261 166 1261 453 
L 1261 3898 
z
" transform="scale(0.015625)"/>
      </defs>
      <use xlink:href="#CMR17-39" transform="scale(0.996264)"/>
      <use xlink:href="#CMR17-39" transform="translate(45.690477 0) scale(0.996264)"/>
      <use xlink:href="#CMR17-70" transform="translate(121.456921 0) scale(0.996264)"/>
      <use xlink:href="#CMR17-65" transform="translate(174.954729 0) scale(0.996264)"/>
      <use xlink:href="#CMR17-72" transform="translate(215.44039 0) scale(0.996264)"/>
      <use xlink:href="#CMR17-63" transform="translate(250.721157 0) scale(0.996264)"/>
      <use xlink:href="#CMR17-2e" transform="translate(291.206818 0) scale(0.996264)"/>
      <use xlink:href="#CMR17-43" transform="translate(356.563537 0) scale(0.996264)"/>
      <use xlink:href="#CMR17-49" transform="translate(423.073417 0) scale(0.996264)"/>
     </g>
    </g>
   </g>
  </g>
 </g>
 <defs>
  <clipPath id="pe8568b8c84">
   <rect x="37.496314" y="3.925392" width="558" height="332.64"/>
  </clipPath>
 </defs>
</svg>
