<?xml version="1.0" encoding="utf-8" standalone="no"?>
<!DOCTYPE svg PUBLIC "-//W3C//DTD SVG 1.1//EN"
  "http://www.w3.org/Graphics/SVG/1.1/DTD/svg11.dtd">
<svg xmlns:xlink="http://www.w3.org/1999/xlink" width="599.096314pt" height="359.281364pt" viewBox="0 0 599.096314 359.281364" xmlns="http://www.w3.org/2000/svg" version="1.1">
 <metadata>
  <rdf:RDF xmlns:dc="http://purl.org/dc/elements/1.1/" xmlns:cc="http://creativecommons.org/ns#" xmlns:rdf="http://www.w3.org/1999/02/22-rdf-syntax-ns#">
   <cc:Work>
    <dc:type rdf:resource="http://purl.org/dc/dcmitype/StillImage"/>
    <dc:date>2025-04-07T19:47:27.385475</dc:date>
    <dc:format>image/svg+xml</dc:format>
    <dc:creator>
     <cc:Agent>
      <dc:title>Matplotlib v3.9.2, https://matplotlib.org/</dc:title>
     </cc:Agent>
    </dc:creator>
   </cc:Work>
  </rdf:RDF>
 </metadata>
 <defs>
  <style type="text/css">*{stroke-linejoin: round; stroke-linecap: butt}</style>
 </defs>
 <g id="figure_1">
  <g id="patch_1">
   <path d="M 0 359.281364 
L 599.096314 359.281364 
L 599.096314 0 
L 0 0 
z
" style="fill: #ffffff"/>
  </g>
  <g id="axes_1">
   <g id="patch_2">
    <path d="M 37.496314 336.24 
L 595.496314 336.24 
L 595.496314 3.6 
L 37.496314 3.6 
z
" style="fill: #ffffff"/>
   </g>
   <g id="PolyCollection_1">
    <defs>
     <path id="me1f2606c1e" d="M 62.85995 -282.040958 
L 62.85995 -137.949001 
L 64.74527 -131.986043 
L 66.569773 -120.49396 
L 68.455093 -127.745823 
L 70.279597 -140.476776 
L 72.164917 -129.287472 
L 74.050237 -126.43624 
L 75.87474 -132.470782 
L 77.76006 -109.56128 
L 79.584563 -141.741312 
L 81.469883 -138.787228 
L 83.355203 -122.472788 
L 85.058073 -133.236777 
L 86.943393 -128.893049 
L 88.767896 -133.787521 
L 90.653216 -128.541135 
L 92.47772 -129.775596 
L 94.36304 -127.803939 
L 96.24836 -119.096685 
L 98.072863 -148.958856 
L 99.958183 -137.534667 
L 101.782686 -129.395526 
L 103.668006 -143.79633 
L 105.553327 -131.864882 
L 107.256196 -134.927285 
L 109.141516 -127.018512 
L 110.96602 -141.97364 
L 112.85134 -143.502816 
L 114.675843 -159.642242 
L 116.561163 -156.929345 
L 118.446483 -118.83565 
L 120.270986 -125.193407 
L 122.156306 -149.720752 
L 123.98081 -140.557609 
L 125.86613 -144.106246 
L 127.75145 -149.478264 
L 129.515136 -155.551583 
L 131.400456 -141.40716 
L 133.22496 -142.209299 
L 135.11028 -130.137501 
L 136.934783 -126.114616 
L 138.820103 -147.923426 
L 140.705423 -139.579559 
L 142.529926 -142.767809 
L 144.415246 -150.010711 
L 146.23975 -139.648184 
L 148.12507 -147.39466 
L 150.01039 -142.074268 
L 151.713259 -135.395628 
L 153.598579 -145.236043 
L 155.423083 -131.009398 
L 157.308403 -138.38652 
L 159.132906 -149.343402 
L 161.018226 -148.156589 
L 162.903546 -139.117829 
L 164.728049 -138.808165 
L 166.613369 -142.840147 
L 168.437873 -129.204176 
L 170.323193 -148.885001 
L 172.208513 -145.268342 
L 173.911383 -144.366628 
L 175.796703 -137.036925 
L 177.621206 -141.017917 
L 179.506526 -136.650149 
L 181.331029 -136.263112 
L 183.216349 -135.274745 
L 185.101669 -144.041365 
L 186.926173 -150.321595 
L 188.811493 -149.375626 
L 190.635996 -148.114737 
L 192.521316 -146.674093 
L 194.406636 -145.95486 
L 196.109506 -137.763901 
L 197.994826 -144.793601 
L 199.819329 -138.378559 
L 201.704649 -148.452236 
L 203.529152 -144.830735 
L 205.414472 -133.106581 
L 207.299792 -143.937331 
L 209.124296 -135.973619 
L 211.009616 -150.941191 
L 212.834119 -143.489351 
L 214.719439 -132.726111 
L 216.604759 -142.603228 
L 218.368446 -129.215625 
L 220.253766 -137.372848 
L 222.078269 -138.699239 
L 223.963589 -139.294502 
L 225.788092 -134.791065 
L 227.673412 -120.004976 
L 229.558732 -125.469975 
L 231.383236 -142.944065 
L 233.268556 -130.982093 
L 235.093059 -70.30261 
L 236.978379 -110.876412 
L 238.863699 -143.430989 
L 240.566569 -83.717036 
L 242.451889 -108.981908 
L 244.276392 -98.58986 
L 246.161712 -124.361662 
L 247.986216 -113.221488 
L 249.871536 -155.634932 
L 251.756856 -139.585556 
L 253.581359 -148.868287 
L 255.466679 -153.333481 
L 257.291182 -176.407232 
L 259.176502 -183.326145 
L 261.061822 -196.469596 
L 262.764692 -145.344889 
L 264.650012 -137.054162 
L 266.474515 -154.535669 
L 268.359835 -144.287083 
L 270.184339 -138.459523 
L 272.069659 -138.507263 
L 273.954979 -146.136763 
L 275.779482 -151.331916 
L 277.664802 -146.189482 
L 279.489305 -153.184604 
L 281.374625 -135.516058 
L 283.259946 -134.925885 
L 284.962815 -150.054765 
L 286.848135 -142.344047 
L 288.672639 -143.216366 
L 290.557959 -143.309557 
L 292.382462 -149.606691 
L 294.267782 -134.232427 
L 296.153102 -148.101027 
L 297.977605 -139.150868 
L 299.862925 -148.661625 
L 301.687429 -135.810089 
L 303.572749 -151.863928 
L 305.458069 -142.627016 
L 307.221755 -150.637252 
L 309.107075 -147.581191 
L 310.931579 -136.984414 
L 312.816899 -146.968829 
L 314.641402 -142.965631 
L 316.526722 -144.775036 
L 318.412042 -149.473549 
L 320.236545 -137.189683 
L 322.121865 -145.643659 
L 323.946369 -137.633317 
L 325.831689 -139.475861 
L 327.717009 -142.00868 
L 329.419878 -141.213052 
L 331.305198 -142.92725 
L 333.129702 -146.817221 
L 335.015022 -150.814257 
L 336.839525 -139.853003 
L 338.724845 -123.829667 
L 340.610165 -143.865268 
L 342.434668 -137.675145 
L 344.319988 -142.610592 
L 346.144492 -151.021434 
L 348.029812 -143.364179 
L 349.915132 -138.260475 
L 351.618002 -144.452769 
L 353.503322 -143.274168 
L 355.327825 -144.46188 
L 357.213145 -139.847125 
L 359.037648 -148.108116 
L 360.922968 -143.841513 
L 362.808288 -144.430581 
L 364.632792 -142.087684 
L 366.518112 -139.900713 
L 368.342615 -141.979475 
L 370.227935 -149.317449 
L 372.113255 -142.919813 
L 373.816125 -148.691675 
L 375.701445 -137.218522 
L 377.525948 -137.265407 
L 379.411268 -146.284943 
L 381.235771 -128.879601 
L 383.121091 -135.438152 
L 385.006411 -142.502691 
L 386.830915 -138.680301 
L 388.716235 -128.274577 
L 390.540738 -154.361647 
L 392.426058 -134.671358 
L 394.311378 -137.830223 
L 396.075065 -130.667745 
L 397.960385 -153.100961 
L 399.784888 -144.813599 
L 401.670208 -147.277524 
L 403.494711 -136.562171 
L 405.380031 -150.142866 
L 407.265351 -151.742748 
L 409.089855 -135.831377 
L 410.975175 -135.673859 
L 412.799678 -134.296991 
L 414.684998 -129.260871 
L 416.570318 -140.917108 
L 418.273188 -146.829292 
L 420.158508 -145.095171 
L 421.983011 -141.01016 
L 423.868331 -145.515333 
L 425.692835 -142.394685 
L 427.578155 -147.197941 
L 429.463475 -136.009331 
L 431.287978 -145.495517 
L 433.173298 -143.148484 
L 434.997801 -139.911636 
L 436.883121 -144.283038 
L 438.768441 -144.000943 
L 440.471311 -144.375214 
L 442.356631 -125.249972 
L 444.181134 -145.300268 
L 446.066454 -136.253441 
L 447.890958 -143.629618 
L 449.776278 -147.131545 
L 451.661598 -143.570169 
L 453.486101 -145.585267 
L 455.371421 -140.786728 
L 457.195924 -128.354158 
L 459.081244 -140.062924 
L 460.966565 -136.782579 
L 462.669434 -149.218961 
L 464.554754 -152.578756 
L 466.379258 -145.235123 
L 468.264578 -148.238782 
L 470.089081 -139.307496 
L 471.974401 -155.735551 
L 473.859721 -163.774102 
L 475.684224 -126.489279 
L 477.569544 -145.79837 
L 479.394048 -140.071814 
L 481.279368 -146.904682 
L 483.164688 -143.55261 
L 484.928374 -149.032409 
L 486.813694 -146.672544 
L 488.638198 -119.847165 
L 490.523518 -167.151705 
L 492.348021 -141.880492 
L 494.233341 -141.511575 
L 496.118661 -154.381868 
L 497.943164 -144.174276 
L 499.828484 -131.840085 
L 501.652988 -132.342367 
L 503.538308 -140.83863 
L 505.423628 -141.61719 
L 507.126497 -137.4532 
L 509.011817 -139.605339 
L 510.836321 -130.150459 
L 512.721641 -158.330895 
L 514.546144 -142.431222 
L 516.431464 -150.146263 
L 518.316784 -155.151361 
L 520.141287 -144.491928 
L 522.026607 -135.829049 
L 523.851111 -135.697283 
L 525.736431 -155.244577 
L 527.621751 -143.849572 
L 529.324621 -124.906645 
L 531.209941 -132.844612 
L 533.034444 -135.937414 
L 534.919764 -127.336892 
L 536.744267 -122.851413 
L 538.629587 -132.734429 
L 540.514907 -149.270389 
L 542.339411 -152.053651 
L 544.224731 -107.483614 
L 546.049234 -131.890262 
L 547.934554 -155.669563 
L 549.819874 -140.024924 
L 551.522744 -143.079721 
L 553.408064 -141.622108 
L 555.232567 -135.654306 
L 557.117887 -153.395417 
L 558.94239 -136.730837 
L 560.82771 -147.706404 
L 562.71303 -144.052167 
L 564.537534 -132.279186 
L 566.422854 -136.671054 
L 568.247357 -129.430538 
L 570.132677 -157.640163 
L 570.132677 -299.714693 
L 570.132677 -299.714693 
L 568.247357 -271.46542 
L 566.422854 -278.727225 
L 564.537534 -274.383323 
L 562.71303 -286.193613 
L 560.82771 -289.879957 
L 558.94239 -278.884437 
L 557.117887 -295.591127 
L 555.232567 -277.850062 
L 553.408064 -283.835395 
L 551.522744 -285.326602 
L 549.819874 -282.317813 
L 547.934554 -297.99282 
L 546.049234 -274.165455 
L 544.224731 -249.805727 
L 542.339411 -294.156521 
L 540.514907 -291.360059 
L 538.629587 -274.869619 
L 536.744267 -265.028332 
L 534.919764 -269.425713 
L 533.034444 -278.074746 
L 531.209941 -275.030294 
L 529.324621 -267.13596 
L 527.621751 -286.101544 
L 525.736431 -297.53167 
L 523.851111 -277.965404 
L 522.026607 -278.145011 
L 520.141287 -286.853439 
L 518.316784 -297.56175 
L 516.431464 -292.601162 
L 514.546144 -284.932125 
L 512.721641 -300.868488 
L 510.836321 -272.606785 
L 509.011817 -282.110706 
L 507.126497 -279.992076 
L 505.423628 -284.192913 
L 503.538308 -283.426047 
L 501.652988 -274.921507 
L 499.828484 -274.452794 
L 497.943164 -286.828963 
L 496.118661 -297.054109 
L 494.233341 -284.211429 
L 492.348021 -284.541323 
L 490.523518 -309.855716 
L 488.638198 -262.49627 
L 486.813694 -287.908277 
L 484.928374 -290.311275 
L 483.164688 -284.862897 
L 481.279368 -288.260445 
L 479.394048 -281.430031 
L 477.569544 -287.202027 
L 475.684224 -267.884501 
L 473.859721 -305.086072 
L 471.974401 -297.092179 
L 470.089081 -280.710052 
L 468.264578 -289.66314 
L 466.379258 -286.689259 
L 464.554754 -294.082569 
L 462.669434 -290.723489 
L 460.966565 -278.327758 
L 459.081244 -281.54379 
L 457.195924 -269.88226 
L 455.371421 -282.305398 
L 453.486101 -287.153138 
L 451.661598 -285.180816 
L 449.776278 -288.792213 
L 447.890958 -285.336096 
L 446.066454 -277.997565 
L 444.181134 -287.071079 
L 442.356631 -267.063207 
L 440.471311 -286.192183 
L 438.768441 -285.824118 
L 436.883121 -286.146229 
L 434.997801 -281.821228 
L 433.173298 -285.098181 
L 431.287978 -287.495172 
L 429.463475 -278.059324 
L 427.578155 -289.298195 
L 425.692835 -284.542694 
L 423.868331 -287.713469 
L 421.983011 -283.257572 
L 420.158508 -287.392486 
L 418.273188 -289.173503 
L 416.570318 -283.310326 
L 414.684998 -271.634932 
L 412.799678 -276.715481 
L 410.975175 -278.143067 
L 409.089855 -278.351478 
L 407.265351 -294.311981 
L 405.380031 -292.757421 
L 403.494711 -279.224902 
L 401.670208 -289.982186 
L 399.784888 -287.56158 
L 397.960385 -295.85395 
L 396.075065 -273.47222 
L 394.311378 -280.542444 
L 392.426058 -277.432894 
L 390.540738 -297.174275 
L 388.716235 -271.052578 
L 386.830915 -281.434922 
L 385.006411 -285.275971 
L 383.121091 -278.263328 
L 381.235771 -271.755775 
L 379.411268 -289.2127 
L 377.525948 -280.243423 
L 375.701445 -280.24854 
L 373.816125 -291.769856 
L 372.113255 -286.037539 
L 370.227935 -292.483478 
L 368.342615 -285.127281 
L 366.518112 -283.069332 
L 364.632792 -285.305573 
L 362.808288 -287.693439 
L 360.922968 -287.156061 
L 359.037648 -291.467623 
L 357.213145 -283.255839 
L 355.327825 -287.920462 
L 353.503322 -286.776093 
L 351.618002 -288.002375 
L 349.915132 -281.861395 
L 348.029812 -287.016979 
L 346.144492 -294.71723 
L 344.319988 -286.35474 
L 342.434668 -281.469455 
L 340.610165 -287.710477 
L 338.724845 -267.657202 
L 336.839525 -283.72504 
L 335.015022 -294.720402 
L 333.129702 -290.776431 
L 331.305198 -286.930383 
L 329.419878 -285.261772 
L 327.717009 -286.076055 
L 325.831689 -283.588212 
L 323.946369 -281.767865 
L 322.121865 -289.824065 
L 320.236545 -281.399706 
L 318.412042 -293.730258 
L 316.526722 -289.076893 
L 314.641402 -287.306696 
L 312.816899 -291.295881 
L 310.931579 -281.364942 
L 309.107075 -292.010587 
L 307.221755 -295.107007 
L 305.458069 -287.107124 
L 303.572749 -296.39666 
L 301.687429 -280.387985 
L 299.862925 -293.28934 
L 297.977605 -283.827745 
L 296.153102 -292.32665 
L 294.267782 -278.478696 
L 292.382462 -293.808674 
L 290.557959 -287.565239 
L 288.672639 -287.521679 
L 286.848135 -286.690843 
L 284.962815 -294.451498 
L 283.259946 -279.338858 
L 281.374625 -279.94107 
L 279.489305 -297.664059 
L 277.664802 -290.693969 
L 275.779482 -295.886491 
L 273.954979 -290.745017 
L 272.069659 -283.169267 
L 270.184339 -283.125815 
L 268.359835 -288.840996 
L 266.474515 -299.137618 
L 264.650012 -281.611944 
L 262.764692 -289.903213 
L 261.061822 -340.561364 
L 259.176502 -327.441367 
L 257.291182 -320.557123 
L 255.466679 -297.539184 
L 253.581359 -293.120706 
L 251.756856 -283.741373 
L 249.871536 -299.841677 
L 247.986216 -257.406962 
L 246.161712 -268.457734 
L 244.276392 -242.588632 
L 242.451889 -253.055329 
L 240.566569 -227.846134 
L 238.863699 -287.604625 
L 236.978379 -255.0597 
L 235.093059 -214.652944 
L 233.268556 -273.828398 
L 231.383236 -285.732523 
L 229.558732 -268.273316 
L 227.673412 -262.808565 
L 225.788092 -277.594127 
L 223.963589 -282.138278 
L 222.078269 -281.55031 
L 220.253766 -280.162639 
L 218.368446 -272.059664 
L 216.604759 -285.309248 
L 214.719439 -275.478046 
L 212.834119 -286.183667 
L 211.009616 -293.687693 
L 209.124296 -278.743944 
L 207.299792 -286.671333 
L 205.414472 -275.892647 
L 203.529152 -287.670434 
L 201.704649 -291.337513 
L 199.819329 -281.270366 
L 197.994826 -287.697307 
L 196.109506 -280.716744 
L 194.406636 -288.962349 
L 192.521316 -289.735517 
L 190.635996 -291.231481 
L 188.811493 -292.537418 
L 186.926173 -293.538085 
L 185.101669 -287.308939 
L 183.216349 -278.596141 
L 181.331029 -279.615377 
L 179.506526 -280.056358 
L 177.621206 -284.480506 
L 175.796703 -280.549834 
L 173.911383 -287.931882 
L 172.208513 -288.890024 
L 170.323193 -292.562805 
L 168.437873 -272.86161 
L 166.613369 -286.511544 
L 164.728049 -282.53639 
L 162.903546 -282.902982 
L 161.018226 -291.998695 
L 159.132906 -293.242136 
L 157.308403 -282.339099 
L 155.423083 -275.008606 
L 153.598579 -289.285125 
L 151.713259 -279.492017 
L 150.01039 -286.212138 
L 148.12507 -291.5857 
L 146.23975 -283.838466 
L 144.415246 -294.247802 
L 142.529926 -287.051543 
L 140.705423 -283.908819 
L 138.820103 -292.259878 
L 136.934783 -270.452908 
L 135.11028 -274.522733 
L 133.22496 -286.652754 
L 131.400456 -285.89049 
L 129.515136 -300.085278 
L 127.75145 -294.040476 
L 125.86613 -288.714961 
L 123.98081 -285.224114 
L 122.156306 -294.446217 
L 120.270986 -270.034099 
L 118.446483 -263.721643 
L 116.561163 -301.857359 
L 114.675843 -304.611653 
L 112.85134 -288.474861 
L 110.96602 -286.943223 
L 109.141516 -272.028014 
L 107.256196 -279.84923 
L 105.553327 -276.846476 
L 103.668006 -288.822007 
L 101.782686 -274.3033 
L 99.958183 -282.492939 
L 98.072863 -293.826141 
L 96.24836 -263.987059 
L 94.36304 -272.390722 
L 92.47772 -274.32654 
L 90.653216 -273.140498 
L 88.767896 -278.410527 
L 86.943393 -273.463593 
L 85.058073 -277.836074 
L 83.355203 -267.125835 
L 81.469883 -283.497729 
L 79.584563 -286.454596 
L 77.76006 -254.187423 
L 75.87474 -276.709715 
L 74.050237 -270.734217 
L 72.164917 -273.635471 
L 70.279597 -284.854842 
L 68.455093 -271.977349 
L 66.569773 -264.764351 
L 64.74527 -276.037068 
L 62.85995 -282.040958 
z
" style="stroke: #808080; stroke-opacity: 0.3"/>
    </defs>
    <g clip-path="url(#paba02ac042)">
     <use xlink:href="#me1f2606c1e" x="0" y="359.281364" style="fill: #808080; fill-opacity: 0.3; stroke: #808080; stroke-opacity: 0.3"/>
    </g>
   </g>
   <g id="matplotlib.axis_1">
    <g id="xtick_1">
     <g id="line2d_1">
      <defs>
       <path id="m8165c9696d" d="M 0 0 
L 0 -3 
" style="stroke: #000000; stroke-width: 0.5"/>
      </defs>
      <g>
       <use xlink:href="#m8165c9696d" x="125.926946" y="336.24" style="stroke: #000000; stroke-width: 0.5"/>
      </g>
     </g>
     <g id="line2d_2">
      <defs>
       <path id="m83bfdfd2b1" d="M 0 0 
L 0 3 
" style="stroke: #000000; stroke-width: 0.5"/>
      </defs>
      <g>
       <use xlink:href="#m83bfdfd2b1" x="125.926946" y="3.6" style="stroke: #000000; stroke-width: 0.5"/>
      </g>
     </g>
     <g id="text_1">
      <!-- $\mathdefault{2004}$ -->
      <g transform="translate(109.478375 352.1933) scale(0.18 -0.18)">
       <defs>
        <path id="CMR17-32" d="M 2669 990 
L 2554 990 
C 2490 537 2438 460 2413 422 
C 2381 371 1920 371 1830 371 
L 602 371 
C 832 620 1280 1073 1824 1596 
C 2214 1966 2669 2400 2669 3033 
C 2669 3788 2067 4224 1395 4224 
C 691 4224 262 3603 262 3027 
C 262 2777 448 2745 525 2745 
C 589 2745 781 2783 781 3007 
C 781 3206 614 3264 525 3264 
C 486 3264 448 3257 422 3244 
C 544 3788 915 4057 1306 4057 
C 1862 4057 2227 3616 2227 3033 
C 2227 2477 1901 1998 1536 1583 
L 262 147 
L 262 0 
L 2515 0 
L 2669 990 
z
" transform="scale(0.015625)"/>
        <path id="CMR17-30" d="M 2688 2038 
C 2688 2430 2682 3099 2413 3613 
C 2176 4063 1798 4224 1466 4224 
C 1158 4224 768 4082 525 3620 
C 269 3137 243 2539 243 2038 
C 243 1671 250 1112 448 623 
C 723 -39 1216 -128 1466 -128 
C 1760 -128 2208 -7 2470 604 
C 2662 1048 2688 1568 2688 2038 
z
M 1466 -26 
C 1056 -26 813 328 723 816 
C 653 1196 653 1749 653 2109 
C 653 2604 653 3015 736 3407 
C 858 3954 1216 4121 1466 4121 
C 1728 4121 2067 3947 2189 3420 
C 2272 3054 2278 2623 2278 2109 
C 2278 1691 2278 1176 2202 797 
C 2067 96 1690 -26 1466 -26 
z
" transform="scale(0.015625)"/>
        <path id="CMR17-34" d="M 2150 4147 
C 2150 4281 2144 4288 2029 4288 
L 128 1254 
L 128 1088 
L 1779 1088 
L 1779 460 
C 1779 230 1766 166 1318 166 
L 1197 166 
L 1197 0 
C 1402 12 1747 12 1965 12 
C 2182 12 2528 12 2733 0 
L 2733 166 
L 2611 166 
C 2163 166 2150 230 2150 460 
L 2150 1088 
L 2803 1088 
L 2803 1254 
L 2150 1254 
L 2150 4147 
z
M 1798 3723 
L 1798 1254 
L 256 1254 
L 1798 3723 
z
" transform="scale(0.015625)"/>
       </defs>
       <use xlink:href="#CMR17-32" transform="scale(0.996264)"/>
       <use xlink:href="#CMR17-30" transform="translate(45.690477 0) scale(0.996264)"/>
       <use xlink:href="#CMR17-30" transform="translate(91.380954 0) scale(0.996264)"/>
       <use xlink:href="#CMR17-34" transform="translate(137.071431 0) scale(0.996264)"/>
      </g>
     </g>
    </g>
    <g id="xtick_2">
     <g id="line2d_3">
      <g>
       <use xlink:href="#m8165c9696d" x="214.780256" y="336.24" style="stroke: #000000; stroke-width: 0.5"/>
      </g>
     </g>
     <g id="line2d_4">
      <g>
       <use xlink:href="#m83bfdfd2b1" x="214.780256" y="3.6" style="stroke: #000000; stroke-width: 0.5"/>
      </g>
     </g>
     <g id="text_2">
      <!-- $\mathdefault{2008}$ -->
      <g transform="translate(198.331684 352.1933) scale(0.18 -0.18)">
       <defs>
        <path id="CMR17-38" d="M 1741 2289 
C 2144 2494 2554 2803 2554 3298 
C 2554 3884 1990 4224 1472 4224 
C 890 4224 378 3800 378 3215 
C 378 3054 416 2777 666 2533 
C 730 2469 998 2276 1171 2154 
C 883 2006 211 1652 211 945 
C 211 282 838 -128 1459 -128 
C 2144 -128 2720 366 2720 1022 
C 2720 1607 2330 1877 2074 2051 
L 1741 2289 
z
M 902 2855 
C 851 2887 595 3086 595 3388 
C 595 3781 998 4076 1459 4076 
C 1965 4076 2336 3716 2336 3298 
C 2336 2700 1670 2359 1638 2359 
C 1632 2359 1626 2359 1574 2398 
L 902 2855 
z
M 2080 1536 
C 2176 1466 2483 1253 2483 861 
C 2483 385 2010 25 1472 25 
C 890 25 448 443 448 951 
C 448 1459 838 1884 1280 2083 
L 2080 1536 
z
" transform="scale(0.015625)"/>
       </defs>
       <use xlink:href="#CMR17-32" transform="scale(0.996264)"/>
       <use xlink:href="#CMR17-30" transform="translate(45.690477 0) scale(0.996264)"/>
       <use xlink:href="#CMR17-30" transform="translate(91.380954 0) scale(0.996264)"/>
       <use xlink:href="#CMR17-38" transform="translate(137.071431 0) scale(0.996264)"/>
      </g>
     </g>
    </g>
    <g id="xtick_3">
     <g id="line2d_5">
      <g>
       <use xlink:href="#m8165c9696d" x="303.633565" y="336.24" style="stroke: #000000; stroke-width: 0.5"/>
      </g>
     </g>
     <g id="line2d_6">
      <g>
       <use xlink:href="#m83bfdfd2b1" x="303.633565" y="3.6" style="stroke: #000000; stroke-width: 0.5"/>
      </g>
     </g>
     <g id="text_3">
      <!-- $\mathdefault{2012}$ -->
      <g transform="translate(287.184994 352.1933) scale(0.18 -0.18)">
       <defs>
        <path id="CMR17-31" d="M 1702 4083 
C 1702 4217 1696 4224 1606 4224 
C 1357 3927 979 3833 621 3820 
C 602 3820 570 3820 563 3808 
C 557 3795 557 3782 557 3648 
C 755 3648 1088 3686 1344 3839 
L 1344 467 
C 1344 243 1331 166 781 166 
L 589 166 
L 589 0 
C 896 6 1216 12 1523 12 
C 1830 12 2150 6 2458 0 
L 2458 166 
L 2266 166 
C 1715 166 1702 236 1702 467 
L 1702 4083 
z
" transform="scale(0.015625)"/>
       </defs>
       <use xlink:href="#CMR17-32" transform="scale(0.996264)"/>
       <use xlink:href="#CMR17-30" transform="translate(45.690477 0) scale(0.996264)"/>
       <use xlink:href="#CMR17-31" transform="translate(91.380954 0) scale(0.996264)"/>
       <use xlink:href="#CMR17-32" transform="translate(137.071431 0) scale(0.996264)"/>
      </g>
     </g>
    </g>
    <g id="xtick_4">
     <g id="line2d_7">
      <g>
       <use xlink:href="#m8165c9696d" x="392.486875" y="336.24" style="stroke: #000000; stroke-width: 0.5"/>
      </g>
     </g>
     <g id="line2d_8">
      <g>
       <use xlink:href="#m83bfdfd2b1" x="392.486875" y="3.6" style="stroke: #000000; stroke-width: 0.5"/>
      </g>
     </g>
     <g id="text_4">
      <!-- $\mathdefault{2016}$ -->
      <g transform="translate(376.038303 352.1933) scale(0.18 -0.18)">
       <defs>
        <path id="CMR17-36" d="M 678 2198 
C 678 3712 1395 4076 1811 4076 
C 1946 4076 2272 4049 2400 3782 
C 2298 3782 2106 3782 2106 3558 
C 2106 3385 2246 3328 2336 3328 
C 2394 3328 2566 3353 2566 3571 
C 2566 3987 2246 4224 1805 4224 
C 1043 4224 243 3411 243 2011 
C 243 257 966 -128 1478 -128 
C 2099 -128 2688 431 2688 1295 
C 2688 2101 2170 2688 1517 2688 
C 1126 2688 838 2430 678 1979 
L 678 2198 
z
M 1478 25 
C 691 25 691 1212 691 1450 
C 691 1914 909 2585 1504 2585 
C 1613 2585 1926 2585 2138 2140 
C 2253 1889 2253 1624 2253 1302 
C 2253 954 2253 696 2118 438 
C 1978 173 1773 25 1478 25 
z
" transform="scale(0.015625)"/>
       </defs>
       <use xlink:href="#CMR17-32" transform="scale(0.996264)"/>
       <use xlink:href="#CMR17-30" transform="translate(45.690477 0) scale(0.996264)"/>
       <use xlink:href="#CMR17-31" transform="translate(91.380954 0) scale(0.996264)"/>
       <use xlink:href="#CMR17-36" transform="translate(137.071431 0) scale(0.996264)"/>
      </g>
     </g>
    </g>
    <g id="xtick_5">
     <g id="line2d_9">
      <g>
       <use xlink:href="#m8165c9696d" x="481.340184" y="336.24" style="stroke: #000000; stroke-width: 0.5"/>
      </g>
     </g>
     <g id="line2d_10">
      <g>
       <use xlink:href="#m83bfdfd2b1" x="481.340184" y="3.6" style="stroke: #000000; stroke-width: 0.5"/>
      </g>
     </g>
     <g id="text_5">
      <!-- $\mathdefault{2020}$ -->
      <g transform="translate(464.891613 352.1933) scale(0.18 -0.18)">
       <use xlink:href="#CMR17-32" transform="scale(0.996264)"/>
       <use xlink:href="#CMR17-30" transform="translate(45.690477 0) scale(0.996264)"/>
       <use xlink:href="#CMR17-32" transform="translate(91.380954 0) scale(0.996264)"/>
       <use xlink:href="#CMR17-30" transform="translate(137.071431 0) scale(0.996264)"/>
      </g>
     </g>
    </g>
    <g id="xtick_6">
     <g id="line2d_11">
      <g>
       <use xlink:href="#m8165c9696d" x="570.193494" y="336.24" style="stroke: #000000; stroke-width: 0.5"/>
      </g>
     </g>
     <g id="line2d_12">
      <g>
       <use xlink:href="#m83bfdfd2b1" x="570.193494" y="3.6" style="stroke: #000000; stroke-width: 0.5"/>
      </g>
     </g>
     <g id="text_6">
      <!-- $\mathdefault{2024}$ -->
      <g transform="translate(553.744922 352.1933) scale(0.18 -0.18)">
       <use xlink:href="#CMR17-32" transform="scale(0.996264)"/>
       <use xlink:href="#CMR17-30" transform="translate(45.690477 0) scale(0.996264)"/>
       <use xlink:href="#CMR17-32" transform="translate(91.380954 0) scale(0.996264)"/>
       <use xlink:href="#CMR17-34" transform="translate(137.071431 0) scale(0.996264)"/>
      </g>
     </g>
    </g>
    <g id="xtick_7">
     <g id="line2d_13">
      <defs>
       <path id="mb6fbedec29" d="M 0 0 
L 0 -1.5 
" style="stroke: #000000; stroke-width: 0.5"/>
      </defs>
      <g>
       <use xlink:href="#mb6fbedec29" x="59.286964" y="336.24" style="stroke: #000000; stroke-width: 0.5"/>
      </g>
     </g>
     <g id="line2d_14">
      <defs>
       <path id="m5a78b228f6" d="M 0 0 
L 0 1.5 
" style="stroke: #000000; stroke-width: 0.5"/>
      </defs>
      <g>
       <use xlink:href="#m5a78b228f6" x="59.286964" y="3.6" style="stroke: #000000; stroke-width: 0.5"/>
      </g>
     </g>
    </g>
    <g id="xtick_8">
     <g id="line2d_15">
      <g>
       <use xlink:href="#mb6fbedec29" x="81.500292" y="336.24" style="stroke: #000000; stroke-width: 0.5"/>
      </g>
     </g>
     <g id="line2d_16">
      <g>
       <use xlink:href="#m5a78b228f6" x="81.500292" y="3.6" style="stroke: #000000; stroke-width: 0.5"/>
      </g>
     </g>
    </g>
    <g id="xtick_9">
     <g id="line2d_17">
      <g>
       <use xlink:href="#mb6fbedec29" x="103.713619" y="336.24" style="stroke: #000000; stroke-width: 0.5"/>
      </g>
     </g>
     <g id="line2d_18">
      <g>
       <use xlink:href="#m5a78b228f6" x="103.713619" y="3.6" style="stroke: #000000; stroke-width: 0.5"/>
      </g>
     </g>
    </g>
    <g id="xtick_10">
     <g id="line2d_19">
      <g>
       <use xlink:href="#mb6fbedec29" x="148.140274" y="336.24" style="stroke: #000000; stroke-width: 0.5"/>
      </g>
     </g>
     <g id="line2d_20">
      <g>
       <use xlink:href="#m5a78b228f6" x="148.140274" y="3.6" style="stroke: #000000; stroke-width: 0.5"/>
      </g>
     </g>
    </g>
    <g id="xtick_11">
     <g id="line2d_21">
      <g>
       <use xlink:href="#mb6fbedec29" x="170.353601" y="336.24" style="stroke: #000000; stroke-width: 0.5"/>
      </g>
     </g>
     <g id="line2d_22">
      <g>
       <use xlink:href="#m5a78b228f6" x="170.353601" y="3.6" style="stroke: #000000; stroke-width: 0.5"/>
      </g>
     </g>
    </g>
    <g id="xtick_12">
     <g id="line2d_23">
      <g>
       <use xlink:href="#mb6fbedec29" x="192.566929" y="336.24" style="stroke: #000000; stroke-width: 0.5"/>
      </g>
     </g>
     <g id="line2d_24">
      <g>
       <use xlink:href="#m5a78b228f6" x="192.566929" y="3.6" style="stroke: #000000; stroke-width: 0.5"/>
      </g>
     </g>
    </g>
    <g id="xtick_13">
     <g id="line2d_25">
      <g>
       <use xlink:href="#mb6fbedec29" x="236.993583" y="336.24" style="stroke: #000000; stroke-width: 0.5"/>
      </g>
     </g>
     <g id="line2d_26">
      <g>
       <use xlink:href="#m5a78b228f6" x="236.993583" y="3.6" style="stroke: #000000; stroke-width: 0.5"/>
      </g>
     </g>
    </g>
    <g id="xtick_14">
     <g id="line2d_27">
      <g>
       <use xlink:href="#mb6fbedec29" x="259.206911" y="336.24" style="stroke: #000000; stroke-width: 0.5"/>
      </g>
     </g>
     <g id="line2d_28">
      <g>
       <use xlink:href="#m5a78b228f6" x="259.206911" y="3.6" style="stroke: #000000; stroke-width: 0.5"/>
      </g>
     </g>
    </g>
    <g id="xtick_15">
     <g id="line2d_29">
      <g>
       <use xlink:href="#mb6fbedec29" x="281.420238" y="336.24" style="stroke: #000000; stroke-width: 0.5"/>
      </g>
     </g>
     <g id="line2d_30">
      <g>
       <use xlink:href="#m5a78b228f6" x="281.420238" y="3.6" style="stroke: #000000; stroke-width: 0.5"/>
      </g>
     </g>
    </g>
    <g id="xtick_16">
     <g id="line2d_31">
      <g>
       <use xlink:href="#mb6fbedec29" x="325.846893" y="336.24" style="stroke: #000000; stroke-width: 0.5"/>
      </g>
     </g>
     <g id="line2d_32">
      <g>
       <use xlink:href="#m5a78b228f6" x="325.846893" y="3.6" style="stroke: #000000; stroke-width: 0.5"/>
      </g>
     </g>
    </g>
    <g id="xtick_17">
     <g id="line2d_33">
      <g>
       <use xlink:href="#mb6fbedec29" x="348.06022" y="336.24" style="stroke: #000000; stroke-width: 0.5"/>
      </g>
     </g>
     <g id="line2d_34">
      <g>
       <use xlink:href="#m5a78b228f6" x="348.06022" y="3.6" style="stroke: #000000; stroke-width: 0.5"/>
      </g>
     </g>
    </g>
    <g id="xtick_18">
     <g id="line2d_35">
      <g>
       <use xlink:href="#mb6fbedec29" x="370.273548" y="336.24" style="stroke: #000000; stroke-width: 0.5"/>
      </g>
     </g>
     <g id="line2d_36">
      <g>
       <use xlink:href="#m5a78b228f6" x="370.273548" y="3.6" style="stroke: #000000; stroke-width: 0.5"/>
      </g>
     </g>
    </g>
    <g id="xtick_19">
     <g id="line2d_37">
      <g>
       <use xlink:href="#mb6fbedec29" x="414.700202" y="336.24" style="stroke: #000000; stroke-width: 0.5"/>
      </g>
     </g>
     <g id="line2d_38">
      <g>
       <use xlink:href="#m5a78b228f6" x="414.700202" y="3.6" style="stroke: #000000; stroke-width: 0.5"/>
      </g>
     </g>
    </g>
    <g id="xtick_20">
     <g id="line2d_39">
      <g>
       <use xlink:href="#mb6fbedec29" x="436.91353" y="336.24" style="stroke: #000000; stroke-width: 0.5"/>
      </g>
     </g>
     <g id="line2d_40">
      <g>
       <use xlink:href="#m5a78b228f6" x="436.91353" y="3.6" style="stroke: #000000; stroke-width: 0.5"/>
      </g>
     </g>
    </g>
    <g id="xtick_21">
     <g id="line2d_41">
      <g>
       <use xlink:href="#mb6fbedec29" x="459.126857" y="336.24" style="stroke: #000000; stroke-width: 0.5"/>
      </g>
     </g>
     <g id="line2d_42">
      <g>
       <use xlink:href="#m5a78b228f6" x="459.126857" y="3.6" style="stroke: #000000; stroke-width: 0.5"/>
      </g>
     </g>
    </g>
    <g id="xtick_22">
     <g id="line2d_43">
      <g>
       <use xlink:href="#mb6fbedec29" x="503.553512" y="336.24" style="stroke: #000000; stroke-width: 0.5"/>
      </g>
     </g>
     <g id="line2d_44">
      <g>
       <use xlink:href="#m5a78b228f6" x="503.553512" y="3.6" style="stroke: #000000; stroke-width: 0.5"/>
      </g>
     </g>
    </g>
    <g id="xtick_23">
     <g id="line2d_45">
      <g>
       <use xlink:href="#mb6fbedec29" x="525.766839" y="336.24" style="stroke: #000000; stroke-width: 0.5"/>
      </g>
     </g>
     <g id="line2d_46">
      <g>
       <use xlink:href="#m5a78b228f6" x="525.766839" y="3.6" style="stroke: #000000; stroke-width: 0.5"/>
      </g>
     </g>
    </g>
    <g id="xtick_24">
     <g id="line2d_47">
      <g>
       <use xlink:href="#mb6fbedec29" x="547.980167" y="336.24" style="stroke: #000000; stroke-width: 0.5"/>
      </g>
     </g>
     <g id="line2d_48">
      <g>
       <use xlink:href="#m5a78b228f6" x="547.980167" y="3.6" style="stroke: #000000; stroke-width: 0.5"/>
      </g>
     </g>
    </g>
    <g id="xtick_25">
     <g id="line2d_49">
      <g>
       <use xlink:href="#mb6fbedec29" x="592.406821" y="336.24" style="stroke: #000000; stroke-width: 0.5"/>
      </g>
     </g>
     <g id="line2d_50">
      <g>
       <use xlink:href="#m5a78b228f6" x="592.406821" y="3.6" style="stroke: #000000; stroke-width: 0.5"/>
      </g>
     </g>
    </g>
   </g>
   <g id="matplotlib.axis_2">
    <g id="ytick_1">
     <g id="line2d_51">
      <defs>
       <path id="mb2e3ddfe20" d="M 0 0 
L 3 0 
" style="stroke: #000000; stroke-width: 0.5"/>
      </defs>
      <g>
       <use xlink:href="#mb2e3ddfe20" x="37.496314" y="300.110998" style="stroke: #000000; stroke-width: 0.5"/>
      </g>
     </g>
     <g id="line2d_52">
      <defs>
       <path id="mafd9e119b9" d="M 0 0 
L -3 0 
" style="stroke: #000000; stroke-width: 0.5"/>
      </defs>
      <g>
       <use xlink:href="#mafd9e119b9" x="595.496314" y="300.110998" style="stroke: #000000; stroke-width: 0.5"/>
      </g>
     </g>
     <g id="text_7">
      <!-- $\mathdefault{−20}$ -->
      <g transform="translate(3.6 306.337648) scale(0.18 -0.18)">
       <defs>
        <path id="CMSY10-0" d="M 4218 1472 
C 4326 1472 4442 1472 4442 1600 
C 4442 1728 4326 1728 4218 1728 
L 755 1728 
C 646 1728 531 1728 531 1600 
C 531 1472 646 1472 755 1472 
L 4218 1472 
z
" transform="scale(0.015625)"/>
       </defs>
       <use xlink:href="#CMSY10-0" transform="scale(0.996264)"/>
       <use xlink:href="#CMR17-32" transform="translate(77.487468 0) scale(0.996264)"/>
       <use xlink:href="#CMR17-30" transform="translate(123.177945 0) scale(0.996264)"/>
      </g>
     </g>
    </g>
    <g id="ytick_2">
     <g id="line2d_53">
      <g>
       <use xlink:href="#mb2e3ddfe20" x="37.496314" y="262.654873" style="stroke: #000000; stroke-width: 0.5"/>
      </g>
     </g>
     <g id="line2d_54">
      <g>
       <use xlink:href="#mafd9e119b9" x="595.496314" y="262.654873" style="stroke: #000000; stroke-width: 0.5"/>
      </g>
     </g>
     <g id="text_8">
      <!-- $\mathdefault{−15}$ -->
      <g transform="translate(3.6 268.881523) scale(0.18 -0.18)">
       <defs>
        <path id="CMR17-35" d="M 730 3750 
C 794 3724 1056 3641 1325 3641 
C 1920 3641 2246 3961 2432 4140 
C 2432 4191 2432 4224 2394 4224 
C 2387 4224 2374 4224 2323 4198 
C 2099 4102 1837 4032 1517 4032 
C 1325 4032 1037 4055 723 4191 
C 653 4224 640 4224 634 4224 
C 602 4224 595 4217 595 4090 
L 595 2231 
C 595 2113 595 2080 659 2080 
C 691 2080 704 2093 736 2139 
C 941 2435 1222 2560 1542 2560 
C 1766 2560 2246 2415 2246 1293 
C 2246 1087 2246 716 2054 422 
C 1894 159 1645 25 1370 25 
C 947 25 518 319 403 812 
C 429 806 480 793 506 793 
C 589 793 749 838 749 1036 
C 749 1209 627 1280 506 1280 
C 358 1280 262 1190 262 1011 
C 262 454 704 -128 1382 -128 
C 2042 -128 2669 441 2669 1267 
C 2669 2054 2170 2662 1549 2662 
C 1222 2662 947 2540 730 2304 
L 730 3750 
z
" transform="scale(0.015625)"/>
       </defs>
       <use xlink:href="#CMSY10-0" transform="scale(0.996264)"/>
       <use xlink:href="#CMR17-31" transform="translate(77.487468 0) scale(0.996264)"/>
       <use xlink:href="#CMR17-35" transform="translate(123.177945 0) scale(0.996264)"/>
      </g>
     </g>
    </g>
    <g id="ytick_3">
     <g id="line2d_55">
      <g>
       <use xlink:href="#mb2e3ddfe20" x="37.496314" y="225.198747" style="stroke: #000000; stroke-width: 0.5"/>
      </g>
     </g>
     <g id="line2d_56">
      <g>
       <use xlink:href="#mafd9e119b9" x="595.496314" y="225.198747" style="stroke: #000000; stroke-width: 0.5"/>
      </g>
     </g>
     <g id="text_9">
      <!-- $\mathdefault{−10}$ -->
      <g transform="translate(3.6 231.425397) scale(0.18 -0.18)">
       <use xlink:href="#CMSY10-0" transform="scale(0.996264)"/>
       <use xlink:href="#CMR17-31" transform="translate(77.487468 0) scale(0.996264)"/>
       <use xlink:href="#CMR17-30" transform="translate(123.177945 0) scale(0.996264)"/>
      </g>
     </g>
    </g>
    <g id="ytick_4">
     <g id="line2d_57">
      <g>
       <use xlink:href="#mb2e3ddfe20" x="37.496314" y="187.742622" style="stroke: #000000; stroke-width: 0.5"/>
      </g>
     </g>
     <g id="line2d_58">
      <g>
       <use xlink:href="#mafd9e119b9" x="595.496314" y="187.742622" style="stroke: #000000; stroke-width: 0.5"/>
      </g>
     </g>
     <g id="text_10">
      <!-- $\mathdefault{−5}$ -->
      <g transform="translate(11.824286 193.969272) scale(0.18 -0.18)">
       <use xlink:href="#CMSY10-0" transform="scale(0.996264)"/>
       <use xlink:href="#CMR17-35" transform="translate(77.487468 0) scale(0.996264)"/>
      </g>
     </g>
    </g>
    <g id="ytick_5">
     <g id="line2d_59">
      <g>
       <use xlink:href="#mb2e3ddfe20" x="37.496314" y="150.286497" style="stroke: #000000; stroke-width: 0.5"/>
      </g>
     </g>
     <g id="line2d_60">
      <g>
       <use xlink:href="#mafd9e119b9" x="595.496314" y="150.286497" style="stroke: #000000; stroke-width: 0.5"/>
      </g>
     </g>
     <g id="text_11">
      <!-- $\mathdefault{0}$ -->
      <g transform="translate(25.772028 156.513147) scale(0.18 -0.18)">
       <use xlink:href="#CMR17-30" transform="scale(0.996264)"/>
      </g>
     </g>
    </g>
    <g id="ytick_6">
     <g id="line2d_61">
      <g>
       <use xlink:href="#mb2e3ddfe20" x="37.496314" y="112.830372" style="stroke: #000000; stroke-width: 0.5"/>
      </g>
     </g>
     <g id="line2d_62">
      <g>
       <use xlink:href="#mafd9e119b9" x="595.496314" y="112.830372" style="stroke: #000000; stroke-width: 0.5"/>
      </g>
     </g>
     <g id="text_12">
      <!-- $\mathdefault{5}$ -->
      <g transform="translate(25.772028 119.057022) scale(0.18 -0.18)">
       <use xlink:href="#CMR17-35" transform="scale(0.996264)"/>
      </g>
     </g>
    </g>
    <g id="ytick_7">
     <g id="line2d_63">
      <g>
       <use xlink:href="#mb2e3ddfe20" x="37.496314" y="75.374247" style="stroke: #000000; stroke-width: 0.5"/>
      </g>
     </g>
     <g id="line2d_64">
      <g>
       <use xlink:href="#mafd9e119b9" x="595.496314" y="75.374247" style="stroke: #000000; stroke-width: 0.5"/>
      </g>
     </g>
     <g id="text_13">
      <!-- $\mathdefault{10}$ -->
      <g transform="translate(17.547742 81.600897) scale(0.18 -0.18)">
       <use xlink:href="#CMR17-31" transform="scale(0.996264)"/>
       <use xlink:href="#CMR17-30" transform="translate(45.690477 0) scale(0.996264)"/>
      </g>
     </g>
    </g>
    <g id="ytick_8">
     <g id="line2d_65">
      <g>
       <use xlink:href="#mb2e3ddfe20" x="37.496314" y="37.918121" style="stroke: #000000; stroke-width: 0.5"/>
      </g>
     </g>
     <g id="line2d_66">
      <g>
       <use xlink:href="#mafd9e119b9" x="595.496314" y="37.918121" style="stroke: #000000; stroke-width: 0.5"/>
      </g>
     </g>
     <g id="text_14">
      <!-- $\mathdefault{15}$ -->
      <g transform="translate(17.547742 44.144771) scale(0.18 -0.18)">
       <use xlink:href="#CMR17-31" transform="scale(0.996264)"/>
       <use xlink:href="#CMR17-35" transform="translate(45.690477 0) scale(0.996264)"/>
      </g>
     </g>
    </g>
    <g id="ytick_9">
     <g id="line2d_67">
      <defs>
       <path id="ma9ef8f5385" d="M 0 0 
L 1.5 0 
" style="stroke: #000000; stroke-width: 0.5"/>
      </defs>
      <g>
       <use xlink:href="#ma9ef8f5385" x="37.496314" y="330.075898" style="stroke: #000000; stroke-width: 0.5"/>
      </g>
     </g>
     <g id="line2d_68">
      <defs>
       <path id="m4c8802b043" d="M 0 0 
L -1.5 0 
" style="stroke: #000000; stroke-width: 0.5"/>
      </defs>
      <g>
       <use xlink:href="#m4c8802b043" x="595.496314" y="330.075898" style="stroke: #000000; stroke-width: 0.5"/>
      </g>
     </g>
    </g>
    <g id="ytick_10">
     <g id="line2d_69">
      <g>
       <use xlink:href="#ma9ef8f5385" x="37.496314" y="322.584673" style="stroke: #000000; stroke-width: 0.5"/>
      </g>
     </g>
     <g id="line2d_70">
      <g>
       <use xlink:href="#m4c8802b043" x="595.496314" y="322.584673" style="stroke: #000000; stroke-width: 0.5"/>
      </g>
     </g>
    </g>
    <g id="ytick_11">
     <g id="line2d_71">
      <g>
       <use xlink:href="#ma9ef8f5385" x="37.496314" y="315.093448" style="stroke: #000000; stroke-width: 0.5"/>
      </g>
     </g>
     <g id="line2d_72">
      <g>
       <use xlink:href="#m4c8802b043" x="595.496314" y="315.093448" style="stroke: #000000; stroke-width: 0.5"/>
      </g>
     </g>
    </g>
    <g id="ytick_12">
     <g id="line2d_73">
      <g>
       <use xlink:href="#ma9ef8f5385" x="37.496314" y="307.602223" style="stroke: #000000; stroke-width: 0.5"/>
      </g>
     </g>
     <g id="line2d_74">
      <g>
       <use xlink:href="#m4c8802b043" x="595.496314" y="307.602223" style="stroke: #000000; stroke-width: 0.5"/>
      </g>
     </g>
    </g>
    <g id="ytick_13">
     <g id="line2d_75">
      <g>
       <use xlink:href="#ma9ef8f5385" x="37.496314" y="292.619773" style="stroke: #000000; stroke-width: 0.5"/>
      </g>
     </g>
     <g id="line2d_76">
      <g>
       <use xlink:href="#m4c8802b043" x="595.496314" y="292.619773" style="stroke: #000000; stroke-width: 0.5"/>
      </g>
     </g>
    </g>
    <g id="ytick_14">
     <g id="line2d_77">
      <g>
       <use xlink:href="#ma9ef8f5385" x="37.496314" y="285.128548" style="stroke: #000000; stroke-width: 0.5"/>
      </g>
     </g>
     <g id="line2d_78">
      <g>
       <use xlink:href="#m4c8802b043" x="595.496314" y="285.128548" style="stroke: #000000; stroke-width: 0.5"/>
      </g>
     </g>
    </g>
    <g id="ytick_15">
     <g id="line2d_79">
      <g>
       <use xlink:href="#ma9ef8f5385" x="37.496314" y="277.637323" style="stroke: #000000; stroke-width: 0.5"/>
      </g>
     </g>
     <g id="line2d_80">
      <g>
       <use xlink:href="#m4c8802b043" x="595.496314" y="277.637323" style="stroke: #000000; stroke-width: 0.5"/>
      </g>
     </g>
    </g>
    <g id="ytick_16">
     <g id="line2d_81">
      <g>
       <use xlink:href="#ma9ef8f5385" x="37.496314" y="270.146098" style="stroke: #000000; stroke-width: 0.5"/>
      </g>
     </g>
     <g id="line2d_82">
      <g>
       <use xlink:href="#m4c8802b043" x="595.496314" y="270.146098" style="stroke: #000000; stroke-width: 0.5"/>
      </g>
     </g>
    </g>
    <g id="ytick_17">
     <g id="line2d_83">
      <g>
       <use xlink:href="#ma9ef8f5385" x="37.496314" y="255.163648" style="stroke: #000000; stroke-width: 0.5"/>
      </g>
     </g>
     <g id="line2d_84">
      <g>
       <use xlink:href="#m4c8802b043" x="595.496314" y="255.163648" style="stroke: #000000; stroke-width: 0.5"/>
      </g>
     </g>
    </g>
    <g id="ytick_18">
     <g id="line2d_85">
      <g>
       <use xlink:href="#ma9ef8f5385" x="37.496314" y="247.672422" style="stroke: #000000; stroke-width: 0.5"/>
      </g>
     </g>
     <g id="line2d_86">
      <g>
       <use xlink:href="#m4c8802b043" x="595.496314" y="247.672422" style="stroke: #000000; stroke-width: 0.5"/>
      </g>
     </g>
    </g>
    <g id="ytick_19">
     <g id="line2d_87">
      <g>
       <use xlink:href="#ma9ef8f5385" x="37.496314" y="240.181197" style="stroke: #000000; stroke-width: 0.5"/>
      </g>
     </g>
     <g id="line2d_88">
      <g>
       <use xlink:href="#m4c8802b043" x="595.496314" y="240.181197" style="stroke: #000000; stroke-width: 0.5"/>
      </g>
     </g>
    </g>
    <g id="ytick_20">
     <g id="line2d_89">
      <g>
       <use xlink:href="#ma9ef8f5385" x="37.496314" y="232.689972" style="stroke: #000000; stroke-width: 0.5"/>
      </g>
     </g>
     <g id="line2d_90">
      <g>
       <use xlink:href="#m4c8802b043" x="595.496314" y="232.689972" style="stroke: #000000; stroke-width: 0.5"/>
      </g>
     </g>
    </g>
    <g id="ytick_21">
     <g id="line2d_91">
      <g>
       <use xlink:href="#ma9ef8f5385" x="37.496314" y="217.707522" style="stroke: #000000; stroke-width: 0.5"/>
      </g>
     </g>
     <g id="line2d_92">
      <g>
       <use xlink:href="#m4c8802b043" x="595.496314" y="217.707522" style="stroke: #000000; stroke-width: 0.5"/>
      </g>
     </g>
    </g>
    <g id="ytick_22">
     <g id="line2d_93">
      <g>
       <use xlink:href="#ma9ef8f5385" x="37.496314" y="210.216297" style="stroke: #000000; stroke-width: 0.5"/>
      </g>
     </g>
     <g id="line2d_94">
      <g>
       <use xlink:href="#m4c8802b043" x="595.496314" y="210.216297" style="stroke: #000000; stroke-width: 0.5"/>
      </g>
     </g>
    </g>
    <g id="ytick_23">
     <g id="line2d_95">
      <g>
       <use xlink:href="#ma9ef8f5385" x="37.496314" y="202.725072" style="stroke: #000000; stroke-width: 0.5"/>
      </g>
     </g>
     <g id="line2d_96">
      <g>
       <use xlink:href="#m4c8802b043" x="595.496314" y="202.725072" style="stroke: #000000; stroke-width: 0.5"/>
      </g>
     </g>
    </g>
    <g id="ytick_24">
     <g id="line2d_97">
      <g>
       <use xlink:href="#ma9ef8f5385" x="37.496314" y="195.233847" style="stroke: #000000; stroke-width: 0.5"/>
      </g>
     </g>
     <g id="line2d_98">
      <g>
       <use xlink:href="#m4c8802b043" x="595.496314" y="195.233847" style="stroke: #000000; stroke-width: 0.5"/>
      </g>
     </g>
    </g>
    <g id="ytick_25">
     <g id="line2d_99">
      <g>
       <use xlink:href="#ma9ef8f5385" x="37.496314" y="180.251397" style="stroke: #000000; stroke-width: 0.5"/>
      </g>
     </g>
     <g id="line2d_100">
      <g>
       <use xlink:href="#m4c8802b043" x="595.496314" y="180.251397" style="stroke: #000000; stroke-width: 0.5"/>
      </g>
     </g>
    </g>
    <g id="ytick_26">
     <g id="line2d_101">
      <g>
       <use xlink:href="#ma9ef8f5385" x="37.496314" y="172.760172" style="stroke: #000000; stroke-width: 0.5"/>
      </g>
     </g>
     <g id="line2d_102">
      <g>
       <use xlink:href="#m4c8802b043" x="595.496314" y="172.760172" style="stroke: #000000; stroke-width: 0.5"/>
      </g>
     </g>
    </g>
    <g id="ytick_27">
     <g id="line2d_103">
      <g>
       <use xlink:href="#ma9ef8f5385" x="37.496314" y="165.268947" style="stroke: #000000; stroke-width: 0.5"/>
      </g>
     </g>
     <g id="line2d_104">
      <g>
       <use xlink:href="#m4c8802b043" x="595.496314" y="165.268947" style="stroke: #000000; stroke-width: 0.5"/>
      </g>
     </g>
    </g>
    <g id="ytick_28">
     <g id="line2d_105">
      <g>
       <use xlink:href="#ma9ef8f5385" x="37.496314" y="157.777722" style="stroke: #000000; stroke-width: 0.5"/>
      </g>
     </g>
     <g id="line2d_106">
      <g>
       <use xlink:href="#m4c8802b043" x="595.496314" y="157.777722" style="stroke: #000000; stroke-width: 0.5"/>
      </g>
     </g>
    </g>
    <g id="ytick_29">
     <g id="line2d_107">
      <g>
       <use xlink:href="#ma9ef8f5385" x="37.496314" y="142.795272" style="stroke: #000000; stroke-width: 0.5"/>
      </g>
     </g>
     <g id="line2d_108">
      <g>
       <use xlink:href="#m4c8802b043" x="595.496314" y="142.795272" style="stroke: #000000; stroke-width: 0.5"/>
      </g>
     </g>
    </g>
    <g id="ytick_30">
     <g id="line2d_109">
      <g>
       <use xlink:href="#ma9ef8f5385" x="37.496314" y="135.304047" style="stroke: #000000; stroke-width: 0.5"/>
      </g>
     </g>
     <g id="line2d_110">
      <g>
       <use xlink:href="#m4c8802b043" x="595.496314" y="135.304047" style="stroke: #000000; stroke-width: 0.5"/>
      </g>
     </g>
    </g>
    <g id="ytick_31">
     <g id="line2d_111">
      <g>
       <use xlink:href="#ma9ef8f5385" x="37.496314" y="127.812822" style="stroke: #000000; stroke-width: 0.5"/>
      </g>
     </g>
     <g id="line2d_112">
      <g>
       <use xlink:href="#m4c8802b043" x="595.496314" y="127.812822" style="stroke: #000000; stroke-width: 0.5"/>
      </g>
     </g>
    </g>
    <g id="ytick_32">
     <g id="line2d_113">
      <g>
       <use xlink:href="#ma9ef8f5385" x="37.496314" y="120.321597" style="stroke: #000000; stroke-width: 0.5"/>
      </g>
     </g>
     <g id="line2d_114">
      <g>
       <use xlink:href="#m4c8802b043" x="595.496314" y="120.321597" style="stroke: #000000; stroke-width: 0.5"/>
      </g>
     </g>
    </g>
    <g id="ytick_33">
     <g id="line2d_115">
      <g>
       <use xlink:href="#ma9ef8f5385" x="37.496314" y="105.339147" style="stroke: #000000; stroke-width: 0.5"/>
      </g>
     </g>
     <g id="line2d_116">
      <g>
       <use xlink:href="#m4c8802b043" x="595.496314" y="105.339147" style="stroke: #000000; stroke-width: 0.5"/>
      </g>
     </g>
    </g>
    <g id="ytick_34">
     <g id="line2d_117">
      <g>
       <use xlink:href="#ma9ef8f5385" x="37.496314" y="97.847922" style="stroke: #000000; stroke-width: 0.5"/>
      </g>
     </g>
     <g id="line2d_118">
      <g>
       <use xlink:href="#m4c8802b043" x="595.496314" y="97.847922" style="stroke: #000000; stroke-width: 0.5"/>
      </g>
     </g>
    </g>
    <g id="ytick_35">
     <g id="line2d_119">
      <g>
       <use xlink:href="#ma9ef8f5385" x="37.496314" y="90.356697" style="stroke: #000000; stroke-width: 0.5"/>
      </g>
     </g>
     <g id="line2d_120">
      <g>
       <use xlink:href="#m4c8802b043" x="595.496314" y="90.356697" style="stroke: #000000; stroke-width: 0.5"/>
      </g>
     </g>
    </g>
    <g id="ytick_36">
     <g id="line2d_121">
      <g>
       <use xlink:href="#ma9ef8f5385" x="37.496314" y="82.865472" style="stroke: #000000; stroke-width: 0.5"/>
      </g>
     </g>
     <g id="line2d_122">
      <g>
       <use xlink:href="#m4c8802b043" x="595.496314" y="82.865472" style="stroke: #000000; stroke-width: 0.5"/>
      </g>
     </g>
    </g>
    <g id="ytick_37">
     <g id="line2d_123">
      <g>
       <use xlink:href="#ma9ef8f5385" x="37.496314" y="67.883021" style="stroke: #000000; stroke-width: 0.5"/>
      </g>
     </g>
     <g id="line2d_124">
      <g>
       <use xlink:href="#m4c8802b043" x="595.496314" y="67.883021" style="stroke: #000000; stroke-width: 0.5"/>
      </g>
     </g>
    </g>
    <g id="ytick_38">
     <g id="line2d_125">
      <g>
       <use xlink:href="#ma9ef8f5385" x="37.496314" y="60.391796" style="stroke: #000000; stroke-width: 0.5"/>
      </g>
     </g>
     <g id="line2d_126">
      <g>
       <use xlink:href="#m4c8802b043" x="595.496314" y="60.391796" style="stroke: #000000; stroke-width: 0.5"/>
      </g>
     </g>
    </g>
    <g id="ytick_39">
     <g id="line2d_127">
      <g>
       <use xlink:href="#ma9ef8f5385" x="37.496314" y="52.900571" style="stroke: #000000; stroke-width: 0.5"/>
      </g>
     </g>
     <g id="line2d_128">
      <g>
       <use xlink:href="#m4c8802b043" x="595.496314" y="52.900571" style="stroke: #000000; stroke-width: 0.5"/>
      </g>
     </g>
    </g>
    <g id="ytick_40">
     <g id="line2d_129">
      <g>
       <use xlink:href="#ma9ef8f5385" x="37.496314" y="45.409346" style="stroke: #000000; stroke-width: 0.5"/>
      </g>
     </g>
     <g id="line2d_130">
      <g>
       <use xlink:href="#m4c8802b043" x="595.496314" y="45.409346" style="stroke: #000000; stroke-width: 0.5"/>
      </g>
     </g>
    </g>
    <g id="ytick_41">
     <g id="line2d_131">
      <g>
       <use xlink:href="#ma9ef8f5385" x="37.496314" y="30.426896" style="stroke: #000000; stroke-width: 0.5"/>
      </g>
     </g>
     <g id="line2d_132">
      <g>
       <use xlink:href="#m4c8802b043" x="595.496314" y="30.426896" style="stroke: #000000; stroke-width: 0.5"/>
      </g>
     </g>
    </g>
    <g id="ytick_42">
     <g id="line2d_133">
      <g>
       <use xlink:href="#ma9ef8f5385" x="37.496314" y="22.935671" style="stroke: #000000; stroke-width: 0.5"/>
      </g>
     </g>
     <g id="line2d_134">
      <g>
       <use xlink:href="#m4c8802b043" x="595.496314" y="22.935671" style="stroke: #000000; stroke-width: 0.5"/>
      </g>
     </g>
    </g>
    <g id="ytick_43">
     <g id="line2d_135">
      <g>
       <use xlink:href="#ma9ef8f5385" x="37.496314" y="15.444446" style="stroke: #000000; stroke-width: 0.5"/>
      </g>
     </g>
     <g id="line2d_136">
      <g>
       <use xlink:href="#m4c8802b043" x="595.496314" y="15.444446" style="stroke: #000000; stroke-width: 0.5"/>
      </g>
     </g>
    </g>
    <g id="ytick_44">
     <g id="line2d_137">
      <g>
       <use xlink:href="#ma9ef8f5385" x="37.496314" y="7.953221" style="stroke: #000000; stroke-width: 0.5"/>
      </g>
     </g>
     <g id="line2d_138">
      <g>
       <use xlink:href="#m4c8802b043" x="595.496314" y="7.953221" style="stroke: #000000; stroke-width: 0.5"/>
      </g>
     </g>
    </g>
   </g>
   <g id="line2d_139">
    <path d="M 62.85995 167.23577 
L 64.74527 222.440307 
L 66.569773 147.770174 
L 68.455093 101.226949 
L 70.279597 169.192612 
L 72.164917 171.297499 
L 74.050237 166.602825 
L 75.87474 240.608283 
L 77.76006 127.7182 
L 79.584563 114.22691 
L 81.469883 140.241444 
L 83.355203 153.381155 
L 85.058073 176.725555 
L 86.943393 114.978038 
L 88.767896 177.970268 
L 90.653216 172.633487 
L 92.47772 196.989586 
L 94.36304 236.661962 
L 96.24836 142.894785 
L 98.072863 187.944946 
L 99.958183 161.751195 
L 101.782686 103.31723 
L 103.668006 159.189396 
L 105.553327 153.07429 
L 107.256196 201.153348 
L 109.141516 141.743615 
L 110.96602 112.836809 
L 112.85134 112.592473 
L 114.675843 109.75151 
L 116.561163 146.852058 
L 118.446483 152.561755 
L 120.270986 127.978638 
L 122.156306 136.243929 
L 123.98081 142.273801 
L 127.75145 115.158809 
L 129.515136 143.150313 
L 131.400456 163.092999 
L 133.22496 144.060754 
L 135.11028 170.776801 
L 136.934783 130.192883 
L 138.820103 168.297546 
L 140.705423 161.830118 
L 142.529926 130.784989 
L 144.415246 150.588175 
L 146.23975 116.379078 
L 148.12507 131.134692 
L 150.01039 161.489149 
L 151.713259 138.821525 
L 153.598579 153.246037 
L 155.423083 169.636933 
L 157.308403 141.428834 
L 159.132906 135.199879 
L 161.018226 137.933137 
L 162.903546 149.043323 
L 164.728049 149.277553 
L 166.613369 171.331274 
L 168.437873 122.277444 
L 170.323193 135.480038 
L 172.208513 140.462379 
L 173.911383 151.506022 
L 175.796703 140.324824 
L 177.621206 145.421055 
L 179.506526 157.314864 
L 181.331029 171.991295 
L 183.216349 146.072055 
L 185.101669 134.458817 
L 186.926173 132.69135 
L 188.811493 124.779803 
L 190.635996 136.534151 
L 192.521316 135.448095 
L 194.406636 146.204075 
L 196.109506 139.50757 
L 197.994826 170.173199 
L 199.819329 120.694478 
L 201.704649 126.361135 
L 203.529152 148.776034 
L 205.414472 147.067751 
L 207.299792 183.571982 
L 209.124296 128.712844 
L 211.009616 129.29732 
L 212.834119 188.346378 
L 214.719439 142.226493 
L 216.604759 202.972565 
L 218.368446 163.380436 
L 220.253766 171.557565 
L 222.078269 120.439297 
L 223.963589 132.595333 
L 225.788092 184.122548 
L 227.673412 198.688493 
L 229.558732 136.040111 
L 231.383236 188.986261 
L 233.268556 321.12 
L 235.093059 219.720933 
L 236.978379 154.949912 
L 238.863699 160.58358 
L 240.566569 204.426967 
L 242.451889 196.427186 
L 244.276392 65.244209 
L 246.161712 103.83232 
L 247.986216 130.858114 
L 249.871536 142.481139 
L 251.756856 93.341877 
L 253.581359 124.888845 
L 255.466679 133.893324 
L 257.291182 136.101003 
L 259.176502 135.081696 
L 261.061822 141.433579 
L 262.764692 173.59414 
L 264.650012 108.233601 
L 266.474515 121.413247 
L 268.359835 196.918892 
L 270.184339 178.580138 
L 272.069659 152.752222 
L 273.954979 145.11506 
L 275.779482 126.685437 
L 277.664802 117.947508 
L 279.489305 133.024569 
L 281.374625 124.105893 
L 283.259946 125.89479 
L 284.962815 128.131198 
L 286.848135 159.776157 
L 288.672639 134.928379 
L 290.557959 146.470476 
L 292.382462 179.403683 
L 294.267782 128.5495 
L 296.153102 233.852237 
L 297.977605 157.545376 
L 299.862925 129.306801 
L 301.687429 138.465973 
L 303.572749 140.034108 
L 305.458069 116.557183 
L 307.221755 120.968075 
L 309.107075 130.202899 
L 312.816899 175.093817 
L 314.641402 160.289002 
L 316.526722 130.016522 
L 318.412042 126.606308 
L 320.236545 129.249784 
L 322.121865 153.198501 
L 323.946369 173.198393 
L 325.831689 135.509943 
L 327.717009 120.288581 
L 329.419878 134.310739 
L 331.305198 131.444576 
L 333.129702 140.749337 
L 335.015022 118.016325 
L 336.839525 159.974205 
L 338.724845 127.538423 
L 340.610165 149.653771 
L 344.319988 135.836551 
L 346.144492 123.124498 
L 348.029812 140.173778 
L 349.915132 144.268952 
L 351.618002 152.476602 
L 353.503322 131.364884 
L 355.327825 149.989081 
L 357.213145 140.10522 
L 359.037648 127.902101 
L 360.922968 140.345671 
L 362.808288 154.692183 
L 364.632792 138.276822 
L 366.518112 171.619013 
L 368.342615 109.903001 
L 370.227935 146.740859 
L 372.113255 159.861567 
L 373.816125 130.594922 
L 375.701445 151.082021 
L 377.525948 144.950018 
L 379.411268 144.203449 
L 381.235771 154.787048 
L 383.121091 152.12651 
L 386.830915 186.190059 
L 388.716235 119.934091 
L 390.540738 129.917813 
L 392.426058 159.903632 
L 394.311378 201.400853 
L 397.960385 105.425377 
L 399.784888 130.690225 
L 401.670208 153.900883 
L 403.494711 143.6644 
L 405.380031 127.273645 
L 407.265351 142.638873 
L 409.089855 154.876112 
L 410.975175 155.397127 
L 412.799678 142.645677 
L 414.684998 122.557298 
L 416.570318 140.846443 
L 418.273188 132.459747 
L 420.158508 138.512058 
L 421.983011 152.667267 
L 423.868331 138.929684 
L 425.692835 138.298643 
L 429.463475 149.639639 
L 431.287978 139.200203 
L 433.173298 131.249741 
L 434.997801 139.636948 
L 436.883121 130.130873 
L 438.768441 115.816721 
L 440.471311 173.366099 
L 442.356631 150.948637 
L 444.181134 164.03189 
L 446.066454 136.895963 
L 447.890958 135.769995 
L 449.776278 139.675982 
L 451.661598 133.27116 
L 453.486101 138.923246 
L 455.371421 180.861793 
L 457.195924 167.212436 
L 459.081244 194.454773 
L 460.966565 138.681793 
L 462.669434 109.072096 
L 464.554754 137.047096 
L 466.379258 124.081901 
L 468.264578 163.059007 
L 470.089081 141.038533 
L 471.974401 123.317585 
L 473.859721 175.358373 
L 475.684224 128.712623 
L 477.569544 151.41172 
L 479.394048 118.944347 
L 481.279368 133.149905 
L 483.164688 126.736444 
L 484.928374 150.489595 
L 486.813694 308.77217 
L 488.638198 119.959322 
L 490.523518 108.705952 
L 492.348021 104.250864 
L 494.233341 125.846792 
L 496.118661 108.481511 
L 497.943164 156.094239 
L 501.652988 122.267068 
L 503.538308 120.021433 
L 505.423628 130.591983 
L 507.126497 132.783425 
L 509.011817 145.081572 
L 510.836321 107.352416 
L 512.721641 145.476873 
L 514.546144 137.696166 
L 516.431464 128.47482 
L 518.316784 134.910284 
L 520.141287 151.744891 
L 522.026607 147.735578 
L 523.851111 116.357234 
L 525.736431 149.10196 
L 527.621751 166.64193 
L 529.324621 173.208955 
L 531.209941 157.876074 
L 533.034444 150.281246 
L 534.919764 212.681362 
L 536.744267 176.975758 
L 538.629587 147.83449 
L 540.514907 104.447699 
L 542.339411 207.939912 
L 544.224731 174.902199 
L 546.049234 112.754088 
L 547.934554 151.26384 
L 549.819874 141.099508 
L 551.522744 128.105039 
L 553.408064 170.974733 
L 555.232567 121.965046 
L 557.117887 145.809346 
L 558.94239 115.133336 
L 560.82771 122.749671 
L 562.71303 158.76205 
L 564.537534 158.442131 
L 566.422854 174.405199 
L 568.247357 117.557746 
L 570.132677 113.419226 
L 570.132677 113.419226 
" clip-path="url(#paba02ac042)" style="fill: none; stroke-dasharray: 3.7,1.6; stroke-dashoffset: 0; stroke: #000000"/>
   </g>
   <g id="line2d_140">
    <path d="M 62.85995 149.286385 
L 64.74527 155.269809 
L 66.569773 166.652209 
L 68.455093 159.419778 
L 70.279597 146.615556 
L 72.164917 157.819893 
L 74.050237 160.696136 
L 75.87474 154.691116 
L 77.76006 177.407013 
L 79.584563 145.18341 
L 81.469883 148.138886 
L 83.355203 164.482052 
L 85.058073 153.744939 
L 86.943393 158.103043 
L 88.767896 153.182341 
L 90.653216 158.440548 
L 92.47772 157.230296 
L 94.36304 159.184034 
L 96.24836 167.739492 
L 98.072863 137.888866 
L 99.958183 149.267561 
L 101.782686 157.431951 
L 103.668006 142.972196 
L 105.553327 154.925685 
L 107.256196 151.893107 
L 109.141516 159.758101 
L 110.96602 144.822933 
L 112.85134 143.292526 
L 114.675843 127.154416 
L 116.561163 129.888012 
L 118.446483 168.002718 
L 120.270986 161.667611 
L 122.156306 137.19788 
L 123.98081 146.390503 
L 125.86613 142.870761 
L 127.75145 137.521994 
L 129.515136 131.462934 
L 131.400456 145.63254 
L 133.22496 144.850338 
L 135.11028 156.951248 
L 136.934783 160.997602 
L 138.820103 139.189713 
L 140.705423 147.537175 
L 142.529926 144.371689 
L 144.415246 137.152108 
L 146.23975 147.538039 
L 148.12507 139.791184 
L 150.01039 145.138161 
L 151.713259 151.837542 
L 153.598579 142.020781 
L 155.423083 156.272363 
L 157.308403 148.918555 
L 159.132906 137.988595 
L 161.018226 139.203723 
L 162.903546 148.270959 
L 164.728049 148.609087 
L 166.613369 144.605518 
L 168.437873 158.248471 
L 170.323193 138.557462 
L 172.208513 142.202181 
L 173.911383 143.132109 
L 175.796703 150.487985 
L 177.621206 146.532153 
L 179.506526 150.928111 
L 181.331029 151.34212 
L 183.216349 152.345921 
L 185.101669 143.606213 
L 186.926173 137.351524 
L 188.811493 138.324842 
L 190.635996 139.608255 
L 192.521316 141.076559 
L 194.406636 141.82276 
L 196.109506 150.041042 
L 197.994826 143.03591 
L 199.819329 149.456902 
L 201.704649 139.38649 
L 203.529152 143.03078 
L 205.414472 154.781751 
L 207.299792 143.977032 
L 209.124296 151.922583 
L 211.009616 136.966922 
L 212.834119 144.444855 
L 214.719439 155.179286 
L 216.604759 145.325126 
L 218.368446 158.64372 
L 220.253766 150.51362 
L 222.078269 149.156589 
L 223.963589 148.564975 
L 225.788092 153.088769 
L 227.673412 167.874594 
L 229.558732 162.409719 
L 231.383236 144.94307 
L 233.268556 156.876119 
L 235.093059 216.803587 
L 236.978379 176.313308 
L 238.863699 143.763558 
L 240.566569 203.499779 
L 242.451889 178.262746 
L 244.276392 188.692118 
L 246.161712 162.871666 
L 247.986216 173.967139 
L 249.871536 131.54306 
L 251.756856 147.6179 
L 253.581359 138.286868 
L 255.466679 133.845032 
L 257.291182 110.799187 
L 259.176502 103.897608 
L 261.061822 90.765884 
L 262.764692 141.657313 
L 264.650012 149.948311 
L 266.474515 132.444721 
L 268.359835 142.717325 
L 270.184339 148.488695 
L 272.069659 148.443099 
L 273.954979 140.840474 
L 275.779482 135.672161 
L 277.664802 140.839639 
L 279.489305 133.857033 
L 281.374625 151.5528 
L 283.259946 152.148993 
L 284.962815 137.028233 
L 286.848135 144.763919 
L 288.672639 143.912342 
L 290.557959 143.843966 
L 292.382462 137.573682 
L 294.267782 152.925803 
L 296.153102 139.067526 
L 297.977605 147.792058 
L 299.862925 138.305882 
L 301.687429 151.182327 
L 303.572749 135.151071 
L 305.458069 144.414294 
L 307.221755 136.409235 
L 309.107075 139.485475 
L 310.931579 150.106686 
L 312.816899 140.149009 
L 314.641402 144.145201 
L 316.526722 142.3554 
L 318.412042 137.679461 
L 320.236545 149.98667 
L 322.121865 141.547502 
L 323.946369 149.580773 
L 325.831689 147.749328 
L 327.717009 145.238997 
L 329.419878 146.043953 
L 331.305198 144.352548 
L 335.015022 136.514035 
L 336.839525 147.492343 
L 338.724845 163.537929 
L 340.610165 143.493492 
L 342.434668 149.709064 
L 344.319988 144.798698 
L 346.144492 136.412033 
L 348.029812 144.090786 
L 349.915132 149.220429 
L 351.618002 143.053792 
L 353.503322 144.256234 
L 355.327825 143.090194 
L 357.213145 147.729883 
L 359.037648 139.493495 
L 360.922968 143.782577 
L 362.808288 143.219354 
L 364.632792 145.584736 
L 366.518112 147.796342 
L 368.342615 145.727986 
L 370.227935 138.380901 
L 372.113255 144.802688 
L 373.816125 139.050599 
L 375.701445 150.547833 
L 377.525948 150.52695 
L 379.411268 141.532543 
L 381.235771 158.963676 
L 383.121091 152.430624 
L 385.006411 145.392034 
L 386.830915 149.223753 
L 388.716235 159.617787 
L 390.540738 133.513403 
L 392.426058 153.229239 
L 394.311378 150.095031 
L 396.075065 157.211382 
L 397.960385 134.803908 
L 399.784888 143.093775 
L 401.670208 140.65151 
L 403.494711 151.387828 
L 405.380031 137.831221 
L 407.265351 136.254 
L 409.089855 152.189937 
L 410.975175 152.372901 
L 412.799678 153.775128 
L 414.684998 158.833463 
L 416.570318 147.167648 
L 418.273188 141.279967 
L 420.158508 143.037536 
L 421.983011 147.147498 
L 423.868331 142.666963 
L 425.692835 145.812674 
L 427.578155 141.033296 
L 429.463475 152.247037 
L 431.287978 142.78602 
L 433.173298 145.158032 
L 434.997801 148.414932 
L 436.883121 144.06673 
L 438.768441 144.368833 
L 440.471311 143.997666 
L 442.356631 163.124775 
L 444.181134 143.095691 
L 446.066454 152.155861 
L 447.890958 144.798507 
L 449.776278 141.319486 
L 451.661598 144.905872 
L 453.486101 142.912162 
L 455.371421 147.735301 
L 457.195924 160.163155 
L 459.081244 148.478007 
L 460.966565 151.726196 
L 462.669434 139.310139 
L 464.554754 135.950702 
L 466.379258 143.319174 
L 468.264578 140.330403 
L 470.089081 149.27259 
L 471.974401 132.867499 
L 473.859721 124.851277 
L 475.684224 162.094474 
L 477.569544 142.781166 
L 479.394048 148.530442 
L 481.279368 141.698801 
L 483.164688 145.073611 
L 484.928374 139.609522 
L 486.813694 141.990953 
L 488.638198 168.109647 
L 490.523518 120.777654 
L 492.348021 146.070457 
L 494.233341 146.419863 
L 496.118661 133.563376 
L 497.943164 143.779745 
L 499.828484 156.134925 
L 501.652988 155.649428 
L 503.538308 147.149026 
L 505.423628 146.376313 
L 507.126497 150.558727 
L 509.011817 148.423342 
L 510.836321 157.902742 
L 512.721641 129.681673 
L 514.546144 145.599691 
L 516.431464 137.907652 
L 518.316784 132.924809 
L 520.141287 143.608681 
L 522.026607 152.294334 
L 523.851111 152.450021 
L 525.736431 132.893241 
L 527.621751 144.305806 
L 529.324621 163.260062 
L 531.209941 155.343911 
L 533.034444 152.275284 
L 534.919764 160.900062 
L 536.744267 165.341492 
L 538.629587 155.47934 
L 540.514907 138.966141 
L 542.339411 136.176279 
L 544.224731 180.636694 
L 547.934554 132.450173 
L 549.819874 148.109996 
L 551.522744 145.078203 
L 553.408064 146.552612 
L 555.232567 152.52918 
L 557.117887 134.788092 
L 558.94239 151.473727 
L 560.82771 140.488184 
L 562.71303 144.158474 
L 564.537534 155.950109 
L 566.422854 151.582225 
L 568.247357 158.833385 
L 570.132677 130.603936 
L 570.132677 130.603936 
" clip-path="url(#paba02ac042)" style="fill: none; stroke: #0000ff; stroke-linecap: square"/>
   </g>
   <g id="patch_3">
    <path d="M 37.496314 336.24 
L 37.496314 3.6 
" style="fill: none; stroke: #000000; stroke-width: 0.5; stroke-linejoin: miter; stroke-linecap: square"/>
   </g>
   <g id="patch_4">
    <path d="M 595.496314 336.24 
L 595.496314 3.6 
" style="fill: none; stroke: #000000; stroke-width: 0.5; stroke-linejoin: miter; stroke-linecap: square"/>
   </g>
   <g id="patch_5">
    <path d="M 37.496314 336.24 
L 595.496314 336.24 
" style="fill: none; stroke: #000000; stroke-width: 0.5; stroke-linejoin: miter; stroke-linecap: square"/>
   </g>
   <g id="patch_6">
    <path d="M 37.496314 3.6 
L 595.496314 3.6 
" style="fill: none; stroke: #000000; stroke-width: 0.5; stroke-linejoin: miter; stroke-linecap: square"/>
   </g>
   <g id="legend_1">
    <g id="line2d_141">
     <path d="M 48.296314 285.466213 
L 60.296314 285.466213 
L 72.296314 285.466213 
" style="fill: none; stroke-dasharray: 3.7,1.6; stroke-dashoffset: 0; stroke: #000000"/>
    </g>
    <g id="text_15">
     <!-- rendimenti SP 500 -->
     <g transform="translate(81.896314 289.666213) scale(0.12 -0.12)">
      <defs>
       <path id="CMR17-72" d="M 960 1517 
C 960 2134 1222 2713 1702 2713 
C 1747 2713 1792 2707 1837 2687 
C 1837 2687 1696 2642 1696 2475 
C 1696 2321 1818 2257 1914 2257 
C 1990 2257 2131 2302 2131 2482 
C 2131 2687 1926 2816 1709 2816 
C 1222 2816 1011 2340 947 2115 
L 941 2115 
L 941 2816 
L 198 2745 
L 198 2578 
C 576 2578 634 2540 634 2231 
L 634 443 
C 634 198 608 166 198 166 
L 198 0 
C 352 12 646 12 813 12 
C 998 12 1325 12 1498 0 
L 1498 166 
C 1037 166 960 166 960 455 
L 960 1517 
z
" transform="scale(0.015625)"/>
       <path id="CMR17-65" d="M 2438 1503 
C 2464 1529 2464 1542 2464 1606 
C 2464 2251 2118 2816 1389 2816 
C 710 2816 173 2175 173 1394 
C 173 554 781 -64 1459 -64 
C 2176 -64 2458 619 2458 755 
C 2458 800 2419 800 2406 800 
C 2362 800 2355 787 2330 709 
C 2189 270 1837 51 1504 51 
C 1229 51 954 206 781 490 
C 582 819 582 1200 582 1503 
L 2438 1503 
z
M 589 1600 
C 634 2511 1126 2713 1382 2713 
C 1818 2713 2112 2308 2118 1600 
L 589 1600 
z
" transform="scale(0.015625)"/>
       <path id="CMR17-6e" d="M 2656 1954 
C 2656 2282 2592 2816 1837 2816 
C 1331 2816 1069 2424 973 2166 
L 966 2166 
L 966 2816 
L 211 2745 
L 211 2578 
C 589 2578 646 2540 646 2231 
L 646 443 
C 646 198 621 166 211 166 
L 211 0 
C 365 12 646 12 813 12 
C 979 12 1267 12 1421 0 
L 1421 166 
C 1011 166 986 192 986 443 
L 986 1678 
C 986 2269 1344 2713 1792 2713 
C 2266 2713 2317 2289 2317 1980 
L 2317 443 
C 2317 198 2291 166 1882 166 
L 1882 0 
C 2035 12 2317 12 2483 12 
C 2650 12 2938 12 3091 0 
L 3091 166 
C 2682 166 2656 192 2656 443 
L 2656 1954 
z
" transform="scale(0.015625)"/>
       <path id="CMR17-64" d="M 1869 4345 
L 1869 4179 
C 2246 4179 2304 4141 2304 3843 
L 2304 2371 
C 2278 2403 2016 2816 1498 2816 
C 845 2816 211 2228 211 1376 
C 211 529 806 -64 1434 -64 
C 1978 -64 2259 361 2291 406 
L 2291 -64 
L 3066 -13 
L 3066 154 
C 2688 154 2630 193 2630 503 
L 2630 4416 
L 1869 4345 
z
M 2291 762 
C 2291 568 2176 393 2029 264 
C 1811 70 1594 38 1472 38 
C 1286 38 621 135 621 1369 
C 621 2636 1363 2713 1530 2713 
C 1824 2713 2061 2545 2208 2313 
C 2291 2177 2291 2157 2291 2041 
L 2291 762 
z
" transform="scale(0.015625)"/>
       <path id="CMR17-69" d="M 992 3961 
C 992 4102 877 4224 730 4224 
C 589 4224 467 4108 467 3961 
C 467 3820 582 3699 730 3699 
C 870 3699 992 3814 992 3961 
z
M 243 2745 
L 243 2579 
C 602 2579 653 2540 653 2231 
L 653 443 
C 653 198 627 166 218 166 
L 218 0 
C 371 12 646 12 806 12 
C 960 12 1222 12 1370 0 
L 1370 166 
C 992 166 979 205 979 436 
L 979 2816 
L 243 2745 
z
" transform="scale(0.015625)"/>
       <path id="CMR17-6d" d="M 4326 1954 
C 4326 2276 4269 2816 3507 2816 
C 3072 2816 2771 2520 2656 2173 
L 2650 2173 
C 2573 2700 2195 2816 1837 2816 
C 1331 2816 1069 2424 973 2166 
L 966 2166 
L 966 2816 
L 211 2745 
L 211 2578 
C 589 2578 646 2540 646 2231 
L 646 443 
C 646 198 621 166 211 166 
L 211 0 
C 365 12 646 12 813 12 
C 979 12 1267 12 1421 0 
L 1421 166 
C 1011 166 986 192 986 443 
L 986 1678 
C 986 2269 1344 2713 1792 2713 
C 2266 2713 2317 2289 2317 1980 
L 2317 443 
C 2317 198 2291 166 1882 166 
L 1882 0 
C 2035 12 2317 12 2483 12 
C 2650 12 2938 12 3091 0 
L 3091 166 
C 2682 166 2656 192 2656 443 
L 2656 1678 
C 2656 2269 3014 2713 3462 2713 
C 3936 2713 3987 2289 3987 1980 
L 3987 443 
C 3987 198 3962 166 3552 166 
L 3552 0 
C 3706 12 3987 12 4154 12 
C 4320 12 4608 12 4762 0 
L 4762 166 
C 4352 166 4326 192 4326 443 
L 4326 1954 
z
" transform="scale(0.015625)"/>
       <path id="CMR17-74" d="M 966 2585 
L 1862 2585 
L 1862 2752 
L 966 2752 
L 966 3968 
L 851 3968 
C 838 3292 614 2700 70 2687 
L 70 2585 
L 627 2585 
L 627 778 
C 627 655 627 -64 1370 -64 
C 1747 -64 1965 308 1965 784 
L 1965 1151 
L 1850 1151 
L 1850 790 
C 1850 347 1677 51 1408 51 
C 1222 51 966 179 966 765 
L 966 2585 
z
" transform="scale(0.015625)"/>
       <path id="CMR17-53" d="M 2803 4351 
C 2803 4467 2797 4473 2758 4473 
C 2720 4473 2707 4447 2682 4390 
L 2490 3965 
C 2246 4320 1875 4480 1472 4480 
C 819 4480 294 3958 294 3301 
C 294 3101 339 2817 557 2546 
C 794 2250 1018 2198 1530 2063 
C 1722 2011 2042 1927 2106 1901 
C 2470 1747 2662 1360 2662 999 
C 2662 534 2336 38 1779 38 
C 1094 38 454 425 410 1328 
C 403 1431 397 1437 352 1437 
C 301 1437 294 1431 294 1302 
L 294 0 
C 294 -116 301 -122 339 -122 
C 384 -122 397 -90 486 109 
C 493 128 493 141 614 386 
C 934 -39 1472 -128 1779 -128 
C 2477 -128 2970 457 2970 1141 
C 2970 1476 2848 1734 2778 1850 
C 2509 2263 2221 2340 1914 2417 
C 1869 2437 1856 2437 1498 2527 
C 1152 2617 1005 2662 845 2836 
C 666 3036 602 3243 602 3449 
C 602 3868 934 4326 1478 4326 
C 2157 4326 2579 3842 2675 3036 
C 2694 2920 2701 2914 2746 2914 
C 2803 2914 2803 2933 2803 3043 
L 2803 4351 
z
" transform="scale(0.015625)"/>
       <path id="CMR17-50" d="M 1267 2048 
L 2291 2048 
C 3117 2048 3718 2583 3718 3187 
C 3718 3791 3130 4352 2291 4352 
L 333 4352 
L 333 4185 
C 774 4185 845 4185 845 3899 
L 845 453 
C 845 166 774 166 333 166 
L 333 0 
C 518 12 858 12 1056 12 
C 1254 12 1594 12 1779 0 
L 1779 166 
C 1338 166 1267 166 1267 453 
L 1267 2048 
z
M 1254 2182 
L 1254 3937 
C 1254 4153 1267 4185 1523 4185 
L 2170 4185 
C 2995 4185 3232 3715 3232 3187 
C 3232 2608 2950 2182 2170 2182 
L 1254 2182 
z
" transform="scale(0.015625)"/>
      </defs>
      <use xlink:href="#CMR17-72" transform="scale(0.996264)"/>
      <use xlink:href="#CMR17-65" transform="translate(35.280768 0) scale(0.996264)"/>
      <use xlink:href="#CMR17-6e" transform="translate(75.766428 0) scale(0.996264)"/>
      <use xlink:href="#CMR17-64" transform="translate(126.661798 0) scale(0.996264)"/>
      <use xlink:href="#CMR17-69" transform="translate(177.557168 0) scale(0.996264)"/>
      <use xlink:href="#CMR17-6d" transform="translate(202.428226 0) scale(0.996264)"/>
      <use xlink:href="#CMR17-65" transform="translate(279.347816 0) scale(0.996264)"/>
      <use xlink:href="#CMR17-6e" transform="translate(319.833477 0) scale(0.996264)"/>
      <use xlink:href="#CMR17-74" transform="translate(368.126392 0) scale(0.996264)"/>
      <use xlink:href="#CMR17-69" transform="translate(403.40716 0) scale(0.996264)"/>
      <use xlink:href="#CMR17-53" transform="translate(458.354185 0) scale(0.996264)"/>
      <use xlink:href="#CMR17-50" transform="translate(509.249555 0) scale(0.996264)"/>
      <use xlink:href="#CMR17-35" transform="translate(601.911822 0) scale(0.996264)"/>
      <use xlink:href="#CMR17-30" transform="translate(647.602299 0) scale(0.996264)"/>
      <use xlink:href="#CMR17-30" transform="translate(693.292776 0) scale(0.996264)"/>
     </g>
    </g>
    <g id="line2d_142">
     <path d="M 48.296314 302.190808 
L 60.296314 302.190808 
L 72.296314 302.190808 
" style="fill: none; stroke: #0000ff; stroke-linecap: square"/>
    </g>
    <g id="text_16">
     <!-- forecast Engle-Gragner -->
     <g transform="translate(81.896314 306.390808) scale(0.12 -0.12)">
      <defs>
       <path id="CMR17-66" d="M 979 2585 
L 1709 2585 
L 1709 2752 
L 966 2752 
L 966 3539 
C 966 4076 1235 4377 1510 4377 
C 1594 4377 1690 4363 1754 4339 
C 1702 4326 1568 4281 1568 4121 
C 1568 3955 1696 3904 1786 3904 
C 1875 3904 2003 3955 2003 4121 
C 2003 4353 1773 4480 1517 4480 
C 1152 4480 653 4211 653 3526 
L 653 2752 
L 141 2752 
L 141 2585 
L 653 2585 
L 653 441 
C 653 198 627 166 218 166 
L 218 0 
C 371 12 666 12 832 12 
C 1018 12 1344 12 1517 0 
L 1517 166 
C 1056 166 979 166 979 454 
L 979 2585 
z
" transform="scale(0.015625)"/>
       <path id="CMR17-6f" d="M 2758 1356 
C 2758 2176 2163 2816 1466 2816 
C 768 2816 173 2176 173 1356 
C 173 550 768 -64 1466 -64 
C 2163 -64 2758 550 2758 1356 
z
M 1466 51 
C 1165 51 909 230 762 480 
C 602 768 582 1126 582 1408 
C 582 1676 595 2009 762 2297 
C 890 2508 1139 2713 1466 2713 
C 1754 2713 1997 2553 2150 2329 
C 2349 2028 2349 1606 2349 1408 
C 2349 1158 2336 774 2163 467 
C 1984 172 1709 51 1466 51 
z
" transform="scale(0.015625)"/>
       <path id="CMR17-63" d="M 2234 2240 
C 2112 2240 1933 2240 1933 2015 
C 1933 1836 2080 1785 2163 1785 
C 2208 1785 2394 1804 2394 2028 
C 2394 2476 1958 2816 1466 2816 
C 787 2816 211 2201 211 1379 
C 211 521 813 -64 1466 -64 
C 2259 -64 2458 676 2458 747 
C 2458 773 2451 792 2406 792 
C 2362 792 2355 786 2330 702 
C 2163 180 1798 51 1523 51 
C 1114 51 621 431 621 1385 
C 621 2358 1094 2700 1472 2700 
C 1722 2700 2093 2582 2234 2240 
z
" transform="scale(0.015625)"/>
       <path id="CMR17-61" d="M 2304 1656 
C 2304 2048 2304 2275 2035 2534 
C 1798 2751 1523 2816 1306 2816 
C 800 2816 435 2408 435 1977 
C 435 1740 627 1728 666 1728 
C 749 1728 896 1779 896 1958 
C 896 2118 774 2188 666 2188 
C 640 2188 608 2182 589 2176 
C 723 2594 1069 2713 1293 2713 
C 1613 2713 1965 2421 1965 1875 
L 1965 1632 
C 1587 1619 1133 1568 774 1373 
C 371 1147 256 822 256 576 
C 256 77 832 -64 1171 -64 
C 1523 -64 1850 135 1990 505 
C 2003 219 2182 -39 2464 -39 
C 2598 -39 2938 51 2938 563 
L 2938 926 
L 2822 926 
L 2822 557 
C 2822 161 2650 109 2566 109 
C 2304 109 2304 446 2304 732 
L 2304 1656 
z
M 1965 887 
C 1965 323 1568 38 1216 38 
C 896 38 646 278 646 576 
C 646 771 730 1114 1101 1322 
C 1408 1497 1760 1523 1965 1536 
L 1965 887 
z
" transform="scale(0.015625)"/>
       <path id="CMR17-73" d="M 1978 2688 
C 1978 2803 1971 2809 1933 2809 
C 1907 2809 1901 2803 1824 2707 
C 1805 2681 1747 2617 1728 2592 
C 1523 2809 1235 2816 1126 2816 
C 416 2816 160 2444 160 2073 
C 160 1497 813 1363 998 1324 
C 1402 1241 1542 1216 1677 1100 
C 1760 1024 1901 883 1901 652 
C 1901 384 1747 38 1158 38 
C 602 38 403 460 288 1024 
C 269 1113 269 1120 218 1120 
C 166 1120 160 1113 160 985 
L 160 64 
C 160 -52 166 -58 205 -58 
C 237 -58 243 -52 275 0 
C 314 57 410 211 448 275 
C 576 102 800 -64 1158 -64 
C 1792 -64 2131 281 2131 780 
C 2131 1107 1958 1280 1875 1356 
C 1683 1555 1459 1600 1190 1651 
C 838 1728 390 1817 390 2208 
C 390 2374 480 2726 1126 2726 
C 1811 2726 1850 2086 1862 1881 
C 1869 1849 1901 1843 1920 1843 
C 1978 1843 1978 1862 1978 1971 
L 1978 2688 
z
" transform="scale(0.015625)"/>
       <path id="CMR17-45" d="M 3885 1614 
L 3770 1614 
C 3629 676 3546 166 2419 166 
L 1530 166 
C 1274 166 1261 198 1261 415 
L 1261 2176 
L 1862 2176 
C 2464 2176 2522 1959 2522 1429 
L 2637 1429 
L 2637 3086 
L 2522 3086 
C 2522 2558 2464 2342 1862 2342 
L 1261 2342 
L 1261 3924 
C 1261 4141 1274 4172 1530 4172 
L 2406 4172 
C 3398 4172 3514 3778 3603 2933 
L 3718 2933 
L 3565 4339 
L 326 4339 
L 326 4172 
C 768 4172 838 4172 838 3886 
L 838 453 
C 838 166 768 166 326 166 
L 326 0 
L 3654 0 
L 3885 1614 
z
" transform="scale(0.015625)"/>
       <path id="CMR17-67" d="M 710 1165 
C 832 1068 1043 960 1299 960 
C 1805 960 2240 1359 2240 1895 
C 2240 2063 2189 2321 1997 2521 
C 2176 2713 2438 2777 2586 2777 
C 2611 2777 2650 2777 2682 2758 
C 2656 2751 2598 2726 2598 2623 
C 2598 2540 2656 2483 2739 2483 
C 2835 2483 2886 2547 2886 2630 
C 2886 2751 2790 2880 2586 2880 
C 2330 2880 2106 2758 1926 2591 
C 1734 2764 1504 2828 1299 2828 
C 794 2828 358 2431 358 1895 
C 358 1527 570 1294 634 1230 
C 442 1004 442 742 442 710 
C 442 544 506 300 723 166 
C 390 82 128 -184 128 -517 
C 128 -996 736 -1344 1466 -1344 
C 2170 -1344 2803 -1009 2803 -510 
C 2803 384 1856 384 1363 384 
C 1216 384 954 384 922 390 
C 723 422 589 601 589 825 
C 589 883 589 1024 710 1165 
z
M 1299 1068 
C 736 1068 736 1766 736 1895 
C 736 2024 736 2719 1299 2719 
C 1862 2719 1862 2024 1862 1895 
C 1862 1766 1862 1068 1299 1068 
z
M 1466 -1236 
C 826 -1236 384 -883 384 -517 
C 384 -311 493 -118 634 -11 
C 794 102 858 102 1293 102 
C 1818 102 2547 102 2547 -517 
C 2547 -883 2106 -1236 1466 -1236 
z
" transform="scale(0.015625)"/>
       <path id="CMR17-6c" d="M 979 4416 
L 218 4345 
L 218 4179 
C 595 4179 653 4141 653 3835 
L 653 439 
C 653 198 627 166 218 166 
L 218 0 
C 371 12 653 12 813 12 
C 979 12 1261 12 1414 0 
L 1414 166 
C 1005 166 979 191 979 439 
L 979 4416 
z
" transform="scale(0.015625)"/>
       <path id="CMR17-2d" d="M 1632 1254 
L 1632 1536 
L 26 1536 
L 26 1254 
L 1632 1254 
z
" transform="scale(0.015625)"/>
       <path id="CMR17-47" d="M 3974 1258 
C 3974 1503 3994 1536 4390 1536 
L 4390 1702 
C 4237 1689 3891 1689 3718 1689 
C 3539 1689 3040 1696 2797 1702 
L 2797 1536 
L 2989 1536 
C 3539 1536 3552 1464 3552 1232 
L 3552 806 
C 3552 96 2720 38 2522 38 
C 1862 38 781 496 781 2179 
C 781 3862 1843 4313 2464 4313 
C 3187 4313 3712 3681 3834 2785 
C 3846 2708 3846 2695 3904 2695 
C 3974 2695 3974 2708 3974 2824 
L 3974 4351 
C 3974 4467 3968 4473 3930 4473 
C 3904 4473 3898 4467 3853 4390 
L 3571 3849 
C 3258 4249 2874 4480 2381 4480 
C 1286 4480 294 3507 294 2179 
C 294 858 1267 -128 2394 -128 
C 2912 -128 3418 57 3616 425 
C 3725 161 3904 -20 3936 -20 
C 3968 -20 3974 -13 3974 102 
L 3974 1258 
z
" transform="scale(0.015625)"/>
      </defs>
      <use xlink:href="#CMR17-66" transform="scale(0.996264)"/>
      <use xlink:href="#CMR17-6f" transform="translate(27.473512 0) scale(0.996264)"/>
      <use xlink:href="#CMR17-72" transform="translate(73.16399 0) scale(0.996264)"/>
      <use xlink:href="#CMR17-65" transform="translate(108.444757 0) scale(0.996264)"/>
      <use xlink:href="#CMR17-63" transform="translate(148.930418 0) scale(0.996264)"/>
      <use xlink:href="#CMR17-61" transform="translate(189.416078 0) scale(0.996264)"/>
      <use xlink:href="#CMR17-73" transform="translate(235.106555 0) scale(0.996264)"/>
      <use xlink:href="#CMR17-74" transform="translate(270.907893 0) scale(0.996264)"/>
      <use xlink:href="#CMR17-45" transform="translate(336.264627 0) scale(0.996264)"/>
      <use xlink:href="#CMR17-6e" transform="translate(398.850928 0) scale(0.996264)"/>
      <use xlink:href="#CMR17-67" transform="translate(449.746297 0) scale(0.996264)"/>
      <use xlink:href="#CMR17-6c" transform="translate(495.436775 0) scale(0.996264)"/>
      <use xlink:href="#CMR17-65" transform="translate(520.307833 0) scale(0.996264)"/>
      <use xlink:href="#CMR17-2d" transform="translate(560.793494 0) scale(0.996264)"/>
      <use xlink:href="#CMR17-47" transform="translate(590.86946 0) scale(0.996264)"/>
      <use xlink:href="#CMR17-72" transform="translate(663.224806 0) scale(0.996264)"/>
      <use xlink:href="#CMR17-61" transform="translate(698.505574 0) scale(0.996264)"/>
      <use xlink:href="#CMR17-67" transform="translate(744.196051 0) scale(0.996264)"/>
      <use xlink:href="#CMR17-6e" transform="translate(789.886528 0) scale(0.996264)"/>
      <use xlink:href="#CMR17-65" transform="translate(840.781898 0) scale(0.996264)"/>
      <use xlink:href="#CMR17-72" transform="translate(881.267558 0) scale(0.996264)"/>
     </g>
    </g>
    <g id="patch_7">
     <path d="M 48.296314 323.115404 
L 72.296314 323.115404 
L 72.296314 314.715404 
L 48.296314 314.715404 
z
" style="fill: #808080; fill-opacity: 0.3; stroke: #808080; stroke-opacity: 0.3; stroke-linejoin: miter"/>
    </g>
    <g id="text_17">
     <!-- 99 perc. CI -->
     <g transform="translate(81.896314 323.115404) scale(0.12 -0.12)">
      <defs>
       <path id="CMR17-39" d="M 2253 1871 
C 2253 448 1670 25 1190 25 
C 1043 25 685 43 538 281 
C 704 256 826 345 826 505 
C 826 678 685 736 595 736 
C 538 736 365 710 365 492 
C 365 68 742 -128 1203 -128 
C 1939 -128 2688 665 2688 2090 
C 2688 3857 1971 4224 1485 4224 
C 851 4224 243 3664 243 2800 
C 243 2000 762 1408 1414 1408 
C 1952 1408 2189 1910 2253 2122 
L 2253 1871 
z
M 1427 1510 
C 1254 1510 1011 1542 813 1929 
C 678 2181 678 2477 678 2793 
C 678 3174 678 3438 858 3722 
C 947 3857 1114 4076 1485 4076 
C 2240 4076 2240 2909 2240 2651 
C 2240 2193 2035 1510 1427 1510 
z
" transform="scale(0.015625)"/>
       <path id="CMR17-70" d="M 1408 -1114 
C 998 -1114 973 -1088 973 -834 
L 973 380 
C 1158 109 1427 -64 1766 -64 
C 2406 -64 3053 503 3053 1382 
C 3053 2196 2496 2816 1837 2816 
C 1453 2816 1139 2603 960 2345 
L 960 2816 
L 198 2745 
L 198 2577 
C 576 2577 634 2539 634 2228 
L 634 -834 
C 634 -1081 608 -1114 198 -1114 
L 198 -1280 
C 352 -1268 634 -1268 800 -1268 
C 966 -1268 1254 -1268 1408 -1280 
L 1408 -1114 
z
M 973 2015 
C 973 2106 973 2241 1222 2481 
C 1254 2506 1472 2700 1792 2700 
C 2259 2700 2643 2112 2643 1376 
C 2643 639 2234 38 1728 38 
C 1498 38 1248 148 1056 451 
C 973 594 973 632 973 736 
L 973 2015 
z
" transform="scale(0.015625)"/>
       <path id="CMR17-2e" d="M 1062 262 
C 1062 422 934 524 800 524 
C 672 524 538 422 538 262 
C 538 102 666 0 800 0 
C 928 0 1062 102 1062 262 
z
" transform="scale(0.015625)"/>
       <path id="CMR17-43" d="M 3974 4351 
C 3974 4467 3968 4473 3930 4473 
C 3904 4473 3898 4467 3853 4390 
L 3571 3849 
C 3258 4249 2874 4480 2381 4480 
C 1286 4480 294 3507 294 2179 
C 294 837 1286 -128 2387 -128 
C 3366 -128 3974 741 3974 1482 
C 3974 1547 3974 1573 3917 1573 
C 3866 1573 3866 1553 3859 1495 
C 3808 592 3168 38 2477 38 
C 1824 38 781 502 781 2179 
C 781 3862 1843 4313 2464 4313 
C 3187 4313 3712 3681 3834 2785 
C 3846 2707 3846 2695 3904 2695 
C 3974 2695 3974 2707 3974 2824 
L 3974 4351 
z
" transform="scale(0.015625)"/>
       <path id="CMR17-49" d="M 1261 3898 
C 1261 4185 1338 4185 1798 4185 
L 1798 4352 
C 1594 4339 1267 4339 1050 4339 
C 832 4339 506 4339 301 4352 
L 301 4185 
C 762 4185 838 4185 838 3898 
L 838 453 
C 838 166 762 166 301 166 
L 301 0 
C 506 12 832 12 1050 12 
C 1267 12 1594 12 1798 0 
L 1798 166 
C 1338 166 1261 166 1261 453 
L 1261 3898 
z
" transform="scale(0.015625)"/>
      </defs>
      <use xlink:href="#CMR17-39" transform="scale(0.996264)"/>
      <use xlink:href="#CMR17-39" transform="translate(45.690477 0) scale(0.996264)"/>
      <use xlink:href="#CMR17-70" transform="translate(121.456921 0) scale(0.996264)"/>
      <use xlink:href="#CMR17-65" transform="translate(174.954729 0) scale(0.996264)"/>
      <use xlink:href="#CMR17-72" transform="translate(215.44039 0) scale(0.996264)"/>
      <use xlink:href="#CMR17-63" transform="translate(250.721157 0) scale(0.996264)"/>
      <use xlink:href="#CMR17-2e" transform="translate(291.206818 0) scale(0.996264)"/>
      <use xlink:href="#CMR17-43" transform="translate(356.563537 0) scale(0.996264)"/>
      <use xlink:href="#CMR17-49" transform="translate(423.073417 0) scale(0.996264)"/>
     </g>
    </g>
   </g>
  </g>
 </g>
 <defs>
  <clipPath id="paba02ac042">
   <rect x="37.496314" y="3.6" width="558" height="332.64"/>
  </clipPath>
 </defs>
</svg>
