<?xml version="1.0" encoding="utf-8" standalone="no"?>
<!DOCTYPE svg PUBLIC "-//W3C//DTD SVG 1.1//EN"
  "http://www.w3.org/Graphics/SVG/1.1/DTD/svg11.dtd">
<svg xmlns:xlink="http://www.w3.org/1999/xlink" width="599.096314pt" height="359.281364pt" viewBox="0 0 599.096314 359.281364" xmlns="http://www.w3.org/2000/svg" version="1.1">
 <metadata>
  <rdf:RDF xmlns:dc="http://purl.org/dc/elements/1.1/" xmlns:cc="http://creativecommons.org/ns#" xmlns:rdf="http://www.w3.org/1999/02/22-rdf-syntax-ns#">
   <cc:Work>
    <dc:type rdf:resource="http://purl.org/dc/dcmitype/StillImage"/>
    <dc:date>2025-04-08T14:00:25.684937</dc:date>
    <dc:format>image/svg+xml</dc:format>
    <dc:creator>
     <cc:Agent>
      <dc:title>Matplotlib v3.9.2, https://matplotlib.org/</dc:title>
     </cc:Agent>
    </dc:creator>
   </cc:Work>
  </rdf:RDF>
 </metadata>
 <defs>
  <style type="text/css">*{stroke-linejoin: round; stroke-linecap: butt}</style>
 </defs>
 <g id="figure_1">
  <g id="patch_1">
   <path d="M 0 359.281364 
L 599.096314 359.281364 
L 599.096314 0 
L 0 0 
z
" style="fill: #ffffff"/>
  </g>
  <g id="axes_1">
   <g id="patch_2">
    <path d="M 37.496314 336.24 
L 595.496314 336.24 
L 595.496314 3.6 
L 37.496314 3.6 
z
" style="fill: #ffffff"/>
   </g>
   <g id="PolyCollection_1">
    <defs>
     <path id="mf9071b9179" d="M 62.85995 -287.867828 
L 62.85995 -226.136162 
L 64.74527 -225.768822 
L 66.569773 -226.059958 
L 68.455093 -225.956937 
L 70.279597 -238.748818 
L 72.164917 -230.12125 
L 74.050237 -222.099104 
L 75.87474 -221.324025 
L 77.76006 -224.052436 
L 79.584563 -225.832353 
L 81.469883 -225.815711 
L 83.355203 -224.529931 
L 85.058073 -223.511843 
L 86.943393 -223.678163 
L 88.767896 -224.647551 
L 90.653216 -223.246551 
L 92.47772 -223.140698 
L 94.36304 -224.328285 
L 96.24836 -223.32109 
L 98.072863 -224.997672 
L 99.958183 -224.131661 
L 101.782686 -221.494876 
L 103.668006 -226.074295 
L 105.553327 -222.273694 
L 107.256196 -222.567792 
L 109.141516 -223.064127 
L 110.96602 -223.997459 
L 112.85134 -223.027786 
L 114.675843 -224.345109 
L 116.561163 -225.406305 
L 118.446483 -223.529509 
L 120.270986 -222.393326 
L 122.156306 -225.05752 
L 123.98081 -223.492449 
L 125.86613 -223.895032 
L 127.75145 -224.358577 
L 129.515136 -226.986615 
L 131.400456 -224.273737 
L 133.22496 -225.125512 
L 135.11028 -223.344351 
L 136.934783 -221.732097 
L 138.820103 -224.692444 
L 140.705423 -224.763081 
L 142.529926 -224.896554 
L 144.415246 -226.619279 
L 146.23975 -223.35534 
L 148.12507 -225.802176 
L 150.01039 -224.989229 
L 151.713259 -222.625793 
L 153.598579 -224.707066 
L 155.423083 -221.889859 
L 157.308403 -224.247814 
L 159.132906 -225.737453 
L 161.018226 -225.959437 
L 162.903546 -222.58226 
L 164.728049 -222.457815 
L 166.613369 -224.126486 
L 168.437873 -221.016116 
L 170.323193 -225.007613 
L 172.208513 -225.222331 
L 173.911383 -224.640698 
L 175.796703 -222.065166 
L 177.621206 -222.743556 
L 179.506526 -222.172455 
L 181.331029 -223.146076 
L 183.216349 -223.480492 
L 185.101669 -223.566352 
L 186.926173 -226.308679 
L 188.811493 -226.271243 
L 190.635996 -224.681493 
L 192.521316 -225.663211 
L 194.406636 -224.844185 
L 196.109506 -222.27861 
L 197.994826 -224.656716 
L 199.819329 -223.719472 
L 201.704649 -224.072894 
L 203.529152 -224.385539 
L 205.414472 -222.762062 
L 207.299792 -223.699941 
L 209.124296 -224.077218 
L 211.009616 -222.855495 
L 212.834119 -219.463655 
L 214.719439 -222.418738 
L 216.604759 -219.362352 
L 218.368446 -227.34282 
L 220.253766 -223.806908 
L 222.078269 -223.082992 
L 223.963589 -218.054029 
L 225.788092 -220.625329 
L 227.673412 -228.838968 
L 229.558732 -227.106397 
L 231.383236 -220.146746 
L 233.268556 -224.698996 
L 235.093059 -274.55101 
L 236.978379 -38.161364 
L 238.863699 -223.138516 
L 240.566569 -223.308578 
L 242.451889 -223.110956 
L 244.276392 -222.94222 
L 246.161712 -222.795173 
L 247.986216 -222.849185 
L 249.871536 -222.955357 
L 251.756856 -222.973329 
L 253.581359 -222.973915 
L 255.466679 -223.096544 
L 257.291182 -223.646896 
L 259.176502 -223.747236 
L 261.061822 -223.858142 
L 262.764692 -223.825658 
L 264.650012 -222.363132 
L 266.474515 -224.397237 
L 268.359835 -222.571892 
L 270.184339 -223.795802 
L 272.069659 -223.559386 
L 273.954979 -224.60656 
L 275.779482 -225.034592 
L 277.664802 -223.717542 
L 279.489305 -226.633025 
L 281.374625 -221.072406 
L 283.259946 -223.214339 
L 284.962815 -223.977557 
L 286.848135 -221.858065 
L 288.672639 -223.665599 
L 290.557959 -224.003803 
L 292.382462 -226.247349 
L 294.267782 -223.473869 
L 296.153102 -225.067591 
L 297.977605 -223.362008 
L 299.862925 -223.256417 
L 301.687429 -223.027375 
L 303.572749 -224.475722 
L 305.458069 -224.625361 
L 307.221755 -225.862037 
L 309.107075 -225.049966 
L 310.931579 -221.132033 
L 312.816899 -223.979603 
L 314.641402 -225.078527 
L 316.526722 -224.237016 
L 318.412042 -225.684883 
L 320.236545 -222.103913 
L 322.121865 -223.408403 
L 323.946369 -221.021664 
L 325.831689 -223.691875 
L 327.717009 -223.303117 
L 329.419878 -222.043758 
L 331.305198 -223.205349 
L 333.129702 -224.284546 
L 335.015022 -226.799833 
L 336.839525 -224.022865 
L 338.724845 -223.655149 
L 340.610165 -225.075231 
L 342.434668 -223.449077 
L 344.319988 -222.446315 
L 346.144492 -226.60468 
L 348.029812 -223.703682 
L 349.915132 -221.309928 
L 351.618002 -223.718153 
L 353.503322 -225.801097 
L 355.327825 -225.122576 
L 357.213145 -222.900857 
L 359.037648 -226.887168 
L 360.922968 -224.581616 
L 362.808288 -225.041378 
L 364.632792 -225.735249 
L 366.518112 -223.123933 
L 368.342615 -225.348539 
L 370.227935 -225.651143 
L 372.113255 -226.089303 
L 373.816125 -225.929582 
L 375.701445 -224.261103 
L 377.525948 -221.568525 
L 379.411268 -225.681222 
L 381.235771 -222.487396 
L 383.121091 -224.20805 
L 385.006411 -223.024981 
L 386.830915 -225.520367 
L 388.716235 -222.334096 
L 390.540738 -226.516838 
L 392.426058 -222.404695 
L 394.311378 -222.44583 
L 396.075065 -223.965963 
L 397.960385 -225.380135 
L 399.784888 -223.690763 
L 401.670208 -225.38343 
L 403.494711 -223.169241 
L 405.380031 -227.398935 
L 407.265351 -227.299025 
L 409.089855 -223.106416 
L 410.975175 -220.844065 
L 412.799678 -221.14974 
L 414.684998 -224.308377 
L 416.570318 -224.835918 
L 418.273188 -224.548735 
L 420.158508 -225.239492 
L 421.983011 -222.828346 
L 423.868331 -226.55922 
L 425.692835 -224.891741 
L 427.578155 -227.213615 
L 429.463475 -222.063248 
L 431.287978 -224.955718 
L 433.173298 -225.241429 
L 434.997801 -221.887857 
L 436.883121 -223.95722 
L 438.768441 -224.043493 
L 440.471311 -223.42169 
L 442.356631 -222.746831 
L 444.181134 -223.991252 
L 446.066454 -222.224007 
L 447.890958 -223.323971 
L 449.776278 -225.504426 
L 451.661598 -225.184757 
L 453.486101 -225.293206 
L 455.371421 -222.605478 
L 457.195924 -220.108024 
L 459.081244 -222.817404 
L 460.966565 -225.348663 
L 462.669434 -226.285274 
L 464.554754 -228.027757 
L 466.379258 -226.794195 
L 468.264578 -227.263933 
L 470.089081 -225.829732 
L 471.974401 -227.406785 
L 473.859721 -225.361661 
L 475.684224 -224.585703 
L 477.569544 -223.964026 
L 479.394048 -222.863166 
L 481.279368 -223.562838 
L 483.164688 -223.70433 
L 484.928374 -226.465665 
L 486.813694 -226.197082 
L 488.638198 -224.102863 
L 490.523518 -224.238953 
L 492.348021 -224.406938 
L 494.233341 -223.458619 
L 496.118661 -225.05058 
L 497.943164 -224.59423 
L 499.828484 -220.696266 
L 501.652988 -223.241868 
L 503.538308 -225.130492 
L 505.423628 -224.489979 
L 507.126497 -224.599643 
L 509.011817 -224.923603 
L 510.836321 -224.659539 
L 512.721641 -224.941497 
L 514.546144 -224.253911 
L 516.431464 -226.378354 
L 518.316784 -226.673778 
L 520.141287 -224.915438 
L 522.026607 -220.903514 
L 523.851111 -224.493198 
L 525.736431 -225.403848 
L 527.621751 -226.369576 
L 529.324621 -223.532284 
L 531.209941 -224.895182 
L 533.034444 -223.637781 
L 534.919764 -225.370512 
L 536.744267 -224.415645 
L 538.629587 -221.927239 
L 540.514907 -224.414469 
L 542.339411 -226.346342 
L 544.224731 -223.125279 
L 546.049234 -223.918108 
L 547.934554 -224.084868 
L 549.819874 -225.96192 
L 551.522744 -225.610612 
L 553.408064 -222.179404 
L 555.232567 -222.485193 
L 557.117887 -228.389492 
L 558.94239 -221.950715 
L 560.82771 -223.793535 
L 562.71303 -223.811373 
L 564.537534 -220.311625 
L 566.422854 -221.245923 
L 568.247357 -220.45125 
L 570.132677 -225.170295 
L 570.132677 -290.457576 
L 570.132677 -290.457576 
L 568.247357 -285.710893 
L 566.422854 -286.508843 
L 564.537534 -285.608786 
L 562.71303 -289.135396 
L 560.82771 -289.125969 
L 558.94239 -287.255065 
L 557.117887 -293.719964 
L 555.232567 -287.815061 
L 553.408064 -287.518669 
L 551.522744 -290.972521 
L 549.819874 -291.363482 
L 547.934554 -289.520728 
L 546.049234 -289.332946 
L 544.224731 -288.542903 
L 542.339411 -291.567717 
L 540.514907 -289.586053 
L 538.629587 -287.14309 
L 536.744267 -289.618452 
L 534.919764 -290.360275 
L 533.034444 -288.664499 
L 531.209941 -289.947885 
L 529.324621 -288.592495 
L 527.621751 -291.432985 
L 525.736431 -290.500009 
L 523.851111 -289.580271 
L 522.026607 -286.019132 
L 520.141287 -290.06352 
L 518.316784 -291.858596 
L 516.431464 -291.592104 
L 514.546144 -289.501063 
L 512.721641 -290.225738 
L 510.836321 -289.91011 
L 509.011817 -290.211819 
L 507.126497 -289.917097 
L 505.423628 -289.83539 
L 503.538308 -290.485371 
L 501.652988 -288.596788 
L 499.828484 -286.076475 
L 497.943164 -290.005119 
L 496.118661 -290.433631 
L 494.233341 -288.84991 
L 492.348021 -289.748124 
L 490.523518 -289.547152 
L 488.638198 -289.41172 
L 486.813694 -290.049863 
L 484.928374 -290.352224 
L 483.164688 -287.604074 
L 481.279368 -287.490275 
L 479.394048 -286.776631 
L 477.569544 -287.912051 
L 475.684224 -288.552226 
L 473.859721 -289.315309 
L 471.974401 -291.386698 
L 470.089081 -289.85294 
L 468.264578 -291.290703 
L 466.379258 -290.84201 
L 464.554754 -292.103632 
L 462.669434 -290.336721 
L 460.966565 -289.429677 
L 459.081244 -286.826648 
L 457.195924 -284.147346 
L 455.371421 -286.622003 
L 453.486101 -289.349749 
L 451.661598 -289.273388 
L 449.776278 -289.631621 
L 447.890958 -287.479364 
L 446.066454 -286.400175 
L 444.181134 -288.188677 
L 442.356631 -286.991655 
L 440.471311 -287.667279 
L 438.768441 -288.27533 
L 436.883121 -288.209934 
L 434.997801 -286.166183 
L 433.173298 -289.546213 
L 431.287978 -289.296496 
L 429.463475 -286.448799 
L 427.578155 -291.631065 
L 425.692835 -289.340799 
L 423.868331 -291.045432 
L 421.983011 -287.35505 
L 420.158508 -289.800186 
L 418.273188 -289.133793 
L 416.570318 -289.456188 
L 414.684998 -288.934591 
L 412.799678 -285.807134 
L 410.975175 -285.538917 
L 409.089855 -287.841997 
L 407.265351 -292.071003 
L 405.380031 -292.202795 
L 403.494711 -288.005835 
L 401.670208 -290.252378 
L 399.784888 -288.581225 
L 397.960385 -290.232205 
L 396.075065 -288.857906 
L 394.311378 -287.223047 
L 392.426058 -287.220899 
L 390.540738 -291.375007 
L 388.716235 -287.167584 
L 386.830915 -290.289985 
L 385.006411 -287.803943 
L 383.121091 -289.028806 
L 381.235771 -287.353923 
L 379.411268 -290.578766 
L 377.525948 -286.501831 
L 375.701445 -289.239871 
L 373.816125 -290.938352 
L 372.113255 -291.120496 
L 370.227935 -290.722322 
L 368.342615 -290.395874 
L 366.518112 -288.180375 
L 364.632792 -290.828013 
L 362.808288 -290.161081 
L 360.922968 -289.741078 
L 359.037648 -292.079777 
L 357.213145 -288.131321 
L 355.327825 -290.38803 
L 353.503322 -291.096296 
L 351.618002 -289.050456 
L 349.915132 -286.675837 
L 348.029812 -289.107216 
L 346.144492 -292.037122 
L 344.319988 -287.9069 
L 342.434668 -288.946334 
L 340.610165 -290.611684 
L 338.724845 -289.207536 
L 336.839525 -289.608686 
L 335.015022 -292.402016 
L 333.129702 -289.928042 
L 331.305198 -288.878307 
L 329.419878 -287.757407 
L 327.717009 -289.010227 
L 325.831689 -289.434216 
L 323.946369 -286.767747 
L 322.121865 -289.192747 
L 320.236545 -287.909765 
L 318.412042 -291.525032 
L 316.526722 -290.11271 
L 314.641402 -290.972038 
L 312.816899 -289.868533 
L 310.931579 -287.061523 
L 309.107075 -291.014764 
L 307.221755 -291.848437 
L 305.458069 -290.611651 
L 303.572749 -290.499865 
L 301.687429 -289.086573 
L 299.862925 -289.339985 
L 297.977605 -289.484464 
L 296.153102 -290.729549 
L 294.267782 -289.154471 
L 292.382462 -291.876327 
L 290.557959 -289.671236 
L 288.672639 -289.369952 
L 286.848135 -287.598735 
L 284.962815 -289.744927 
L 283.259946 -288.995813 
L 281.374625 -286.849913 
L 279.489305 -292.459561 
L 277.664802 -289.5493 
L 275.779482 -290.897892 
L 273.954979 -290.507132 
L 272.069659 -289.502297 
L 270.184339 -289.713725 
L 268.359835 -288.381674 
L 266.474515 -290.226111 
L 264.650012 -288.142873 
L 262.764692 -289.78447 
L 261.061822 -289.811619 
L 259.176502 -289.730619 
L 257.291182 -289.662572 
L 255.466679 -288.808373 
L 253.581359 -288.696229 
L 251.756856 -288.56311 
L 249.871536 -288.586955 
L 247.986216 -288.503967 
L 246.161712 -288.37606 
L 244.276392 -288.147801 
L 242.451889 -288.217507 
L 240.566569 -288.261449 
L 238.863699 -288.181283 
L 236.978379 -104.110842 
L 235.093059 -340.561364 
L 233.268556 -288.743424 
L 231.383236 -284.153991 
L 229.558732 -291.215283 
L 227.673412 -292.748535 
L 225.788092 -284.511553 
L 223.963589 -281.927017 
L 222.078269 -286.940619 
L 220.253766 -287.665567 
L 218.368446 -291.204488 
L 216.604759 -283.153563 
L 214.719439 -286.255549 
L 212.834119 -283.264156 
L 211.009616 -286.678469 
L 209.124296 -287.934401 
L 207.299792 -287.500683 
L 205.414472 -286.615078 
L 203.529152 -288.279922 
L 201.704649 -287.982839 
L 199.819329 -287.628083 
L 197.994826 -288.391727 
L 196.109506 -286.059617 
L 194.406636 -288.663324 
L 192.521316 -289.52901 
L 190.635996 -288.568692 
L 188.811493 -290.200437 
L 186.926173 -290.30636 
L 185.101669 -287.763949 
L 183.216349 -287.720913 
L 181.331029 -287.37855 
L 179.506526 -286.269035 
L 177.621206 -286.884193 
L 175.796703 -285.181396 
L 173.911383 -287.870454 
L 172.208513 -288.494714 
L 170.323193 -288.320456 
L 168.437873 -284.306947 
L 166.613369 -287.414959 
L 164.728049 -285.789724 
L 162.903546 -285.95792 
L 161.018226 -289.377792 
L 159.132906 -289.197685 
L 157.308403 -287.751224 
L 155.423083 -285.421149 
L 153.598579 -288.279388 
L 151.713259 -286.236976 
L 150.01039 -288.551235 
L 148.12507 -289.40022 
L 146.23975 -286.935658 
L 144.415246 -290.229646 
L 142.529926 -288.543479 
L 140.705423 -288.43264 
L 138.820103 -288.368345 
L 136.934783 -285.420011 
L 135.11028 -287.051406 
L 133.22496 -288.876362 
L 131.400456 -288.047686 
L 129.515136 -290.866243 
L 127.75145 -288.155657 
L 125.86613 -287.717809 
L 123.98081 -287.359273 
L 122.156306 -288.964444 
L 120.270986 -286.307414 
L 118.446483 -287.500102 
L 116.561163 -289.421488 
L 114.675843 -288.322383 
L 112.85134 -286.963804 
L 110.96602 -287.900127 
L 109.141516 -286.996577 
L 107.256196 -286.350272 
L 105.553327 -286.098357 
L 103.668006 -289.914071 
L 101.782686 -285.229709 
L 99.958183 -287.90282 
L 98.072863 -288.679658 
L 96.24836 -287.040793 
L 94.36304 -287.50598 
L 92.47772 -286.192799 
L 90.653216 -286.313362 
L 88.767896 -287.688344 
L 86.943393 -286.68936 
L 85.058073 -286.507203 
L 83.355203 -287.569052 
L 81.469883 -288.906546 
L 79.584563 -288.902554 
L 77.76006 -287.147932 
L 75.87474 -283.516565 
L 74.050237 -284.335156 
L 72.164917 -292.349241 
L 70.279597 -300.87688 
L 68.455093 -288.01498 
L 66.569773 -288.183905 
L 64.74527 -287.494144 
L 62.85995 -287.867828 
z
" style="stroke: #808080; stroke-opacity: 0.3"/>
    </defs>
    <g clip-path="url(#p52fc8cf635)">
     <use xlink:href="#mf9071b9179" x="0" y="359.281364" style="fill: #808080; fill-opacity: 0.3; stroke: #808080; stroke-opacity: 0.3"/>
    </g>
   </g>
   <g id="matplotlib.axis_1">
    <g id="xtick_1">
     <g id="line2d_1">
      <defs>
       <path id="ma8700b05af" d="M 0 0 
L 0 -3 
" style="stroke: #000000; stroke-width: 0.5"/>
      </defs>
      <g>
       <use xlink:href="#ma8700b05af" x="125.926946" y="336.24" style="stroke: #000000; stroke-width: 0.5"/>
      </g>
     </g>
     <g id="line2d_2">
      <defs>
       <path id="m75b6bcccff" d="M 0 0 
L 0 3 
" style="stroke: #000000; stroke-width: 0.5"/>
      </defs>
      <g>
       <use xlink:href="#m75b6bcccff" x="125.926946" y="3.6" style="stroke: #000000; stroke-width: 0.5"/>
      </g>
     </g>
     <g id="text_1">
      <!-- $\mathdefault{2004}$ -->
      <g transform="translate(109.478375 352.1933) scale(0.18 -0.18)">
       <defs>
        <path id="CMR17-32" d="M 2669 990 
L 2554 990 
C 2490 537 2438 460 2413 422 
C 2381 371 1920 371 1830 371 
L 602 371 
C 832 620 1280 1073 1824 1596 
C 2214 1966 2669 2400 2669 3033 
C 2669 3788 2067 4224 1395 4224 
C 691 4224 262 3603 262 3027 
C 262 2777 448 2745 525 2745 
C 589 2745 781 2783 781 3007 
C 781 3206 614 3264 525 3264 
C 486 3264 448 3257 422 3244 
C 544 3788 915 4057 1306 4057 
C 1862 4057 2227 3616 2227 3033 
C 2227 2477 1901 1998 1536 1583 
L 262 147 
L 262 0 
L 2515 0 
L 2669 990 
z
" transform="scale(0.015625)"/>
        <path id="CMR17-30" d="M 2688 2038 
C 2688 2430 2682 3099 2413 3613 
C 2176 4063 1798 4224 1466 4224 
C 1158 4224 768 4082 525 3620 
C 269 3137 243 2539 243 2038 
C 243 1671 250 1112 448 623 
C 723 -39 1216 -128 1466 -128 
C 1760 -128 2208 -7 2470 604 
C 2662 1048 2688 1568 2688 2038 
z
M 1466 -26 
C 1056 -26 813 328 723 816 
C 653 1196 653 1749 653 2109 
C 653 2604 653 3015 736 3407 
C 858 3954 1216 4121 1466 4121 
C 1728 4121 2067 3947 2189 3420 
C 2272 3054 2278 2623 2278 2109 
C 2278 1691 2278 1176 2202 797 
C 2067 96 1690 -26 1466 -26 
z
" transform="scale(0.015625)"/>
        <path id="CMR17-34" d="M 2150 4147 
C 2150 4281 2144 4288 2029 4288 
L 128 1254 
L 128 1088 
L 1779 1088 
L 1779 460 
C 1779 230 1766 166 1318 166 
L 1197 166 
L 1197 0 
C 1402 12 1747 12 1965 12 
C 2182 12 2528 12 2733 0 
L 2733 166 
L 2611 166 
C 2163 166 2150 230 2150 460 
L 2150 1088 
L 2803 1088 
L 2803 1254 
L 2150 1254 
L 2150 4147 
z
M 1798 3723 
L 1798 1254 
L 256 1254 
L 1798 3723 
z
" transform="scale(0.015625)"/>
       </defs>
       <use xlink:href="#CMR17-32" transform="scale(0.996264)"/>
       <use xlink:href="#CMR17-30" transform="translate(45.690477 0) scale(0.996264)"/>
       <use xlink:href="#CMR17-30" transform="translate(91.380954 0) scale(0.996264)"/>
       <use xlink:href="#CMR17-34" transform="translate(137.071431 0) scale(0.996264)"/>
      </g>
     </g>
    </g>
    <g id="xtick_2">
     <g id="line2d_3">
      <g>
       <use xlink:href="#ma8700b05af" x="214.780256" y="336.24" style="stroke: #000000; stroke-width: 0.5"/>
      </g>
     </g>
     <g id="line2d_4">
      <g>
       <use xlink:href="#m75b6bcccff" x="214.780256" y="3.6" style="stroke: #000000; stroke-width: 0.5"/>
      </g>
     </g>
     <g id="text_2">
      <!-- $\mathdefault{2008}$ -->
      <g transform="translate(198.331684 352.1933) scale(0.18 -0.18)">
       <defs>
        <path id="CMR17-38" d="M 1741 2289 
C 2144 2494 2554 2803 2554 3298 
C 2554 3884 1990 4224 1472 4224 
C 890 4224 378 3800 378 3215 
C 378 3054 416 2777 666 2533 
C 730 2469 998 2276 1171 2154 
C 883 2006 211 1652 211 945 
C 211 282 838 -128 1459 -128 
C 2144 -128 2720 366 2720 1022 
C 2720 1607 2330 1877 2074 2051 
L 1741 2289 
z
M 902 2855 
C 851 2887 595 3086 595 3388 
C 595 3781 998 4076 1459 4076 
C 1965 4076 2336 3716 2336 3298 
C 2336 2700 1670 2359 1638 2359 
C 1632 2359 1626 2359 1574 2398 
L 902 2855 
z
M 2080 1536 
C 2176 1466 2483 1253 2483 861 
C 2483 385 2010 25 1472 25 
C 890 25 448 443 448 951 
C 448 1459 838 1884 1280 2083 
L 2080 1536 
z
" transform="scale(0.015625)"/>
       </defs>
       <use xlink:href="#CMR17-32" transform="scale(0.996264)"/>
       <use xlink:href="#CMR17-30" transform="translate(45.690477 0) scale(0.996264)"/>
       <use xlink:href="#CMR17-30" transform="translate(91.380954 0) scale(0.996264)"/>
       <use xlink:href="#CMR17-38" transform="translate(137.071431 0) scale(0.996264)"/>
      </g>
     </g>
    </g>
    <g id="xtick_3">
     <g id="line2d_5">
      <g>
       <use xlink:href="#ma8700b05af" x="303.633565" y="336.24" style="stroke: #000000; stroke-width: 0.5"/>
      </g>
     </g>
     <g id="line2d_6">
      <g>
       <use xlink:href="#m75b6bcccff" x="303.633565" y="3.6" style="stroke: #000000; stroke-width: 0.5"/>
      </g>
     </g>
     <g id="text_3">
      <!-- $\mathdefault{2012}$ -->
      <g transform="translate(287.184994 352.1933) scale(0.18 -0.18)">
       <defs>
        <path id="CMR17-31" d="M 1702 4083 
C 1702 4217 1696 4224 1606 4224 
C 1357 3927 979 3833 621 3820 
C 602 3820 570 3820 563 3808 
C 557 3795 557 3782 557 3648 
C 755 3648 1088 3686 1344 3839 
L 1344 467 
C 1344 243 1331 166 781 166 
L 589 166 
L 589 0 
C 896 6 1216 12 1523 12 
C 1830 12 2150 6 2458 0 
L 2458 166 
L 2266 166 
C 1715 166 1702 236 1702 467 
L 1702 4083 
z
" transform="scale(0.015625)"/>
       </defs>
       <use xlink:href="#CMR17-32" transform="scale(0.996264)"/>
       <use xlink:href="#CMR17-30" transform="translate(45.690477 0) scale(0.996264)"/>
       <use xlink:href="#CMR17-31" transform="translate(91.380954 0) scale(0.996264)"/>
       <use xlink:href="#CMR17-32" transform="translate(137.071431 0) scale(0.996264)"/>
      </g>
     </g>
    </g>
    <g id="xtick_4">
     <g id="line2d_7">
      <g>
       <use xlink:href="#ma8700b05af" x="392.486875" y="336.24" style="stroke: #000000; stroke-width: 0.5"/>
      </g>
     </g>
     <g id="line2d_8">
      <g>
       <use xlink:href="#m75b6bcccff" x="392.486875" y="3.6" style="stroke: #000000; stroke-width: 0.5"/>
      </g>
     </g>
     <g id="text_4">
      <!-- $\mathdefault{2016}$ -->
      <g transform="translate(376.038303 352.1933) scale(0.18 -0.18)">
       <defs>
        <path id="CMR17-36" d="M 678 2198 
C 678 3712 1395 4076 1811 4076 
C 1946 4076 2272 4049 2400 3782 
C 2298 3782 2106 3782 2106 3558 
C 2106 3385 2246 3328 2336 3328 
C 2394 3328 2566 3353 2566 3571 
C 2566 3987 2246 4224 1805 4224 
C 1043 4224 243 3411 243 2011 
C 243 257 966 -128 1478 -128 
C 2099 -128 2688 431 2688 1295 
C 2688 2101 2170 2688 1517 2688 
C 1126 2688 838 2430 678 1979 
L 678 2198 
z
M 1478 25 
C 691 25 691 1212 691 1450 
C 691 1914 909 2585 1504 2585 
C 1613 2585 1926 2585 2138 2140 
C 2253 1889 2253 1624 2253 1302 
C 2253 954 2253 696 2118 438 
C 1978 173 1773 25 1478 25 
z
" transform="scale(0.015625)"/>
       </defs>
       <use xlink:href="#CMR17-32" transform="scale(0.996264)"/>
       <use xlink:href="#CMR17-30" transform="translate(45.690477 0) scale(0.996264)"/>
       <use xlink:href="#CMR17-31" transform="translate(91.380954 0) scale(0.996264)"/>
       <use xlink:href="#CMR17-36" transform="translate(137.071431 0) scale(0.996264)"/>
      </g>
     </g>
    </g>
    <g id="xtick_5">
     <g id="line2d_9">
      <g>
       <use xlink:href="#ma8700b05af" x="481.340184" y="336.24" style="stroke: #000000; stroke-width: 0.5"/>
      </g>
     </g>
     <g id="line2d_10">
      <g>
       <use xlink:href="#m75b6bcccff" x="481.340184" y="3.6" style="stroke: #000000; stroke-width: 0.5"/>
      </g>
     </g>
     <g id="text_5">
      <!-- $\mathdefault{2020}$ -->
      <g transform="translate(464.891613 352.1933) scale(0.18 -0.18)">
       <use xlink:href="#CMR17-32" transform="scale(0.996264)"/>
       <use xlink:href="#CMR17-30" transform="translate(45.690477 0) scale(0.996264)"/>
       <use xlink:href="#CMR17-32" transform="translate(91.380954 0) scale(0.996264)"/>
       <use xlink:href="#CMR17-30" transform="translate(137.071431 0) scale(0.996264)"/>
      </g>
     </g>
    </g>
    <g id="xtick_6">
     <g id="line2d_11">
      <g>
       <use xlink:href="#ma8700b05af" x="570.193494" y="336.24" style="stroke: #000000; stroke-width: 0.5"/>
      </g>
     </g>
     <g id="line2d_12">
      <g>
       <use xlink:href="#m75b6bcccff" x="570.193494" y="3.6" style="stroke: #000000; stroke-width: 0.5"/>
      </g>
     </g>
     <g id="text_6">
      <!-- $\mathdefault{2024}$ -->
      <g transform="translate(553.744922 352.1933) scale(0.18 -0.18)">
       <use xlink:href="#CMR17-32" transform="scale(0.996264)"/>
       <use xlink:href="#CMR17-30" transform="translate(45.690477 0) scale(0.996264)"/>
       <use xlink:href="#CMR17-32" transform="translate(91.380954 0) scale(0.996264)"/>
       <use xlink:href="#CMR17-34" transform="translate(137.071431 0) scale(0.996264)"/>
      </g>
     </g>
    </g>
    <g id="xtick_7">
     <g id="line2d_13">
      <defs>
       <path id="m0089f96956" d="M 0 0 
L 0 -1.5 
" style="stroke: #000000; stroke-width: 0.5"/>
      </defs>
      <g>
       <use xlink:href="#m0089f96956" x="59.286964" y="336.24" style="stroke: #000000; stroke-width: 0.5"/>
      </g>
     </g>
     <g id="line2d_14">
      <defs>
       <path id="mc19536dec5" d="M 0 0 
L 0 1.5 
" style="stroke: #000000; stroke-width: 0.5"/>
      </defs>
      <g>
       <use xlink:href="#mc19536dec5" x="59.286964" y="3.6" style="stroke: #000000; stroke-width: 0.5"/>
      </g>
     </g>
    </g>
    <g id="xtick_8">
     <g id="line2d_15">
      <g>
       <use xlink:href="#m0089f96956" x="81.500292" y="336.24" style="stroke: #000000; stroke-width: 0.5"/>
      </g>
     </g>
     <g id="line2d_16">
      <g>
       <use xlink:href="#mc19536dec5" x="81.500292" y="3.6" style="stroke: #000000; stroke-width: 0.5"/>
      </g>
     </g>
    </g>
    <g id="xtick_9">
     <g id="line2d_17">
      <g>
       <use xlink:href="#m0089f96956" x="103.713619" y="336.24" style="stroke: #000000; stroke-width: 0.5"/>
      </g>
     </g>
     <g id="line2d_18">
      <g>
       <use xlink:href="#mc19536dec5" x="103.713619" y="3.6" style="stroke: #000000; stroke-width: 0.5"/>
      </g>
     </g>
    </g>
    <g id="xtick_10">
     <g id="line2d_19">
      <g>
       <use xlink:href="#m0089f96956" x="148.140274" y="336.24" style="stroke: #000000; stroke-width: 0.5"/>
      </g>
     </g>
     <g id="line2d_20">
      <g>
       <use xlink:href="#mc19536dec5" x="148.140274" y="3.6" style="stroke: #000000; stroke-width: 0.5"/>
      </g>
     </g>
    </g>
    <g id="xtick_11">
     <g id="line2d_21">
      <g>
       <use xlink:href="#m0089f96956" x="170.353601" y="336.24" style="stroke: #000000; stroke-width: 0.5"/>
      </g>
     </g>
     <g id="line2d_22">
      <g>
       <use xlink:href="#mc19536dec5" x="170.353601" y="3.6" style="stroke: #000000; stroke-width: 0.5"/>
      </g>
     </g>
    </g>
    <g id="xtick_12">
     <g id="line2d_23">
      <g>
       <use xlink:href="#m0089f96956" x="192.566929" y="336.24" style="stroke: #000000; stroke-width: 0.5"/>
      </g>
     </g>
     <g id="line2d_24">
      <g>
       <use xlink:href="#mc19536dec5" x="192.566929" y="3.6" style="stroke: #000000; stroke-width: 0.5"/>
      </g>
     </g>
    </g>
    <g id="xtick_13">
     <g id="line2d_25">
      <g>
       <use xlink:href="#m0089f96956" x="236.993583" y="336.24" style="stroke: #000000; stroke-width: 0.5"/>
      </g>
     </g>
     <g id="line2d_26">
      <g>
       <use xlink:href="#mc19536dec5" x="236.993583" y="3.6" style="stroke: #000000; stroke-width: 0.5"/>
      </g>
     </g>
    </g>
    <g id="xtick_14">
     <g id="line2d_27">
      <g>
       <use xlink:href="#m0089f96956" x="259.206911" y="336.24" style="stroke: #000000; stroke-width: 0.5"/>
      </g>
     </g>
     <g id="line2d_28">
      <g>
       <use xlink:href="#mc19536dec5" x="259.206911" y="3.6" style="stroke: #000000; stroke-width: 0.5"/>
      </g>
     </g>
    </g>
    <g id="xtick_15">
     <g id="line2d_29">
      <g>
       <use xlink:href="#m0089f96956" x="281.420238" y="336.24" style="stroke: #000000; stroke-width: 0.5"/>
      </g>
     </g>
     <g id="line2d_30">
      <g>
       <use xlink:href="#mc19536dec5" x="281.420238" y="3.6" style="stroke: #000000; stroke-width: 0.5"/>
      </g>
     </g>
    </g>
    <g id="xtick_16">
     <g id="line2d_31">
      <g>
       <use xlink:href="#m0089f96956" x="325.846893" y="336.24" style="stroke: #000000; stroke-width: 0.5"/>
      </g>
     </g>
     <g id="line2d_32">
      <g>
       <use xlink:href="#mc19536dec5" x="325.846893" y="3.6" style="stroke: #000000; stroke-width: 0.5"/>
      </g>
     </g>
    </g>
    <g id="xtick_17">
     <g id="line2d_33">
      <g>
       <use xlink:href="#m0089f96956" x="348.06022" y="336.24" style="stroke: #000000; stroke-width: 0.5"/>
      </g>
     </g>
     <g id="line2d_34">
      <g>
       <use xlink:href="#mc19536dec5" x="348.06022" y="3.6" style="stroke: #000000; stroke-width: 0.5"/>
      </g>
     </g>
    </g>
    <g id="xtick_18">
     <g id="line2d_35">
      <g>
       <use xlink:href="#m0089f96956" x="370.273548" y="336.24" style="stroke: #000000; stroke-width: 0.5"/>
      </g>
     </g>
     <g id="line2d_36">
      <g>
       <use xlink:href="#mc19536dec5" x="370.273548" y="3.6" style="stroke: #000000; stroke-width: 0.5"/>
      </g>
     </g>
    </g>
    <g id="xtick_19">
     <g id="line2d_37">
      <g>
       <use xlink:href="#m0089f96956" x="414.700202" y="336.24" style="stroke: #000000; stroke-width: 0.5"/>
      </g>
     </g>
     <g id="line2d_38">
      <g>
       <use xlink:href="#mc19536dec5" x="414.700202" y="3.6" style="stroke: #000000; stroke-width: 0.5"/>
      </g>
     </g>
    </g>
    <g id="xtick_20">
     <g id="line2d_39">
      <g>
       <use xlink:href="#m0089f96956" x="436.91353" y="336.24" style="stroke: #000000; stroke-width: 0.5"/>
      </g>
     </g>
     <g id="line2d_40">
      <g>
       <use xlink:href="#mc19536dec5" x="436.91353" y="3.6" style="stroke: #000000; stroke-width: 0.5"/>
      </g>
     </g>
    </g>
    <g id="xtick_21">
     <g id="line2d_41">
      <g>
       <use xlink:href="#m0089f96956" x="459.126857" y="336.24" style="stroke: #000000; stroke-width: 0.5"/>
      </g>
     </g>
     <g id="line2d_42">
      <g>
       <use xlink:href="#mc19536dec5" x="459.126857" y="3.6" style="stroke: #000000; stroke-width: 0.5"/>
      </g>
     </g>
    </g>
    <g id="xtick_22">
     <g id="line2d_43">
      <g>
       <use xlink:href="#m0089f96956" x="503.553512" y="336.24" style="stroke: #000000; stroke-width: 0.5"/>
      </g>
     </g>
     <g id="line2d_44">
      <g>
       <use xlink:href="#mc19536dec5" x="503.553512" y="3.6" style="stroke: #000000; stroke-width: 0.5"/>
      </g>
     </g>
    </g>
    <g id="xtick_23">
     <g id="line2d_45">
      <g>
       <use xlink:href="#m0089f96956" x="525.766839" y="336.24" style="stroke: #000000; stroke-width: 0.5"/>
      </g>
     </g>
     <g id="line2d_46">
      <g>
       <use xlink:href="#mc19536dec5" x="525.766839" y="3.6" style="stroke: #000000; stroke-width: 0.5"/>
      </g>
     </g>
    </g>
    <g id="xtick_24">
     <g id="line2d_47">
      <g>
       <use xlink:href="#m0089f96956" x="547.980167" y="336.24" style="stroke: #000000; stroke-width: 0.5"/>
      </g>
     </g>
     <g id="line2d_48">
      <g>
       <use xlink:href="#mc19536dec5" x="547.980167" y="3.6" style="stroke: #000000; stroke-width: 0.5"/>
      </g>
     </g>
    </g>
    <g id="xtick_25">
     <g id="line2d_49">
      <g>
       <use xlink:href="#m0089f96956" x="592.406821" y="336.24" style="stroke: #000000; stroke-width: 0.5"/>
      </g>
     </g>
     <g id="line2d_50">
      <g>
       <use xlink:href="#mc19536dec5" x="592.406821" y="3.6" style="stroke: #000000; stroke-width: 0.5"/>
      </g>
     </g>
    </g>
   </g>
   <g id="matplotlib.axis_2">
    <g id="ytick_1">
     <g id="line2d_51">
      <defs>
       <path id="m9bc2a3c9ef" d="M 0 0 
L 3 0 
" style="stroke: #000000; stroke-width: 0.5"/>
      </defs>
      <g>
       <use xlink:href="#m9bc2a3c9ef" x="37.496314" y="308.744553" style="stroke: #000000; stroke-width: 0.5"/>
      </g>
     </g>
     <g id="line2d_52">
      <defs>
       <path id="m8a2a9c25e8" d="M 0 0 
L -3 0 
" style="stroke: #000000; stroke-width: 0.5"/>
      </defs>
      <g>
       <use xlink:href="#m8a2a9c25e8" x="595.496314" y="308.744553" style="stroke: #000000; stroke-width: 0.5"/>
      </g>
     </g>
     <g id="text_7">
      <!-- $\mathdefault{−50}$ -->
      <g transform="translate(3.6 314.971203) scale(0.18 -0.18)">
       <defs>
        <path id="CMSY10-0" d="M 4218 1472 
C 4326 1472 4442 1472 4442 1600 
C 4442 1728 4326 1728 4218 1728 
L 755 1728 
C 646 1728 531 1728 531 1600 
C 531 1472 646 1472 755 1472 
L 4218 1472 
z
" transform="scale(0.015625)"/>
        <path id="CMR17-35" d="M 730 3750 
C 794 3724 1056 3641 1325 3641 
C 1920 3641 2246 3961 2432 4140 
C 2432 4191 2432 4224 2394 4224 
C 2387 4224 2374 4224 2323 4198 
C 2099 4102 1837 4032 1517 4032 
C 1325 4032 1037 4055 723 4191 
C 653 4224 640 4224 634 4224 
C 602 4224 595 4217 595 4090 
L 595 2231 
C 595 2113 595 2080 659 2080 
C 691 2080 704 2093 736 2139 
C 941 2435 1222 2560 1542 2560 
C 1766 2560 2246 2415 2246 1293 
C 2246 1087 2246 716 2054 422 
C 1894 159 1645 25 1370 25 
C 947 25 518 319 403 812 
C 429 806 480 793 506 793 
C 589 793 749 838 749 1036 
C 749 1209 627 1280 506 1280 
C 358 1280 262 1190 262 1011 
C 262 454 704 -128 1382 -128 
C 2042 -128 2669 441 2669 1267 
C 2669 2054 2170 2662 1549 2662 
C 1222 2662 947 2540 730 2304 
L 730 3750 
z
" transform="scale(0.015625)"/>
       </defs>
       <use xlink:href="#CMSY10-0" transform="scale(0.996264)"/>
       <use xlink:href="#CMR17-35" transform="translate(77.487468 0) scale(0.996264)"/>
       <use xlink:href="#CMR17-30" transform="translate(123.177945 0) scale(0.996264)"/>
      </g>
     </g>
    </g>
    <g id="ytick_2">
     <g id="line2d_53">
      <g>
       <use xlink:href="#m9bc2a3c9ef" x="37.496314" y="268.329199" style="stroke: #000000; stroke-width: 0.5"/>
      </g>
     </g>
     <g id="line2d_54">
      <g>
       <use xlink:href="#m8a2a9c25e8" x="595.496314" y="268.329199" style="stroke: #000000; stroke-width: 0.5"/>
      </g>
     </g>
     <g id="text_8">
      <!-- $\mathdefault{−40}$ -->
      <g transform="translate(3.6 274.555849) scale(0.18 -0.18)">
       <use xlink:href="#CMSY10-0" transform="scale(0.996264)"/>
       <use xlink:href="#CMR17-34" transform="translate(77.487468 0) scale(0.996264)"/>
       <use xlink:href="#CMR17-30" transform="translate(123.177945 0) scale(0.996264)"/>
      </g>
     </g>
    </g>
    <g id="ytick_3">
     <g id="line2d_55">
      <g>
       <use xlink:href="#m9bc2a3c9ef" x="37.496314" y="227.913846" style="stroke: #000000; stroke-width: 0.5"/>
      </g>
     </g>
     <g id="line2d_56">
      <g>
       <use xlink:href="#m8a2a9c25e8" x="595.496314" y="227.913846" style="stroke: #000000; stroke-width: 0.5"/>
      </g>
     </g>
     <g id="text_9">
      <!-- $\mathdefault{−30}$ -->
      <g transform="translate(3.6 234.140496) scale(0.18 -0.18)">
       <defs>
        <path id="CMR17-33" d="M 1414 2176 
C 1984 2176 2234 1673 2234 1094 
C 2234 322 1824 25 1453 25 
C 1114 25 563 193 390 691 
C 422 678 454 678 486 678 
C 640 678 755 780 755 947 
C 755 1132 614 1216 486 1216 
C 378 1216 211 1164 211 927 
C 211 335 787 -128 1466 -128 
C 2176 -128 2720 432 2720 1087 
C 2720 1718 2208 2176 1600 2246 
C 2086 2347 2554 2776 2554 3353 
C 2554 3856 2048 4224 1472 4224 
C 890 4224 378 3862 378 3347 
C 378 3123 544 3084 627 3084 
C 762 3084 877 3167 877 3334 
C 877 3500 762 3584 627 3584 
C 602 3584 570 3584 544 3571 
C 730 3999 1235 4076 1459 4076 
C 1683 4076 2106 3966 2106 3347 
C 2106 3167 2080 2851 1862 2574 
C 1670 2329 1453 2316 1242 2297 
C 1210 2297 1062 2284 1037 2284 
C 992 2278 966 2272 966 2227 
C 966 2182 973 2176 1101 2176 
L 1414 2176 
z
" transform="scale(0.015625)"/>
       </defs>
       <use xlink:href="#CMSY10-0" transform="scale(0.996264)"/>
       <use xlink:href="#CMR17-33" transform="translate(77.487468 0) scale(0.996264)"/>
       <use xlink:href="#CMR17-30" transform="translate(123.177945 0) scale(0.996264)"/>
      </g>
     </g>
    </g>
    <g id="ytick_4">
     <g id="line2d_57">
      <g>
       <use xlink:href="#m9bc2a3c9ef" x="37.496314" y="187.498492" style="stroke: #000000; stroke-width: 0.5"/>
      </g>
     </g>
     <g id="line2d_58">
      <g>
       <use xlink:href="#m8a2a9c25e8" x="595.496314" y="187.498492" style="stroke: #000000; stroke-width: 0.5"/>
      </g>
     </g>
     <g id="text_10">
      <!-- $\mathdefault{−20}$ -->
      <g transform="translate(3.6 193.725142) scale(0.18 -0.18)">
       <use xlink:href="#CMSY10-0" transform="scale(0.996264)"/>
       <use xlink:href="#CMR17-32" transform="translate(77.487468 0) scale(0.996264)"/>
       <use xlink:href="#CMR17-30" transform="translate(123.177945 0) scale(0.996264)"/>
      </g>
     </g>
    </g>
    <g id="ytick_5">
     <g id="line2d_59">
      <g>
       <use xlink:href="#m9bc2a3c9ef" x="37.496314" y="147.083139" style="stroke: #000000; stroke-width: 0.5"/>
      </g>
     </g>
     <g id="line2d_60">
      <g>
       <use xlink:href="#m8a2a9c25e8" x="595.496314" y="147.083139" style="stroke: #000000; stroke-width: 0.5"/>
      </g>
     </g>
     <g id="text_11">
      <!-- $\mathdefault{−10}$ -->
      <g transform="translate(3.6 153.309789) scale(0.18 -0.18)">
       <use xlink:href="#CMSY10-0" transform="scale(0.996264)"/>
       <use xlink:href="#CMR17-31" transform="translate(77.487468 0) scale(0.996264)"/>
       <use xlink:href="#CMR17-30" transform="translate(123.177945 0) scale(0.996264)"/>
      </g>
     </g>
    </g>
    <g id="ytick_6">
     <g id="line2d_61">
      <g>
       <use xlink:href="#m9bc2a3c9ef" x="37.496314" y="106.667785" style="stroke: #000000; stroke-width: 0.5"/>
      </g>
     </g>
     <g id="line2d_62">
      <g>
       <use xlink:href="#m8a2a9c25e8" x="595.496314" y="106.667785" style="stroke: #000000; stroke-width: 0.5"/>
      </g>
     </g>
     <g id="text_12">
      <!-- $\mathdefault{0}$ -->
      <g transform="translate(25.772028 112.894435) scale(0.18 -0.18)">
       <use xlink:href="#CMR17-30" transform="scale(0.996264)"/>
      </g>
     </g>
    </g>
    <g id="ytick_7">
     <g id="line2d_63">
      <g>
       <use xlink:href="#m9bc2a3c9ef" x="37.496314" y="66.252432" style="stroke: #000000; stroke-width: 0.5"/>
      </g>
     </g>
     <g id="line2d_64">
      <g>
       <use xlink:href="#m8a2a9c25e8" x="595.496314" y="66.252432" style="stroke: #000000; stroke-width: 0.5"/>
      </g>
     </g>
     <g id="text_13">
      <!-- $\mathdefault{10}$ -->
      <g transform="translate(17.547742 72.479082) scale(0.18 -0.18)">
       <use xlink:href="#CMR17-31" transform="scale(0.996264)"/>
       <use xlink:href="#CMR17-30" transform="translate(45.690477 0) scale(0.996264)"/>
      </g>
     </g>
    </g>
    <g id="ytick_8">
     <g id="line2d_65">
      <g>
       <use xlink:href="#m9bc2a3c9ef" x="37.496314" y="25.837079" style="stroke: #000000; stroke-width: 0.5"/>
      </g>
     </g>
     <g id="line2d_66">
      <g>
       <use xlink:href="#m8a2a9c25e8" x="595.496314" y="25.837079" style="stroke: #000000; stroke-width: 0.5"/>
      </g>
     </g>
     <g id="text_14">
      <!-- $\mathdefault{20}$ -->
      <g transform="translate(17.547742 32.063729) scale(0.18 -0.18)">
       <use xlink:href="#CMR17-32" transform="scale(0.996264)"/>
       <use xlink:href="#CMR17-30" transform="translate(45.690477 0) scale(0.996264)"/>
      </g>
     </g>
    </g>
    <g id="ytick_9">
     <g id="line2d_67">
      <defs>
       <path id="m647e83be84" d="M 0 0 
L 1.5 0 
" style="stroke: #000000; stroke-width: 0.5"/>
      </defs>
      <g>
       <use xlink:href="#m647e83be84" x="37.496314" y="332.993765" style="stroke: #000000; stroke-width: 0.5"/>
      </g>
     </g>
     <g id="line2d_68">
      <defs>
       <path id="mda2189b333" d="M 0 0 
L -1.5 0 
" style="stroke: #000000; stroke-width: 0.5"/>
      </defs>
      <g>
       <use xlink:href="#mda2189b333" x="595.496314" y="332.993765" style="stroke: #000000; stroke-width: 0.5"/>
      </g>
     </g>
    </g>
    <g id="ytick_10">
     <g id="line2d_69">
      <g>
       <use xlink:href="#m647e83be84" x="37.496314" y="324.910694" style="stroke: #000000; stroke-width: 0.5"/>
      </g>
     </g>
     <g id="line2d_70">
      <g>
       <use xlink:href="#mda2189b333" x="595.496314" y="324.910694" style="stroke: #000000; stroke-width: 0.5"/>
      </g>
     </g>
    </g>
    <g id="ytick_11">
     <g id="line2d_71">
      <g>
       <use xlink:href="#m647e83be84" x="37.496314" y="316.827623" style="stroke: #000000; stroke-width: 0.5"/>
      </g>
     </g>
     <g id="line2d_72">
      <g>
       <use xlink:href="#mda2189b333" x="595.496314" y="316.827623" style="stroke: #000000; stroke-width: 0.5"/>
      </g>
     </g>
    </g>
    <g id="ytick_12">
     <g id="line2d_73">
      <g>
       <use xlink:href="#m647e83be84" x="37.496314" y="300.661482" style="stroke: #000000; stroke-width: 0.5"/>
      </g>
     </g>
     <g id="line2d_74">
      <g>
       <use xlink:href="#mda2189b333" x="595.496314" y="300.661482" style="stroke: #000000; stroke-width: 0.5"/>
      </g>
     </g>
    </g>
    <g id="ytick_13">
     <g id="line2d_75">
      <g>
       <use xlink:href="#m647e83be84" x="37.496314" y="292.578411" style="stroke: #000000; stroke-width: 0.5"/>
      </g>
     </g>
     <g id="line2d_76">
      <g>
       <use xlink:href="#mda2189b333" x="595.496314" y="292.578411" style="stroke: #000000; stroke-width: 0.5"/>
      </g>
     </g>
    </g>
    <g id="ytick_14">
     <g id="line2d_77">
      <g>
       <use xlink:href="#m647e83be84" x="37.496314" y="284.49534" style="stroke: #000000; stroke-width: 0.5"/>
      </g>
     </g>
     <g id="line2d_78">
      <g>
       <use xlink:href="#mda2189b333" x="595.496314" y="284.49534" style="stroke: #000000; stroke-width: 0.5"/>
      </g>
     </g>
    </g>
    <g id="ytick_15">
     <g id="line2d_79">
      <g>
       <use xlink:href="#m647e83be84" x="37.496314" y="276.41227" style="stroke: #000000; stroke-width: 0.5"/>
      </g>
     </g>
     <g id="line2d_80">
      <g>
       <use xlink:href="#mda2189b333" x="595.496314" y="276.41227" style="stroke: #000000; stroke-width: 0.5"/>
      </g>
     </g>
    </g>
    <g id="ytick_16">
     <g id="line2d_81">
      <g>
       <use xlink:href="#m647e83be84" x="37.496314" y="260.246128" style="stroke: #000000; stroke-width: 0.5"/>
      </g>
     </g>
     <g id="line2d_82">
      <g>
       <use xlink:href="#mda2189b333" x="595.496314" y="260.246128" style="stroke: #000000; stroke-width: 0.5"/>
      </g>
     </g>
    </g>
    <g id="ytick_17">
     <g id="line2d_83">
      <g>
       <use xlink:href="#m647e83be84" x="37.496314" y="252.163058" style="stroke: #000000; stroke-width: 0.5"/>
      </g>
     </g>
     <g id="line2d_84">
      <g>
       <use xlink:href="#mda2189b333" x="595.496314" y="252.163058" style="stroke: #000000; stroke-width: 0.5"/>
      </g>
     </g>
    </g>
    <g id="ytick_18">
     <g id="line2d_85">
      <g>
       <use xlink:href="#m647e83be84" x="37.496314" y="244.079987" style="stroke: #000000; stroke-width: 0.5"/>
      </g>
     </g>
     <g id="line2d_86">
      <g>
       <use xlink:href="#mda2189b333" x="595.496314" y="244.079987" style="stroke: #000000; stroke-width: 0.5"/>
      </g>
     </g>
    </g>
    <g id="ytick_19">
     <g id="line2d_87">
      <g>
       <use xlink:href="#m647e83be84" x="37.496314" y="235.996916" style="stroke: #000000; stroke-width: 0.5"/>
      </g>
     </g>
     <g id="line2d_88">
      <g>
       <use xlink:href="#mda2189b333" x="595.496314" y="235.996916" style="stroke: #000000; stroke-width: 0.5"/>
      </g>
     </g>
    </g>
    <g id="ytick_20">
     <g id="line2d_89">
      <g>
       <use xlink:href="#m647e83be84" x="37.496314" y="219.830775" style="stroke: #000000; stroke-width: 0.5"/>
      </g>
     </g>
     <g id="line2d_90">
      <g>
       <use xlink:href="#mda2189b333" x="595.496314" y="219.830775" style="stroke: #000000; stroke-width: 0.5"/>
      </g>
     </g>
    </g>
    <g id="ytick_21">
     <g id="line2d_91">
      <g>
       <use xlink:href="#m647e83be84" x="37.496314" y="211.747704" style="stroke: #000000; stroke-width: 0.5"/>
      </g>
     </g>
     <g id="line2d_92">
      <g>
       <use xlink:href="#mda2189b333" x="595.496314" y="211.747704" style="stroke: #000000; stroke-width: 0.5"/>
      </g>
     </g>
    </g>
    <g id="ytick_22">
     <g id="line2d_93">
      <g>
       <use xlink:href="#m647e83be84" x="37.496314" y="203.664634" style="stroke: #000000; stroke-width: 0.5"/>
      </g>
     </g>
     <g id="line2d_94">
      <g>
       <use xlink:href="#mda2189b333" x="595.496314" y="203.664634" style="stroke: #000000; stroke-width: 0.5"/>
      </g>
     </g>
    </g>
    <g id="ytick_23">
     <g id="line2d_95">
      <g>
       <use xlink:href="#m647e83be84" x="37.496314" y="195.581563" style="stroke: #000000; stroke-width: 0.5"/>
      </g>
     </g>
     <g id="line2d_96">
      <g>
       <use xlink:href="#mda2189b333" x="595.496314" y="195.581563" style="stroke: #000000; stroke-width: 0.5"/>
      </g>
     </g>
    </g>
    <g id="ytick_24">
     <g id="line2d_97">
      <g>
       <use xlink:href="#m647e83be84" x="37.496314" y="179.415422" style="stroke: #000000; stroke-width: 0.5"/>
      </g>
     </g>
     <g id="line2d_98">
      <g>
       <use xlink:href="#mda2189b333" x="595.496314" y="179.415422" style="stroke: #000000; stroke-width: 0.5"/>
      </g>
     </g>
    </g>
    <g id="ytick_25">
     <g id="line2d_99">
      <g>
       <use xlink:href="#m647e83be84" x="37.496314" y="171.332351" style="stroke: #000000; stroke-width: 0.5"/>
      </g>
     </g>
     <g id="line2d_100">
      <g>
       <use xlink:href="#mda2189b333" x="595.496314" y="171.332351" style="stroke: #000000; stroke-width: 0.5"/>
      </g>
     </g>
    </g>
    <g id="ytick_26">
     <g id="line2d_101">
      <g>
       <use xlink:href="#m647e83be84" x="37.496314" y="163.24928" style="stroke: #000000; stroke-width: 0.5"/>
      </g>
     </g>
     <g id="line2d_102">
      <g>
       <use xlink:href="#mda2189b333" x="595.496314" y="163.24928" style="stroke: #000000; stroke-width: 0.5"/>
      </g>
     </g>
    </g>
    <g id="ytick_27">
     <g id="line2d_103">
      <g>
       <use xlink:href="#m647e83be84" x="37.496314" y="155.166209" style="stroke: #000000; stroke-width: 0.5"/>
      </g>
     </g>
     <g id="line2d_104">
      <g>
       <use xlink:href="#mda2189b333" x="595.496314" y="155.166209" style="stroke: #000000; stroke-width: 0.5"/>
      </g>
     </g>
    </g>
    <g id="ytick_28">
     <g id="line2d_105">
      <g>
       <use xlink:href="#m647e83be84" x="37.496314" y="139.000068" style="stroke: #000000; stroke-width: 0.5"/>
      </g>
     </g>
     <g id="line2d_106">
      <g>
       <use xlink:href="#mda2189b333" x="595.496314" y="139.000068" style="stroke: #000000; stroke-width: 0.5"/>
      </g>
     </g>
    </g>
    <g id="ytick_29">
     <g id="line2d_107">
      <g>
       <use xlink:href="#m647e83be84" x="37.496314" y="130.916997" style="stroke: #000000; stroke-width: 0.5"/>
      </g>
     </g>
     <g id="line2d_108">
      <g>
       <use xlink:href="#mda2189b333" x="595.496314" y="130.916997" style="stroke: #000000; stroke-width: 0.5"/>
      </g>
     </g>
    </g>
    <g id="ytick_30">
     <g id="line2d_109">
      <g>
       <use xlink:href="#m647e83be84" x="37.496314" y="122.833927" style="stroke: #000000; stroke-width: 0.5"/>
      </g>
     </g>
     <g id="line2d_110">
      <g>
       <use xlink:href="#mda2189b333" x="595.496314" y="122.833927" style="stroke: #000000; stroke-width: 0.5"/>
      </g>
     </g>
    </g>
    <g id="ytick_31">
     <g id="line2d_111">
      <g>
       <use xlink:href="#m647e83be84" x="37.496314" y="114.750856" style="stroke: #000000; stroke-width: 0.5"/>
      </g>
     </g>
     <g id="line2d_112">
      <g>
       <use xlink:href="#mda2189b333" x="595.496314" y="114.750856" style="stroke: #000000; stroke-width: 0.5"/>
      </g>
     </g>
    </g>
    <g id="ytick_32">
     <g id="line2d_113">
      <g>
       <use xlink:href="#m647e83be84" x="37.496314" y="98.584715" style="stroke: #000000; stroke-width: 0.5"/>
      </g>
     </g>
     <g id="line2d_114">
      <g>
       <use xlink:href="#mda2189b333" x="595.496314" y="98.584715" style="stroke: #000000; stroke-width: 0.5"/>
      </g>
     </g>
    </g>
    <g id="ytick_33">
     <g id="line2d_115">
      <g>
       <use xlink:href="#m647e83be84" x="37.496314" y="90.501644" style="stroke: #000000; stroke-width: 0.5"/>
      </g>
     </g>
     <g id="line2d_116">
      <g>
       <use xlink:href="#mda2189b333" x="595.496314" y="90.501644" style="stroke: #000000; stroke-width: 0.5"/>
      </g>
     </g>
    </g>
    <g id="ytick_34">
     <g id="line2d_117">
      <g>
       <use xlink:href="#m647e83be84" x="37.496314" y="82.418573" style="stroke: #000000; stroke-width: 0.5"/>
      </g>
     </g>
     <g id="line2d_118">
      <g>
       <use xlink:href="#mda2189b333" x="595.496314" y="82.418573" style="stroke: #000000; stroke-width: 0.5"/>
      </g>
     </g>
    </g>
    <g id="ytick_35">
     <g id="line2d_119">
      <g>
       <use xlink:href="#m647e83be84" x="37.496314" y="74.335503" style="stroke: #000000; stroke-width: 0.5"/>
      </g>
     </g>
     <g id="line2d_120">
      <g>
       <use xlink:href="#mda2189b333" x="595.496314" y="74.335503" style="stroke: #000000; stroke-width: 0.5"/>
      </g>
     </g>
    </g>
    <g id="ytick_36">
     <g id="line2d_121">
      <g>
       <use xlink:href="#m647e83be84" x="37.496314" y="58.169361" style="stroke: #000000; stroke-width: 0.5"/>
      </g>
     </g>
     <g id="line2d_122">
      <g>
       <use xlink:href="#mda2189b333" x="595.496314" y="58.169361" style="stroke: #000000; stroke-width: 0.5"/>
      </g>
     </g>
    </g>
    <g id="ytick_37">
     <g id="line2d_123">
      <g>
       <use xlink:href="#m647e83be84" x="37.496314" y="50.086291" style="stroke: #000000; stroke-width: 0.5"/>
      </g>
     </g>
     <g id="line2d_124">
      <g>
       <use xlink:href="#mda2189b333" x="595.496314" y="50.086291" style="stroke: #000000; stroke-width: 0.5"/>
      </g>
     </g>
    </g>
    <g id="ytick_38">
     <g id="line2d_125">
      <g>
       <use xlink:href="#m647e83be84" x="37.496314" y="42.00322" style="stroke: #000000; stroke-width: 0.5"/>
      </g>
     </g>
     <g id="line2d_126">
      <g>
       <use xlink:href="#mda2189b333" x="595.496314" y="42.00322" style="stroke: #000000; stroke-width: 0.5"/>
      </g>
     </g>
    </g>
    <g id="ytick_39">
     <g id="line2d_127">
      <g>
       <use xlink:href="#m647e83be84" x="37.496314" y="33.920149" style="stroke: #000000; stroke-width: 0.5"/>
      </g>
     </g>
     <g id="line2d_128">
      <g>
       <use xlink:href="#mda2189b333" x="595.496314" y="33.920149" style="stroke: #000000; stroke-width: 0.5"/>
      </g>
     </g>
    </g>
    <g id="ytick_40">
     <g id="line2d_129">
      <g>
       <use xlink:href="#m647e83be84" x="37.496314" y="17.754008" style="stroke: #000000; stroke-width: 0.5"/>
      </g>
     </g>
     <g id="line2d_130">
      <g>
       <use xlink:href="#mda2189b333" x="595.496314" y="17.754008" style="stroke: #000000; stroke-width: 0.5"/>
      </g>
     </g>
    </g>
    <g id="ytick_41">
     <g id="line2d_131">
      <g>
       <use xlink:href="#m647e83be84" x="37.496314" y="9.670937" style="stroke: #000000; stroke-width: 0.5"/>
      </g>
     </g>
     <g id="line2d_132">
      <g>
       <use xlink:href="#mda2189b333" x="595.496314" y="9.670937" style="stroke: #000000; stroke-width: 0.5"/>
      </g>
     </g>
    </g>
   </g>
   <g id="line2d_133">
    <path d="M 62.85995 115.811962 
L 64.74527 145.594953 
L 66.569773 105.310223 
L 68.455093 80.200032 
L 70.279597 116.867683 
L 72.164917 118.003275 
L 74.050237 115.470487 
L 75.87474 155.396623 
L 77.76006 94.492131 
L 79.584563 87.213545 
L 81.469883 101.248453 
L 83.355203 108.337361 
L 85.058073 120.931726 
L 86.943393 87.61878 
L 88.767896 121.603252 
L 90.653216 118.724044 
L 92.47772 131.864223 
L 94.36304 153.267573 
L 96.24836 102.679937 
L 98.072863 126.984617 
L 99.958183 112.85302 
L 101.782686 81.327744 
L 103.668006 111.470922 
L 105.553327 108.171807 
L 107.256196 134.110584 
L 109.141516 102.058879 
L 110.96602 86.463582 
L 112.85134 86.331761 
L 114.675843 84.799055 
L 116.561163 104.814897 
L 118.446483 107.895293 
L 120.270986 94.632638 
L 122.156306 99.091783 
L 123.98081 102.344915 
L 127.75145 87.716307 
L 129.515136 102.817796 
L 131.400456 113.576927 
L 133.22496 103.308981 
L 135.11028 117.722358 
L 136.934783 95.827228 
L 138.820103 116.384793 
L 140.705423 112.895599 
L 142.529926 96.146671 
L 144.415246 106.830541 
L 146.23975 88.374645 
L 148.12507 96.335337 
L 150.01039 112.711645 
L 151.713259 100.482403 
L 153.598579 108.264465 
L 155.423083 117.107396 
L 157.308403 101.889053 
L 159.132906 98.528516 
L 161.018226 100.003116 
L 162.903546 105.99709 
L 164.728049 106.123457 
L 166.613369 118.021497 
L 168.437873 91.556829 
L 170.323193 98.679662 
L 172.208513 101.367648 
L 173.911383 107.325722 
L 175.796703 101.293437 
L 177.621206 104.042867 
L 179.506526 110.459608 
L 181.331029 118.37758 
L 183.216349 104.394083 
L 185.101669 98.128711 
L 186.926173 97.175158 
L 188.811493 92.906858 
L 190.635996 99.248359 
L 192.521316 98.662429 
L 194.406636 104.465308 
L 196.109506 100.852526 
L 197.994826 117.396713 
L 199.819329 90.702814 
L 201.704649 93.759991 
L 203.529152 105.852887 
L 205.414472 104.931264 
L 207.299792 124.625391 
L 209.124296 95.028744 
L 211.009616 95.34407 
L 212.834119 127.20119 
L 214.719439 102.319393 
L 216.604759 135.092056 
L 218.368446 113.731999 
L 220.253766 118.143582 
L 222.078269 90.565143 
L 223.963589 97.123357 
L 225.788092 124.922423 
L 227.673412 132.780788 
L 229.558732 98.981823 
L 231.383236 127.546409 
L 233.268556 198.832903 
L 235.093059 144.127844 
L 236.978379 109.18371 
L 238.863699 112.223089 
L 240.566569 135.87671 
L 242.451889 131.560807 
L 244.276392 60.787251 
L 246.161712 81.605637 
L 247.986216 96.186123 
L 249.871536 102.456775 
L 251.756856 75.946015 
L 253.581359 92.965686 
L 255.466679 97.823626 
L 257.291182 99.014675 
L 259.176502 98.464756 
L 261.061822 101.891613 
L 262.764692 119.242319 
L 264.650012 83.980139 
L 266.474515 91.090592 
L 268.359835 131.826084 
L 270.184339 121.932278 
L 272.069659 107.99805 
L 273.954979 103.877782 
L 275.779482 93.934952 
L 277.664802 89.220817 
L 279.489305 97.354931 
L 281.374625 92.543282 
L 283.259946 93.508396 
L 284.962815 94.714944 
L 286.848135 111.787482 
L 288.672639 98.382041 
L 290.557959 104.609032 
L 292.382462 122.376583 
L 294.267782 94.940619 
L 296.153102 151.751719 
L 297.977605 110.583969 
L 299.862925 95.349185 
L 301.687429 100.290582 
L 303.572749 101.136595 
L 305.458069 88.470733 
L 307.221755 90.850421 
L 309.107075 95.832632 
L 312.816899 120.051399 
L 314.641402 112.064163 
L 316.526722 95.732082 
L 318.412042 93.892262 
L 320.236545 95.318424 
L 322.121865 108.238819 
L 323.946369 119.028813 
L 325.831689 98.695796 
L 327.717009 90.483832 
L 329.419878 98.048823 
L 331.305198 96.50252 
L 333.129702 101.522463 
L 335.015022 89.257944 
L 336.839525 111.894329 
L 338.724845 94.395141 
L 340.610165 106.326428 
L 344.319988 98.872002 
L 346.144492 92.013816 
L 348.029812 101.211947 
L 349.915132 103.421304 
L 351.618002 107.849353 
L 353.503322 96.459526 
L 355.327825 106.507329 
L 357.213145 101.17496 
L 359.037648 94.591346 
L 360.922968 101.304684 
L 362.808288 109.044664 
L 364.632792 100.188534 
L 366.518112 118.176733 
L 368.342615 84.880785 
L 370.227935 104.754904 
L 372.113255 111.83356 
L 373.816125 96.04413 
L 375.701445 107.096973 
L 377.525948 103.788741 
L 379.411268 103.385965 
L 381.235771 109.095844 
L 383.121091 107.660477 
L 386.830915 126.03785 
L 388.716235 90.292584 
L 390.540738 95.678828 
L 392.426058 111.856255 
L 394.311378 134.244113 
L 397.960385 82.465095 
L 399.784888 96.095546 
L 401.670208 108.617756 
L 403.494711 103.095147 
L 405.380031 94.252292 
L 407.265351 102.541872 
L 409.089855 109.143895 
L 410.975175 109.424984 
L 412.799678 102.545543 
L 414.684998 91.707811 
L 416.570318 101.574852 
L 418.273188 97.050208 
L 420.158508 100.315445 
L 421.983011 107.952217 
L 423.868331 100.540755 
L 425.692835 100.200307 
L 429.463475 106.318804 
L 431.287978 100.686701 
L 433.173298 96.397406 
L 434.997801 100.922326 
L 436.883121 95.793774 
L 438.768441 88.071252 
L 440.471311 119.11929 
L 442.356631 107.025012 
L 444.181134 114.083461 
L 446.066454 99.443558 
L 447.890958 98.836095 
L 449.776278 100.943385 
L 451.661598 97.487967 
L 453.486101 100.537282 
L 455.371421 123.163237 
L 457.195924 115.799374 
L 459.081244 130.496685 
L 460.966565 100.407018 
L 462.669434 84.432509 
L 464.554754 99.525094 
L 466.379258 92.530338 
L 468.264578 113.558588 
L 470.089081 101.678485 
L 471.974401 92.117987 
L 473.859721 120.194127 
L 475.684224 95.028624 
L 477.569544 107.274846 
L 479.394048 89.758614 
L 481.279368 97.42255 
L 483.164688 93.962471 
L 484.928374 106.777357 
L 486.813694 192.171217 
L 488.638198 90.306196 
L 490.523518 84.234973 
L 492.348021 81.831442 
L 494.233341 93.482501 
L 496.118661 84.113887 
L 497.943164 109.801077 
L 501.652988 91.551231 
L 503.538308 90.339705 
L 505.423628 96.042544 
L 507.126497 97.224833 
L 509.011817 103.859715 
L 510.836321 83.504738 
L 512.721641 104.072981 
L 514.546144 99.875269 
L 516.431464 94.900329 
L 518.316784 98.372279 
L 520.141287 107.454593 
L 522.026607 105.291558 
L 523.851111 88.36286 
L 525.736431 106.028725 
L 527.621751 115.491584 
L 529.324621 119.034511 
L 531.209941 110.762382 
L 533.034444 106.664952 
L 534.919764 140.329977 
L 536.744267 121.066711 
L 538.629587 105.344921 
L 540.514907 81.937635 
L 542.339411 137.771952 
L 544.224731 119.94802 
L 546.049234 86.418953 
L 547.934554 107.195064 
L 549.819874 101.711381 
L 551.522744 94.700831 
L 553.408064 117.829142 
L 555.232567 91.388289 
L 557.117887 104.252351 
L 558.94239 87.702564 
L 560.82771 91.811596 
L 562.71303 111.240368 
L 564.537534 111.067771 
L 566.422854 119.679887 
L 568.247357 89.010539 
L 570.132677 86.777797 
L 570.132677 86.777797 
" clip-path="url(#p52fc8cf635)" style="fill: none; stroke-dasharray: 3.7,1.6; stroke-dashoffset: 0; stroke: #000000"/>
   </g>
   <g id="line2d_134">
    <path d="M 62.85995 102.27937 
L 64.74527 102.649881 
L 66.569773 102.159433 
L 68.455093 102.295406 
L 70.279597 89.468515 
L 72.164917 98.046119 
L 74.050237 106.064234 
L 75.87474 106.861069 
L 77.76006 103.681181 
L 79.584563 101.913911 
L 81.469883 101.920236 
L 83.355203 103.231873 
L 85.058073 104.271841 
L 86.943393 104.097603 
L 88.767896 103.113417 
L 90.653216 104.501408 
L 92.47772 104.614616 
L 94.36304 103.364232 
L 96.24836 104.100423 
L 98.072863 102.442699 
L 99.958183 103.264124 
L 101.782686 105.919072 
L 103.668006 101.287181 
L 105.553327 105.095339 
L 107.256196 104.822333 
L 109.141516 104.251012 
L 110.96602 103.332571 
L 112.85134 104.285569 
L 114.675843 102.947618 
L 116.561163 101.867468 
L 118.446483 103.766559 
L 120.270986 104.930994 
L 122.156306 102.270383 
L 123.98081 103.855503 
L 127.75145 103.024247 
L 129.515136 100.354935 
L 131.400456 103.120653 
L 133.22496 102.280427 
L 136.934783 105.70531 
L 138.820103 102.75097 
L 142.529926 102.561348 
L 144.415246 100.856902 
L 146.23975 104.135865 
L 148.12507 101.680166 
L 150.01039 102.511132 
L 151.713259 104.84998 
L 153.598579 102.788137 
L 155.423083 105.625861 
L 157.308403 103.281845 
L 159.132906 101.813795 
L 161.018226 101.61275 
L 162.903546 105.011274 
L 164.728049 105.157595 
L 166.613369 103.510642 
L 168.437873 106.619833 
L 170.323193 102.61733 
L 172.208513 102.422842 
L 173.911383 103.025788 
L 175.796703 105.658083 
L 177.621206 104.46749 
L 179.506526 105.060619 
L 181.331029 104.019051 
L 183.216349 103.680662 
L 185.101669 103.616214 
L 186.926173 100.973845 
L 188.811493 101.045524 
L 190.635996 102.656272 
L 192.521316 101.685254 
L 194.406636 102.52761 
L 196.109506 105.112251 
L 197.994826 102.757143 
L 199.819329 103.607587 
L 203.529152 102.948634 
L 205.414472 104.592794 
L 207.299792 103.681053 
L 209.124296 103.275554 
L 211.009616 104.514382 
L 212.834119 107.917459 
L 214.719439 104.944221 
L 216.604759 108.023407 
L 218.368446 100.00771 
L 220.253766 103.545126 
L 222.078269 104.269559 
L 223.963589 109.290841 
L 225.788092 106.712923 
L 227.673412 98.487613 
L 229.558732 100.120524 
L 231.383236 107.130996 
L 233.268556 102.560154 
L 235.093059 51.725177 
L 236.978379 288.145261 
L 238.863699 103.621465 
L 240.566569 103.496351 
L 244.276392 103.736353 
L 253.581359 103.446292 
L 255.466679 103.328906 
L 257.291182 102.62663 
L 262.764692 102.4763 
L 264.650012 104.028361 
L 266.474515 101.969691 
L 268.359835 103.804581 
L 270.184339 102.526601 
L 272.069659 102.750523 
L 273.954979 101.724519 
L 275.779482 101.315122 
L 277.664802 102.647943 
L 279.489305 99.735071 
L 281.374625 105.320205 
L 283.259946 103.176288 
L 284.962815 102.420122 
L 286.848135 104.552964 
L 288.672639 102.763589 
L 290.557959 102.443844 
L 292.382462 100.219526 
L 294.267782 102.967194 
L 296.153102 101.382794 
L 297.977605 102.858128 
L 299.862925 102.983163 
L 301.687429 103.22439 
L 303.572749 101.793571 
L 305.458069 101.662858 
L 307.221755 100.426127 
L 309.107075 101.248999 
L 310.931579 105.184586 
L 312.816899 102.357297 
L 314.641402 101.256082 
L 316.526722 102.106501 
L 318.412042 100.676407 
L 320.236545 104.274525 
L 322.121865 102.980789 
L 323.946369 105.386659 
L 325.831689 102.718319 
L 327.717009 103.124692 
L 329.419878 104.380782 
L 333.129702 102.175071 
L 335.015022 99.68044 
L 336.839525 102.465589 
L 338.724845 102.850022 
L 340.610165 101.437907 
L 342.434668 103.083659 
L 344.319988 104.104756 
L 346.144492 99.960463 
L 348.029812 102.875915 
L 349.915132 105.288482 
L 351.618002 102.89706 
L 353.503322 100.832668 
L 355.327825 101.526061 
L 357.213145 103.765276 
L 359.037648 99.797892 
L 360.922968 102.120018 
L 362.808288 101.680135 
L 364.632792 100.999733 
L 366.518112 103.62921 
L 368.342615 101.409158 
L 372.113255 100.676465 
L 373.816125 100.847397 
L 375.701445 102.530877 
L 377.525948 105.246186 
L 379.411268 101.15137 
L 381.235771 104.360705 
L 383.121091 102.662936 
L 385.006411 103.866902 
L 386.830915 101.376188 
L 388.716235 104.530524 
L 390.540738 100.335442 
L 392.426058 104.468568 
L 394.311378 104.446926 
L 396.075065 102.86943 
L 397.960385 101.475194 
L 399.784888 103.145371 
L 401.670208 101.463461 
L 403.494711 103.693826 
L 405.380031 99.480499 
L 407.265351 99.59635 
L 409.089855 103.807158 
L 410.975175 106.089873 
L 412.799678 105.802927 
L 414.684998 102.659881 
L 416.570318 102.135311 
L 418.273188 102.4401 
L 420.158508 101.761525 
L 421.983011 104.189667 
L 423.868331 100.479038 
L 425.692835 102.165095 
L 427.578155 99.859024 
L 429.463475 105.025341 
L 431.287978 102.155257 
L 433.173298 101.887543 
L 434.997801 105.254344 
L 436.883121 103.197787 
L 438.768441 103.121952 
L 442.356631 104.412121 
L 444.181134 103.1914 
L 446.066454 104.969274 
L 447.890958 103.879697 
L 449.776278 101.713341 
L 451.661598 102.052291 
L 453.486101 101.959887 
L 457.195924 107.153679 
L 460.966565 101.892194 
L 462.669434 100.970366 
L 464.554754 99.21567 
L 466.379258 100.463262 
L 468.264578 100.004046 
L 470.089081 101.440028 
L 471.974401 99.884623 
L 473.859721 101.942879 
L 475.684224 102.7124 
L 477.569544 103.343326 
L 479.394048 104.461465 
L 481.279368 103.754807 
L 483.164688 103.627162 
L 484.928374 100.87242 
L 486.813694 101.157892 
L 488.638198 102.524072 
L 492.348021 102.203833 
L 494.233341 103.1271 
L 496.118661 101.539259 
L 497.943164 101.98169 
L 499.828484 105.894994 
L 501.652988 103.362037 
L 503.538308 101.473432 
L 505.423628 102.11868 
L 507.126497 102.022994 
L 509.011817 101.713653 
L 510.836321 101.99654 
L 512.721641 101.697747 
L 514.546144 102.403877 
L 516.431464 100.296135 
L 518.316784 100.015177 
L 520.141287 101.791885 
L 522.026607 105.820041 
L 523.851111 102.24463 
L 527.621751 100.380084 
L 529.324621 103.218975 
L 531.209941 101.859831 
L 533.034444 103.130224 
L 534.919764 101.415971 
L 536.744267 102.264316 
L 538.629587 104.746199 
L 540.514907 102.281103 
L 542.339411 100.324335 
L 544.224731 103.447273 
L 546.049234 102.655838 
L 547.934554 102.478566 
L 549.819874 100.618663 
L 551.522744 100.989798 
L 553.408064 104.432328 
L 555.232567 104.131238 
L 557.117887 98.226636 
L 558.94239 104.678474 
L 560.82771 102.821612 
L 562.71303 102.80798 
L 564.537534 106.321158 
L 566.422854 105.403981 
L 568.247357 106.200292 
L 570.132677 101.467429 
L 570.132677 101.467429 
" clip-path="url(#p52fc8cf635)" style="fill: none; stroke: #ff0000; stroke-linecap: square"/>
   </g>
   <g id="patch_3">
    <path d="M 37.496314 336.24 
L 37.496314 3.6 
" style="fill: none; stroke: #000000; stroke-width: 0.5; stroke-linejoin: miter; stroke-linecap: square"/>
   </g>
   <g id="patch_4">
    <path d="M 595.496314 336.24 
L 595.496314 3.6 
" style="fill: none; stroke: #000000; stroke-width: 0.5; stroke-linejoin: miter; stroke-linecap: square"/>
   </g>
   <g id="patch_5">
    <path d="M 37.496314 336.24 
L 595.496314 336.24 
" style="fill: none; stroke: #000000; stroke-width: 0.5; stroke-linejoin: miter; stroke-linecap: square"/>
   </g>
   <g id="patch_6">
    <path d="M 37.496314 3.6 
L 595.496314 3.6 
" style="fill: none; stroke: #000000; stroke-width: 0.5; stroke-linejoin: miter; stroke-linecap: square"/>
   </g>
   <g id="legend_1">
    <g id="line2d_135">
     <path d="M 48.296314 285.466213 
L 60.296314 285.466213 
L 72.296314 285.466213 
" style="fill: none; stroke-dasharray: 3.7,1.6; stroke-dashoffset: 0; stroke: #000000"/>
    </g>
    <g id="text_15">
     <!-- rendimenti SP 500 -->
     <g transform="translate(81.896314 289.666213) scale(0.12 -0.12)">
      <defs>
       <path id="CMR17-72" d="M 960 1517 
C 960 2134 1222 2713 1702 2713 
C 1747 2713 1792 2707 1837 2687 
C 1837 2687 1696 2642 1696 2475 
C 1696 2321 1818 2257 1914 2257 
C 1990 2257 2131 2302 2131 2482 
C 2131 2687 1926 2816 1709 2816 
C 1222 2816 1011 2340 947 2115 
L 941 2115 
L 941 2816 
L 198 2745 
L 198 2578 
C 576 2578 634 2540 634 2231 
L 634 443 
C 634 198 608 166 198 166 
L 198 0 
C 352 12 646 12 813 12 
C 998 12 1325 12 1498 0 
L 1498 166 
C 1037 166 960 166 960 455 
L 960 1517 
z
" transform="scale(0.015625)"/>
       <path id="CMR17-65" d="M 2438 1503 
C 2464 1529 2464 1542 2464 1606 
C 2464 2251 2118 2816 1389 2816 
C 710 2816 173 2175 173 1394 
C 173 554 781 -64 1459 -64 
C 2176 -64 2458 619 2458 755 
C 2458 800 2419 800 2406 800 
C 2362 800 2355 787 2330 709 
C 2189 270 1837 51 1504 51 
C 1229 51 954 206 781 490 
C 582 819 582 1200 582 1503 
L 2438 1503 
z
M 589 1600 
C 634 2511 1126 2713 1382 2713 
C 1818 2713 2112 2308 2118 1600 
L 589 1600 
z
" transform="scale(0.015625)"/>
       <path id="CMR17-6e" d="M 2656 1954 
C 2656 2282 2592 2816 1837 2816 
C 1331 2816 1069 2424 973 2166 
L 966 2166 
L 966 2816 
L 211 2745 
L 211 2578 
C 589 2578 646 2540 646 2231 
L 646 443 
C 646 198 621 166 211 166 
L 211 0 
C 365 12 646 12 813 12 
C 979 12 1267 12 1421 0 
L 1421 166 
C 1011 166 986 192 986 443 
L 986 1678 
C 986 2269 1344 2713 1792 2713 
C 2266 2713 2317 2289 2317 1980 
L 2317 443 
C 2317 198 2291 166 1882 166 
L 1882 0 
C 2035 12 2317 12 2483 12 
C 2650 12 2938 12 3091 0 
L 3091 166 
C 2682 166 2656 192 2656 443 
L 2656 1954 
z
" transform="scale(0.015625)"/>
       <path id="CMR17-64" d="M 1869 4345 
L 1869 4179 
C 2246 4179 2304 4141 2304 3843 
L 2304 2371 
C 2278 2403 2016 2816 1498 2816 
C 845 2816 211 2228 211 1376 
C 211 529 806 -64 1434 -64 
C 1978 -64 2259 361 2291 406 
L 2291 -64 
L 3066 -13 
L 3066 154 
C 2688 154 2630 193 2630 503 
L 2630 4416 
L 1869 4345 
z
M 2291 762 
C 2291 568 2176 393 2029 264 
C 1811 70 1594 38 1472 38 
C 1286 38 621 135 621 1369 
C 621 2636 1363 2713 1530 2713 
C 1824 2713 2061 2545 2208 2313 
C 2291 2177 2291 2157 2291 2041 
L 2291 762 
z
" transform="scale(0.015625)"/>
       <path id="CMR17-69" d="M 992 3961 
C 992 4102 877 4224 730 4224 
C 589 4224 467 4108 467 3961 
C 467 3820 582 3699 730 3699 
C 870 3699 992 3814 992 3961 
z
M 243 2745 
L 243 2579 
C 602 2579 653 2540 653 2231 
L 653 443 
C 653 198 627 166 218 166 
L 218 0 
C 371 12 646 12 806 12 
C 960 12 1222 12 1370 0 
L 1370 166 
C 992 166 979 205 979 436 
L 979 2816 
L 243 2745 
z
" transform="scale(0.015625)"/>
       <path id="CMR17-6d" d="M 4326 1954 
C 4326 2276 4269 2816 3507 2816 
C 3072 2816 2771 2520 2656 2173 
L 2650 2173 
C 2573 2700 2195 2816 1837 2816 
C 1331 2816 1069 2424 973 2166 
L 966 2166 
L 966 2816 
L 211 2745 
L 211 2578 
C 589 2578 646 2540 646 2231 
L 646 443 
C 646 198 621 166 211 166 
L 211 0 
C 365 12 646 12 813 12 
C 979 12 1267 12 1421 0 
L 1421 166 
C 1011 166 986 192 986 443 
L 986 1678 
C 986 2269 1344 2713 1792 2713 
C 2266 2713 2317 2289 2317 1980 
L 2317 443 
C 2317 198 2291 166 1882 166 
L 1882 0 
C 2035 12 2317 12 2483 12 
C 2650 12 2938 12 3091 0 
L 3091 166 
C 2682 166 2656 192 2656 443 
L 2656 1678 
C 2656 2269 3014 2713 3462 2713 
C 3936 2713 3987 2289 3987 1980 
L 3987 443 
C 3987 198 3962 166 3552 166 
L 3552 0 
C 3706 12 3987 12 4154 12 
C 4320 12 4608 12 4762 0 
L 4762 166 
C 4352 166 4326 192 4326 443 
L 4326 1954 
z
" transform="scale(0.015625)"/>
       <path id="CMR17-74" d="M 966 2585 
L 1862 2585 
L 1862 2752 
L 966 2752 
L 966 3968 
L 851 3968 
C 838 3292 614 2700 70 2687 
L 70 2585 
L 627 2585 
L 627 778 
C 627 655 627 -64 1370 -64 
C 1747 -64 1965 308 1965 784 
L 1965 1151 
L 1850 1151 
L 1850 790 
C 1850 347 1677 51 1408 51 
C 1222 51 966 179 966 765 
L 966 2585 
z
" transform="scale(0.015625)"/>
       <path id="CMR17-53" d="M 2803 4351 
C 2803 4467 2797 4473 2758 4473 
C 2720 4473 2707 4447 2682 4390 
L 2490 3965 
C 2246 4320 1875 4480 1472 4480 
C 819 4480 294 3958 294 3301 
C 294 3101 339 2817 557 2546 
C 794 2250 1018 2198 1530 2063 
C 1722 2011 2042 1927 2106 1901 
C 2470 1747 2662 1360 2662 999 
C 2662 534 2336 38 1779 38 
C 1094 38 454 425 410 1328 
C 403 1431 397 1437 352 1437 
C 301 1437 294 1431 294 1302 
L 294 0 
C 294 -116 301 -122 339 -122 
C 384 -122 397 -90 486 109 
C 493 128 493 141 614 386 
C 934 -39 1472 -128 1779 -128 
C 2477 -128 2970 457 2970 1141 
C 2970 1476 2848 1734 2778 1850 
C 2509 2263 2221 2340 1914 2417 
C 1869 2437 1856 2437 1498 2527 
C 1152 2617 1005 2662 845 2836 
C 666 3036 602 3243 602 3449 
C 602 3868 934 4326 1478 4326 
C 2157 4326 2579 3842 2675 3036 
C 2694 2920 2701 2914 2746 2914 
C 2803 2914 2803 2933 2803 3043 
L 2803 4351 
z
" transform="scale(0.015625)"/>
       <path id="CMR17-50" d="M 1267 2048 
L 2291 2048 
C 3117 2048 3718 2583 3718 3187 
C 3718 3791 3130 4352 2291 4352 
L 333 4352 
L 333 4185 
C 774 4185 845 4185 845 3899 
L 845 453 
C 845 166 774 166 333 166 
L 333 0 
C 518 12 858 12 1056 12 
C 1254 12 1594 12 1779 0 
L 1779 166 
C 1338 166 1267 166 1267 453 
L 1267 2048 
z
M 1254 2182 
L 1254 3937 
C 1254 4153 1267 4185 1523 4185 
L 2170 4185 
C 2995 4185 3232 3715 3232 3187 
C 3232 2608 2950 2182 2170 2182 
L 1254 2182 
z
" transform="scale(0.015625)"/>
      </defs>
      <use xlink:href="#CMR17-72" transform="scale(0.996264)"/>
      <use xlink:href="#CMR17-65" transform="translate(35.280768 0) scale(0.996264)"/>
      <use xlink:href="#CMR17-6e" transform="translate(75.766428 0) scale(0.996264)"/>
      <use xlink:href="#CMR17-64" transform="translate(126.661798 0) scale(0.996264)"/>
      <use xlink:href="#CMR17-69" transform="translate(177.557168 0) scale(0.996264)"/>
      <use xlink:href="#CMR17-6d" transform="translate(202.428226 0) scale(0.996264)"/>
      <use xlink:href="#CMR17-65" transform="translate(279.347816 0) scale(0.996264)"/>
      <use xlink:href="#CMR17-6e" transform="translate(319.833477 0) scale(0.996264)"/>
      <use xlink:href="#CMR17-74" transform="translate(368.126392 0) scale(0.996264)"/>
      <use xlink:href="#CMR17-69" transform="translate(403.40716 0) scale(0.996264)"/>
      <use xlink:href="#CMR17-53" transform="translate(458.354185 0) scale(0.996264)"/>
      <use xlink:href="#CMR17-50" transform="translate(509.249555 0) scale(0.996264)"/>
      <use xlink:href="#CMR17-35" transform="translate(601.911822 0) scale(0.996264)"/>
      <use xlink:href="#CMR17-30" transform="translate(647.602299 0) scale(0.996264)"/>
      <use xlink:href="#CMR17-30" transform="translate(693.292776 0) scale(0.996264)"/>
     </g>
    </g>
    <g id="line2d_136">
     <path d="M 48.296314 302.190808 
L 60.296314 302.190808 
L 72.296314 302.190808 
" style="fill: none; stroke: #ff0000; stroke-linecap: square"/>
    </g>
    <g id="text_16">
     <!-- forecast SVR -->
     <g transform="translate(81.896314 306.390808) scale(0.12 -0.12)">
      <defs>
       <path id="CMR17-66" d="M 979 2585 
L 1709 2585 
L 1709 2752 
L 966 2752 
L 966 3539 
C 966 4076 1235 4377 1510 4377 
C 1594 4377 1690 4363 1754 4339 
C 1702 4326 1568 4281 1568 4121 
C 1568 3955 1696 3904 1786 3904 
C 1875 3904 2003 3955 2003 4121 
C 2003 4353 1773 4480 1517 4480 
C 1152 4480 653 4211 653 3526 
L 653 2752 
L 141 2752 
L 141 2585 
L 653 2585 
L 653 441 
C 653 198 627 166 218 166 
L 218 0 
C 371 12 666 12 832 12 
C 1018 12 1344 12 1517 0 
L 1517 166 
C 1056 166 979 166 979 454 
L 979 2585 
z
" transform="scale(0.015625)"/>
       <path id="CMR17-6f" d="M 2758 1356 
C 2758 2176 2163 2816 1466 2816 
C 768 2816 173 2176 173 1356 
C 173 550 768 -64 1466 -64 
C 2163 -64 2758 550 2758 1356 
z
M 1466 51 
C 1165 51 909 230 762 480 
C 602 768 582 1126 582 1408 
C 582 1676 595 2009 762 2297 
C 890 2508 1139 2713 1466 2713 
C 1754 2713 1997 2553 2150 2329 
C 2349 2028 2349 1606 2349 1408 
C 2349 1158 2336 774 2163 467 
C 1984 172 1709 51 1466 51 
z
" transform="scale(0.015625)"/>
       <path id="CMR17-63" d="M 2234 2240 
C 2112 2240 1933 2240 1933 2015 
C 1933 1836 2080 1785 2163 1785 
C 2208 1785 2394 1804 2394 2028 
C 2394 2476 1958 2816 1466 2816 
C 787 2816 211 2201 211 1379 
C 211 521 813 -64 1466 -64 
C 2259 -64 2458 676 2458 747 
C 2458 773 2451 792 2406 792 
C 2362 792 2355 786 2330 702 
C 2163 180 1798 51 1523 51 
C 1114 51 621 431 621 1385 
C 621 2358 1094 2700 1472 2700 
C 1722 2700 2093 2582 2234 2240 
z
" transform="scale(0.015625)"/>
       <path id="CMR17-61" d="M 2304 1656 
C 2304 2048 2304 2275 2035 2534 
C 1798 2751 1523 2816 1306 2816 
C 800 2816 435 2408 435 1977 
C 435 1740 627 1728 666 1728 
C 749 1728 896 1779 896 1958 
C 896 2118 774 2188 666 2188 
C 640 2188 608 2182 589 2176 
C 723 2594 1069 2713 1293 2713 
C 1613 2713 1965 2421 1965 1875 
L 1965 1632 
C 1587 1619 1133 1568 774 1373 
C 371 1147 256 822 256 576 
C 256 77 832 -64 1171 -64 
C 1523 -64 1850 135 1990 505 
C 2003 219 2182 -39 2464 -39 
C 2598 -39 2938 51 2938 563 
L 2938 926 
L 2822 926 
L 2822 557 
C 2822 161 2650 109 2566 109 
C 2304 109 2304 446 2304 732 
L 2304 1656 
z
M 1965 887 
C 1965 323 1568 38 1216 38 
C 896 38 646 278 646 576 
C 646 771 730 1114 1101 1322 
C 1408 1497 1760 1523 1965 1536 
L 1965 887 
z
" transform="scale(0.015625)"/>
       <path id="CMR17-73" d="M 1978 2688 
C 1978 2803 1971 2809 1933 2809 
C 1907 2809 1901 2803 1824 2707 
C 1805 2681 1747 2617 1728 2592 
C 1523 2809 1235 2816 1126 2816 
C 416 2816 160 2444 160 2073 
C 160 1497 813 1363 998 1324 
C 1402 1241 1542 1216 1677 1100 
C 1760 1024 1901 883 1901 652 
C 1901 384 1747 38 1158 38 
C 602 38 403 460 288 1024 
C 269 1113 269 1120 218 1120 
C 166 1120 160 1113 160 985 
L 160 64 
C 160 -52 166 -58 205 -58 
C 237 -58 243 -52 275 0 
C 314 57 410 211 448 275 
C 576 102 800 -64 1158 -64 
C 1792 -64 2131 281 2131 780 
C 2131 1107 1958 1280 1875 1356 
C 1683 1555 1459 1600 1190 1651 
C 838 1728 390 1817 390 2208 
C 390 2374 480 2726 1126 2726 
C 1811 2726 1850 2086 1862 1881 
C 1869 1849 1901 1843 1920 1843 
C 1978 1843 1978 1862 1978 1971 
L 1978 2688 
z
" transform="scale(0.015625)"/>
       <path id="CMR17-56" d="M 3776 3762 
C 3834 3903 3936 4179 4365 4185 
L 4365 4352 
C 4218 4339 4051 4339 3891 4339 
C 3738 4339 3475 4339 3328 4352 
L 3328 4185 
C 3648 4166 3661 3942 3661 3903 
C 3661 3833 3642 3788 3622 3737 
L 2362 448 
L 1043 3903 
C 1024 3948 1011 3980 1011 4012 
C 1011 4185 1267 4185 1402 4185 
L 1402 4352 
C 1197 4339 896 4339 685 4339 
C 518 4339 218 4339 64 4352 
L 64 4185 
C 435 4185 506 4160 582 3955 
L 2106 -26 
C 2138 -116 2144 -128 2214 -128 
C 2285 -128 2291 -116 2323 -26 
L 3776 3762 
z
" transform="scale(0.015625)"/>
       <path id="CMR17-52" d="M 2509 2156 
C 3117 2278 3629 2689 3629 3203 
C 3629 3806 2950 4352 2054 4352 
L 333 4352 
L 333 4185 
C 774 4185 845 4185 845 3896 
L 845 428 
C 845 140 774 140 333 140 
L 333 -26 
C 518 -13 851 -13 1050 -13 
C 1248 -13 1581 -13 1766 -26 
L 1766 140 
C 1325 140 1254 140 1254 428 
L 1254 2112 
L 2003 2112 
C 2368 2112 2573 1964 2662 1881 
C 2918 1632 2918 1459 2918 1024 
C 2918 595 2918 377 3110 160 
C 3354 -103 3680 -128 3821 -128 
C 4294 -128 4365 403 4365 512 
C 4365 550 4365 595 4307 595 
C 4256 595 4250 556 4250 531 
C 4218 115 4032 -26 3834 -26 
C 3482 -26 3443 377 3405 768 
C 3386 902 3373 998 3360 1139 
C 3322 1459 3270 1926 2509 2156 
z
M 1984 2214 
L 1254 2214 
L 1254 3935 
C 1254 4153 1267 4185 1523 4185 
L 1990 4185 
C 2522 4185 3142 3999 3142 3203 
C 3142 2374 2464 2214 1984 2214 
z
" transform="scale(0.015625)"/>
      </defs>
      <use xlink:href="#CMR17-66" transform="scale(0.996264)"/>
      <use xlink:href="#CMR17-6f" transform="translate(27.473512 0) scale(0.996264)"/>
      <use xlink:href="#CMR17-72" transform="translate(73.16399 0) scale(0.996264)"/>
      <use xlink:href="#CMR17-65" transform="translate(108.444757 0) scale(0.996264)"/>
      <use xlink:href="#CMR17-63" transform="translate(148.930418 0) scale(0.996264)"/>
      <use xlink:href="#CMR17-61" transform="translate(189.416078 0) scale(0.996264)"/>
      <use xlink:href="#CMR17-73" transform="translate(235.106555 0) scale(0.996264)"/>
      <use xlink:href="#CMR17-74" transform="translate(270.907893 0) scale(0.996264)"/>
      <use xlink:href="#CMR17-53" transform="translate(336.264627 0) scale(0.996264)"/>
      <use xlink:href="#CMR17-56" transform="translate(387.159997 0) scale(0.996264)"/>
      <use xlink:href="#CMR17-52" transform="translate(456.232427 0) scale(0.996264)"/>
     </g>
    </g>
    <g id="patch_7">
     <path d="M 48.296314 323.115404 
L 72.296314 323.115404 
L 72.296314 314.715404 
L 48.296314 314.715404 
z
" style="fill: #808080; fill-opacity: 0.3; stroke: #808080; stroke-opacity: 0.3; stroke-linejoin: miter"/>
    </g>
    <g id="text_17">
     <!-- 99 perc. CI -->
     <g transform="translate(81.896314 323.115404) scale(0.12 -0.12)">
      <defs>
       <path id="CMR17-39" d="M 2253 1871 
C 2253 448 1670 25 1190 25 
C 1043 25 685 43 538 281 
C 704 256 826 345 826 505 
C 826 678 685 736 595 736 
C 538 736 365 710 365 492 
C 365 68 742 -128 1203 -128 
C 1939 -128 2688 665 2688 2090 
C 2688 3857 1971 4224 1485 4224 
C 851 4224 243 3664 243 2800 
C 243 2000 762 1408 1414 1408 
C 1952 1408 2189 1910 2253 2122 
L 2253 1871 
z
M 1427 1510 
C 1254 1510 1011 1542 813 1929 
C 678 2181 678 2477 678 2793 
C 678 3174 678 3438 858 3722 
C 947 3857 1114 4076 1485 4076 
C 2240 4076 2240 2909 2240 2651 
C 2240 2193 2035 1510 1427 1510 
z
" transform="scale(0.015625)"/>
       <path id="CMR17-70" d="M 1408 -1114 
C 998 -1114 973 -1088 973 -834 
L 973 380 
C 1158 109 1427 -64 1766 -64 
C 2406 -64 3053 503 3053 1382 
C 3053 2196 2496 2816 1837 2816 
C 1453 2816 1139 2603 960 2345 
L 960 2816 
L 198 2745 
L 198 2577 
C 576 2577 634 2539 634 2228 
L 634 -834 
C 634 -1081 608 -1114 198 -1114 
L 198 -1280 
C 352 -1268 634 -1268 800 -1268 
C 966 -1268 1254 -1268 1408 -1280 
L 1408 -1114 
z
M 973 2015 
C 973 2106 973 2241 1222 2481 
C 1254 2506 1472 2700 1792 2700 
C 2259 2700 2643 2112 2643 1376 
C 2643 639 2234 38 1728 38 
C 1498 38 1248 148 1056 451 
C 973 594 973 632 973 736 
L 973 2015 
z
" transform="scale(0.015625)"/>
       <path id="CMR17-2e" d="M 1062 262 
C 1062 422 934 524 800 524 
C 672 524 538 422 538 262 
C 538 102 666 0 800 0 
C 928 0 1062 102 1062 262 
z
" transform="scale(0.015625)"/>
       <path id="CMR17-43" d="M 3974 4351 
C 3974 4467 3968 4473 3930 4473 
C 3904 4473 3898 4467 3853 4390 
L 3571 3849 
C 3258 4249 2874 4480 2381 4480 
C 1286 4480 294 3507 294 2179 
C 294 837 1286 -128 2387 -128 
C 3366 -128 3974 741 3974 1482 
C 3974 1547 3974 1573 3917 1573 
C 3866 1573 3866 1553 3859 1495 
C 3808 592 3168 38 2477 38 
C 1824 38 781 502 781 2179 
C 781 3862 1843 4313 2464 4313 
C 3187 4313 3712 3681 3834 2785 
C 3846 2707 3846 2695 3904 2695 
C 3974 2695 3974 2707 3974 2824 
L 3974 4351 
z
" transform="scale(0.015625)"/>
       <path id="CMR17-49" d="M 1261 3898 
C 1261 4185 1338 4185 1798 4185 
L 1798 4352 
C 1594 4339 1267 4339 1050 4339 
C 832 4339 506 4339 301 4352 
L 301 4185 
C 762 4185 838 4185 838 3898 
L 838 453 
C 838 166 762 166 301 166 
L 301 0 
C 506 12 832 12 1050 12 
C 1267 12 1594 12 1798 0 
L 1798 166 
C 1338 166 1261 166 1261 453 
L 1261 3898 
z
" transform="scale(0.015625)"/>
      </defs>
      <use xlink:href="#CMR17-39" transform="scale(0.996264)"/>
      <use xlink:href="#CMR17-39" transform="translate(45.690477 0) scale(0.996264)"/>
      <use xlink:href="#CMR17-70" transform="translate(121.456921 0) scale(0.996264)"/>
      <use xlink:href="#CMR17-65" transform="translate(174.954729 0) scale(0.996264)"/>
      <use xlink:href="#CMR17-72" transform="translate(215.44039 0) scale(0.996264)"/>
      <use xlink:href="#CMR17-63" transform="translate(250.721157 0) scale(0.996264)"/>
      <use xlink:href="#CMR17-2e" transform="translate(291.206818 0) scale(0.996264)"/>
      <use xlink:href="#CMR17-43" transform="translate(356.563537 0) scale(0.996264)"/>
      <use xlink:href="#CMR17-49" transform="translate(423.073417 0) scale(0.996264)"/>
     </g>
    </g>
   </g>
  </g>
 </g>
 <defs>
  <clipPath id="p52fc8cf635">
   <rect x="37.496314" y="3.6" width="558" height="332.64"/>
  </clipPath>
 </defs>
</svg>
