<?xml version="1.0" encoding="utf-8" standalone="no"?>
<!DOCTYPE svg PUBLIC "-//W3C//DTD SVG 1.1//EN"
  "http://www.w3.org/Graphics/SVG/1.1/DTD/svg11.dtd">
<svg xmlns:xlink="http://www.w3.org/1999/xlink" width="599.096314pt" height="359.281364pt" viewBox="0 0 599.096314 359.281364" xmlns="http://www.w3.org/2000/svg" version="1.1">
 <metadata>
  <rdf:RDF xmlns:dc="http://purl.org/dc/elements/1.1/" xmlns:cc="http://creativecommons.org/ns#" xmlns:rdf="http://www.w3.org/1999/02/22-rdf-syntax-ns#">
   <cc:Work>
    <dc:type rdf:resource="http://purl.org/dc/dcmitype/StillImage"/>
    <dc:date>2025-04-07T20:52:45.815844</dc:date>
    <dc:format>image/svg+xml</dc:format>
    <dc:creator>
     <cc:Agent>
      <dc:title>Matplotlib v3.9.2, https://matplotlib.org/</dc:title>
     </cc:Agent>
    </dc:creator>
   </cc:Work>
  </rdf:RDF>
 </metadata>
 <defs>
  <style type="text/css">*{stroke-linejoin: round; stroke-linecap: butt}</style>
 </defs>
 <g id="figure_1">
  <g id="patch_1">
   <path d="M 0 359.281364 
L 599.096314 359.281364 
L 599.096314 0 
L 0 0 
z
" style="fill: #ffffff"/>
  </g>
  <g id="axes_1">
   <g id="patch_2">
    <path d="M 37.496314 336.24 
L 595.496314 336.24 
L 595.496314 3.6 
L 37.496314 3.6 
z
" style="fill: #ffffff"/>
   </g>
   <g id="PolyCollection_1">
    <defs>
     <path id="me4c5ef0a1e" d="M 62.85995 -283.98648 
L 62.85995 -140.147641 
L 64.74527 -133.085484 
L 66.569773 -121.267152 
L 68.455093 -126.354871 
L 70.279597 -141.623613 
L 72.164917 -131.654245 
L 74.050237 -127.062476 
L 75.87474 -138.640462 
L 77.76006 -110.079841 
L 79.584563 -145.783404 
L 81.469883 -140.688469 
L 83.355203 -126.017533 
L 85.058073 -136.347381 
L 86.943393 -132.11076 
L 88.767896 -135.694179 
L 90.653216 -130.980072 
L 92.47772 -131.9914 
L 94.36304 -130.153081 
L 96.24836 -121.38295 
L 98.072863 -149.320422 
L 99.958183 -137.002821 
L 101.782686 -129.2841 
L 103.668006 -144.974564 
L 105.553327 -132.690259 
L 107.256196 -137.333821 
L 109.141516 -128.061207 
L 110.96602 -141.652428 
L 112.85134 -144.317905 
L 114.675843 -158.960241 
L 116.561163 -156.654859 
L 118.446483 -120.06531 
L 120.270986 -127.739136 
L 122.156306 -152.444035 
L 123.98081 -141.734909 
L 125.86613 -147.129897 
L 127.75145 -149.888863 
L 129.515136 -151.092412 
L 131.400456 -139.698993 
L 133.22496 -140.606603 
L 135.11028 -134.756313 
L 136.934783 -129.189274 
L 138.820103 -151.94664 
L 140.705423 -138.564792 
L 142.529926 -142.245043 
L 144.415246 -149.250298 
L 146.23975 -138.031123 
L 148.12507 -149.376504 
L 150.01039 -140.850937 
L 151.713259 -135.890203 
L 153.598579 -144.02921 
L 155.423083 -131.192262 
L 157.308403 -137.637378 
L 159.132906 -146.934333 
L 161.018226 -147.479562 
L 162.903546 -136.465281 
L 164.728049 -139.648816 
L 166.613369 -141.402322 
L 168.437873 -131.681122 
L 170.323193 -151.180528 
L 172.208513 -143.868791 
L 173.911383 -142.315539 
L 175.796703 -136.609284 
L 177.621206 -140.549134 
L 179.506526 -134.191539 
L 181.331029 -137.474891 
L 183.216349 -135.333727 
L 185.101669 -142.924105 
L 186.926173 -147.221002 
L 188.811493 -147.434477 
L 190.635996 -146.815058 
L 192.521316 -145.922358 
L 194.406636 -145.588178 
L 196.109506 -137.732066 
L 197.994826 -144.234194 
L 199.819329 -138.373355 
L 201.704649 -148.821148 
L 203.529152 -146.955232 
L 205.414472 -135.723052 
L 207.299792 -141.643545 
L 209.124296 -138.080014 
L 211.009616 -149.484654 
L 212.834119 -147.438599 
L 214.719439 -133.606869 
L 216.604759 -140.165046 
L 218.368446 -132.629596 
L 220.253766 -136.290589 
L 222.078269 -135.542182 
L 223.963589 -137.984838 
L 225.788092 -134.058285 
L 227.673412 -120.149348 
L 229.558732 -129.214569 
L 231.383236 -144.965654 
L 233.268556 -134.394599 
L 235.093059 -91.263759 
L 236.978379 -123.074027 
L 238.863699 -124.433241 
L 240.566569 -119.833479 
L 242.451889 -109.517131 
L 244.276392 -122.644467 
L 246.161712 -177.338809 
L 247.986216 -138.702433 
L 249.871536 -141.802744 
L 251.756856 -142.271663 
L 253.581359 -154.062775 
L 255.466679 -152.149809 
L 257.291182 -150.858217 
L 259.176502 -161.319875 
L 261.061822 -157.749588 
L 262.764692 -147.105343 
L 264.650012 -137.558838 
L 266.474515 -151.270763 
L 268.359835 -146.534258 
L 270.184339 -135.333678 
L 272.069659 -138.654904 
L 273.954979 -139.859455 
L 275.779482 -143.059151 
L 277.664802 -146.471281 
L 279.489305 -148.179239 
L 281.374625 -141.711042 
L 283.259946 -139.313218 
L 284.962815 -148.281167 
L 286.848135 -143.646976 
L 288.672639 -138.537695 
L 290.557959 -145.472678 
L 292.382462 -141.048823 
L 294.267782 -137.644464 
L 296.153102 -147.649904 
L 297.977605 -113.231272 
L 299.862925 -144.242186 
L 301.687429 -143.204989 
L 303.572749 -143.795142 
L 305.458069 -142.688878 
L 307.221755 -149.416164 
L 309.107075 -146.688946 
L 310.931579 -140.666257 
L 312.816899 -139.92986 
L 314.641402 -140.894127 
L 316.526722 -142.419457 
L 318.412042 -148.535458 
L 320.236545 -143.020542 
L 322.121865 -147.587973 
L 323.946369 -137.023493 
L 325.831689 -137.169842 
L 327.717009 -144.910092 
L 329.419878 -142.82532 
L 331.305198 -146.157034 
L 333.129702 -146.588361 
L 335.015022 -144.744777 
L 336.839525 -145.524332 
L 338.724845 -131.580659 
L 340.610165 -147.891672 
L 342.434668 -138.679328 
L 344.319988 -140.171681 
L 346.144492 -146.096692 
L 348.029812 -145.132823 
L 349.915132 -139.986163 
L 351.618002 -140.101256 
L 353.503322 -140.602216 
L 355.327825 -146.579252 
L 357.213145 -138.862912 
L 359.037648 -143.706532 
L 360.922968 -146.024788 
L 362.808288 -143.378773 
L 364.632792 -140.308698 
L 366.518112 -143.285892 
L 368.342615 -138.876472 
L 370.227935 -150.397364 
L 372.113255 -141.292204 
L 373.816125 -143.959291 
L 375.701445 -145.466071 
L 377.525948 -138.737546 
L 379.411268 -141.337053 
L 381.235771 -137.107774 
L 383.121091 -139.567364 
L 385.006411 -141.146079 
L 386.830915 -139.968806 
L 388.716235 -135.917424 
L 390.540738 -149.524711 
L 392.426058 -143.604674 
L 394.311378 -139.899401 
L 396.075065 -134.960749 
L 397.960385 -144.200935 
L 399.784888 -148.719129 
L 401.670208 -147.447209 
L 403.494711 -138.972489 
L 405.380031 -142.535368 
L 407.265351 -150.881141 
L 409.089855 -138.328941 
L 410.975175 -138.352121 
L 412.799678 -138.607425 
L 414.684998 -137.401632 
L 416.570318 -147.051465 
L 418.273188 -144.431264 
L 420.158508 -146.324551 
L 421.983011 -142.943343 
L 423.868331 -140.753843 
L 425.692835 -144.258441 
L 427.578155 -145.124654 
L 429.463475 -139.254764 
L 431.287978 -140.807327 
L 433.173298 -144.344789 
L 434.997801 -144.799941 
L 436.883121 -144.400477 
L 438.768441 -147.065246 
L 440.471311 -146.718533 
L 442.356631 -134.551401 
L 444.181134 -142.221083 
L 446.066454 -139.614735 
L 447.890958 -147.004416 
L 449.776278 -146.398912 
L 451.661598 -144.082853 
L 453.486101 -146.950355 
L 455.371421 -143.4056 
L 457.195924 -136.812256 
L 459.081244 -138.997815 
L 460.966565 -137.384795 
L 462.669434 -146.371138 
L 464.554754 -152.026235 
L 466.379258 -146.703102 
L 468.264578 -149.084738 
L 470.089081 -140.119334 
L 471.974401 -149.266167 
L 473.859721 -156.758582 
L 475.684224 -138.674203 
L 477.569544 -148.84894 
L 479.394048 -139.220636 
L 481.279368 -148.622682 
L 483.164688 -146.830363 
L 484.928374 -146.432796 
L 486.813694 -136.821761 
L 488.638198 -115.819765 
L 490.523518 -200.522306 
L 492.348021 -147.530082 
L 494.233341 -145.796699 
L 496.118661 -149.288303 
L 497.943164 -149.842672 
L 499.828484 -136.491541 
L 501.652988 -141.586709 
L 503.538308 -148.554679 
L 505.423628 -148.3739 
L 507.126497 -143.002057 
L 509.011817 -148.63983 
L 510.836321 -140.533983 
L 512.721641 -151.990518 
L 514.546144 -141.563524 
L 516.431464 -145.37115 
L 518.316784 -150.052608 
L 520.141287 -147.128917 
L 522.026607 -139.212361 
L 523.851111 -140.861717 
L 525.736431 -150.060725 
L 527.621751 -139.859017 
L 529.324621 -139.69962 
L 531.209941 -138.172692 
L 533.034444 -139.460333 
L 534.919764 -138.074682 
L 536.744267 -133.923812 
L 538.629587 -138.906917 
L 540.514907 -140.584471 
L 542.339411 -151.932698 
L 544.224731 -127.378425 
L 546.049234 -136.256999 
L 547.934554 -152.229159 
L 549.819874 -138.995543 
L 551.522744 -145.029954 
L 553.408064 -145.523235 
L 555.232567 -138.574655 
L 557.117887 -148.930533 
L 558.94239 -138.142669 
L 560.82771 -148.548173 
L 562.71303 -146.585376 
L 564.537534 -136.732691 
L 566.422854 -138.876386 
L 568.247357 -137.444786 
L 570.132677 -150.602941 
L 570.132677 -290.413265 
L 570.132677 -290.413265 
L 568.247357 -277.259377 
L 566.422854 -278.702567 
L 564.537534 -276.576047 
L 562.71303 -286.476507 
L 560.82771 -288.46905 
L 558.94239 -278.060072 
L 557.117887 -288.893703 
L 555.232567 -278.56134 
L 553.408064 -285.548212 
L 551.522744 -285.073627 
L 549.819874 -279.075338 
L 547.934554 -292.336239 
L 546.049234 -276.351622 
L 544.224731 -267.501698 
L 542.339411 -291.777202 
L 540.514907 -280.365529 
L 538.629587 -278.731759 
L 536.744267 -273.768275 
L 534.919764 -277.73067 
L 533.034444 -279.170643 
L 531.209941 -277.925172 
L 529.324621 -279.462906 
L 527.621751 -279.663205 
L 525.736431 -289.910523 
L 523.851111 -280.708515 
L 522.026607 -279.102344 
L 520.141287 -287.060774 
L 518.316784 -290.029926 
L 516.431464 -285.38252 
L 514.546144 -281.60844 
L 512.721641 -292.079337 
L 510.836321 -280.582872 
L 509.011817 -288.723167 
L 507.126497 -283.138281 
L 505.423628 -288.550542 
L 503.538308 -288.758053 
L 501.652988 -281.772453 
L 499.828484 -276.724597 
L 497.943164 -290.110379 
L 496.118661 -289.521613 
L 494.233341 -286.044775 
L 492.348021 -287.729876 
L 490.523518 -340.561364 
L 488.638198 -255.675746 
L 486.813694 -275.6117 
L 484.928374 -285.302382 
L 483.164688 -285.688797 
L 481.279368 -287.532419 
L 479.394048 -278.10573 
L 477.569544 -287.789364 
L 475.684224 -277.652292 
L 473.859721 -295.738641 
L 471.974401 -288.249892 
L 470.089081 -279.153023 
L 468.264578 -288.133526 
L 466.379258 -285.776854 
L 464.554754 -291.147471 
L 462.669434 -285.449843 
L 460.966565 -276.520201 
L 459.081244 -278.076926 
L 457.195924 -275.892324 
L 455.371421 -282.494313 
L 453.486101 -286.08788 
L 451.661598 -283.245529 
L 449.776278 -285.593514 
L 447.890958 -286.237171 
L 446.066454 -278.908583 
L 444.181134 -281.540421 
L 442.356631 -273.92529 
L 440.471311 -286.091661 
L 438.768441 -286.419957 
L 436.883121 -283.788863 
L 434.997801 -284.230663 
L 433.173298 -283.813167 
L 431.287978 -280.324701 
L 429.463475 -278.825973 
L 427.578155 -284.734863 
L 425.692835 -283.916604 
L 423.868331 -280.455477 
L 421.983011 -282.691579 
L 420.158508 -286.125566 
L 418.273188 -284.268192 
L 416.570318 -286.937173 
L 414.684998 -277.27655 
L 412.799678 -278.525279 
L 410.975175 -278.333129 
L 409.089855 -278.374208 
L 407.265351 -290.981327 
L 405.380031 -282.663568 
L 403.494711 -279.130612 
L 401.670208 -287.644196 
L 399.784888 -288.946663 
L 397.960385 -284.421481 
L 396.075065 -275.230945 
L 394.311378 -280.043476 
L 392.426058 -283.811913 
L 390.540738 -289.770974 
L 388.716235 -276.179111 
L 386.830915 -280.205712 
L 385.006411 -281.398035 
L 383.121091 -279.870588 
L 381.235771 -277.450839 
L 379.411268 -281.706769 
L 377.525948 -279.178994 
L 375.701445 -285.932576 
L 373.816125 -284.472482 
L 372.113255 -281.864381 
L 370.227935 -290.992823 
L 368.342615 -279.458442 
L 366.518112 -283.882628 
L 364.632792 -280.943234 
L 362.808288 -284.072763 
L 360.922968 -286.759477 
L 359.037648 -284.480417 
L 357.213145 -279.67063 
L 355.327825 -287.426603 
L 353.503322 -281.493458 
L 351.618002 -281.030047 
L 349.915132 -280.966082 
L 348.029812 -286.16681 
L 346.144492 -287.168408 
L 344.319988 -281.282507 
L 342.434668 -279.830248 
L 340.610165 -289.089227 
L 338.724845 -272.800444 
L 336.839525 -286.774872 
L 335.015022 -286.010944 
L 333.129702 -287.905139 
L 331.305198 -287.523241 
L 329.419878 -284.23258 
L 327.717009 -286.329302 
L 325.831689 -278.623987 
L 323.946369 -278.530253 
L 322.121865 -289.127779 
L 320.236545 -284.617518 
L 318.412042 -290.136599 
L 316.526722 -284.059418 
L 314.641402 -282.587723 
L 312.816899 -281.621812 
L 310.931579 -282.399712 
L 309.107075 -288.467582 
L 307.221755 -291.218066 
L 305.458069 -284.506159 
L 303.572749 -285.661556 
L 301.687429 -285.105576 
L 299.862925 -286.176274 
L 297.977605 -255.20688 
L 296.153102 -289.248967 
L 294.267782 -279.293098 
L 292.382462 -282.67439 
L 290.557959 -287.146766 
L 288.672639 -280.236522 
L 286.848135 -285.379953 
L 284.962815 -290.065113 
L 283.259946 -281.115683 
L 281.374625 -283.529436 
L 279.489305 -290.052067 
L 277.664802 -288.351372 
L 275.779482 -284.948727 
L 273.954979 -281.811934 
L 272.069659 -280.654095 
L 270.184339 -277.35031 
L 268.359835 -288.446351 
L 266.474515 -293.215499 
L 264.650012 -279.47667 
L 262.764692 -289.023816 
L 261.061822 -288.904408 
L 259.176502 -292.52645 
L 257.291182 -282.15096 
L 255.466679 -283.483399 
L 253.581359 -285.414469 
L 251.756856 -268.279413 
L 249.871536 -267.832171 
L 247.986216 -270.026374 
L 246.161712 -308.547268 
L 244.276392 -264.240535 
L 242.451889 -244.905044 
L 240.566569 -255.25044 
L 238.863699 -259.904823 
L 236.978379 -264.738536 
L 235.093059 -233.776432 
L 233.268556 -277.111052 
L 231.383236 -287.611948 
L 229.558732 -270.363872 
L 227.673412 -262.816138 
L 225.788092 -276.729377 
L 223.963589 -280.69301 
L 222.078269 -276.665146 
L 220.253766 -276.453024 
L 218.368446 -272.847563 
L 216.604759 -280.358555 
L 214.719439 -273.818617 
L 212.834119 -287.585496 
L 211.009616 -289.638514 
L 209.124296 -278.2995 
L 207.299792 -281.801664 
L 205.414472 -275.939943 
L 203.529152 -287.209851 
L 201.704649 -289.122063 
L 199.819329 -278.707559 
L 197.994826 -284.588668 
L 196.109506 -278.11288 
L 194.406636 -286.037745 
L 192.521316 -286.408376 
L 190.635996 -287.358923 
L 188.811493 -289.766192 
L 186.926173 -289.60412 
L 185.101669 -285.353196 
L 183.216349 -277.815878 
L 181.331029 -279.976303 
L 179.506526 -276.748659 
L 177.621206 -283.162391 
L 175.796703 -279.271525 
L 173.911383 -285.032083 
L 172.208513 -286.644691 
L 170.323193 -294.009437 
L 168.437873 -274.500555 
L 166.613369 -284.240756 
L 164.728049 -282.544517 
L 162.903546 -279.415824 
L 161.018226 -290.484499 
L 159.132906 -289.992316 
L 157.308403 -280.754519 
L 155.423083 -274.356507 
L 153.598579 -287.24506 
L 151.713259 -279.152048 
L 150.01039 -284.155609 
L 148.12507 -292.737141 
L 146.23975 -281.380483 
L 144.415246 -292.647273 
L 142.529926 -285.682049 
L 140.705423 -282.049266 
L 138.820103 -295.424972 
L 136.934783 -272.702154 
L 135.11028 -278.309419 
L 133.22496 -284.217404 
L 131.400456 -283.353542 
L 129.515136 -294.801706 
L 127.75145 -293.61199 
L 125.86613 -290.898442 
L 123.98081 -285.551363 
L 122.156306 -296.316536 
L 120.270986 -272.462708 
L 118.446483 -264.83484 
L 116.561163 -301.468382 
L 114.675843 -303.805824 
L 112.85134 -289.165971 
L 110.96602 -286.492431 
L 109.141516 -272.943336 
L 107.256196 -282.115343 
L 105.553327 -277.531171 
L 103.668006 -289.85665 
L 101.782686 -274.046451 
L 99.958183 -281.816193 
L 98.072863 -294.048484 
L 96.24836 -266.141412 
L 94.36304 -274.581065 
L 92.47772 -276.370471 
L 90.653216 -275.40118 
L 88.767896 -280.128596 
L 86.943393 -276.510257 
L 85.058073 -280.765204 
L 83.355203 -270.491073 
L 81.469883 -285.220078 
L 79.584563 -290.3295 
L 77.76006 -254.564018 
L 75.87474 -282.664091 
L 74.050237 -271.095887 
L 72.164917 -275.731672 
L 70.279597 -285.771865 
L 68.455093 -270.296836 
L 66.569773 -265.250643 
L 64.74527 -276.888294 
L 62.85995 -283.98648 
z
" style="stroke: #808080; stroke-opacity: 0.3"/>
    </defs>
    <g clip-path="url(#pca0c8fc583)">
     <use xlink:href="#me4c5ef0a1e" x="0" y="359.281364" style="fill: #808080; fill-opacity: 0.3; stroke: #808080; stroke-opacity: 0.3"/>
    </g>
   </g>
   <g id="matplotlib.axis_1">
    <g id="xtick_1">
     <g id="line2d_1">
      <defs>
       <path id="mac50b1d98c" d="M 0 0 
L 0 -3 
" style="stroke: #000000; stroke-width: 0.5"/>
      </defs>
      <g>
       <use xlink:href="#mac50b1d98c" x="125.926946" y="336.24" style="stroke: #000000; stroke-width: 0.5"/>
      </g>
     </g>
     <g id="line2d_2">
      <defs>
       <path id="m6d3cef0351" d="M 0 0 
L 0 3 
" style="stroke: #000000; stroke-width: 0.5"/>
      </defs>
      <g>
       <use xlink:href="#m6d3cef0351" x="125.926946" y="3.6" style="stroke: #000000; stroke-width: 0.5"/>
      </g>
     </g>
     <g id="text_1">
      <!-- $\mathdefault{2004}$ -->
      <g transform="translate(109.478375 352.1933) scale(0.18 -0.18)">
       <defs>
        <path id="CMR17-32" d="M 2669 990 
L 2554 990 
C 2490 537 2438 460 2413 422 
C 2381 371 1920 371 1830 371 
L 602 371 
C 832 620 1280 1073 1824 1596 
C 2214 1966 2669 2400 2669 3033 
C 2669 3788 2067 4224 1395 4224 
C 691 4224 262 3603 262 3027 
C 262 2777 448 2745 525 2745 
C 589 2745 781 2783 781 3007 
C 781 3206 614 3264 525 3264 
C 486 3264 448 3257 422 3244 
C 544 3788 915 4057 1306 4057 
C 1862 4057 2227 3616 2227 3033 
C 2227 2477 1901 1998 1536 1583 
L 262 147 
L 262 0 
L 2515 0 
L 2669 990 
z
" transform="scale(0.015625)"/>
        <path id="CMR17-30" d="M 2688 2038 
C 2688 2430 2682 3099 2413 3613 
C 2176 4063 1798 4224 1466 4224 
C 1158 4224 768 4082 525 3620 
C 269 3137 243 2539 243 2038 
C 243 1671 250 1112 448 623 
C 723 -39 1216 -128 1466 -128 
C 1760 -128 2208 -7 2470 604 
C 2662 1048 2688 1568 2688 2038 
z
M 1466 -26 
C 1056 -26 813 328 723 816 
C 653 1196 653 1749 653 2109 
C 653 2604 653 3015 736 3407 
C 858 3954 1216 4121 1466 4121 
C 1728 4121 2067 3947 2189 3420 
C 2272 3054 2278 2623 2278 2109 
C 2278 1691 2278 1176 2202 797 
C 2067 96 1690 -26 1466 -26 
z
" transform="scale(0.015625)"/>
        <path id="CMR17-34" d="M 2150 4147 
C 2150 4281 2144 4288 2029 4288 
L 128 1254 
L 128 1088 
L 1779 1088 
L 1779 460 
C 1779 230 1766 166 1318 166 
L 1197 166 
L 1197 0 
C 1402 12 1747 12 1965 12 
C 2182 12 2528 12 2733 0 
L 2733 166 
L 2611 166 
C 2163 166 2150 230 2150 460 
L 2150 1088 
L 2803 1088 
L 2803 1254 
L 2150 1254 
L 2150 4147 
z
M 1798 3723 
L 1798 1254 
L 256 1254 
L 1798 3723 
z
" transform="scale(0.015625)"/>
       </defs>
       <use xlink:href="#CMR17-32" transform="scale(0.996264)"/>
       <use xlink:href="#CMR17-30" transform="translate(45.690477 0) scale(0.996264)"/>
       <use xlink:href="#CMR17-30" transform="translate(91.380954 0) scale(0.996264)"/>
       <use xlink:href="#CMR17-34" transform="translate(137.071431 0) scale(0.996264)"/>
      </g>
     </g>
    </g>
    <g id="xtick_2">
     <g id="line2d_3">
      <g>
       <use xlink:href="#mac50b1d98c" x="214.780256" y="336.24" style="stroke: #000000; stroke-width: 0.5"/>
      </g>
     </g>
     <g id="line2d_4">
      <g>
       <use xlink:href="#m6d3cef0351" x="214.780256" y="3.6" style="stroke: #000000; stroke-width: 0.5"/>
      </g>
     </g>
     <g id="text_2">
      <!-- $\mathdefault{2008}$ -->
      <g transform="translate(198.331684 352.1933) scale(0.18 -0.18)">
       <defs>
        <path id="CMR17-38" d="M 1741 2289 
C 2144 2494 2554 2803 2554 3298 
C 2554 3884 1990 4224 1472 4224 
C 890 4224 378 3800 378 3215 
C 378 3054 416 2777 666 2533 
C 730 2469 998 2276 1171 2154 
C 883 2006 211 1652 211 945 
C 211 282 838 -128 1459 -128 
C 2144 -128 2720 366 2720 1022 
C 2720 1607 2330 1877 2074 2051 
L 1741 2289 
z
M 902 2855 
C 851 2887 595 3086 595 3388 
C 595 3781 998 4076 1459 4076 
C 1965 4076 2336 3716 2336 3298 
C 2336 2700 1670 2359 1638 2359 
C 1632 2359 1626 2359 1574 2398 
L 902 2855 
z
M 2080 1536 
C 2176 1466 2483 1253 2483 861 
C 2483 385 2010 25 1472 25 
C 890 25 448 443 448 951 
C 448 1459 838 1884 1280 2083 
L 2080 1536 
z
" transform="scale(0.015625)"/>
       </defs>
       <use xlink:href="#CMR17-32" transform="scale(0.996264)"/>
       <use xlink:href="#CMR17-30" transform="translate(45.690477 0) scale(0.996264)"/>
       <use xlink:href="#CMR17-30" transform="translate(91.380954 0) scale(0.996264)"/>
       <use xlink:href="#CMR17-38" transform="translate(137.071431 0) scale(0.996264)"/>
      </g>
     </g>
    </g>
    <g id="xtick_3">
     <g id="line2d_5">
      <g>
       <use xlink:href="#mac50b1d98c" x="303.633565" y="336.24" style="stroke: #000000; stroke-width: 0.5"/>
      </g>
     </g>
     <g id="line2d_6">
      <g>
       <use xlink:href="#m6d3cef0351" x="303.633565" y="3.6" style="stroke: #000000; stroke-width: 0.5"/>
      </g>
     </g>
     <g id="text_3">
      <!-- $\mathdefault{2012}$ -->
      <g transform="translate(287.184994 352.1933) scale(0.18 -0.18)">
       <defs>
        <path id="CMR17-31" d="M 1702 4083 
C 1702 4217 1696 4224 1606 4224 
C 1357 3927 979 3833 621 3820 
C 602 3820 570 3820 563 3808 
C 557 3795 557 3782 557 3648 
C 755 3648 1088 3686 1344 3839 
L 1344 467 
C 1344 243 1331 166 781 166 
L 589 166 
L 589 0 
C 896 6 1216 12 1523 12 
C 1830 12 2150 6 2458 0 
L 2458 166 
L 2266 166 
C 1715 166 1702 236 1702 467 
L 1702 4083 
z
" transform="scale(0.015625)"/>
       </defs>
       <use xlink:href="#CMR17-32" transform="scale(0.996264)"/>
       <use xlink:href="#CMR17-30" transform="translate(45.690477 0) scale(0.996264)"/>
       <use xlink:href="#CMR17-31" transform="translate(91.380954 0) scale(0.996264)"/>
       <use xlink:href="#CMR17-32" transform="translate(137.071431 0) scale(0.996264)"/>
      </g>
     </g>
    </g>
    <g id="xtick_4">
     <g id="line2d_7">
      <g>
       <use xlink:href="#mac50b1d98c" x="392.486875" y="336.24" style="stroke: #000000; stroke-width: 0.5"/>
      </g>
     </g>
     <g id="line2d_8">
      <g>
       <use xlink:href="#m6d3cef0351" x="392.486875" y="3.6" style="stroke: #000000; stroke-width: 0.5"/>
      </g>
     </g>
     <g id="text_4">
      <!-- $\mathdefault{2016}$ -->
      <g transform="translate(376.038303 352.1933) scale(0.18 -0.18)">
       <defs>
        <path id="CMR17-36" d="M 678 2198 
C 678 3712 1395 4076 1811 4076 
C 1946 4076 2272 4049 2400 3782 
C 2298 3782 2106 3782 2106 3558 
C 2106 3385 2246 3328 2336 3328 
C 2394 3328 2566 3353 2566 3571 
C 2566 3987 2246 4224 1805 4224 
C 1043 4224 243 3411 243 2011 
C 243 257 966 -128 1478 -128 
C 2099 -128 2688 431 2688 1295 
C 2688 2101 2170 2688 1517 2688 
C 1126 2688 838 2430 678 1979 
L 678 2198 
z
M 1478 25 
C 691 25 691 1212 691 1450 
C 691 1914 909 2585 1504 2585 
C 1613 2585 1926 2585 2138 2140 
C 2253 1889 2253 1624 2253 1302 
C 2253 954 2253 696 2118 438 
C 1978 173 1773 25 1478 25 
z
" transform="scale(0.015625)"/>
       </defs>
       <use xlink:href="#CMR17-32" transform="scale(0.996264)"/>
       <use xlink:href="#CMR17-30" transform="translate(45.690477 0) scale(0.996264)"/>
       <use xlink:href="#CMR17-31" transform="translate(91.380954 0) scale(0.996264)"/>
       <use xlink:href="#CMR17-36" transform="translate(137.071431 0) scale(0.996264)"/>
      </g>
     </g>
    </g>
    <g id="xtick_5">
     <g id="line2d_9">
      <g>
       <use xlink:href="#mac50b1d98c" x="481.340184" y="336.24" style="stroke: #000000; stroke-width: 0.5"/>
      </g>
     </g>
     <g id="line2d_10">
      <g>
       <use xlink:href="#m6d3cef0351" x="481.340184" y="3.6" style="stroke: #000000; stroke-width: 0.5"/>
      </g>
     </g>
     <g id="text_5">
      <!-- $\mathdefault{2020}$ -->
      <g transform="translate(464.891613 352.1933) scale(0.18 -0.18)">
       <use xlink:href="#CMR17-32" transform="scale(0.996264)"/>
       <use xlink:href="#CMR17-30" transform="translate(45.690477 0) scale(0.996264)"/>
       <use xlink:href="#CMR17-32" transform="translate(91.380954 0) scale(0.996264)"/>
       <use xlink:href="#CMR17-30" transform="translate(137.071431 0) scale(0.996264)"/>
      </g>
     </g>
    </g>
    <g id="xtick_6">
     <g id="line2d_11">
      <g>
       <use xlink:href="#mac50b1d98c" x="570.193494" y="336.24" style="stroke: #000000; stroke-width: 0.5"/>
      </g>
     </g>
     <g id="line2d_12">
      <g>
       <use xlink:href="#m6d3cef0351" x="570.193494" y="3.6" style="stroke: #000000; stroke-width: 0.5"/>
      </g>
     </g>
     <g id="text_6">
      <!-- $\mathdefault{2024}$ -->
      <g transform="translate(553.744922 352.1933) scale(0.18 -0.18)">
       <use xlink:href="#CMR17-32" transform="scale(0.996264)"/>
       <use xlink:href="#CMR17-30" transform="translate(45.690477 0) scale(0.996264)"/>
       <use xlink:href="#CMR17-32" transform="translate(91.380954 0) scale(0.996264)"/>
       <use xlink:href="#CMR17-34" transform="translate(137.071431 0) scale(0.996264)"/>
      </g>
     </g>
    </g>
    <g id="xtick_7">
     <g id="line2d_13">
      <defs>
       <path id="m03ac535b76" d="M 0 0 
L 0 -1.5 
" style="stroke: #000000; stroke-width: 0.5"/>
      </defs>
      <g>
       <use xlink:href="#m03ac535b76" x="59.286964" y="336.24" style="stroke: #000000; stroke-width: 0.5"/>
      </g>
     </g>
     <g id="line2d_14">
      <defs>
       <path id="m8793e9c8ef" d="M 0 0 
L 0 1.5 
" style="stroke: #000000; stroke-width: 0.5"/>
      </defs>
      <g>
       <use xlink:href="#m8793e9c8ef" x="59.286964" y="3.6" style="stroke: #000000; stroke-width: 0.5"/>
      </g>
     </g>
    </g>
    <g id="xtick_8">
     <g id="line2d_15">
      <g>
       <use xlink:href="#m03ac535b76" x="81.500292" y="336.24" style="stroke: #000000; stroke-width: 0.5"/>
      </g>
     </g>
     <g id="line2d_16">
      <g>
       <use xlink:href="#m8793e9c8ef" x="81.500292" y="3.6" style="stroke: #000000; stroke-width: 0.5"/>
      </g>
     </g>
    </g>
    <g id="xtick_9">
     <g id="line2d_17">
      <g>
       <use xlink:href="#m03ac535b76" x="103.713619" y="336.24" style="stroke: #000000; stroke-width: 0.5"/>
      </g>
     </g>
     <g id="line2d_18">
      <g>
       <use xlink:href="#m8793e9c8ef" x="103.713619" y="3.6" style="stroke: #000000; stroke-width: 0.5"/>
      </g>
     </g>
    </g>
    <g id="xtick_10">
     <g id="line2d_19">
      <g>
       <use xlink:href="#m03ac535b76" x="148.140274" y="336.24" style="stroke: #000000; stroke-width: 0.5"/>
      </g>
     </g>
     <g id="line2d_20">
      <g>
       <use xlink:href="#m8793e9c8ef" x="148.140274" y="3.6" style="stroke: #000000; stroke-width: 0.5"/>
      </g>
     </g>
    </g>
    <g id="xtick_11">
     <g id="line2d_21">
      <g>
       <use xlink:href="#m03ac535b76" x="170.353601" y="336.24" style="stroke: #000000; stroke-width: 0.5"/>
      </g>
     </g>
     <g id="line2d_22">
      <g>
       <use xlink:href="#m8793e9c8ef" x="170.353601" y="3.6" style="stroke: #000000; stroke-width: 0.5"/>
      </g>
     </g>
    </g>
    <g id="xtick_12">
     <g id="line2d_23">
      <g>
       <use xlink:href="#m03ac535b76" x="192.566929" y="336.24" style="stroke: #000000; stroke-width: 0.5"/>
      </g>
     </g>
     <g id="line2d_24">
      <g>
       <use xlink:href="#m8793e9c8ef" x="192.566929" y="3.6" style="stroke: #000000; stroke-width: 0.5"/>
      </g>
     </g>
    </g>
    <g id="xtick_13">
     <g id="line2d_25">
      <g>
       <use xlink:href="#m03ac535b76" x="236.993583" y="336.24" style="stroke: #000000; stroke-width: 0.5"/>
      </g>
     </g>
     <g id="line2d_26">
      <g>
       <use xlink:href="#m8793e9c8ef" x="236.993583" y="3.6" style="stroke: #000000; stroke-width: 0.5"/>
      </g>
     </g>
    </g>
    <g id="xtick_14">
     <g id="line2d_27">
      <g>
       <use xlink:href="#m03ac535b76" x="259.206911" y="336.24" style="stroke: #000000; stroke-width: 0.5"/>
      </g>
     </g>
     <g id="line2d_28">
      <g>
       <use xlink:href="#m8793e9c8ef" x="259.206911" y="3.6" style="stroke: #000000; stroke-width: 0.5"/>
      </g>
     </g>
    </g>
    <g id="xtick_15">
     <g id="line2d_29">
      <g>
       <use xlink:href="#m03ac535b76" x="281.420238" y="336.24" style="stroke: #000000; stroke-width: 0.5"/>
      </g>
     </g>
     <g id="line2d_30">
      <g>
       <use xlink:href="#m8793e9c8ef" x="281.420238" y="3.6" style="stroke: #000000; stroke-width: 0.5"/>
      </g>
     </g>
    </g>
    <g id="xtick_16">
     <g id="line2d_31">
      <g>
       <use xlink:href="#m03ac535b76" x="325.846893" y="336.24" style="stroke: #000000; stroke-width: 0.5"/>
      </g>
     </g>
     <g id="line2d_32">
      <g>
       <use xlink:href="#m8793e9c8ef" x="325.846893" y="3.6" style="stroke: #000000; stroke-width: 0.5"/>
      </g>
     </g>
    </g>
    <g id="xtick_17">
     <g id="line2d_33">
      <g>
       <use xlink:href="#m03ac535b76" x="348.06022" y="336.24" style="stroke: #000000; stroke-width: 0.5"/>
      </g>
     </g>
     <g id="line2d_34">
      <g>
       <use xlink:href="#m8793e9c8ef" x="348.06022" y="3.6" style="stroke: #000000; stroke-width: 0.5"/>
      </g>
     </g>
    </g>
    <g id="xtick_18">
     <g id="line2d_35">
      <g>
       <use xlink:href="#m03ac535b76" x="370.273548" y="336.24" style="stroke: #000000; stroke-width: 0.5"/>
      </g>
     </g>
     <g id="line2d_36">
      <g>
       <use xlink:href="#m8793e9c8ef" x="370.273548" y="3.6" style="stroke: #000000; stroke-width: 0.5"/>
      </g>
     </g>
    </g>
    <g id="xtick_19">
     <g id="line2d_37">
      <g>
       <use xlink:href="#m03ac535b76" x="414.700202" y="336.24" style="stroke: #000000; stroke-width: 0.5"/>
      </g>
     </g>
     <g id="line2d_38">
      <g>
       <use xlink:href="#m8793e9c8ef" x="414.700202" y="3.6" style="stroke: #000000; stroke-width: 0.5"/>
      </g>
     </g>
    </g>
    <g id="xtick_20">
     <g id="line2d_39">
      <g>
       <use xlink:href="#m03ac535b76" x="436.91353" y="336.24" style="stroke: #000000; stroke-width: 0.5"/>
      </g>
     </g>
     <g id="line2d_40">
      <g>
       <use xlink:href="#m8793e9c8ef" x="436.91353" y="3.6" style="stroke: #000000; stroke-width: 0.5"/>
      </g>
     </g>
    </g>
    <g id="xtick_21">
     <g id="line2d_41">
      <g>
       <use xlink:href="#m03ac535b76" x="459.126857" y="336.24" style="stroke: #000000; stroke-width: 0.5"/>
      </g>
     </g>
     <g id="line2d_42">
      <g>
       <use xlink:href="#m8793e9c8ef" x="459.126857" y="3.6" style="stroke: #000000; stroke-width: 0.5"/>
      </g>
     </g>
    </g>
    <g id="xtick_22">
     <g id="line2d_43">
      <g>
       <use xlink:href="#m03ac535b76" x="503.553512" y="336.24" style="stroke: #000000; stroke-width: 0.5"/>
      </g>
     </g>
     <g id="line2d_44">
      <g>
       <use xlink:href="#m8793e9c8ef" x="503.553512" y="3.6" style="stroke: #000000; stroke-width: 0.5"/>
      </g>
     </g>
    </g>
    <g id="xtick_23">
     <g id="line2d_45">
      <g>
       <use xlink:href="#m03ac535b76" x="525.766839" y="336.24" style="stroke: #000000; stroke-width: 0.5"/>
      </g>
     </g>
     <g id="line2d_46">
      <g>
       <use xlink:href="#m8793e9c8ef" x="525.766839" y="3.6" style="stroke: #000000; stroke-width: 0.5"/>
      </g>
     </g>
    </g>
    <g id="xtick_24">
     <g id="line2d_47">
      <g>
       <use xlink:href="#m03ac535b76" x="547.980167" y="336.24" style="stroke: #000000; stroke-width: 0.5"/>
      </g>
     </g>
     <g id="line2d_48">
      <g>
       <use xlink:href="#m8793e9c8ef" x="547.980167" y="3.6" style="stroke: #000000; stroke-width: 0.5"/>
      </g>
     </g>
    </g>
    <g id="xtick_25">
     <g id="line2d_49">
      <g>
       <use xlink:href="#m03ac535b76" x="592.406821" y="336.24" style="stroke: #000000; stroke-width: 0.5"/>
      </g>
     </g>
     <g id="line2d_50">
      <g>
       <use xlink:href="#m8793e9c8ef" x="592.406821" y="3.6" style="stroke: #000000; stroke-width: 0.5"/>
      </g>
     </g>
    </g>
   </g>
   <g id="matplotlib.axis_2">
    <g id="ytick_1">
     <g id="line2d_51">
      <defs>
       <path id="mc44adf3d26" d="M 0 0 
L 3 0 
" style="stroke: #000000; stroke-width: 0.5"/>
      </defs>
      <g>
       <use xlink:href="#mc44adf3d26" x="37.496314" y="300.103864" style="stroke: #000000; stroke-width: 0.5"/>
      </g>
     </g>
     <g id="line2d_52">
      <defs>
       <path id="m98c788730f" d="M 0 0 
L -3 0 
" style="stroke: #000000; stroke-width: 0.5"/>
      </defs>
      <g>
       <use xlink:href="#m98c788730f" x="595.496314" y="300.103864" style="stroke: #000000; stroke-width: 0.5"/>
      </g>
     </g>
     <g id="text_7">
      <!-- $\mathdefault{−20}$ -->
      <g transform="translate(3.6 306.330514) scale(0.18 -0.18)">
       <defs>
        <path id="CMSY10-0" d="M 4218 1472 
C 4326 1472 4442 1472 4442 1600 
C 4442 1728 4326 1728 4218 1728 
L 755 1728 
C 646 1728 531 1728 531 1600 
C 531 1472 646 1472 755 1472 
L 4218 1472 
z
" transform="scale(0.015625)"/>
       </defs>
       <use xlink:href="#CMSY10-0" transform="scale(0.996264)"/>
       <use xlink:href="#CMR17-32" transform="translate(77.487468 0) scale(0.996264)"/>
       <use xlink:href="#CMR17-30" transform="translate(123.177945 0) scale(0.996264)"/>
      </g>
     </g>
    </g>
    <g id="ytick_2">
     <g id="line2d_53">
      <g>
       <use xlink:href="#mc44adf3d26" x="37.496314" y="262.635021" style="stroke: #000000; stroke-width: 0.5"/>
      </g>
     </g>
     <g id="line2d_54">
      <g>
       <use xlink:href="#m98c788730f" x="595.496314" y="262.635021" style="stroke: #000000; stroke-width: 0.5"/>
      </g>
     </g>
     <g id="text_8">
      <!-- $\mathdefault{−15}$ -->
      <g transform="translate(3.6 268.861671) scale(0.18 -0.18)">
       <defs>
        <path id="CMR17-35" d="M 730 3750 
C 794 3724 1056 3641 1325 3641 
C 1920 3641 2246 3961 2432 4140 
C 2432 4191 2432 4224 2394 4224 
C 2387 4224 2374 4224 2323 4198 
C 2099 4102 1837 4032 1517 4032 
C 1325 4032 1037 4055 723 4191 
C 653 4224 640 4224 634 4224 
C 602 4224 595 4217 595 4090 
L 595 2231 
C 595 2113 595 2080 659 2080 
C 691 2080 704 2093 736 2139 
C 941 2435 1222 2560 1542 2560 
C 1766 2560 2246 2415 2246 1293 
C 2246 1087 2246 716 2054 422 
C 1894 159 1645 25 1370 25 
C 947 25 518 319 403 812 
C 429 806 480 793 506 793 
C 589 793 749 838 749 1036 
C 749 1209 627 1280 506 1280 
C 358 1280 262 1190 262 1011 
C 262 454 704 -128 1382 -128 
C 2042 -128 2669 441 2669 1267 
C 2669 2054 2170 2662 1549 2662 
C 1222 2662 947 2540 730 2304 
L 730 3750 
z
" transform="scale(0.015625)"/>
       </defs>
       <use xlink:href="#CMSY10-0" transform="scale(0.996264)"/>
       <use xlink:href="#CMR17-31" transform="translate(77.487468 0) scale(0.996264)"/>
       <use xlink:href="#CMR17-35" transform="translate(123.177945 0) scale(0.996264)"/>
      </g>
     </g>
    </g>
    <g id="ytick_3">
     <g id="line2d_55">
      <g>
       <use xlink:href="#mc44adf3d26" x="37.496314" y="225.166177" style="stroke: #000000; stroke-width: 0.5"/>
      </g>
     </g>
     <g id="line2d_56">
      <g>
       <use xlink:href="#m98c788730f" x="595.496314" y="225.166177" style="stroke: #000000; stroke-width: 0.5"/>
      </g>
     </g>
     <g id="text_9">
      <!-- $\mathdefault{−10}$ -->
      <g transform="translate(3.6 231.392827) scale(0.18 -0.18)">
       <use xlink:href="#CMSY10-0" transform="scale(0.996264)"/>
       <use xlink:href="#CMR17-31" transform="translate(77.487468 0) scale(0.996264)"/>
       <use xlink:href="#CMR17-30" transform="translate(123.177945 0) scale(0.996264)"/>
      </g>
     </g>
    </g>
    <g id="ytick_4">
     <g id="line2d_57">
      <g>
       <use xlink:href="#mc44adf3d26" x="37.496314" y="187.697334" style="stroke: #000000; stroke-width: 0.5"/>
      </g>
     </g>
     <g id="line2d_58">
      <g>
       <use xlink:href="#m98c788730f" x="595.496314" y="187.697334" style="stroke: #000000; stroke-width: 0.5"/>
      </g>
     </g>
     <g id="text_10">
      <!-- $\mathdefault{−5}$ -->
      <g transform="translate(11.824286 193.923984) scale(0.18 -0.18)">
       <use xlink:href="#CMSY10-0" transform="scale(0.996264)"/>
       <use xlink:href="#CMR17-35" transform="translate(77.487468 0) scale(0.996264)"/>
      </g>
     </g>
    </g>
    <g id="ytick_5">
     <g id="line2d_59">
      <g>
       <use xlink:href="#mc44adf3d26" x="37.496314" y="150.22849" style="stroke: #000000; stroke-width: 0.5"/>
      </g>
     </g>
     <g id="line2d_60">
      <g>
       <use xlink:href="#m98c788730f" x="595.496314" y="150.22849" style="stroke: #000000; stroke-width: 0.5"/>
      </g>
     </g>
     <g id="text_11">
      <!-- $\mathdefault{0}$ -->
      <g transform="translate(25.772028 156.45514) scale(0.18 -0.18)">
       <use xlink:href="#CMR17-30" transform="scale(0.996264)"/>
      </g>
     </g>
    </g>
    <g id="ytick_6">
     <g id="line2d_61">
      <g>
       <use xlink:href="#mc44adf3d26" x="37.496314" y="112.759647" style="stroke: #000000; stroke-width: 0.5"/>
      </g>
     </g>
     <g id="line2d_62">
      <g>
       <use xlink:href="#m98c788730f" x="595.496314" y="112.759647" style="stroke: #000000; stroke-width: 0.5"/>
      </g>
     </g>
     <g id="text_12">
      <!-- $\mathdefault{5}$ -->
      <g transform="translate(25.772028 118.986297) scale(0.18 -0.18)">
       <use xlink:href="#CMR17-35" transform="scale(0.996264)"/>
      </g>
     </g>
    </g>
    <g id="ytick_7">
     <g id="line2d_63">
      <g>
       <use xlink:href="#mc44adf3d26" x="37.496314" y="75.290803" style="stroke: #000000; stroke-width: 0.5"/>
      </g>
     </g>
     <g id="line2d_64">
      <g>
       <use xlink:href="#m98c788730f" x="595.496314" y="75.290803" style="stroke: #000000; stroke-width: 0.5"/>
      </g>
     </g>
     <g id="text_13">
      <!-- $\mathdefault{10}$ -->
      <g transform="translate(17.547742 81.517453) scale(0.18 -0.18)">
       <use xlink:href="#CMR17-31" transform="scale(0.996264)"/>
       <use xlink:href="#CMR17-30" transform="translate(45.690477 0) scale(0.996264)"/>
      </g>
     </g>
    </g>
    <g id="ytick_8">
     <g id="line2d_65">
      <g>
       <use xlink:href="#mc44adf3d26" x="37.496314" y="37.82196" style="stroke: #000000; stroke-width: 0.5"/>
      </g>
     </g>
     <g id="line2d_66">
      <g>
       <use xlink:href="#m98c788730f" x="595.496314" y="37.82196" style="stroke: #000000; stroke-width: 0.5"/>
      </g>
     </g>
     <g id="text_14">
      <!-- $\mathdefault{15}$ -->
      <g transform="translate(17.547742 44.04861) scale(0.18 -0.18)">
       <use xlink:href="#CMR17-31" transform="scale(0.996264)"/>
       <use xlink:href="#CMR17-35" transform="translate(45.690477 0) scale(0.996264)"/>
      </g>
     </g>
    </g>
    <g id="ytick_9">
     <g id="line2d_67">
      <defs>
       <path id="m8a56efe33e" d="M 0 0 
L 1.5 0 
" style="stroke: #000000; stroke-width: 0.5"/>
      </defs>
      <g>
       <use xlink:href="#m8a56efe33e" x="37.496314" y="330.078939" style="stroke: #000000; stroke-width: 0.5"/>
      </g>
     </g>
     <g id="line2d_68">
      <defs>
       <path id="mc79ff87c07" d="M 0 0 
L -1.5 0 
" style="stroke: #000000; stroke-width: 0.5"/>
      </defs>
      <g>
       <use xlink:href="#mc79ff87c07" x="595.496314" y="330.078939" style="stroke: #000000; stroke-width: 0.5"/>
      </g>
     </g>
    </g>
    <g id="ytick_10">
     <g id="line2d_69">
      <g>
       <use xlink:href="#m8a56efe33e" x="37.496314" y="322.58517" style="stroke: #000000; stroke-width: 0.5"/>
      </g>
     </g>
     <g id="line2d_70">
      <g>
       <use xlink:href="#mc79ff87c07" x="595.496314" y="322.58517" style="stroke: #000000; stroke-width: 0.5"/>
      </g>
     </g>
    </g>
    <g id="ytick_11">
     <g id="line2d_71">
      <g>
       <use xlink:href="#m8a56efe33e" x="37.496314" y="315.091402" style="stroke: #000000; stroke-width: 0.5"/>
      </g>
     </g>
     <g id="line2d_72">
      <g>
       <use xlink:href="#mc79ff87c07" x="595.496314" y="315.091402" style="stroke: #000000; stroke-width: 0.5"/>
      </g>
     </g>
    </g>
    <g id="ytick_12">
     <g id="line2d_73">
      <g>
       <use xlink:href="#m8a56efe33e" x="37.496314" y="307.597633" style="stroke: #000000; stroke-width: 0.5"/>
      </g>
     </g>
     <g id="line2d_74">
      <g>
       <use xlink:href="#mc79ff87c07" x="595.496314" y="307.597633" style="stroke: #000000; stroke-width: 0.5"/>
      </g>
     </g>
    </g>
    <g id="ytick_13">
     <g id="line2d_75">
      <g>
       <use xlink:href="#m8a56efe33e" x="37.496314" y="292.610095" style="stroke: #000000; stroke-width: 0.5"/>
      </g>
     </g>
     <g id="line2d_76">
      <g>
       <use xlink:href="#mc79ff87c07" x="595.496314" y="292.610095" style="stroke: #000000; stroke-width: 0.5"/>
      </g>
     </g>
    </g>
    <g id="ytick_14">
     <g id="line2d_77">
      <g>
       <use xlink:href="#m8a56efe33e" x="37.496314" y="285.116327" style="stroke: #000000; stroke-width: 0.5"/>
      </g>
     </g>
     <g id="line2d_78">
      <g>
       <use xlink:href="#mc79ff87c07" x="595.496314" y="285.116327" style="stroke: #000000; stroke-width: 0.5"/>
      </g>
     </g>
    </g>
    <g id="ytick_15">
     <g id="line2d_79">
      <g>
       <use xlink:href="#m8a56efe33e" x="37.496314" y="277.622558" style="stroke: #000000; stroke-width: 0.5"/>
      </g>
     </g>
     <g id="line2d_80">
      <g>
       <use xlink:href="#mc79ff87c07" x="595.496314" y="277.622558" style="stroke: #000000; stroke-width: 0.5"/>
      </g>
     </g>
    </g>
    <g id="ytick_16">
     <g id="line2d_81">
      <g>
       <use xlink:href="#m8a56efe33e" x="37.496314" y="270.128789" style="stroke: #000000; stroke-width: 0.5"/>
      </g>
     </g>
     <g id="line2d_82">
      <g>
       <use xlink:href="#mc79ff87c07" x="595.496314" y="270.128789" style="stroke: #000000; stroke-width: 0.5"/>
      </g>
     </g>
    </g>
    <g id="ytick_17">
     <g id="line2d_83">
      <g>
       <use xlink:href="#m8a56efe33e" x="37.496314" y="255.141252" style="stroke: #000000; stroke-width: 0.5"/>
      </g>
     </g>
     <g id="line2d_84">
      <g>
       <use xlink:href="#mc79ff87c07" x="595.496314" y="255.141252" style="stroke: #000000; stroke-width: 0.5"/>
      </g>
     </g>
    </g>
    <g id="ytick_18">
     <g id="line2d_85">
      <g>
       <use xlink:href="#m8a56efe33e" x="37.496314" y="247.647483" style="stroke: #000000; stroke-width: 0.5"/>
      </g>
     </g>
     <g id="line2d_86">
      <g>
       <use xlink:href="#mc79ff87c07" x="595.496314" y="247.647483" style="stroke: #000000; stroke-width: 0.5"/>
      </g>
     </g>
    </g>
    <g id="ytick_19">
     <g id="line2d_87">
      <g>
       <use xlink:href="#m8a56efe33e" x="37.496314" y="240.153715" style="stroke: #000000; stroke-width: 0.5"/>
      </g>
     </g>
     <g id="line2d_88">
      <g>
       <use xlink:href="#mc79ff87c07" x="595.496314" y="240.153715" style="stroke: #000000; stroke-width: 0.5"/>
      </g>
     </g>
    </g>
    <g id="ytick_20">
     <g id="line2d_89">
      <g>
       <use xlink:href="#m8a56efe33e" x="37.496314" y="232.659946" style="stroke: #000000; stroke-width: 0.5"/>
      </g>
     </g>
     <g id="line2d_90">
      <g>
       <use xlink:href="#mc79ff87c07" x="595.496314" y="232.659946" style="stroke: #000000; stroke-width: 0.5"/>
      </g>
     </g>
    </g>
    <g id="ytick_21">
     <g id="line2d_91">
      <g>
       <use xlink:href="#m8a56efe33e" x="37.496314" y="217.672409" style="stroke: #000000; stroke-width: 0.5"/>
      </g>
     </g>
     <g id="line2d_92">
      <g>
       <use xlink:href="#mc79ff87c07" x="595.496314" y="217.672409" style="stroke: #000000; stroke-width: 0.5"/>
      </g>
     </g>
    </g>
    <g id="ytick_22">
     <g id="line2d_93">
      <g>
       <use xlink:href="#m8a56efe33e" x="37.496314" y="210.17864" style="stroke: #000000; stroke-width: 0.5"/>
      </g>
     </g>
     <g id="line2d_94">
      <g>
       <use xlink:href="#mc79ff87c07" x="595.496314" y="210.17864" style="stroke: #000000; stroke-width: 0.5"/>
      </g>
     </g>
    </g>
    <g id="ytick_23">
     <g id="line2d_95">
      <g>
       <use xlink:href="#m8a56efe33e" x="37.496314" y="202.684871" style="stroke: #000000; stroke-width: 0.5"/>
      </g>
     </g>
     <g id="line2d_96">
      <g>
       <use xlink:href="#mc79ff87c07" x="595.496314" y="202.684871" style="stroke: #000000; stroke-width: 0.5"/>
      </g>
     </g>
    </g>
    <g id="ytick_24">
     <g id="line2d_97">
      <g>
       <use xlink:href="#m8a56efe33e" x="37.496314" y="195.191102" style="stroke: #000000; stroke-width: 0.5"/>
      </g>
     </g>
     <g id="line2d_98">
      <g>
       <use xlink:href="#mc79ff87c07" x="595.496314" y="195.191102" style="stroke: #000000; stroke-width: 0.5"/>
      </g>
     </g>
    </g>
    <g id="ytick_25">
     <g id="line2d_99">
      <g>
       <use xlink:href="#m8a56efe33e" x="37.496314" y="180.203565" style="stroke: #000000; stroke-width: 0.5"/>
      </g>
     </g>
     <g id="line2d_100">
      <g>
       <use xlink:href="#mc79ff87c07" x="595.496314" y="180.203565" style="stroke: #000000; stroke-width: 0.5"/>
      </g>
     </g>
    </g>
    <g id="ytick_26">
     <g id="line2d_101">
      <g>
       <use xlink:href="#m8a56efe33e" x="37.496314" y="172.709796" style="stroke: #000000; stroke-width: 0.5"/>
      </g>
     </g>
     <g id="line2d_102">
      <g>
       <use xlink:href="#mc79ff87c07" x="595.496314" y="172.709796" style="stroke: #000000; stroke-width: 0.5"/>
      </g>
     </g>
    </g>
    <g id="ytick_27">
     <g id="line2d_103">
      <g>
       <use xlink:href="#m8a56efe33e" x="37.496314" y="165.216028" style="stroke: #000000; stroke-width: 0.5"/>
      </g>
     </g>
     <g id="line2d_104">
      <g>
       <use xlink:href="#mc79ff87c07" x="595.496314" y="165.216028" style="stroke: #000000; stroke-width: 0.5"/>
      </g>
     </g>
    </g>
    <g id="ytick_28">
     <g id="line2d_105">
      <g>
       <use xlink:href="#m8a56efe33e" x="37.496314" y="157.722259" style="stroke: #000000; stroke-width: 0.5"/>
      </g>
     </g>
     <g id="line2d_106">
      <g>
       <use xlink:href="#mc79ff87c07" x="595.496314" y="157.722259" style="stroke: #000000; stroke-width: 0.5"/>
      </g>
     </g>
    </g>
    <g id="ytick_29">
     <g id="line2d_107">
      <g>
       <use xlink:href="#m8a56efe33e" x="37.496314" y="142.734722" style="stroke: #000000; stroke-width: 0.5"/>
      </g>
     </g>
     <g id="line2d_108">
      <g>
       <use xlink:href="#mc79ff87c07" x="595.496314" y="142.734722" style="stroke: #000000; stroke-width: 0.5"/>
      </g>
     </g>
    </g>
    <g id="ytick_30">
     <g id="line2d_109">
      <g>
       <use xlink:href="#m8a56efe33e" x="37.496314" y="135.240953" style="stroke: #000000; stroke-width: 0.5"/>
      </g>
     </g>
     <g id="line2d_110">
      <g>
       <use xlink:href="#mc79ff87c07" x="595.496314" y="135.240953" style="stroke: #000000; stroke-width: 0.5"/>
      </g>
     </g>
    </g>
    <g id="ytick_31">
     <g id="line2d_111">
      <g>
       <use xlink:href="#m8a56efe33e" x="37.496314" y="127.747184" style="stroke: #000000; stroke-width: 0.5"/>
      </g>
     </g>
     <g id="line2d_112">
      <g>
       <use xlink:href="#mc79ff87c07" x="595.496314" y="127.747184" style="stroke: #000000; stroke-width: 0.5"/>
      </g>
     </g>
    </g>
    <g id="ytick_32">
     <g id="line2d_113">
      <g>
       <use xlink:href="#m8a56efe33e" x="37.496314" y="120.253416" style="stroke: #000000; stroke-width: 0.5"/>
      </g>
     </g>
     <g id="line2d_114">
      <g>
       <use xlink:href="#mc79ff87c07" x="595.496314" y="120.253416" style="stroke: #000000; stroke-width: 0.5"/>
      </g>
     </g>
    </g>
    <g id="ytick_33">
     <g id="line2d_115">
      <g>
       <use xlink:href="#m8a56efe33e" x="37.496314" y="105.265878" style="stroke: #000000; stroke-width: 0.5"/>
      </g>
     </g>
     <g id="line2d_116">
      <g>
       <use xlink:href="#mc79ff87c07" x="595.496314" y="105.265878" style="stroke: #000000; stroke-width: 0.5"/>
      </g>
     </g>
    </g>
    <g id="ytick_34">
     <g id="line2d_117">
      <g>
       <use xlink:href="#m8a56efe33e" x="37.496314" y="97.772109" style="stroke: #000000; stroke-width: 0.5"/>
      </g>
     </g>
     <g id="line2d_118">
      <g>
       <use xlink:href="#mc79ff87c07" x="595.496314" y="97.772109" style="stroke: #000000; stroke-width: 0.5"/>
      </g>
     </g>
    </g>
    <g id="ytick_35">
     <g id="line2d_119">
      <g>
       <use xlink:href="#m8a56efe33e" x="37.496314" y="90.278341" style="stroke: #000000; stroke-width: 0.5"/>
      </g>
     </g>
     <g id="line2d_120">
      <g>
       <use xlink:href="#mc79ff87c07" x="595.496314" y="90.278341" style="stroke: #000000; stroke-width: 0.5"/>
      </g>
     </g>
    </g>
    <g id="ytick_36">
     <g id="line2d_121">
      <g>
       <use xlink:href="#m8a56efe33e" x="37.496314" y="82.784572" style="stroke: #000000; stroke-width: 0.5"/>
      </g>
     </g>
     <g id="line2d_122">
      <g>
       <use xlink:href="#mc79ff87c07" x="595.496314" y="82.784572" style="stroke: #000000; stroke-width: 0.5"/>
      </g>
     </g>
    </g>
    <g id="ytick_37">
     <g id="line2d_123">
      <g>
       <use xlink:href="#m8a56efe33e" x="37.496314" y="67.797035" style="stroke: #000000; stroke-width: 0.5"/>
      </g>
     </g>
     <g id="line2d_124">
      <g>
       <use xlink:href="#mc79ff87c07" x="595.496314" y="67.797035" style="stroke: #000000; stroke-width: 0.5"/>
      </g>
     </g>
    </g>
    <g id="ytick_38">
     <g id="line2d_125">
      <g>
       <use xlink:href="#m8a56efe33e" x="37.496314" y="60.303266" style="stroke: #000000; stroke-width: 0.5"/>
      </g>
     </g>
     <g id="line2d_126">
      <g>
       <use xlink:href="#mc79ff87c07" x="595.496314" y="60.303266" style="stroke: #000000; stroke-width: 0.5"/>
      </g>
     </g>
    </g>
    <g id="ytick_39">
     <g id="line2d_127">
      <g>
       <use xlink:href="#m8a56efe33e" x="37.496314" y="52.809497" style="stroke: #000000; stroke-width: 0.5"/>
      </g>
     </g>
     <g id="line2d_128">
      <g>
       <use xlink:href="#mc79ff87c07" x="595.496314" y="52.809497" style="stroke: #000000; stroke-width: 0.5"/>
      </g>
     </g>
    </g>
    <g id="ytick_40">
     <g id="line2d_129">
      <g>
       <use xlink:href="#m8a56efe33e" x="37.496314" y="45.315729" style="stroke: #000000; stroke-width: 0.5"/>
      </g>
     </g>
     <g id="line2d_130">
      <g>
       <use xlink:href="#mc79ff87c07" x="595.496314" y="45.315729" style="stroke: #000000; stroke-width: 0.5"/>
      </g>
     </g>
    </g>
    <g id="ytick_41">
     <g id="line2d_131">
      <g>
       <use xlink:href="#m8a56efe33e" x="37.496314" y="30.328191" style="stroke: #000000; stroke-width: 0.5"/>
      </g>
     </g>
     <g id="line2d_132">
      <g>
       <use xlink:href="#mc79ff87c07" x="595.496314" y="30.328191" style="stroke: #000000; stroke-width: 0.5"/>
      </g>
     </g>
    </g>
    <g id="ytick_42">
     <g id="line2d_133">
      <g>
       <use xlink:href="#m8a56efe33e" x="37.496314" y="22.834423" style="stroke: #000000; stroke-width: 0.5"/>
      </g>
     </g>
     <g id="line2d_134">
      <g>
       <use xlink:href="#mc79ff87c07" x="595.496314" y="22.834423" style="stroke: #000000; stroke-width: 0.5"/>
      </g>
     </g>
    </g>
    <g id="ytick_43">
     <g id="line2d_135">
      <g>
       <use xlink:href="#m8a56efe33e" x="37.496314" y="15.340654" style="stroke: #000000; stroke-width: 0.5"/>
      </g>
     </g>
     <g id="line2d_136">
      <g>
       <use xlink:href="#mc79ff87c07" x="595.496314" y="15.340654" style="stroke: #000000; stroke-width: 0.5"/>
      </g>
     </g>
    </g>
    <g id="ytick_44">
     <g id="line2d_137">
      <g>
       <use xlink:href="#m8a56efe33e" x="37.496314" y="7.846885" style="stroke: #000000; stroke-width: 0.5"/>
      </g>
     </g>
     <g id="line2d_138">
      <g>
       <use xlink:href="#mc79ff87c07" x="595.496314" y="7.846885" style="stroke: #000000; stroke-width: 0.5"/>
      </g>
     </g>
    </g>
   </g>
   <g id="line2d_139">
    <path d="M 62.85995 167.183518 
L 64.74527 222.4068 
L 66.569773 147.711313 
L 68.455093 101.152285 
L 70.279597 169.141025 
L 72.164917 171.246626 
L 74.050237 166.550359 
L 75.87474 240.580946 
L 77.76006 127.65253 
L 79.584563 114.156659 
L 81.469883 140.180026 
L 83.355203 153.324199 
L 85.058073 176.676526 
L 86.943393 114.908043 
L 88.767896 177.921661 
L 90.653216 172.583068 
L 92.47772 196.947437 
L 94.36304 236.633285 
L 96.24836 142.834268 
L 98.072863 187.899727 
L 99.958183 161.697081 
L 101.782686 103.243275 
L 103.668006 159.134412 
L 105.553327 153.01723 
L 107.256196 201.112614 
L 109.141516 141.682708 
L 110.96602 112.766086 
L 112.85134 112.521667 
L 114.675843 109.67974 
L 116.561163 146.792885 
L 118.446483 152.504521 
L 120.270986 127.913057 
L 122.156306 136.181154 
L 123.98081 142.213074 
L 127.75145 115.088875 
L 129.515136 143.089883 
L 131.400456 163.039341 
L 133.22496 144.000633 
L 135.11028 170.725752 
L 136.934783 130.128053 
L 138.820103 168.245655 
L 140.705423 161.776031 
L 142.529926 130.720361 
L 144.415246 150.53027 
L 146.23975 116.309558 
L 148.12507 131.070183 
L 150.01039 161.434947 
L 151.713259 138.759625 
L 153.598579 153.189036 
L 155.423083 169.585497 
L 157.308403 141.36782 
L 159.132906 135.13675 
L 161.018226 137.870936 
L 162.903546 148.984894 
L 164.728049 149.219204 
L 166.613369 171.280414 
L 168.437873 122.209927 
L 170.323193 135.417004 
L 172.208513 140.401036 
L 173.911383 151.44843 
L 175.796703 140.263435 
L 177.621206 145.361396 
L 179.506526 157.259244 
L 181.331029 171.940658 
L 183.216349 146.012618 
L 185.101669 134.395436 
L 186.926173 132.627369 
L 188.811493 124.713135 
L 190.635996 136.471475 
L 192.521316 135.38505 
L 194.406636 146.144683 
L 196.109506 139.445903 
L 197.994826 170.121945 
L 199.819329 120.626423 
L 201.704649 126.295005 
L 203.529152 148.717515 
L 205.414472 147.008651 
L 207.299792 183.525278 
L 209.124296 128.647512 
L 211.009616 129.232187 
L 212.834119 188.301295 
L 214.719439 142.16575 
L 216.604759 202.932448 
L 218.368446 163.326875 
L 220.253766 171.506781 
L 222.078269 120.371155 
L 223.963589 132.531319 
L 225.788092 184.076031 
L 227.673412 198.646921 
L 229.558732 135.977267 
L 231.383236 188.941395 
L 233.268556 321.12 
L 235.093059 219.686503 
L 236.978379 154.893489 
L 238.863699 160.52907 
L 240.566569 204.387344 
L 242.451889 196.384846 
L 244.276392 65.157326 
L 246.161712 103.75854 
L 247.986216 130.793511 
L 249.871536 142.420482 
L 251.756856 93.264535 
L 253.581359 124.822215 
L 255.466679 133.829751 
L 257.291182 136.03818 
L 259.176502 135.018527 
L 261.061822 141.372567 
L 262.764692 173.544047 
L 264.650012 108.161315 
L 266.474515 121.345436 
L 268.359835 196.87672 
L 270.184339 178.531739 
L 272.069659 152.695052 
L 273.954979 145.055298 
L 275.779482 126.619416 
L 277.664802 117.878521 
L 279.489305 132.960701 
L 281.374625 124.038997 
L 283.259946 125.828501 
L 284.962815 128.065669 
L 286.848135 159.721373 
L 288.672639 134.865158 
L 290.557959 146.411174 
L 292.382462 179.355563 
L 294.267782 128.484113 
L 296.153102 233.822605 
L 297.977605 157.489834 
L 299.862925 129.241671 
L 301.687429 138.403952 
L 303.572749 139.97262 
L 305.458069 116.487724 
L 307.221755 120.900113 
L 309.107075 130.138073 
L 312.816899 175.044234 
L 314.641402 160.234391 
L 316.526722 129.951633 
L 318.412042 126.540261 
L 320.236545 129.184634 
L 322.121865 153.141483 
L 323.946369 173.148166 
L 325.831689 135.446919 
L 327.717009 120.220388 
L 329.419878 134.247308 
L 331.305198 131.380172 
L 333.129702 140.688092 
L 335.015022 117.947361 
L 336.839525 159.919488 
L 338.724845 127.472693 
L 340.610165 149.59555 
L 344.319988 135.773637 
L 346.144492 123.057268 
L 348.029812 140.112337 
L 349.915132 144.208902 
L 351.618002 152.419339 
L 353.503322 131.300453 
L 355.327825 149.930973 
L 357.213145 140.043756 
L 359.037648 127.836494 
L 360.922968 140.284289 
L 362.808288 154.635672 
L 364.632792 138.214737 
L 366.518112 171.56825 
L 368.342615 109.831282 
L 370.227935 146.681648 
L 372.113255 159.806812 
L 373.816125 130.530229 
L 375.701445 151.024284 
L 377.525948 144.8902 
L 379.411268 144.143377 
L 381.235771 154.73057 
L 383.121091 152.069128 
L 386.830915 186.144244 
L 388.716235 119.865778 
L 390.540738 129.85289 
L 392.426058 159.848891 
L 394.311378 201.360202 
L 397.960385 105.352137 
L 399.784888 130.625564 
L 401.670208 153.844103 
L 403.494711 143.604145 
L 405.380031 127.207825 
L 407.265351 142.578269 
L 409.089855 154.819664 
L 410.975175 155.340856 
L 412.799678 142.585076 
L 414.684998 122.489876 
L 416.570318 140.785231 
L 418.273188 132.395687 
L 420.158508 138.450053 
L 421.983011 152.610069 
L 423.868331 138.867821 
L 425.692835 138.236566 
L 429.463475 149.581413 
L 431.287978 139.138432 
L 433.173298 131.18527 
L 434.997801 139.575325 
L 436.883121 130.066023 
L 438.768441 115.74701 
L 440.471311 173.315929 
L 442.356631 150.890855 
L 444.181134 163.978551 
L 446.066454 136.83341 
L 447.890958 135.70706 
L 449.776278 139.614373 
L 451.661598 133.207375 
L 453.486101 138.861381 
L 455.371421 180.814168 
L 457.195924 167.160177 
L 459.081244 194.411764 
L 460.966565 138.619846 
L 462.669434 109.000095 
L 464.554754 136.984594 
L 466.379258 124.014997 
L 468.264578 163.005338 
L 470.089081 140.977386 
L 471.974401 123.250421 
L 473.859721 175.308879 
L 475.684224 128.647291 
L 477.569544 151.354096 
L 479.394048 118.875698 
L 481.279368 133.08608 
L 483.164688 126.670441 
L 484.928374 150.431657 
L 486.813694 308.767978 
L 488.638198 119.891018 
L 490.523518 108.633826 
L 492.348021 104.177226 
L 494.233341 125.780486 
L 496.118661 108.409309 
L 497.943164 156.038204 
L 501.652988 122.199548 
L 503.538308 119.95315 
L 505.423628 130.527289 
L 507.126497 132.719475 
L 509.011817 145.021798 
L 510.836321 107.279832 
L 512.721641 145.417233 
L 514.546144 137.633885 
L 516.431464 128.409408 
L 518.316784 134.847056 
L 520.141287 151.68738 
L 522.026607 147.676705 
L 523.851111 116.287706 
L 525.736431 149.043551 
L 527.621751 166.589477 
L 529.324621 173.158732 
L 531.209941 157.820644 
L 533.034444 150.223237 
L 534.919764 212.644542 
L 536.744267 176.926814 
L 538.629587 147.775651 
L 540.514907 104.374128 
L 542.339411 207.901482 
L 544.224731 174.85255 
L 546.049234 112.683337 
L 547.934554 151.206165 
L 549.819874 141.038382 
L 551.522744 128.039501 
L 553.408064 170.923751 
L 555.232567 121.897423 
L 557.117887 145.74982 
L 558.94239 115.063393 
L 560.82771 122.682314 
L 562.71303 158.706921 
L 564.537534 158.386894 
L 566.422854 174.355381 
L 568.247357 117.488626 
L 570.132677 113.348701 
L 570.132677 113.348701 
" clip-path="url(#pca0c8fc583)" style="fill: none; stroke-dasharray: 3.7,1.6; stroke-dashoffset: 0; stroke: #000000"/>
   </g>
   <g id="line2d_140">
    <path d="M 62.85995 147.214304 
L 64.74527 154.294475 
L 66.569773 166.022467 
L 68.455093 160.955511 
L 70.279597 145.583625 
L 72.164917 155.588406 
L 74.050237 160.202182 
L 75.87474 148.629088 
L 77.76006 176.959435 
L 79.584563 141.224912 
L 81.469883 146.327091 
L 83.355203 161.027061 
L 85.058073 150.725072 
L 86.943393 154.970856 
L 88.767896 151.369977 
L 90.653216 156.090739 
L 92.47772 155.100429 
L 94.36304 156.914291 
L 96.24836 165.519183 
L 98.072863 137.596911 
L 99.958183 149.871858 
L 101.782686 157.616089 
L 103.668006 141.865757 
L 105.553327 154.170649 
L 107.256196 149.556783 
L 109.141516 158.779093 
L 110.96602 145.208935 
L 112.85134 142.539427 
L 114.675843 127.898332 
L 116.561163 130.219744 
L 118.446483 166.83129 
L 120.270986 159.180443 
L 122.156306 134.901079 
L 123.98081 145.638228 
L 125.86613 140.267195 
L 127.75145 137.530938 
L 129.515136 136.334305 
L 131.400456 147.755097 
L 133.22496 146.869361 
L 136.934783 158.335651 
L 138.820103 135.595558 
L 140.705423 148.974336 
L 142.529926 145.317818 
L 144.415246 138.332579 
L 146.23975 149.575561 
L 148.12507 138.224542 
L 150.01039 146.778092 
L 151.713259 151.760239 
L 153.598579 143.644229 
L 155.423083 156.50698 
L 157.308403 150.085416 
L 159.132906 140.81804 
L 161.018226 140.299334 
L 162.903546 151.340812 
L 164.728049 148.184698 
L 166.613369 146.459825 
L 168.437873 156.190526 
L 170.323193 136.686382 
L 172.208513 144.024623 
L 173.911383 145.607553 
L 175.796703 151.340959 
L 177.621206 147.425602 
L 179.506526 153.811265 
L 181.331029 150.555767 
L 183.216349 152.706562 
L 185.101669 145.142713 
L 186.926173 140.868803 
L 188.811493 140.68103 
L 190.635996 142.194374 
L 192.521316 143.115997 
L 194.406636 143.468403 
L 196.109506 151.358891 
L 197.994826 144.869933 
L 199.819329 150.740907 
L 201.704649 140.309759 
L 203.529152 142.198823 
L 205.414472 153.449867 
L 207.299792 147.55876 
L 209.124296 151.091607 
L 211.009616 139.71978 
L 212.834119 141.769317 
L 214.719439 155.568622 
L 216.604759 149.019564 
L 218.368446 156.542785 
L 220.253766 152.909558 
L 222.078269 153.1777 
L 223.963589 149.94244 
L 225.788092 153.887534 
L 227.673412 167.798622 
L 229.558732 159.492144 
L 231.383236 142.992564 
L 233.268556 153.528539 
L 235.093059 196.761269 
L 236.978379 165.375083 
L 238.863699 167.112332 
L 240.566569 171.739405 
L 242.451889 182.070277 
L 244.276392 165.838863 
L 246.161712 116.338326 
L 247.986216 154.916961 
L 251.756856 154.005826 
L 253.581359 139.542742 
L 255.466679 141.46476 
L 257.291182 142.776775 
L 259.176502 132.358202 
L 261.061822 135.954366 
L 262.764692 141.216785 
L 264.650012 150.76361 
L 266.474515 137.038233 
L 268.359835 141.79106 
L 270.184339 152.93937 
L 272.069659 149.626865 
L 273.954979 148.44567 
L 277.664802 141.870038 
L 279.489305 140.165711 
L 281.374625 146.661125 
L 283.259946 149.066914 
L 284.962815 140.108224 
L 286.848135 144.7679 
L 288.672639 149.894255 
L 290.557959 142.971643 
L 292.382462 147.419758 
L 294.267782 150.812583 
L 296.153102 140.831929 
L 297.977605 175.062289 
L 299.862925 144.072134 
L 301.687429 145.126082 
L 303.572749 144.553016 
L 305.458069 145.683846 
L 307.221755 138.964249 
L 309.107075 141.7031 
L 310.931579 147.74838 
L 312.816899 148.505528 
L 314.641402 147.540439 
L 316.526722 146.041926 
L 318.412042 139.945335 
L 320.236545 145.462335 
L 322.121865 140.923488 
L 323.946369 151.504491 
L 325.831689 151.38445 
L 327.717009 143.661667 
L 329.419878 145.752414 
L 331.305198 142.441227 
L 333.129702 142.034614 
L 335.015022 143.903504 
L 336.839525 143.131762 
L 338.724845 157.090813 
L 340.610165 140.790915 
L 342.434668 150.026576 
L 344.319988 148.55427 
L 346.144492 142.648815 
L 348.029812 143.631547 
L 349.915132 148.805242 
L 351.618002 148.715713 
L 353.503322 148.233527 
L 355.327825 142.278437 
L 357.213145 150.014593 
L 359.037648 145.18789 
L 360.922968 142.889232 
L 362.808288 145.555597 
L 364.632792 148.655398 
L 366.518112 145.697105 
L 368.342615 150.113907 
L 370.227935 138.586271 
L 372.113255 147.703072 
L 373.816125 145.065478 
L 375.701445 143.582041 
L 377.525948 150.323094 
L 379.411268 147.759453 
L 381.235771 152.002058 
L 383.121091 149.562388 
L 385.006411 148.009307 
L 386.830915 149.194105 
L 388.716235 153.233097 
L 390.540738 139.633522 
L 392.426058 145.573071 
L 394.311378 149.309926 
L 396.075065 154.185517 
L 397.960385 144.970157 
L 399.784888 140.448468 
L 401.670208 141.735662 
L 403.494711 150.229814 
L 405.380031 146.681896 
L 407.265351 138.35013 
L 409.089855 150.92979 
L 410.975175 150.938739 
L 412.799678 150.715013 
L 414.684998 151.942273 
L 416.570318 142.287045 
L 418.273188 144.931636 
L 420.158508 143.056306 
L 421.983011 146.463903 
L 423.868331 148.676704 
L 425.692835 145.193842 
L 427.578155 144.351606 
L 429.463475 150.240996 
L 431.287978 148.71535 
L 433.173298 145.202386 
L 434.997801 144.766062 
L 436.883121 145.186694 
L 438.768441 142.538763 
L 440.471311 142.876267 
L 442.356631 155.043019 
L 444.181134 147.400612 
L 446.066454 150.019705 
L 447.890958 142.660571 
L 449.776278 143.285151 
L 451.661598 145.617173 
L 453.486101 142.762247 
L 455.371421 146.331408 
L 457.195924 152.929074 
L 459.081244 150.743994 
L 460.966565 152.328867 
L 462.669434 143.370874 
L 464.554754 137.694511 
L 466.379258 143.041386 
L 468.264578 140.672232 
L 470.089081 149.645186 
L 471.974401 140.523335 
L 473.859721 133.032753 
L 475.684224 151.118117 
L 477.569544 140.962212 
L 479.394048 150.618181 
L 481.279368 141.203814 
L 483.164688 143.021784 
L 484.928374 143.413775 
L 486.813694 153.064634 
L 488.638198 173.533609 
L 490.523518 88.739529 
L 492.348021 141.651385 
L 494.233341 143.360627 
L 496.118661 139.876406 
L 497.943164 139.304839 
L 499.828484 152.673296 
L 501.652988 147.601783 
L 503.538308 140.624999 
L 505.423628 140.819143 
L 507.126497 146.211195 
L 509.011817 140.599866 
L 510.836321 148.722937 
L 512.721641 137.246437 
L 514.546144 147.695383 
L 516.431464 143.904529 
L 518.316784 139.240098 
L 520.141287 142.186519 
L 522.026607 150.124012 
L 523.851111 148.496248 
L 525.736431 139.29574 
L 527.621751 149.520253 
L 529.324621 149.700101 
L 531.209941 151.232433 
L 533.034444 149.965876 
L 534.919764 151.378688 
L 536.744267 155.435321 
L 538.629587 150.462026 
L 540.514907 148.806364 
L 542.339411 137.426415 
L 544.224731 161.841303 
L 546.049234 152.977054 
L 547.934554 136.998665 
L 549.819874 150.245923 
L 551.522744 144.229574 
L 553.408064 143.745641 
L 555.232567 150.713367 
L 557.117887 140.369246 
L 558.94239 151.179993 
L 560.82771 140.772753 
L 562.71303 142.750423 
L 564.537534 152.626995 
L 566.422854 150.491888 
L 568.247357 151.929283 
L 570.132677 138.773261 
L 570.132677 138.773261 
" clip-path="url(#pca0c8fc583)" style="fill: none; stroke: #808000; stroke-linecap: square"/>
   </g>
   <g id="patch_3">
    <path d="M 37.496314 336.24 
L 37.496314 3.6 
" style="fill: none; stroke: #000000; stroke-width: 0.5; stroke-linejoin: miter; stroke-linecap: square"/>
   </g>
   <g id="patch_4">
    <path d="M 595.496314 336.24 
L 595.496314 3.6 
" style="fill: none; stroke: #000000; stroke-width: 0.5; stroke-linejoin: miter; stroke-linecap: square"/>
   </g>
   <g id="patch_5">
    <path d="M 37.496314 336.24 
L 595.496314 336.24 
" style="fill: none; stroke: #000000; stroke-width: 0.5; stroke-linejoin: miter; stroke-linecap: square"/>
   </g>
   <g id="patch_6">
    <path d="M 37.496314 3.6 
L 595.496314 3.6 
" style="fill: none; stroke: #000000; stroke-width: 0.5; stroke-linejoin: miter; stroke-linecap: square"/>
   </g>
   <g id="legend_1">
    <g id="line2d_141">
     <path d="M 48.296314 284.23564 
L 60.296314 284.23564 
L 72.296314 284.23564 
" style="fill: none; stroke-dasharray: 3.7,1.6; stroke-dashoffset: 0; stroke: #000000"/>
    </g>
    <g id="text_15">
     <!-- rendimenti SP 500 -->
     <g transform="translate(81.896314 288.43564) scale(0.12 -0.12)">
      <defs>
       <path id="CMR17-72" d="M 960 1517 
C 960 2134 1222 2713 1702 2713 
C 1747 2713 1792 2707 1837 2687 
C 1837 2687 1696 2642 1696 2475 
C 1696 2321 1818 2257 1914 2257 
C 1990 2257 2131 2302 2131 2482 
C 2131 2687 1926 2816 1709 2816 
C 1222 2816 1011 2340 947 2115 
L 941 2115 
L 941 2816 
L 198 2745 
L 198 2578 
C 576 2578 634 2540 634 2231 
L 634 443 
C 634 198 608 166 198 166 
L 198 0 
C 352 12 646 12 813 12 
C 998 12 1325 12 1498 0 
L 1498 166 
C 1037 166 960 166 960 455 
L 960 1517 
z
" transform="scale(0.015625)"/>
       <path id="CMR17-65" d="M 2438 1503 
C 2464 1529 2464 1542 2464 1606 
C 2464 2251 2118 2816 1389 2816 
C 710 2816 173 2175 173 1394 
C 173 554 781 -64 1459 -64 
C 2176 -64 2458 619 2458 755 
C 2458 800 2419 800 2406 800 
C 2362 800 2355 787 2330 709 
C 2189 270 1837 51 1504 51 
C 1229 51 954 206 781 490 
C 582 819 582 1200 582 1503 
L 2438 1503 
z
M 589 1600 
C 634 2511 1126 2713 1382 2713 
C 1818 2713 2112 2308 2118 1600 
L 589 1600 
z
" transform="scale(0.015625)"/>
       <path id="CMR17-6e" d="M 2656 1954 
C 2656 2282 2592 2816 1837 2816 
C 1331 2816 1069 2424 973 2166 
L 966 2166 
L 966 2816 
L 211 2745 
L 211 2578 
C 589 2578 646 2540 646 2231 
L 646 443 
C 646 198 621 166 211 166 
L 211 0 
C 365 12 646 12 813 12 
C 979 12 1267 12 1421 0 
L 1421 166 
C 1011 166 986 192 986 443 
L 986 1678 
C 986 2269 1344 2713 1792 2713 
C 2266 2713 2317 2289 2317 1980 
L 2317 443 
C 2317 198 2291 166 1882 166 
L 1882 0 
C 2035 12 2317 12 2483 12 
C 2650 12 2938 12 3091 0 
L 3091 166 
C 2682 166 2656 192 2656 443 
L 2656 1954 
z
" transform="scale(0.015625)"/>
       <path id="CMR17-64" d="M 1869 4345 
L 1869 4179 
C 2246 4179 2304 4141 2304 3843 
L 2304 2371 
C 2278 2403 2016 2816 1498 2816 
C 845 2816 211 2228 211 1376 
C 211 529 806 -64 1434 -64 
C 1978 -64 2259 361 2291 406 
L 2291 -64 
L 3066 -13 
L 3066 154 
C 2688 154 2630 193 2630 503 
L 2630 4416 
L 1869 4345 
z
M 2291 762 
C 2291 568 2176 393 2029 264 
C 1811 70 1594 38 1472 38 
C 1286 38 621 135 621 1369 
C 621 2636 1363 2713 1530 2713 
C 1824 2713 2061 2545 2208 2313 
C 2291 2177 2291 2157 2291 2041 
L 2291 762 
z
" transform="scale(0.015625)"/>
       <path id="CMR17-69" d="M 992 3961 
C 992 4102 877 4224 730 4224 
C 589 4224 467 4108 467 3961 
C 467 3820 582 3699 730 3699 
C 870 3699 992 3814 992 3961 
z
M 243 2745 
L 243 2579 
C 602 2579 653 2540 653 2231 
L 653 443 
C 653 198 627 166 218 166 
L 218 0 
C 371 12 646 12 806 12 
C 960 12 1222 12 1370 0 
L 1370 166 
C 992 166 979 205 979 436 
L 979 2816 
L 243 2745 
z
" transform="scale(0.015625)"/>
       <path id="CMR17-6d" d="M 4326 1954 
C 4326 2276 4269 2816 3507 2816 
C 3072 2816 2771 2520 2656 2173 
L 2650 2173 
C 2573 2700 2195 2816 1837 2816 
C 1331 2816 1069 2424 973 2166 
L 966 2166 
L 966 2816 
L 211 2745 
L 211 2578 
C 589 2578 646 2540 646 2231 
L 646 443 
C 646 198 621 166 211 166 
L 211 0 
C 365 12 646 12 813 12 
C 979 12 1267 12 1421 0 
L 1421 166 
C 1011 166 986 192 986 443 
L 986 1678 
C 986 2269 1344 2713 1792 2713 
C 2266 2713 2317 2289 2317 1980 
L 2317 443 
C 2317 198 2291 166 1882 166 
L 1882 0 
C 2035 12 2317 12 2483 12 
C 2650 12 2938 12 3091 0 
L 3091 166 
C 2682 166 2656 192 2656 443 
L 2656 1678 
C 2656 2269 3014 2713 3462 2713 
C 3936 2713 3987 2289 3987 1980 
L 3987 443 
C 3987 198 3962 166 3552 166 
L 3552 0 
C 3706 12 3987 12 4154 12 
C 4320 12 4608 12 4762 0 
L 4762 166 
C 4352 166 4326 192 4326 443 
L 4326 1954 
z
" transform="scale(0.015625)"/>
       <path id="CMR17-74" d="M 966 2585 
L 1862 2585 
L 1862 2752 
L 966 2752 
L 966 3968 
L 851 3968 
C 838 3292 614 2700 70 2687 
L 70 2585 
L 627 2585 
L 627 778 
C 627 655 627 -64 1370 -64 
C 1747 -64 1965 308 1965 784 
L 1965 1151 
L 1850 1151 
L 1850 790 
C 1850 347 1677 51 1408 51 
C 1222 51 966 179 966 765 
L 966 2585 
z
" transform="scale(0.015625)"/>
       <path id="CMR17-53" d="M 2803 4351 
C 2803 4467 2797 4473 2758 4473 
C 2720 4473 2707 4447 2682 4390 
L 2490 3965 
C 2246 4320 1875 4480 1472 4480 
C 819 4480 294 3958 294 3301 
C 294 3101 339 2817 557 2546 
C 794 2250 1018 2198 1530 2063 
C 1722 2011 2042 1927 2106 1901 
C 2470 1747 2662 1360 2662 999 
C 2662 534 2336 38 1779 38 
C 1094 38 454 425 410 1328 
C 403 1431 397 1437 352 1437 
C 301 1437 294 1431 294 1302 
L 294 0 
C 294 -116 301 -122 339 -122 
C 384 -122 397 -90 486 109 
C 493 128 493 141 614 386 
C 934 -39 1472 -128 1779 -128 
C 2477 -128 2970 457 2970 1141 
C 2970 1476 2848 1734 2778 1850 
C 2509 2263 2221 2340 1914 2417 
C 1869 2437 1856 2437 1498 2527 
C 1152 2617 1005 2662 845 2836 
C 666 3036 602 3243 602 3449 
C 602 3868 934 4326 1478 4326 
C 2157 4326 2579 3842 2675 3036 
C 2694 2920 2701 2914 2746 2914 
C 2803 2914 2803 2933 2803 3043 
L 2803 4351 
z
" transform="scale(0.015625)"/>
       <path id="CMR17-50" d="M 1267 2048 
L 2291 2048 
C 3117 2048 3718 2583 3718 3187 
C 3718 3791 3130 4352 2291 4352 
L 333 4352 
L 333 4185 
C 774 4185 845 4185 845 3899 
L 845 453 
C 845 166 774 166 333 166 
L 333 0 
C 518 12 858 12 1056 12 
C 1254 12 1594 12 1779 0 
L 1779 166 
C 1338 166 1267 166 1267 453 
L 1267 2048 
z
M 1254 2182 
L 1254 3937 
C 1254 4153 1267 4185 1523 4185 
L 2170 4185 
C 2995 4185 3232 3715 3232 3187 
C 3232 2608 2950 2182 2170 2182 
L 1254 2182 
z
" transform="scale(0.015625)"/>
      </defs>
      <use xlink:href="#CMR17-72" transform="scale(0.996264)"/>
      <use xlink:href="#CMR17-65" transform="translate(35.280768 0) scale(0.996264)"/>
      <use xlink:href="#CMR17-6e" transform="translate(75.766428 0) scale(0.996264)"/>
      <use xlink:href="#CMR17-64" transform="translate(126.661798 0) scale(0.996264)"/>
      <use xlink:href="#CMR17-69" transform="translate(177.557168 0) scale(0.996264)"/>
      <use xlink:href="#CMR17-6d" transform="translate(202.428226 0) scale(0.996264)"/>
      <use xlink:href="#CMR17-65" transform="translate(279.347816 0) scale(0.996264)"/>
      <use xlink:href="#CMR17-6e" transform="translate(319.833477 0) scale(0.996264)"/>
      <use xlink:href="#CMR17-74" transform="translate(368.126392 0) scale(0.996264)"/>
      <use xlink:href="#CMR17-69" transform="translate(403.40716 0) scale(0.996264)"/>
      <use xlink:href="#CMR17-53" transform="translate(458.354185 0) scale(0.996264)"/>
      <use xlink:href="#CMR17-50" transform="translate(509.249555 0) scale(0.996264)"/>
      <use xlink:href="#CMR17-35" transform="translate(601.911822 0) scale(0.996264)"/>
      <use xlink:href="#CMR17-30" transform="translate(647.602299 0) scale(0.996264)"/>
      <use xlink:href="#CMR17-30" transform="translate(693.292776 0) scale(0.996264)"/>
     </g>
    </g>
    <g id="line2d_142">
     <path d="M 48.296314 301.526612 
L 60.296314 301.526612 
L 72.296314 301.526612 
" style="fill: none; stroke: #808000; stroke-linecap: square"/>
    </g>
    <g id="text_16">
     <!-- combined forecast (AIC) -->
     <g transform="translate(81.896314 305.726612) scale(0.12 -0.12)">
      <defs>
       <path id="CMR17-63" d="M 2234 2240 
C 2112 2240 1933 2240 1933 2015 
C 1933 1836 2080 1785 2163 1785 
C 2208 1785 2394 1804 2394 2028 
C 2394 2476 1958 2816 1466 2816 
C 787 2816 211 2201 211 1379 
C 211 521 813 -64 1466 -64 
C 2259 -64 2458 676 2458 747 
C 2458 773 2451 792 2406 792 
C 2362 792 2355 786 2330 702 
C 2163 180 1798 51 1523 51 
C 1114 51 621 431 621 1385 
C 621 2358 1094 2700 1472 2700 
C 1722 2700 2093 2582 2234 2240 
z
" transform="scale(0.015625)"/>
       <path id="CMR17-6f" d="M 2758 1356 
C 2758 2176 2163 2816 1466 2816 
C 768 2816 173 2176 173 1356 
C 173 550 768 -64 1466 -64 
C 2163 -64 2758 550 2758 1356 
z
M 1466 51 
C 1165 51 909 230 762 480 
C 602 768 582 1126 582 1408 
C 582 1676 595 2009 762 2297 
C 890 2508 1139 2713 1466 2713 
C 1754 2713 1997 2553 2150 2329 
C 2349 2028 2349 1606 2349 1408 
C 2349 1158 2336 774 2163 467 
C 1984 172 1709 51 1466 51 
z
" transform="scale(0.015625)"/>
       <path id="CMR17-62" d="M 960 4416 
L 198 4345 
L 198 4179 
C 576 4179 634 4141 634 3843 
L 634 -13 
L 749 -13 
L 934 445 
C 1120 141 1395 -64 1766 -64 
C 2406 -64 3053 503 3053 1382 
C 3053 2209 2477 2816 1830 2816 
C 1434 2816 1152 2603 960 2351 
L 960 4416 
z
M 973 2022 
C 973 2138 973 2157 1062 2293 
C 1312 2681 1670 2713 1792 2713 
C 1984 2713 2643 2610 2643 1388 
C 2643 109 1888 38 1734 38 
C 1536 38 1248 115 1043 490 
C 973 613 973 626 973 742 
L 973 2022 
z
" transform="scale(0.015625)"/>
       <path id="CMR17-66" d="M 979 2585 
L 1709 2585 
L 1709 2752 
L 966 2752 
L 966 3539 
C 966 4076 1235 4377 1510 4377 
C 1594 4377 1690 4363 1754 4339 
C 1702 4326 1568 4281 1568 4121 
C 1568 3955 1696 3904 1786 3904 
C 1875 3904 2003 3955 2003 4121 
C 2003 4353 1773 4480 1517 4480 
C 1152 4480 653 4211 653 3526 
L 653 2752 
L 141 2752 
L 141 2585 
L 653 2585 
L 653 441 
C 653 198 627 166 218 166 
L 218 0 
C 371 12 666 12 832 12 
C 1018 12 1344 12 1517 0 
L 1517 166 
C 1056 166 979 166 979 454 
L 979 2585 
z
" transform="scale(0.015625)"/>
       <path id="CMR17-61" d="M 2304 1656 
C 2304 2048 2304 2275 2035 2534 
C 1798 2751 1523 2816 1306 2816 
C 800 2816 435 2408 435 1977 
C 435 1740 627 1728 666 1728 
C 749 1728 896 1779 896 1958 
C 896 2118 774 2188 666 2188 
C 640 2188 608 2182 589 2176 
C 723 2594 1069 2713 1293 2713 
C 1613 2713 1965 2421 1965 1875 
L 1965 1632 
C 1587 1619 1133 1568 774 1373 
C 371 1147 256 822 256 576 
C 256 77 832 -64 1171 -64 
C 1523 -64 1850 135 1990 505 
C 2003 219 2182 -39 2464 -39 
C 2598 -39 2938 51 2938 563 
L 2938 926 
L 2822 926 
L 2822 557 
C 2822 161 2650 109 2566 109 
C 2304 109 2304 446 2304 732 
L 2304 1656 
z
M 1965 887 
C 1965 323 1568 38 1216 38 
C 896 38 646 278 646 576 
C 646 771 730 1114 1101 1322 
C 1408 1497 1760 1523 1965 1536 
L 1965 887 
z
" transform="scale(0.015625)"/>
       <path id="CMR17-73" d="M 1978 2688 
C 1978 2803 1971 2809 1933 2809 
C 1907 2809 1901 2803 1824 2707 
C 1805 2681 1747 2617 1728 2592 
C 1523 2809 1235 2816 1126 2816 
C 416 2816 160 2444 160 2073 
C 160 1497 813 1363 998 1324 
C 1402 1241 1542 1216 1677 1100 
C 1760 1024 1901 883 1901 652 
C 1901 384 1747 38 1158 38 
C 602 38 403 460 288 1024 
C 269 1113 269 1120 218 1120 
C 166 1120 160 1113 160 985 
L 160 64 
C 160 -52 166 -58 205 -58 
C 237 -58 243 -52 275 0 
C 314 57 410 211 448 275 
C 576 102 800 -64 1158 -64 
C 1792 -64 2131 281 2131 780 
C 2131 1107 1958 1280 1875 1356 
C 1683 1555 1459 1600 1190 1651 
C 838 1728 390 1817 390 2208 
C 390 2374 480 2726 1126 2726 
C 1811 2726 1850 2086 1862 1881 
C 1869 1849 1901 1843 1920 1843 
C 1978 1843 1978 1862 1978 1971 
L 1978 2688 
z
" transform="scale(0.015625)"/>
       <path id="CMR17-28" d="M 1958 -1562 
C 1958 -1556 1958 -1543 1939 -1524 
C 1645 -1223 858 -403 858 1596 
C 858 3595 1632 4408 1946 4729 
C 1946 4735 1958 4748 1958 4767 
C 1958 4787 1939 4800 1914 4800 
C 1843 4800 1299 4325 986 3620 
C 666 2909 576 2218 576 1603 
C 576 1141 621 360 1005 -467 
C 1312 -1133 1837 -1600 1914 -1600 
C 1946 -1600 1958 -1588 1958 -1562 
z
" transform="scale(0.015625)"/>
       <path id="CMR17-41" d="M 2323 4441 
C 2291 4524 2278 4544 2214 4544 
C 2150 4544 2138 4524 2106 4441 
L 749 580 
C 627 236 371 166 147 166 
L 147 0 
C 262 12 518 12 640 12 
C 800 12 1056 12 1210 0 
L 1210 166 
C 909 179 864 382 864 459 
C 864 516 877 548 890 586 
L 1229 1536 
L 2906 1536 
L 3290 453 
C 3322 376 3322 363 3322 338 
C 3322 166 3046 166 2925 166 
L 2925 0 
C 3110 12 3443 12 3642 12 
C 3808 12 4128 12 4282 0 
L 4282 166 
C 3942 166 3827 166 3744 402 
L 2323 4441 
z
M 2067 3924 
L 2848 1702 
L 1286 1702 
L 2067 3924 
z
" transform="scale(0.015625)"/>
       <path id="CMR17-49" d="M 1261 3898 
C 1261 4185 1338 4185 1798 4185 
L 1798 4352 
C 1594 4339 1267 4339 1050 4339 
C 832 4339 506 4339 301 4352 
L 301 4185 
C 762 4185 838 4185 838 3898 
L 838 453 
C 838 166 762 166 301 166 
L 301 0 
C 506 12 832 12 1050 12 
C 1267 12 1594 12 1798 0 
L 1798 166 
C 1338 166 1261 166 1261 453 
L 1261 3898 
z
" transform="scale(0.015625)"/>
       <path id="CMR17-43" d="M 3974 4351 
C 3974 4467 3968 4473 3930 4473 
C 3904 4473 3898 4467 3853 4390 
L 3571 3849 
C 3258 4249 2874 4480 2381 4480 
C 1286 4480 294 3507 294 2179 
C 294 837 1286 -128 2387 -128 
C 3366 -128 3974 741 3974 1482 
C 3974 1547 3974 1573 3917 1573 
C 3866 1573 3866 1553 3859 1495 
C 3808 592 3168 38 2477 38 
C 1824 38 781 502 781 2179 
C 781 3862 1843 4313 2464 4313 
C 3187 4313 3712 3681 3834 2785 
C 3846 2707 3846 2695 3904 2695 
C 3974 2695 3974 2707 3974 2824 
L 3974 4351 
z
" transform="scale(0.015625)"/>
       <path id="CMR17-29" d="M 1683 1596 
C 1683 2057 1638 2839 1254 3665 
C 947 4332 422 4800 346 4800 
C 326 4800 301 4793 301 4761 
C 301 4748 307 4742 314 4729 
C 621 4408 1402 3595 1402 1603 
C 1402 -396 627 -1210 314 -1530 
C 307 -1543 301 -1549 301 -1562 
C 301 -1594 326 -1600 346 -1600 
C 416 -1600 960 -1127 1274 -422 
C 1594 289 1683 981 1683 1596 
z
" transform="scale(0.015625)"/>
      </defs>
      <use xlink:href="#CMR17-63" transform="scale(0.996264)"/>
      <use xlink:href="#CMR17-6f" transform="translate(40.48566 0) scale(0.996264)"/>
      <use xlink:href="#CMR17-6d" transform="translate(86.176138 0) scale(0.996264)"/>
      <use xlink:href="#CMR17-62" transform="translate(160.493274 0) scale(0.996264)"/>
      <use xlink:href="#CMR17-69" transform="translate(211.388643 0) scale(0.996264)"/>
      <use xlink:href="#CMR17-6e" transform="translate(236.259702 0) scale(0.996264)"/>
      <use xlink:href="#CMR17-65" transform="translate(287.155072 0) scale(0.996264)"/>
      <use xlink:href="#CMR17-64" transform="translate(327.640732 0) scale(0.996264)"/>
      <use xlink:href="#CMR17-66" transform="translate(408.612068 0) scale(0.996264)"/>
      <use xlink:href="#CMR17-6f" transform="translate(436.085581 0) scale(0.996264)"/>
      <use xlink:href="#CMR17-72" transform="translate(481.776058 0) scale(0.996264)"/>
      <use xlink:href="#CMR17-65" transform="translate(517.056825 0) scale(0.996264)"/>
      <use xlink:href="#CMR17-63" transform="translate(557.542486 0) scale(0.996264)"/>
      <use xlink:href="#CMR17-61" transform="translate(598.028146 0) scale(0.996264)"/>
      <use xlink:href="#CMR17-73" transform="translate(643.718624 0) scale(0.996264)"/>
      <use xlink:href="#CMR17-74" transform="translate(679.519961 0) scale(0.996264)"/>
      <use xlink:href="#CMR17-28" transform="translate(744.876695 0) scale(0.996264)"/>
      <use xlink:href="#CMR17-41" transform="translate(780.157463 0) scale(0.996264)"/>
      <use xlink:href="#CMR17-49" transform="translate(849.229893 0) scale(0.996264)"/>
      <use xlink:href="#CMR17-43" transform="translate(881.868302 0) scale(0.996264)"/>
      <use xlink:href="#CMR17-29" transform="translate(948.378183 0) scale(0.996264)"/>
     </g>
    </g>
    <g id="patch_7">
     <path d="M 48.296314 323.115404 
L 72.296314 323.115404 
L 72.296314 314.715404 
L 48.296314 314.715404 
z
" style="fill: #808080; fill-opacity: 0.3; stroke: #808080; stroke-opacity: 0.3; stroke-linejoin: miter"/>
    </g>
    <g id="text_17">
     <!-- 99 perc. CI -->
     <g transform="translate(81.896314 323.115404) scale(0.12 -0.12)">
      <defs>
       <path id="CMR17-39" d="M 2253 1871 
C 2253 448 1670 25 1190 25 
C 1043 25 685 43 538 281 
C 704 256 826 345 826 505 
C 826 678 685 736 595 736 
C 538 736 365 710 365 492 
C 365 68 742 -128 1203 -128 
C 1939 -128 2688 665 2688 2090 
C 2688 3857 1971 4224 1485 4224 
C 851 4224 243 3664 243 2800 
C 243 2000 762 1408 1414 1408 
C 1952 1408 2189 1910 2253 2122 
L 2253 1871 
z
M 1427 1510 
C 1254 1510 1011 1542 813 1929 
C 678 2181 678 2477 678 2793 
C 678 3174 678 3438 858 3722 
C 947 3857 1114 4076 1485 4076 
C 2240 4076 2240 2909 2240 2651 
C 2240 2193 2035 1510 1427 1510 
z
" transform="scale(0.015625)"/>
       <path id="CMR17-70" d="M 1408 -1114 
C 998 -1114 973 -1088 973 -834 
L 973 380 
C 1158 109 1427 -64 1766 -64 
C 2406 -64 3053 503 3053 1382 
C 3053 2196 2496 2816 1837 2816 
C 1453 2816 1139 2603 960 2345 
L 960 2816 
L 198 2745 
L 198 2577 
C 576 2577 634 2539 634 2228 
L 634 -834 
C 634 -1081 608 -1114 198 -1114 
L 198 -1280 
C 352 -1268 634 -1268 800 -1268 
C 966 -1268 1254 -1268 1408 -1280 
L 1408 -1114 
z
M 973 2015 
C 973 2106 973 2241 1222 2481 
C 1254 2506 1472 2700 1792 2700 
C 2259 2700 2643 2112 2643 1376 
C 2643 639 2234 38 1728 38 
C 1498 38 1248 148 1056 451 
C 973 594 973 632 973 736 
L 973 2015 
z
" transform="scale(0.015625)"/>
       <path id="CMR17-2e" d="M 1062 262 
C 1062 422 934 524 800 524 
C 672 524 538 422 538 262 
C 538 102 666 0 800 0 
C 928 0 1062 102 1062 262 
z
" transform="scale(0.015625)"/>
      </defs>
      <use xlink:href="#CMR17-39" transform="scale(0.996264)"/>
      <use xlink:href="#CMR17-39" transform="translate(45.690477 0) scale(0.996264)"/>
      <use xlink:href="#CMR17-70" transform="translate(121.456921 0) scale(0.996264)"/>
      <use xlink:href="#CMR17-65" transform="translate(174.954729 0) scale(0.996264)"/>
      <use xlink:href="#CMR17-72" transform="translate(215.44039 0) scale(0.996264)"/>
      <use xlink:href="#CMR17-63" transform="translate(250.721157 0) scale(0.996264)"/>
      <use xlink:href="#CMR17-2e" transform="translate(291.206818 0) scale(0.996264)"/>
      <use xlink:href="#CMR17-43" transform="translate(356.563537 0) scale(0.996264)"/>
      <use xlink:href="#CMR17-49" transform="translate(423.073417 0) scale(0.996264)"/>
     </g>
    </g>
   </g>
  </g>
 </g>
 <defs>
  <clipPath id="pca0c8fc583">
   <rect x="37.496314" y="3.6" width="558" height="332.64"/>
  </clipPath>
 </defs>
</svg>
