<?xml version="1.0" encoding="utf-8" standalone="no"?>
<!DOCTYPE svg PUBLIC "-//W3C//DTD SVG 1.1//EN"
  "http://www.w3.org/Graphics/SVG/1.1/DTD/svg11.dtd">
<svg xmlns:xlink="http://www.w3.org/1999/xlink" width="599.096314pt" height="359.281364pt" viewBox="0 0 599.096314 359.281364" xmlns="http://www.w3.org/2000/svg" version="1.1">
 <metadata>
  <rdf:RDF xmlns:dc="http://purl.org/dc/elements/1.1/" xmlns:cc="http://creativecommons.org/ns#" xmlns:rdf="http://www.w3.org/1999/02/22-rdf-syntax-ns#">
   <cc:Work>
    <dc:type rdf:resource="http://purl.org/dc/dcmitype/StillImage"/>
    <dc:date>2025-03-20T12:36:34.782254</dc:date>
    <dc:format>image/svg+xml</dc:format>
    <dc:creator>
     <cc:Agent>
      <dc:title>Matplotlib v3.9.2, https://matplotlib.org/</dc:title>
     </cc:Agent>
    </dc:creator>
   </cc:Work>
  </rdf:RDF>
 </metadata>
 <defs>
  <style type="text/css">*{stroke-linejoin: round; stroke-linecap: butt}</style>
 </defs>
 <g id="figure_1">
  <g id="patch_1">
   <path d="M 0 359.281364 
L 599.096314 359.281364 
L 599.096314 0 
L 0 0 
z
" style="fill: #ffffff"/>
  </g>
  <g id="axes_1">
   <g id="patch_2">
    <path d="M 37.496314 336.24 
L 595.496314 336.24 
L 595.496314 3.6 
L 37.496314 3.6 
z
" style="fill: #ffffff"/>
   </g>
   <g id="PolyCollection_1">
    <defs>
     <path id="m4b7c5bc72e" d="M 62.85995 -293.95081 
L 62.85995 -184.327287 
L 64.74527 -178.942636 
L 66.569773 -172.35539 
L 68.455093 -175.363257 
L 70.279597 -199.300029 
L 72.164917 -183.791476 
L 74.050237 -176.475369 
L 75.87474 -188.592943 
L 77.76006 -160.95309 
L 79.584563 -187.958041 
L 81.469883 -188.004966 
L 83.355203 -173.518654 
L 85.058073 -175.926325 
L 86.943393 -173.618635 
L 88.767896 -177.746437 
L 90.653216 -169.89009 
L 92.47772 -170.436155 
L 94.36304 -170.754163 
L 96.24836 -161.430287 
L 98.072863 -184.12956 
L 99.958183 -173.029679 
L 101.782686 -171.287041 
L 103.668006 -189.230279 
L 105.553327 -173.168425 
L 107.256196 -174.270109 
L 109.141516 -166.204936 
L 110.96602 -175.634613 
L 112.85134 -177.058568 
L 114.675843 -191.189433 
L 116.561163 -190.188772 
L 118.446483 -159.027075 
L 120.270986 -167.022821 
L 122.156306 -182.103082 
L 123.98081 -176.086672 
L 125.86613 -176.150088 
L 127.75145 -178.297779 
L 129.515136 -186.828487 
L 131.400456 -176.969279 
L 133.22496 -177.736541 
L 135.11028 -167.133396 
L 136.934783 -168.731604 
L 138.820103 -179.170322 
L 140.705423 -176.385703 
L 142.529926 -177.940974 
L 144.415246 -182.977383 
L 146.23975 -174.980667 
L 148.12507 -183.609966 
L 150.01039 -180.291578 
L 151.713259 -173.142652 
L 153.598579 -178.580724 
L 155.423083 -169.511782 
L 157.308403 -173.665005 
L 159.132906 -180.969627 
L 161.018226 -181.218923 
L 162.903546 -174.987771 
L 164.728049 -175.176753 
L 166.613369 -176.075134 
L 168.437873 -170.760118 
L 170.323193 -181.37436 
L 172.208513 -180.108494 
L 173.911383 -178.276704 
L 175.796703 -174.356991 
L 177.621206 -175.89914 
L 179.506526 -172.63283 
L 181.331029 -174.400494 
L 183.216349 -172.34023 
L 185.101669 -176.431728 
L 186.926173 -182.468079 
L 188.811493 -182.366735 
L 190.635996 -183.433078 
L 192.521316 -181.11543 
L 194.406636 -180.360007 
L 196.109506 -173.457881 
L 197.994826 -179.076207 
L 199.819329 -175.076755 
L 201.704649 -181.765056 
L 203.529152 -182.279749 
L 205.414472 -171.423462 
L 207.299792 -180.285774 
L 209.124296 -181.097365 
L 211.009616 -186.456747 
L 212.834119 -183.475316 
L 214.719439 -186.629825 
L 216.604759 -180.077926 
L 218.368446 -181.060521 
L 220.253766 -171.085992 
L 222.078269 -182.053111 
L 223.963589 -178.634232 
L 225.788092 -175.277227 
L 227.673412 -165.281055 
L 229.558732 -169.532832 
L 231.383236 -183.715071 
L 233.268556 -178.593761 
L 235.093059 -120.521447 
L 236.978379 -136.080753 
L 238.863699 -185.070801 
L 240.566569 -85.297458 
L 242.451889 -38.161364 
L 244.276392 -178.144042 
L 246.161712 -196.988663 
L 247.986216 -136.33062 
L 249.871536 -188.420439 
L 251.756856 -176.711918 
L 253.581359 -177.266619 
L 255.466679 -176.397642 
L 257.291182 -195.362783 
L 259.176502 -230.691533 
L 261.061822 -199.53209 
L 262.764692 -196.006553 
L 264.650012 -173.460346 
L 266.474515 -183.512679 
L 268.359835 -178.494394 
L 270.184339 -170.154256 
L 272.069659 -173.846961 
L 273.954979 -175.630525 
L 275.779482 -185.632059 
L 277.664802 -176.988494 
L 279.489305 -184.44293 
L 281.374625 -165.848643 
L 283.259946 -160.227578 
L 284.962815 -185.296778 
L 286.848135 -171.731668 
L 288.672639 -176.429197 
L 290.557959 -175.331144 
L 292.382462 -181.52538 
L 294.267782 -173.074536 
L 296.153102 -179.081214 
L 297.977605 -172.029919 
L 299.862925 -185.897021 
L 301.687429 -164.336177 
L 303.572749 -185.840965 
L 305.458069 -177.20352 
L 307.221755 -185.194239 
L 309.107075 -181.272388 
L 310.931579 -163.055258 
L 312.816899 -182.05854 
L 314.641402 -181.726701 
L 316.526722 -184.230415 
L 318.412042 -183.47017 
L 320.236545 -166.331121 
L 322.121865 -184.165369 
L 323.946369 -170.952301 
L 325.831689 -170.995085 
L 327.717009 -174.573396 
L 329.419878 -168.349277 
L 331.305198 -180.457999 
L 333.129702 -178.950525 
L 335.015022 -183.393089 
L 336.839525 -171.528279 
L 338.724845 -154.875088 
L 340.610165 -184.1074 
L 342.434668 -176.443501 
L 344.319988 -176.209524 
L 346.144492 -180.511564 
L 348.029812 -172.134625 
L 349.915132 -170.296033 
L 351.618002 -176.055849 
L 353.503322 -178.120466 
L 355.327825 -177.587009 
L 357.213145 -174.617283 
L 359.037648 -179.842306 
L 360.922968 -176.471217 
L 362.808288 -180.013247 
L 364.632792 -176.867936 
L 366.518112 -173.264039 
L 368.342615 -176.781528 
L 370.227935 -182.366533 
L 372.113255 -183.31122 
L 373.816125 -187.641558 
L 375.701445 -171.34549 
L 377.525948 -175.609576 
L 379.411268 -179.890934 
L 381.235771 -165.882288 
L 383.121091 -178.153063 
L 385.006411 -179.721826 
L 386.830915 -176.858122 
L 388.716235 -167.186525 
L 390.540738 -187.217735 
L 392.426058 -169.701197 
L 394.311378 -177.728589 
L 396.075065 -165.788849 
L 397.960385 -189.462799 
L 399.784888 -175.262542 
L 401.670208 -187.463466 
L 403.494711 -173.518913 
L 405.380031 -182.535055 
L 407.265351 -191.15351 
L 409.089855 -169.133613 
L 410.975175 -170.755743 
L 412.799678 -171.884927 
L 414.684998 -168.719444 
L 416.570318 -181.679098 
L 418.273188 -180.044327 
L 420.158508 -177.249056 
L 421.983011 -174.490643 
L 423.868331 -178.024502 
L 425.692835 -176.819638 
L 427.578155 -180.772418 
L 429.463475 -170.98491 
L 431.287978 -178.247131 
L 433.173298 -177.36737 
L 434.997801 -172.328823 
L 436.883121 -177.914785 
L 438.768441 -178.312109 
L 440.471311 -175.776473 
L 442.356631 -165.323605 
L 444.181134 -179.595547 
L 446.066454 -173.312439 
L 447.890958 -178.325491 
L 449.776278 -179.665139 
L 451.661598 -176.376038 
L 453.486101 -177.582116 
L 455.371421 -174.03272 
L 457.195924 -169.537998 
L 459.081244 -172.915428 
L 460.966565 -171.805505 
L 462.669434 -182.433577 
L 464.554754 -189.269323 
L 466.379258 -182.513864 
L 468.264578 -184.349769 
L 470.089081 -176.86567 
L 471.974401 -192.571819 
L 473.859721 -208.771666 
L 475.684224 -173.7104 
L 477.569544 -182.328081 
L 479.394048 -173.740875 
L 481.279368 -179.728304 
L 483.164688 -178.397094 
L 484.928374 -186.057434 
L 486.813694 -185.001844 
L 488.638198 -181.265335 
L 490.523518 -218.554682 
L 492.348021 -191.913993 
L 494.233341 -184.919711 
L 496.118661 -191.207844 
L 497.943164 -184.314958 
L 499.828484 -169.876628 
L 501.652988 -168.021226 
L 503.538308 -185.968507 
L 505.423628 -186.907662 
L 507.126497 -173.518897 
L 509.011817 -182.458119 
L 510.836321 -177.165762 
L 512.721641 -185.02786 
L 514.546144 -177.742977 
L 516.431464 -177.39203 
L 518.316784 -186.145022 
L 520.141287 -180.534626 
L 522.026607 -171.994874 
L 523.851111 -176.971129 
L 525.736431 -183.435752 
L 527.621751 -173.686956 
L 529.324621 -174.886677 
L 531.209941 -172.962333 
L 533.034444 -173.109622 
L 534.919764 -170.672198 
L 536.744267 -170.134399 
L 538.629587 -174.286861 
L 540.514907 -176.022335 
L 542.339411 -189.309007 
L 544.224731 -153.719091 
L 546.049234 -167.618746 
L 547.934554 -189.626832 
L 549.819874 -174.773579 
L 551.522744 -180.252781 
L 553.408064 -173.305009 
L 555.232567 -173.470309 
L 557.117887 -183.908162 
L 558.94239 -169.554884 
L 560.82771 -180.22471 
L 562.71303 -180.565114 
L 564.537534 -166.802647 
L 566.422854 -171.378364 
L 568.247357 -169.141257 
L 570.132677 -186.530233 
L 570.132677 -301.984051 
L 570.132677 -301.984051 
L 568.247357 -284.527587 
L 566.422854 -286.770691 
L 564.537534 -282.258034 
L 562.71303 -296.048473 
L 560.82771 -295.737502 
L 558.94239 -284.984369 
L 557.117887 -299.390787 
L 555.232567 -288.941532 
L 553.408064 -288.791011 
L 551.522744 -295.777932 
L 549.819874 -290.353984 
L 547.934554 -305.248532 
L 546.049234 -283.143218 
L 544.224731 -269.302705 
L 542.339411 -304.428201 
L 540.514907 -291.055814 
L 538.629587 -289.38439 
L 536.744267 -285.233628 
L 534.919764 -285.484162 
L 533.034444 -287.982288 
L 531.209941 -287.881994 
L 529.324621 -289.81164 
L 527.621751 -288.643768 
L 525.736431 -298.443527 
L 523.851111 -291.965895 
L 522.026607 -287.049688 
L 520.141287 -295.639844 
L 518.316784 -301.307192 
L 516.431464 -292.581088 
L 514.546144 -292.986675 
L 512.721641 -300.327076 
L 510.836321 -292.422236 
L 509.011817 -297.774679 
L 507.126497 -288.859509 
L 505.423628 -302.304317 
L 503.538308 -301.414031 
L 501.652988 -283.442816 
L 499.828484 -285.349686 
L 497.943164 -299.81519 
L 496.118661 -306.729402 
L 494.233341 -300.489934 
L 492.348021 -307.460409 
L 490.523518 -334.136249 
L 488.638198 -296.872979 
L 486.813694 -297.914448 
L 484.928374 -299.00706 
L 483.164688 -291.382372 
L 481.279368 -292.766384 
L 479.394048 -286.743279 
L 477.569544 -295.380028 
L 475.684224 -286.765714 
L 473.859721 -321.544744 
L 471.974401 -305.402635 
L 470.089081 -289.754559 
L 468.264578 -297.246441 
L 466.379258 -295.439572 
L 464.554754 -302.259505 
L 462.669434 -295.385963 
L 460.966565 -284.804677 
L 459.081244 -285.79218 
L 457.195924 -282.462415 
L 455.371421 -286.920427 
L 453.486101 -290.529848 
L 451.661598 -289.365858 
L 449.776278 -292.718127 
L 447.890958 -291.429225 
L 446.066454 -286.459648 
L 444.181134 -292.763646 
L 442.356631 -278.553816 
L 440.471311 -288.995414 
L 438.768441 -291.505094 
L 436.883121 -291.152439 
L 434.997801 -285.618161 
L 433.173298 -290.700276 
L 431.287978 -291.643389 
L 429.463475 -284.440328 
L 427.578155 -294.29831 
L 425.692835 -290.40084 
L 423.868331 -291.671321 
L 421.983011 -288.202216 
L 420.158508 -291.019935 
L 418.273188 -293.865886 
L 416.570318 -295.557004 
L 414.684998 -282.577455 
L 412.799678 -285.806554 
L 410.975175 -284.743294 
L 409.089855 -283.184121 
L 407.265351 -305.250627 
L 405.380031 -296.685818 
L 403.494711 -287.733492 
L 401.670208 -301.709469 
L 399.784888 -289.543028 
L 397.960385 -303.740203 
L 396.075065 -280.133171 
L 394.311378 -291.809146 
L 392.426058 -283.837131 
L 390.540738 -301.419632 
L 388.716235 -281.312568 
L 386.830915 -290.877565 
L 385.006411 -293.73712 
L 383.121091 -292.222604 
L 381.235771 -280.02021 
L 379.411268 -294.095703 
L 377.525948 -289.882089 
L 375.701445 -285.68243 
L 373.816125 -302.040169 
L 372.113255 -297.734684 
L 370.227935 -296.853456 
L 368.342615 -291.215612 
L 366.518112 -287.719888 
L 364.632792 -291.383762 
L 362.808288 -294.578413 
L 360.922968 -291.098556 
L 359.037648 -294.519016 
L 357.213145 -289.354177 
L 355.327825 -292.389217 
L 353.503322 -292.980369 
L 351.618002 -290.979782 
L 349.915132 -285.286478 
L 348.029812 -287.178804 
L 346.144492 -295.594015 
L 344.319988 -291.352822 
L 342.434668 -291.658107 
L 340.610165 -299.360048 
L 338.724845 -270.050945 
L 336.839525 -286.766434 
L 335.015022 -298.668615 
L 333.129702 -294.296116 
L 331.305198 -295.861547 
L 329.419878 -283.795952 
L 327.717009 -290.003032 
L 325.831689 -286.473198 
L 323.946369 -286.444358 
L 322.121865 -299.702397 
L 320.236545 -281.898048 
L 318.412042 -299.085503 
L 316.526722 -299.90652 
L 314.641402 -297.430453 
L 312.816899 -297.691281 
L 310.931579 -278.761486 
L 309.107075 -297.041863 
L 307.221755 -301.009295 
L 305.458069 -292.991179 
L 303.572749 -301.696248 
L 301.687429 -280.230559 
L 299.862925 -301.861779 
L 297.977605 -288.061451 
L 296.153102 -294.263975 
L 294.267782 -288.281596 
L 292.382462 -296.632226 
L 290.557959 -290.510632 
L 288.672639 -291.667044 
L 286.848135 -287.017332 
L 284.962815 -300.652231 
L 283.259946 -275.550147 
L 281.374625 -281.140697 
L 279.489305 -299.804927 
L 277.664802 -292.34155 
L 275.779482 -301.040984 
L 273.954979 -291.11175 
L 272.069659 -289.402243 
L 270.184339 -285.696763 
L 268.359835 -293.788762 
L 266.474515 -298.835503 
L 264.650012 -288.66688 
L 262.764692 -303.215452 
L 261.061822 -309.457536 
L 259.176502 -340.561364 
L 257.291182 -305.269063 
L 255.466679 -288.628743 
L 253.581359 -289.460966 
L 251.756856 -288.712447 
L 249.871536 -300.490353 
L 247.986216 -248.449319 
L 246.161712 -309.130986 
L 244.276392 -290.211217 
L 242.451889 -149.66675 
L 240.566569 -196.743106 
L 238.863699 -298.151582 
L 236.978379 -251.33837 
L 235.093059 -235.864342 
L 233.268556 -290.536185 
L 231.383236 -295.438692 
L 229.558732 -281.288669 
L 227.673412 -276.938544 
L 225.788092 -286.860079 
L 223.963589 -290.27254 
L 222.078269 -293.713616 
L 220.253766 -282.77908 
L 218.368446 -292.769186 
L 216.604759 -291.444795 
L 214.719439 -298.069532 
L 212.834119 -294.716223 
L 211.009616 -297.761161 
L 209.124296 -292.456462 
L 207.299792 -291.524137 
L 205.414472 -282.726581 
L 203.529152 -293.654132 
L 201.704649 -293.18132 
L 199.819329 -286.46693 
L 197.994826 -290.465482 
L 196.109506 -284.904701 
L 194.406636 -291.884794 
L 192.521316 -292.705351 
L 190.635996 -295.088448 
L 188.811493 -294.056348 
L 186.926173 -294.220429 
L 185.101669 -288.245274 
L 183.216349 -284.223459 
L 181.331029 -286.298698 
L 179.506526 -284.59358 
L 177.621206 -287.934908 
L 175.796703 -286.457209 
L 173.911383 -290.444643 
L 172.208513 -292.350308 
L 170.323193 -293.687238 
L 168.437873 -283.03353 
L 166.613369 -288.344483 
L 164.728049 -287.522078 
L 162.903546 -287.416716 
L 161.018226 -293.723035 
L 159.132906 -293.54272 
L 157.308403 -286.306017 
L 155.423083 -282.197477 
L 153.598579 -291.343978 
L 151.713259 -285.966353 
L 150.01039 -293.152461 
L 148.12507 -296.538926 
L 146.23975 -287.858621 
L 144.415246 -295.922474 
L 142.529926 -290.936484 
L 140.705423 -289.431118 
L 138.820103 -292.223802 
L 136.934783 -281.780582 
L 135.11028 -280.247706 
L 133.22496 -290.928642 
L 131.400456 -290.204412 
L 129.515136 -300.139458 
L 127.75145 -291.569402 
L 125.86613 -289.449458 
L 123.98081 -289.455871 
L 122.156306 -295.546076 
L 120.270986 -280.431053 
L 118.446483 -272.48938 
L 116.561163 -303.716125 
L 114.675843 -304.718737 
L 112.85134 -290.506613 
L 110.96602 -288.993815 
L 109.141516 -279.609841 
L 107.256196 -287.40671 
L 105.553327 -286.384264 
L 103.668006 -302.433513 
L 101.782686 -284.265713 
L 99.958183 -286.074783 
L 98.072863 -296.975014 
L 96.24836 -274.29554 
L 94.36304 -282.798609 
L 92.47772 -282.317356 
L 90.653216 -281.808637 
L 88.767896 -289.622965 
L 86.943393 -285.412822 
L 85.058073 -287.692374 
L 83.355203 -285.367592 
L 81.469883 -299.932277 
L 79.584563 -299.905588 
L 77.76006 -272.839772 
L 75.87474 -299.201718 
L 74.050237 -287.11905 
L 72.164917 -294.404842 
L 70.279597 -309.787532 
L 68.455093 -285.646304 
L 66.569773 -282.711528 
L 64.74527 -288.583782 
L 62.85995 -293.95081 
z
" style="stroke: #808080; stroke-opacity: 0.3"/>
    </defs>
    <g clip-path="url(#p0f29ddcd4f)">
     <use xlink:href="#m4b7c5bc72e" x="0" y="359.281364" style="fill: #808080; fill-opacity: 0.3; stroke: #808080; stroke-opacity: 0.3"/>
    </g>
   </g>
   <g id="matplotlib.axis_1">
    <g id="xtick_1">
     <g id="line2d_1">
      <defs>
       <path id="md8210bb93d" d="M 0 0 
L 0 -3 
" style="stroke: #000000; stroke-width: 0.5"/>
      </defs>
      <g>
       <use xlink:href="#md8210bb93d" x="125.926946" y="336.24" style="stroke: #000000; stroke-width: 0.5"/>
      </g>
     </g>
     <g id="line2d_2">
      <defs>
       <path id="mf375cf599e" d="M 0 0 
L 0 3 
" style="stroke: #000000; stroke-width: 0.5"/>
      </defs>
      <g>
       <use xlink:href="#mf375cf599e" x="125.926946" y="3.6" style="stroke: #000000; stroke-width: 0.5"/>
      </g>
     </g>
     <g id="text_1">
      <!-- $\mathdefault{2004}$ -->
      <g transform="translate(109.478375 352.1933) scale(0.18 -0.18)">
       <defs>
        <path id="CMR17-32" d="M 2669 990 
L 2554 990 
C 2490 537 2438 460 2413 422 
C 2381 371 1920 371 1830 371 
L 602 371 
C 832 620 1280 1073 1824 1596 
C 2214 1966 2669 2400 2669 3033 
C 2669 3788 2067 4224 1395 4224 
C 691 4224 262 3603 262 3027 
C 262 2777 448 2745 525 2745 
C 589 2745 781 2783 781 3007 
C 781 3206 614 3264 525 3264 
C 486 3264 448 3257 422 3244 
C 544 3788 915 4057 1306 4057 
C 1862 4057 2227 3616 2227 3033 
C 2227 2477 1901 1998 1536 1583 
L 262 147 
L 262 0 
L 2515 0 
L 2669 990 
z
" transform="scale(0.015625)"/>
        <path id="CMR17-30" d="M 2688 2038 
C 2688 2430 2682 3099 2413 3613 
C 2176 4063 1798 4224 1466 4224 
C 1158 4224 768 4082 525 3620 
C 269 3137 243 2539 243 2038 
C 243 1671 250 1112 448 623 
C 723 -39 1216 -128 1466 -128 
C 1760 -128 2208 -7 2470 604 
C 2662 1048 2688 1568 2688 2038 
z
M 1466 -26 
C 1056 -26 813 328 723 816 
C 653 1196 653 1749 653 2109 
C 653 2604 653 3015 736 3407 
C 858 3954 1216 4121 1466 4121 
C 1728 4121 2067 3947 2189 3420 
C 2272 3054 2278 2623 2278 2109 
C 2278 1691 2278 1176 2202 797 
C 2067 96 1690 -26 1466 -26 
z
" transform="scale(0.015625)"/>
        <path id="CMR17-34" d="M 2150 4147 
C 2150 4281 2144 4288 2029 4288 
L 128 1254 
L 128 1088 
L 1779 1088 
L 1779 460 
C 1779 230 1766 166 1318 166 
L 1197 166 
L 1197 0 
C 1402 12 1747 12 1965 12 
C 2182 12 2528 12 2733 0 
L 2733 166 
L 2611 166 
C 2163 166 2150 230 2150 460 
L 2150 1088 
L 2803 1088 
L 2803 1254 
L 2150 1254 
L 2150 4147 
z
M 1798 3723 
L 1798 1254 
L 256 1254 
L 1798 3723 
z
" transform="scale(0.015625)"/>
       </defs>
       <use xlink:href="#CMR17-32" transform="scale(0.996264)"/>
       <use xlink:href="#CMR17-30" transform="translate(45.690477 0) scale(0.996264)"/>
       <use xlink:href="#CMR17-30" transform="translate(91.380954 0) scale(0.996264)"/>
       <use xlink:href="#CMR17-34" transform="translate(137.071431 0) scale(0.996264)"/>
      </g>
     </g>
    </g>
    <g id="xtick_2">
     <g id="line2d_3">
      <g>
       <use xlink:href="#md8210bb93d" x="214.780256" y="336.24" style="stroke: #000000; stroke-width: 0.5"/>
      </g>
     </g>
     <g id="line2d_4">
      <g>
       <use xlink:href="#mf375cf599e" x="214.780256" y="3.6" style="stroke: #000000; stroke-width: 0.5"/>
      </g>
     </g>
     <g id="text_2">
      <!-- $\mathdefault{2008}$ -->
      <g transform="translate(198.331684 352.1933) scale(0.18 -0.18)">
       <defs>
        <path id="CMR17-38" d="M 1741 2289 
C 2144 2494 2554 2803 2554 3298 
C 2554 3884 1990 4224 1472 4224 
C 890 4224 378 3800 378 3215 
C 378 3054 416 2777 666 2533 
C 730 2469 998 2276 1171 2154 
C 883 2006 211 1652 211 945 
C 211 282 838 -128 1459 -128 
C 2144 -128 2720 366 2720 1022 
C 2720 1607 2330 1877 2074 2051 
L 1741 2289 
z
M 902 2855 
C 851 2887 595 3086 595 3388 
C 595 3781 998 4076 1459 4076 
C 1965 4076 2336 3716 2336 3298 
C 2336 2700 1670 2359 1638 2359 
C 1632 2359 1626 2359 1574 2398 
L 902 2855 
z
M 2080 1536 
C 2176 1466 2483 1253 2483 861 
C 2483 385 2010 25 1472 25 
C 890 25 448 443 448 951 
C 448 1459 838 1884 1280 2083 
L 2080 1536 
z
" transform="scale(0.015625)"/>
       </defs>
       <use xlink:href="#CMR17-32" transform="scale(0.996264)"/>
       <use xlink:href="#CMR17-30" transform="translate(45.690477 0) scale(0.996264)"/>
       <use xlink:href="#CMR17-30" transform="translate(91.380954 0) scale(0.996264)"/>
       <use xlink:href="#CMR17-38" transform="translate(137.071431 0) scale(0.996264)"/>
      </g>
     </g>
    </g>
    <g id="xtick_3">
     <g id="line2d_5">
      <g>
       <use xlink:href="#md8210bb93d" x="303.633565" y="336.24" style="stroke: #000000; stroke-width: 0.5"/>
      </g>
     </g>
     <g id="line2d_6">
      <g>
       <use xlink:href="#mf375cf599e" x="303.633565" y="3.6" style="stroke: #000000; stroke-width: 0.5"/>
      </g>
     </g>
     <g id="text_3">
      <!-- $\mathdefault{2012}$ -->
      <g transform="translate(287.184994 352.1933) scale(0.18 -0.18)">
       <defs>
        <path id="CMR17-31" d="M 1702 4083 
C 1702 4217 1696 4224 1606 4224 
C 1357 3927 979 3833 621 3820 
C 602 3820 570 3820 563 3808 
C 557 3795 557 3782 557 3648 
C 755 3648 1088 3686 1344 3839 
L 1344 467 
C 1344 243 1331 166 781 166 
L 589 166 
L 589 0 
C 896 6 1216 12 1523 12 
C 1830 12 2150 6 2458 0 
L 2458 166 
L 2266 166 
C 1715 166 1702 236 1702 467 
L 1702 4083 
z
" transform="scale(0.015625)"/>
       </defs>
       <use xlink:href="#CMR17-32" transform="scale(0.996264)"/>
       <use xlink:href="#CMR17-30" transform="translate(45.690477 0) scale(0.996264)"/>
       <use xlink:href="#CMR17-31" transform="translate(91.380954 0) scale(0.996264)"/>
       <use xlink:href="#CMR17-32" transform="translate(137.071431 0) scale(0.996264)"/>
      </g>
     </g>
    </g>
    <g id="xtick_4">
     <g id="line2d_7">
      <g>
       <use xlink:href="#md8210bb93d" x="392.486875" y="336.24" style="stroke: #000000; stroke-width: 0.5"/>
      </g>
     </g>
     <g id="line2d_8">
      <g>
       <use xlink:href="#mf375cf599e" x="392.486875" y="3.6" style="stroke: #000000; stroke-width: 0.5"/>
      </g>
     </g>
     <g id="text_4">
      <!-- $\mathdefault{2016}$ -->
      <g transform="translate(376.038303 352.1933) scale(0.18 -0.18)">
       <defs>
        <path id="CMR17-36" d="M 678 2198 
C 678 3712 1395 4076 1811 4076 
C 1946 4076 2272 4049 2400 3782 
C 2298 3782 2106 3782 2106 3558 
C 2106 3385 2246 3328 2336 3328 
C 2394 3328 2566 3353 2566 3571 
C 2566 3987 2246 4224 1805 4224 
C 1043 4224 243 3411 243 2011 
C 243 257 966 -128 1478 -128 
C 2099 -128 2688 431 2688 1295 
C 2688 2101 2170 2688 1517 2688 
C 1126 2688 838 2430 678 1979 
L 678 2198 
z
M 1478 25 
C 691 25 691 1212 691 1450 
C 691 1914 909 2585 1504 2585 
C 1613 2585 1926 2585 2138 2140 
C 2253 1889 2253 1624 2253 1302 
C 2253 954 2253 696 2118 438 
C 1978 173 1773 25 1478 25 
z
" transform="scale(0.015625)"/>
       </defs>
       <use xlink:href="#CMR17-32" transform="scale(0.996264)"/>
       <use xlink:href="#CMR17-30" transform="translate(45.690477 0) scale(0.996264)"/>
       <use xlink:href="#CMR17-31" transform="translate(91.380954 0) scale(0.996264)"/>
       <use xlink:href="#CMR17-36" transform="translate(137.071431 0) scale(0.996264)"/>
      </g>
     </g>
    </g>
    <g id="xtick_5">
     <g id="line2d_9">
      <g>
       <use xlink:href="#md8210bb93d" x="481.340184" y="336.24" style="stroke: #000000; stroke-width: 0.5"/>
      </g>
     </g>
     <g id="line2d_10">
      <g>
       <use xlink:href="#mf375cf599e" x="481.340184" y="3.6" style="stroke: #000000; stroke-width: 0.5"/>
      </g>
     </g>
     <g id="text_5">
      <!-- $\mathdefault{2020}$ -->
      <g transform="translate(464.891613 352.1933) scale(0.18 -0.18)">
       <use xlink:href="#CMR17-32" transform="scale(0.996264)"/>
       <use xlink:href="#CMR17-30" transform="translate(45.690477 0) scale(0.996264)"/>
       <use xlink:href="#CMR17-32" transform="translate(91.380954 0) scale(0.996264)"/>
       <use xlink:href="#CMR17-30" transform="translate(137.071431 0) scale(0.996264)"/>
      </g>
     </g>
    </g>
    <g id="xtick_6">
     <g id="line2d_11">
      <g>
       <use xlink:href="#md8210bb93d" x="570.193494" y="336.24" style="stroke: #000000; stroke-width: 0.5"/>
      </g>
     </g>
     <g id="line2d_12">
      <g>
       <use xlink:href="#mf375cf599e" x="570.193494" y="3.6" style="stroke: #000000; stroke-width: 0.5"/>
      </g>
     </g>
     <g id="text_6">
      <!-- $\mathdefault{2024}$ -->
      <g transform="translate(553.744922 352.1933) scale(0.18 -0.18)">
       <use xlink:href="#CMR17-32" transform="scale(0.996264)"/>
       <use xlink:href="#CMR17-30" transform="translate(45.690477 0) scale(0.996264)"/>
       <use xlink:href="#CMR17-32" transform="translate(91.380954 0) scale(0.996264)"/>
       <use xlink:href="#CMR17-34" transform="translate(137.071431 0) scale(0.996264)"/>
      </g>
     </g>
    </g>
    <g id="xtick_7">
     <g id="line2d_13">
      <defs>
       <path id="m15e958ea0c" d="M 0 0 
L 0 -1.5 
" style="stroke: #000000; stroke-width: 0.5"/>
      </defs>
      <g>
       <use xlink:href="#m15e958ea0c" x="59.286964" y="336.24" style="stroke: #000000; stroke-width: 0.5"/>
      </g>
     </g>
     <g id="line2d_14">
      <defs>
       <path id="mde5a29c041" d="M 0 0 
L 0 1.5 
" style="stroke: #000000; stroke-width: 0.5"/>
      </defs>
      <g>
       <use xlink:href="#mde5a29c041" x="59.286964" y="3.6" style="stroke: #000000; stroke-width: 0.5"/>
      </g>
     </g>
    </g>
    <g id="xtick_8">
     <g id="line2d_15">
      <g>
       <use xlink:href="#m15e958ea0c" x="81.500292" y="336.24" style="stroke: #000000; stroke-width: 0.5"/>
      </g>
     </g>
     <g id="line2d_16">
      <g>
       <use xlink:href="#mde5a29c041" x="81.500292" y="3.6" style="stroke: #000000; stroke-width: 0.5"/>
      </g>
     </g>
    </g>
    <g id="xtick_9">
     <g id="line2d_17">
      <g>
       <use xlink:href="#m15e958ea0c" x="103.713619" y="336.24" style="stroke: #000000; stroke-width: 0.5"/>
      </g>
     </g>
     <g id="line2d_18">
      <g>
       <use xlink:href="#mde5a29c041" x="103.713619" y="3.6" style="stroke: #000000; stroke-width: 0.5"/>
      </g>
     </g>
    </g>
    <g id="xtick_10">
     <g id="line2d_19">
      <g>
       <use xlink:href="#m15e958ea0c" x="148.140274" y="336.24" style="stroke: #000000; stroke-width: 0.5"/>
      </g>
     </g>
     <g id="line2d_20">
      <g>
       <use xlink:href="#mde5a29c041" x="148.140274" y="3.6" style="stroke: #000000; stroke-width: 0.5"/>
      </g>
     </g>
    </g>
    <g id="xtick_11">
     <g id="line2d_21">
      <g>
       <use xlink:href="#m15e958ea0c" x="170.353601" y="336.24" style="stroke: #000000; stroke-width: 0.5"/>
      </g>
     </g>
     <g id="line2d_22">
      <g>
       <use xlink:href="#mde5a29c041" x="170.353601" y="3.6" style="stroke: #000000; stroke-width: 0.5"/>
      </g>
     </g>
    </g>
    <g id="xtick_12">
     <g id="line2d_23">
      <g>
       <use xlink:href="#m15e958ea0c" x="192.566929" y="336.24" style="stroke: #000000; stroke-width: 0.5"/>
      </g>
     </g>
     <g id="line2d_24">
      <g>
       <use xlink:href="#mde5a29c041" x="192.566929" y="3.6" style="stroke: #000000; stroke-width: 0.5"/>
      </g>
     </g>
    </g>
    <g id="xtick_13">
     <g id="line2d_25">
      <g>
       <use xlink:href="#m15e958ea0c" x="236.993583" y="336.24" style="stroke: #000000; stroke-width: 0.5"/>
      </g>
     </g>
     <g id="line2d_26">
      <g>
       <use xlink:href="#mde5a29c041" x="236.993583" y="3.6" style="stroke: #000000; stroke-width: 0.5"/>
      </g>
     </g>
    </g>
    <g id="xtick_14">
     <g id="line2d_27">
      <g>
       <use xlink:href="#m15e958ea0c" x="259.206911" y="336.24" style="stroke: #000000; stroke-width: 0.5"/>
      </g>
     </g>
     <g id="line2d_28">
      <g>
       <use xlink:href="#mde5a29c041" x="259.206911" y="3.6" style="stroke: #000000; stroke-width: 0.5"/>
      </g>
     </g>
    </g>
    <g id="xtick_15">
     <g id="line2d_29">
      <g>
       <use xlink:href="#m15e958ea0c" x="281.420238" y="336.24" style="stroke: #000000; stroke-width: 0.5"/>
      </g>
     </g>
     <g id="line2d_30">
      <g>
       <use xlink:href="#mde5a29c041" x="281.420238" y="3.6" style="stroke: #000000; stroke-width: 0.5"/>
      </g>
     </g>
    </g>
    <g id="xtick_16">
     <g id="line2d_31">
      <g>
       <use xlink:href="#m15e958ea0c" x="325.846893" y="336.24" style="stroke: #000000; stroke-width: 0.5"/>
      </g>
     </g>
     <g id="line2d_32">
      <g>
       <use xlink:href="#mde5a29c041" x="325.846893" y="3.6" style="stroke: #000000; stroke-width: 0.5"/>
      </g>
     </g>
    </g>
    <g id="xtick_17">
     <g id="line2d_33">
      <g>
       <use xlink:href="#m15e958ea0c" x="348.06022" y="336.24" style="stroke: #000000; stroke-width: 0.5"/>
      </g>
     </g>
     <g id="line2d_34">
      <g>
       <use xlink:href="#mde5a29c041" x="348.06022" y="3.6" style="stroke: #000000; stroke-width: 0.5"/>
      </g>
     </g>
    </g>
    <g id="xtick_18">
     <g id="line2d_35">
      <g>
       <use xlink:href="#m15e958ea0c" x="370.273548" y="336.24" style="stroke: #000000; stroke-width: 0.5"/>
      </g>
     </g>
     <g id="line2d_36">
      <g>
       <use xlink:href="#mde5a29c041" x="370.273548" y="3.6" style="stroke: #000000; stroke-width: 0.5"/>
      </g>
     </g>
    </g>
    <g id="xtick_19">
     <g id="line2d_37">
      <g>
       <use xlink:href="#m15e958ea0c" x="414.700202" y="336.24" style="stroke: #000000; stroke-width: 0.5"/>
      </g>
     </g>
     <g id="line2d_38">
      <g>
       <use xlink:href="#mde5a29c041" x="414.700202" y="3.6" style="stroke: #000000; stroke-width: 0.5"/>
      </g>
     </g>
    </g>
    <g id="xtick_20">
     <g id="line2d_39">
      <g>
       <use xlink:href="#m15e958ea0c" x="436.91353" y="336.24" style="stroke: #000000; stroke-width: 0.5"/>
      </g>
     </g>
     <g id="line2d_40">
      <g>
       <use xlink:href="#mde5a29c041" x="436.91353" y="3.6" style="stroke: #000000; stroke-width: 0.5"/>
      </g>
     </g>
    </g>
    <g id="xtick_21">
     <g id="line2d_41">
      <g>
       <use xlink:href="#m15e958ea0c" x="459.126857" y="336.24" style="stroke: #000000; stroke-width: 0.5"/>
      </g>
     </g>
     <g id="line2d_42">
      <g>
       <use xlink:href="#mde5a29c041" x="459.126857" y="3.6" style="stroke: #000000; stroke-width: 0.5"/>
      </g>
     </g>
    </g>
    <g id="xtick_22">
     <g id="line2d_43">
      <g>
       <use xlink:href="#m15e958ea0c" x="503.553512" y="336.24" style="stroke: #000000; stroke-width: 0.5"/>
      </g>
     </g>
     <g id="line2d_44">
      <g>
       <use xlink:href="#mde5a29c041" x="503.553512" y="3.6" style="stroke: #000000; stroke-width: 0.5"/>
      </g>
     </g>
    </g>
    <g id="xtick_23">
     <g id="line2d_45">
      <g>
       <use xlink:href="#m15e958ea0c" x="525.766839" y="336.24" style="stroke: #000000; stroke-width: 0.5"/>
      </g>
     </g>
     <g id="line2d_46">
      <g>
       <use xlink:href="#mde5a29c041" x="525.766839" y="3.6" style="stroke: #000000; stroke-width: 0.5"/>
      </g>
     </g>
    </g>
    <g id="xtick_24">
     <g id="line2d_47">
      <g>
       <use xlink:href="#m15e958ea0c" x="547.980167" y="336.24" style="stroke: #000000; stroke-width: 0.5"/>
      </g>
     </g>
     <g id="line2d_48">
      <g>
       <use xlink:href="#mde5a29c041" x="547.980167" y="3.6" style="stroke: #000000; stroke-width: 0.5"/>
      </g>
     </g>
    </g>
    <g id="xtick_25">
     <g id="line2d_49">
      <g>
       <use xlink:href="#m15e958ea0c" x="592.406821" y="336.24" style="stroke: #000000; stroke-width: 0.5"/>
      </g>
     </g>
     <g id="line2d_50">
      <g>
       <use xlink:href="#mde5a29c041" x="592.406821" y="3.6" style="stroke: #000000; stroke-width: 0.5"/>
      </g>
     </g>
    </g>
   </g>
   <g id="matplotlib.axis_2">
    <g id="ytick_1">
     <g id="line2d_51">
      <defs>
       <path id="m9046370887" d="M 0 0 
L 3 0 
" style="stroke: #000000; stroke-width: 0.5"/>
      </defs>
      <g>
       <use xlink:href="#m9046370887" x="37.496314" y="275.488415" style="stroke: #000000; stroke-width: 0.5"/>
      </g>
     </g>
     <g id="line2d_52">
      <defs>
       <path id="ma0346f8e61" d="M 0 0 
L -3 0 
" style="stroke: #000000; stroke-width: 0.5"/>
      </defs>
      <g>
       <use xlink:href="#ma0346f8e61" x="595.496314" y="275.488415" style="stroke: #000000; stroke-width: 0.5"/>
      </g>
     </g>
     <g id="text_7">
      <!-- $\mathdefault{−20}$ -->
      <g transform="translate(3.6 281.715065) scale(0.18 -0.18)">
       <defs>
        <path id="CMSY10-0" d="M 4218 1472 
C 4326 1472 4442 1472 4442 1600 
C 4442 1728 4326 1728 4218 1728 
L 755 1728 
C 646 1728 531 1728 531 1600 
C 531 1472 646 1472 755 1472 
L 4218 1472 
z
" transform="scale(0.015625)"/>
       </defs>
       <use xlink:href="#CMSY10-0" transform="scale(0.996264)"/>
       <use xlink:href="#CMR17-32" transform="translate(77.487468 0) scale(0.996264)"/>
       <use xlink:href="#CMR17-30" transform="translate(123.177945 0) scale(0.996264)"/>
      </g>
     </g>
    </g>
    <g id="ytick_2">
     <g id="line2d_53">
      <g>
       <use xlink:href="#m9046370887" x="37.496314" y="202.336584" style="stroke: #000000; stroke-width: 0.5"/>
      </g>
     </g>
     <g id="line2d_54">
      <g>
       <use xlink:href="#ma0346f8e61" x="595.496314" y="202.336584" style="stroke: #000000; stroke-width: 0.5"/>
      </g>
     </g>
     <g id="text_8">
      <!-- $\mathdefault{−10}$ -->
      <g transform="translate(3.6 208.563234) scale(0.18 -0.18)">
       <use xlink:href="#CMSY10-0" transform="scale(0.996264)"/>
       <use xlink:href="#CMR17-31" transform="translate(77.487468 0) scale(0.996264)"/>
       <use xlink:href="#CMR17-30" transform="translate(123.177945 0) scale(0.996264)"/>
      </g>
     </g>
    </g>
    <g id="ytick_3">
     <g id="line2d_55">
      <g>
       <use xlink:href="#m9046370887" x="37.496314" y="129.184753" style="stroke: #000000; stroke-width: 0.5"/>
      </g>
     </g>
     <g id="line2d_56">
      <g>
       <use xlink:href="#ma0346f8e61" x="595.496314" y="129.184753" style="stroke: #000000; stroke-width: 0.5"/>
      </g>
     </g>
     <g id="text_9">
      <!-- $\mathdefault{0}$ -->
      <g transform="translate(25.772028 135.411403) scale(0.18 -0.18)">
       <use xlink:href="#CMR17-30" transform="scale(0.996264)"/>
      </g>
     </g>
    </g>
    <g id="ytick_4">
     <g id="line2d_57">
      <g>
       <use xlink:href="#m9046370887" x="37.496314" y="56.032923" style="stroke: #000000; stroke-width: 0.5"/>
      </g>
     </g>
     <g id="line2d_58">
      <g>
       <use xlink:href="#ma0346f8e61" x="595.496314" y="56.032923" style="stroke: #000000; stroke-width: 0.5"/>
      </g>
     </g>
     <g id="text_10">
      <!-- $\mathdefault{10}$ -->
      <g transform="translate(17.547742 62.259573) scale(0.18 -0.18)">
       <use xlink:href="#CMR17-31" transform="scale(0.996264)"/>
       <use xlink:href="#CMR17-30" transform="translate(45.690477 0) scale(0.996264)"/>
      </g>
     </g>
    </g>
    <g id="ytick_5">
     <g id="line2d_59">
      <defs>
       <path id="maf8548f2a9" d="M 0 0 
L 1.5 0 
" style="stroke: #000000; stroke-width: 0.5"/>
      </defs>
      <g>
       <use xlink:href="#maf8548f2a9" x="37.496314" y="334.00988" style="stroke: #000000; stroke-width: 0.5"/>
      </g>
     </g>
     <g id="line2d_60">
      <defs>
       <path id="mc081be3f82" d="M 0 0 
L -1.5 0 
" style="stroke: #000000; stroke-width: 0.5"/>
      </defs>
      <g>
       <use xlink:href="#mc081be3f82" x="595.496314" y="334.00988" style="stroke: #000000; stroke-width: 0.5"/>
      </g>
     </g>
    </g>
    <g id="ytick_6">
     <g id="line2d_61">
      <g>
       <use xlink:href="#maf8548f2a9" x="37.496314" y="319.379513" style="stroke: #000000; stroke-width: 0.5"/>
      </g>
     </g>
     <g id="line2d_62">
      <g>
       <use xlink:href="#mc081be3f82" x="595.496314" y="319.379513" style="stroke: #000000; stroke-width: 0.5"/>
      </g>
     </g>
    </g>
    <g id="ytick_7">
     <g id="line2d_63">
      <g>
       <use xlink:href="#maf8548f2a9" x="37.496314" y="304.749147" style="stroke: #000000; stroke-width: 0.5"/>
      </g>
     </g>
     <g id="line2d_64">
      <g>
       <use xlink:href="#mc081be3f82" x="595.496314" y="304.749147" style="stroke: #000000; stroke-width: 0.5"/>
      </g>
     </g>
    </g>
    <g id="ytick_8">
     <g id="line2d_65">
      <g>
       <use xlink:href="#maf8548f2a9" x="37.496314" y="290.118781" style="stroke: #000000; stroke-width: 0.5"/>
      </g>
     </g>
     <g id="line2d_66">
      <g>
       <use xlink:href="#mc081be3f82" x="595.496314" y="290.118781" style="stroke: #000000; stroke-width: 0.5"/>
      </g>
     </g>
    </g>
    <g id="ytick_9">
     <g id="line2d_67">
      <g>
       <use xlink:href="#maf8548f2a9" x="37.496314" y="260.858049" style="stroke: #000000; stroke-width: 0.5"/>
      </g>
     </g>
     <g id="line2d_68">
      <g>
       <use xlink:href="#mc081be3f82" x="595.496314" y="260.858049" style="stroke: #000000; stroke-width: 0.5"/>
      </g>
     </g>
    </g>
    <g id="ytick_10">
     <g id="line2d_69">
      <g>
       <use xlink:href="#maf8548f2a9" x="37.496314" y="246.227683" style="stroke: #000000; stroke-width: 0.5"/>
      </g>
     </g>
     <g id="line2d_70">
      <g>
       <use xlink:href="#mc081be3f82" x="595.496314" y="246.227683" style="stroke: #000000; stroke-width: 0.5"/>
      </g>
     </g>
    </g>
    <g id="ytick_11">
     <g id="line2d_71">
      <g>
       <use xlink:href="#maf8548f2a9" x="37.496314" y="231.597316" style="stroke: #000000; stroke-width: 0.5"/>
      </g>
     </g>
     <g id="line2d_72">
      <g>
       <use xlink:href="#mc081be3f82" x="595.496314" y="231.597316" style="stroke: #000000; stroke-width: 0.5"/>
      </g>
     </g>
    </g>
    <g id="ytick_12">
     <g id="line2d_73">
      <g>
       <use xlink:href="#maf8548f2a9" x="37.496314" y="216.96695" style="stroke: #000000; stroke-width: 0.5"/>
      </g>
     </g>
     <g id="line2d_74">
      <g>
       <use xlink:href="#mc081be3f82" x="595.496314" y="216.96695" style="stroke: #000000; stroke-width: 0.5"/>
      </g>
     </g>
    </g>
    <g id="ytick_13">
     <g id="line2d_75">
      <g>
       <use xlink:href="#maf8548f2a9" x="37.496314" y="187.706218" style="stroke: #000000; stroke-width: 0.5"/>
      </g>
     </g>
     <g id="line2d_76">
      <g>
       <use xlink:href="#mc081be3f82" x="595.496314" y="187.706218" style="stroke: #000000; stroke-width: 0.5"/>
      </g>
     </g>
    </g>
    <g id="ytick_14">
     <g id="line2d_77">
      <g>
       <use xlink:href="#maf8548f2a9" x="37.496314" y="173.075852" style="stroke: #000000; stroke-width: 0.5"/>
      </g>
     </g>
     <g id="line2d_78">
      <g>
       <use xlink:href="#mc081be3f82" x="595.496314" y="173.075852" style="stroke: #000000; stroke-width: 0.5"/>
      </g>
     </g>
    </g>
    <g id="ytick_15">
     <g id="line2d_79">
      <g>
       <use xlink:href="#maf8548f2a9" x="37.496314" y="158.445486" style="stroke: #000000; stroke-width: 0.5"/>
      </g>
     </g>
     <g id="line2d_80">
      <g>
       <use xlink:href="#mc081be3f82" x="595.496314" y="158.445486" style="stroke: #000000; stroke-width: 0.5"/>
      </g>
     </g>
    </g>
    <g id="ytick_16">
     <g id="line2d_81">
      <g>
       <use xlink:href="#maf8548f2a9" x="37.496314" y="143.81512" style="stroke: #000000; stroke-width: 0.5"/>
      </g>
     </g>
     <g id="line2d_82">
      <g>
       <use xlink:href="#mc081be3f82" x="595.496314" y="143.81512" style="stroke: #000000; stroke-width: 0.5"/>
      </g>
     </g>
    </g>
    <g id="ytick_17">
     <g id="line2d_83">
      <g>
       <use xlink:href="#maf8548f2a9" x="37.496314" y="114.554387" style="stroke: #000000; stroke-width: 0.5"/>
      </g>
     </g>
     <g id="line2d_84">
      <g>
       <use xlink:href="#mc081be3f82" x="595.496314" y="114.554387" style="stroke: #000000; stroke-width: 0.5"/>
      </g>
     </g>
    </g>
    <g id="ytick_18">
     <g id="line2d_85">
      <g>
       <use xlink:href="#maf8548f2a9" x="37.496314" y="99.924021" style="stroke: #000000; stroke-width: 0.5"/>
      </g>
     </g>
     <g id="line2d_86">
      <g>
       <use xlink:href="#mc081be3f82" x="595.496314" y="99.924021" style="stroke: #000000; stroke-width: 0.5"/>
      </g>
     </g>
    </g>
    <g id="ytick_19">
     <g id="line2d_87">
      <g>
       <use xlink:href="#maf8548f2a9" x="37.496314" y="85.293655" style="stroke: #000000; stroke-width: 0.5"/>
      </g>
     </g>
     <g id="line2d_88">
      <g>
       <use xlink:href="#mc081be3f82" x="595.496314" y="85.293655" style="stroke: #000000; stroke-width: 0.5"/>
      </g>
     </g>
    </g>
    <g id="ytick_20">
     <g id="line2d_89">
      <g>
       <use xlink:href="#maf8548f2a9" x="37.496314" y="70.663289" style="stroke: #000000; stroke-width: 0.5"/>
      </g>
     </g>
     <g id="line2d_90">
      <g>
       <use xlink:href="#mc081be3f82" x="595.496314" y="70.663289" style="stroke: #000000; stroke-width: 0.5"/>
      </g>
     </g>
    </g>
    <g id="ytick_21">
     <g id="line2d_91">
      <g>
       <use xlink:href="#maf8548f2a9" x="37.496314" y="41.402556" style="stroke: #000000; stroke-width: 0.5"/>
      </g>
     </g>
     <g id="line2d_92">
      <g>
       <use xlink:href="#mc081be3f82" x="595.496314" y="41.402556" style="stroke: #000000; stroke-width: 0.5"/>
      </g>
     </g>
    </g>
    <g id="ytick_22">
     <g id="line2d_93">
      <g>
       <use xlink:href="#maf8548f2a9" x="37.496314" y="26.77219" style="stroke: #000000; stroke-width: 0.5"/>
      </g>
     </g>
     <g id="line2d_94">
      <g>
       <use xlink:href="#mc081be3f82" x="595.496314" y="26.77219" style="stroke: #000000; stroke-width: 0.5"/>
      </g>
     </g>
    </g>
    <g id="ytick_23">
     <g id="line2d_95">
      <g>
       <use xlink:href="#maf8548f2a9" x="37.496314" y="12.141824" style="stroke: #000000; stroke-width: 0.5"/>
      </g>
     </g>
     <g id="line2d_96">
      <g>
       <use xlink:href="#mc081be3f82" x="595.496314" y="12.141824" style="stroke: #000000; stroke-width: 0.5"/>
      </g>
     </g>
    </g>
   </g>
   <g id="line2d_97">
    <path d="M 62.85995 145.735723 
L 64.74527 199.642966 
L 66.569773 126.727563 
L 68.455093 81.278093 
L 70.279597 147.646579 
L 72.164917 149.702002 
L 74.050237 145.117652 
L 75.87474 217.384 
L 77.76006 107.146806 
L 79.584563 93.972558 
L 81.469883 119.375756 
L 83.355203 132.206688 
L 85.058073 155.0025 
L 86.943393 94.706035 
L 88.767896 156.217962 
L 90.653216 151.006595 
L 92.47772 174.790331 
L 94.36304 213.530416 
L 96.24836 121.966745 
L 98.072863 165.958239 
L 99.958183 140.380034 
L 101.782686 83.319253 
L 103.668006 137.878436 
L 105.553327 131.907034 
L 107.256196 178.856246 
L 109.141516 120.842627 
L 110.96602 92.615124 
L 112.85134 92.376529 
L 114.675843 89.602329 
L 116.561163 125.831023 
L 118.446483 131.406544 
L 120.270986 107.401124 
L 122.156306 115.472182 
L 123.98081 121.360354 
L 127.75145 94.882558 
L 129.515136 122.216268 
L 131.400456 141.690306 
L 133.22496 123.105314 
L 135.11028 149.19354 
L 136.934783 109.563334 
L 138.820103 146.772548 
L 140.705423 140.457102 
L 142.529926 110.141526 
L 144.415246 129.479342 
L 146.23975 96.074151 
L 148.12507 110.483011 
L 150.01039 140.124146 
L 151.713259 117.989205 
L 153.598579 132.074745 
L 155.423083 148.080459 
L 157.308403 120.535244 
L 159.132906 114.452667 
L 161.018226 117.121695 
L 162.903546 127.970794 
L 164.728049 128.199519 
L 166.613369 149.734984 
L 168.437873 101.833907 
L 170.323193 114.726242 
L 172.208513 119.5915 
L 173.911383 130.37562 
L 175.796703 119.457177 
L 177.621206 124.433648 
L 179.506526 136.047956 
L 181.331029 150.379494 
L 183.216349 125.06935 
L 185.101669 113.72902 
L 186.926173 112.003088 
L 188.811493 104.27746 
L 190.635996 115.755584 
L 192.521316 114.69505 
L 194.406636 125.198268 
L 196.109506 118.659129 
L 197.994826 148.604123 
L 199.819329 100.28814 
L 201.704649 105.821632 
L 203.529152 127.709786 
L 205.414472 126.041647 
L 207.299792 161.688038 
L 209.124296 108.118076 
L 211.009616 108.688817 
L 212.834119 166.350237 
L 214.719439 121.314158 
L 216.604759 180.632712 
L 218.368446 141.970988 
L 220.253766 149.955956 
L 222.078269 100.038955 
L 223.963589 111.909328 
L 225.788092 162.225666 
L 227.673412 176.449314 
L 229.558732 115.273154 
L 231.383236 166.975083 
L 233.268556 296.003711 
L 235.093059 196.987497 
L 236.978379 133.73858 
L 238.863699 139.239858 
L 240.566569 182.052936 
L 242.451889 174.241147 
L 244.276392 46.140939 
L 246.161712 83.822239 
L 247.986216 110.212933 
L 249.871536 121.56282 
L 251.756856 73.578318 
L 253.581359 104.38394 
L 255.466679 113.176816 
L 257.291182 115.332615 
L 259.176502 114.337262 
L 261.061822 120.539877 
L 262.764692 151.944672 
L 264.650012 88.12009 
L 266.474515 100.990018 
L 268.359835 174.721299 
L 270.184339 156.813501 
L 272.069659 131.592534 
L 273.954979 124.134844 
L 275.779482 106.138312 
L 277.664802 97.605723 
L 279.489305 112.328477 
L 281.374625 103.619387 
L 283.259946 105.366246 
L 284.962815 107.550099 
L 286.848135 138.451409 
L 288.672639 114.187548 
L 290.557959 125.458408 
L 292.382462 157.617693 
L 294.267782 107.958571 
L 296.153102 210.786719 
L 297.977605 136.27305 
L 299.862925 108.698075 
L 301.687429 117.642008 
L 303.572749 119.173293 
L 305.458069 96.24807 
L 307.221755 100.555307 
L 309.107075 109.573116 
L 312.816899 153.409108 
L 314.641402 138.952202 
L 316.526722 109.391118 
L 318.412042 106.061043 
L 320.236545 108.642398 
L 322.121865 132.028326 
L 323.946369 151.558225 
L 325.831689 114.755445 
L 327.717009 99.891781 
L 329.419878 113.584422 
L 331.305198 110.785613 
L 333.129702 119.871715 
L 335.015022 97.672923 
L 336.839525 138.644803 
L 338.724845 106.971254 
L 340.610165 128.566897 
L 344.319988 115.074377 
L 346.144492 102.661055 
L 348.029812 119.309681 
L 349.915132 123.30862 
L 351.618002 131.323392 
L 353.503322 110.707794 
L 355.327825 128.894327 
L 357.213145 119.242734 
L 359.037648 107.326385 
L 360.922968 119.477535 
L 362.808288 133.486907 
L 364.632792 117.457302 
L 366.518112 150.015961 
L 368.342615 89.75026 
L 370.227935 125.722437 
L 372.113255 138.534812 
L 373.816125 109.955926 
L 375.701445 129.961583 
L 377.525948 123.973681 
L 379.411268 123.244656 
L 381.235771 133.579543 
L 383.121091 130.981527 
L 386.830915 164.244591 
L 388.716235 99.545621 
L 390.540738 109.294729 
L 392.426058 138.575888 
L 394.311378 179.097934 
L 397.960385 85.377859 
L 399.784888 110.048989 
L 401.670208 132.714202 
L 403.494711 122.718274 
L 405.380031 106.712698 
L 407.265351 121.716847 
L 409.089855 133.666514 
L 410.975175 134.175285 
L 412.799678 121.723491 
L 414.684998 102.107184 
L 416.570318 119.966538 
L 418.273188 111.776928 
L 420.158508 117.687011 
L 421.983011 131.509576 
L 423.868331 118.094823 
L 425.692835 117.478611 
L 429.463475 128.553096 
L 431.287978 118.358985 
L 433.173298 110.595356 
L 434.997801 118.785466 
L 436.883121 109.502782 
L 438.768441 95.525009 
L 440.471311 151.72199 
L 442.356631 129.831333 
L 444.181134 142.607133 
L 446.066454 116.108894 
L 447.890958 115.009386 
L 449.776278 118.823583 
L 451.661598 112.569272 
L 453.486101 118.088536 
L 455.371421 159.041537 
L 457.195924 145.712937 
L 459.081244 172.315086 
L 460.966565 117.852757 
L 462.669434 88.938881 
L 464.554754 116.256475 
L 466.379258 103.595959 
L 468.264578 141.657113 
L 470.089081 120.154114 
L 471.974401 102.849604 
L 473.859721 153.667446 
L 475.684224 108.11786 
L 477.569544 130.283534 
L 479.394048 98.579136 
L 481.279368 112.450867 
L 483.164688 106.188121 
L 484.928374 129.383078 
L 486.813694 283.946052 
L 488.638198 99.57026 
L 490.523518 88.581341 
L 492.348021 84.230947 
L 494.233341 105.319375 
L 496.118661 88.362174 
L 497.943164 134.856015 
L 501.652988 101.823774 
L 503.538308 99.630911 
L 505.423628 109.953055 
L 507.126497 112.092999 
L 509.011817 124.102142 
L 510.836321 87.259613 
L 512.721641 124.488154 
L 514.546144 116.890293 
L 516.431464 107.885646 
L 518.316784 114.169878 
L 520.141287 130.608876 
L 522.026607 126.69378 
L 523.851111 96.05282 
L 525.736431 128.028053 
L 527.621751 145.155838 
L 529.324621 151.56854 
L 531.209941 136.595977 
L 533.034444 129.179625 
L 534.919764 190.113354 
L 536.744267 155.246824 
L 538.629587 126.790368 
L 540.514907 84.423156 
L 542.339411 185.483327 
L 544.224731 153.221992 
L 546.049234 92.534347 
L 547.934554 130.139129 
L 549.819874 120.213657 
L 551.522744 107.524554 
L 553.408064 149.386821 
L 555.232567 101.528849 
L 557.117887 124.812815 
L 558.94239 94.857683 
L 560.82771 102.295036 
L 562.71303 137.461133 
L 564.537534 137.148732 
L 566.422854 152.736671 
L 568.247357 97.22512 
L 570.132677 93.183854 
L 570.132677 93.183854 
" clip-path="url(#p0f29ddcd4f)" style="fill: none; stroke-dasharray: 3.7,1.6; stroke-dashoffset: 0; stroke: #000000"/>
   </g>
   <g id="line2d_98">
    <path d="M 62.85995 120.142316 
L 64.74527 125.518155 
L 66.569773 131.747905 
L 68.455093 128.776584 
L 70.279597 104.737584 
L 72.164917 120.183205 
L 74.050237 127.484155 
L 75.87474 115.384034 
L 77.76006 142.384933 
L 79.584563 115.34955 
L 81.469883 115.312743 
L 83.355203 129.838241 
L 85.058073 127.472015 
L 86.943393 129.765636 
L 88.767896 125.596663 
L 90.653216 133.432001 
L 92.47772 132.904609 
L 94.36304 132.504978 
L 96.24836 141.418451 
L 98.072863 118.729077 
L 99.958183 129.729133 
L 101.782686 131.504987 
L 103.668006 113.449468 
L 105.553327 129.50502 
L 107.256196 128.442955 
L 109.141516 136.373976 
L 110.96602 126.96715 
L 112.85134 125.498774 
L 114.675843 111.327279 
L 116.561163 112.328915 
L 118.446483 143.523137 
L 120.270986 135.554427 
L 122.156306 120.456785 
L 123.98081 126.510093 
L 125.86613 126.481591 
L 127.75145 124.347773 
L 129.515136 115.797392 
L 131.400456 125.694519 
L 133.22496 124.948773 
L 135.11028 135.590813 
L 136.934783 134.025272 
L 138.820103 123.584302 
L 140.705423 126.372954 
L 142.529926 124.842635 
L 144.415246 119.831436 
L 146.23975 127.86172 
L 148.12507 119.206918 
L 150.01039 122.559345 
L 151.713259 129.726862 
L 153.598579 124.319014 
L 155.423083 133.426735 
L 157.308403 129.295853 
L 159.132906 122.025191 
L 161.018226 121.810385 
L 162.903546 128.079121 
L 164.728049 127.931949 
L 166.613369 127.071556 
L 168.437873 132.38454 
L 170.323193 121.750565 
L 172.208513 123.051963 
L 173.911383 124.920691 
L 175.796703 128.874264 
L 177.621206 127.36434 
L 179.506526 130.668159 
L 181.331029 128.931768 
L 183.216349 130.99952 
L 185.101669 126.942863 
L 186.926173 120.93711 
L 188.811493 121.069823 
L 190.635996 120.020602 
L 192.521316 122.370974 
L 194.406636 123.158964 
L 196.109506 130.100073 
L 197.994826 124.51052 
L 199.819329 128.509522 
L 201.704649 121.808176 
L 203.529152 121.314424 
L 205.414472 132.206343 
L 207.299792 123.376409 
L 209.124296 122.50445 
L 211.009616 117.17241 
L 212.834119 120.185595 
L 214.719439 116.931686 
L 216.604759 123.520004 
L 218.368446 122.366511 
L 220.253766 132.348828 
L 222.078269 121.398001 
L 225.788092 128.212711 
L 227.673412 138.171565 
L 229.558732 133.870614 
L 231.383236 119.704483 
L 233.268556 124.716391 
L 235.093059 181.08847 
L 236.978379 165.571803 
L 238.863699 117.670173 
L 240.566569 218.261082 
L 242.451889 265.367307 
L 244.276392 125.103735 
L 246.161712 106.22154 
L 247.986216 166.891395 
L 249.871536 114.825969 
L 251.756856 126.569182 
L 253.581359 125.917572 
L 255.466679 126.768172 
L 257.291182 108.965441 
L 259.176502 73.654916 
L 261.061822 104.786551 
L 262.764692 109.670362 
L 264.650012 128.217751 
L 266.474515 118.107273 
L 268.359835 123.139786 
L 270.184339 131.355855 
L 272.069659 127.656762 
L 273.954979 125.910227 
L 275.779482 115.944843 
L 277.664802 124.616342 
L 279.489305 117.157436 
L 281.374625 135.786694 
L 283.259946 141.392502 
L 284.962815 116.30686 
L 286.848135 129.906864 
L 288.672639 125.233244 
L 290.557959 126.360476 
L 292.382462 120.202561 
L 294.267782 128.603298 
L 296.153102 122.60877 
L 297.977605 129.235679 
L 299.862925 115.401964 
L 301.687429 136.997996 
L 303.572749 115.512758 
L 305.458069 124.184015 
L 307.221755 116.179597 
L 309.107075 120.124239 
L 310.931579 138.372993 
L 312.816899 119.406453 
L 314.641402 119.702788 
L 316.526722 117.212896 
L 318.412042 118.003528 
L 320.236545 135.16678 
L 322.121865 117.347482 
L 323.946369 130.583035 
L 325.831689 130.547223 
L 327.717009 126.99315 
L 329.419878 133.20875 
L 331.305198 121.121591 
L 333.129702 122.658044 
L 335.015022 118.250512 
L 336.839525 130.134008 
L 338.724845 146.818348 
L 340.610165 117.54764 
L 342.434668 125.23056 
L 344.319988 125.500191 
L 346.144492 121.228575 
L 348.029812 129.62465 
L 349.915132 131.490109 
L 351.618002 125.763549 
L 353.503322 123.730947 
L 355.327825 124.293251 
L 357.213145 127.295634 
L 359.037648 122.100703 
L 360.922968 125.496478 
L 362.808288 121.985534 
L 364.632792 125.155515 
L 366.518112 128.789401 
L 368.342615 125.282795 
L 370.227935 119.67137 
L 372.113255 118.758412 
L 373.816125 114.440501 
L 375.701445 130.767404 
L 379.411268 122.288046 
L 381.235771 136.330115 
L 383.121091 124.093531 
L 385.006411 122.551891 
L 386.830915 125.413521 
L 388.716235 135.031818 
L 390.540738 114.962681 
L 392.426058 132.5122 
L 394.311378 124.512497 
L 396.075065 136.320354 
L 397.960385 112.679864 
L 399.784888 126.878579 
L 401.670208 114.694897 
L 403.494711 128.655162 
L 407.265351 111.079296 
L 409.089855 133.122498 
L 410.975175 131.531846 
L 412.799678 130.435624 
L 414.684998 133.632915 
L 416.570318 120.663314 
L 418.273188 122.326257 
L 421.983011 127.934935 
L 423.868331 124.433453 
L 425.692835 125.671125 
L 427.578155 121.746 
L 429.463475 131.568745 
L 431.287978 124.336104 
L 433.173298 125.247541 
L 434.997801 130.307872 
L 436.883121 124.747752 
L 438.768441 124.372763 
L 440.471311 126.895421 
L 442.356631 137.342654 
L 444.181134 123.101768 
L 446.066454 129.395321 
L 447.890958 124.404006 
L 449.776278 123.089732 
L 451.661598 126.410417 
L 453.486101 125.225382 
L 455.371421 128.804791 
L 457.195924 133.281158 
L 459.081244 129.92756 
L 460.966565 130.976273 
L 462.669434 120.371594 
L 464.554754 113.51695 
L 466.379258 120.304646 
L 468.264578 118.483259 
L 470.089081 125.97125 
L 473.859721 94.12316 
L 475.684224 129.043307 
L 477.569544 120.42731 
L 479.394048 129.039287 
L 481.279368 123.03402 
L 483.164688 124.391631 
L 484.928374 116.749117 
L 486.813694 117.823218 
L 488.638198 120.212208 
L 490.523518 82.935898 
L 492.348021 109.594163 
L 494.233341 116.576542 
L 496.118661 110.312741 
L 497.943164 117.21629 
L 499.828484 131.668208 
L 501.652988 133.549343 
L 503.538308 115.590095 
L 505.423628 114.675375 
L 507.126497 128.092161 
L 509.011817 119.164965 
L 510.836321 124.487365 
L 512.721641 116.603897 
L 514.546144 123.916539 
L 516.431464 124.294805 
L 518.316784 115.555257 
L 520.141287 121.194129 
L 522.026607 129.759083 
L 523.851111 124.812852 
L 525.736431 118.341725 
L 527.621751 128.116002 
L 529.324621 126.932206 
L 531.209941 128.859201 
L 533.034444 128.735409 
L 534.919764 131.203184 
L 536.744267 131.597351 
L 538.629587 127.445739 
L 540.514907 125.74229 
L 542.339411 112.41276 
L 544.224731 147.770467 
L 546.049234 133.900383 
L 547.934554 111.843682 
L 549.819874 126.717583 
L 551.522744 121.266008 
L 553.408064 128.233354 
L 555.232567 128.075444 
L 557.117887 117.63189 
L 558.94239 132.011738 
L 560.82771 121.300258 
L 562.71303 120.974571 
L 564.537534 134.751024 
L 566.422854 130.206836 
L 568.247357 132.446942 
L 570.132677 115.024222 
L 570.132677 115.024222 
" clip-path="url(#p0f29ddcd4f)" style="fill: none; stroke: #800080; stroke-linecap: square"/>
   </g>
   <g id="patch_3">
    <path d="M 37.496314 336.24 
L 37.496314 3.6 
" style="fill: none; stroke: #000000; stroke-width: 0.5; stroke-linejoin: miter; stroke-linecap: square"/>
   </g>
   <g id="patch_4">
    <path d="M 595.496314 336.24 
L 595.496314 3.6 
" style="fill: none; stroke: #000000; stroke-width: 0.5; stroke-linejoin: miter; stroke-linecap: square"/>
   </g>
   <g id="patch_5">
    <path d="M 37.496314 336.24 
L 595.496314 336.24 
" style="fill: none; stroke: #000000; stroke-width: 0.5; stroke-linejoin: miter; stroke-linecap: square"/>
   </g>
   <g id="patch_6">
    <path d="M 37.496314 3.6 
L 595.496314 3.6 
" style="fill: none; stroke: #000000; stroke-width: 0.5; stroke-linejoin: miter; stroke-linecap: square"/>
   </g>
   <g id="legend_1">
    <g id="line2d_99">
     <path d="M 48.296314 285.466213 
L 60.296314 285.466213 
L 72.296314 285.466213 
" style="fill: none; stroke-dasharray: 3.7,1.6; stroke-dashoffset: 0; stroke: #000000"/>
    </g>
    <g id="text_11">
     <!-- rendimenti SP 500 -->
     <g transform="translate(81.896314 289.666213) scale(0.12 -0.12)">
      <defs>
       <path id="CMR17-72" d="M 960 1517 
C 960 2134 1222 2713 1702 2713 
C 1747 2713 1792 2707 1837 2687 
C 1837 2687 1696 2642 1696 2475 
C 1696 2321 1818 2257 1914 2257 
C 1990 2257 2131 2302 2131 2482 
C 2131 2687 1926 2816 1709 2816 
C 1222 2816 1011 2340 947 2115 
L 941 2115 
L 941 2816 
L 198 2745 
L 198 2578 
C 576 2578 634 2540 634 2231 
L 634 443 
C 634 198 608 166 198 166 
L 198 0 
C 352 12 646 12 813 12 
C 998 12 1325 12 1498 0 
L 1498 166 
C 1037 166 960 166 960 455 
L 960 1517 
z
" transform="scale(0.015625)"/>
       <path id="CMR17-65" d="M 2438 1503 
C 2464 1529 2464 1542 2464 1606 
C 2464 2251 2118 2816 1389 2816 
C 710 2816 173 2175 173 1394 
C 173 554 781 -64 1459 -64 
C 2176 -64 2458 619 2458 755 
C 2458 800 2419 800 2406 800 
C 2362 800 2355 787 2330 709 
C 2189 270 1837 51 1504 51 
C 1229 51 954 206 781 490 
C 582 819 582 1200 582 1503 
L 2438 1503 
z
M 589 1600 
C 634 2511 1126 2713 1382 2713 
C 1818 2713 2112 2308 2118 1600 
L 589 1600 
z
" transform="scale(0.015625)"/>
       <path id="CMR17-6e" d="M 2656 1954 
C 2656 2282 2592 2816 1837 2816 
C 1331 2816 1069 2424 973 2166 
L 966 2166 
L 966 2816 
L 211 2745 
L 211 2578 
C 589 2578 646 2540 646 2231 
L 646 443 
C 646 198 621 166 211 166 
L 211 0 
C 365 12 646 12 813 12 
C 979 12 1267 12 1421 0 
L 1421 166 
C 1011 166 986 192 986 443 
L 986 1678 
C 986 2269 1344 2713 1792 2713 
C 2266 2713 2317 2289 2317 1980 
L 2317 443 
C 2317 198 2291 166 1882 166 
L 1882 0 
C 2035 12 2317 12 2483 12 
C 2650 12 2938 12 3091 0 
L 3091 166 
C 2682 166 2656 192 2656 443 
L 2656 1954 
z
" transform="scale(0.015625)"/>
       <path id="CMR17-64" d="M 1869 4345 
L 1869 4179 
C 2246 4179 2304 4141 2304 3843 
L 2304 2371 
C 2278 2403 2016 2816 1498 2816 
C 845 2816 211 2228 211 1376 
C 211 529 806 -64 1434 -64 
C 1978 -64 2259 361 2291 406 
L 2291 -64 
L 3066 -13 
L 3066 154 
C 2688 154 2630 193 2630 503 
L 2630 4416 
L 1869 4345 
z
M 2291 762 
C 2291 568 2176 393 2029 264 
C 1811 70 1594 38 1472 38 
C 1286 38 621 135 621 1369 
C 621 2636 1363 2713 1530 2713 
C 1824 2713 2061 2545 2208 2313 
C 2291 2177 2291 2157 2291 2041 
L 2291 762 
z
" transform="scale(0.015625)"/>
       <path id="CMR17-69" d="M 992 3961 
C 992 4102 877 4224 730 4224 
C 589 4224 467 4108 467 3961 
C 467 3820 582 3699 730 3699 
C 870 3699 992 3814 992 3961 
z
M 243 2745 
L 243 2579 
C 602 2579 653 2540 653 2231 
L 653 443 
C 653 198 627 166 218 166 
L 218 0 
C 371 12 646 12 806 12 
C 960 12 1222 12 1370 0 
L 1370 166 
C 992 166 979 205 979 436 
L 979 2816 
L 243 2745 
z
" transform="scale(0.015625)"/>
       <path id="CMR17-6d" d="M 4326 1954 
C 4326 2276 4269 2816 3507 2816 
C 3072 2816 2771 2520 2656 2173 
L 2650 2173 
C 2573 2700 2195 2816 1837 2816 
C 1331 2816 1069 2424 973 2166 
L 966 2166 
L 966 2816 
L 211 2745 
L 211 2578 
C 589 2578 646 2540 646 2231 
L 646 443 
C 646 198 621 166 211 166 
L 211 0 
C 365 12 646 12 813 12 
C 979 12 1267 12 1421 0 
L 1421 166 
C 1011 166 986 192 986 443 
L 986 1678 
C 986 2269 1344 2713 1792 2713 
C 2266 2713 2317 2289 2317 1980 
L 2317 443 
C 2317 198 2291 166 1882 166 
L 1882 0 
C 2035 12 2317 12 2483 12 
C 2650 12 2938 12 3091 0 
L 3091 166 
C 2682 166 2656 192 2656 443 
L 2656 1678 
C 2656 2269 3014 2713 3462 2713 
C 3936 2713 3987 2289 3987 1980 
L 3987 443 
C 3987 198 3962 166 3552 166 
L 3552 0 
C 3706 12 3987 12 4154 12 
C 4320 12 4608 12 4762 0 
L 4762 166 
C 4352 166 4326 192 4326 443 
L 4326 1954 
z
" transform="scale(0.015625)"/>
       <path id="CMR17-74" d="M 966 2585 
L 1862 2585 
L 1862 2752 
L 966 2752 
L 966 3968 
L 851 3968 
C 838 3292 614 2700 70 2687 
L 70 2585 
L 627 2585 
L 627 778 
C 627 655 627 -64 1370 -64 
C 1747 -64 1965 308 1965 784 
L 1965 1151 
L 1850 1151 
L 1850 790 
C 1850 347 1677 51 1408 51 
C 1222 51 966 179 966 765 
L 966 2585 
z
" transform="scale(0.015625)"/>
       <path id="CMR17-53" d="M 2803 4351 
C 2803 4467 2797 4473 2758 4473 
C 2720 4473 2707 4447 2682 4390 
L 2490 3965 
C 2246 4320 1875 4480 1472 4480 
C 819 4480 294 3958 294 3301 
C 294 3101 339 2817 557 2546 
C 794 2250 1018 2198 1530 2063 
C 1722 2011 2042 1927 2106 1901 
C 2470 1747 2662 1360 2662 999 
C 2662 534 2336 38 1779 38 
C 1094 38 454 425 410 1328 
C 403 1431 397 1437 352 1437 
C 301 1437 294 1431 294 1302 
L 294 0 
C 294 -116 301 -122 339 -122 
C 384 -122 397 -90 486 109 
C 493 128 493 141 614 386 
C 934 -39 1472 -128 1779 -128 
C 2477 -128 2970 457 2970 1141 
C 2970 1476 2848 1734 2778 1850 
C 2509 2263 2221 2340 1914 2417 
C 1869 2437 1856 2437 1498 2527 
C 1152 2617 1005 2662 845 2836 
C 666 3036 602 3243 602 3449 
C 602 3868 934 4326 1478 4326 
C 2157 4326 2579 3842 2675 3036 
C 2694 2920 2701 2914 2746 2914 
C 2803 2914 2803 2933 2803 3043 
L 2803 4351 
z
" transform="scale(0.015625)"/>
       <path id="CMR17-50" d="M 1267 2048 
L 2291 2048 
C 3117 2048 3718 2583 3718 3187 
C 3718 3791 3130 4352 2291 4352 
L 333 4352 
L 333 4185 
C 774 4185 845 4185 845 3899 
L 845 453 
C 845 166 774 166 333 166 
L 333 0 
C 518 12 858 12 1056 12 
C 1254 12 1594 12 1779 0 
L 1779 166 
C 1338 166 1267 166 1267 453 
L 1267 2048 
z
M 1254 2182 
L 1254 3937 
C 1254 4153 1267 4185 1523 4185 
L 2170 4185 
C 2995 4185 3232 3715 3232 3187 
C 3232 2608 2950 2182 2170 2182 
L 1254 2182 
z
" transform="scale(0.015625)"/>
       <path id="CMR17-35" d="M 730 3750 
C 794 3724 1056 3641 1325 3641 
C 1920 3641 2246 3961 2432 4140 
C 2432 4191 2432 4224 2394 4224 
C 2387 4224 2374 4224 2323 4198 
C 2099 4102 1837 4032 1517 4032 
C 1325 4032 1037 4055 723 4191 
C 653 4224 640 4224 634 4224 
C 602 4224 595 4217 595 4090 
L 595 2231 
C 595 2113 595 2080 659 2080 
C 691 2080 704 2093 736 2139 
C 941 2435 1222 2560 1542 2560 
C 1766 2560 2246 2415 2246 1293 
C 2246 1087 2246 716 2054 422 
C 1894 159 1645 25 1370 25 
C 947 25 518 319 403 812 
C 429 806 480 793 506 793 
C 589 793 749 838 749 1036 
C 749 1209 627 1280 506 1280 
C 358 1280 262 1190 262 1011 
C 262 454 704 -128 1382 -128 
C 2042 -128 2669 441 2669 1267 
C 2669 2054 2170 2662 1549 2662 
C 1222 2662 947 2540 730 2304 
L 730 3750 
z
" transform="scale(0.015625)"/>
      </defs>
      <use xlink:href="#CMR17-72" transform="scale(0.996264)"/>
      <use xlink:href="#CMR17-65" transform="translate(35.280768 0) scale(0.996264)"/>
      <use xlink:href="#CMR17-6e" transform="translate(75.766428 0) scale(0.996264)"/>
      <use xlink:href="#CMR17-64" transform="translate(126.661798 0) scale(0.996264)"/>
      <use xlink:href="#CMR17-69" transform="translate(177.557168 0) scale(0.996264)"/>
      <use xlink:href="#CMR17-6d" transform="translate(202.428226 0) scale(0.996264)"/>
      <use xlink:href="#CMR17-65" transform="translate(279.347816 0) scale(0.996264)"/>
      <use xlink:href="#CMR17-6e" transform="translate(319.833477 0) scale(0.996264)"/>
      <use xlink:href="#CMR17-74" transform="translate(368.126392 0) scale(0.996264)"/>
      <use xlink:href="#CMR17-69" transform="translate(403.40716 0) scale(0.996264)"/>
      <use xlink:href="#CMR17-53" transform="translate(458.354185 0) scale(0.996264)"/>
      <use xlink:href="#CMR17-50" transform="translate(509.249555 0) scale(0.996264)"/>
      <use xlink:href="#CMR17-35" transform="translate(601.911822 0) scale(0.996264)"/>
      <use xlink:href="#CMR17-30" transform="translate(647.602299 0) scale(0.996264)"/>
      <use xlink:href="#CMR17-30" transform="translate(693.292776 0) scale(0.996264)"/>
     </g>
    </g>
    <g id="line2d_100">
     <path d="M 48.296314 302.190808 
L 60.296314 302.190808 
L 72.296314 302.190808 
" style="fill: none; stroke: #800080; stroke-linecap: square"/>
    </g>
    <g id="text_12">
     <!-- forecast ANN -->
     <g transform="translate(81.896314 306.390808) scale(0.12 -0.12)">
      <defs>
       <path id="CMR17-66" d="M 979 2585 
L 1709 2585 
L 1709 2752 
L 966 2752 
L 966 3539 
C 966 4076 1235 4377 1510 4377 
C 1594 4377 1690 4363 1754 4339 
C 1702 4326 1568 4281 1568 4121 
C 1568 3955 1696 3904 1786 3904 
C 1875 3904 2003 3955 2003 4121 
C 2003 4353 1773 4480 1517 4480 
C 1152 4480 653 4211 653 3526 
L 653 2752 
L 141 2752 
L 141 2585 
L 653 2585 
L 653 441 
C 653 198 627 166 218 166 
L 218 0 
C 371 12 666 12 832 12 
C 1018 12 1344 12 1517 0 
L 1517 166 
C 1056 166 979 166 979 454 
L 979 2585 
z
" transform="scale(0.015625)"/>
       <path id="CMR17-6f" d="M 2758 1356 
C 2758 2176 2163 2816 1466 2816 
C 768 2816 173 2176 173 1356 
C 173 550 768 -64 1466 -64 
C 2163 -64 2758 550 2758 1356 
z
M 1466 51 
C 1165 51 909 230 762 480 
C 602 768 582 1126 582 1408 
C 582 1676 595 2009 762 2297 
C 890 2508 1139 2713 1466 2713 
C 1754 2713 1997 2553 2150 2329 
C 2349 2028 2349 1606 2349 1408 
C 2349 1158 2336 774 2163 467 
C 1984 172 1709 51 1466 51 
z
" transform="scale(0.015625)"/>
       <path id="CMR17-63" d="M 2234 2240 
C 2112 2240 1933 2240 1933 2015 
C 1933 1836 2080 1785 2163 1785 
C 2208 1785 2394 1804 2394 2028 
C 2394 2476 1958 2816 1466 2816 
C 787 2816 211 2201 211 1379 
C 211 521 813 -64 1466 -64 
C 2259 -64 2458 676 2458 747 
C 2458 773 2451 792 2406 792 
C 2362 792 2355 786 2330 702 
C 2163 180 1798 51 1523 51 
C 1114 51 621 431 621 1385 
C 621 2358 1094 2700 1472 2700 
C 1722 2700 2093 2582 2234 2240 
z
" transform="scale(0.015625)"/>
       <path id="CMR17-61" d="M 2304 1656 
C 2304 2048 2304 2275 2035 2534 
C 1798 2751 1523 2816 1306 2816 
C 800 2816 435 2408 435 1977 
C 435 1740 627 1728 666 1728 
C 749 1728 896 1779 896 1958 
C 896 2118 774 2188 666 2188 
C 640 2188 608 2182 589 2176 
C 723 2594 1069 2713 1293 2713 
C 1613 2713 1965 2421 1965 1875 
L 1965 1632 
C 1587 1619 1133 1568 774 1373 
C 371 1147 256 822 256 576 
C 256 77 832 -64 1171 -64 
C 1523 -64 1850 135 1990 505 
C 2003 219 2182 -39 2464 -39 
C 2598 -39 2938 51 2938 563 
L 2938 926 
L 2822 926 
L 2822 557 
C 2822 161 2650 109 2566 109 
C 2304 109 2304 446 2304 732 
L 2304 1656 
z
M 1965 887 
C 1965 323 1568 38 1216 38 
C 896 38 646 278 646 576 
C 646 771 730 1114 1101 1322 
C 1408 1497 1760 1523 1965 1536 
L 1965 887 
z
" transform="scale(0.015625)"/>
       <path id="CMR17-73" d="M 1978 2688 
C 1978 2803 1971 2809 1933 2809 
C 1907 2809 1901 2803 1824 2707 
C 1805 2681 1747 2617 1728 2592 
C 1523 2809 1235 2816 1126 2816 
C 416 2816 160 2444 160 2073 
C 160 1497 813 1363 998 1324 
C 1402 1241 1542 1216 1677 1100 
C 1760 1024 1901 883 1901 652 
C 1901 384 1747 38 1158 38 
C 602 38 403 460 288 1024 
C 269 1113 269 1120 218 1120 
C 166 1120 160 1113 160 985 
L 160 64 
C 160 -52 166 -58 205 -58 
C 237 -58 243 -52 275 0 
C 314 57 410 211 448 275 
C 576 102 800 -64 1158 -64 
C 1792 -64 2131 281 2131 780 
C 2131 1107 1958 1280 1875 1356 
C 1683 1555 1459 1600 1190 1651 
C 838 1728 390 1817 390 2208 
C 390 2374 480 2726 1126 2726 
C 1811 2726 1850 2086 1862 1881 
C 1869 1849 1901 1843 1920 1843 
C 1978 1843 1978 1862 1978 1971 
L 1978 2688 
z
" transform="scale(0.015625)"/>
       <path id="CMR17-41" d="M 2323 4441 
C 2291 4524 2278 4544 2214 4544 
C 2150 4544 2138 4524 2106 4441 
L 749 580 
C 627 236 371 166 147 166 
L 147 0 
C 262 12 518 12 640 12 
C 800 12 1056 12 1210 0 
L 1210 166 
C 909 179 864 382 864 459 
C 864 516 877 548 890 586 
L 1229 1536 
L 2906 1536 
L 3290 453 
C 3322 376 3322 363 3322 338 
C 3322 166 3046 166 2925 166 
L 2925 0 
C 3110 12 3443 12 3642 12 
C 3808 12 4128 12 4282 0 
L 4282 166 
C 3942 166 3827 166 3744 402 
L 2323 4441 
z
M 2067 3924 
L 2848 1702 
L 1286 1702 
L 2067 3924 
z
" transform="scale(0.015625)"/>
       <path id="CMR17-4e" d="M 1312 4275 
C 1267 4345 1261 4352 1139 4352 
L 326 4352 
L 326 4185 
L 448 4185 
C 704 4185 819 4153 838 4147 
L 838 624 
C 838 465 838 166 326 166 
L 326 0 
C 474 12 742 12 902 12 
C 1062 12 1331 12 1478 0 
L 1478 166 
C 966 166 966 465 966 624 
L 966 4057 
C 1011 4019 1011 4007 1056 3943 
L 3430 76 
C 3475 0 3494 0 3526 0 
C 3590 0 3590 19 3590 140 
L 3590 3726 
C 3590 3885 3590 4185 4102 4185 
L 4102 4352 
C 3955 4339 3686 4339 3526 4339 
C 3366 4339 3098 4339 2950 4352 
L 2950 4185 
C 3462 4185 3462 3885 3462 3726 
L 3462 777 
L 1312 4275 
z
" transform="scale(0.015625)"/>
      </defs>
      <use xlink:href="#CMR17-66" transform="scale(0.996264)"/>
      <use xlink:href="#CMR17-6f" transform="translate(27.473512 0) scale(0.996264)"/>
      <use xlink:href="#CMR17-72" transform="translate(73.16399 0) scale(0.996264)"/>
      <use xlink:href="#CMR17-65" transform="translate(108.444757 0) scale(0.996264)"/>
      <use xlink:href="#CMR17-63" transform="translate(148.930418 0) scale(0.996264)"/>
      <use xlink:href="#CMR17-61" transform="translate(189.416078 0) scale(0.996264)"/>
      <use xlink:href="#CMR17-73" transform="translate(235.106555 0) scale(0.996264)"/>
      <use xlink:href="#CMR17-74" transform="translate(270.907893 0) scale(0.996264)"/>
      <use xlink:href="#CMR17-41" transform="translate(336.264627 0) scale(0.996264)"/>
      <use xlink:href="#CMR17-4e" transform="translate(405.337057 0) scale(0.996264)"/>
      <use xlink:href="#CMR17-4e" transform="translate(474.409487 0) scale(0.996264)"/>
     </g>
    </g>
    <g id="patch_7">
     <path d="M 48.296314 323.115404 
L 72.296314 323.115404 
L 72.296314 314.715404 
L 48.296314 314.715404 
z
" style="fill: #808080; fill-opacity: 0.3; stroke: #808080; stroke-opacity: 0.3; stroke-linejoin: miter"/>
    </g>
    <g id="text_13">
     <!-- 99 perc. CI -->
     <g transform="translate(81.896314 323.115404) scale(0.12 -0.12)">
      <defs>
       <path id="CMR17-39" d="M 2253 1871 
C 2253 448 1670 25 1190 25 
C 1043 25 685 43 538 281 
C 704 256 826 345 826 505 
C 826 678 685 736 595 736 
C 538 736 365 710 365 492 
C 365 68 742 -128 1203 -128 
C 1939 -128 2688 665 2688 2090 
C 2688 3857 1971 4224 1485 4224 
C 851 4224 243 3664 243 2800 
C 243 2000 762 1408 1414 1408 
C 1952 1408 2189 1910 2253 2122 
L 2253 1871 
z
M 1427 1510 
C 1254 1510 1011 1542 813 1929 
C 678 2181 678 2477 678 2793 
C 678 3174 678 3438 858 3722 
C 947 3857 1114 4076 1485 4076 
C 2240 4076 2240 2909 2240 2651 
C 2240 2193 2035 1510 1427 1510 
z
" transform="scale(0.015625)"/>
       <path id="CMR17-70" d="M 1408 -1114 
C 998 -1114 973 -1088 973 -834 
L 973 380 
C 1158 109 1427 -64 1766 -64 
C 2406 -64 3053 503 3053 1382 
C 3053 2196 2496 2816 1837 2816 
C 1453 2816 1139 2603 960 2345 
L 960 2816 
L 198 2745 
L 198 2577 
C 576 2577 634 2539 634 2228 
L 634 -834 
C 634 -1081 608 -1114 198 -1114 
L 198 -1280 
C 352 -1268 634 -1268 800 -1268 
C 966 -1268 1254 -1268 1408 -1280 
L 1408 -1114 
z
M 973 2015 
C 973 2106 973 2241 1222 2481 
C 1254 2506 1472 2700 1792 2700 
C 2259 2700 2643 2112 2643 1376 
C 2643 639 2234 38 1728 38 
C 1498 38 1248 148 1056 451 
C 973 594 973 632 973 736 
L 973 2015 
z
" transform="scale(0.015625)"/>
       <path id="CMR17-2e" d="M 1062 262 
C 1062 422 934 524 800 524 
C 672 524 538 422 538 262 
C 538 102 666 0 800 0 
C 928 0 1062 102 1062 262 
z
" transform="scale(0.015625)"/>
       <path id="CMR17-43" d="M 3974 4351 
C 3974 4467 3968 4473 3930 4473 
C 3904 4473 3898 4467 3853 4390 
L 3571 3849 
C 3258 4249 2874 4480 2381 4480 
C 1286 4480 294 3507 294 2179 
C 294 837 1286 -128 2387 -128 
C 3366 -128 3974 741 3974 1482 
C 3974 1547 3974 1573 3917 1573 
C 3866 1573 3866 1553 3859 1495 
C 3808 592 3168 38 2477 38 
C 1824 38 781 502 781 2179 
C 781 3862 1843 4313 2464 4313 
C 3187 4313 3712 3681 3834 2785 
C 3846 2707 3846 2695 3904 2695 
C 3974 2695 3974 2707 3974 2824 
L 3974 4351 
z
" transform="scale(0.015625)"/>
       <path id="CMR17-49" d="M 1261 3898 
C 1261 4185 1338 4185 1798 4185 
L 1798 4352 
C 1594 4339 1267 4339 1050 4339 
C 832 4339 506 4339 301 4352 
L 301 4185 
C 762 4185 838 4185 838 3898 
L 838 453 
C 838 166 762 166 301 166 
L 301 0 
C 506 12 832 12 1050 12 
C 1267 12 1594 12 1798 0 
L 1798 166 
C 1338 166 1261 166 1261 453 
L 1261 3898 
z
" transform="scale(0.015625)"/>
      </defs>
      <use xlink:href="#CMR17-39" transform="scale(0.996264)"/>
      <use xlink:href="#CMR17-39" transform="translate(45.690477 0) scale(0.996264)"/>
      <use xlink:href="#CMR17-70" transform="translate(121.456921 0) scale(0.996264)"/>
      <use xlink:href="#CMR17-65" transform="translate(174.954729 0) scale(0.996264)"/>
      <use xlink:href="#CMR17-72" transform="translate(215.44039 0) scale(0.996264)"/>
      <use xlink:href="#CMR17-63" transform="translate(250.721157 0) scale(0.996264)"/>
      <use xlink:href="#CMR17-2e" transform="translate(291.206818 0) scale(0.996264)"/>
      <use xlink:href="#CMR17-43" transform="translate(356.563537 0) scale(0.996264)"/>
      <use xlink:href="#CMR17-49" transform="translate(423.073417 0) scale(0.996264)"/>
     </g>
    </g>
   </g>
  </g>
 </g>
 <defs>
  <clipPath id="p0f29ddcd4f">
   <rect x="37.496314" y="3.6" width="558" height="332.64"/>
  </clipPath>
 </defs>
</svg>
