<?xml version="1.0" encoding="utf-8" standalone="no"?>
<!DOCTYPE svg PUBLIC "-//W3C//DTD SVG 1.1//EN"
  "http://www.w3.org/Graphics/SVG/1.1/DTD/svg11.dtd">
<svg xmlns:xlink="http://www.w3.org/1999/xlink" width="599.096314pt" height="359.281364pt" viewBox="0 0 599.096314 359.281364" xmlns="http://www.w3.org/2000/svg" version="1.1">
 <metadata>
  <rdf:RDF xmlns:dc="http://purl.org/dc/elements/1.1/" xmlns:cc="http://creativecommons.org/ns#" xmlns:rdf="http://www.w3.org/1999/02/22-rdf-syntax-ns#">
   <cc:Work>
    <dc:type rdf:resource="http://purl.org/dc/dcmitype/StillImage"/>
    <dc:date>2025-03-20T12:36:37.135070</dc:date>
    <dc:format>image/svg+xml</dc:format>
    <dc:creator>
     <cc:Agent>
      <dc:title>Matplotlib v3.9.2, https://matplotlib.org/</dc:title>
     </cc:Agent>
    </dc:creator>
   </cc:Work>
  </rdf:RDF>
 </metadata>
 <defs>
  <style type="text/css">*{stroke-linejoin: round; stroke-linecap: butt}</style>
 </defs>
 <g id="figure_1">
  <g id="patch_1">
   <path d="M 0 359.281364 
L 599.096314 359.281364 
L 599.096314 0 
L 0 0 
z
" style="fill: #ffffff"/>
  </g>
  <g id="axes_1">
   <g id="patch_2">
    <path d="M 37.496314 336.24 
L 595.496314 336.24 
L 595.496314 3.6 
L 37.496314 3.6 
z
" style="fill: #ffffff"/>
   </g>
   <g id="PolyCollection_1">
    <defs>
     <path id="mf3691c859e" d="M 62.85995 -304.736035 
L 62.85995 -177.413816 
L 64.74527 -173.894851 
L 66.569773 -167.546608 
L 68.455093 -171.615257 
L 70.279597 -191.920745 
L 72.164917 -178.490402 
L 74.050237 -169.96948 
L 75.87474 -175.52444 
L 77.76006 -154.106626 
L 79.584563 -177.810026 
L 81.469883 -175.99647 
L 83.355203 -164.346029 
L 85.058073 -166.320068 
L 86.943393 -163.841251 
L 88.767896 -168.478643 
L 90.653216 -162.87614 
L 92.47772 -163.435101 
L 94.36304 -164.110839 
L 96.24836 -155.049578 
L 98.072863 -176.298042 
L 99.958183 -167.794164 
L 101.782686 -166.362766 
L 103.668006 -179.528358 
L 105.553327 -168.207894 
L 107.256196 -166.693679 
L 109.141516 -160.698222 
L 110.96602 -170.720568 
L 112.85134 -170.00497 
L 114.675843 -182.172065 
L 116.561163 -182.050386 
L 118.446483 -153.971243 
L 120.270986 -160.179901 
L 122.156306 -175.678389 
L 123.98081 -169.409439 
L 125.86613 -168.897364 
L 127.75145 -172.277642 
L 129.515136 -179.876098 
L 131.400456 -172.371427 
L 133.22496 -173.518757 
L 135.11028 -162.269432 
L 136.934783 -161.631075 
L 138.820103 -174.131889 
L 140.705423 -171.977706 
L 142.529926 -173.440905 
L 144.415246 -178.392513 
L 146.23975 -170.997295 
L 148.12507 -177.158395 
L 150.01039 -174.786258 
L 151.713259 -168.807118 
L 153.598579 -174.111943 
L 155.423083 -164.592913 
L 157.308403 -170.194914 
L 159.132906 -176.608826 
L 161.018226 -177.053342 
L 162.903546 -169.663044 
L 164.728049 -169.711496 
L 166.613369 -172.220723 
L 168.437873 -164.384353 
L 170.323193 -175.605884 
L 172.208513 -175.579067 
L 173.911383 -174.003035 
L 175.796703 -168.227136 
L 177.621206 -170.18559 
L 179.506526 -167.437398 
L 181.331029 -168.819292 
L 183.216349 -167.833494 
L 185.101669 -171.540143 
L 186.926173 -177.770237 
L 188.811493 -177.595829 
L 190.635996 -176.524113 
L 192.521316 -176.424052 
L 194.406636 -175.103539 
L 196.109506 -168.472225 
L 197.994826 -174.436333 
L 199.819329 -171.180937 
L 201.704649 -175.236773 
L 203.529152 -175.834776 
L 205.414472 -166.718149 
L 207.299792 -174.579691 
L 209.124296 -173.628821 
L 211.009616 -178.794697 
L 212.834119 -175.075845 
L 214.719439 -175.067193 
L 216.604759 -172.282203 
L 218.368446 -173.788082 
L 220.253766 -168.386027 
L 222.078269 -173.486441 
L 223.963589 -169.743198 
L 225.788092 -168.685549 
L 227.673412 -164.280397 
L 229.558732 -166.453668 
L 231.383236 -173.201335 
L 233.268556 -170.121089 
L 235.093059 -159.274308 
L 236.978379 -51.83761 
L 238.863699 -170.93345 
L 240.566569 -119.513434 
L 242.451889 -99.054181 
L 244.276392 -147.66145 
L 246.161712 -171.957873 
L 247.986216 -139.04235 
L 249.871536 -185.28838 
L 251.756856 -170.538325 
L 253.581359 -171.701574 
L 255.466679 -172.489969 
L 257.291182 -194.314464 
L 259.176502 -208.557411 
L 261.061822 -195.602033 
L 262.764692 -152.862416 
L 264.650012 -166.260506 
L 266.474515 -176.550695 
L 268.359835 -171.022352 
L 270.184339 -166.59638 
L 272.069659 -166.395472 
L 273.954979 -170.698463 
L 275.779482 -177.020327 
L 277.664802 -171.07901 
L 279.489305 -178.289649 
L 281.374625 -162.24562 
L 283.259946 -160.923505 
L 284.962815 -177.019394 
L 286.848135 -167.610729 
L 288.672639 -170.867661 
L 290.557959 -169.82302 
L 292.382462 -175.990321 
L 294.267782 -165.478736 
L 296.153102 -173.137335 
L 297.977605 -167.492297 
L 299.862925 -173.526884 
L 301.687429 -161.873368 
L 303.572749 -177.523026 
L 305.458069 -170.600925 
L 307.221755 -177.031129 
L 309.107075 -174.382882 
L 310.931579 -161.940585 
L 312.816899 -174.204411 
L 314.641402 -172.608351 
L 316.526722 -173.390329 
L 318.412042 -175.594811 
L 320.236545 -163.4268 
L 322.121865 -174.289638 
L 323.946369 -165.160165 
L 325.831689 -166.872941 
L 327.717009 -168.379814 
L 329.419878 -165.677167 
L 331.305198 -171.867992 
L 333.129702 -172.90197 
L 335.015022 -177.104436 
L 336.839525 -167.010286 
L 338.724845 -155.925919 
L 340.610165 -174.093277 
L 342.434668 -168.496949 
L 344.319988 -169.169806 
L 346.144492 -176.052277 
L 348.029812 -168.476458 
L 349.915132 -165.290584 
L 351.618002 -170.562507 
L 353.503322 -172.035045 
L 355.327825 -171.730998 
L 357.213145 -168.212181 
L 359.037648 -174.850607 
L 360.922968 -170.922839 
L 362.808288 -173.002322 
L 364.632792 -171.243571 
L 366.518112 -167.504235 
L 368.342615 -171.202631 
L 370.227935 -175.103017 
L 372.113255 -174.527757 
L 373.816125 -177.592086 
L 375.701445 -166.311884 
L 377.525948 -167.222404 
L 379.411268 -173.750443 
L 381.235771 -160.883585 
L 383.121091 -168.953675 
L 385.006411 -171.178393 
L 386.830915 -170.107544 
L 388.716235 -160.801524 
L 390.540738 -179.067981 
L 392.426058 -164.52849 
L 394.311378 -169.141972 
L 396.075065 -161.975975 
L 397.960385 -178.685902 
L 399.784888 -170.983917 
L 401.670208 -177.450061 
L 403.494711 -167.097307 
L 405.380031 -176.723555 
L 407.265351 -180.515813 
L 409.089855 -165.024767 
L 410.975175 -164.54741 
L 412.799678 -164.558108 
L 414.684998 -163.122162 
L 416.570318 -172.101774 
L 418.273188 -173.676809 
L 420.158508 -172.001833 
L 421.983011 -168.423018 
L 423.868331 -173.283667 
L 425.692835 -170.956057 
L 427.578155 -175.546073 
L 429.463475 -165.302519 
L 431.287978 -172.843397 
L 433.173298 -171.684786 
L 434.997801 -167.372023 
L 436.883121 -171.9188 
L 438.768441 -171.916072 
L 440.471311 -171.02513 
L 442.356631 -160.693166 
L 444.181134 -172.245361 
L 446.066454 -166.531431 
L 447.890958 -171.155805 
L 449.776278 -174.38444 
L 451.661598 -171.715651 
L 453.486101 -172.859479 
L 455.371421 -168.632247 
L 457.195924 -161.343794 
L 459.081244 -167.774792 
L 460.966565 -167.264521 
L 462.669434 -175.910214 
L 464.554754 -181.007341 
L 466.379258 -175.838774 
L 468.264578 -177.164769 
L 470.089081 -171.180922 
L 471.974401 -182.418788 
L 473.859721 -189.462726 
L 475.684224 -164.703048 
L 477.569544 -173.389707 
L 479.394048 -168.441556 
L 481.279368 -172.621825 
L 483.164688 -171.814826 
L 484.928374 -175.794183 
L 486.813694 -174.102202 
L 488.638198 -155.382308 
L 490.523518 -186.461335 
L 492.348021 -171.914371 
L 494.233341 -171.248446 
L 496.118661 -179.567165 
L 497.943164 -174.506908 
L 499.828484 -163.063286 
L 501.652988 -163.950685 
L 503.538308 -173.902078 
L 505.423628 -173.896744 
L 507.126497 -168.267574 
L 509.011817 -171.443532 
L 510.836321 -166.276669 
L 512.721641 -178.094714 
L 514.546144 -170.255628 
L 516.431464 -173.757468 
L 518.316784 -178.492118 
L 520.141287 -172.559459 
L 522.026607 -164.32406 
L 523.851111 -168.115002 
L 525.736431 -176.972275 
L 527.621751 -170.67167 
L 529.324621 -163.51999 
L 531.209941 -166.284297 
L 533.034444 -166.461166 
L 534.919764 -164.039122 
L 536.744267 -161.760393 
L 538.629587 -164.40798 
L 540.514907 -171.871152 
L 542.339411 -178.709466 
L 544.224731 -150.445383 
L 546.049234 -162.960883 
L 547.934554 -178.552127 
L 549.819874 -169.838513 
L 551.522744 -172.499853 
L 553.408064 -167.427788 
L 555.232567 -165.957312 
L 557.117887 -178.226344 
L 558.94239 -164.42902 
L 560.82771 -172.469745 
L 562.71303 -171.764693 
L 564.537534 -161.325071 
L 566.422854 -164.615154 
L 568.247357 -161.055604 
L 570.132677 -178.533543 
L 570.132677 -313.731163 
L 570.132677 -313.731163 
L 568.247357 -296.177234 
L 566.422854 -299.74902 
L 564.537534 -296.531479 
L 562.71303 -307.020507 
L 560.82771 -307.750222 
L 558.94239 -299.641921 
L 557.117887 -313.502717 
L 555.232567 -301.225931 
L 553.408064 -302.710549 
L 551.522744 -307.827918 
L 549.819874 -305.23597 
L 547.934554 -314.001918 
L 546.049234 -298.316941 
L 544.224731 -285.855362 
L 542.339411 -313.636613 
L 540.514907 -306.703174 
L 538.629587 -299.323351 
L 536.744267 -296.681617 
L 534.919764 -298.617443 
L 533.034444 -301.111804 
L 531.209941 -300.994149 
L 529.324621 -298.261098 
L 527.621751 -305.431347 
L 525.736431 -311.79125 
L 523.851111 -302.899132 
L 522.026607 -299.172236 
L 520.141287 -307.471503 
L 518.316784 -313.475785 
L 516.431464 -308.791588 
L 514.546144 -305.355188 
L 512.721641 -313.261167 
L 510.836321 -301.335891 
L 509.011817 -306.57658 
L 507.126497 -303.447859 
L 505.423628 -309.13521 
L 503.538308 -308.432577 
L 501.652988 -298.470506 
L 499.828484 -297.637315 
L 497.943164 -309.130927 
L 496.118661 -314.900335 
L 494.233341 -306.609885 
L 492.348021 -306.428322 
L 490.523518 -320.925242 
L 488.638198 -289.728233 
L 486.813694 -305.609205 
L 484.928374 -307.358875 
L 483.164688 -303.417241 
L 481.279368 -304.275552 
L 479.394048 -300.065163 
L 477.569544 -305.089771 
L 475.684224 -296.400294 
L 473.859721 -320.979826 
L 471.974401 -313.986436 
L 470.089081 -302.829848 
L 468.264578 -308.819232 
L 466.379258 -307.531753 
L 464.554754 -312.77494 
L 462.669434 -307.636864 
L 460.966565 -299.042552 
L 459.081244 -299.401425 
L 457.195924 -293.030541 
L 455.371421 -300.254226 
L 453.486101 -304.551797 
L 451.661598 -303.464532 
L 449.776278 -306.204917 
L 447.890958 -303.03249 
L 446.066454 -298.45208 
L 444.181134 -304.204217 
L 442.356631 -292.734858 
L 440.471311 -303.044162 
L 438.768441 -303.906643 
L 436.883121 -303.963785 
L 434.997801 -299.476937 
L 433.173298 -303.840993 
L 431.287978 -305.068839 
L 429.463475 -297.609045 
L 427.578155 -307.931084 
L 425.692835 -303.39887 
L 423.868331 -306.456325 
L 421.983011 -301.673701 
L 420.158508 -305.319851 
L 418.273188 -307.053152 
L 416.570318 -305.542399 
L 414.684998 -295.874276 
L 412.799678 -297.380437 
L 410.975175 -297.444842 
L 409.089855 -298.009304 
L 407.265351 -313.578861 
L 405.380031 -309.8423 
L 403.494711 -300.27842 
L 401.670208 -310.683187 
L 399.784888 -304.25818 
L 397.960385 -312.574025 
L 396.075065 -295.94294 
L 394.311378 -302.170087 
L 392.426058 -298.287997 
L 390.540738 -312.904394 
L 388.716235 -294.553629 
L 386.830915 -303.739302 
L 385.006411 -304.822526 
L 383.121091 -302.676906 
L 381.235771 -294.695883 
L 379.411268 -307.64133 
L 377.525948 -301.191152 
L 375.701445 -300.368259 
L 373.816125 -311.716963 
L 372.113255 -308.692109 
L 370.227935 -309.345125 
L 368.342615 -305.382993 
L 366.518112 -301.709086 
L 364.632792 -305.518558 
L 362.808288 -307.339835 
L 360.922968 -305.331391 
L 359.037648 -309.312593 
L 357.213145 -302.743797 
L 355.327825 -306.343096 
L 353.503322 -306.705911 
L 351.618002 -305.30872 
L 349.915132 -300.112767 
L 348.029812 -303.363727 
L 346.144492 -310.989747 
L 344.319988 -304.174273 
L 342.434668 -303.575315 
L 340.610165 -309.246732 
L 338.724845 -291.029339 
L 336.839525 -302.187271 
L 335.015022 -312.311723 
L 333.129702 -308.188058 
L 331.305198 -307.215359 
L 329.419878 -301.096329 
L 327.717009 -303.770926 
L 325.831689 -302.328314 
L 323.946369 -300.62896 
L 322.121865 -309.82183 
L 320.236545 -298.984666 
L 318.412042 -311.210269 
L 316.526722 -309.096319 
L 314.641402 -308.330344 
L 312.816899 -309.89567 
L 310.931579 -297.716623 
L 309.107075 -310.227374 
L 307.221755 -312.901953 
L 305.458069 -306.477446 
L 303.572749 -313.477854 
L 301.687429 -297.881302 
L 299.862925 -309.598187 
L 297.977605 -303.638968 
L 296.153102 -308.28703 
L 294.267782 -300.652042 
L 292.382462 -311.043547 
L 290.557959 -304.962803 
L 288.672639 -306.070575 
L 286.848135 -302.853888 
L 284.962815 -312.332362 
L 283.259946 -296.230874 
L 281.374625 -297.534898 
L 279.489305 -313.673654 
L 277.664802 -306.454383 
L 275.779482 -312.439662 
L 273.954979 -306.217073 
L 272.069659 -301.997978 
L 270.184339 -302.181929 
L 268.359835 -306.330936 
L 266.474515 -311.895434 
L 264.650012 -301.473027 
L 262.764692 -283.580098 
L 261.061822 -327.60117 
L 259.176502 -340.561364 
L 257.291182 -326.333277 
L 255.466679 -305.888744 
L 253.581359 -305.102526 
L 251.756856 -303.702049 
L 249.871536 -318.518963 
L 247.986216 -272.247795 
L 246.161712 -305.09412 
L 244.276392 -276.321661 
L 242.451889 -229.410959 
L 240.566569 -249.813485 
L 238.863699 -304.174441 
L 236.978379 -185.782813 
L 235.093059 -294.242637 
L 233.268556 -300.512072 
L 231.383236 -303.449732 
L 229.558732 -296.714729 
L 227.673412 -294.348647 
L 225.788092 -298.426512 
L 223.963589 -299.575404 
L 222.078269 -303.325903 
L 220.253766 -298.263567 
L 218.368446 -303.865894 
L 216.604759 -301.734014 
L 214.719439 -304.615373 
L 212.834119 -304.390222 
L 211.009616 -308.168098 
L 209.124296 -303.058569 
L 207.299792 -304.058693 
L 205.414472 -296.084785 
L 203.529152 -305.295555 
L 201.704649 -304.730395 
L 199.819329 -300.713232 
L 197.994826 -303.949439 
L 196.109506 -298.063092 
L 194.406636 -305.483475 
L 192.521316 -306.871995 
L 190.635996 -307.043737 
L 188.811493 -308.149002 
L 186.926173 -308.410532 
L 185.101669 -302.262953 
L 183.216349 -298.641005 
L 181.331029 -299.561113 
L 179.506526 -298.294487 
L 177.621206 -301.129902 
L 175.796703 -298.69456 
L 173.911383 -303.831524 
L 172.208513 -305.498434 
L 170.323193 -305.609403 
L 168.437873 -293.123734 
L 166.613369 -302.178635 
L 164.728049 -299.762292 
L 162.903546 -299.80151 
L 161.018226 -307.310999 
L 159.132906 -306.948048 
L 157.308403 -300.614321 
L 155.423083 -295.060125 
L 153.598579 -304.656797 
L 151.713259 -299.42842 
L 150.01039 -305.448626 
L 148.12507 -307.902114 
L 146.23975 -301.709743 
L 144.415246 -309.181861 
L 142.529926 -304.292851 
L 140.705423 -302.87858 
L 138.820103 -305.026776 
L 136.934783 -292.531974 
L 135.11028 -293.893741 
L 133.22496 -304.567795 
L 131.400456 -303.455091 
L 129.515136 -311.715371 
L 127.75145 -304.087923 
L 125.86613 -300.745311 
L 123.98081 -300.677422 
L 122.156306 -307.024471 
L 120.270986 -291.491988 
L 118.446483 -285.37613 
L 116.561163 -313.532833 
L 114.675843 -313.648649 
L 112.85134 -301.387909 
L 110.96602 -302.030363 
L 109.141516 -292.056914 
L 107.256196 -297.743078 
L 105.553327 -299.345104 
L 103.668006 -310.69455 
L 101.782686 -297.303878 
L 99.958183 -298.825041 
L 98.072863 -307.101699 
L 96.24836 -285.867747 
L 94.36304 -294.028701 
L 92.47772 -293.755152 
L 90.653216 -293.2344 
L 88.767896 -298.809454 
L 86.943393 -293.448392 
L 85.058073 -295.902236 
L 83.355203 -294.015761 
L 81.469883 -305.750866 
L 79.584563 -307.559008 
L 77.76006 -283.800043 
L 75.87474 -303.90298 
L 74.050237 -298.385172 
L 72.164917 -306.905613 
L 70.279597 -320.217677 
L 68.455093 -299.689009 
L 66.569773 -295.727093 
L 64.74527 -301.224082 
L 62.85995 -304.736035 
z
" style="stroke: #808080; stroke-opacity: 0.3"/>
    </defs>
    <g clip-path="url(#p56112739fb)">
     <use xlink:href="#mf3691c859e" x="0" y="359.281364" style="fill: #808080; fill-opacity: 0.3; stroke: #808080; stroke-opacity: 0.3"/>
    </g>
   </g>
   <g id="matplotlib.axis_1">
    <g id="xtick_1">
     <g id="line2d_1">
      <defs>
       <path id="mdd638c1fed" d="M 0 0 
L 0 -3 
" style="stroke: #000000; stroke-width: 0.5"/>
      </defs>
      <g>
       <use xlink:href="#mdd638c1fed" x="125.926946" y="336.24" style="stroke: #000000; stroke-width: 0.5"/>
      </g>
     </g>
     <g id="line2d_2">
      <defs>
       <path id="mce107a3816" d="M 0 0 
L 0 3 
" style="stroke: #000000; stroke-width: 0.5"/>
      </defs>
      <g>
       <use xlink:href="#mce107a3816" x="125.926946" y="3.6" style="stroke: #000000; stroke-width: 0.5"/>
      </g>
     </g>
     <g id="text_1">
      <!-- $\mathdefault{2004}$ -->
      <g transform="translate(109.478375 352.1933) scale(0.18 -0.18)">
       <defs>
        <path id="CMR17-32" d="M 2669 990 
L 2554 990 
C 2490 537 2438 460 2413 422 
C 2381 371 1920 371 1830 371 
L 602 371 
C 832 620 1280 1073 1824 1596 
C 2214 1966 2669 2400 2669 3033 
C 2669 3788 2067 4224 1395 4224 
C 691 4224 262 3603 262 3027 
C 262 2777 448 2745 525 2745 
C 589 2745 781 2783 781 3007 
C 781 3206 614 3264 525 3264 
C 486 3264 448 3257 422 3244 
C 544 3788 915 4057 1306 4057 
C 1862 4057 2227 3616 2227 3033 
C 2227 2477 1901 1998 1536 1583 
L 262 147 
L 262 0 
L 2515 0 
L 2669 990 
z
" transform="scale(0.015625)"/>
        <path id="CMR17-30" d="M 2688 2038 
C 2688 2430 2682 3099 2413 3613 
C 2176 4063 1798 4224 1466 4224 
C 1158 4224 768 4082 525 3620 
C 269 3137 243 2539 243 2038 
C 243 1671 250 1112 448 623 
C 723 -39 1216 -128 1466 -128 
C 1760 -128 2208 -7 2470 604 
C 2662 1048 2688 1568 2688 2038 
z
M 1466 -26 
C 1056 -26 813 328 723 816 
C 653 1196 653 1749 653 2109 
C 653 2604 653 3015 736 3407 
C 858 3954 1216 4121 1466 4121 
C 1728 4121 2067 3947 2189 3420 
C 2272 3054 2278 2623 2278 2109 
C 2278 1691 2278 1176 2202 797 
C 2067 96 1690 -26 1466 -26 
z
" transform="scale(0.015625)"/>
        <path id="CMR17-34" d="M 2150 4147 
C 2150 4281 2144 4288 2029 4288 
L 128 1254 
L 128 1088 
L 1779 1088 
L 1779 460 
C 1779 230 1766 166 1318 166 
L 1197 166 
L 1197 0 
C 1402 12 1747 12 1965 12 
C 2182 12 2528 12 2733 0 
L 2733 166 
L 2611 166 
C 2163 166 2150 230 2150 460 
L 2150 1088 
L 2803 1088 
L 2803 1254 
L 2150 1254 
L 2150 4147 
z
M 1798 3723 
L 1798 1254 
L 256 1254 
L 1798 3723 
z
" transform="scale(0.015625)"/>
       </defs>
       <use xlink:href="#CMR17-32" transform="scale(0.996264)"/>
       <use xlink:href="#CMR17-30" transform="translate(45.690477 0) scale(0.996264)"/>
       <use xlink:href="#CMR17-30" transform="translate(91.380954 0) scale(0.996264)"/>
       <use xlink:href="#CMR17-34" transform="translate(137.071431 0) scale(0.996264)"/>
      </g>
     </g>
    </g>
    <g id="xtick_2">
     <g id="line2d_3">
      <g>
       <use xlink:href="#mdd638c1fed" x="214.780256" y="336.24" style="stroke: #000000; stroke-width: 0.5"/>
      </g>
     </g>
     <g id="line2d_4">
      <g>
       <use xlink:href="#mce107a3816" x="214.780256" y="3.6" style="stroke: #000000; stroke-width: 0.5"/>
      </g>
     </g>
     <g id="text_2">
      <!-- $\mathdefault{2008}$ -->
      <g transform="translate(198.331684 352.1933) scale(0.18 -0.18)">
       <defs>
        <path id="CMR17-38" d="M 1741 2289 
C 2144 2494 2554 2803 2554 3298 
C 2554 3884 1990 4224 1472 4224 
C 890 4224 378 3800 378 3215 
C 378 3054 416 2777 666 2533 
C 730 2469 998 2276 1171 2154 
C 883 2006 211 1652 211 945 
C 211 282 838 -128 1459 -128 
C 2144 -128 2720 366 2720 1022 
C 2720 1607 2330 1877 2074 2051 
L 1741 2289 
z
M 902 2855 
C 851 2887 595 3086 595 3388 
C 595 3781 998 4076 1459 4076 
C 1965 4076 2336 3716 2336 3298 
C 2336 2700 1670 2359 1638 2359 
C 1632 2359 1626 2359 1574 2398 
L 902 2855 
z
M 2080 1536 
C 2176 1466 2483 1253 2483 861 
C 2483 385 2010 25 1472 25 
C 890 25 448 443 448 951 
C 448 1459 838 1884 1280 2083 
L 2080 1536 
z
" transform="scale(0.015625)"/>
       </defs>
       <use xlink:href="#CMR17-32" transform="scale(0.996264)"/>
       <use xlink:href="#CMR17-30" transform="translate(45.690477 0) scale(0.996264)"/>
       <use xlink:href="#CMR17-30" transform="translate(91.380954 0) scale(0.996264)"/>
       <use xlink:href="#CMR17-38" transform="translate(137.071431 0) scale(0.996264)"/>
      </g>
     </g>
    </g>
    <g id="xtick_3">
     <g id="line2d_5">
      <g>
       <use xlink:href="#mdd638c1fed" x="303.633565" y="336.24" style="stroke: #000000; stroke-width: 0.5"/>
      </g>
     </g>
     <g id="line2d_6">
      <g>
       <use xlink:href="#mce107a3816" x="303.633565" y="3.6" style="stroke: #000000; stroke-width: 0.5"/>
      </g>
     </g>
     <g id="text_3">
      <!-- $\mathdefault{2012}$ -->
      <g transform="translate(287.184994 352.1933) scale(0.18 -0.18)">
       <defs>
        <path id="CMR17-31" d="M 1702 4083 
C 1702 4217 1696 4224 1606 4224 
C 1357 3927 979 3833 621 3820 
C 602 3820 570 3820 563 3808 
C 557 3795 557 3782 557 3648 
C 755 3648 1088 3686 1344 3839 
L 1344 467 
C 1344 243 1331 166 781 166 
L 589 166 
L 589 0 
C 896 6 1216 12 1523 12 
C 1830 12 2150 6 2458 0 
L 2458 166 
L 2266 166 
C 1715 166 1702 236 1702 467 
L 1702 4083 
z
" transform="scale(0.015625)"/>
       </defs>
       <use xlink:href="#CMR17-32" transform="scale(0.996264)"/>
       <use xlink:href="#CMR17-30" transform="translate(45.690477 0) scale(0.996264)"/>
       <use xlink:href="#CMR17-31" transform="translate(91.380954 0) scale(0.996264)"/>
       <use xlink:href="#CMR17-32" transform="translate(137.071431 0) scale(0.996264)"/>
      </g>
     </g>
    </g>
    <g id="xtick_4">
     <g id="line2d_7">
      <g>
       <use xlink:href="#mdd638c1fed" x="392.486875" y="336.24" style="stroke: #000000; stroke-width: 0.5"/>
      </g>
     </g>
     <g id="line2d_8">
      <g>
       <use xlink:href="#mce107a3816" x="392.486875" y="3.6" style="stroke: #000000; stroke-width: 0.5"/>
      </g>
     </g>
     <g id="text_4">
      <!-- $\mathdefault{2016}$ -->
      <g transform="translate(376.038303 352.1933) scale(0.18 -0.18)">
       <defs>
        <path id="CMR17-36" d="M 678 2198 
C 678 3712 1395 4076 1811 4076 
C 1946 4076 2272 4049 2400 3782 
C 2298 3782 2106 3782 2106 3558 
C 2106 3385 2246 3328 2336 3328 
C 2394 3328 2566 3353 2566 3571 
C 2566 3987 2246 4224 1805 4224 
C 1043 4224 243 3411 243 2011 
C 243 257 966 -128 1478 -128 
C 2099 -128 2688 431 2688 1295 
C 2688 2101 2170 2688 1517 2688 
C 1126 2688 838 2430 678 1979 
L 678 2198 
z
M 1478 25 
C 691 25 691 1212 691 1450 
C 691 1914 909 2585 1504 2585 
C 1613 2585 1926 2585 2138 2140 
C 2253 1889 2253 1624 2253 1302 
C 2253 954 2253 696 2118 438 
C 1978 173 1773 25 1478 25 
z
" transform="scale(0.015625)"/>
       </defs>
       <use xlink:href="#CMR17-32" transform="scale(0.996264)"/>
       <use xlink:href="#CMR17-30" transform="translate(45.690477 0) scale(0.996264)"/>
       <use xlink:href="#CMR17-31" transform="translate(91.380954 0) scale(0.996264)"/>
       <use xlink:href="#CMR17-36" transform="translate(137.071431 0) scale(0.996264)"/>
      </g>
     </g>
    </g>
    <g id="xtick_5">
     <g id="line2d_9">
      <g>
       <use xlink:href="#mdd638c1fed" x="481.340184" y="336.24" style="stroke: #000000; stroke-width: 0.5"/>
      </g>
     </g>
     <g id="line2d_10">
      <g>
       <use xlink:href="#mce107a3816" x="481.340184" y="3.6" style="stroke: #000000; stroke-width: 0.5"/>
      </g>
     </g>
     <g id="text_5">
      <!-- $\mathdefault{2020}$ -->
      <g transform="translate(464.891613 352.1933) scale(0.18 -0.18)">
       <use xlink:href="#CMR17-32" transform="scale(0.996264)"/>
       <use xlink:href="#CMR17-30" transform="translate(45.690477 0) scale(0.996264)"/>
       <use xlink:href="#CMR17-32" transform="translate(91.380954 0) scale(0.996264)"/>
       <use xlink:href="#CMR17-30" transform="translate(137.071431 0) scale(0.996264)"/>
      </g>
     </g>
    </g>
    <g id="xtick_6">
     <g id="line2d_11">
      <g>
       <use xlink:href="#mdd638c1fed" x="570.193494" y="336.24" style="stroke: #000000; stroke-width: 0.5"/>
      </g>
     </g>
     <g id="line2d_12">
      <g>
       <use xlink:href="#mce107a3816" x="570.193494" y="3.6" style="stroke: #000000; stroke-width: 0.5"/>
      </g>
     </g>
     <g id="text_6">
      <!-- $\mathdefault{2024}$ -->
      <g transform="translate(553.744922 352.1933) scale(0.18 -0.18)">
       <use xlink:href="#CMR17-32" transform="scale(0.996264)"/>
       <use xlink:href="#CMR17-30" transform="translate(45.690477 0) scale(0.996264)"/>
       <use xlink:href="#CMR17-32" transform="translate(91.380954 0) scale(0.996264)"/>
       <use xlink:href="#CMR17-34" transform="translate(137.071431 0) scale(0.996264)"/>
      </g>
     </g>
    </g>
    <g id="xtick_7">
     <g id="line2d_13">
      <defs>
       <path id="mf0d4f68fd3" d="M 0 0 
L 0 -1.5 
" style="stroke: #000000; stroke-width: 0.5"/>
      </defs>
      <g>
       <use xlink:href="#mf0d4f68fd3" x="59.286964" y="336.24" style="stroke: #000000; stroke-width: 0.5"/>
      </g>
     </g>
     <g id="line2d_14">
      <defs>
       <path id="m89e2041a89" d="M 0 0 
L 0 1.5 
" style="stroke: #000000; stroke-width: 0.5"/>
      </defs>
      <g>
       <use xlink:href="#m89e2041a89" x="59.286964" y="3.6" style="stroke: #000000; stroke-width: 0.5"/>
      </g>
     </g>
    </g>
    <g id="xtick_8">
     <g id="line2d_15">
      <g>
       <use xlink:href="#mf0d4f68fd3" x="81.500292" y="336.24" style="stroke: #000000; stroke-width: 0.5"/>
      </g>
     </g>
     <g id="line2d_16">
      <g>
       <use xlink:href="#m89e2041a89" x="81.500292" y="3.6" style="stroke: #000000; stroke-width: 0.5"/>
      </g>
     </g>
    </g>
    <g id="xtick_9">
     <g id="line2d_17">
      <g>
       <use xlink:href="#mf0d4f68fd3" x="103.713619" y="336.24" style="stroke: #000000; stroke-width: 0.5"/>
      </g>
     </g>
     <g id="line2d_18">
      <g>
       <use xlink:href="#m89e2041a89" x="103.713619" y="3.6" style="stroke: #000000; stroke-width: 0.5"/>
      </g>
     </g>
    </g>
    <g id="xtick_10">
     <g id="line2d_19">
      <g>
       <use xlink:href="#mf0d4f68fd3" x="148.140274" y="336.24" style="stroke: #000000; stroke-width: 0.5"/>
      </g>
     </g>
     <g id="line2d_20">
      <g>
       <use xlink:href="#m89e2041a89" x="148.140274" y="3.6" style="stroke: #000000; stroke-width: 0.5"/>
      </g>
     </g>
    </g>
    <g id="xtick_11">
     <g id="line2d_21">
      <g>
       <use xlink:href="#mf0d4f68fd3" x="170.353601" y="336.24" style="stroke: #000000; stroke-width: 0.5"/>
      </g>
     </g>
     <g id="line2d_22">
      <g>
       <use xlink:href="#m89e2041a89" x="170.353601" y="3.6" style="stroke: #000000; stroke-width: 0.5"/>
      </g>
     </g>
    </g>
    <g id="xtick_12">
     <g id="line2d_23">
      <g>
       <use xlink:href="#mf0d4f68fd3" x="192.566929" y="336.24" style="stroke: #000000; stroke-width: 0.5"/>
      </g>
     </g>
     <g id="line2d_24">
      <g>
       <use xlink:href="#m89e2041a89" x="192.566929" y="3.6" style="stroke: #000000; stroke-width: 0.5"/>
      </g>
     </g>
    </g>
    <g id="xtick_13">
     <g id="line2d_25">
      <g>
       <use xlink:href="#mf0d4f68fd3" x="236.993583" y="336.24" style="stroke: #000000; stroke-width: 0.5"/>
      </g>
     </g>
     <g id="line2d_26">
      <g>
       <use xlink:href="#m89e2041a89" x="236.993583" y="3.6" style="stroke: #000000; stroke-width: 0.5"/>
      </g>
     </g>
    </g>
    <g id="xtick_14">
     <g id="line2d_27">
      <g>
       <use xlink:href="#mf0d4f68fd3" x="259.206911" y="336.24" style="stroke: #000000; stroke-width: 0.5"/>
      </g>
     </g>
     <g id="line2d_28">
      <g>
       <use xlink:href="#m89e2041a89" x="259.206911" y="3.6" style="stroke: #000000; stroke-width: 0.5"/>
      </g>
     </g>
    </g>
    <g id="xtick_15">
     <g id="line2d_29">
      <g>
       <use xlink:href="#mf0d4f68fd3" x="281.420238" y="336.24" style="stroke: #000000; stroke-width: 0.5"/>
      </g>
     </g>
     <g id="line2d_30">
      <g>
       <use xlink:href="#m89e2041a89" x="281.420238" y="3.6" style="stroke: #000000; stroke-width: 0.5"/>
      </g>
     </g>
    </g>
    <g id="xtick_16">
     <g id="line2d_31">
      <g>
       <use xlink:href="#mf0d4f68fd3" x="325.846893" y="336.24" style="stroke: #000000; stroke-width: 0.5"/>
      </g>
     </g>
     <g id="line2d_32">
      <g>
       <use xlink:href="#m89e2041a89" x="325.846893" y="3.6" style="stroke: #000000; stroke-width: 0.5"/>
      </g>
     </g>
    </g>
    <g id="xtick_17">
     <g id="line2d_33">
      <g>
       <use xlink:href="#mf0d4f68fd3" x="348.06022" y="336.24" style="stroke: #000000; stroke-width: 0.5"/>
      </g>
     </g>
     <g id="line2d_34">
      <g>
       <use xlink:href="#m89e2041a89" x="348.06022" y="3.6" style="stroke: #000000; stroke-width: 0.5"/>
      </g>
     </g>
    </g>
    <g id="xtick_18">
     <g id="line2d_35">
      <g>
       <use xlink:href="#mf0d4f68fd3" x="370.273548" y="336.24" style="stroke: #000000; stroke-width: 0.5"/>
      </g>
     </g>
     <g id="line2d_36">
      <g>
       <use xlink:href="#m89e2041a89" x="370.273548" y="3.6" style="stroke: #000000; stroke-width: 0.5"/>
      </g>
     </g>
    </g>
    <g id="xtick_19">
     <g id="line2d_37">
      <g>
       <use xlink:href="#mf0d4f68fd3" x="414.700202" y="336.24" style="stroke: #000000; stroke-width: 0.5"/>
      </g>
     </g>
     <g id="line2d_38">
      <g>
       <use xlink:href="#m89e2041a89" x="414.700202" y="3.6" style="stroke: #000000; stroke-width: 0.5"/>
      </g>
     </g>
    </g>
    <g id="xtick_20">
     <g id="line2d_39">
      <g>
       <use xlink:href="#mf0d4f68fd3" x="436.91353" y="336.24" style="stroke: #000000; stroke-width: 0.5"/>
      </g>
     </g>
     <g id="line2d_40">
      <g>
       <use xlink:href="#m89e2041a89" x="436.91353" y="3.6" style="stroke: #000000; stroke-width: 0.5"/>
      </g>
     </g>
    </g>
    <g id="xtick_21">
     <g id="line2d_41">
      <g>
       <use xlink:href="#mf0d4f68fd3" x="459.126857" y="336.24" style="stroke: #000000; stroke-width: 0.5"/>
      </g>
     </g>
     <g id="line2d_42">
      <g>
       <use xlink:href="#m89e2041a89" x="459.126857" y="3.6" style="stroke: #000000; stroke-width: 0.5"/>
      </g>
     </g>
    </g>
    <g id="xtick_22">
     <g id="line2d_43">
      <g>
       <use xlink:href="#mf0d4f68fd3" x="503.553512" y="336.24" style="stroke: #000000; stroke-width: 0.5"/>
      </g>
     </g>
     <g id="line2d_44">
      <g>
       <use xlink:href="#m89e2041a89" x="503.553512" y="3.6" style="stroke: #000000; stroke-width: 0.5"/>
      </g>
     </g>
    </g>
    <g id="xtick_23">
     <g id="line2d_45">
      <g>
       <use xlink:href="#mf0d4f68fd3" x="525.766839" y="336.24" style="stroke: #000000; stroke-width: 0.5"/>
      </g>
     </g>
     <g id="line2d_46">
      <g>
       <use xlink:href="#m89e2041a89" x="525.766839" y="3.6" style="stroke: #000000; stroke-width: 0.5"/>
      </g>
     </g>
    </g>
    <g id="xtick_24">
     <g id="line2d_47">
      <g>
       <use xlink:href="#mf0d4f68fd3" x="547.980167" y="336.24" style="stroke: #000000; stroke-width: 0.5"/>
      </g>
     </g>
     <g id="line2d_48">
      <g>
       <use xlink:href="#m89e2041a89" x="547.980167" y="3.6" style="stroke: #000000; stroke-width: 0.5"/>
      </g>
     </g>
    </g>
    <g id="xtick_25">
     <g id="line2d_49">
      <g>
       <use xlink:href="#mf0d4f68fd3" x="592.406821" y="336.24" style="stroke: #000000; stroke-width: 0.5"/>
      </g>
     </g>
     <g id="line2d_50">
      <g>
       <use xlink:href="#m89e2041a89" x="592.406821" y="3.6" style="stroke: #000000; stroke-width: 0.5"/>
      </g>
     </g>
    </g>
   </g>
   <g id="matplotlib.axis_2">
    <g id="ytick_1">
     <g id="line2d_51">
      <defs>
       <path id="m1d584f66f1" d="M 0 0 
L 3 0 
" style="stroke: #000000; stroke-width: 0.5"/>
      </defs>
      <g>
       <use xlink:href="#m1d584f66f1" x="37.496314" y="297.396583" style="stroke: #000000; stroke-width: 0.5"/>
      </g>
     </g>
     <g id="line2d_52">
      <defs>
       <path id="mef470f7f3f" d="M 0 0 
L -3 0 
" style="stroke: #000000; stroke-width: 0.5"/>
      </defs>
      <g>
       <use xlink:href="#mef470f7f3f" x="595.496314" y="297.396583" style="stroke: #000000; stroke-width: 0.5"/>
      </g>
     </g>
     <g id="text_7">
      <!-- $\mathdefault{−20}$ -->
      <g transform="translate(3.6 303.623233) scale(0.18 -0.18)">
       <defs>
        <path id="CMSY10-0" d="M 4218 1472 
C 4326 1472 4442 1472 4442 1600 
C 4442 1728 4326 1728 4218 1728 
L 755 1728 
C 646 1728 531 1728 531 1600 
C 531 1472 646 1472 755 1472 
L 4218 1472 
z
" transform="scale(0.015625)"/>
       </defs>
       <use xlink:href="#CMSY10-0" transform="scale(0.996264)"/>
       <use xlink:href="#CMR17-32" transform="translate(77.487468 0) scale(0.996264)"/>
       <use xlink:href="#CMR17-30" transform="translate(123.177945 0) scale(0.996264)"/>
      </g>
     </g>
    </g>
    <g id="ytick_2">
     <g id="line2d_53">
      <g>
       <use xlink:href="#m1d584f66f1" x="37.496314" y="255.101033" style="stroke: #000000; stroke-width: 0.5"/>
      </g>
     </g>
     <g id="line2d_54">
      <g>
       <use xlink:href="#mef470f7f3f" x="595.496314" y="255.101033" style="stroke: #000000; stroke-width: 0.5"/>
      </g>
     </g>
     <g id="text_8">
      <!-- $\mathdefault{−15}$ -->
      <g transform="translate(3.6 261.327683) scale(0.18 -0.18)">
       <defs>
        <path id="CMR17-35" d="M 730 3750 
C 794 3724 1056 3641 1325 3641 
C 1920 3641 2246 3961 2432 4140 
C 2432 4191 2432 4224 2394 4224 
C 2387 4224 2374 4224 2323 4198 
C 2099 4102 1837 4032 1517 4032 
C 1325 4032 1037 4055 723 4191 
C 653 4224 640 4224 634 4224 
C 602 4224 595 4217 595 4090 
L 595 2231 
C 595 2113 595 2080 659 2080 
C 691 2080 704 2093 736 2139 
C 941 2435 1222 2560 1542 2560 
C 1766 2560 2246 2415 2246 1293 
C 2246 1087 2246 716 2054 422 
C 1894 159 1645 25 1370 25 
C 947 25 518 319 403 812 
C 429 806 480 793 506 793 
C 589 793 749 838 749 1036 
C 749 1209 627 1280 506 1280 
C 358 1280 262 1190 262 1011 
C 262 454 704 -128 1382 -128 
C 2042 -128 2669 441 2669 1267 
C 2669 2054 2170 2662 1549 2662 
C 1222 2662 947 2540 730 2304 
L 730 3750 
z
" transform="scale(0.015625)"/>
       </defs>
       <use xlink:href="#CMSY10-0" transform="scale(0.996264)"/>
       <use xlink:href="#CMR17-31" transform="translate(77.487468 0) scale(0.996264)"/>
       <use xlink:href="#CMR17-35" transform="translate(123.177945 0) scale(0.996264)"/>
      </g>
     </g>
    </g>
    <g id="ytick_3">
     <g id="line2d_55">
      <g>
       <use xlink:href="#m1d584f66f1" x="37.496314" y="212.805484" style="stroke: #000000; stroke-width: 0.5"/>
      </g>
     </g>
     <g id="line2d_56">
      <g>
       <use xlink:href="#mef470f7f3f" x="595.496314" y="212.805484" style="stroke: #000000; stroke-width: 0.5"/>
      </g>
     </g>
     <g id="text_9">
      <!-- $\mathdefault{−10}$ -->
      <g transform="translate(3.6 219.032134) scale(0.18 -0.18)">
       <use xlink:href="#CMSY10-0" transform="scale(0.996264)"/>
       <use xlink:href="#CMR17-31" transform="translate(77.487468 0) scale(0.996264)"/>
       <use xlink:href="#CMR17-30" transform="translate(123.177945 0) scale(0.996264)"/>
      </g>
     </g>
    </g>
    <g id="ytick_4">
     <g id="line2d_57">
      <g>
       <use xlink:href="#m1d584f66f1" x="37.496314" y="170.509934" style="stroke: #000000; stroke-width: 0.5"/>
      </g>
     </g>
     <g id="line2d_58">
      <g>
       <use xlink:href="#mef470f7f3f" x="595.496314" y="170.509934" style="stroke: #000000; stroke-width: 0.5"/>
      </g>
     </g>
     <g id="text_10">
      <!-- $\mathdefault{−5}$ -->
      <g transform="translate(11.824286 176.736584) scale(0.18 -0.18)">
       <use xlink:href="#CMSY10-0" transform="scale(0.996264)"/>
       <use xlink:href="#CMR17-35" transform="translate(77.487468 0) scale(0.996264)"/>
      </g>
     </g>
    </g>
    <g id="ytick_5">
     <g id="line2d_59">
      <g>
       <use xlink:href="#m1d584f66f1" x="37.496314" y="128.214385" style="stroke: #000000; stroke-width: 0.5"/>
      </g>
     </g>
     <g id="line2d_60">
      <g>
       <use xlink:href="#mef470f7f3f" x="595.496314" y="128.214385" style="stroke: #000000; stroke-width: 0.5"/>
      </g>
     </g>
     <g id="text_11">
      <!-- $\mathdefault{0}$ -->
      <g transform="translate(25.772028 134.441035) scale(0.18 -0.18)">
       <use xlink:href="#CMR17-30" transform="scale(0.996264)"/>
      </g>
     </g>
    </g>
    <g id="ytick_6">
     <g id="line2d_61">
      <g>
       <use xlink:href="#m1d584f66f1" x="37.496314" y="85.918835" style="stroke: #000000; stroke-width: 0.5"/>
      </g>
     </g>
     <g id="line2d_62">
      <g>
       <use xlink:href="#mef470f7f3f" x="595.496314" y="85.918835" style="stroke: #000000; stroke-width: 0.5"/>
      </g>
     </g>
     <g id="text_12">
      <!-- $\mathdefault{5}$ -->
      <g transform="translate(25.772028 92.145485) scale(0.18 -0.18)">
       <use xlink:href="#CMR17-35" transform="scale(0.996264)"/>
      </g>
     </g>
    </g>
    <g id="ytick_7">
     <g id="line2d_63">
      <g>
       <use xlink:href="#m1d584f66f1" x="37.496314" y="43.623286" style="stroke: #000000; stroke-width: 0.5"/>
      </g>
     </g>
     <g id="line2d_64">
      <g>
       <use xlink:href="#mef470f7f3f" x="595.496314" y="43.623286" style="stroke: #000000; stroke-width: 0.5"/>
      </g>
     </g>
     <g id="text_13">
      <!-- $\mathdefault{10}$ -->
      <g transform="translate(17.547742 49.849936) scale(0.18 -0.18)">
       <use xlink:href="#CMR17-31" transform="scale(0.996264)"/>
       <use xlink:href="#CMR17-30" transform="translate(45.690477 0) scale(0.996264)"/>
      </g>
     </g>
    </g>
    <g id="ytick_8">
     <g id="line2d_65">
      <defs>
       <path id="m8952d95f79" d="M 0 0 
L 1.5 0 
" style="stroke: #000000; stroke-width: 0.5"/>
      </defs>
      <g>
       <use xlink:href="#m8952d95f79" x="37.496314" y="331.233022" style="stroke: #000000; stroke-width: 0.5"/>
      </g>
     </g>
     <g id="line2d_66">
      <defs>
       <path id="m804ea29851" d="M 0 0 
L -1.5 0 
" style="stroke: #000000; stroke-width: 0.5"/>
      </defs>
      <g>
       <use xlink:href="#m804ea29851" x="595.496314" y="331.233022" style="stroke: #000000; stroke-width: 0.5"/>
      </g>
     </g>
    </g>
    <g id="ytick_9">
     <g id="line2d_67">
      <g>
       <use xlink:href="#m8952d95f79" x="37.496314" y="322.773912" style="stroke: #000000; stroke-width: 0.5"/>
      </g>
     </g>
     <g id="line2d_68">
      <g>
       <use xlink:href="#m804ea29851" x="595.496314" y="322.773912" style="stroke: #000000; stroke-width: 0.5"/>
      </g>
     </g>
    </g>
    <g id="ytick_10">
     <g id="line2d_69">
      <g>
       <use xlink:href="#m8952d95f79" x="37.496314" y="314.314802" style="stroke: #000000; stroke-width: 0.5"/>
      </g>
     </g>
     <g id="line2d_70">
      <g>
       <use xlink:href="#m804ea29851" x="595.496314" y="314.314802" style="stroke: #000000; stroke-width: 0.5"/>
      </g>
     </g>
    </g>
    <g id="ytick_11">
     <g id="line2d_71">
      <g>
       <use xlink:href="#m8952d95f79" x="37.496314" y="305.855692" style="stroke: #000000; stroke-width: 0.5"/>
      </g>
     </g>
     <g id="line2d_72">
      <g>
       <use xlink:href="#m804ea29851" x="595.496314" y="305.855692" style="stroke: #000000; stroke-width: 0.5"/>
      </g>
     </g>
    </g>
    <g id="ytick_12">
     <g id="line2d_73">
      <g>
       <use xlink:href="#m8952d95f79" x="37.496314" y="288.937473" style="stroke: #000000; stroke-width: 0.5"/>
      </g>
     </g>
     <g id="line2d_74">
      <g>
       <use xlink:href="#m804ea29851" x="595.496314" y="288.937473" style="stroke: #000000; stroke-width: 0.5"/>
      </g>
     </g>
    </g>
    <g id="ytick_13">
     <g id="line2d_75">
      <g>
       <use xlink:href="#m8952d95f79" x="37.496314" y="280.478363" style="stroke: #000000; stroke-width: 0.5"/>
      </g>
     </g>
     <g id="line2d_76">
      <g>
       <use xlink:href="#m804ea29851" x="595.496314" y="280.478363" style="stroke: #000000; stroke-width: 0.5"/>
      </g>
     </g>
    </g>
    <g id="ytick_14">
     <g id="line2d_77">
      <g>
       <use xlink:href="#m8952d95f79" x="37.496314" y="272.019253" style="stroke: #000000; stroke-width: 0.5"/>
      </g>
     </g>
     <g id="line2d_78">
      <g>
       <use xlink:href="#m804ea29851" x="595.496314" y="272.019253" style="stroke: #000000; stroke-width: 0.5"/>
      </g>
     </g>
    </g>
    <g id="ytick_15">
     <g id="line2d_79">
      <g>
       <use xlink:href="#m8952d95f79" x="37.496314" y="263.560143" style="stroke: #000000; stroke-width: 0.5"/>
      </g>
     </g>
     <g id="line2d_80">
      <g>
       <use xlink:href="#m804ea29851" x="595.496314" y="263.560143" style="stroke: #000000; stroke-width: 0.5"/>
      </g>
     </g>
    </g>
    <g id="ytick_16">
     <g id="line2d_81">
      <g>
       <use xlink:href="#m8952d95f79" x="37.496314" y="246.641923" style="stroke: #000000; stroke-width: 0.5"/>
      </g>
     </g>
     <g id="line2d_82">
      <g>
       <use xlink:href="#m804ea29851" x="595.496314" y="246.641923" style="stroke: #000000; stroke-width: 0.5"/>
      </g>
     </g>
    </g>
    <g id="ytick_17">
     <g id="line2d_83">
      <g>
       <use xlink:href="#m8952d95f79" x="37.496314" y="238.182813" style="stroke: #000000; stroke-width: 0.5"/>
      </g>
     </g>
     <g id="line2d_84">
      <g>
       <use xlink:href="#m804ea29851" x="595.496314" y="238.182813" style="stroke: #000000; stroke-width: 0.5"/>
      </g>
     </g>
    </g>
    <g id="ytick_18">
     <g id="line2d_85">
      <g>
       <use xlink:href="#m8952d95f79" x="37.496314" y="229.723703" style="stroke: #000000; stroke-width: 0.5"/>
      </g>
     </g>
     <g id="line2d_86">
      <g>
       <use xlink:href="#m804ea29851" x="595.496314" y="229.723703" style="stroke: #000000; stroke-width: 0.5"/>
      </g>
     </g>
    </g>
    <g id="ytick_19">
     <g id="line2d_87">
      <g>
       <use xlink:href="#m8952d95f79" x="37.496314" y="221.264594" style="stroke: #000000; stroke-width: 0.5"/>
      </g>
     </g>
     <g id="line2d_88">
      <g>
       <use xlink:href="#m804ea29851" x="595.496314" y="221.264594" style="stroke: #000000; stroke-width: 0.5"/>
      </g>
     </g>
    </g>
    <g id="ytick_20">
     <g id="line2d_89">
      <g>
       <use xlink:href="#m8952d95f79" x="37.496314" y="204.346374" style="stroke: #000000; stroke-width: 0.5"/>
      </g>
     </g>
     <g id="line2d_90">
      <g>
       <use xlink:href="#m804ea29851" x="595.496314" y="204.346374" style="stroke: #000000; stroke-width: 0.5"/>
      </g>
     </g>
    </g>
    <g id="ytick_21">
     <g id="line2d_91">
      <g>
       <use xlink:href="#m8952d95f79" x="37.496314" y="195.887264" style="stroke: #000000; stroke-width: 0.5"/>
      </g>
     </g>
     <g id="line2d_92">
      <g>
       <use xlink:href="#m804ea29851" x="595.496314" y="195.887264" style="stroke: #000000; stroke-width: 0.5"/>
      </g>
     </g>
    </g>
    <g id="ytick_22">
     <g id="line2d_93">
      <g>
       <use xlink:href="#m8952d95f79" x="37.496314" y="187.428154" style="stroke: #000000; stroke-width: 0.5"/>
      </g>
     </g>
     <g id="line2d_94">
      <g>
       <use xlink:href="#m804ea29851" x="595.496314" y="187.428154" style="stroke: #000000; stroke-width: 0.5"/>
      </g>
     </g>
    </g>
    <g id="ytick_23">
     <g id="line2d_95">
      <g>
       <use xlink:href="#m8952d95f79" x="37.496314" y="178.969044" style="stroke: #000000; stroke-width: 0.5"/>
      </g>
     </g>
     <g id="line2d_96">
      <g>
       <use xlink:href="#m804ea29851" x="595.496314" y="178.969044" style="stroke: #000000; stroke-width: 0.5"/>
      </g>
     </g>
    </g>
    <g id="ytick_24">
     <g id="line2d_97">
      <g>
       <use xlink:href="#m8952d95f79" x="37.496314" y="162.050824" style="stroke: #000000; stroke-width: 0.5"/>
      </g>
     </g>
     <g id="line2d_98">
      <g>
       <use xlink:href="#m804ea29851" x="595.496314" y="162.050824" style="stroke: #000000; stroke-width: 0.5"/>
      </g>
     </g>
    </g>
    <g id="ytick_25">
     <g id="line2d_99">
      <g>
       <use xlink:href="#m8952d95f79" x="37.496314" y="153.591714" style="stroke: #000000; stroke-width: 0.5"/>
      </g>
     </g>
     <g id="line2d_100">
      <g>
       <use xlink:href="#m804ea29851" x="595.496314" y="153.591714" style="stroke: #000000; stroke-width: 0.5"/>
      </g>
     </g>
    </g>
    <g id="ytick_26">
     <g id="line2d_101">
      <g>
       <use xlink:href="#m8952d95f79" x="37.496314" y="145.132605" style="stroke: #000000; stroke-width: 0.5"/>
      </g>
     </g>
     <g id="line2d_102">
      <g>
       <use xlink:href="#m804ea29851" x="595.496314" y="145.132605" style="stroke: #000000; stroke-width: 0.5"/>
      </g>
     </g>
    </g>
    <g id="ytick_27">
     <g id="line2d_103">
      <g>
       <use xlink:href="#m8952d95f79" x="37.496314" y="136.673495" style="stroke: #000000; stroke-width: 0.5"/>
      </g>
     </g>
     <g id="line2d_104">
      <g>
       <use xlink:href="#m804ea29851" x="595.496314" y="136.673495" style="stroke: #000000; stroke-width: 0.5"/>
      </g>
     </g>
    </g>
    <g id="ytick_28">
     <g id="line2d_105">
      <g>
       <use xlink:href="#m8952d95f79" x="37.496314" y="119.755275" style="stroke: #000000; stroke-width: 0.5"/>
      </g>
     </g>
     <g id="line2d_106">
      <g>
       <use xlink:href="#m804ea29851" x="595.496314" y="119.755275" style="stroke: #000000; stroke-width: 0.5"/>
      </g>
     </g>
    </g>
    <g id="ytick_29">
     <g id="line2d_107">
      <g>
       <use xlink:href="#m8952d95f79" x="37.496314" y="111.296165" style="stroke: #000000; stroke-width: 0.5"/>
      </g>
     </g>
     <g id="line2d_108">
      <g>
       <use xlink:href="#m804ea29851" x="595.496314" y="111.296165" style="stroke: #000000; stroke-width: 0.5"/>
      </g>
     </g>
    </g>
    <g id="ytick_30">
     <g id="line2d_109">
      <g>
       <use xlink:href="#m8952d95f79" x="37.496314" y="102.837055" style="stroke: #000000; stroke-width: 0.5"/>
      </g>
     </g>
     <g id="line2d_110">
      <g>
       <use xlink:href="#m804ea29851" x="595.496314" y="102.837055" style="stroke: #000000; stroke-width: 0.5"/>
      </g>
     </g>
    </g>
    <g id="ytick_31">
     <g id="line2d_111">
      <g>
       <use xlink:href="#m8952d95f79" x="37.496314" y="94.377945" style="stroke: #000000; stroke-width: 0.5"/>
      </g>
     </g>
     <g id="line2d_112">
      <g>
       <use xlink:href="#m804ea29851" x="595.496314" y="94.377945" style="stroke: #000000; stroke-width: 0.5"/>
      </g>
     </g>
    </g>
    <g id="ytick_32">
     <g id="line2d_113">
      <g>
       <use xlink:href="#m8952d95f79" x="37.496314" y="77.459725" style="stroke: #000000; stroke-width: 0.5"/>
      </g>
     </g>
     <g id="line2d_114">
      <g>
       <use xlink:href="#m804ea29851" x="595.496314" y="77.459725" style="stroke: #000000; stroke-width: 0.5"/>
      </g>
     </g>
    </g>
    <g id="ytick_33">
     <g id="line2d_115">
      <g>
       <use xlink:href="#m8952d95f79" x="37.496314" y="69.000616" style="stroke: #000000; stroke-width: 0.5"/>
      </g>
     </g>
     <g id="line2d_116">
      <g>
       <use xlink:href="#m804ea29851" x="595.496314" y="69.000616" style="stroke: #000000; stroke-width: 0.5"/>
      </g>
     </g>
    </g>
    <g id="ytick_34">
     <g id="line2d_117">
      <g>
       <use xlink:href="#m8952d95f79" x="37.496314" y="60.541506" style="stroke: #000000; stroke-width: 0.5"/>
      </g>
     </g>
     <g id="line2d_118">
      <g>
       <use xlink:href="#m804ea29851" x="595.496314" y="60.541506" style="stroke: #000000; stroke-width: 0.5"/>
      </g>
     </g>
    </g>
    <g id="ytick_35">
     <g id="line2d_119">
      <g>
       <use xlink:href="#m8952d95f79" x="37.496314" y="52.082396" style="stroke: #000000; stroke-width: 0.5"/>
      </g>
     </g>
     <g id="line2d_120">
      <g>
       <use xlink:href="#m804ea29851" x="595.496314" y="52.082396" style="stroke: #000000; stroke-width: 0.5"/>
      </g>
     </g>
    </g>
    <g id="ytick_36">
     <g id="line2d_121">
      <g>
       <use xlink:href="#m8952d95f79" x="37.496314" y="35.164176" style="stroke: #000000; stroke-width: 0.5"/>
      </g>
     </g>
     <g id="line2d_122">
      <g>
       <use xlink:href="#m804ea29851" x="595.496314" y="35.164176" style="stroke: #000000; stroke-width: 0.5"/>
      </g>
     </g>
    </g>
    <g id="ytick_37">
     <g id="line2d_123">
      <g>
       <use xlink:href="#m8952d95f79" x="37.496314" y="26.705066" style="stroke: #000000; stroke-width: 0.5"/>
      </g>
     </g>
     <g id="line2d_124">
      <g>
       <use xlink:href="#m804ea29851" x="595.496314" y="26.705066" style="stroke: #000000; stroke-width: 0.5"/>
      </g>
     </g>
    </g>
    <g id="ytick_38">
     <g id="line2d_125">
      <g>
       <use xlink:href="#m8952d95f79" x="37.496314" y="18.245956" style="stroke: #000000; stroke-width: 0.5"/>
      </g>
     </g>
     <g id="line2d_126">
      <g>
       <use xlink:href="#m804ea29851" x="595.496314" y="18.245956" style="stroke: #000000; stroke-width: 0.5"/>
      </g>
     </g>
    </g>
    <g id="ytick_39">
     <g id="line2d_127">
      <g>
       <use xlink:href="#m8952d95f79" x="37.496314" y="9.786846" style="stroke: #000000; stroke-width: 0.5"/>
      </g>
     </g>
     <g id="line2d_128">
      <g>
       <use xlink:href="#m804ea29851" x="595.496314" y="9.786846" style="stroke: #000000; stroke-width: 0.5"/>
      </g>
     </g>
    </g>
   </g>
   <g id="line2d_129">
    <path d="M 62.85995 147.353546 
L 64.74527 209.690646 
L 66.569773 125.372947 
L 68.455093 72.816222 
L 70.279597 149.563217 
L 72.164917 151.94006 
L 74.050237 146.638823 
L 75.87474 230.20597 
L 77.76006 102.730208 
L 79.584563 87.49581 
L 81.469883 116.871486 
L 83.355203 131.70888 
L 85.058073 158.069435 
L 86.943393 88.343986 
L 88.767896 159.474968 
L 90.653216 153.448661 
L 92.47772 180.951628 
L 94.36304 225.749774 
L 96.24836 119.867645 
L 98.072863 170.738399 
L 99.958183 141.16035 
L 101.782686 75.176572 
L 103.668006 138.26756 
L 105.553327 131.362368 
L 107.256196 185.65336 
L 109.141516 118.567742 
L 110.96602 85.926105 
L 112.85134 85.650199 
L 114.675843 82.442177 
L 116.561163 124.336208 
L 118.446483 130.783612 
L 120.270986 103.024295 
L 122.156306 112.357482 
L 123.98081 119.166429 
L 127.75145 88.548113 
L 129.515136 120.156188 
L 131.400456 142.675519 
L 133.22496 121.18426 
L 135.11028 151.352087 
L 136.934783 105.524626 
L 138.820103 148.552506 
L 140.705423 141.249471 
L 142.529926 106.193234 
L 144.415246 128.55504 
L 146.23975 89.926043 
L 148.12507 106.588119 
L 150.01039 140.864448 
L 151.713259 115.26811 
L 153.598579 131.556305 
L 155.423083 150.064945 
L 157.308403 118.21229 
L 159.132906 111.178538 
L 161.018226 114.264941 
L 162.903546 126.810589 
L 164.728049 127.075083 
L 166.613369 151.9782 
L 168.437873 96.586493 
L 170.323193 111.494894 
L 172.208513 117.120966 
L 173.911383 129.591476 
L 175.796703 116.965639 
L 177.621206 122.720316 
L 179.506526 136.150835 
L 181.331029 152.723496 
L 183.216349 123.455427 
L 185.101669 110.34173 
L 186.926173 108.345902 
L 188.811493 99.412162 
L 190.635996 112.685201 
L 192.521316 111.458825 
L 194.406636 123.604504 
L 196.109506 116.042794 
L 197.994826 150.670499 
L 199.819329 94.799004 
L 201.704649 101.197807 
L 203.529152 126.508766 
L 205.414472 124.579769 
L 207.299792 165.800437 
L 209.124296 103.853363 
L 211.009616 104.513354 
L 212.834119 171.191697 
L 214.719439 119.113009 
L 216.604759 187.707624 
L 218.368446 143.000093 
L 220.253766 152.233727 
L 222.078269 94.510852 
L 223.963589 108.237479 
L 225.788092 166.422138 
L 227.673412 182.870039 
L 229.558732 112.127331 
L 231.383236 171.914255 
L 233.268556 321.12 
L 235.093059 206.619922 
L 236.978379 133.480325 
L 238.863699 139.841877 
L 240.566569 189.349938 
L 242.451889 180.316565 
L 244.276392 32.184423 
L 246.161712 75.758213 
L 247.986216 106.275807 
L 249.871536 119.400555 
L 251.756856 63.912379 
L 253.581359 99.535293 
L 255.466679 109.703173 
L 257.291182 112.19609 
L 259.176502 111.045086 
L 261.061822 118.217648 
L 262.764692 154.533433 
L 264.650012 80.72815 
L 266.474515 95.610639 
L 268.359835 180.871801 
L 270.184339 160.163635 
L 272.069659 130.998687 
L 273.954979 122.374786 
L 275.779482 101.564009 
L 277.664802 91.697119 
L 279.489305 108.722173 
L 281.374625 98.651182 
L 283.259946 100.671209 
L 284.962815 103.196567 
L 286.848135 138.930133 
L 288.672639 110.87196 
L 290.557959 123.905325 
L 292.382462 161.093583 
L 294.267782 103.668914 
L 296.153102 222.577026 
L 297.977605 136.411129 
L 299.862925 104.52406 
L 301.687429 114.866619 
L 303.572749 116.637361 
L 305.458069 90.12716 
L 307.221755 95.10795 
L 309.107075 105.535937 
L 312.816899 156.226872 
L 314.641402 139.509238 
L 316.526722 105.325479 
L 318.412042 101.474657 
L 320.236545 104.459676 
L 322.121865 131.502627 
L 323.946369 154.086554 
L 325.831689 111.528664 
L 327.717009 94.340664 
L 329.419878 110.174519 
L 331.305198 106.938042 
L 333.129702 117.445 
L 335.015022 91.774827 
L 336.839525 139.153769 
L 338.724845 102.527204 
L 340.610165 127.499909 
L 344.319988 111.897469 
L 346.144492 97.542988 
L 348.029812 116.795077 
L 349.915132 121.419358 
L 351.618002 130.687457 
L 353.503322 106.848053 
L 355.327825 127.878542 
L 357.213145 116.717662 
L 359.037648 102.937869 
L 360.922968 116.98918 
L 362.808288 133.189296 
L 364.632792 114.65303 
L 366.518112 152.303115 
L 368.342615 82.613241 
L 370.227935 124.210641 
L 372.113255 139.026578 
L 373.816125 105.97861 
L 375.701445 129.112692 
L 377.525948 122.18842 
L 379.411268 121.345392 
L 381.235771 133.296418 
L 383.121091 130.292132 
L 386.830915 168.756776 
L 388.716235 93.940373 
L 390.540738 105.214017 
L 392.426058 139.074078 
L 394.311378 185.932842 
L 397.960385 77.557097 
L 399.784888 106.086226 
L 401.670208 132.295758 
L 403.494711 120.736697 
L 405.380031 102.228216 
L 407.265351 119.578669 
L 409.089855 133.396989 
L 410.975175 133.985321 
L 412.799678 119.586352 
L 414.684998 96.902505 
L 416.570318 117.554652 
L 418.273188 108.084375 
L 420.158508 114.918659 
L 421.983011 130.902756 
L 423.868331 115.390243 
L 425.692835 114.67767 
L 429.463475 127.483951 
L 431.287978 115.695714 
L 433.173298 106.718033 
L 434.997801 116.188888 
L 436.883121 105.454604 
L 438.768441 89.291029 
L 440.471311 154.275928 
L 442.356631 128.962075 
L 444.181134 143.735717 
L 446.066454 113.093761 
L 447.890958 111.822315 
L 449.776278 116.232965 
L 451.661598 109.000624 
L 453.486101 115.382974 
L 455.371421 162.740085 
L 457.195924 147.327198 
L 459.081244 178.089312 
L 460.966565 115.110325 
L 462.669434 81.674981 
L 464.554754 113.264421 
L 466.379258 98.624091 
L 468.264578 142.637135 
L 470.089081 117.771561 
L 471.974401 97.761022 
L 473.859721 156.525609 
L 475.684224 103.853113 
L 477.569544 129.48499 
L 479.394048 92.822751 
L 481.279368 108.863703 
L 483.164688 101.621607 
L 484.928374 128.443723 
L 486.813694 307.1768 
L 488.638198 93.968864 
L 490.523518 81.26153 
L 492.348021 76.230834 
L 494.233341 100.617009 
L 496.118661 81.008091 
L 497.943164 134.772501 
L 501.652988 96.574776 
L 503.538308 94.038999 
L 505.423628 105.975291 
L 507.126497 108.449872 
L 509.011817 122.33697 
L 510.836321 79.733115 
L 512.721641 122.783345 
L 514.546144 113.997352 
L 516.431464 103.584586 
L 518.316784 110.851527 
L 520.141287 129.861207 
L 522.026607 125.333881 
L 523.851111 89.901377 
L 525.736431 126.876803 
L 527.621751 146.682981 
L 529.324621 154.098482 
L 531.209941 136.784554 
L 533.034444 128.208455 
L 534.919764 198.670821 
L 536.744267 158.351965 
L 538.629587 125.445572 
L 540.514907 76.453101 
L 542.339411 193.316764 
L 544.224731 156.010496 
L 546.049234 85.832695 
L 547.934554 129.318003 
L 549.819874 117.840415 
L 551.522744 103.167028 
L 553.408064 151.575592 
L 555.232567 96.233732 
L 557.117887 123.158775 
L 558.94239 88.519348 
L 560.82771 97.119732 
L 562.71303 137.785 
L 564.537534 137.423747 
L 566.422854 155.449282 
L 568.247357 91.256998 
L 570.132677 86.583771 
L 570.132677 86.583771 
" clip-path="url(#p56112739fb)" style="fill: none; stroke-dasharray: 3.7,1.6; stroke-dashoffset: 0; stroke: #000000"/>
   </g>
   <g id="line2d_130">
    <path d="M 62.85995 118.206439 
L 64.74527 121.721898 
L 66.569773 127.644514 
L 68.455093 123.629231 
L 70.279597 103.212153 
L 72.164917 116.583357 
L 74.050237 125.104039 
L 75.87474 119.567654 
L 77.76006 140.32803 
L 79.584563 116.596847 
L 81.469883 118.407697 
L 83.355203 130.100469 
L 85.058073 128.170212 
L 86.943393 130.636543 
L 88.767896 125.637316 
L 90.653216 131.226094 
L 94.36304 130.211594 
L 96.24836 138.822702 
L 98.072863 117.581493 
L 99.958183 125.971762 
L 101.782686 127.448042 
L 103.668006 114.16991 
L 105.553327 125.504865 
L 107.256196 127.062986 
L 109.141516 132.903796 
L 110.96602 122.905899 
L 112.85134 123.584924 
L 114.675843 111.371007 
L 116.561163 111.489755 
L 118.446483 139.607678 
L 120.270986 133.44542 
L 122.156306 117.929934 
L 123.98081 124.237934 
L 125.86613 124.460027 
L 127.75145 121.098582 
L 129.515136 113.48563 
L 131.400456 121.368105 
L 133.22496 120.238088 
L 135.11028 131.199778 
L 136.934783 132.19984 
L 138.820103 119.702032 
L 140.705423 121.853221 
L 142.529926 120.414486 
L 144.415246 115.494177 
L 146.23975 122.927845 
L 148.12507 116.75111 
L 150.01039 119.163922 
L 151.713259 125.163595 
L 153.598579 119.896994 
L 155.423083 129.454845 
L 157.308403 123.876747 
L 159.132906 117.502928 
L 161.018226 117.099194 
L 162.903546 124.549087 
L 164.728049 124.54447 
L 166.613369 122.081685 
L 168.437873 130.527321 
L 170.323193 118.673721 
L 172.208513 118.742614 
L 173.911383 120.364085 
L 175.796703 125.820516 
L 177.621206 123.623618 
L 179.506526 126.415422 
L 181.331029 125.091162 
L 183.216349 126.044115 
L 185.101669 122.379816 
L 186.926173 116.19098 
L 188.811493 116.408949 
L 190.635996 117.497439 
L 192.521316 117.633341 
L 194.406636 118.987857 
L 196.109506 126.013706 
L 197.994826 120.088478 
L 199.819329 123.33428 
L 201.704649 119.297781 
L 203.529152 118.716199 
L 205.414472 127.879898 
L 207.299792 119.962172 
L 209.124296 120.93767 
L 211.009616 115.799967 
L 212.834119 119.548331 
L 214.719439 119.440081 
L 216.604759 122.273255 
L 218.368446 120.454376 
L 220.253766 125.956567 
L 222.078269 120.875192 
L 223.963589 124.622063 
L 225.788092 125.725334 
L 227.673412 129.966842 
L 229.558732 127.697166 
L 231.383236 120.955831 
L 233.268556 123.964784 
L 235.093059 132.522892 
L 236.978379 240.471153 
L 238.863699 121.727419 
L 240.566569 174.617905 
L 242.451889 195.048794 
L 244.276392 147.289809 
L 246.161712 120.755368 
L 247.986216 153.636291 
L 249.871536 107.377693 
L 251.756856 122.161177 
L 253.581359 120.879314 
L 255.466679 120.092008 
L 257.291182 98.957494 
L 259.176502 84.721977 
L 261.061822 97.679763 
L 262.764692 141.060108 
L 264.650012 125.414598 
L 266.474515 115.0583 
L 268.359835 120.60472 
L 270.184339 124.89221 
L 272.069659 125.084639 
L 273.954979 120.823597 
L 275.779482 114.55137 
L 277.664802 120.514668 
L 279.489305 113.299713 
L 281.374625 129.391105 
L 283.259946 130.704175 
L 284.962815 114.605486 
L 286.848135 124.049056 
L 288.672639 120.812246 
L 290.557959 121.888453 
L 292.382462 115.76443 
L 294.267782 126.215975 
L 296.153102 118.569182 
L 297.977605 123.715732 
L 299.862925 117.718829 
L 301.687429 129.40403 
L 303.572749 113.780924 
L 305.458069 120.742179 
L 307.221755 114.314823 
L 309.107075 116.976236 
L 310.931579 129.45276 
L 312.816899 117.231323 
L 314.641402 118.812017 
L 316.526722 118.038041 
L 318.412042 115.878824 
L 320.236545 128.075631 
L 322.121865 117.22563 
L 323.946369 126.386802 
L 325.831689 124.680737 
L 327.717009 123.205995 
L 329.419878 125.894616 
L 331.305198 119.739689 
L 333.129702 118.73635 
L 335.015022 114.573285 
L 336.839525 124.682586 
L 338.724845 135.803736 
L 340.610165 117.61136 
L 342.434668 123.245232 
L 344.319988 122.609325 
L 346.144492 115.760352 
L 348.029812 123.361272 
L 349.915132 126.579689 
L 351.618002 121.34575 
L 353.503322 119.910886 
L 355.327825 120.244317 
L 357.213145 123.803375 
L 359.037648 117.199764 
L 360.922968 121.154249 
L 362.808288 119.110286 
L 364.632792 120.9003 
L 366.518112 124.674704 
L 370.227935 117.057293 
L 372.113255 117.671432 
L 373.816125 114.62684 
L 375.701445 125.941293 
L 377.525948 125.074586 
L 379.411268 118.585478 
L 381.235771 131.49163 
L 383.121091 123.466074 
L 385.006411 121.280905 
L 386.830915 122.357942 
L 388.716235 131.603787 
L 390.540738 113.295177 
L 392.426058 127.873121 
L 394.311378 123.625334 
L 396.075065 130.321907 
L 397.960385 113.651401 
L 399.784888 121.660316 
L 401.670208 115.21474 
L 403.494711 125.593501 
L 405.380031 115.998437 
L 407.265351 112.234028 
L 409.089855 127.764329 
L 410.975175 128.285238 
L 412.799678 128.312092 
L 414.684998 129.783145 
L 416.570318 120.459278 
L 418.273188 118.916383 
L 420.158508 120.620522 
L 421.983011 124.233005 
L 423.868331 119.411368 
L 425.692835 122.103901 
L 427.578155 117.542786 
L 429.463475 127.825582 
L 431.287978 120.325246 
L 433.173298 121.518475 
L 434.997801 125.856884 
L 436.883121 121.340072 
L 438.768441 121.370007 
L 440.471311 122.246718 
L 442.356631 132.567352 
L 444.181134 121.056575 
L 446.066454 126.789609 
L 447.890958 122.187217 
L 449.776278 118.986686 
L 451.661598 121.691273 
L 453.486101 120.575726 
L 455.371421 124.838128 
L 457.195924 132.094197 
L 459.081244 125.693256 
L 460.966565 126.127828 
L 462.669434 117.507825 
L 464.554754 112.390224 
L 466.379258 117.596101 
L 468.264578 116.289364 
L 470.089081 122.275979 
L 471.974401 111.078752 
L 473.859721 104.060088 
L 475.684224 128.729693 
L 477.569544 120.041625 
L 479.394048 125.028005 
L 481.279368 120.832676 
L 483.164688 121.665331 
L 484.928374 117.704835 
L 486.813694 119.425661 
L 488.638198 136.726094 
L 490.523518 105.588076 
L 492.348021 120.110018 
L 494.233341 120.352199 
L 496.118661 112.047614 
L 497.943164 117.462447 
L 499.828484 128.931064 
L 501.652988 128.070769 
L 503.538308 118.114037 
L 505.423628 117.765387 
L 507.126497 123.423648 
L 509.011817 120.271308 
L 510.836321 125.475084 
L 512.721641 113.603424 
L 514.546144 121.475956 
L 516.431464 118.006836 
L 518.316784 113.297413 
L 520.141287 119.265884 
L 522.026607 127.533217 
L 523.851111 123.774297 
L 525.736431 114.899602 
L 527.621751 121.229855 
L 529.324621 128.39082 
L 531.209941 125.642141 
L 533.034444 125.494879 
L 534.919764 127.953082 
L 536.744267 130.060359 
L 538.629587 127.415699 
L 542.339411 113.108325 
L 544.224731 141.130992 
L 546.049234 128.642452 
L 547.934554 113.004342 
L 549.819874 121.744123 
L 551.522744 119.117478 
L 553.408064 124.212196 
L 555.232567 125.689743 
L 557.117887 113.416834 
L 558.94239 127.245894 
L 560.82771 119.171381 
L 562.71303 119.888765 
L 564.537534 130.353089 
L 566.422854 127.099277 
L 568.247357 130.664946 
L 570.132677 113.149011 
L 570.132677 113.149011 
" clip-path="url(#p56112739fb)" style="fill: none; stroke: #0000ff; stroke-linecap: square"/>
   </g>
   <g id="patch_3">
    <path d="M 37.496314 336.24 
L 37.496314 3.6 
" style="fill: none; stroke: #000000; stroke-width: 0.5; stroke-linejoin: miter; stroke-linecap: square"/>
   </g>
   <g id="patch_4">
    <path d="M 595.496314 336.24 
L 595.496314 3.6 
" style="fill: none; stroke: #000000; stroke-width: 0.5; stroke-linejoin: miter; stroke-linecap: square"/>
   </g>
   <g id="patch_5">
    <path d="M 37.496314 336.24 
L 595.496314 336.24 
" style="fill: none; stroke: #000000; stroke-width: 0.5; stroke-linejoin: miter; stroke-linecap: square"/>
   </g>
   <g id="patch_6">
    <path d="M 37.496314 3.6 
L 595.496314 3.6 
" style="fill: none; stroke: #000000; stroke-width: 0.5; stroke-linejoin: miter; stroke-linecap: square"/>
   </g>
   <g id="legend_1">
    <g id="line2d_131">
     <path d="M 48.296314 284.23564 
L 60.296314 284.23564 
L 72.296314 284.23564 
" style="fill: none; stroke-dasharray: 3.7,1.6; stroke-dashoffset: 0; stroke: #000000"/>
    </g>
    <g id="text_14">
     <!-- rendimenti SP 500 -->
     <g transform="translate(81.896314 288.43564) scale(0.12 -0.12)">
      <defs>
       <path id="CMR17-72" d="M 960 1517 
C 960 2134 1222 2713 1702 2713 
C 1747 2713 1792 2707 1837 2687 
C 1837 2687 1696 2642 1696 2475 
C 1696 2321 1818 2257 1914 2257 
C 1990 2257 2131 2302 2131 2482 
C 2131 2687 1926 2816 1709 2816 
C 1222 2816 1011 2340 947 2115 
L 941 2115 
L 941 2816 
L 198 2745 
L 198 2578 
C 576 2578 634 2540 634 2231 
L 634 443 
C 634 198 608 166 198 166 
L 198 0 
C 352 12 646 12 813 12 
C 998 12 1325 12 1498 0 
L 1498 166 
C 1037 166 960 166 960 455 
L 960 1517 
z
" transform="scale(0.015625)"/>
       <path id="CMR17-65" d="M 2438 1503 
C 2464 1529 2464 1542 2464 1606 
C 2464 2251 2118 2816 1389 2816 
C 710 2816 173 2175 173 1394 
C 173 554 781 -64 1459 -64 
C 2176 -64 2458 619 2458 755 
C 2458 800 2419 800 2406 800 
C 2362 800 2355 787 2330 709 
C 2189 270 1837 51 1504 51 
C 1229 51 954 206 781 490 
C 582 819 582 1200 582 1503 
L 2438 1503 
z
M 589 1600 
C 634 2511 1126 2713 1382 2713 
C 1818 2713 2112 2308 2118 1600 
L 589 1600 
z
" transform="scale(0.015625)"/>
       <path id="CMR17-6e" d="M 2656 1954 
C 2656 2282 2592 2816 1837 2816 
C 1331 2816 1069 2424 973 2166 
L 966 2166 
L 966 2816 
L 211 2745 
L 211 2578 
C 589 2578 646 2540 646 2231 
L 646 443 
C 646 198 621 166 211 166 
L 211 0 
C 365 12 646 12 813 12 
C 979 12 1267 12 1421 0 
L 1421 166 
C 1011 166 986 192 986 443 
L 986 1678 
C 986 2269 1344 2713 1792 2713 
C 2266 2713 2317 2289 2317 1980 
L 2317 443 
C 2317 198 2291 166 1882 166 
L 1882 0 
C 2035 12 2317 12 2483 12 
C 2650 12 2938 12 3091 0 
L 3091 166 
C 2682 166 2656 192 2656 443 
L 2656 1954 
z
" transform="scale(0.015625)"/>
       <path id="CMR17-64" d="M 1869 4345 
L 1869 4179 
C 2246 4179 2304 4141 2304 3843 
L 2304 2371 
C 2278 2403 2016 2816 1498 2816 
C 845 2816 211 2228 211 1376 
C 211 529 806 -64 1434 -64 
C 1978 -64 2259 361 2291 406 
L 2291 -64 
L 3066 -13 
L 3066 154 
C 2688 154 2630 193 2630 503 
L 2630 4416 
L 1869 4345 
z
M 2291 762 
C 2291 568 2176 393 2029 264 
C 1811 70 1594 38 1472 38 
C 1286 38 621 135 621 1369 
C 621 2636 1363 2713 1530 2713 
C 1824 2713 2061 2545 2208 2313 
C 2291 2177 2291 2157 2291 2041 
L 2291 762 
z
" transform="scale(0.015625)"/>
       <path id="CMR17-69" d="M 992 3961 
C 992 4102 877 4224 730 4224 
C 589 4224 467 4108 467 3961 
C 467 3820 582 3699 730 3699 
C 870 3699 992 3814 992 3961 
z
M 243 2745 
L 243 2579 
C 602 2579 653 2540 653 2231 
L 653 443 
C 653 198 627 166 218 166 
L 218 0 
C 371 12 646 12 806 12 
C 960 12 1222 12 1370 0 
L 1370 166 
C 992 166 979 205 979 436 
L 979 2816 
L 243 2745 
z
" transform="scale(0.015625)"/>
       <path id="CMR17-6d" d="M 4326 1954 
C 4326 2276 4269 2816 3507 2816 
C 3072 2816 2771 2520 2656 2173 
L 2650 2173 
C 2573 2700 2195 2816 1837 2816 
C 1331 2816 1069 2424 973 2166 
L 966 2166 
L 966 2816 
L 211 2745 
L 211 2578 
C 589 2578 646 2540 646 2231 
L 646 443 
C 646 198 621 166 211 166 
L 211 0 
C 365 12 646 12 813 12 
C 979 12 1267 12 1421 0 
L 1421 166 
C 1011 166 986 192 986 443 
L 986 1678 
C 986 2269 1344 2713 1792 2713 
C 2266 2713 2317 2289 2317 1980 
L 2317 443 
C 2317 198 2291 166 1882 166 
L 1882 0 
C 2035 12 2317 12 2483 12 
C 2650 12 2938 12 3091 0 
L 3091 166 
C 2682 166 2656 192 2656 443 
L 2656 1678 
C 2656 2269 3014 2713 3462 2713 
C 3936 2713 3987 2289 3987 1980 
L 3987 443 
C 3987 198 3962 166 3552 166 
L 3552 0 
C 3706 12 3987 12 4154 12 
C 4320 12 4608 12 4762 0 
L 4762 166 
C 4352 166 4326 192 4326 443 
L 4326 1954 
z
" transform="scale(0.015625)"/>
       <path id="CMR17-74" d="M 966 2585 
L 1862 2585 
L 1862 2752 
L 966 2752 
L 966 3968 
L 851 3968 
C 838 3292 614 2700 70 2687 
L 70 2585 
L 627 2585 
L 627 778 
C 627 655 627 -64 1370 -64 
C 1747 -64 1965 308 1965 784 
L 1965 1151 
L 1850 1151 
L 1850 790 
C 1850 347 1677 51 1408 51 
C 1222 51 966 179 966 765 
L 966 2585 
z
" transform="scale(0.015625)"/>
       <path id="CMR17-53" d="M 2803 4351 
C 2803 4467 2797 4473 2758 4473 
C 2720 4473 2707 4447 2682 4390 
L 2490 3965 
C 2246 4320 1875 4480 1472 4480 
C 819 4480 294 3958 294 3301 
C 294 3101 339 2817 557 2546 
C 794 2250 1018 2198 1530 2063 
C 1722 2011 2042 1927 2106 1901 
C 2470 1747 2662 1360 2662 999 
C 2662 534 2336 38 1779 38 
C 1094 38 454 425 410 1328 
C 403 1431 397 1437 352 1437 
C 301 1437 294 1431 294 1302 
L 294 0 
C 294 -116 301 -122 339 -122 
C 384 -122 397 -90 486 109 
C 493 128 493 141 614 386 
C 934 -39 1472 -128 1779 -128 
C 2477 -128 2970 457 2970 1141 
C 2970 1476 2848 1734 2778 1850 
C 2509 2263 2221 2340 1914 2417 
C 1869 2437 1856 2437 1498 2527 
C 1152 2617 1005 2662 845 2836 
C 666 3036 602 3243 602 3449 
C 602 3868 934 4326 1478 4326 
C 2157 4326 2579 3842 2675 3036 
C 2694 2920 2701 2914 2746 2914 
C 2803 2914 2803 2933 2803 3043 
L 2803 4351 
z
" transform="scale(0.015625)"/>
       <path id="CMR17-50" d="M 1267 2048 
L 2291 2048 
C 3117 2048 3718 2583 3718 3187 
C 3718 3791 3130 4352 2291 4352 
L 333 4352 
L 333 4185 
C 774 4185 845 4185 845 3899 
L 845 453 
C 845 166 774 166 333 166 
L 333 0 
C 518 12 858 12 1056 12 
C 1254 12 1594 12 1779 0 
L 1779 166 
C 1338 166 1267 166 1267 453 
L 1267 2048 
z
M 1254 2182 
L 1254 3937 
C 1254 4153 1267 4185 1523 4185 
L 2170 4185 
C 2995 4185 3232 3715 3232 3187 
C 3232 2608 2950 2182 2170 2182 
L 1254 2182 
z
" transform="scale(0.015625)"/>
      </defs>
      <use xlink:href="#CMR17-72" transform="scale(0.996264)"/>
      <use xlink:href="#CMR17-65" transform="translate(35.280768 0) scale(0.996264)"/>
      <use xlink:href="#CMR17-6e" transform="translate(75.766428 0) scale(0.996264)"/>
      <use xlink:href="#CMR17-64" transform="translate(126.661798 0) scale(0.996264)"/>
      <use xlink:href="#CMR17-69" transform="translate(177.557168 0) scale(0.996264)"/>
      <use xlink:href="#CMR17-6d" transform="translate(202.428226 0) scale(0.996264)"/>
      <use xlink:href="#CMR17-65" transform="translate(279.347816 0) scale(0.996264)"/>
      <use xlink:href="#CMR17-6e" transform="translate(319.833477 0) scale(0.996264)"/>
      <use xlink:href="#CMR17-74" transform="translate(368.126392 0) scale(0.996264)"/>
      <use xlink:href="#CMR17-69" transform="translate(403.40716 0) scale(0.996264)"/>
      <use xlink:href="#CMR17-53" transform="translate(458.354185 0) scale(0.996264)"/>
      <use xlink:href="#CMR17-50" transform="translate(509.249555 0) scale(0.996264)"/>
      <use xlink:href="#CMR17-35" transform="translate(601.911822 0) scale(0.996264)"/>
      <use xlink:href="#CMR17-30" transform="translate(647.602299 0) scale(0.996264)"/>
      <use xlink:href="#CMR17-30" transform="translate(693.292776 0) scale(0.996264)"/>
     </g>
    </g>
    <g id="line2d_132">
     <path d="M 48.296314 301.526612 
L 60.296314 301.526612 
L 72.296314 301.526612 
" style="fill: none; stroke: #0000ff; stroke-linecap: square"/>
    </g>
    <g id="text_15">
     <!-- forecast media pesata (training r2) -->
     <g transform="translate(81.896314 305.726612) scale(0.12 -0.12)">
      <defs>
       <path id="CMR17-66" d="M 979 2585 
L 1709 2585 
L 1709 2752 
L 966 2752 
L 966 3539 
C 966 4076 1235 4377 1510 4377 
C 1594 4377 1690 4363 1754 4339 
C 1702 4326 1568 4281 1568 4121 
C 1568 3955 1696 3904 1786 3904 
C 1875 3904 2003 3955 2003 4121 
C 2003 4353 1773 4480 1517 4480 
C 1152 4480 653 4211 653 3526 
L 653 2752 
L 141 2752 
L 141 2585 
L 653 2585 
L 653 441 
C 653 198 627 166 218 166 
L 218 0 
C 371 12 666 12 832 12 
C 1018 12 1344 12 1517 0 
L 1517 166 
C 1056 166 979 166 979 454 
L 979 2585 
z
" transform="scale(0.015625)"/>
       <path id="CMR17-6f" d="M 2758 1356 
C 2758 2176 2163 2816 1466 2816 
C 768 2816 173 2176 173 1356 
C 173 550 768 -64 1466 -64 
C 2163 -64 2758 550 2758 1356 
z
M 1466 51 
C 1165 51 909 230 762 480 
C 602 768 582 1126 582 1408 
C 582 1676 595 2009 762 2297 
C 890 2508 1139 2713 1466 2713 
C 1754 2713 1997 2553 2150 2329 
C 2349 2028 2349 1606 2349 1408 
C 2349 1158 2336 774 2163 467 
C 1984 172 1709 51 1466 51 
z
" transform="scale(0.015625)"/>
       <path id="CMR17-63" d="M 2234 2240 
C 2112 2240 1933 2240 1933 2015 
C 1933 1836 2080 1785 2163 1785 
C 2208 1785 2394 1804 2394 2028 
C 2394 2476 1958 2816 1466 2816 
C 787 2816 211 2201 211 1379 
C 211 521 813 -64 1466 -64 
C 2259 -64 2458 676 2458 747 
C 2458 773 2451 792 2406 792 
C 2362 792 2355 786 2330 702 
C 2163 180 1798 51 1523 51 
C 1114 51 621 431 621 1385 
C 621 2358 1094 2700 1472 2700 
C 1722 2700 2093 2582 2234 2240 
z
" transform="scale(0.015625)"/>
       <path id="CMR17-61" d="M 2304 1656 
C 2304 2048 2304 2275 2035 2534 
C 1798 2751 1523 2816 1306 2816 
C 800 2816 435 2408 435 1977 
C 435 1740 627 1728 666 1728 
C 749 1728 896 1779 896 1958 
C 896 2118 774 2188 666 2188 
C 640 2188 608 2182 589 2176 
C 723 2594 1069 2713 1293 2713 
C 1613 2713 1965 2421 1965 1875 
L 1965 1632 
C 1587 1619 1133 1568 774 1373 
C 371 1147 256 822 256 576 
C 256 77 832 -64 1171 -64 
C 1523 -64 1850 135 1990 505 
C 2003 219 2182 -39 2464 -39 
C 2598 -39 2938 51 2938 563 
L 2938 926 
L 2822 926 
L 2822 557 
C 2822 161 2650 109 2566 109 
C 2304 109 2304 446 2304 732 
L 2304 1656 
z
M 1965 887 
C 1965 323 1568 38 1216 38 
C 896 38 646 278 646 576 
C 646 771 730 1114 1101 1322 
C 1408 1497 1760 1523 1965 1536 
L 1965 887 
z
" transform="scale(0.015625)"/>
       <path id="CMR17-73" d="M 1978 2688 
C 1978 2803 1971 2809 1933 2809 
C 1907 2809 1901 2803 1824 2707 
C 1805 2681 1747 2617 1728 2592 
C 1523 2809 1235 2816 1126 2816 
C 416 2816 160 2444 160 2073 
C 160 1497 813 1363 998 1324 
C 1402 1241 1542 1216 1677 1100 
C 1760 1024 1901 883 1901 652 
C 1901 384 1747 38 1158 38 
C 602 38 403 460 288 1024 
C 269 1113 269 1120 218 1120 
C 166 1120 160 1113 160 985 
L 160 64 
C 160 -52 166 -58 205 -58 
C 237 -58 243 -52 275 0 
C 314 57 410 211 448 275 
C 576 102 800 -64 1158 -64 
C 1792 -64 2131 281 2131 780 
C 2131 1107 1958 1280 1875 1356 
C 1683 1555 1459 1600 1190 1651 
C 838 1728 390 1817 390 2208 
C 390 2374 480 2726 1126 2726 
C 1811 2726 1850 2086 1862 1881 
C 1869 1849 1901 1843 1920 1843 
C 1978 1843 1978 1862 1978 1971 
L 1978 2688 
z
" transform="scale(0.015625)"/>
       <path id="CMR17-70" d="M 1408 -1114 
C 998 -1114 973 -1088 973 -834 
L 973 380 
C 1158 109 1427 -64 1766 -64 
C 2406 -64 3053 503 3053 1382 
C 3053 2196 2496 2816 1837 2816 
C 1453 2816 1139 2603 960 2345 
L 960 2816 
L 198 2745 
L 198 2577 
C 576 2577 634 2539 634 2228 
L 634 -834 
C 634 -1081 608 -1114 198 -1114 
L 198 -1280 
C 352 -1268 634 -1268 800 -1268 
C 966 -1268 1254 -1268 1408 -1280 
L 1408 -1114 
z
M 973 2015 
C 973 2106 973 2241 1222 2481 
C 1254 2506 1472 2700 1792 2700 
C 2259 2700 2643 2112 2643 1376 
C 2643 639 2234 38 1728 38 
C 1498 38 1248 148 1056 451 
C 973 594 973 632 973 736 
L 973 2015 
z
" transform="scale(0.015625)"/>
       <path id="CMR17-28" d="M 1958 -1562 
C 1958 -1556 1958 -1543 1939 -1524 
C 1645 -1223 858 -403 858 1596 
C 858 3595 1632 4408 1946 4729 
C 1946 4735 1958 4748 1958 4767 
C 1958 4787 1939 4800 1914 4800 
C 1843 4800 1299 4325 986 3620 
C 666 2909 576 2218 576 1603 
C 576 1141 621 360 1005 -467 
C 1312 -1133 1837 -1600 1914 -1600 
C 1946 -1600 1958 -1588 1958 -1562 
z
" transform="scale(0.015625)"/>
       <path id="CMR17-67" d="M 710 1165 
C 832 1068 1043 960 1299 960 
C 1805 960 2240 1359 2240 1895 
C 2240 2063 2189 2321 1997 2521 
C 2176 2713 2438 2777 2586 2777 
C 2611 2777 2650 2777 2682 2758 
C 2656 2751 2598 2726 2598 2623 
C 2598 2540 2656 2483 2739 2483 
C 2835 2483 2886 2547 2886 2630 
C 2886 2751 2790 2880 2586 2880 
C 2330 2880 2106 2758 1926 2591 
C 1734 2764 1504 2828 1299 2828 
C 794 2828 358 2431 358 1895 
C 358 1527 570 1294 634 1230 
C 442 1004 442 742 442 710 
C 442 544 506 300 723 166 
C 390 82 128 -184 128 -517 
C 128 -996 736 -1344 1466 -1344 
C 2170 -1344 2803 -1009 2803 -510 
C 2803 384 1856 384 1363 384 
C 1216 384 954 384 922 390 
C 723 422 589 601 589 825 
C 589 883 589 1024 710 1165 
z
M 1299 1068 
C 736 1068 736 1766 736 1895 
C 736 2024 736 2719 1299 2719 
C 1862 2719 1862 2024 1862 1895 
C 1862 1766 1862 1068 1299 1068 
z
M 1466 -1236 
C 826 -1236 384 -883 384 -517 
C 384 -311 493 -118 634 -11 
C 794 102 858 102 1293 102 
C 1818 102 2547 102 2547 -517 
C 2547 -883 2106 -1236 1466 -1236 
z
" transform="scale(0.015625)"/>
       <path id="CMR17-29" d="M 1683 1596 
C 1683 2057 1638 2839 1254 3665 
C 947 4332 422 4800 346 4800 
C 326 4800 301 4793 301 4761 
C 301 4748 307 4742 314 4729 
C 621 4408 1402 3595 1402 1603 
C 1402 -396 627 -1210 314 -1530 
C 307 -1543 301 -1549 301 -1562 
C 301 -1594 326 -1600 346 -1600 
C 416 -1600 960 -1127 1274 -422 
C 1594 289 1683 981 1683 1596 
z
" transform="scale(0.015625)"/>
      </defs>
      <use xlink:href="#CMR17-66" transform="scale(0.996264)"/>
      <use xlink:href="#CMR17-6f" transform="translate(27.473512 0) scale(0.996264)"/>
      <use xlink:href="#CMR17-72" transform="translate(73.16399 0) scale(0.996264)"/>
      <use xlink:href="#CMR17-65" transform="translate(108.444757 0) scale(0.996264)"/>
      <use xlink:href="#CMR17-63" transform="translate(148.930418 0) scale(0.996264)"/>
      <use xlink:href="#CMR17-61" transform="translate(189.416078 0) scale(0.996264)"/>
      <use xlink:href="#CMR17-73" transform="translate(235.106555 0) scale(0.996264)"/>
      <use xlink:href="#CMR17-74" transform="translate(270.907893 0) scale(0.996264)"/>
      <use xlink:href="#CMR17-6d" transform="translate(336.264627 0) scale(0.996264)"/>
      <use xlink:href="#CMR17-65" transform="translate(413.184217 0) scale(0.996264)"/>
      <use xlink:href="#CMR17-64" transform="translate(453.669877 0) scale(0.996264)"/>
      <use xlink:href="#CMR17-69" transform="translate(504.565247 0) scale(0.996264)"/>
      <use xlink:href="#CMR17-61" transform="translate(529.436306 0) scale(0.996264)"/>
      <use xlink:href="#CMR17-70" transform="translate(605.202749 0) scale(0.996264)"/>
      <use xlink:href="#CMR17-65" transform="translate(658.700558 0) scale(0.996264)"/>
      <use xlink:href="#CMR17-73" transform="translate(699.186218 0) scale(0.996264)"/>
      <use xlink:href="#CMR17-61" transform="translate(734.987556 0) scale(0.996264)"/>
      <use xlink:href="#CMR17-74" transform="translate(780.678033 0) scale(0.996264)"/>
      <use xlink:href="#CMR17-61" transform="translate(815.958801 0) scale(0.996264)"/>
      <use xlink:href="#CMR17-28" transform="translate(891.725244 0) scale(0.996264)"/>
      <use xlink:href="#CMR17-74" transform="translate(927.006012 0) scale(0.996264)"/>
      <use xlink:href="#CMR17-72" transform="translate(962.28678 0) scale(0.996264)"/>
      <use xlink:href="#CMR17-61" transform="translate(997.567548 0) scale(0.996264)"/>
      <use xlink:href="#CMR17-69" transform="translate(1043.258025 0) scale(0.996264)"/>
      <use xlink:href="#CMR17-6e" transform="translate(1068.129083 0) scale(0.996264)"/>
      <use xlink:href="#CMR17-69" transform="translate(1119.024453 0) scale(0.996264)"/>
      <use xlink:href="#CMR17-6e" transform="translate(1143.895511 0) scale(0.996264)"/>
      <use xlink:href="#CMR17-67" transform="translate(1194.790881 0) scale(0.996264)"/>
      <use xlink:href="#CMR17-72" transform="translate(1270.557325 0) scale(0.996264)"/>
      <use xlink:href="#CMR17-32" transform="translate(1305.838093 0) scale(0.996264)"/>
      <use xlink:href="#CMR17-29" transform="translate(1351.52857 0) scale(0.996264)"/>
     </g>
    </g>
    <g id="patch_7">
     <path d="M 48.296314 323.115404 
L 72.296314 323.115404 
L 72.296314 314.715404 
L 48.296314 314.715404 
z
" style="fill: #808080; fill-opacity: 0.3; stroke: #808080; stroke-opacity: 0.3; stroke-linejoin: miter"/>
    </g>
    <g id="text_16">
     <!-- 99 perc. confidence interval forecast weighted r2 -->
     <g transform="translate(81.896314 323.115404) scale(0.12 -0.12)">
      <defs>
       <path id="CMR17-39" d="M 2253 1871 
C 2253 448 1670 25 1190 25 
C 1043 25 685 43 538 281 
C 704 256 826 345 826 505 
C 826 678 685 736 595 736 
C 538 736 365 710 365 492 
C 365 68 742 -128 1203 -128 
C 1939 -128 2688 665 2688 2090 
C 2688 3857 1971 4224 1485 4224 
C 851 4224 243 3664 243 2800 
C 243 2000 762 1408 1414 1408 
C 1952 1408 2189 1910 2253 2122 
L 2253 1871 
z
M 1427 1510 
C 1254 1510 1011 1542 813 1929 
C 678 2181 678 2477 678 2793 
C 678 3174 678 3438 858 3722 
C 947 3857 1114 4076 1485 4076 
C 2240 4076 2240 2909 2240 2651 
C 2240 2193 2035 1510 1427 1510 
z
" transform="scale(0.015625)"/>
       <path id="CMR17-2e" d="M 1062 262 
C 1062 422 934 524 800 524 
C 672 524 538 422 538 262 
C 538 102 666 0 800 0 
C 928 0 1062 102 1062 262 
z
" transform="scale(0.015625)"/>
       <path id="CMR17-c" d="M 2554 2816 
C 2400 2809 1926 2777 1805 2764 
C 1766 2758 1754 2758 1677 2758 
L 947 2758 
L 947 3517 
C 947 4127 1434 4416 1818 4416 
C 1939 4416 2214 4383 2355 4160 
C 2291 4160 2086 4160 2086 3935 
C 2086 3782 2189 3705 2317 3705 
C 2432 3705 2547 3769 2547 3942 
C 2547 4265 2240 4518 1843 4518 
C 1338 4518 634 4225 634 3517 
L 634 2758 
L 122 2758 
L 122 2591 
L 634 2591 
L 634 442 
C 634 198 608 166 198 166 
L 198 0 
C 352 12 634 12 794 12 
C 960 12 1242 12 1395 0 
L 1395 166 
C 986 166 960 192 960 442 
L 960 2591 
L 1901 2591 
C 2176 2591 2227 2534 2227 2251 
L 2227 442 
C 2227 198 2202 166 1792 166 
L 1792 0 
C 1946 12 2227 12 2387 12 
C 2554 12 2835 12 2989 0 
L 2989 166 
C 2579 166 2554 192 2554 442 
L 2554 2816 
z
" transform="scale(0.015625)"/>
       <path id="CMR17-76" d="M 2502 2173 
C 2560 2315 2662 2572 3034 2585 
L 3034 2752 
C 2912 2745 2752 2739 2630 2739 
C 2496 2739 2285 2739 2157 2752 
L 2157 2585 
C 2317 2572 2406 2495 2406 2328 
C 2406 2270 2406 2257 2368 2167 
L 1664 379 
L 902 2308 
C 864 2392 864 2405 864 2431 
C 864 2585 1075 2585 1171 2585 
L 1171 2752 
C 1018 2739 736 2739 576 2739 
C 403 2739 205 2739 64 2752 
L 64 2585 
C 307 2585 442 2585 518 2386 
L 1446 44 
C 1485 -52 1491 -64 1549 -64 
C 1606 -64 1613 -52 1651 44 
L 2502 2173 
z
" transform="scale(0.015625)"/>
       <path id="CMR17-6c" d="M 979 4416 
L 218 4345 
L 218 4179 
C 595 4179 653 4141 653 3835 
L 653 439 
C 653 198 627 166 218 166 
L 218 0 
C 371 12 653 12 813 12 
C 979 12 1261 12 1414 0 
L 1414 166 
C 1005 166 979 191 979 439 
L 979 4416 
z
" transform="scale(0.015625)"/>
       <path id="CMR17-77" d="M 3725 2186 
C 3853 2566 4109 2579 4205 2585 
L 4205 2752 
C 4077 2745 3949 2739 3821 2739 
C 3699 2739 3424 2739 3315 2752 
L 3315 2585 
C 3514 2572 3622 2456 3622 2296 
C 3622 2251 3610 2193 3597 2148 
L 2995 398 
L 2342 2296 
C 2330 2341 2310 2392 2310 2418 
C 2310 2585 2528 2585 2630 2585 
L 2630 2752 
C 2483 2739 2214 2739 2061 2739 
C 1901 2739 1734 2739 1587 2752 
L 1587 2585 
C 1939 2585 1939 2572 2074 2167 
L 1485 443 
L 851 2302 
C 819 2386 819 2399 819 2418 
C 819 2585 1037 2585 1139 2585 
L 1139 2752 
C 986 2739 717 2739 557 2739 
C 416 2739 198 2739 64 2752 
L 64 2585 
C 346 2585 416 2566 486 2353 
L 1274 38 
C 1299 -45 1318 -64 1370 -64 
C 1414 -64 1440 -52 1472 44 
L 2131 1987 
L 2797 44 
C 2829 -52 2854 -64 2899 -64 
C 2950 -64 2970 -45 2995 38 
L 3725 2186 
z
" transform="scale(0.015625)"/>
       <path id="CMR17-68" d="M 2656 1954 
C 2656 2282 2592 2816 1837 2816 
C 1312 2816 1056 2392 979 2179 
L 973 2179 
L 973 4416 
L 211 4345 
L 211 4179 
C 589 4179 646 4141 646 3843 
L 646 443 
C 646 198 621 166 211 166 
L 211 0 
C 365 12 646 12 813 12 
C 979 12 1267 12 1421 0 
L 1421 166 
C 1011 166 986 192 986 443 
L 986 1678 
C 986 2269 1344 2713 1792 2713 
C 2266 2713 2317 2289 2317 1980 
L 2317 443 
C 2317 198 2291 166 1882 166 
L 1882 0 
C 2035 12 2317 12 2483 12 
C 2650 12 2938 12 3091 0 
L 3091 166 
C 2682 166 2656 192 2656 443 
L 2656 1954 
z
" transform="scale(0.015625)"/>
      </defs>
      <use xlink:href="#CMR17-39" transform="scale(0.996264)"/>
      <use xlink:href="#CMR17-39" transform="translate(45.690477 0) scale(0.996264)"/>
      <use xlink:href="#CMR17-70" transform="translate(121.456921 0) scale(0.996264)"/>
      <use xlink:href="#CMR17-65" transform="translate(174.954729 0) scale(0.996264)"/>
      <use xlink:href="#CMR17-72" transform="translate(215.44039 0) scale(0.996264)"/>
      <use xlink:href="#CMR17-63" transform="translate(250.721157 0) scale(0.996264)"/>
      <use xlink:href="#CMR17-2e" transform="translate(291.206818 0) scale(0.996264)"/>
      <use xlink:href="#CMR17-63" transform="translate(356.563537 0) scale(0.996264)"/>
      <use xlink:href="#CMR17-6f" transform="translate(397.049197 0) scale(0.996264)"/>
      <use xlink:href="#CMR17-6e" transform="translate(442.739674 0) scale(0.996264)"/>
      <use xlink:href="#CMR17-c" transform="translate(493.635044 0) scale(0.996264)"/>
      <use xlink:href="#CMR17-64" transform="translate(543.377267 0) scale(0.996264)"/>
      <use xlink:href="#CMR17-65" transform="translate(594.272637 0) scale(0.996264)"/>
      <use xlink:href="#CMR17-6e" transform="translate(634.758298 0) scale(0.996264)"/>
      <use xlink:href="#CMR17-63" transform="translate(685.653668 0) scale(0.996264)"/>
      <use xlink:href="#CMR17-65" transform="translate(726.139328 0) scale(0.996264)"/>
      <use xlink:href="#CMR17-69" transform="translate(796.700955 0) scale(0.996264)"/>
      <use xlink:href="#CMR17-6e" transform="translate(821.572013 0) scale(0.996264)"/>
      <use xlink:href="#CMR17-74" transform="translate(869.864929 0) scale(0.996264)"/>
      <use xlink:href="#CMR17-65" transform="translate(905.145697 0) scale(0.996264)"/>
      <use xlink:href="#CMR17-72" transform="translate(945.631357 0) scale(0.996264)"/>
      <use xlink:href="#CMR17-76" transform="translate(980.912125 0) scale(0.996264)"/>
      <use xlink:href="#CMR17-61" transform="translate(1024.000224 0) scale(0.996264)"/>
      <use xlink:href="#CMR17-6c" transform="translate(1069.690701 0) scale(0.996264)"/>
      <use xlink:href="#CMR17-66" transform="translate(1124.637726 0) scale(0.996264)"/>
      <use xlink:href="#CMR17-6f" transform="translate(1152.111239 0) scale(0.996264)"/>
      <use xlink:href="#CMR17-72" transform="translate(1197.801716 0) scale(0.996264)"/>
      <use xlink:href="#CMR17-65" transform="translate(1233.082484 0) scale(0.996264)"/>
      <use xlink:href="#CMR17-63" transform="translate(1273.568144 0) scale(0.996264)"/>
      <use xlink:href="#CMR17-61" transform="translate(1314.053805 0) scale(0.996264)"/>
      <use xlink:href="#CMR17-73" transform="translate(1359.744282 0) scale(0.996264)"/>
      <use xlink:href="#CMR17-74" transform="translate(1395.545619 0) scale(0.996264)"/>
      <use xlink:href="#CMR17-77" transform="translate(1460.902353 0) scale(0.996264)"/>
      <use xlink:href="#CMR17-65" transform="translate(1524.80978 0) scale(0.996264)"/>
      <use xlink:href="#CMR17-69" transform="translate(1565.295441 0) scale(0.996264)"/>
      <use xlink:href="#CMR17-67" transform="translate(1590.166499 0) scale(0.996264)"/>
      <use xlink:href="#CMR17-68" transform="translate(1635.856976 0) scale(0.996264)"/>
      <use xlink:href="#CMR17-74" transform="translate(1684.149892 0) scale(0.996264)"/>
      <use xlink:href="#CMR17-65" transform="translate(1719.43066 0) scale(0.996264)"/>
      <use xlink:href="#CMR17-64" transform="translate(1759.91632 0) scale(0.996264)"/>
      <use xlink:href="#CMR17-72" transform="translate(1840.887656 0) scale(0.996264)"/>
      <use xlink:href="#CMR17-32" transform="translate(1876.168424 0) scale(0.996264)"/>
     </g>
    </g>
   </g>
  </g>
 </g>
 <defs>
  <clipPath id="p56112739fb">
   <rect x="37.496314" y="3.6" width="558" height="332.64"/>
  </clipPath>
 </defs>
</svg>
