<?xml version="1.0" encoding="utf-8" standalone="no"?>
<!DOCTYPE svg PUBLIC "-//W3C//DTD SVG 1.1//EN"
  "http://www.w3.org/Graphics/SVG/1.1/DTD/svg11.dtd">
<svg xmlns:xlink="http://www.w3.org/1999/xlink" width="605.252382pt" height="361.05263pt" viewBox="0 0 605.252382 361.05263" xmlns="http://www.w3.org/2000/svg" version="1.1">
 <metadata>
  <rdf:RDF xmlns:dc="http://purl.org/dc/elements/1.1/" xmlns:cc="http://creativecommons.org/ns#" xmlns:rdf="http://www.w3.org/1999/02/22-rdf-syntax-ns#">
   <cc:Work>
    <dc:type rdf:resource="http://purl.org/dc/dcmitype/StillImage"/>
    <dc:date>2025-04-07T20:52:44.492892</dc:date>
    <dc:format>image/svg+xml</dc:format>
    <dc:creator>
     <cc:Agent>
      <dc:title>Matplotlib v3.9.2, https://matplotlib.org/</dc:title>
     </cc:Agent>
    </dc:creator>
   </cc:Work>
  </rdf:RDF>
 </metadata>
 <defs>
  <style type="text/css">*{stroke-linejoin: round; stroke-linecap: butt}</style>
 </defs>
 <g id="figure_1">
  <g id="patch_1">
   <path d="M 0 361.05263 
L 605.252382 361.05263 
L 605.252382 0 
L 0 0 
z
" style="fill: #ffffff"/>
  </g>
  <g id="axes_1">
   <g id="patch_2">
    <path d="M 43.652382 336.24 
L 601.652382 336.24 
L 601.652382 3.6 
L 43.652382 3.6 
z
" style="fill: #ffffff"/>
   </g>
   <g id="PolyCollection_1">
    <defs>
     <path id="m7348208e8b" d="M 69.016018 -93.524813 
L 69.016018 -76.25321 
L 70.901338 -73.674829 
L 72.725841 -65.343131 
L 74.611161 -65.964105 
L 76.435665 -72.417183 
L 78.320985 -69.587513 
L 80.206305 -66.99728 
L 82.030808 -66.577074 
L 83.916128 -56.006236 
L 85.740631 -60.988587 
L 87.625951 -63.753355 
L 89.511272 -63.348856 
L 91.214141 -64.008179 
L 93.099461 -61.236601 
L 94.923965 -64.756428 
L 96.809285 -61.805407 
L 98.633788 -59.924142 
L 100.519108 -55.844859 
L 102.404428 -48.572574 
L 104.228931 -51.146111 
L 106.114251 -47.507466 
L 107.938755 -46.181081 
L 109.824075 -50.667352 
L 111.709395 -49.109107 
L 113.412264 -49.258391 
L 115.297584 -45.052332 
L 117.122088 -46.544359 
L 119.007408 -49.396536 
L 120.831911 -53.32556 
L 122.717231 -56.38974 
L 124.602551 -53.743394 
L 126.427054 -54.182713 
L 128.312375 -58.048609 
L 130.136878 -58.302585 
L 132.022198 -59.482411 
L 133.907518 -61.568661 
L 135.671204 -64.783396 
L 137.556524 -64.44366 
L 139.381028 -63.349896 
L 141.266348 -63.508148 
L 143.090851 -61.13312 
L 144.976171 -65.050651 
L 146.861491 -62.07442 
L 148.685994 -61.382399 
L 150.571314 -63.772559 
L 152.395818 -62.705148 
L 154.281138 -67.002726 
L 156.166458 -67.965675 
L 157.869328 -66.441767 
L 159.754648 -68.302811 
L 161.579151 -66.80057 
L 163.464471 -65.553292 
L 165.288974 -67.252251 
L 167.174294 -68.815179 
L 169.059614 -68.906105 
L 170.884118 -69.419777 
L 172.769438 -69.646372 
L 174.593941 -66.719396 
L 176.479261 -71.417471 
L 178.364581 -72.105996 
L 180.067451 -72.949234 
L 181.952771 -72.267221 
L 183.777274 -73.715754 
L 185.662594 -73.514925 
L 187.487097 -73.204761 
L 189.372417 -70.726333 
L 191.257737 -71.904993 
L 193.082241 -73.957236 
L 194.967561 -75.886577 
L 196.792064 -78.67157 
L 198.677384 -80.126064 
L 200.562704 -81.790494 
L 202.265574 -81.353317 
L 204.150894 -83.3807 
L 205.975397 -80.38979 
L 207.860717 -85.083968 
L 209.685221 -87.770944 
L 211.570541 -86.564798 
L 213.455861 -87.719552 
L 215.280364 -83.25589 
L 217.165684 -87.234332 
L 218.990187 -89.588962 
L 220.875507 -83.266261 
L 222.760827 -85.015492 
L 224.524514 -78.046202 
L 226.409834 -77.011969 
L 228.234337 -74.638412 
L 230.119657 -78.097322 
L 231.944161 -79.649004 
L 233.829481 -74.427608 
L 235.714801 -70.354136 
L 237.539304 -73.465274 
L 239.424624 -68.480569 
L 241.249127 -50.101663 
L 243.134447 -47.461341 
L 245.019767 -47.296795 
L 246.722637 -46.170558 
L 248.607957 -41.905339 
L 250.43246 -39.93263 
L 252.31778 -49.194363 
L 254.142284 -49.736733 
L 256.027604 -51.478127 
L 257.912924 -52.106191 
L 259.737427 -57.584897 
L 261.622747 -59.579269 
L 263.44725 -60.899854 
L 265.33257 -63.159262 
L 267.217891 -64.201484 
L 268.92076 -63.981432 
L 270.80608 -60.999918 
L 272.630584 -66.112719 
L 274.515904 -68.433262 
L 276.340407 -62.968989 
L 278.225727 -60.746779 
L 280.111047 -60.635781 
L 281.93555 -61.386302 
L 283.82087 -63.806828 
L 285.645374 -67.015807 
L 287.530694 -68.03838 
L 289.416014 -70.38708 
L 291.118883 -73.865878 
L 293.004203 -75.712264 
L 294.828707 -74.171801 
L 296.714027 -76.561634 
L 298.53853 -76.512027 
L 300.42385 -73.035044 
L 302.30917 -76.415835 
L 304.133673 -64.577249 
L 306.018994 -66.802938 
L 307.843497 -68.700102 
L 309.728817 -69.956375 
L 311.614137 -70.874197 
L 313.377823 -75.094359 
L 315.263143 -77.984363 
L 317.087647 -79.529232 
L 318.972967 -79.315252 
L 320.79747 -76.680731 
L 322.68279 -75.763281 
L 324.56811 -78.649908 
L 326.392613 -80.677072 
L 328.277933 -83.684852 
L 330.102437 -82.092304 
L 331.987757 -79.487669 
L 333.873077 -82.067676 
L 335.575947 -85.355177 
L 337.461267 -87.739502 
L 339.28577 -90.159714 
L 341.17109 -91.162613 
L 342.995593 -95.474077 
L 344.880913 -92.326633 
L 346.766233 -97.587456 
L 348.590737 -96.415232 
L 350.476057 -97.665675 
L 352.30056 -100.491827 
L 354.18588 -104.234471 
L 356.0712 -104.957473 
L 357.77407 -105.889247 
L 359.65939 -105.645319 
L 361.483893 -109.370814 
L 363.369213 -108.24914 
L 365.193716 -110.554041 
L 367.079036 -114.412915 
L 368.964356 -115.593361 
L 370.78886 -114.404133 
L 372.67418 -116.804429 
L 374.498683 -112.697265 
L 376.384003 -121.146897 
L 378.269323 -120.226224 
L 379.972193 -119.097595 
L 381.857513 -122.608577 
L 383.682016 -121.346793 
L 385.567336 -122.709996 
L 387.39184 -122.995159 
L 389.27716 -122.669729 
L 391.16248 -122.635359 
L 392.986983 -119.123841 
L 394.872303 -112.651586 
L 396.696806 -119.792759 
L 398.582126 -122.179847 
L 400.467446 -119.977862 
L 402.231133 -110.932163 
L 404.116453 -111.561311 
L 405.940956 -119.459347 
L 407.826276 -122.553728 
L 409.65078 -120.509316 
L 411.5361 -122.255222 
L 413.42142 -127.70251 
L 415.245923 -126.798177 
L 417.131243 -126.00075 
L 418.955746 -125.156685 
L 420.841066 -126.268374 
L 422.726386 -133.002924 
L 424.429256 -134.281881 
L 426.314576 -137.978388 
L 428.139079 -139.593383 
L 430.024399 -138.733321 
L 431.848903 -141.607799 
L 433.734223 -144.152458 
L 435.619543 -144.196345 
L 437.444046 -144.653107 
L 439.329366 -147.598116 
L 441.153869 -151.594845 
L 443.039189 -153.782986 
L 444.92451 -158.691394 
L 446.627379 -166.305969 
L 448.512699 -158.419882 
L 450.337203 -160.017373 
L 452.222523 -156.428408 
L 454.047026 -160.971938 
L 455.932346 -164.076456 
L 457.817666 -165.959935 
L 459.642169 -170.556362 
L 461.527489 -172.395534 
L 463.351993 -163.802896 
L 465.237313 -160.526351 
L 467.122633 -150.701836 
L 468.825502 -155.067909 
L 470.710822 -165.408674 
L 472.535326 -167.198492 
L 474.420646 -173.914217 
L 476.245149 -168.790732 
L 478.130469 -173.163998 
L 480.015789 -181.595491 
L 481.840292 -171.060185 
L 483.725613 -178.690102 
L 485.550116 -176.05451 
L 487.435436 -186.193151 
L 489.320756 -190.131618 
L 491.084442 -196.293668 
L 492.969762 -193.743956 
L 494.794266 -151.453792 
L 496.679586 -177.21877 
L 498.504089 -174.551538 
L 500.389409 -185.442028 
L 502.274729 -192.722201 
L 504.099232 -204.181834 
L 505.984552 -198.86735 
L 507.809056 -203.496187 
L 509.694376 -213.523572 
L 511.579696 -222.476455 
L 513.282566 -226.800014 
L 515.167886 -234.154765 
L 516.992389 -233.235664 
L 518.877709 -251.199461 
L 520.702212 -249.277228 
L 522.587532 -254.879486 
L 524.472852 -264.275722 
L 526.297356 -268.75364 
L 528.182676 -265.353342 
L 530.007179 -266.899496 
L 531.892499 -283.015522 
L 533.777819 -279.550113 
L 535.480689 -273.353486 
L 537.366009 -264.39825 
L 539.190512 -262.146935 
L 541.075832 -261.633813 
L 542.900335 -238.942546 
L 544.785655 -232.0154 
L 546.670975 -233.331478 
L 548.495479 -252.253988 
L 550.380799 -225.4144 
L 552.205302 -220.672797 
L 554.090622 -237.435818 
L 555.975942 -232.861776 
L 557.678812 -237.749876 
L 559.564132 -245.164064 
L 561.388635 -236.125741 
L 563.273955 -248.924982 
L 565.098459 -246.752263 
L 566.983779 -262.579827 
L 568.869099 -271.854685 
L 570.693602 -265.140108 
L 572.578922 -263.012687 
L 574.403425 -254.016853 
L 576.288745 -270.432345 
L 576.288745 -327.140248 
L 576.288745 -327.140248 
L 574.403425 -307.347927 
L 572.578922 -318.200302 
L 570.693602 -320.7735 
L 568.869099 -328.891655 
L 566.983779 -317.719772 
L 565.098459 -298.630082 
L 563.273955 -301.269221 
L 561.388635 -285.841747 
L 559.564132 -296.758165 
L 557.678812 -287.82318 
L 555.975942 -281.941275 
L 554.090622 -287.469365 
L 552.205302 -267.243589 
L 550.380799 -272.974191 
L 548.495479 -305.2348 
L 546.670975 -282.392754 
L 544.785655 -280.822781 
L 542.900335 -289.183682 
L 541.075832 -316.465297 
L 539.190512 -317.107364 
L 537.366009 -319.840055 
L 535.480689 -330.642502 
L 533.777819 -338.132824 
L 531.892499 -342.33263 
L 530.007179 -322.89766 
L 528.182676 -321.052233 
L 526.297356 -325.171395 
L 524.472852 -319.790893 
L 522.587532 -308.472616 
L 520.702212 -301.729575 
L 518.877709 -304.066393 
L 516.992389 -282.382485 
L 515.167886 -283.504637 
L 513.282566 -274.652741 
L 511.579696 -269.452042 
L 509.694376 -258.660903 
L 507.809056 -246.557671 
L 505.984552 -240.988875 
L 504.099232 -247.412552 
L 502.274729 -233.575439 
L 500.389409 -224.796683 
L 498.504089 -211.643482 
L 496.679586 -214.815396 
L 494.794266 -183.692495 
L 492.969762 -234.343537 
L 491.084442 -237.439443 
L 489.320756 -230.01536 
L 487.435436 -225.288224 
L 485.550116 -213.070602 
L 483.725613 -216.261087 
L 481.840292 -207.082186 
L 480.015789 -219.770848 
L 478.130469 -209.616838 
L 476.245149 -204.363393 
L 474.420646 -210.539304 
L 472.535326 -202.456694 
L 470.710822 -200.313789 
L 468.825502 -187.845523 
L 467.122633 -182.600217 
L 465.237313 -194.420982 
L 463.351993 -198.36854 
L 461.527489 -208.721913 
L 459.642169 -206.52026 
L 457.817666 -200.989914 
L 455.932346 -198.72964 
L 454.047026 -194.999614 
L 452.222523 -189.541079 
L 450.337203 -193.872492 
L 448.512699 -191.961879 
L 446.627379 -201.465176 
L 444.92451 -192.284101 
L 443.039189 -186.377799 
L 441.153869 -183.751571 
L 439.329366 -178.94405 
L 437.444046 -175.406443 
L 435.619543 -174.868903 
L 433.734223 -174.825515 
L 431.848903 -171.769396 
L 430.024399 -168.314184 
L 428.139079 -169.362082 
L 426.314576 -167.427091 
L 424.429256 -162.978134 
L 422.726386 -161.446801 
L 420.841066 -153.323029 
L 418.955746 -151.991534 
L 417.131243 -153.022762 
L 415.245923 -153.99818 
L 413.42142 -155.100764 
L 411.5361 -148.535649 
L 409.65078 -146.435731 
L 407.826276 -148.910119 
L 405.940956 -145.183205 
L 404.116453 -135.653061 
L 402.231133 -134.903394 
L 400.467446 -145.791922 
L 398.582126 -148.461309 
L 396.696806 -145.589331 
L 394.872303 -136.976023 
L 392.986983 -144.780089 
L 391.16248 -149.019682 
L 389.27716 -149.071749 
L 387.39184 -149.472912 
L 385.567336 -149.134467 
L 383.682016 -147.504093 
L 381.857513 -149.032155 
L 379.972193 -144.804291 
L 378.269323 -146.178371 
L 376.384003 -147.294539 
L 374.498683 -137.092421 
L 372.67418 -142.052996 
L 370.78886 -139.162998 
L 368.964356 -140.610199 
L 367.079036 -139.193068 
L 365.193716 -134.541524 
L 363.369213 -131.764931 
L 361.483893 -133.126703 
L 359.65939 -128.636054 
L 357.77407 -128.937444 
L 356.0712 -127.821365 
L 354.18588 -126.95778 
L 352.30056 -122.443854 
L 350.476057 -119.03682 
L 348.590737 -117.533051 
L 346.766233 -118.956788 
L 344.880913 -112.604473 
L 342.995593 -116.412012 
L 341.17109 -111.205635 
L 339.28577 -110.001803 
L 337.461267 -107.085011 
L 335.575947 -104.209965 
L 333.873077 -100.239026 
L 331.987757 -97.126084 
L 330.102437 -100.281146 
L 328.277933 -102.210669 
L 326.392613 -98.583246 
L 324.56811 -96.13368 
L 322.68279 -92.649695 
L 320.79747 -93.76576 
L 318.972967 -96.95035 
L 317.087647 -97.214792 
L 315.263143 -95.353216 
L 313.377823 -91.862278 
L 311.614137 -86.761719 
L 309.728817 -85.658015 
L 307.843497 -84.143161 
L 306.018994 -81.853048 
L 304.133673 -79.166294 
L 302.30917 -93.432953 
L 300.42385 -89.352703 
L 298.53853 -93.552612 
L 296.714027 -93.619029 
L 294.828707 -90.733356 
L 293.004203 -92.600144 
L 291.118883 -90.374536 
L 289.416014 -86.170749 
L 287.530694 -83.332858 
L 285.645374 -82.102871 
L 283.82087 -78.223492 
L 281.93555 -75.29779 
L 280.111047 -74.396979 
L 278.225727 -74.536223 
L 276.340407 -77.225643 
L 274.515904 -83.821625 
L 272.630584 -81.019364 
L 270.80608 -74.833594 
L 268.92076 -78.438938 
L 267.217891 -77.507801 
L 265.33257 -76.27103 
L 263.44725 -73.586621 
L 261.622747 -72.016494 
L 259.737427 -69.640544 
L 257.912924 -62.622036 
L 256.027604 -61.880514 
L 254.142284 -60.280724 
L 252.31778 -59.62413 
L 250.43246 -49.334335 
L 248.607957 -51.251893 
L 246.722637 -56.367387 
L 245.019767 -57.722061 
L 243.134447 -58.440286 
L 241.249127 -61.709973 
L 239.424624 -83.968719 
L 237.539304 -89.993333 
L 235.714801 -86.051641 
L 233.829481 -91.16075 
L 231.944161 -97.481236 
L 230.119657 -95.608082 
L 228.234337 -91.224254 
L 226.409834 -93.961666 
L 224.524514 -95.216826 
L 222.760827 -103.620759 
L 220.875507 -101.513183 
L 218.990187 -109.131206 
L 217.165684 -106.29193 
L 215.280364 -101.501787 
L 213.455861 -106.877854 
L 211.570541 -105.493487 
L 209.685221 -106.954436 
L 207.860717 -103.719303 
L 205.975397 -98.059789 
L 204.150894 -101.671652 
L 202.265574 -99.228988 
L 200.562704 -99.766196 
L 198.677384 -97.762603 
L 196.792064 -96.015011 
L 194.967561 -92.860636 
L 193.082241 -90.53353 
L 191.257737 -88.056723 
L 189.372417 -86.637426 
L 187.487097 -89.638054 
L 185.662594 -90.020451 
L 183.777274 -90.270625 
L 181.952771 -88.524032 
L 180.067451 -89.356263 
L 178.364581 -88.34329 
L 176.479261 -87.516515 
L 174.593941 -81.829235 
L 172.769438 -85.37428 
L 170.884118 -85.106988 
L 169.059614 -84.491755 
L 167.174294 -84.388184 
L 165.288974 -82.502202 
L 163.464471 -80.452087 
L 161.579151 -81.967836 
L 159.754648 -83.793104 
L 157.869328 -81.544719 
L 156.166458 -83.395383 
L 154.281138 -82.235732 
L 152.395818 -77.028992 
L 150.571314 -78.327211 
L 148.685994 -75.436278 
L 146.861491 -76.279769 
L 144.976171 -79.884396 
L 143.090851 -75.142894 
L 141.266348 -78.024557 
L 139.381028 -77.839246 
L 137.556524 -79.169512 
L 135.671204 -79.587486 
L 133.907518 -75.693131 
L 132.022198 -73.169714 
L 130.136878 -71.744686 
L 128.312375 -71.44258 
L 126.427054 -66.856155 
L 124.602551 -66.327402 
L 122.717231 -69.544014 
L 120.831911 -65.827406 
L 119.007408 -61.058044 
L 117.122088 -57.594954 
L 115.297584 -55.787223 
L 113.412264 -60.884258 
L 111.709395 -60.708326 
L 109.824075 -62.603638 
L 107.938755 -57.147311 
L 106.114251 -58.761668 
L 104.228931 -63.170753 
L 102.404428 -60.049892 
L 100.519108 -68.843638 
L 98.633788 -73.787438 
L 96.809285 -76.074223 
L 94.923965 -79.655869 
L 93.099461 -75.381879 
L 91.214141 -78.746284 
L 89.511272 -77.952638 
L 87.625951 -78.449959 
L 85.740631 -75.096863 
L 83.916128 -69.045491 
L 82.030808 -81.816771 
L 80.206305 -82.312727 
L 78.320985 -85.45834 
L 76.435665 -88.913916 
L 74.611161 -81.048687 
L 72.725841 -80.300681 
L 70.901338 -90.394533 
L 69.016018 -93.524813 
z
" style="stroke: #808080; stroke-opacity: 0.4"/>
    </defs>
    <g clip-path="url(#p1b78ab9eb5)">
     <use xlink:href="#m7348208e8b" x="0" y="361.05263" style="fill: #808080; fill-opacity: 0.4; stroke: #808080; stroke-opacity: 0.4"/>
    </g>
   </g>
   <g id="matplotlib.axis_1">
    <g id="xtick_1">
     <g id="line2d_1">
      <defs>
       <path id="mf19897c5a4" d="M 0 0 
L 0 -3 
" style="stroke: #000000; stroke-width: 0.5"/>
      </defs>
      <g>
       <use xlink:href="#mf19897c5a4" x="132.083015" y="336.24" style="stroke: #000000; stroke-width: 0.5"/>
      </g>
     </g>
     <g id="line2d_2">
      <defs>
       <path id="m8c363d590c" d="M 0 0 
L 0 3 
" style="stroke: #000000; stroke-width: 0.5"/>
      </defs>
      <g>
       <use xlink:href="#m8c363d590c" x="132.083015" y="3.6" style="stroke: #000000; stroke-width: 0.5"/>
      </g>
     </g>
     <g id="text_1">
      <!-- $\mathdefault{2004}$ -->
      <g transform="translate(113.806824 353.576997) scale(0.2 -0.2)">
       <defs>
        <path id="CMR17-32" d="M 2669 990 
L 2554 990 
C 2490 537 2438 460 2413 422 
C 2381 371 1920 371 1830 371 
L 602 371 
C 832 620 1280 1073 1824 1596 
C 2214 1966 2669 2400 2669 3033 
C 2669 3788 2067 4224 1395 4224 
C 691 4224 262 3603 262 3027 
C 262 2777 448 2745 525 2745 
C 589 2745 781 2783 781 3007 
C 781 3206 614 3264 525 3264 
C 486 3264 448 3257 422 3244 
C 544 3788 915 4057 1306 4057 
C 1862 4057 2227 3616 2227 3033 
C 2227 2477 1901 1998 1536 1583 
L 262 147 
L 262 0 
L 2515 0 
L 2669 990 
z
" transform="scale(0.015625)"/>
        <path id="CMR17-30" d="M 2688 2038 
C 2688 2430 2682 3099 2413 3613 
C 2176 4063 1798 4224 1466 4224 
C 1158 4224 768 4082 525 3620 
C 269 3137 243 2539 243 2038 
C 243 1671 250 1112 448 623 
C 723 -39 1216 -128 1466 -128 
C 1760 -128 2208 -7 2470 604 
C 2662 1048 2688 1568 2688 2038 
z
M 1466 -26 
C 1056 -26 813 328 723 816 
C 653 1196 653 1749 653 2109 
C 653 2604 653 3015 736 3407 
C 858 3954 1216 4121 1466 4121 
C 1728 4121 2067 3947 2189 3420 
C 2272 3054 2278 2623 2278 2109 
C 2278 1691 2278 1176 2202 797 
C 2067 96 1690 -26 1466 -26 
z
" transform="scale(0.015625)"/>
        <path id="CMR17-34" d="M 2150 4147 
C 2150 4281 2144 4288 2029 4288 
L 128 1254 
L 128 1088 
L 1779 1088 
L 1779 460 
C 1779 230 1766 166 1318 166 
L 1197 166 
L 1197 0 
C 1402 12 1747 12 1965 12 
C 2182 12 2528 12 2733 0 
L 2733 166 
L 2611 166 
C 2163 166 2150 230 2150 460 
L 2150 1088 
L 2803 1088 
L 2803 1254 
L 2150 1254 
L 2150 4147 
z
M 1798 3723 
L 1798 1254 
L 256 1254 
L 1798 3723 
z
" transform="scale(0.015625)"/>
       </defs>
       <use xlink:href="#CMR17-32" transform="scale(0.996264)"/>
       <use xlink:href="#CMR17-30" transform="translate(45.690477 0) scale(0.996264)"/>
       <use xlink:href="#CMR17-30" transform="translate(91.380954 0) scale(0.996264)"/>
       <use xlink:href="#CMR17-34" transform="translate(137.071431 0) scale(0.996264)"/>
      </g>
     </g>
    </g>
    <g id="xtick_2">
     <g id="line2d_3">
      <g>
       <use xlink:href="#mf19897c5a4" x="220.936324" y="336.24" style="stroke: #000000; stroke-width: 0.5"/>
      </g>
     </g>
     <g id="line2d_4">
      <g>
       <use xlink:href="#m8c363d590c" x="220.936324" y="3.6" style="stroke: #000000; stroke-width: 0.5"/>
      </g>
     </g>
     <g id="text_2">
      <!-- $\mathdefault{2008}$ -->
      <g transform="translate(202.660133 353.576997) scale(0.2 -0.2)">
       <defs>
        <path id="CMR17-38" d="M 1741 2289 
C 2144 2494 2554 2803 2554 3298 
C 2554 3884 1990 4224 1472 4224 
C 890 4224 378 3800 378 3215 
C 378 3054 416 2777 666 2533 
C 730 2469 998 2276 1171 2154 
C 883 2006 211 1652 211 945 
C 211 282 838 -128 1459 -128 
C 2144 -128 2720 366 2720 1022 
C 2720 1607 2330 1877 2074 2051 
L 1741 2289 
z
M 902 2855 
C 851 2887 595 3086 595 3388 
C 595 3781 998 4076 1459 4076 
C 1965 4076 2336 3716 2336 3298 
C 2336 2700 1670 2359 1638 2359 
C 1632 2359 1626 2359 1574 2398 
L 902 2855 
z
M 2080 1536 
C 2176 1466 2483 1253 2483 861 
C 2483 385 2010 25 1472 25 
C 890 25 448 443 448 951 
C 448 1459 838 1884 1280 2083 
L 2080 1536 
z
" transform="scale(0.015625)"/>
       </defs>
       <use xlink:href="#CMR17-32" transform="scale(0.996264)"/>
       <use xlink:href="#CMR17-30" transform="translate(45.690477 0) scale(0.996264)"/>
       <use xlink:href="#CMR17-30" transform="translate(91.380954 0) scale(0.996264)"/>
       <use xlink:href="#CMR17-38" transform="translate(137.071431 0) scale(0.996264)"/>
      </g>
     </g>
    </g>
    <g id="xtick_3">
     <g id="line2d_5">
      <g>
       <use xlink:href="#mf19897c5a4" x="309.789634" y="336.24" style="stroke: #000000; stroke-width: 0.5"/>
      </g>
     </g>
     <g id="line2d_6">
      <g>
       <use xlink:href="#m8c363d590c" x="309.789634" y="3.6" style="stroke: #000000; stroke-width: 0.5"/>
      </g>
     </g>
     <g id="text_3">
      <!-- $\mathdefault{2012}$ -->
      <g transform="translate(291.513443 353.576997) scale(0.2 -0.2)">
       <defs>
        <path id="CMR17-31" d="M 1702 4083 
C 1702 4217 1696 4224 1606 4224 
C 1357 3927 979 3833 621 3820 
C 602 3820 570 3820 563 3808 
C 557 3795 557 3782 557 3648 
C 755 3648 1088 3686 1344 3839 
L 1344 467 
C 1344 243 1331 166 781 166 
L 589 166 
L 589 0 
C 896 6 1216 12 1523 12 
C 1830 12 2150 6 2458 0 
L 2458 166 
L 2266 166 
C 1715 166 1702 236 1702 467 
L 1702 4083 
z
" transform="scale(0.015625)"/>
       </defs>
       <use xlink:href="#CMR17-32" transform="scale(0.996264)"/>
       <use xlink:href="#CMR17-30" transform="translate(45.690477 0) scale(0.996264)"/>
       <use xlink:href="#CMR17-31" transform="translate(91.380954 0) scale(0.996264)"/>
       <use xlink:href="#CMR17-32" transform="translate(137.071431 0) scale(0.996264)"/>
      </g>
     </g>
    </g>
    <g id="xtick_4">
     <g id="line2d_7">
      <g>
       <use xlink:href="#mf19897c5a4" x="398.642943" y="336.24" style="stroke: #000000; stroke-width: 0.5"/>
      </g>
     </g>
     <g id="line2d_8">
      <g>
       <use xlink:href="#m8c363d590c" x="398.642943" y="3.6" style="stroke: #000000; stroke-width: 0.5"/>
      </g>
     </g>
     <g id="text_4">
      <!-- $\mathdefault{2016}$ -->
      <g transform="translate(380.366752 353.576997) scale(0.2 -0.2)">
       <defs>
        <path id="CMR17-36" d="M 678 2198 
C 678 3712 1395 4076 1811 4076 
C 1946 4076 2272 4049 2400 3782 
C 2298 3782 2106 3782 2106 3558 
C 2106 3385 2246 3328 2336 3328 
C 2394 3328 2566 3353 2566 3571 
C 2566 3987 2246 4224 1805 4224 
C 1043 4224 243 3411 243 2011 
C 243 257 966 -128 1478 -128 
C 2099 -128 2688 431 2688 1295 
C 2688 2101 2170 2688 1517 2688 
C 1126 2688 838 2430 678 1979 
L 678 2198 
z
M 1478 25 
C 691 25 691 1212 691 1450 
C 691 1914 909 2585 1504 2585 
C 1613 2585 1926 2585 2138 2140 
C 2253 1889 2253 1624 2253 1302 
C 2253 954 2253 696 2118 438 
C 1978 173 1773 25 1478 25 
z
" transform="scale(0.015625)"/>
       </defs>
       <use xlink:href="#CMR17-32" transform="scale(0.996264)"/>
       <use xlink:href="#CMR17-30" transform="translate(45.690477 0) scale(0.996264)"/>
       <use xlink:href="#CMR17-31" transform="translate(91.380954 0) scale(0.996264)"/>
       <use xlink:href="#CMR17-36" transform="translate(137.071431 0) scale(0.996264)"/>
      </g>
     </g>
    </g>
    <g id="xtick_5">
     <g id="line2d_9">
      <g>
       <use xlink:href="#mf19897c5a4" x="487.496253" y="336.24" style="stroke: #000000; stroke-width: 0.5"/>
      </g>
     </g>
     <g id="line2d_10">
      <g>
       <use xlink:href="#m8c363d590c" x="487.496253" y="3.6" style="stroke: #000000; stroke-width: 0.5"/>
      </g>
     </g>
     <g id="text_5">
      <!-- $\mathdefault{2020}$ -->
      <g transform="translate(469.220062 353.576997) scale(0.2 -0.2)">
       <use xlink:href="#CMR17-32" transform="scale(0.996264)"/>
       <use xlink:href="#CMR17-30" transform="translate(45.690477 0) scale(0.996264)"/>
       <use xlink:href="#CMR17-32" transform="translate(91.380954 0) scale(0.996264)"/>
       <use xlink:href="#CMR17-30" transform="translate(137.071431 0) scale(0.996264)"/>
      </g>
     </g>
    </g>
    <g id="xtick_6">
     <g id="line2d_11">
      <g>
       <use xlink:href="#mf19897c5a4" x="576.349562" y="336.24" style="stroke: #000000; stroke-width: 0.5"/>
      </g>
     </g>
     <g id="line2d_12">
      <g>
       <use xlink:href="#m8c363d590c" x="576.349562" y="3.6" style="stroke: #000000; stroke-width: 0.5"/>
      </g>
     </g>
     <g id="text_6">
      <!-- $\mathdefault{2024}$ -->
      <g transform="translate(558.073371 353.576997) scale(0.2 -0.2)">
       <use xlink:href="#CMR17-32" transform="scale(0.996264)"/>
       <use xlink:href="#CMR17-30" transform="translate(45.690477 0) scale(0.996264)"/>
       <use xlink:href="#CMR17-32" transform="translate(91.380954 0) scale(0.996264)"/>
       <use xlink:href="#CMR17-34" transform="translate(137.071431 0) scale(0.996264)"/>
      </g>
     </g>
    </g>
    <g id="xtick_7">
     <g id="line2d_13">
      <defs>
       <path id="m31c72e78ae" d="M 0 0 
L 0 -1.5 
" style="stroke: #000000; stroke-width: 0.5"/>
      </defs>
      <g>
       <use xlink:href="#m31c72e78ae" x="65.443032" y="336.24" style="stroke: #000000; stroke-width: 0.5"/>
      </g>
     </g>
     <g id="line2d_14">
      <defs>
       <path id="m45cc56f9ba" d="M 0 0 
L 0 1.5 
" style="stroke: #000000; stroke-width: 0.5"/>
      </defs>
      <g>
       <use xlink:href="#m45cc56f9ba" x="65.443032" y="3.6" style="stroke: #000000; stroke-width: 0.5"/>
      </g>
     </g>
    </g>
    <g id="xtick_8">
     <g id="line2d_15">
      <g>
       <use xlink:href="#m31c72e78ae" x="87.65636" y="336.24" style="stroke: #000000; stroke-width: 0.5"/>
      </g>
     </g>
     <g id="line2d_16">
      <g>
       <use xlink:href="#m45cc56f9ba" x="87.65636" y="3.6" style="stroke: #000000; stroke-width: 0.5"/>
      </g>
     </g>
    </g>
    <g id="xtick_9">
     <g id="line2d_17">
      <g>
       <use xlink:href="#m31c72e78ae" x="109.869687" y="336.24" style="stroke: #000000; stroke-width: 0.5"/>
      </g>
     </g>
     <g id="line2d_18">
      <g>
       <use xlink:href="#m45cc56f9ba" x="109.869687" y="3.6" style="stroke: #000000; stroke-width: 0.5"/>
      </g>
     </g>
    </g>
    <g id="xtick_10">
     <g id="line2d_19">
      <g>
       <use xlink:href="#m31c72e78ae" x="154.296342" y="336.24" style="stroke: #000000; stroke-width: 0.5"/>
      </g>
     </g>
     <g id="line2d_20">
      <g>
       <use xlink:href="#m45cc56f9ba" x="154.296342" y="3.6" style="stroke: #000000; stroke-width: 0.5"/>
      </g>
     </g>
    </g>
    <g id="xtick_11">
     <g id="line2d_21">
      <g>
       <use xlink:href="#m31c72e78ae" x="176.509669" y="336.24" style="stroke: #000000; stroke-width: 0.5"/>
      </g>
     </g>
     <g id="line2d_22">
      <g>
       <use xlink:href="#m45cc56f9ba" x="176.509669" y="3.6" style="stroke: #000000; stroke-width: 0.5"/>
      </g>
     </g>
    </g>
    <g id="xtick_12">
     <g id="line2d_23">
      <g>
       <use xlink:href="#m31c72e78ae" x="198.722997" y="336.24" style="stroke: #000000; stroke-width: 0.5"/>
      </g>
     </g>
     <g id="line2d_24">
      <g>
       <use xlink:href="#m45cc56f9ba" x="198.722997" y="3.6" style="stroke: #000000; stroke-width: 0.5"/>
      </g>
     </g>
    </g>
    <g id="xtick_13">
     <g id="line2d_25">
      <g>
       <use xlink:href="#m31c72e78ae" x="243.149651" y="336.24" style="stroke: #000000; stroke-width: 0.5"/>
      </g>
     </g>
     <g id="line2d_26">
      <g>
       <use xlink:href="#m45cc56f9ba" x="243.149651" y="3.6" style="stroke: #000000; stroke-width: 0.5"/>
      </g>
     </g>
    </g>
    <g id="xtick_14">
     <g id="line2d_27">
      <g>
       <use xlink:href="#m31c72e78ae" x="265.362979" y="336.24" style="stroke: #000000; stroke-width: 0.5"/>
      </g>
     </g>
     <g id="line2d_28">
      <g>
       <use xlink:href="#m45cc56f9ba" x="265.362979" y="3.6" style="stroke: #000000; stroke-width: 0.5"/>
      </g>
     </g>
    </g>
    <g id="xtick_15">
     <g id="line2d_29">
      <g>
       <use xlink:href="#m31c72e78ae" x="287.576306" y="336.24" style="stroke: #000000; stroke-width: 0.5"/>
      </g>
     </g>
     <g id="line2d_30">
      <g>
       <use xlink:href="#m45cc56f9ba" x="287.576306" y="3.6" style="stroke: #000000; stroke-width: 0.5"/>
      </g>
     </g>
    </g>
    <g id="xtick_16">
     <g id="line2d_31">
      <g>
       <use xlink:href="#m31c72e78ae" x="332.002961" y="336.24" style="stroke: #000000; stroke-width: 0.5"/>
      </g>
     </g>
     <g id="line2d_32">
      <g>
       <use xlink:href="#m45cc56f9ba" x="332.002961" y="3.6" style="stroke: #000000; stroke-width: 0.5"/>
      </g>
     </g>
    </g>
    <g id="xtick_17">
     <g id="line2d_33">
      <g>
       <use xlink:href="#m31c72e78ae" x="354.216288" y="336.24" style="stroke: #000000; stroke-width: 0.5"/>
      </g>
     </g>
     <g id="line2d_34">
      <g>
       <use xlink:href="#m45cc56f9ba" x="354.216288" y="3.6" style="stroke: #000000; stroke-width: 0.5"/>
      </g>
     </g>
    </g>
    <g id="xtick_18">
     <g id="line2d_35">
      <g>
       <use xlink:href="#m31c72e78ae" x="376.429616" y="336.24" style="stroke: #000000; stroke-width: 0.5"/>
      </g>
     </g>
     <g id="line2d_36">
      <g>
       <use xlink:href="#m45cc56f9ba" x="376.429616" y="3.6" style="stroke: #000000; stroke-width: 0.5"/>
      </g>
     </g>
    </g>
    <g id="xtick_19">
     <g id="line2d_37">
      <g>
       <use xlink:href="#m31c72e78ae" x="420.85627" y="336.24" style="stroke: #000000; stroke-width: 0.5"/>
      </g>
     </g>
     <g id="line2d_38">
      <g>
       <use xlink:href="#m45cc56f9ba" x="420.85627" y="3.6" style="stroke: #000000; stroke-width: 0.5"/>
      </g>
     </g>
    </g>
    <g id="xtick_20">
     <g id="line2d_39">
      <g>
       <use xlink:href="#m31c72e78ae" x="443.069598" y="336.24" style="stroke: #000000; stroke-width: 0.5"/>
      </g>
     </g>
     <g id="line2d_40">
      <g>
       <use xlink:href="#m45cc56f9ba" x="443.069598" y="3.6" style="stroke: #000000; stroke-width: 0.5"/>
      </g>
     </g>
    </g>
    <g id="xtick_21">
     <g id="line2d_41">
      <g>
       <use xlink:href="#m31c72e78ae" x="465.282925" y="336.24" style="stroke: #000000; stroke-width: 0.5"/>
      </g>
     </g>
     <g id="line2d_42">
      <g>
       <use xlink:href="#m45cc56f9ba" x="465.282925" y="3.6" style="stroke: #000000; stroke-width: 0.5"/>
      </g>
     </g>
    </g>
    <g id="xtick_22">
     <g id="line2d_43">
      <g>
       <use xlink:href="#m31c72e78ae" x="509.70958" y="336.24" style="stroke: #000000; stroke-width: 0.5"/>
      </g>
     </g>
     <g id="line2d_44">
      <g>
       <use xlink:href="#m45cc56f9ba" x="509.70958" y="3.6" style="stroke: #000000; stroke-width: 0.5"/>
      </g>
     </g>
    </g>
    <g id="xtick_23">
     <g id="line2d_45">
      <g>
       <use xlink:href="#m31c72e78ae" x="531.922907" y="336.24" style="stroke: #000000; stroke-width: 0.5"/>
      </g>
     </g>
     <g id="line2d_46">
      <g>
       <use xlink:href="#m45cc56f9ba" x="531.922907" y="3.6" style="stroke: #000000; stroke-width: 0.5"/>
      </g>
     </g>
    </g>
    <g id="xtick_24">
     <g id="line2d_47">
      <g>
       <use xlink:href="#m31c72e78ae" x="554.136235" y="336.24" style="stroke: #000000; stroke-width: 0.5"/>
      </g>
     </g>
     <g id="line2d_48">
      <g>
       <use xlink:href="#m45cc56f9ba" x="554.136235" y="3.6" style="stroke: #000000; stroke-width: 0.5"/>
      </g>
     </g>
    </g>
    <g id="xtick_25">
     <g id="line2d_49">
      <g>
       <use xlink:href="#m31c72e78ae" x="598.562889" y="336.24" style="stroke: #000000; stroke-width: 0.5"/>
      </g>
     </g>
     <g id="line2d_50">
      <g>
       <use xlink:href="#m45cc56f9ba" x="598.562889" y="3.6" style="stroke: #000000; stroke-width: 0.5"/>
      </g>
     </g>
    </g>
   </g>
   <g id="matplotlib.axis_2">
    <g id="ytick_1">
     <g id="line2d_51">
      <defs>
       <path id="mf8a73e69f7" d="M 0 0 
L 3 0 
" style="stroke: #000000; stroke-width: 0.5"/>
      </defs>
      <g>
       <use xlink:href="#mf8a73e69f7" x="43.652382" y="299.069868" style="stroke: #000000; stroke-width: 0.5"/>
      </g>
     </g>
     <g id="line2d_52">
      <defs>
       <path id="m5a2bdff047" d="M 0 0 
L -3 0 
" style="stroke: #000000; stroke-width: 0.5"/>
      </defs>
      <g>
       <use xlink:href="#m5a2bdff047" x="601.652382" y="299.069868" style="stroke: #000000; stroke-width: 0.5"/>
      </g>
     </g>
     <g id="text_7">
      <!-- $\mathdefault{1000}$ -->
      <g transform="translate(3.6 305.988366) scale(0.2 -0.2)">
       <use xlink:href="#CMR17-31" transform="scale(0.996264)"/>
       <use xlink:href="#CMR17-30" transform="translate(45.690477 0) scale(0.996264)"/>
       <use xlink:href="#CMR17-30" transform="translate(91.380954 0) scale(0.996264)"/>
       <use xlink:href="#CMR17-30" transform="translate(137.071431 0) scale(0.996264)"/>
      </g>
     </g>
    </g>
    <g id="ytick_2">
     <g id="line2d_53">
      <g>
       <use xlink:href="#mf8a73e69f7" x="43.652382" y="231.973854" style="stroke: #000000; stroke-width: 0.5"/>
      </g>
     </g>
     <g id="line2d_54">
      <g>
       <use xlink:href="#m5a2bdff047" x="601.652382" y="231.973854" style="stroke: #000000; stroke-width: 0.5"/>
      </g>
     </g>
     <g id="text_8">
      <!-- $\mathdefault{2000}$ -->
      <g transform="translate(3.6 238.892352) scale(0.2 -0.2)">
       <use xlink:href="#CMR17-32" transform="scale(0.996264)"/>
       <use xlink:href="#CMR17-30" transform="translate(45.690477 0) scale(0.996264)"/>
       <use xlink:href="#CMR17-30" transform="translate(91.380954 0) scale(0.996264)"/>
       <use xlink:href="#CMR17-30" transform="translate(137.071431 0) scale(0.996264)"/>
      </g>
     </g>
    </g>
    <g id="ytick_3">
     <g id="line2d_55">
      <g>
       <use xlink:href="#mf8a73e69f7" x="43.652382" y="164.877839" style="stroke: #000000; stroke-width: 0.5"/>
      </g>
     </g>
     <g id="line2d_56">
      <g>
       <use xlink:href="#m5a2bdff047" x="601.652382" y="164.877839" style="stroke: #000000; stroke-width: 0.5"/>
      </g>
     </g>
     <g id="text_9">
      <!-- $\mathdefault{3000}$ -->
      <g transform="translate(3.6 171.796337) scale(0.2 -0.2)">
       <defs>
        <path id="CMR17-33" d="M 1414 2176 
C 1984 2176 2234 1673 2234 1094 
C 2234 322 1824 25 1453 25 
C 1114 25 563 193 390 691 
C 422 678 454 678 486 678 
C 640 678 755 780 755 947 
C 755 1132 614 1216 486 1216 
C 378 1216 211 1164 211 927 
C 211 335 787 -128 1466 -128 
C 2176 -128 2720 432 2720 1087 
C 2720 1718 2208 2176 1600 2246 
C 2086 2347 2554 2776 2554 3353 
C 2554 3856 2048 4224 1472 4224 
C 890 4224 378 3862 378 3347 
C 378 3123 544 3084 627 3084 
C 762 3084 877 3167 877 3334 
C 877 3500 762 3584 627 3584 
C 602 3584 570 3584 544 3571 
C 730 3999 1235 4076 1459 4076 
C 1683 4076 2106 3966 2106 3347 
C 2106 3167 2080 2851 1862 2574 
C 1670 2329 1453 2316 1242 2297 
C 1210 2297 1062 2284 1037 2284 
C 992 2278 966 2272 966 2227 
C 966 2182 973 2176 1101 2176 
L 1414 2176 
z
" transform="scale(0.015625)"/>
       </defs>
       <use xlink:href="#CMR17-33" transform="scale(0.996264)"/>
       <use xlink:href="#CMR17-30" transform="translate(45.690477 0) scale(0.996264)"/>
       <use xlink:href="#CMR17-30" transform="translate(91.380954 0) scale(0.996264)"/>
       <use xlink:href="#CMR17-30" transform="translate(137.071431 0) scale(0.996264)"/>
      </g>
     </g>
    </g>
    <g id="ytick_4">
     <g id="line2d_57">
      <g>
       <use xlink:href="#mf8a73e69f7" x="43.652382" y="97.781824" style="stroke: #000000; stroke-width: 0.5"/>
      </g>
     </g>
     <g id="line2d_58">
      <g>
       <use xlink:href="#m5a2bdff047" x="601.652382" y="97.781824" style="stroke: #000000; stroke-width: 0.5"/>
      </g>
     </g>
     <g id="text_10">
      <!-- $\mathdefault{4000}$ -->
      <g transform="translate(3.6 104.700323) scale(0.2 -0.2)">
       <use xlink:href="#CMR17-34" transform="scale(0.996264)"/>
       <use xlink:href="#CMR17-30" transform="translate(45.690477 0) scale(0.996264)"/>
       <use xlink:href="#CMR17-30" transform="translate(91.380954 0) scale(0.996264)"/>
       <use xlink:href="#CMR17-30" transform="translate(137.071431 0) scale(0.996264)"/>
      </g>
     </g>
    </g>
    <g id="ytick_5">
     <g id="line2d_59">
      <g>
       <use xlink:href="#mf8a73e69f7" x="43.652382" y="30.68581" style="stroke: #000000; stroke-width: 0.5"/>
      </g>
     </g>
     <g id="line2d_60">
      <g>
       <use xlink:href="#m5a2bdff047" x="601.652382" y="30.68581" style="stroke: #000000; stroke-width: 0.5"/>
      </g>
     </g>
     <g id="text_11">
      <!-- $\mathdefault{5000}$ -->
      <g transform="translate(3.6 37.604308) scale(0.2 -0.2)">
       <defs>
        <path id="CMR17-35" d="M 730 3750 
C 794 3724 1056 3641 1325 3641 
C 1920 3641 2246 3961 2432 4140 
C 2432 4191 2432 4224 2394 4224 
C 2387 4224 2374 4224 2323 4198 
C 2099 4102 1837 4032 1517 4032 
C 1325 4032 1037 4055 723 4191 
C 653 4224 640 4224 634 4224 
C 602 4224 595 4217 595 4090 
L 595 2231 
C 595 2113 595 2080 659 2080 
C 691 2080 704 2093 736 2139 
C 941 2435 1222 2560 1542 2560 
C 1766 2560 2246 2415 2246 1293 
C 2246 1087 2246 716 2054 422 
C 1894 159 1645 25 1370 25 
C 947 25 518 319 403 812 
C 429 806 480 793 506 793 
C 589 793 749 838 749 1036 
C 749 1209 627 1280 506 1280 
C 358 1280 262 1190 262 1011 
C 262 454 704 -128 1382 -128 
C 2042 -128 2669 441 2669 1267 
C 2669 2054 2170 2662 1549 2662 
C 1222 2662 947 2540 730 2304 
L 730 3750 
z
" transform="scale(0.015625)"/>
       </defs>
       <use xlink:href="#CMR17-35" transform="scale(0.996264)"/>
       <use xlink:href="#CMR17-30" transform="translate(45.690477 0) scale(0.996264)"/>
       <use xlink:href="#CMR17-30" transform="translate(91.380954 0) scale(0.996264)"/>
       <use xlink:href="#CMR17-30" transform="translate(137.071431 0) scale(0.996264)"/>
      </g>
     </g>
    </g>
    <g id="ytick_6">
     <g id="line2d_61">
      <defs>
       <path id="m9216110d5d" d="M 0 0 
L 1.5 0 
" style="stroke: #000000; stroke-width: 0.5"/>
      </defs>
      <g>
       <use xlink:href="#m9216110d5d" x="43.652382" y="325.908274" style="stroke: #000000; stroke-width: 0.5"/>
      </g>
     </g>
     <g id="line2d_62">
      <defs>
       <path id="m56df059cb3" d="M 0 0 
L -1.5 0 
" style="stroke: #000000; stroke-width: 0.5"/>
      </defs>
      <g>
       <use xlink:href="#m56df059cb3" x="601.652382" y="325.908274" style="stroke: #000000; stroke-width: 0.5"/>
      </g>
     </g>
    </g>
    <g id="ytick_7">
     <g id="line2d_63">
      <g>
       <use xlink:href="#m9216110d5d" x="43.652382" y="312.489071" style="stroke: #000000; stroke-width: 0.5"/>
      </g>
     </g>
     <g id="line2d_64">
      <g>
       <use xlink:href="#m56df059cb3" x="601.652382" y="312.489071" style="stroke: #000000; stroke-width: 0.5"/>
      </g>
     </g>
    </g>
    <g id="ytick_8">
     <g id="line2d_65">
      <g>
       <use xlink:href="#m9216110d5d" x="43.652382" y="285.650665" style="stroke: #000000; stroke-width: 0.5"/>
      </g>
     </g>
     <g id="line2d_66">
      <g>
       <use xlink:href="#m56df059cb3" x="601.652382" y="285.650665" style="stroke: #000000; stroke-width: 0.5"/>
      </g>
     </g>
    </g>
    <g id="ytick_9">
     <g id="line2d_67">
      <g>
       <use xlink:href="#m9216110d5d" x="43.652382" y="272.231462" style="stroke: #000000; stroke-width: 0.5"/>
      </g>
     </g>
     <g id="line2d_68">
      <g>
       <use xlink:href="#m56df059cb3" x="601.652382" y="272.231462" style="stroke: #000000; stroke-width: 0.5"/>
      </g>
     </g>
    </g>
    <g id="ytick_10">
     <g id="line2d_69">
      <g>
       <use xlink:href="#m9216110d5d" x="43.652382" y="258.812259" style="stroke: #000000; stroke-width: 0.5"/>
      </g>
     </g>
     <g id="line2d_70">
      <g>
       <use xlink:href="#m56df059cb3" x="601.652382" y="258.812259" style="stroke: #000000; stroke-width: 0.5"/>
      </g>
     </g>
    </g>
    <g id="ytick_11">
     <g id="line2d_71">
      <g>
       <use xlink:href="#m9216110d5d" x="43.652382" y="245.393056" style="stroke: #000000; stroke-width: 0.5"/>
      </g>
     </g>
     <g id="line2d_72">
      <g>
       <use xlink:href="#m56df059cb3" x="601.652382" y="245.393056" style="stroke: #000000; stroke-width: 0.5"/>
      </g>
     </g>
    </g>
    <g id="ytick_12">
     <g id="line2d_73">
      <g>
       <use xlink:href="#m9216110d5d" x="43.652382" y="218.554651" style="stroke: #000000; stroke-width: 0.5"/>
      </g>
     </g>
     <g id="line2d_74">
      <g>
       <use xlink:href="#m56df059cb3" x="601.652382" y="218.554651" style="stroke: #000000; stroke-width: 0.5"/>
      </g>
     </g>
    </g>
    <g id="ytick_13">
     <g id="line2d_75">
      <g>
       <use xlink:href="#m9216110d5d" x="43.652382" y="205.135448" style="stroke: #000000; stroke-width: 0.5"/>
      </g>
     </g>
     <g id="line2d_76">
      <g>
       <use xlink:href="#m56df059cb3" x="601.652382" y="205.135448" style="stroke: #000000; stroke-width: 0.5"/>
      </g>
     </g>
    </g>
    <g id="ytick_14">
     <g id="line2d_77">
      <g>
       <use xlink:href="#m9216110d5d" x="43.652382" y="191.716245" style="stroke: #000000; stroke-width: 0.5"/>
      </g>
     </g>
     <g id="line2d_78">
      <g>
       <use xlink:href="#m56df059cb3" x="601.652382" y="191.716245" style="stroke: #000000; stroke-width: 0.5"/>
      </g>
     </g>
    </g>
    <g id="ytick_15">
     <g id="line2d_79">
      <g>
       <use xlink:href="#m9216110d5d" x="43.652382" y="178.297042" style="stroke: #000000; stroke-width: 0.5"/>
      </g>
     </g>
     <g id="line2d_80">
      <g>
       <use xlink:href="#m56df059cb3" x="601.652382" y="178.297042" style="stroke: #000000; stroke-width: 0.5"/>
      </g>
     </g>
    </g>
    <g id="ytick_16">
     <g id="line2d_81">
      <g>
       <use xlink:href="#m9216110d5d" x="43.652382" y="151.458636" style="stroke: #000000; stroke-width: 0.5"/>
      </g>
     </g>
     <g id="line2d_82">
      <g>
       <use xlink:href="#m56df059cb3" x="601.652382" y="151.458636" style="stroke: #000000; stroke-width: 0.5"/>
      </g>
     </g>
    </g>
    <g id="ytick_17">
     <g id="line2d_83">
      <g>
       <use xlink:href="#m9216110d5d" x="43.652382" y="138.039433" style="stroke: #000000; stroke-width: 0.5"/>
      </g>
     </g>
     <g id="line2d_84">
      <g>
       <use xlink:href="#m56df059cb3" x="601.652382" y="138.039433" style="stroke: #000000; stroke-width: 0.5"/>
      </g>
     </g>
    </g>
    <g id="ytick_18">
     <g id="line2d_85">
      <g>
       <use xlink:href="#m9216110d5d" x="43.652382" y="124.62023" style="stroke: #000000; stroke-width: 0.5"/>
      </g>
     </g>
     <g id="line2d_86">
      <g>
       <use xlink:href="#m56df059cb3" x="601.652382" y="124.62023" style="stroke: #000000; stroke-width: 0.5"/>
      </g>
     </g>
    </g>
    <g id="ytick_19">
     <g id="line2d_87">
      <g>
       <use xlink:href="#m9216110d5d" x="43.652382" y="111.201027" style="stroke: #000000; stroke-width: 0.5"/>
      </g>
     </g>
     <g id="line2d_88">
      <g>
       <use xlink:href="#m56df059cb3" x="601.652382" y="111.201027" style="stroke: #000000; stroke-width: 0.5"/>
      </g>
     </g>
    </g>
    <g id="ytick_20">
     <g id="line2d_89">
      <g>
       <use xlink:href="#m9216110d5d" x="43.652382" y="84.362621" style="stroke: #000000; stroke-width: 0.5"/>
      </g>
     </g>
     <g id="line2d_90">
      <g>
       <use xlink:href="#m56df059cb3" x="601.652382" y="84.362621" style="stroke: #000000; stroke-width: 0.5"/>
      </g>
     </g>
    </g>
    <g id="ytick_21">
     <g id="line2d_91">
      <g>
       <use xlink:href="#m9216110d5d" x="43.652382" y="70.943418" style="stroke: #000000; stroke-width: 0.5"/>
      </g>
     </g>
     <g id="line2d_92">
      <g>
       <use xlink:href="#m56df059cb3" x="601.652382" y="70.943418" style="stroke: #000000; stroke-width: 0.5"/>
      </g>
     </g>
    </g>
    <g id="ytick_22">
     <g id="line2d_93">
      <g>
       <use xlink:href="#m9216110d5d" x="43.652382" y="57.524216" style="stroke: #000000; stroke-width: 0.5"/>
      </g>
     </g>
     <g id="line2d_94">
      <g>
       <use xlink:href="#m56df059cb3" x="601.652382" y="57.524216" style="stroke: #000000; stroke-width: 0.5"/>
      </g>
     </g>
    </g>
    <g id="ytick_23">
     <g id="line2d_95">
      <g>
       <use xlink:href="#m9216110d5d" x="43.652382" y="44.105013" style="stroke: #000000; stroke-width: 0.5"/>
      </g>
     </g>
     <g id="line2d_96">
      <g>
       <use xlink:href="#m56df059cb3" x="601.652382" y="44.105013" style="stroke: #000000; stroke-width: 0.5"/>
      </g>
     </g>
    </g>
    <g id="ytick_24">
     <g id="line2d_97">
      <g>
       <use xlink:href="#m9216110d5d" x="43.652382" y="17.266607" style="stroke: #000000; stroke-width: 0.5"/>
      </g>
     </g>
     <g id="line2d_98">
      <g>
       <use xlink:href="#m56df059cb3" x="601.652382" y="17.266607" style="stroke: #000000; stroke-width: 0.5"/>
      </g>
     </g>
    </g>
    <g id="ytick_25">
     <g id="line2d_99">
      <g>
       <use xlink:href="#m9216110d5d" x="43.652382" y="3.847404" style="stroke: #000000; stroke-width: 0.5"/>
      </g>
     </g>
     <g id="line2d_100">
      <g>
       <use xlink:href="#m56df059cb3" x="601.652382" y="3.847404" style="stroke: #000000; stroke-width: 0.5"/>
      </g>
     </g>
    </g>
   </g>
   <g id="line2d_101">
    <path d="M 69.016018 278.555262 
L 70.901338 286.600074 
L 72.725841 286.332361 
L 74.611161 280.929119 
L 78.320985 285.352088 
L 80.206305 287.093229 
L 82.030808 296.074702 
L 83.916128 293.930984 
L 85.740631 290.368857 
L 87.625951 289.345643 
L 89.511272 289.662336 
L 91.214141 292.315312 
L 93.099461 288.751172 
L 94.923965 291.559811 
L 96.809285 293.752509 
L 98.633788 298.129182 
L 100.519108 305.538595 
L 102.404428 304.937415 
L 104.228931 307.93929 
L 106.114251 308.823616 
L 107.938755 305.113206 
L 109.824075 305.834488 
L 111.709395 306.058589 
L 113.412264 310.004506 
L 115.297584 309.360384 
L 119.007408 303.366697 
L 120.831911 299.87502 
L 122.717231 299.570404 
L 124.602551 299.772363 
L 126.427054 297.765522 
L 128.312375 296.471239 
L 130.136878 295.721777 
L 132.022198 293.659245 
L 133.907518 290.178304 
L 135.671204 289.450983 
L 137.556524 290.751304 
L 139.381028 290.121944 
L 141.266348 292.17374 
L 143.090851 290.162201 
L 144.976171 291.967755 
L 146.861491 293.102349 
L 148.685994 291.175351 
L 150.571314 291.205544 
L 152.395818 287.734667 
L 154.281138 285.703671 
L 156.166458 286.89798 
L 157.869328 285.675491 
L 159.754648 285.992855 
L 161.579151 288.03727 
L 163.464471 287.107991 
L 165.288974 285.499699 
L 167.174294 284.15845 
L 170.884118 283.911536 
L 172.769438 286.190117 
L 174.593941 283.143287 
L 176.479261 281.486016 
L 178.364581 280.368196 
L 180.067451 280.507756 
L 181.952771 279.361085 
L 183.777274 278.795465 
L 185.662594 279.611353 
L 187.487097 282.08317 
L 189.372417 281.608801 
L 191.257737 279.803248 
L 193.082241 277.75078 
L 194.967561 274.688518 
L 198.677384 271.129746 
L 200.562704 270.610423 
L 202.265574 269.225561 
L 204.150894 271.765145 
L 205.975397 267.961472 
L 207.860717 264.774411 
L 209.685221 264.569768 
L 211.570541 264.132302 
L 213.455861 268.566678 
L 217.165684 262.860833 
L 218.990187 267.978246 
L 220.875507 266.916116 
L 222.760827 273.656582 
L 224.524514 275.259505 
L 226.409834 277.804457 
L 228.234337 274.212808 
L 230.119657 272.015413 
L 231.944161 276.173353 
L 233.829481 281.804051 
L 235.714801 280.184353 
L 237.539304 284.513388 
L 239.424624 301.163264 
L 241.249127 306.917418 
L 243.134447 307.285104 
L 245.019767 308.088914 
L 246.722637 312.138159 
L 248.607957 315.365477 
L 250.43246 309.258398 
L 252.31778 305.617768 
L 254.142284 304.026922 
L 256.027604 303.37609 
L 257.912924 298.417024 
L 259.737427 296.080741 
L 263.44725 293.160722 
L 265.33257 291.66381 
L 267.217891 290.778143 
L 268.92076 293.087587 
L 270.80608 288.867919 
L 272.630584 285.830483 
L 274.515904 290.678841 
L 276.340407 293.476744 
L 278.225727 293.715606 
L 280.111047 293.213728 
L 281.93555 290.878787 
L 283.82087 287.557534 
L 285.645374 285.725142 
L 291.118883 277.523996 
L 293.004203 278.639803 
L 294.828707 276.826868 
L 296.714027 276.370615 
L 298.53853 279.793854 
L 300.42385 277.250915 
L 302.30917 286.636306 
L 304.133673 287.403213 
L 306.018994 285.166232 
L 307.843497 283.877988 
L 309.728817 282.744066 
L 313.377823 275.419194 
L 315.263143 272.953415 
L 317.087647 273.141955 
L 318.972967 276.172011 
L 320.79747 277.365649 
L 322.68279 274.930064 
L 326.392613 269.318153 
L 328.277933 269.693891 
L 330.102437 272.599819 
L 331.987757 270.735892 
L 333.873077 266.836943 
L 335.575947 264.695909 
L 337.461267 262.11137 
L 339.28577 260.778173 
L 341.17109 256.139154 
L 342.995593 257.552867 
L 344.880913 254.204105 
L 346.766233 254.1095 
L 348.590737 252.9635 
L 350.476057 250.758725 
L 352.30056 246.497457 
L 354.18588 244.871049 
L 356.0712 243.89279 
L 357.77407 244.24974 
L 359.65939 241.131118 
L 361.483893 241.081467 
L 363.369213 239.369847 
L 365.193716 235.523904 
L 367.079036 233.778736 
L 368.964356 234.555037 
L 370.78886 232.428094 
L 372.67418 236.182786 
L 374.498683 228.983384 
L 376.384003 228.332553 
L 378.269323 230.083088 
L 379.972193 226.458561 
L 381.857513 226.606843 
L 385.567336 224.463126 
L 387.39184 225.31189 
L 389.27716 225.657435 
L 391.16248 229.298735 
L 392.986983 235.703721 
L 394.872303 230.309201 
L 396.696806 226.564573 
L 398.582126 228.345301 
L 400.467446 237.435469 
L 402.231133 238.386891 
L 404.116453 230.501096 
L 405.940956 226.905421 
L 407.826276 227.57571 
L 409.65078 226.345169 
L 411.5361 221.983257 
L 413.42142 220.50379 
L 417.131243 222.377781 
L 418.955746 220.903682 
L 420.841066 215.425963 
L 422.726386 213.514398 
L 424.429256 209.838207 
L 426.314576 207.361693 
L 428.139079 207.865584 
L 430.024399 205.447444 
L 431.848903 202.854854 
L 433.734223 201.505553 
L 435.619543 201.36331 
L 437.444046 198.906254 
L 439.329366 194.601373 
L 441.153869 192.144988 
L 443.039189 187.399287 
L 444.92451 178.981421 
L 446.627379 184.660428 
L 448.512699 184.820787 
L 450.337203 188.117885 
L 452.222523 184.90667 
L 454.047026 181.359975 
L 455.932346 178.723772 
L 457.817666 174.41755 
L 459.642169 171.486796 
L 461.527489 179.272618 
L 463.351993 183.448003 
L 465.237313 193.909613 
L 467.122633 191.220405 
L 468.825502 181.325756 
L 470.710822 178.03 
L 472.535326 171.332476 
L 474.420646 174.626219 
L 476.245149 172.246994 
L 478.130469 165.138598 
L 480.015789 171.755302 
L 481.840292 166.0751 
L 483.725613 166.375422 
L 485.550116 157.839165 
L 487.435436 153.01865 
L 489.320756 146.211536 
L 491.084442 146.271161 
L 492.969762 188.200841 
L 494.794266 180.848352 
L 496.679586 170.271352 
L 498.504089 157.855509 
L 500.389409 150.947425 
L 502.274729 138.595659 
L 504.099232 140.353127 
L 505.984552 136.784646 
L 507.809056 128.04263 
L 509.694376 118.225309 
L 513.282566 105.603065 
L 515.167886 103.786363 
L 516.992389 88.309465 
L 518.877709 86.519792 
L 520.702212 81.780126 
L 522.587532 73.378141 
L 524.472852 67.306387 
L 526.297356 67.887642 
L 528.182676 66.870211 
L 530.007179 53.002839 
L 531.892499 52.507264 
L 533.777819 59.281091 
L 535.480689 68.529269 
L 537.366009 71.529488 
L 539.190512 71.527422 
L 541.075832 95.073829 
L 542.900335 104.5621 
L 544.785655 103.704423 
L 546.670975 87.142876 
L 548.495479 107.811305 
L 550.380799 116.162714 
L 552.205302 103.318012 
L 554.090622 103.660713 
L 555.975942 100.421616 
L 557.678812 92.435296 
L 559.564132 99.891381 
L 561.388635 89.631848 
L 563.273955 87.974186 
L 565.098459 74.608682 
L 566.983779 63.691983 
L 570.693602 70.33318 
L 572.578922 79.706097 
L 574.403425 66.913408 
L 576.288745 51.817599 
L 576.288745 51.817599 
" clip-path="url(#p1b78ab9eb5)" style="fill: none; stroke-dasharray: 3.7,1.6; stroke-dashoffset: 0; stroke: #000000"/>
   </g>
   <g id="line2d_102">
    <path d="M 69.016018 276.163619 
L 70.901338 279.017949 
L 72.725841 288.230724 
L 74.611161 287.546234 
L 76.435665 280.387081 
L 78.320985 283.529703 
L 80.206305 286.397627 
L 82.030808 286.855708 
L 83.916128 298.526767 
L 85.740631 293.009906 
L 87.625951 289.950973 
L 89.511272 290.401883 
L 91.214141 289.675399 
L 93.099461 292.74339 
L 94.923965 288.846482 
L 96.809285 292.112815 
L 98.633788 294.19684 
L 100.519108 298.708382 
L 102.404428 306.741397 
L 104.228931 303.894198 
L 106.114251 307.918063 
L 107.938755 309.388434 
L 109.824075 304.417135 
L 111.709395 306.143914 
L 113.412264 305.981306 
L 115.297584 310.632853 
L 117.122088 308.982974 
L 119.007408 305.82534 
L 120.831911 301.476147 
L 122.717231 298.085753 
L 124.602551 301.017233 
L 126.427054 300.533196 
L 128.312375 296.307036 
L 130.136878 296.028995 
L 132.022198 294.726568 
L 133.907518 292.421734 
L 135.671204 288.86719 
L 137.556524 289.246045 
L 139.381028 290.45806 
L 141.266348 290.286278 
L 143.090851 292.914624 
L 144.976171 288.585107 
L 146.861491 291.875536 
L 148.685994 292.643292 
L 150.571314 290.002745 
L 152.395818 291.18556 
L 154.281138 286.433401 
L 156.166458 285.372101 
L 157.869328 287.059387 
L 159.754648 285.004673 
L 161.579151 286.668427 
L 163.464471 288.049941 
L 165.288974 286.175404 
L 167.174294 284.450949 
L 169.059614 284.3537 
L 170.884118 283.789248 
L 172.769438 283.542304 
L 174.593941 286.778315 
L 176.479261 281.585637 
L 178.364581 280.827987 
L 180.067451 279.899882 
L 181.952771 280.657004 
L 183.777274 279.059441 
L 185.662594 279.284943 
L 187.487097 279.631223 
L 189.372417 282.370751 
L 191.257737 281.071772 
L 193.082241 278.807247 
L 194.967561 276.679024 
L 196.792064 273.70934 
L 198.677384 272.108297 
L 200.562704 270.274285 
L 202.265574 270.761478 
L 204.150894 268.526454 
L 205.975397 271.827841 
L 207.860717 266.650995 
L 209.685221 263.68994 
L 211.570541 265.023488 
L 213.455861 263.753927 
L 215.280364 268.673792 
L 217.165684 264.289499 
L 218.990187 261.692547 
L 220.875507 268.662908 
L 222.760827 266.734505 
L 224.524514 274.421116 
L 226.409834 275.565813 
L 228.234337 278.121298 
L 230.119657 274.199928 
L 231.944161 272.487511 
L 233.829481 278.258451 
L 235.714801 282.849742 
L 237.539304 279.323327 
L 239.424624 284.827986 
L 241.249127 305.146812 
L 243.134447 308.101817 
L 245.019767 308.543202 
L 246.722637 309.783657 
L 248.607957 314.474014 
L 250.43246 316.419147 
L 252.31778 306.643384 
L 254.142284 306.043902 
L 256.027604 304.37331 
L 257.912924 303.688517 
L 259.737427 297.43991 
L 261.622747 295.254749 
L 263.44725 293.809393 
L 265.33257 291.337485 
L 267.217891 290.197988 
L 268.92076 289.842446 
L 270.80608 293.135874 
L 272.630584 287.486589 
L 274.515904 284.925187 
L 276.340407 290.955315 
L 278.225727 293.411129 
L 280.111047 293.536251 
L 281.93555 292.710585 
L 283.82087 290.037471 
L 285.645374 286.493291 
L 287.530694 285.367011 
L 289.416014 282.773716 
L 291.118883 278.932423 
L 293.004203 276.896426 
L 294.828707 278.600052 
L 296.714027 275.962299 
L 298.53853 276.020311 
L 300.42385 279.858756 
L 302.30917 276.128236 
L 304.133673 289.180859 
L 306.018994 286.724637 
L 307.843497 284.630999 
L 309.728817 283.245435 
L 311.614137 282.234673 
L 313.377823 277.574312 
L 315.263143 274.383841 
L 317.087647 272.680619 
L 318.972967 272.91983 
L 320.79747 275.829384 
L 322.68279 276.846143 
L 324.56811 273.660836 
L 326.392613 271.422471 
L 328.277933 268.10487 
L 330.102437 269.865905 
L 331.987757 272.745754 
L 333.873077 269.89928 
L 335.575947 266.27006 
L 339.28577 260.971872 
L 341.17109 259.868507 
L 342.995593 255.109586 
L 344.880913 258.587077 
L 346.766233 252.780508 
L 348.590737 254.078488 
L 350.476057 252.701383 
L 352.30056 249.58479 
L 354.18588 245.456505 
L 356.0712 244.663211 
L 357.77407 243.639285 
L 359.65939 243.911943 
L 361.483893 239.803872 
L 363.369213 241.045595 
L 365.193716 238.504848 
L 367.079036 234.249639 
L 368.964356 232.95085 
L 370.78886 234.269065 
L 372.67418 231.623918 
L 374.498683 236.157788 
L 376.384003 226.831912 
L 378.269323 227.850333 
L 379.972193 229.101687 
L 381.857513 225.232265 
L 383.682016 226.627187 
L 385.567336 225.130399 
L 387.39184 224.818595 
L 389.27716 225.181891 
L 391.16248 225.22511 
L 392.986983 229.100665 
L 394.872303 236.238826 
L 396.696806 228.361585 
L 398.582126 225.732052 
L 400.467446 228.167739 
L 402.231133 238.134852 
L 404.116453 237.445444 
L 405.940956 228.731355 
L 407.826276 225.320707 
L 409.65078 227.580106 
L 411.5361 225.657194 
L 413.42142 219.650993 
L 415.245923 220.654452 
L 418.955746 222.478521 
L 420.841066 221.256929 
L 422.726386 213.827768 
L 424.429256 212.422623 
L 426.314576 208.349891 
L 428.139079 206.574898 
L 430.024399 207.528878 
L 431.848903 204.364033 
L 433.734223 201.563644 
L 435.619543 201.520006 
L 437.444046 201.022856 
L 439.329366 197.781548 
L 441.153869 193.379423 
L 443.039189 190.972238 
L 444.92451 185.564883 
L 446.627379 177.167058 
L 448.512699 185.86175 
L 450.337203 184.107698 
L 452.222523 188.067887 
L 454.047026 183.066854 
L 455.932346 179.649583 
L 457.817666 177.577706 
L 459.642169 172.514319 
L 461.527489 170.493907 
L 463.351993 179.966912 
L 465.237313 183.578964 
L 467.122633 194.401604 
L 468.825502 189.595914 
L 470.710822 178.191399 
L 472.535326 176.225037 
L 474.420646 168.82587 
L 476.245149 174.475568 
L 478.130469 169.662212 
L 480.015789 160.369461 
L 481.840292 171.981445 
L 483.725613 163.577036 
L 485.550116 166.490074 
L 487.435436 155.311943 
L 489.320756 150.979141 
L 491.084442 144.186075 
L 492.969762 147.008884 
L 494.794266 193.479487 
L 496.679586 165.035547 
L 498.504089 167.95512 
L 500.389409 155.933275 
L 502.274729 147.90381 
L 504.099232 135.255438 
L 505.984552 141.124518 
L 507.809056 136.025701 
L 509.694376 124.960393 
L 511.579696 115.088382 
L 513.282566 110.326253 
L 515.167886 102.22293 
L 516.992389 103.243556 
L 518.877709 83.419703 
L 520.702212 85.549229 
L 522.587532 79.376579 
L 524.472852 69.019323 
L 526.297356 64.090113 
L 528.182676 67.849843 
L 530.007179 66.154052 
L 531.892499 48.378554 
L 533.777819 52.211162 
L 535.480689 59.054637 
L 537.366009 68.933478 
L 539.190512 71.425481 
L 541.075832 72.003075 
L 542.900335 96.989517 
L 544.785655 104.63354 
L 546.670975 103.190515 
L 548.495479 82.308237 
L 550.380799 111.858335 
L 552.205302 117.094437 
L 554.090622 98.600039 
L 555.975942 103.651105 
L 557.678812 98.266103 
L 559.564132 90.091515 
L 561.388635 100.068886 
L 563.273955 85.955529 
L 565.098459 88.361458 
L 566.983779 70.902831 
L 568.869099 60.679461 
L 570.693602 68.095827 
L 572.578922 70.446136 
L 574.403425 80.370241 
L 576.288745 62.266334 
L 576.288745 62.266334 
" clip-path="url(#p1b78ab9eb5)" style="fill: none; stroke: #ff0000; stroke-linecap: square"/>
   </g>
   <g id="patch_3">
    <path d="M 43.652382 336.24 
L 43.652382 3.6 
" style="fill: none; stroke: #000000; stroke-width: 0.5; stroke-linejoin: miter; stroke-linecap: square"/>
   </g>
   <g id="patch_4">
    <path d="M 601.652382 336.24 
L 601.652382 3.6 
" style="fill: none; stroke: #000000; stroke-width: 0.5; stroke-linejoin: miter; stroke-linecap: square"/>
   </g>
   <g id="patch_5">
    <path d="M 43.652382 336.24 
L 601.652382 336.24 
" style="fill: none; stroke: #000000; stroke-width: 0.5; stroke-linejoin: miter; stroke-linecap: square"/>
   </g>
   <g id="patch_6">
    <path d="M 43.652382 3.6 
L 601.652382 3.6 
" style="fill: none; stroke: #000000; stroke-width: 0.5; stroke-linejoin: miter; stroke-linecap: square"/>
   </g>
   <g id="legend_1">
    <g id="line2d_103">
     <path d="M 56.252382 21.1 
L 70.252382 21.1 
L 84.252382 21.1 
" style="fill: none; stroke-dasharray: 3.7,1.6; stroke-dashoffset: 0; stroke: #000000"/>
    </g>
    <g id="text_12">
     <!-- SP 500 -->
     <g transform="translate(95.452382 26) scale(0.14 -0.14)">
      <defs>
       <path id="CMR17-53" d="M 2803 4351 
C 2803 4467 2797 4473 2758 4473 
C 2720 4473 2707 4447 2682 4390 
L 2490 3965 
C 2246 4320 1875 4480 1472 4480 
C 819 4480 294 3958 294 3301 
C 294 3101 339 2817 557 2546 
C 794 2250 1018 2198 1530 2063 
C 1722 2011 2042 1927 2106 1901 
C 2470 1747 2662 1360 2662 999 
C 2662 534 2336 38 1779 38 
C 1094 38 454 425 410 1328 
C 403 1431 397 1437 352 1437 
C 301 1437 294 1431 294 1302 
L 294 0 
C 294 -116 301 -122 339 -122 
C 384 -122 397 -90 486 109 
C 493 128 493 141 614 386 
C 934 -39 1472 -128 1779 -128 
C 2477 -128 2970 457 2970 1141 
C 2970 1476 2848 1734 2778 1850 
C 2509 2263 2221 2340 1914 2417 
C 1869 2437 1856 2437 1498 2527 
C 1152 2617 1005 2662 845 2836 
C 666 3036 602 3243 602 3449 
C 602 3868 934 4326 1478 4326 
C 2157 4326 2579 3842 2675 3036 
C 2694 2920 2701 2914 2746 2914 
C 2803 2914 2803 2933 2803 3043 
L 2803 4351 
z
" transform="scale(0.015625)"/>
       <path id="CMR17-50" d="M 1267 2048 
L 2291 2048 
C 3117 2048 3718 2583 3718 3187 
C 3718 3791 3130 4352 2291 4352 
L 333 4352 
L 333 4185 
C 774 4185 845 4185 845 3899 
L 845 453 
C 845 166 774 166 333 166 
L 333 0 
C 518 12 858 12 1056 12 
C 1254 12 1594 12 1779 0 
L 1779 166 
C 1338 166 1267 166 1267 453 
L 1267 2048 
z
M 1254 2182 
L 1254 3937 
C 1254 4153 1267 4185 1523 4185 
L 2170 4185 
C 2995 4185 3232 3715 3232 3187 
C 3232 2608 2950 2182 2170 2182 
L 1254 2182 
z
" transform="scale(0.015625)"/>
      </defs>
      <use xlink:href="#CMR17-53" transform="scale(0.996264)"/>
      <use xlink:href="#CMR17-50" transform="translate(50.89537 0) scale(0.996264)"/>
      <use xlink:href="#CMR17-35" transform="translate(143.557637 0) scale(0.996264)"/>
      <use xlink:href="#CMR17-30" transform="translate(189.248114 0) scale(0.996264)"/>
      <use xlink:href="#CMR17-30" transform="translate(234.938591 0) scale(0.996264)"/>
     </g>
    </g>
    <g id="line2d_104">
     <path d="M 56.252382 41.2728 
L 70.252382 41.2728 
L 84.252382 41.2728 
" style="fill: none; stroke: #ff0000; stroke-linecap: square"/>
    </g>
    <g id="text_13">
     <!-- combined forecast (BIC) -->
     <g transform="translate(95.452382 46.1728) scale(0.14 -0.14)">
      <defs>
       <path id="CMR17-63" d="M 2234 2240 
C 2112 2240 1933 2240 1933 2015 
C 1933 1836 2080 1785 2163 1785 
C 2208 1785 2394 1804 2394 2028 
C 2394 2476 1958 2816 1466 2816 
C 787 2816 211 2201 211 1379 
C 211 521 813 -64 1466 -64 
C 2259 -64 2458 676 2458 747 
C 2458 773 2451 792 2406 792 
C 2362 792 2355 786 2330 702 
C 2163 180 1798 51 1523 51 
C 1114 51 621 431 621 1385 
C 621 2358 1094 2700 1472 2700 
C 1722 2700 2093 2582 2234 2240 
z
" transform="scale(0.015625)"/>
       <path id="CMR17-6f" d="M 2758 1356 
C 2758 2176 2163 2816 1466 2816 
C 768 2816 173 2176 173 1356 
C 173 550 768 -64 1466 -64 
C 2163 -64 2758 550 2758 1356 
z
M 1466 51 
C 1165 51 909 230 762 480 
C 602 768 582 1126 582 1408 
C 582 1676 595 2009 762 2297 
C 890 2508 1139 2713 1466 2713 
C 1754 2713 1997 2553 2150 2329 
C 2349 2028 2349 1606 2349 1408 
C 2349 1158 2336 774 2163 467 
C 1984 172 1709 51 1466 51 
z
" transform="scale(0.015625)"/>
       <path id="CMR17-6d" d="M 4326 1954 
C 4326 2276 4269 2816 3507 2816 
C 3072 2816 2771 2520 2656 2173 
L 2650 2173 
C 2573 2700 2195 2816 1837 2816 
C 1331 2816 1069 2424 973 2166 
L 966 2166 
L 966 2816 
L 211 2745 
L 211 2578 
C 589 2578 646 2540 646 2231 
L 646 443 
C 646 198 621 166 211 166 
L 211 0 
C 365 12 646 12 813 12 
C 979 12 1267 12 1421 0 
L 1421 166 
C 1011 166 986 192 986 443 
L 986 1678 
C 986 2269 1344 2713 1792 2713 
C 2266 2713 2317 2289 2317 1980 
L 2317 443 
C 2317 198 2291 166 1882 166 
L 1882 0 
C 2035 12 2317 12 2483 12 
C 2650 12 2938 12 3091 0 
L 3091 166 
C 2682 166 2656 192 2656 443 
L 2656 1678 
C 2656 2269 3014 2713 3462 2713 
C 3936 2713 3987 2289 3987 1980 
L 3987 443 
C 3987 198 3962 166 3552 166 
L 3552 0 
C 3706 12 3987 12 4154 12 
C 4320 12 4608 12 4762 0 
L 4762 166 
C 4352 166 4326 192 4326 443 
L 4326 1954 
z
" transform="scale(0.015625)"/>
       <path id="CMR17-62" d="M 960 4416 
L 198 4345 
L 198 4179 
C 576 4179 634 4141 634 3843 
L 634 -13 
L 749 -13 
L 934 445 
C 1120 141 1395 -64 1766 -64 
C 2406 -64 3053 503 3053 1382 
C 3053 2209 2477 2816 1830 2816 
C 1434 2816 1152 2603 960 2351 
L 960 4416 
z
M 973 2022 
C 973 2138 973 2157 1062 2293 
C 1312 2681 1670 2713 1792 2713 
C 1984 2713 2643 2610 2643 1388 
C 2643 109 1888 38 1734 38 
C 1536 38 1248 115 1043 490 
C 973 613 973 626 973 742 
L 973 2022 
z
" transform="scale(0.015625)"/>
       <path id="CMR17-69" d="M 992 3961 
C 992 4102 877 4224 730 4224 
C 589 4224 467 4108 467 3961 
C 467 3820 582 3699 730 3699 
C 870 3699 992 3814 992 3961 
z
M 243 2745 
L 243 2579 
C 602 2579 653 2540 653 2231 
L 653 443 
C 653 198 627 166 218 166 
L 218 0 
C 371 12 646 12 806 12 
C 960 12 1222 12 1370 0 
L 1370 166 
C 992 166 979 205 979 436 
L 979 2816 
L 243 2745 
z
" transform="scale(0.015625)"/>
       <path id="CMR17-6e" d="M 2656 1954 
C 2656 2282 2592 2816 1837 2816 
C 1331 2816 1069 2424 973 2166 
L 966 2166 
L 966 2816 
L 211 2745 
L 211 2578 
C 589 2578 646 2540 646 2231 
L 646 443 
C 646 198 621 166 211 166 
L 211 0 
C 365 12 646 12 813 12 
C 979 12 1267 12 1421 0 
L 1421 166 
C 1011 166 986 192 986 443 
L 986 1678 
C 986 2269 1344 2713 1792 2713 
C 2266 2713 2317 2289 2317 1980 
L 2317 443 
C 2317 198 2291 166 1882 166 
L 1882 0 
C 2035 12 2317 12 2483 12 
C 2650 12 2938 12 3091 0 
L 3091 166 
C 2682 166 2656 192 2656 443 
L 2656 1954 
z
" transform="scale(0.015625)"/>
       <path id="CMR17-65" d="M 2438 1503 
C 2464 1529 2464 1542 2464 1606 
C 2464 2251 2118 2816 1389 2816 
C 710 2816 173 2175 173 1394 
C 173 554 781 -64 1459 -64 
C 2176 -64 2458 619 2458 755 
C 2458 800 2419 800 2406 800 
C 2362 800 2355 787 2330 709 
C 2189 270 1837 51 1504 51 
C 1229 51 954 206 781 490 
C 582 819 582 1200 582 1503 
L 2438 1503 
z
M 589 1600 
C 634 2511 1126 2713 1382 2713 
C 1818 2713 2112 2308 2118 1600 
L 589 1600 
z
" transform="scale(0.015625)"/>
       <path id="CMR17-64" d="M 1869 4345 
L 1869 4179 
C 2246 4179 2304 4141 2304 3843 
L 2304 2371 
C 2278 2403 2016 2816 1498 2816 
C 845 2816 211 2228 211 1376 
C 211 529 806 -64 1434 -64 
C 1978 -64 2259 361 2291 406 
L 2291 -64 
L 3066 -13 
L 3066 154 
C 2688 154 2630 193 2630 503 
L 2630 4416 
L 1869 4345 
z
M 2291 762 
C 2291 568 2176 393 2029 264 
C 1811 70 1594 38 1472 38 
C 1286 38 621 135 621 1369 
C 621 2636 1363 2713 1530 2713 
C 1824 2713 2061 2545 2208 2313 
C 2291 2177 2291 2157 2291 2041 
L 2291 762 
z
" transform="scale(0.015625)"/>
       <path id="CMR17-66" d="M 979 2585 
L 1709 2585 
L 1709 2752 
L 966 2752 
L 966 3539 
C 966 4076 1235 4377 1510 4377 
C 1594 4377 1690 4363 1754 4339 
C 1702 4326 1568 4281 1568 4121 
C 1568 3955 1696 3904 1786 3904 
C 1875 3904 2003 3955 2003 4121 
C 2003 4353 1773 4480 1517 4480 
C 1152 4480 653 4211 653 3526 
L 653 2752 
L 141 2752 
L 141 2585 
L 653 2585 
L 653 441 
C 653 198 627 166 218 166 
L 218 0 
C 371 12 666 12 832 12 
C 1018 12 1344 12 1517 0 
L 1517 166 
C 1056 166 979 166 979 454 
L 979 2585 
z
" transform="scale(0.015625)"/>
       <path id="CMR17-72" d="M 960 1517 
C 960 2134 1222 2713 1702 2713 
C 1747 2713 1792 2707 1837 2687 
C 1837 2687 1696 2642 1696 2475 
C 1696 2321 1818 2257 1914 2257 
C 1990 2257 2131 2302 2131 2482 
C 2131 2687 1926 2816 1709 2816 
C 1222 2816 1011 2340 947 2115 
L 941 2115 
L 941 2816 
L 198 2745 
L 198 2578 
C 576 2578 634 2540 634 2231 
L 634 443 
C 634 198 608 166 198 166 
L 198 0 
C 352 12 646 12 813 12 
C 998 12 1325 12 1498 0 
L 1498 166 
C 1037 166 960 166 960 455 
L 960 1517 
z
" transform="scale(0.015625)"/>
       <path id="CMR17-61" d="M 2304 1656 
C 2304 2048 2304 2275 2035 2534 
C 1798 2751 1523 2816 1306 2816 
C 800 2816 435 2408 435 1977 
C 435 1740 627 1728 666 1728 
C 749 1728 896 1779 896 1958 
C 896 2118 774 2188 666 2188 
C 640 2188 608 2182 589 2176 
C 723 2594 1069 2713 1293 2713 
C 1613 2713 1965 2421 1965 1875 
L 1965 1632 
C 1587 1619 1133 1568 774 1373 
C 371 1147 256 822 256 576 
C 256 77 832 -64 1171 -64 
C 1523 -64 1850 135 1990 505 
C 2003 219 2182 -39 2464 -39 
C 2598 -39 2938 51 2938 563 
L 2938 926 
L 2822 926 
L 2822 557 
C 2822 161 2650 109 2566 109 
C 2304 109 2304 446 2304 732 
L 2304 1656 
z
M 1965 887 
C 1965 323 1568 38 1216 38 
C 896 38 646 278 646 576 
C 646 771 730 1114 1101 1322 
C 1408 1497 1760 1523 1965 1536 
L 1965 887 
z
" transform="scale(0.015625)"/>
       <path id="CMR17-73" d="M 1978 2688 
C 1978 2803 1971 2809 1933 2809 
C 1907 2809 1901 2803 1824 2707 
C 1805 2681 1747 2617 1728 2592 
C 1523 2809 1235 2816 1126 2816 
C 416 2816 160 2444 160 2073 
C 160 1497 813 1363 998 1324 
C 1402 1241 1542 1216 1677 1100 
C 1760 1024 1901 883 1901 652 
C 1901 384 1747 38 1158 38 
C 602 38 403 460 288 1024 
C 269 1113 269 1120 218 1120 
C 166 1120 160 1113 160 985 
L 160 64 
C 160 -52 166 -58 205 -58 
C 237 -58 243 -52 275 0 
C 314 57 410 211 448 275 
C 576 102 800 -64 1158 -64 
C 1792 -64 2131 281 2131 780 
C 2131 1107 1958 1280 1875 1356 
C 1683 1555 1459 1600 1190 1651 
C 838 1728 390 1817 390 2208 
C 390 2374 480 2726 1126 2726 
C 1811 2726 1850 2086 1862 1881 
C 1869 1849 1901 1843 1920 1843 
C 1978 1843 1978 1862 1978 1971 
L 1978 2688 
z
" transform="scale(0.015625)"/>
       <path id="CMR17-74" d="M 966 2585 
L 1862 2585 
L 1862 2752 
L 966 2752 
L 966 3968 
L 851 3968 
C 838 3292 614 2700 70 2687 
L 70 2585 
L 627 2585 
L 627 778 
C 627 655 627 -64 1370 -64 
C 1747 -64 1965 308 1965 784 
L 1965 1151 
L 1850 1151 
L 1850 790 
C 1850 347 1677 51 1408 51 
C 1222 51 966 179 966 765 
L 966 2585 
z
" transform="scale(0.015625)"/>
       <path id="CMR17-28" d="M 1958 -1562 
C 1958 -1556 1958 -1543 1939 -1524 
C 1645 -1223 858 -403 858 1596 
C 858 3595 1632 4408 1946 4729 
C 1946 4735 1958 4748 1958 4767 
C 1958 4787 1939 4800 1914 4800 
C 1843 4800 1299 4325 986 3620 
C 666 2909 576 2218 576 1603 
C 576 1141 621 360 1005 -467 
C 1312 -1133 1837 -1600 1914 -1600 
C 1946 -1600 1958 -1588 1958 -1562 
z
" transform="scale(0.015625)"/>
       <path id="CMR17-42" d="M 333 4352 
L 333 4185 
C 774 4185 845 4185 845 3897 
L 845 451 
C 845 166 774 166 333 166 
L 333 0 
L 2534 0 
C 3354 0 3885 578 3885 1155 
C 3885 1726 3360 2214 2675 2259 
C 3290 2380 3718 2790 3718 3276 
C 3718 3808 3194 4352 2368 4352 
L 333 4352 
z
M 1248 2304 
L 1248 3936 
C 1248 4153 1261 4185 1517 4185 
L 2336 4185 
C 2970 4185 3251 3673 3251 3276 
C 3251 2790 2861 2304 2170 2304 
L 1248 2304 
z
M 1517 166 
C 1261 166 1248 198 1248 413 
L 1248 2201 
L 2432 2201 
C 3091 2201 3411 1624 3411 1161 
C 3411 698 3046 166 2349 166 
L 1517 166 
z
" transform="scale(0.015625)"/>
       <path id="CMR17-49" d="M 1261 3898 
C 1261 4185 1338 4185 1798 4185 
L 1798 4352 
C 1594 4339 1267 4339 1050 4339 
C 832 4339 506 4339 301 4352 
L 301 4185 
C 762 4185 838 4185 838 3898 
L 838 453 
C 838 166 762 166 301 166 
L 301 0 
C 506 12 832 12 1050 12 
C 1267 12 1594 12 1798 0 
L 1798 166 
C 1338 166 1261 166 1261 453 
L 1261 3898 
z
" transform="scale(0.015625)"/>
       <path id="CMR17-43" d="M 3974 4351 
C 3974 4467 3968 4473 3930 4473 
C 3904 4473 3898 4467 3853 4390 
L 3571 3849 
C 3258 4249 2874 4480 2381 4480 
C 1286 4480 294 3507 294 2179 
C 294 837 1286 -128 2387 -128 
C 3366 -128 3974 741 3974 1482 
C 3974 1547 3974 1573 3917 1573 
C 3866 1573 3866 1553 3859 1495 
C 3808 592 3168 38 2477 38 
C 1824 38 781 502 781 2179 
C 781 3862 1843 4313 2464 4313 
C 3187 4313 3712 3681 3834 2785 
C 3846 2707 3846 2695 3904 2695 
C 3974 2695 3974 2707 3974 2824 
L 3974 4351 
z
" transform="scale(0.015625)"/>
       <path id="CMR17-29" d="M 1683 1596 
C 1683 2057 1638 2839 1254 3665 
C 947 4332 422 4800 346 4800 
C 326 4800 301 4793 301 4761 
C 301 4748 307 4742 314 4729 
C 621 4408 1402 3595 1402 1603 
C 1402 -396 627 -1210 314 -1530 
C 307 -1543 301 -1549 301 -1562 
C 301 -1594 326 -1600 346 -1600 
C 416 -1600 960 -1127 1274 -422 
C 1594 289 1683 981 1683 1596 
z
" transform="scale(0.015625)"/>
      </defs>
      <use xlink:href="#CMR17-63" transform="scale(0.996264)"/>
      <use xlink:href="#CMR17-6f" transform="translate(40.48566 0) scale(0.996264)"/>
      <use xlink:href="#CMR17-6d" transform="translate(86.176138 0) scale(0.996264)"/>
      <use xlink:href="#CMR17-62" transform="translate(160.493274 0) scale(0.996264)"/>
      <use xlink:href="#CMR17-69" transform="translate(211.388643 0) scale(0.996264)"/>
      <use xlink:href="#CMR17-6e" transform="translate(236.259702 0) scale(0.996264)"/>
      <use xlink:href="#CMR17-65" transform="translate(287.155072 0) scale(0.996264)"/>
      <use xlink:href="#CMR17-64" transform="translate(327.640732 0) scale(0.996264)"/>
      <use xlink:href="#CMR17-66" transform="translate(408.612068 0) scale(0.996264)"/>
      <use xlink:href="#CMR17-6f" transform="translate(436.085581 0) scale(0.996264)"/>
      <use xlink:href="#CMR17-72" transform="translate(481.776058 0) scale(0.996264)"/>
      <use xlink:href="#CMR17-65" transform="translate(517.056825 0) scale(0.996264)"/>
      <use xlink:href="#CMR17-63" transform="translate(557.542486 0) scale(0.996264)"/>
      <use xlink:href="#CMR17-61" transform="translate(598.028146 0) scale(0.996264)"/>
      <use xlink:href="#CMR17-73" transform="translate(643.718624 0) scale(0.996264)"/>
      <use xlink:href="#CMR17-74" transform="translate(679.519961 0) scale(0.996264)"/>
      <use xlink:href="#CMR17-28" transform="translate(744.876695 0) scale(0.996264)"/>
      <use xlink:href="#CMR17-42" transform="translate(780.157463 0) scale(0.996264)"/>
      <use xlink:href="#CMR17-49" transform="translate(845.346218 0) scale(0.996264)"/>
      <use xlink:href="#CMR17-43" transform="translate(877.984627 0) scale(0.996264)"/>
      <use xlink:href="#CMR17-29" transform="translate(944.494507 0) scale(0.996264)"/>
     </g>
    </g>
    <g id="patch_7">
     <path d="M 56.252382 66.459725 
L 84.252382 66.459725 
L 84.252382 56.659725 
L 56.252382 56.659725 
z
" style="fill: #808080; fill-opacity: 0.4; stroke: #808080; stroke-opacity: 0.4; stroke-linejoin: miter"/>
    </g>
    <g id="text_14">
     <!-- 99 perc. CI -->
     <g transform="translate(95.452382 66.459725) scale(0.14 -0.14)">
      <defs>
       <path id="CMR17-39" d="M 2253 1871 
C 2253 448 1670 25 1190 25 
C 1043 25 685 43 538 281 
C 704 256 826 345 826 505 
C 826 678 685 736 595 736 
C 538 736 365 710 365 492 
C 365 68 742 -128 1203 -128 
C 1939 -128 2688 665 2688 2090 
C 2688 3857 1971 4224 1485 4224 
C 851 4224 243 3664 243 2800 
C 243 2000 762 1408 1414 1408 
C 1952 1408 2189 1910 2253 2122 
L 2253 1871 
z
M 1427 1510 
C 1254 1510 1011 1542 813 1929 
C 678 2181 678 2477 678 2793 
C 678 3174 678 3438 858 3722 
C 947 3857 1114 4076 1485 4076 
C 2240 4076 2240 2909 2240 2651 
C 2240 2193 2035 1510 1427 1510 
z
" transform="scale(0.015625)"/>
       <path id="CMR17-70" d="M 1408 -1114 
C 998 -1114 973 -1088 973 -834 
L 973 380 
C 1158 109 1427 -64 1766 -64 
C 2406 -64 3053 503 3053 1382 
C 3053 2196 2496 2816 1837 2816 
C 1453 2816 1139 2603 960 2345 
L 960 2816 
L 198 2745 
L 198 2577 
C 576 2577 634 2539 634 2228 
L 634 -834 
C 634 -1081 608 -1114 198 -1114 
L 198 -1280 
C 352 -1268 634 -1268 800 -1268 
C 966 -1268 1254 -1268 1408 -1280 
L 1408 -1114 
z
M 973 2015 
C 973 2106 973 2241 1222 2481 
C 1254 2506 1472 2700 1792 2700 
C 2259 2700 2643 2112 2643 1376 
C 2643 639 2234 38 1728 38 
C 1498 38 1248 148 1056 451 
C 973 594 973 632 973 736 
L 973 2015 
z
" transform="scale(0.015625)"/>
       <path id="CMR17-2e" d="M 1062 262 
C 1062 422 934 524 800 524 
C 672 524 538 422 538 262 
C 538 102 666 0 800 0 
C 928 0 1062 102 1062 262 
z
" transform="scale(0.015625)"/>
      </defs>
      <use xlink:href="#CMR17-39" transform="scale(0.996264)"/>
      <use xlink:href="#CMR17-39" transform="translate(45.690477 0) scale(0.996264)"/>
      <use xlink:href="#CMR17-70" transform="translate(121.456921 0) scale(0.996264)"/>
      <use xlink:href="#CMR17-65" transform="translate(174.954729 0) scale(0.996264)"/>
      <use xlink:href="#CMR17-72" transform="translate(215.44039 0) scale(0.996264)"/>
      <use xlink:href="#CMR17-63" transform="translate(250.721157 0) scale(0.996264)"/>
      <use xlink:href="#CMR17-2e" transform="translate(291.206818 0) scale(0.996264)"/>
      <use xlink:href="#CMR17-43" transform="translate(356.563537 0) scale(0.996264)"/>
      <use xlink:href="#CMR17-49" transform="translate(423.073417 0) scale(0.996264)"/>
     </g>
    </g>
   </g>
  </g>
 </g>
 <defs>
  <clipPath id="p1b78ab9eb5">
   <rect x="43.652382" y="3.6" width="558" height="332.64"/>
  </clipPath>
 </defs>
</svg>
