<?xml version="1.0" encoding="utf-8" standalone="no"?>
<!DOCTYPE svg PUBLIC "-//W3C//DTD SVG 1.1//EN"
  "http://www.w3.org/Graphics/SVG/1.1/DTD/svg11.dtd">
<svg xmlns:xlink="http://www.w3.org/1999/xlink" width="599.096314pt" height="359.281364pt" viewBox="0 0 599.096314 359.281364" xmlns="http://www.w3.org/2000/svg" version="1.1">
 <metadata>
  <rdf:RDF xmlns:dc="http://purl.org/dc/elements/1.1/" xmlns:cc="http://creativecommons.org/ns#" xmlns:rdf="http://www.w3.org/1999/02/22-rdf-syntax-ns#">
   <cc:Work>
    <dc:type rdf:resource="http://purl.org/dc/dcmitype/StillImage"/>
    <dc:date>2025-04-08T14:00:24.535830</dc:date>
    <dc:format>image/svg+xml</dc:format>
    <dc:creator>
     <cc:Agent>
      <dc:title>Matplotlib v3.9.2, https://matplotlib.org/</dc:title>
     </cc:Agent>
    </dc:creator>
   </cc:Work>
  </rdf:RDF>
 </metadata>
 <defs>
  <style type="text/css">*{stroke-linejoin: round; stroke-linecap: butt}</style>
 </defs>
 <g id="figure_1">
  <g id="patch_1">
   <path d="M 0 359.281364 
L 599.096314 359.281364 
L 599.096314 0 
L 0 0 
z
" style="fill: #ffffff"/>
  </g>
  <g id="axes_1">
   <g id="patch_2">
    <path d="M 37.496314 336.24 
L 595.496314 336.24 
L 595.496314 3.6 
L 37.496314 3.6 
z
" style="fill: #ffffff"/>
   </g>
   <g id="PolyCollection_1">
    <defs>
     <path id="m5cbd35454c" d="M 62.85995 -313.712286 
L 62.85995 -182.912263 
L 64.74527 -181.648407 
L 66.569773 -170.021515 
L 68.455093 -175.664584 
L 70.279597 -186.489607 
L 72.164917 -179.593254 
L 74.050237 -176.870745 
L 75.87474 -180.681438 
L 77.76006 -141.88002 
L 79.584563 -179.079088 
L 81.469883 -175.196508 
L 83.355203 -169.12979 
L 85.058073 -165.922962 
L 86.943393 -161.717047 
L 88.767896 -176.141492 
L 90.653216 -172.200062 
L 92.47772 -172.210659 
L 94.36304 -172.746731 
L 96.24836 -158.862543 
L 98.072863 -181.815977 
L 99.958183 -173.915986 
L 101.782686 -177.99549 
L 103.668006 -185.138026 
L 105.553327 -178.798042 
L 107.256196 -177.264984 
L 109.141516 -167.57228 
L 110.96602 -180.413368 
L 112.85134 -179.191551 
L 114.675843 -186.045363 
L 116.561163 -188.751711 
L 118.446483 -162.429573 
L 120.270986 -172.817174 
L 122.156306 -182.286409 
L 123.98081 -180.406427 
L 125.86613 -175.495174 
L 127.75145 -178.742761 
L 129.515136 -179.700795 
L 131.400456 -178.798813 
L 133.22496 -180.2427 
L 135.11028 -172.721932 
L 136.934783 -171.402407 
L 138.820103 -181.269996 
L 140.705423 -177.754157 
L 142.529926 -179.431298 
L 144.415246 -182.975103 
L 146.23975 -177.667577 
L 148.12507 -181.840853 
L 150.01039 -181.050537 
L 151.713259 -177.601778 
L 153.598579 -180.452897 
L 155.423083 -174.669134 
L 157.308403 -177.795055 
L 159.132906 -181.439072 
L 161.018226 -182.562415 
L 162.903546 -177.838382 
L 164.728049 -177.646051 
L 166.613369 -179.252517 
L 168.437873 -174.911668 
L 170.323193 -181.205186 
L 172.208513 -181.974869 
L 173.911383 -180.44469 
L 175.796703 -175.216024 
L 177.621206 -176.900234 
L 179.506526 -175.533874 
L 181.331029 -176.309954 
L 183.216349 -174.758049 
L 185.101669 -176.394659 
L 186.926173 -180.025693 
L 188.811493 -180.129669 
L 190.635996 -179.864627 
L 192.521316 -179.915812 
L 194.406636 -179.638426 
L 196.109506 -176.088722 
L 197.994826 -180.683255 
L 199.819329 -179.29416 
L 201.704649 -180.689466 
L 203.529152 -182.100992 
L 205.414472 -176.13847 
L 207.299792 -180.879528 
L 209.124296 -178.187383 
L 211.009616 -184.53025 
L 212.834119 -183.216444 
L 214.719439 -178.265304 
L 216.604759 -179.139571 
L 218.368446 -176.859476 
L 220.253766 -177.827125 
L 222.078269 -179.826095 
L 223.963589 -179.057002 
L 225.788092 -179.281315 
L 227.673412 -170.242796 
L 229.558732 -173.663557 
L 231.383236 -182.716348 
L 233.268556 -176.458019 
L 235.093059 -150.919658 
L 236.978379 -130.797875 
L 238.863699 -153.490748 
L 240.566569 -153.564598 
L 242.451889 -144.125604 
L 244.276392 -151.53072 
L 246.161712 -165.391382 
L 247.986216 -173.324036 
L 249.871536 -173.217067 
L 251.756856 -172.521471 
L 253.581359 -177.985864 
L 255.466679 -175.788207 
L 257.291182 -165.25567 
L 259.176502 -169.630761 
L 261.061822 -170.539682 
L 262.764692 -167.443622 
L 264.650012 -170.889227 
L 266.474515 -178.207887 
L 268.359835 -176.064284 
L 270.184339 -166.41523 
L 272.069659 -170.166966 
L 273.954979 -173.49897 
L 275.779482 -173.745738 
L 277.664802 -176.203648 
L 279.489305 -176.469052 
L 281.374625 -175.487232 
L 283.259946 -175.219022 
L 284.962815 -176.521918 
L 286.848135 -176.07739 
L 288.672639 -173.913235 
L 290.557959 -176.427877 
L 292.382462 -174.045295 
L 294.267782 -170.007825 
L 296.153102 -176.549089 
L 297.977605 -164.170653 
L 299.862925 -173.296628 
L 301.687429 -175.097872 
L 303.572749 -174.825614 
L 305.458069 -174.451321 
L 307.221755 -176.218953 
L 309.107075 -175.94407 
L 310.931579 -175.462453 
L 312.816899 -173.597248 
L 314.641402 -170.671646 
L 316.526722 -173.415766 
L 318.412042 -176.179045 
L 320.236545 -175.647731 
L 322.121865 -176.220476 
L 323.946369 -173.541688 
L 325.831689 -172.02084 
L 327.717009 -175.279951 
L 329.419878 -175.848598 
L 331.305198 -175.976059 
L 333.129702 -176.426718 
L 335.015022 -175.110047 
L 336.839525 -176.320472 
L 338.724845 -172.732407 
L 340.610165 -176.372106 
L 342.434668 -173.440825 
L 344.319988 -173.738011 
L 346.144492 -176.61948 
L 348.029812 -176.375978 
L 349.915132 -175.289586 
L 351.618002 -174.26621 
L 353.503322 -174.194194 
L 355.327825 -176.699509 
L 357.213145 -174.111284 
L 359.037648 -175.916523 
L 360.922968 -176.960362 
L 362.808288 -176.060412 
L 364.632792 -174.65227 
L 366.518112 -175.777351 
L 368.342615 -173.497524 
L 370.227935 -178.516002 
L 372.113255 -174.925453 
L 373.816125 -174.832859 
L 375.701445 -176.414509 
L 377.525948 -174.359401 
L 379.411268 -175.111821 
L 381.235771 -174.349964 
L 383.121091 -174.213851 
L 385.006411 -175.024995 
L 386.830915 -174.227387 
L 388.716235 -170.576752 
L 390.540738 -177.17041 
L 392.426058 -176.633632 
L 394.311378 -176.297338 
L 396.075065 -166.843174 
L 397.960385 -174.394679 
L 399.784888 -184.580508 
L 401.670208 -181.128229 
L 403.494711 -175.959108 
L 405.380031 -177.896599 
L 407.265351 -181.510685 
L 409.089855 -175.468395 
L 410.975175 -174.975304 
L 412.799678 -174.962079 
L 414.684998 -174.694167 
L 416.570318 -176.490499 
L 418.273188 -176.230472 
L 420.158508 -177.060192 
L 421.983011 -176.148583 
L 423.868331 -175.256831 
L 425.692835 -178.491724 
L 427.578155 -180.396317 
L 429.463475 -175.839572 
L 431.287978 -178.327179 
L 433.173298 -178.683132 
L 434.997801 -179.222156 
L 436.883121 -178.706924 
L 438.768441 -179.865855 
L 440.471311 -181.158039 
L 442.356631 -173.655181 
L 444.181134 -176.473339 
L 446.066454 -176.370924 
L 447.890958 -179.305745 
L 449.776278 -181.050319 
L 451.661598 -179.431628 
L 453.486101 -180.342175 
L 455.371421 -178.764973 
L 457.195924 -172.291405 
L 459.081244 -176.062661 
L 460.966565 -171.491452 
L 462.669434 -181.759335 
L 464.554754 -185.467286 
L 466.379258 -182.069331 
L 468.264578 -181.673601 
L 470.089081 -178.501846 
L 471.974401 -181.810754 
L 473.859721 -182.945002 
L 475.684224 -174.399366 
L 477.569544 -179.392829 
L 479.394048 -176.545231 
L 481.279368 -179.444058 
L 483.164688 -179.905601 
L 484.928374 -171.02184 
L 486.813694 -163.664303 
L 488.638198 -114.059599 
L 490.523518 -160.403233 
L 492.348021 -158.109454 
L 494.233341 -166.04288 
L 496.118661 -172.696195 
L 497.943164 -184.178023 
L 499.828484 -174.433613 
L 501.652988 -177.208041 
L 503.538308 -179.429588 
L 505.423628 -176.94524 
L 507.126497 -176.903445 
L 509.011817 -176.944282 
L 510.836321 -173.339433 
L 512.721641 -178.599198 
L 514.546144 -173.928203 
L 516.431464 -177.040792 
L 518.316784 -177.63176 
L 520.141287 -177.597547 
L 522.026607 -173.401299 
L 523.851111 -173.598798 
L 525.736431 -177.501507 
L 527.621751 -174.229087 
L 529.324621 -172.598643 
L 531.209941 -172.000752 
L 533.034444 -173.65025 
L 534.919764 -173.689347 
L 536.744267 -166.250015 
L 538.629587 -171.054061 
L 540.514907 -173.838873 
L 542.339411 -178.305001 
L 544.224731 -165.460096 
L 546.049234 -170.790541 
L 547.934554 -177.067934 
L 549.819874 -173.306722 
L 551.522744 -175.909802 
L 553.408064 -176.461321 
L 555.232567 -172.475275 
L 557.117887 -177.159352 
L 558.94239 -174.004277 
L 560.82771 -176.409258 
L 562.71303 -176.426088 
L 564.537534 -173.500554 
L 566.422854 -173.466261 
L 568.247357 -171.541147 
L 570.132677 -177.179046 
L 570.132677 -319.68134 
L 570.132677 -319.68134 
L 568.247357 -314.004886 
L 566.422854 -315.92775 
L 564.537534 -316.025209 
L 562.71303 -319.001693 
L 560.82771 -319.007782 
L 558.94239 -316.565401 
L 557.117887 -319.793884 
L 555.232567 -315.111172 
L 553.408064 -319.075495 
L 551.522744 -318.574613 
L 549.819874 -316.030796 
L 547.934554 -319.861627 
L 546.049234 -313.501669 
L 544.224731 -308.19797 
L 542.339411 -320.590353 
L 540.514907 -315.992352 
L 538.629587 -313.285235 
L 536.744267 -308.467486 
L 534.919764 -315.513878 
L 533.034444 -315.542305 
L 531.209941 -313.961426 
L 529.324621 -314.569531 
L 527.621751 -316.232337 
L 525.736431 -319.5768 
L 523.851111 -315.62838 
L 522.026607 -315.499902 
L 520.141287 -319.768187 
L 518.316784 -319.869351 
L 516.431464 -319.343058 
L 514.546144 -316.283078 
L 512.721641 -321.025409 
L 510.836321 -315.654233 
L 509.011817 -319.334472 
L 507.126497 -319.368574 
L 505.423628 -319.466725 
L 503.538308 -317.377732 
L 501.652988 -315.20283 
L 499.828484 -312.504964 
L 497.943164 -322.294108 
L 496.118661 -315.287542 
L 494.233341 -308.621735 
L 492.348021 -295.788198 
L 490.523518 -297.846817 
L 488.638198 -251.078312 
L 486.813694 -298.710771 
L 484.928374 -306.100578 
L 483.164688 -315.024957 
L 481.279368 -314.597474 
L 479.394048 -311.684391 
L 477.569544 -314.601298 
L 475.684224 -309.61879 
L 473.859721 -318.083986 
L 471.974401 -316.981248 
L 470.089081 -313.740803 
L 468.264578 -316.914081 
L 466.379258 -317.351222 
L 464.554754 -320.845583 
L 462.669434 -317.139168 
L 460.966565 -306.912734 
L 459.081244 -311.285679 
L 457.195924 -307.569861 
L 455.371421 -313.932492 
L 453.486101 -315.568587 
L 451.661598 -314.730707 
L 449.776278 -316.407949 
L 447.890958 -314.746202 
L 446.066454 -311.87053 
L 444.181134 -312.026557 
L 442.356631 -309.297073 
L 440.471311 -316.756584 
L 438.768441 -315.398826 
L 436.883121 -314.312221 
L 434.997801 -314.898201 
L 433.173298 -314.449593 
L 431.287978 -314.161221 
L 429.463475 -311.738284 
L 427.578155 -316.367642 
L 425.692835 -314.54057 
L 423.868331 -315.75626 
L 421.983011 -316.717541 
L 420.158508 -317.711188 
L 418.273188 -316.94701 
L 416.570318 -317.291351 
L 414.684998 -311.129137 
L 412.799678 -311.462044 
L 410.975175 -311.549579 
L 409.089855 -312.130239 
L 407.265351 -318.266797 
L 405.380031 -314.717745 
L 403.494711 -312.836564 
L 401.670208 -318.060034 
L 399.784888 -321.537258 
L 397.960385 -315.643127 
L 396.075065 -308.165391 
L 394.311378 -312.934282 
L 392.426058 -317.696547 
L 390.540738 -318.3 
L 388.716235 -311.675689 
L 386.830915 -315.209529 
L 385.006411 -316.026771 
L 383.121091 -315.2929 
L 381.235771 -315.506846 
L 379.411268 -316.345648 
L 377.525948 -315.676436 
L 375.701445 -317.807468 
L 373.816125 -316.286974 
L 372.113255 -316.437886 
L 370.227935 -320.093481 
L 368.342615 -314.98548 
L 366.518112 -317.258261 
L 364.632792 -316.2124 
L 362.808288 -317.68871 
L 360.922968 -318.675544 
L 359.037648 -317.682997 
L 357.213145 -315.948382 
L 355.327825 -318.614024 
L 353.503322 -316.173513 
L 351.618002 -316.322132 
L 349.915132 -317.426921 
L 348.029812 -318.590107 
L 346.144492 -318.878764 
L 344.319988 -316.058654 
L 342.434668 -315.843022 
L 340.610165 -318.855565 
L 338.724845 -315.248942 
L 336.839525 -318.8875 
L 335.015022 -317.675936 
L 333.129702 -319.070668 
L 331.305198 -318.681409 
L 329.419878 -318.631184 
L 327.717009 -318.081215 
L 325.831689 -314.901008 
L 323.946369 -316.410998 
L 322.121865 -319.169212 
L 320.236545 -318.66621 
L 318.412042 -319.248095 
L 316.526722 -316.53785 
L 314.641402 -313.868259 
L 312.816899 -316.770008 
L 310.931579 -318.711339 
L 309.107075 -319.251588 
L 307.221755 -319.549948 
L 305.458069 -317.761292 
L 303.572749 -318.224344 
L 301.687429 -318.58589 
L 299.862925 -316.840304 
L 297.977605 -307.793075 
L 296.153102 -319.148837 
L 294.267782 -312.637556 
L 292.382462 -316.606674 
L 290.557959 -319.081735 
L 288.672639 -316.633521 
L 286.848135 -318.848647 
L 284.962815 -319.353672 
L 283.259946 -318.101336 
L 281.374625 -318.403875 
L 279.489305 -319.464011 
L 277.664802 -319.206934 
L 275.779482 -316.788629 
L 273.954979 -316.629079 
L 272.069659 -313.382278 
L 270.184339 -309.632451 
L 268.359835 -318.968182 
L 266.474515 -321.166229 
L 264.650012 -313.711003 
L 262.764692 -310.578819 
L 261.061822 -313.627387 
L 259.176502 -312.754641 
L 257.291182 -308.453619 
L 255.466679 -319.122894 
L 253.581359 -321.393941 
L 251.756856 -315.600838 
L 249.871536 -316.376431 
L 247.986216 -316.565896 
L 246.161712 -308.468405 
L 244.276392 -275.888435 
L 242.451889 -274.256911 
L 240.566569 -283.580604 
L 238.863699 -295.012253 
L 236.978379 -267.240277 
L 235.093059 -292.060464 
L 233.268556 -309.78839 
L 231.383236 -315.760282 
L 229.558732 -306.74875 
L 227.673412 -303.0931 
L 225.788092 -312.04034 
L 223.963589 -311.855834 
L 222.078269 -312.624145 
L 220.253766 -310.610829 
L 218.368446 -309.691988 
L 216.604759 -311.573339 
L 214.719439 -310.798328 
L 212.834119 -315.455693 
L 211.009616 -316.864422 
L 209.124296 -310.544202 
L 207.299792 -313.056917 
L 205.414472 -308.442944 
L 203.529152 -314.452263 
L 201.704649 -313.080597 
L 199.819329 -311.612589 
L 197.994826 -312.979862 
L 196.109506 -308.461472 
L 194.406636 -316.365997 
L 192.521316 -316.71982 
L 190.635996 -316.756531 
L 188.811493 -316.88497 
L 186.926173 -316.855061 
L 185.101669 -313.268683 
L 183.216349 -311.731742 
L 181.331029 -313.312738 
L 179.506526 -312.667233 
L 177.621206 -314.137517 
L 175.796703 -312.551147 
L 173.911383 -313.613604 
L 172.208513 -315.265104 
L 170.323193 -314.606543 
L 168.437873 -303.854638 
L 166.613369 -312.687289 
L 164.728049 -311.194443 
L 162.903546 -311.47494 
L 161.018226 -316.419254 
L 159.132906 -315.402886 
L 157.308403 -311.830811 
L 155.423083 -308.738601 
L 153.598579 -314.607354 
L 151.713259 -311.828909 
L 150.01039 -315.315298 
L 148.12507 -316.201399 
L 146.23975 -312.0096 
L 144.415246 -317.400294 
L 142.529926 -313.91469 
L 140.705423 -312.289598 
L 138.820103 -315.810456 
L 136.934783 -305.999653 
L 135.11028 -311.531157 
L 133.22496 -314.94499 
L 131.400456 -313.53283 
L 129.515136 -318.746674 
L 127.75145 -317.773528 
L 125.86613 -314.576384 
L 123.98081 -315.362025 
L 122.156306 -317.317371 
L 120.270986 -307.859815 
L 118.446483 -297.582508 
L 116.561163 -323.951548 
L 114.675843 -321.226976 
L 112.85134 -314.281794 
L 110.96602 -315.464911 
L 109.141516 -302.652068 
L 107.256196 -311.966425 
L 105.553327 -313.574912 
L 103.668006 -319.951257 
L 101.782686 -312.675506 
L 99.958183 -308.684623 
L 98.072863 -316.29139 
L 96.24836 -293.329534 
L 94.36304 -306.544082 
L 92.47772 -309.857546 
L 90.653216 -309.863679 
L 88.767896 -313.756249 
L 86.943393 -295.191654 
L 85.058073 -299.350782 
L 83.355203 -302.608263 
L 81.469883 -308.717566 
L 79.584563 -312.524085 
L 77.76006 -275.146824 
L 75.87474 -312.659784 
L 74.050237 -308.875624 
L 72.164917 -311.628377 
L 70.279597 -318.487409 
L 68.455093 -307.335541 
L 66.569773 -301.778808 
L 64.74527 -312.45331 
L 62.85995 -313.712286 
z
" style="stroke: #808080; stroke-opacity: 0.3"/>
    </defs>
    <g clip-path="url(#p0659dd9d54)">
     <use xlink:href="#m5cbd35454c" x="0" y="359.281364" style="fill: #808080; fill-opacity: 0.3; stroke: #808080; stroke-opacity: 0.3"/>
    </g>
   </g>
   <g id="matplotlib.axis_1">
    <g id="xtick_1">
     <g id="line2d_1">
      <defs>
       <path id="m449aeb44bc" d="M 0 0 
L 0 -3 
" style="stroke: #000000; stroke-width: 0.5"/>
      </defs>
      <g>
       <use xlink:href="#m449aeb44bc" x="125.926946" y="336.24" style="stroke: #000000; stroke-width: 0.5"/>
      </g>
     </g>
     <g id="line2d_2">
      <defs>
       <path id="m0c2df45830" d="M 0 0 
L 0 3 
" style="stroke: #000000; stroke-width: 0.5"/>
      </defs>
      <g>
       <use xlink:href="#m0c2df45830" x="125.926946" y="3.6" style="stroke: #000000; stroke-width: 0.5"/>
      </g>
     </g>
     <g id="text_1">
      <!-- $\mathdefault{2004}$ -->
      <g transform="translate(109.478375 352.1933) scale(0.18 -0.18)">
       <defs>
        <path id="CMR17-32" d="M 2669 990 
L 2554 990 
C 2490 537 2438 460 2413 422 
C 2381 371 1920 371 1830 371 
L 602 371 
C 832 620 1280 1073 1824 1596 
C 2214 1966 2669 2400 2669 3033 
C 2669 3788 2067 4224 1395 4224 
C 691 4224 262 3603 262 3027 
C 262 2777 448 2745 525 2745 
C 589 2745 781 2783 781 3007 
C 781 3206 614 3264 525 3264 
C 486 3264 448 3257 422 3244 
C 544 3788 915 4057 1306 4057 
C 1862 4057 2227 3616 2227 3033 
C 2227 2477 1901 1998 1536 1583 
L 262 147 
L 262 0 
L 2515 0 
L 2669 990 
z
" transform="scale(0.015625)"/>
        <path id="CMR17-30" d="M 2688 2038 
C 2688 2430 2682 3099 2413 3613 
C 2176 4063 1798 4224 1466 4224 
C 1158 4224 768 4082 525 3620 
C 269 3137 243 2539 243 2038 
C 243 1671 250 1112 448 623 
C 723 -39 1216 -128 1466 -128 
C 1760 -128 2208 -7 2470 604 
C 2662 1048 2688 1568 2688 2038 
z
M 1466 -26 
C 1056 -26 813 328 723 816 
C 653 1196 653 1749 653 2109 
C 653 2604 653 3015 736 3407 
C 858 3954 1216 4121 1466 4121 
C 1728 4121 2067 3947 2189 3420 
C 2272 3054 2278 2623 2278 2109 
C 2278 1691 2278 1176 2202 797 
C 2067 96 1690 -26 1466 -26 
z
" transform="scale(0.015625)"/>
        <path id="CMR17-34" d="M 2150 4147 
C 2150 4281 2144 4288 2029 4288 
L 128 1254 
L 128 1088 
L 1779 1088 
L 1779 460 
C 1779 230 1766 166 1318 166 
L 1197 166 
L 1197 0 
C 1402 12 1747 12 1965 12 
C 2182 12 2528 12 2733 0 
L 2733 166 
L 2611 166 
C 2163 166 2150 230 2150 460 
L 2150 1088 
L 2803 1088 
L 2803 1254 
L 2150 1254 
L 2150 4147 
z
M 1798 3723 
L 1798 1254 
L 256 1254 
L 1798 3723 
z
" transform="scale(0.015625)"/>
       </defs>
       <use xlink:href="#CMR17-32" transform="scale(0.996264)"/>
       <use xlink:href="#CMR17-30" transform="translate(45.690477 0) scale(0.996264)"/>
       <use xlink:href="#CMR17-30" transform="translate(91.380954 0) scale(0.996264)"/>
       <use xlink:href="#CMR17-34" transform="translate(137.071431 0) scale(0.996264)"/>
      </g>
     </g>
    </g>
    <g id="xtick_2">
     <g id="line2d_3">
      <g>
       <use xlink:href="#m449aeb44bc" x="214.780256" y="336.24" style="stroke: #000000; stroke-width: 0.5"/>
      </g>
     </g>
     <g id="line2d_4">
      <g>
       <use xlink:href="#m0c2df45830" x="214.780256" y="3.6" style="stroke: #000000; stroke-width: 0.5"/>
      </g>
     </g>
     <g id="text_2">
      <!-- $\mathdefault{2008}$ -->
      <g transform="translate(198.331684 352.1933) scale(0.18 -0.18)">
       <defs>
        <path id="CMR17-38" d="M 1741 2289 
C 2144 2494 2554 2803 2554 3298 
C 2554 3884 1990 4224 1472 4224 
C 890 4224 378 3800 378 3215 
C 378 3054 416 2777 666 2533 
C 730 2469 998 2276 1171 2154 
C 883 2006 211 1652 211 945 
C 211 282 838 -128 1459 -128 
C 2144 -128 2720 366 2720 1022 
C 2720 1607 2330 1877 2074 2051 
L 1741 2289 
z
M 902 2855 
C 851 2887 595 3086 595 3388 
C 595 3781 998 4076 1459 4076 
C 1965 4076 2336 3716 2336 3298 
C 2336 2700 1670 2359 1638 2359 
C 1632 2359 1626 2359 1574 2398 
L 902 2855 
z
M 2080 1536 
C 2176 1466 2483 1253 2483 861 
C 2483 385 2010 25 1472 25 
C 890 25 448 443 448 951 
C 448 1459 838 1884 1280 2083 
L 2080 1536 
z
" transform="scale(0.015625)"/>
       </defs>
       <use xlink:href="#CMR17-32" transform="scale(0.996264)"/>
       <use xlink:href="#CMR17-30" transform="translate(45.690477 0) scale(0.996264)"/>
       <use xlink:href="#CMR17-30" transform="translate(91.380954 0) scale(0.996264)"/>
       <use xlink:href="#CMR17-38" transform="translate(137.071431 0) scale(0.996264)"/>
      </g>
     </g>
    </g>
    <g id="xtick_3">
     <g id="line2d_5">
      <g>
       <use xlink:href="#m449aeb44bc" x="303.633565" y="336.24" style="stroke: #000000; stroke-width: 0.5"/>
      </g>
     </g>
     <g id="line2d_6">
      <g>
       <use xlink:href="#m0c2df45830" x="303.633565" y="3.6" style="stroke: #000000; stroke-width: 0.5"/>
      </g>
     </g>
     <g id="text_3">
      <!-- $\mathdefault{2012}$ -->
      <g transform="translate(287.184994 352.1933) scale(0.18 -0.18)">
       <defs>
        <path id="CMR17-31" d="M 1702 4083 
C 1702 4217 1696 4224 1606 4224 
C 1357 3927 979 3833 621 3820 
C 602 3820 570 3820 563 3808 
C 557 3795 557 3782 557 3648 
C 755 3648 1088 3686 1344 3839 
L 1344 467 
C 1344 243 1331 166 781 166 
L 589 166 
L 589 0 
C 896 6 1216 12 1523 12 
C 1830 12 2150 6 2458 0 
L 2458 166 
L 2266 166 
C 1715 166 1702 236 1702 467 
L 1702 4083 
z
" transform="scale(0.015625)"/>
       </defs>
       <use xlink:href="#CMR17-32" transform="scale(0.996264)"/>
       <use xlink:href="#CMR17-30" transform="translate(45.690477 0) scale(0.996264)"/>
       <use xlink:href="#CMR17-31" transform="translate(91.380954 0) scale(0.996264)"/>
       <use xlink:href="#CMR17-32" transform="translate(137.071431 0) scale(0.996264)"/>
      </g>
     </g>
    </g>
    <g id="xtick_4">
     <g id="line2d_7">
      <g>
       <use xlink:href="#m449aeb44bc" x="392.486875" y="336.24" style="stroke: #000000; stroke-width: 0.5"/>
      </g>
     </g>
     <g id="line2d_8">
      <g>
       <use xlink:href="#m0c2df45830" x="392.486875" y="3.6" style="stroke: #000000; stroke-width: 0.5"/>
      </g>
     </g>
     <g id="text_4">
      <!-- $\mathdefault{2016}$ -->
      <g transform="translate(376.038303 352.1933) scale(0.18 -0.18)">
       <defs>
        <path id="CMR17-36" d="M 678 2198 
C 678 3712 1395 4076 1811 4076 
C 1946 4076 2272 4049 2400 3782 
C 2298 3782 2106 3782 2106 3558 
C 2106 3385 2246 3328 2336 3328 
C 2394 3328 2566 3353 2566 3571 
C 2566 3987 2246 4224 1805 4224 
C 1043 4224 243 3411 243 2011 
C 243 257 966 -128 1478 -128 
C 2099 -128 2688 431 2688 1295 
C 2688 2101 2170 2688 1517 2688 
C 1126 2688 838 2430 678 1979 
L 678 2198 
z
M 1478 25 
C 691 25 691 1212 691 1450 
C 691 1914 909 2585 1504 2585 
C 1613 2585 1926 2585 2138 2140 
C 2253 1889 2253 1624 2253 1302 
C 2253 954 2253 696 2118 438 
C 1978 173 1773 25 1478 25 
z
" transform="scale(0.015625)"/>
       </defs>
       <use xlink:href="#CMR17-32" transform="scale(0.996264)"/>
       <use xlink:href="#CMR17-30" transform="translate(45.690477 0) scale(0.996264)"/>
       <use xlink:href="#CMR17-31" transform="translate(91.380954 0) scale(0.996264)"/>
       <use xlink:href="#CMR17-36" transform="translate(137.071431 0) scale(0.996264)"/>
      </g>
     </g>
    </g>
    <g id="xtick_5">
     <g id="line2d_9">
      <g>
       <use xlink:href="#m449aeb44bc" x="481.340184" y="336.24" style="stroke: #000000; stroke-width: 0.5"/>
      </g>
     </g>
     <g id="line2d_10">
      <g>
       <use xlink:href="#m0c2df45830" x="481.340184" y="3.6" style="stroke: #000000; stroke-width: 0.5"/>
      </g>
     </g>
     <g id="text_5">
      <!-- $\mathdefault{2020}$ -->
      <g transform="translate(464.891613 352.1933) scale(0.18 -0.18)">
       <use xlink:href="#CMR17-32" transform="scale(0.996264)"/>
       <use xlink:href="#CMR17-30" transform="translate(45.690477 0) scale(0.996264)"/>
       <use xlink:href="#CMR17-32" transform="translate(91.380954 0) scale(0.996264)"/>
       <use xlink:href="#CMR17-30" transform="translate(137.071431 0) scale(0.996264)"/>
      </g>
     </g>
    </g>
    <g id="xtick_6">
     <g id="line2d_11">
      <g>
       <use xlink:href="#m449aeb44bc" x="570.193494" y="336.24" style="stroke: #000000; stroke-width: 0.5"/>
      </g>
     </g>
     <g id="line2d_12">
      <g>
       <use xlink:href="#m0c2df45830" x="570.193494" y="3.6" style="stroke: #000000; stroke-width: 0.5"/>
      </g>
     </g>
     <g id="text_6">
      <!-- $\mathdefault{2024}$ -->
      <g transform="translate(553.744922 352.1933) scale(0.18 -0.18)">
       <use xlink:href="#CMR17-32" transform="scale(0.996264)"/>
       <use xlink:href="#CMR17-30" transform="translate(45.690477 0) scale(0.996264)"/>
       <use xlink:href="#CMR17-32" transform="translate(91.380954 0) scale(0.996264)"/>
       <use xlink:href="#CMR17-34" transform="translate(137.071431 0) scale(0.996264)"/>
      </g>
     </g>
    </g>
    <g id="xtick_7">
     <g id="line2d_13">
      <defs>
       <path id="m7c4abbe32f" d="M 0 0 
L 0 -1.5 
" style="stroke: #000000; stroke-width: 0.5"/>
      </defs>
      <g>
       <use xlink:href="#m7c4abbe32f" x="59.286964" y="336.24" style="stroke: #000000; stroke-width: 0.5"/>
      </g>
     </g>
     <g id="line2d_14">
      <defs>
       <path id="m236572369c" d="M 0 0 
L 0 1.5 
" style="stroke: #000000; stroke-width: 0.5"/>
      </defs>
      <g>
       <use xlink:href="#m236572369c" x="59.286964" y="3.6" style="stroke: #000000; stroke-width: 0.5"/>
      </g>
     </g>
    </g>
    <g id="xtick_8">
     <g id="line2d_15">
      <g>
       <use xlink:href="#m7c4abbe32f" x="81.500292" y="336.24" style="stroke: #000000; stroke-width: 0.5"/>
      </g>
     </g>
     <g id="line2d_16">
      <g>
       <use xlink:href="#m236572369c" x="81.500292" y="3.6" style="stroke: #000000; stroke-width: 0.5"/>
      </g>
     </g>
    </g>
    <g id="xtick_9">
     <g id="line2d_17">
      <g>
       <use xlink:href="#m7c4abbe32f" x="103.713619" y="336.24" style="stroke: #000000; stroke-width: 0.5"/>
      </g>
     </g>
     <g id="line2d_18">
      <g>
       <use xlink:href="#m236572369c" x="103.713619" y="3.6" style="stroke: #000000; stroke-width: 0.5"/>
      </g>
     </g>
    </g>
    <g id="xtick_10">
     <g id="line2d_19">
      <g>
       <use xlink:href="#m7c4abbe32f" x="148.140274" y="336.24" style="stroke: #000000; stroke-width: 0.5"/>
      </g>
     </g>
     <g id="line2d_20">
      <g>
       <use xlink:href="#m236572369c" x="148.140274" y="3.6" style="stroke: #000000; stroke-width: 0.5"/>
      </g>
     </g>
    </g>
    <g id="xtick_11">
     <g id="line2d_21">
      <g>
       <use xlink:href="#m7c4abbe32f" x="170.353601" y="336.24" style="stroke: #000000; stroke-width: 0.5"/>
      </g>
     </g>
     <g id="line2d_22">
      <g>
       <use xlink:href="#m236572369c" x="170.353601" y="3.6" style="stroke: #000000; stroke-width: 0.5"/>
      </g>
     </g>
    </g>
    <g id="xtick_12">
     <g id="line2d_23">
      <g>
       <use xlink:href="#m7c4abbe32f" x="192.566929" y="336.24" style="stroke: #000000; stroke-width: 0.5"/>
      </g>
     </g>
     <g id="line2d_24">
      <g>
       <use xlink:href="#m236572369c" x="192.566929" y="3.6" style="stroke: #000000; stroke-width: 0.5"/>
      </g>
     </g>
    </g>
    <g id="xtick_13">
     <g id="line2d_25">
      <g>
       <use xlink:href="#m7c4abbe32f" x="236.993583" y="336.24" style="stroke: #000000; stroke-width: 0.5"/>
      </g>
     </g>
     <g id="line2d_26">
      <g>
       <use xlink:href="#m236572369c" x="236.993583" y="3.6" style="stroke: #000000; stroke-width: 0.5"/>
      </g>
     </g>
    </g>
    <g id="xtick_14">
     <g id="line2d_27">
      <g>
       <use xlink:href="#m7c4abbe32f" x="259.206911" y="336.24" style="stroke: #000000; stroke-width: 0.5"/>
      </g>
     </g>
     <g id="line2d_28">
      <g>
       <use xlink:href="#m236572369c" x="259.206911" y="3.6" style="stroke: #000000; stroke-width: 0.5"/>
      </g>
     </g>
    </g>
    <g id="xtick_15">
     <g id="line2d_29">
      <g>
       <use xlink:href="#m7c4abbe32f" x="281.420238" y="336.24" style="stroke: #000000; stroke-width: 0.5"/>
      </g>
     </g>
     <g id="line2d_30">
      <g>
       <use xlink:href="#m236572369c" x="281.420238" y="3.6" style="stroke: #000000; stroke-width: 0.5"/>
      </g>
     </g>
    </g>
    <g id="xtick_16">
     <g id="line2d_31">
      <g>
       <use xlink:href="#m7c4abbe32f" x="325.846893" y="336.24" style="stroke: #000000; stroke-width: 0.5"/>
      </g>
     </g>
     <g id="line2d_32">
      <g>
       <use xlink:href="#m236572369c" x="325.846893" y="3.6" style="stroke: #000000; stroke-width: 0.5"/>
      </g>
     </g>
    </g>
    <g id="xtick_17">
     <g id="line2d_33">
      <g>
       <use xlink:href="#m7c4abbe32f" x="348.06022" y="336.24" style="stroke: #000000; stroke-width: 0.5"/>
      </g>
     </g>
     <g id="line2d_34">
      <g>
       <use xlink:href="#m236572369c" x="348.06022" y="3.6" style="stroke: #000000; stroke-width: 0.5"/>
      </g>
     </g>
    </g>
    <g id="xtick_18">
     <g id="line2d_35">
      <g>
       <use xlink:href="#m7c4abbe32f" x="370.273548" y="336.24" style="stroke: #000000; stroke-width: 0.5"/>
      </g>
     </g>
     <g id="line2d_36">
      <g>
       <use xlink:href="#m236572369c" x="370.273548" y="3.6" style="stroke: #000000; stroke-width: 0.5"/>
      </g>
     </g>
    </g>
    <g id="xtick_19">
     <g id="line2d_37">
      <g>
       <use xlink:href="#m7c4abbe32f" x="414.700202" y="336.24" style="stroke: #000000; stroke-width: 0.5"/>
      </g>
     </g>
     <g id="line2d_38">
      <g>
       <use xlink:href="#m236572369c" x="414.700202" y="3.6" style="stroke: #000000; stroke-width: 0.5"/>
      </g>
     </g>
    </g>
    <g id="xtick_20">
     <g id="line2d_39">
      <g>
       <use xlink:href="#m7c4abbe32f" x="436.91353" y="336.24" style="stroke: #000000; stroke-width: 0.5"/>
      </g>
     </g>
     <g id="line2d_40">
      <g>
       <use xlink:href="#m236572369c" x="436.91353" y="3.6" style="stroke: #000000; stroke-width: 0.5"/>
      </g>
     </g>
    </g>
    <g id="xtick_21">
     <g id="line2d_41">
      <g>
       <use xlink:href="#m7c4abbe32f" x="459.126857" y="336.24" style="stroke: #000000; stroke-width: 0.5"/>
      </g>
     </g>
     <g id="line2d_42">
      <g>
       <use xlink:href="#m236572369c" x="459.126857" y="3.6" style="stroke: #000000; stroke-width: 0.5"/>
      </g>
     </g>
    </g>
    <g id="xtick_22">
     <g id="line2d_43">
      <g>
       <use xlink:href="#m7c4abbe32f" x="503.553512" y="336.24" style="stroke: #000000; stroke-width: 0.5"/>
      </g>
     </g>
     <g id="line2d_44">
      <g>
       <use xlink:href="#m236572369c" x="503.553512" y="3.6" style="stroke: #000000; stroke-width: 0.5"/>
      </g>
     </g>
    </g>
    <g id="xtick_23">
     <g id="line2d_45">
      <g>
       <use xlink:href="#m7c4abbe32f" x="525.766839" y="336.24" style="stroke: #000000; stroke-width: 0.5"/>
      </g>
     </g>
     <g id="line2d_46">
      <g>
       <use xlink:href="#m236572369c" x="525.766839" y="3.6" style="stroke: #000000; stroke-width: 0.5"/>
      </g>
     </g>
    </g>
    <g id="xtick_24">
     <g id="line2d_47">
      <g>
       <use xlink:href="#m7c4abbe32f" x="547.980167" y="336.24" style="stroke: #000000; stroke-width: 0.5"/>
      </g>
     </g>
     <g id="line2d_48">
      <g>
       <use xlink:href="#m236572369c" x="547.980167" y="3.6" style="stroke: #000000; stroke-width: 0.5"/>
      </g>
     </g>
    </g>
    <g id="xtick_25">
     <g id="line2d_49">
      <g>
       <use xlink:href="#m7c4abbe32f" x="592.406821" y="336.24" style="stroke: #000000; stroke-width: 0.5"/>
      </g>
     </g>
     <g id="line2d_50">
      <g>
       <use xlink:href="#m236572369c" x="592.406821" y="3.6" style="stroke: #000000; stroke-width: 0.5"/>
      </g>
     </g>
    </g>
   </g>
   <g id="matplotlib.axis_2">
    <g id="ytick_1">
     <g id="line2d_51">
      <defs>
       <path id="m5156c61ce5" d="M 0 0 
L 3 0 
" style="stroke: #000000; stroke-width: 0.5"/>
      </defs>
      <g>
       <use xlink:href="#m5156c61ce5" x="37.496314" y="296.291069" style="stroke: #000000; stroke-width: 0.5"/>
      </g>
     </g>
     <g id="line2d_52">
      <defs>
       <path id="me546bbc47a" d="M 0 0 
L -3 0 
" style="stroke: #000000; stroke-width: 0.5"/>
      </defs>
      <g>
       <use xlink:href="#me546bbc47a" x="595.496314" y="296.291069" style="stroke: #000000; stroke-width: 0.5"/>
      </g>
     </g>
     <g id="text_7">
      <!-- $\mathdefault{−20}$ -->
      <g transform="translate(3.6 302.517719) scale(0.18 -0.18)">
       <defs>
        <path id="CMSY10-0" d="M 4218 1472 
C 4326 1472 4442 1472 4442 1600 
C 4442 1728 4326 1728 4218 1728 
L 755 1728 
C 646 1728 531 1728 531 1600 
C 531 1472 646 1472 755 1472 
L 4218 1472 
z
" transform="scale(0.015625)"/>
       </defs>
       <use xlink:href="#CMSY10-0" transform="scale(0.996264)"/>
       <use xlink:href="#CMR17-32" transform="translate(77.487468 0) scale(0.996264)"/>
       <use xlink:href="#CMR17-30" transform="translate(123.177945 0) scale(0.996264)"/>
      </g>
     </g>
    </g>
    <g id="ytick_2">
     <g id="line2d_53">
      <g>
       <use xlink:href="#m5156c61ce5" x="37.496314" y="252.024544" style="stroke: #000000; stroke-width: 0.5"/>
      </g>
     </g>
     <g id="line2d_54">
      <g>
       <use xlink:href="#me546bbc47a" x="595.496314" y="252.024544" style="stroke: #000000; stroke-width: 0.5"/>
      </g>
     </g>
     <g id="text_8">
      <!-- $\mathdefault{−15}$ -->
      <g transform="translate(3.6 258.251194) scale(0.18 -0.18)">
       <defs>
        <path id="CMR17-35" d="M 730 3750 
C 794 3724 1056 3641 1325 3641 
C 1920 3641 2246 3961 2432 4140 
C 2432 4191 2432 4224 2394 4224 
C 2387 4224 2374 4224 2323 4198 
C 2099 4102 1837 4032 1517 4032 
C 1325 4032 1037 4055 723 4191 
C 653 4224 640 4224 634 4224 
C 602 4224 595 4217 595 4090 
L 595 2231 
C 595 2113 595 2080 659 2080 
C 691 2080 704 2093 736 2139 
C 941 2435 1222 2560 1542 2560 
C 1766 2560 2246 2415 2246 1293 
C 2246 1087 2246 716 2054 422 
C 1894 159 1645 25 1370 25 
C 947 25 518 319 403 812 
C 429 806 480 793 506 793 
C 589 793 749 838 749 1036 
C 749 1209 627 1280 506 1280 
C 358 1280 262 1190 262 1011 
C 262 454 704 -128 1382 -128 
C 2042 -128 2669 441 2669 1267 
C 2669 2054 2170 2662 1549 2662 
C 1222 2662 947 2540 730 2304 
L 730 3750 
z
" transform="scale(0.015625)"/>
       </defs>
       <use xlink:href="#CMSY10-0" transform="scale(0.996264)"/>
       <use xlink:href="#CMR17-31" transform="translate(77.487468 0) scale(0.996264)"/>
       <use xlink:href="#CMR17-35" transform="translate(123.177945 0) scale(0.996264)"/>
      </g>
     </g>
    </g>
    <g id="ytick_3">
     <g id="line2d_55">
      <g>
       <use xlink:href="#m5156c61ce5" x="37.496314" y="207.758018" style="stroke: #000000; stroke-width: 0.5"/>
      </g>
     </g>
     <g id="line2d_56">
      <g>
       <use xlink:href="#me546bbc47a" x="595.496314" y="207.758018" style="stroke: #000000; stroke-width: 0.5"/>
      </g>
     </g>
     <g id="text_9">
      <!-- $\mathdefault{−10}$ -->
      <g transform="translate(3.6 213.984668) scale(0.18 -0.18)">
       <use xlink:href="#CMSY10-0" transform="scale(0.996264)"/>
       <use xlink:href="#CMR17-31" transform="translate(77.487468 0) scale(0.996264)"/>
       <use xlink:href="#CMR17-30" transform="translate(123.177945 0) scale(0.996264)"/>
      </g>
     </g>
    </g>
    <g id="ytick_4">
     <g id="line2d_57">
      <g>
       <use xlink:href="#m5156c61ce5" x="37.496314" y="163.491492" style="stroke: #000000; stroke-width: 0.5"/>
      </g>
     </g>
     <g id="line2d_58">
      <g>
       <use xlink:href="#me546bbc47a" x="595.496314" y="163.491492" style="stroke: #000000; stroke-width: 0.5"/>
      </g>
     </g>
     <g id="text_10">
      <!-- $\mathdefault{−5}$ -->
      <g transform="translate(11.824286 169.718142) scale(0.18 -0.18)">
       <use xlink:href="#CMSY10-0" transform="scale(0.996264)"/>
       <use xlink:href="#CMR17-35" transform="translate(77.487468 0) scale(0.996264)"/>
      </g>
     </g>
    </g>
    <g id="ytick_5">
     <g id="line2d_59">
      <g>
       <use xlink:href="#m5156c61ce5" x="37.496314" y="119.224967" style="stroke: #000000; stroke-width: 0.5"/>
      </g>
     </g>
     <g id="line2d_60">
      <g>
       <use xlink:href="#me546bbc47a" x="595.496314" y="119.224967" style="stroke: #000000; stroke-width: 0.5"/>
      </g>
     </g>
     <g id="text_11">
      <!-- $\mathdefault{0}$ -->
      <g transform="translate(25.772028 125.451617) scale(0.18 -0.18)">
       <use xlink:href="#CMR17-30" transform="scale(0.996264)"/>
      </g>
     </g>
    </g>
    <g id="ytick_6">
     <g id="line2d_61">
      <g>
       <use xlink:href="#m5156c61ce5" x="37.496314" y="74.958441" style="stroke: #000000; stroke-width: 0.5"/>
      </g>
     </g>
     <g id="line2d_62">
      <g>
       <use xlink:href="#me546bbc47a" x="595.496314" y="74.958441" style="stroke: #000000; stroke-width: 0.5"/>
      </g>
     </g>
     <g id="text_12">
      <!-- $\mathdefault{5}$ -->
      <g transform="translate(25.772028 81.185091) scale(0.18 -0.18)">
       <use xlink:href="#CMR17-35" transform="scale(0.996264)"/>
      </g>
     </g>
    </g>
    <g id="ytick_7">
     <g id="line2d_63">
      <g>
       <use xlink:href="#m5156c61ce5" x="37.496314" y="30.691915" style="stroke: #000000; stroke-width: 0.5"/>
      </g>
     </g>
     <g id="line2d_64">
      <g>
       <use xlink:href="#me546bbc47a" x="595.496314" y="30.691915" style="stroke: #000000; stroke-width: 0.5"/>
      </g>
     </g>
     <g id="text_13">
      <!-- $\mathdefault{10}$ -->
      <g transform="translate(17.547742 36.918565) scale(0.18 -0.18)">
       <use xlink:href="#CMR17-31" transform="scale(0.996264)"/>
       <use xlink:href="#CMR17-30" transform="translate(45.690477 0) scale(0.996264)"/>
      </g>
     </g>
    </g>
    <g id="ytick_8">
     <g id="line2d_65">
      <defs>
       <path id="m87ad9754db" d="M 0 0 
L 1.5 0 
" style="stroke: #000000; stroke-width: 0.5"/>
      </defs>
      <g>
       <use xlink:href="#m87ad9754db" x="37.496314" y="331.70429" style="stroke: #000000; stroke-width: 0.5"/>
      </g>
     </g>
     <g id="line2d_66">
      <defs>
       <path id="m723f5cafff" d="M 0 0 
L -1.5 0 
" style="stroke: #000000; stroke-width: 0.5"/>
      </defs>
      <g>
       <use xlink:href="#m723f5cafff" x="595.496314" y="331.70429" style="stroke: #000000; stroke-width: 0.5"/>
      </g>
     </g>
    </g>
    <g id="ytick_9">
     <g id="line2d_67">
      <g>
       <use xlink:href="#m87ad9754db" x="37.496314" y="322.850985" style="stroke: #000000; stroke-width: 0.5"/>
      </g>
     </g>
     <g id="line2d_68">
      <g>
       <use xlink:href="#m723f5cafff" x="595.496314" y="322.850985" style="stroke: #000000; stroke-width: 0.5"/>
      </g>
     </g>
    </g>
    <g id="ytick_10">
     <g id="line2d_69">
      <g>
       <use xlink:href="#m87ad9754db" x="37.496314" y="313.99768" style="stroke: #000000; stroke-width: 0.5"/>
      </g>
     </g>
     <g id="line2d_70">
      <g>
       <use xlink:href="#m723f5cafff" x="595.496314" y="313.99768" style="stroke: #000000; stroke-width: 0.5"/>
      </g>
     </g>
    </g>
    <g id="ytick_11">
     <g id="line2d_71">
      <g>
       <use xlink:href="#m87ad9754db" x="37.496314" y="305.144374" style="stroke: #000000; stroke-width: 0.5"/>
      </g>
     </g>
     <g id="line2d_72">
      <g>
       <use xlink:href="#m723f5cafff" x="595.496314" y="305.144374" style="stroke: #000000; stroke-width: 0.5"/>
      </g>
     </g>
    </g>
    <g id="ytick_12">
     <g id="line2d_73">
      <g>
       <use xlink:href="#m87ad9754db" x="37.496314" y="287.437764" style="stroke: #000000; stroke-width: 0.5"/>
      </g>
     </g>
     <g id="line2d_74">
      <g>
       <use xlink:href="#m723f5cafff" x="595.496314" y="287.437764" style="stroke: #000000; stroke-width: 0.5"/>
      </g>
     </g>
    </g>
    <g id="ytick_13">
     <g id="line2d_75">
      <g>
       <use xlink:href="#m87ad9754db" x="37.496314" y="278.584459" style="stroke: #000000; stroke-width: 0.5"/>
      </g>
     </g>
     <g id="line2d_76">
      <g>
       <use xlink:href="#m723f5cafff" x="595.496314" y="278.584459" style="stroke: #000000; stroke-width: 0.5"/>
      </g>
     </g>
    </g>
    <g id="ytick_14">
     <g id="line2d_77">
      <g>
       <use xlink:href="#m87ad9754db" x="37.496314" y="269.731154" style="stroke: #000000; stroke-width: 0.5"/>
      </g>
     </g>
     <g id="line2d_78">
      <g>
       <use xlink:href="#m723f5cafff" x="595.496314" y="269.731154" style="stroke: #000000; stroke-width: 0.5"/>
      </g>
     </g>
    </g>
    <g id="ytick_15">
     <g id="line2d_79">
      <g>
       <use xlink:href="#m87ad9754db" x="37.496314" y="260.877849" style="stroke: #000000; stroke-width: 0.5"/>
      </g>
     </g>
     <g id="line2d_80">
      <g>
       <use xlink:href="#m723f5cafff" x="595.496314" y="260.877849" style="stroke: #000000; stroke-width: 0.5"/>
      </g>
     </g>
    </g>
    <g id="ytick_16">
     <g id="line2d_81">
      <g>
       <use xlink:href="#m87ad9754db" x="37.496314" y="243.171238" style="stroke: #000000; stroke-width: 0.5"/>
      </g>
     </g>
     <g id="line2d_82">
      <g>
       <use xlink:href="#m723f5cafff" x="595.496314" y="243.171238" style="stroke: #000000; stroke-width: 0.5"/>
      </g>
     </g>
    </g>
    <g id="ytick_17">
     <g id="line2d_83">
      <g>
       <use xlink:href="#m87ad9754db" x="37.496314" y="234.317933" style="stroke: #000000; stroke-width: 0.5"/>
      </g>
     </g>
     <g id="line2d_84">
      <g>
       <use xlink:href="#m723f5cafff" x="595.496314" y="234.317933" style="stroke: #000000; stroke-width: 0.5"/>
      </g>
     </g>
    </g>
    <g id="ytick_18">
     <g id="line2d_85">
      <g>
       <use xlink:href="#m87ad9754db" x="37.496314" y="225.464628" style="stroke: #000000; stroke-width: 0.5"/>
      </g>
     </g>
     <g id="line2d_86">
      <g>
       <use xlink:href="#m723f5cafff" x="595.496314" y="225.464628" style="stroke: #000000; stroke-width: 0.5"/>
      </g>
     </g>
    </g>
    <g id="ytick_19">
     <g id="line2d_87">
      <g>
       <use xlink:href="#m87ad9754db" x="37.496314" y="216.611323" style="stroke: #000000; stroke-width: 0.5"/>
      </g>
     </g>
     <g id="line2d_88">
      <g>
       <use xlink:href="#m723f5cafff" x="595.496314" y="216.611323" style="stroke: #000000; stroke-width: 0.5"/>
      </g>
     </g>
    </g>
    <g id="ytick_20">
     <g id="line2d_89">
      <g>
       <use xlink:href="#m87ad9754db" x="37.496314" y="198.904713" style="stroke: #000000; stroke-width: 0.5"/>
      </g>
     </g>
     <g id="line2d_90">
      <g>
       <use xlink:href="#m723f5cafff" x="595.496314" y="198.904713" style="stroke: #000000; stroke-width: 0.5"/>
      </g>
     </g>
    </g>
    <g id="ytick_21">
     <g id="line2d_91">
      <g>
       <use xlink:href="#m87ad9754db" x="37.496314" y="190.051408" style="stroke: #000000; stroke-width: 0.5"/>
      </g>
     </g>
     <g id="line2d_92">
      <g>
       <use xlink:href="#m723f5cafff" x="595.496314" y="190.051408" style="stroke: #000000; stroke-width: 0.5"/>
      </g>
     </g>
    </g>
    <g id="ytick_22">
     <g id="line2d_93">
      <g>
       <use xlink:href="#m87ad9754db" x="37.496314" y="181.198103" style="stroke: #000000; stroke-width: 0.5"/>
      </g>
     </g>
     <g id="line2d_94">
      <g>
       <use xlink:href="#m723f5cafff" x="595.496314" y="181.198103" style="stroke: #000000; stroke-width: 0.5"/>
      </g>
     </g>
    </g>
    <g id="ytick_23">
     <g id="line2d_95">
      <g>
       <use xlink:href="#m87ad9754db" x="37.496314" y="172.344797" style="stroke: #000000; stroke-width: 0.5"/>
      </g>
     </g>
     <g id="line2d_96">
      <g>
       <use xlink:href="#m723f5cafff" x="595.496314" y="172.344797" style="stroke: #000000; stroke-width: 0.5"/>
      </g>
     </g>
    </g>
    <g id="ytick_24">
     <g id="line2d_97">
      <g>
       <use xlink:href="#m87ad9754db" x="37.496314" y="154.638187" style="stroke: #000000; stroke-width: 0.5"/>
      </g>
     </g>
     <g id="line2d_98">
      <g>
       <use xlink:href="#m723f5cafff" x="595.496314" y="154.638187" style="stroke: #000000; stroke-width: 0.5"/>
      </g>
     </g>
    </g>
    <g id="ytick_25">
     <g id="line2d_99">
      <g>
       <use xlink:href="#m87ad9754db" x="37.496314" y="145.784882" style="stroke: #000000; stroke-width: 0.5"/>
      </g>
     </g>
     <g id="line2d_100">
      <g>
       <use xlink:href="#m723f5cafff" x="595.496314" y="145.784882" style="stroke: #000000; stroke-width: 0.5"/>
      </g>
     </g>
    </g>
    <g id="ytick_26">
     <g id="line2d_101">
      <g>
       <use xlink:href="#m87ad9754db" x="37.496314" y="136.931577" style="stroke: #000000; stroke-width: 0.5"/>
      </g>
     </g>
     <g id="line2d_102">
      <g>
       <use xlink:href="#m723f5cafff" x="595.496314" y="136.931577" style="stroke: #000000; stroke-width: 0.5"/>
      </g>
     </g>
    </g>
    <g id="ytick_27">
     <g id="line2d_103">
      <g>
       <use xlink:href="#m87ad9754db" x="37.496314" y="128.078272" style="stroke: #000000; stroke-width: 0.5"/>
      </g>
     </g>
     <g id="line2d_104">
      <g>
       <use xlink:href="#m723f5cafff" x="595.496314" y="128.078272" style="stroke: #000000; stroke-width: 0.5"/>
      </g>
     </g>
    </g>
    <g id="ytick_28">
     <g id="line2d_105">
      <g>
       <use xlink:href="#m87ad9754db" x="37.496314" y="110.371661" style="stroke: #000000; stroke-width: 0.5"/>
      </g>
     </g>
     <g id="line2d_106">
      <g>
       <use xlink:href="#m723f5cafff" x="595.496314" y="110.371661" style="stroke: #000000; stroke-width: 0.5"/>
      </g>
     </g>
    </g>
    <g id="ytick_29">
     <g id="line2d_107">
      <g>
       <use xlink:href="#m87ad9754db" x="37.496314" y="101.518356" style="stroke: #000000; stroke-width: 0.5"/>
      </g>
     </g>
     <g id="line2d_108">
      <g>
       <use xlink:href="#m723f5cafff" x="595.496314" y="101.518356" style="stroke: #000000; stroke-width: 0.5"/>
      </g>
     </g>
    </g>
    <g id="ytick_30">
     <g id="line2d_109">
      <g>
       <use xlink:href="#m87ad9754db" x="37.496314" y="92.665051" style="stroke: #000000; stroke-width: 0.5"/>
      </g>
     </g>
     <g id="line2d_110">
      <g>
       <use xlink:href="#m723f5cafff" x="595.496314" y="92.665051" style="stroke: #000000; stroke-width: 0.5"/>
      </g>
     </g>
    </g>
    <g id="ytick_31">
     <g id="line2d_111">
      <g>
       <use xlink:href="#m87ad9754db" x="37.496314" y="83.811746" style="stroke: #000000; stroke-width: 0.5"/>
      </g>
     </g>
     <g id="line2d_112">
      <g>
       <use xlink:href="#m723f5cafff" x="595.496314" y="83.811746" style="stroke: #000000; stroke-width: 0.5"/>
      </g>
     </g>
    </g>
    <g id="ytick_32">
     <g id="line2d_113">
      <g>
       <use xlink:href="#m87ad9754db" x="37.496314" y="66.105136" style="stroke: #000000; stroke-width: 0.5"/>
      </g>
     </g>
     <g id="line2d_114">
      <g>
       <use xlink:href="#m723f5cafff" x="595.496314" y="66.105136" style="stroke: #000000; stroke-width: 0.5"/>
      </g>
     </g>
    </g>
    <g id="ytick_33">
     <g id="line2d_115">
      <g>
       <use xlink:href="#m87ad9754db" x="37.496314" y="57.251831" style="stroke: #000000; stroke-width: 0.5"/>
      </g>
     </g>
     <g id="line2d_116">
      <g>
       <use xlink:href="#m723f5cafff" x="595.496314" y="57.251831" style="stroke: #000000; stroke-width: 0.5"/>
      </g>
     </g>
    </g>
    <g id="ytick_34">
     <g id="line2d_117">
      <g>
       <use xlink:href="#m87ad9754db" x="37.496314" y="48.398526" style="stroke: #000000; stroke-width: 0.5"/>
      </g>
     </g>
     <g id="line2d_118">
      <g>
       <use xlink:href="#m723f5cafff" x="595.496314" y="48.398526" style="stroke: #000000; stroke-width: 0.5"/>
      </g>
     </g>
    </g>
    <g id="ytick_35">
     <g id="line2d_119">
      <g>
       <use xlink:href="#m87ad9754db" x="37.496314" y="39.54522" style="stroke: #000000; stroke-width: 0.5"/>
      </g>
     </g>
     <g id="line2d_120">
      <g>
       <use xlink:href="#m723f5cafff" x="595.496314" y="39.54522" style="stroke: #000000; stroke-width: 0.5"/>
      </g>
     </g>
    </g>
    <g id="ytick_36">
     <g id="line2d_121">
      <g>
       <use xlink:href="#m87ad9754db" x="37.496314" y="21.83861" style="stroke: #000000; stroke-width: 0.5"/>
      </g>
     </g>
     <g id="line2d_122">
      <g>
       <use xlink:href="#m723f5cafff" x="595.496314" y="21.83861" style="stroke: #000000; stroke-width: 0.5"/>
      </g>
     </g>
    </g>
    <g id="ytick_37">
     <g id="line2d_123">
      <g>
       <use xlink:href="#m87ad9754db" x="37.496314" y="12.985305" style="stroke: #000000; stroke-width: 0.5"/>
      </g>
     </g>
     <g id="line2d_124">
      <g>
       <use xlink:href="#m723f5cafff" x="595.496314" y="12.985305" style="stroke: #000000; stroke-width: 0.5"/>
      </g>
     </g>
    </g>
    <g id="ytick_38">
     <g id="line2d_125">
      <g>
       <use xlink:href="#m87ad9754db" x="37.496314" y="4.132" style="stroke: #000000; stroke-width: 0.5"/>
      </g>
     </g>
     <g id="line2d_126">
      <g>
       <use xlink:href="#m723f5cafff" x="595.496314" y="4.132" style="stroke: #000000; stroke-width: 0.5"/>
      </g>
     </g>
    </g>
   </g>
   <g id="line2d_127">
    <path d="M 62.85995 139.256014 
L 64.74527 204.498029 
L 66.569773 116.251117 
L 68.455093 61.245245 
L 70.279597 141.568656 
L 72.164917 144.05626 
L 74.050237 138.507986 
L 75.87474 225.969368 
L 77.76006 92.553225 
L 79.584563 76.608902 
L 81.469883 107.353487 
L 83.355203 122.882306 
L 85.058073 150.471265 
L 86.943393 77.496603 
L 88.767896 151.942295 
L 90.653216 145.635163 
L 92.47772 174.41977 
L 94.36304 221.305514 
L 96.24836 110.489268 
L 98.072863 163.730604 
L 99.958183 132.774215 
L 101.782686 63.715587 
L 103.668006 129.746621 
L 105.553327 122.519646 
L 107.256196 179.340603 
L 109.141516 109.128789 
L 110.96602 74.966049 
L 112.85134 74.677286 
L 114.675843 71.31977 
L 116.561163 115.166066 
L 118.446483 121.91392 
L 120.270986 92.861016 
L 122.156306 102.629131 
L 123.98081 109.755375 
L 127.75145 77.710243 
L 129.515136 110.791257 
L 131.400456 134.359991 
L 133.22496 111.867238 
L 135.11028 143.440888 
L 136.934783 95.477863 
L 138.820103 140.510846 
L 140.705423 132.867488 
L 142.529926 96.177628 
L 144.415246 119.581496 
L 146.23975 79.152385 
L 148.12507 96.590915 
L 150.01039 132.464523 
L 151.713259 105.675394 
L 153.598579 122.722621 
L 155.423083 142.093765 
L 157.308403 108.756773 
L 159.132906 101.395248 
L 161.018226 104.625477 
L 162.903546 117.755754 
L 164.728049 118.032573 
L 166.613369 144.096177 
L 168.437873 86.123213 
L 170.323193 101.726346 
L 172.208513 107.614594 
L 173.911383 120.66623 
L 175.796703 107.452028 
L 177.621206 113.474873 
L 179.506526 127.531256 
L 181.331029 144.876205 
L 183.216349 114.244241 
L 185.101669 100.519444 
L 186.926173 98.43061 
L 188.811493 89.080558 
L 190.635996 102.972122 
L 192.521316 101.688596 
L 194.406636 114.400265 
L 196.109506 106.486178 
L 197.994826 142.727537 
L 199.819329 84.252426 
L 201.704649 90.949414 
L 203.529152 117.439866 
L 205.414472 115.420977 
L 207.299792 158.562532 
L 209.124296 93.728719 
L 211.009616 94.419466 
L 212.834119 164.205025 
L 214.719439 109.699466 
L 216.604759 181.490596 
L 218.368446 134.69969 
L 220.253766 144.363612 
L 222.078269 83.950846 
L 223.963589 98.317135 
L 225.788092 159.213204 
L 227.673412 176.427579 
L 229.558732 102.388254 
L 231.383236 164.961254 
L 233.268556 321.12 
L 235.093059 201.284209 
L 236.978379 124.7363 
L 238.863699 131.394301 
L 240.566569 183.209442 
L 242.451889 173.755113 
L 244.276392 18.72 
L 246.161712 64.324333 
L 247.986216 96.264049 
L 249.871536 110.000412 
L 251.756856 51.926482 
L 253.581359 89.209427 
L 255.466679 99.851131 
L 257.291182 102.460218 
L 259.176502 101.255577 
L 261.061822 108.762381 
L 262.764692 146.770484 
L 264.650012 69.52587 
L 266.474515 85.101884 
L 268.359835 174.336223 
L 270.184339 152.663054 
L 272.069659 122.139018 
L 273.954979 113.113242 
L 275.779482 91.332681 
L 277.664802 81.005993 
L 279.489305 98.824416 
L 281.374625 88.284116 
L 283.259946 90.398277 
L 284.962815 93.041316 
L 286.848135 130.44007 
L 288.672639 101.074384 
L 290.557959 114.715104 
L 292.382462 153.636339 
L 294.267782 93.535675 
L 296.153102 217.984915 
L 297.977605 127.80368 
L 299.862925 94.430671 
L 301.687429 105.255194 
L 303.572749 107.108453 
L 305.458069 79.362874 
L 307.221755 84.575769 
L 309.107075 95.489701 
L 312.816899 148.542839 
L 314.641402 131.046161 
L 316.526722 95.269436 
L 318.412042 91.239165 
L 320.236545 94.363286 
L 322.121865 122.666441 
L 323.946369 146.302781 
L 325.831689 101.76169 
L 327.717009 83.772727 
L 329.419878 100.344442 
L 331.305198 96.957144 
L 333.129702 107.953728 
L 335.015022 81.087322 
L 336.839525 130.674127 
L 338.724845 92.340761 
L 340.610165 118.477197 
L 344.319988 102.147682 
L 346.144492 87.12428 
L 348.029812 107.273518 
L 349.915132 112.113291 
L 351.618002 121.813284 
L 353.503322 96.862962 
L 355.327825 118.873473 
L 357.213145 107.192495 
L 359.037648 92.770563 
L 360.922968 107.476666 
L 362.808288 124.43171 
L 364.632792 105.031651 
L 366.518112 144.436234 
L 368.342615 71.498806 
L 370.227935 115.034648 
L 372.113255 130.541008 
L 373.816125 95.953002 
L 375.701445 120.165135 
L 377.525948 112.918191 
L 379.411268 112.035878 
L 381.235771 124.543823 
L 383.121091 121.399537 
L 386.830915 161.656637 
L 388.716235 83.353782 
L 390.540738 95.152779 
L 392.426058 130.590722 
L 394.311378 179.633109 
L 397.960385 66.207044 
L 399.784888 96.065634 
L 401.670208 123.496532 
L 403.494711 111.398818 
L 405.380031 92.02784 
L 407.265351 110.186825 
L 409.089855 124.649081 
L 410.975175 125.264829 
L 412.799678 110.194867 
L 414.684998 86.45395 
L 416.570318 108.06849 
L 418.273188 98.156896 
L 420.158508 105.309659 
L 421.983011 122.038617 
L 423.868331 105.803219 
L 425.692835 105.05744 
L 429.463475 118.460495 
L 431.287978 106.122925 
L 433.173298 96.726883 
L 434.997801 106.63908 
L 436.883121 95.404579 
L 438.768441 78.487779 
L 440.471311 146.50098 
L 442.356631 120.007499 
L 444.181134 135.469594 
L 446.066454 103.39972 
L 447.890958 102.069025 
L 449.776278 106.685212 
L 451.661598 99.115843 
L 453.486101 105.795611 
L 455.371421 155.359567 
L 457.195924 139.228438 
L 459.081244 171.424069 
L 460.966565 105.510256 
L 462.669434 70.516823 
L 464.554754 103.578333 
L 466.379258 88.255762 
L 468.264578 134.319818 
L 470.089081 108.295506 
L 471.974401 87.352475 
L 473.859721 148.855496 
L 475.684224 93.728457 
L 477.569544 120.554782 
L 479.394048 82.18408 
L 481.279368 98.972541 
L 483.164688 91.392963 
L 484.928374 119.464992 
L 486.813694 306.527046 
L 488.638198 83.383602 
L 490.523518 70.084105 
L 492.348021 64.818978 
L 494.233341 90.341551 
L 496.118661 69.818855 
L 497.943164 126.088692 
L 501.652988 86.11095 
L 503.538308 83.457005 
L 505.423628 95.949529 
L 507.126497 98.539426 
L 509.011817 113.073664 
L 510.836321 68.484465 
L 512.721641 113.54084 
L 514.546144 104.345419 
L 516.431464 93.447417 
L 518.316784 101.052998 
L 520.141287 120.948531 
L 522.026607 116.210231 
L 523.851111 79.126569 
L 525.736431 117.825053 
L 527.621751 138.554201 
L 529.324621 146.315265 
L 531.209941 128.194506 
L 533.034444 119.218761 
L 534.919764 192.964679 
L 536.744267 150.766961 
L 538.629587 116.327127 
L 540.514907 65.051602 
L 542.339411 187.361122 
L 544.224731 148.316379 
L 546.049234 74.868287 
L 547.934554 120.380013 
L 549.819874 108.367568 
L 551.522744 93.0104 
L 553.408064 143.674808 
L 555.232567 85.754013 
L 557.117887 113.933765 
L 558.94239 77.680138 
L 560.82771 86.681301 
L 562.71303 129.241573 
L 564.537534 128.863486 
L 566.422854 147.729013 
L 568.247357 80.545362 
L 570.132677 75.654362 
L 570.132677 75.654362 
" clip-path="url(#p0659dd9d54)" style="fill: none; stroke-dasharray: 3.7,1.6; stroke-dashoffset: 0; stroke: #000000"/>
   </g>
   <g id="line2d_128">
    <path d="M 62.85995 110.96909 
L 64.74527 112.230506 
L 66.569773 123.381203 
L 68.455093 117.781302 
L 70.279597 106.792856 
L 72.164917 113.670549 
L 74.050237 116.40818 
L 75.87474 112.610753 
L 77.76006 150.767942 
L 79.584563 113.479778 
L 81.469883 117.324327 
L 83.355203 123.412338 
L 85.058073 126.644492 
L 86.943393 130.827013 
L 88.767896 114.332494 
L 90.653216 118.249494 
L 92.47772 118.247262 
L 94.36304 119.635957 
L 96.24836 133.185326 
L 98.072863 110.227681 
L 99.958183 117.98106 
L 101.782686 113.945867 
L 103.668006 106.736723 
L 105.553327 113.094887 
L 107.256196 114.66566 
L 109.141516 124.16919 
L 110.96602 111.342225 
L 112.85134 112.544692 
L 114.675843 105.645195 
L 116.561163 102.929735 
L 118.446483 129.275324 
L 120.270986 118.94287 
L 122.156306 109.479474 
L 123.98081 111.397139 
L 125.86613 114.245585 
L 127.75145 111.02322 
L 129.515136 110.05763 
L 131.400456 113.115543 
L 133.22496 111.687519 
L 135.11028 117.15482 
L 136.934783 120.580334 
L 138.820103 110.741138 
L 140.705423 114.259487 
L 142.529926 112.60837 
L 144.415246 109.093666 
L 146.23975 114.442776 
L 148.12507 110.260238 
L 150.01039 111.098447 
L 151.713259 114.566021 
L 153.598579 111.751239 
L 155.423083 117.577497 
L 157.308403 114.468431 
L 159.132906 110.860385 
L 161.018226 109.790529 
L 162.903546 114.624703 
L 164.728049 114.861118 
L 166.613369 113.311462 
L 168.437873 119.898211 
L 170.323193 111.375499 
L 172.208513 110.661378 
L 173.911383 112.252217 
L 175.796703 115.397779 
L 177.621206 113.762489 
L 179.506526 115.180811 
L 181.331029 114.470019 
L 183.216349 116.036469 
L 185.101669 114.449693 
L 186.926173 110.840987 
L 188.811493 110.774045 
L 190.635996 110.970785 
L 192.521316 110.963548 
L 194.406636 111.279153 
L 196.109506 117.006267 
L 197.994826 112.449806 
L 199.819329 113.82799 
L 203.529152 111.004737 
L 205.414472 116.990657 
L 207.299792 112.313142 
L 209.124296 114.915572 
L 211.009616 108.584029 
L 212.834119 109.945296 
L 214.719439 114.749548 
L 216.604759 113.924909 
L 218.368446 116.005632 
L 220.253766 115.062387 
L 222.078269 113.056245 
L 223.963589 113.824946 
L 225.788092 113.620537 
L 227.673412 122.613416 
L 229.558732 119.07521 
L 231.383236 110.043049 
L 233.268556 116.15816 
L 236.978379 160.262288 
L 238.863699 135.029864 
L 240.566569 140.708763 
L 242.451889 150.090107 
L 244.276392 145.571787 
L 246.161712 122.351471 
L 247.986216 114.336398 
L 249.871536 114.484615 
L 251.756856 115.22021 
L 253.581359 109.591462 
L 255.466679 111.825814 
L 257.291182 122.42672 
L 259.176502 118.088663 
L 261.061822 117.19783 
L 262.764692 120.270144 
L 264.650012 116.981249 
L 266.474515 109.594306 
L 268.359835 111.765131 
L 270.184339 121.257524 
L 272.069659 117.506742 
L 273.954979 114.21734 
L 275.779482 114.014181 
L 277.664802 111.576073 
L 279.489305 111.314832 
L 281.374625 112.335811 
L 283.259946 112.621185 
L 284.962815 111.343569 
L 286.848135 111.818346 
L 288.672639 114.007986 
L 290.557959 111.526558 
L 292.382462 113.95538 
L 294.267782 117.958674 
L 296.153102 111.432401 
L 297.977605 123.2995 
L 299.862925 114.212898 
L 301.687429 112.439483 
L 305.458069 113.175057 
L 307.221755 111.396913 
L 309.107075 111.683535 
L 310.931579 112.194468 
L 312.816899 114.097736 
L 314.641402 117.011412 
L 318.412042 111.567794 
L 320.236545 112.124394 
L 322.121865 111.58652 
L 323.946369 114.305021 
L 325.831689 115.82044 
L 327.717009 112.600781 
L 329.419878 112.041474 
L 331.305198 111.95263 
L 333.129702 111.532671 
L 335.015022 112.888373 
L 336.839525 111.677379 
L 338.724845 115.29069 
L 340.610165 111.667529 
L 342.434668 114.639441 
L 344.319988 114.383032 
L 346.144492 111.532242 
L 348.029812 111.798322 
L 351.618002 113.987193 
L 353.503322 114.097511 
L 355.327825 111.624597 
L 357.213145 114.251531 
L 359.037648 112.481605 
L 360.922968 111.463411 
L 362.808288 112.406804 
L 364.632792 113.849029 
L 366.518112 112.763558 
L 368.342615 115.039862 
L 370.227935 109.976623 
L 372.113255 113.599695 
L 373.816125 113.721448 
L 375.701445 112.170376 
L 377.525948 114.263446 
L 379.411268 113.552629 
L 381.235771 114.35296 
L 383.121091 114.527989 
L 385.006411 113.755482 
L 386.830915 114.562906 
L 388.716235 118.155144 
L 390.540738 111.546159 
L 392.426058 112.116275 
L 394.311378 114.665554 
L 396.075065 121.777082 
L 397.960385 114.262461 
L 399.784888 106.222481 
L 401.670208 109.687233 
L 403.494711 114.883529 
L 405.380031 112.974192 
L 407.265351 109.392623 
L 409.089855 115.482047 
L 410.975175 116.018923 
L 412.799678 116.069303 
L 414.684998 116.369712 
L 416.570318 112.390439 
L 418.273188 112.692623 
L 420.158508 111.895674 
L 423.868331 113.774819 
L 425.692835 112.765217 
L 427.578155 110.899385 
L 429.463475 115.492436 
L 431.287978 113.037164 
L 433.173298 112.715002 
L 434.997801 112.221186 
L 436.883121 112.771791 
L 438.768441 111.649024 
L 440.471311 110.324053 
L 442.356631 117.805237 
L 444.181134 115.031416 
L 446.066454 115.160637 
L 447.890958 112.255391 
L 449.776278 110.55223 
L 451.661598 112.200197 
L 453.486101 111.325983 
L 455.371421 112.932632 
L 457.195924 119.350732 
L 459.081244 115.607194 
L 460.966565 120.079271 
L 462.669434 109.832112 
L 464.554754 106.12493 
L 466.379258 109.571088 
L 468.264578 109.987523 
L 470.089081 113.16004 
L 471.974401 109.885364 
L 473.859721 108.76687 
L 475.684224 117.272286 
L 477.569544 112.284301 
L 479.394048 115.166553 
L 481.279368 112.260598 
L 483.164688 111.816085 
L 484.928374 120.720155 
L 486.813694 128.093827 
L 488.638198 176.712408 
L 490.523518 130.156339 
L 492.348021 132.332538 
L 494.233341 121.949057 
L 496.118661 115.289496 
L 497.943164 106.045299 
L 499.828484 115.812076 
L 501.652988 113.075929 
L 503.538308 110.877704 
L 507.126497 111.145355 
L 509.011817 111.141987 
L 510.836321 114.784531 
L 512.721641 109.469061 
L 514.546144 114.175724 
L 516.431464 111.089439 
L 518.316784 110.530809 
L 520.141287 110.598497 
L 522.026607 114.830764 
L 523.851111 114.667775 
L 525.736431 110.742211 
L 527.621751 114.050652 
L 529.324621 115.697278 
L 531.209941 116.300275 
L 533.034444 114.685087 
L 534.919764 114.679752 
L 536.744267 121.922614 
L 538.629587 117.111716 
L 540.514907 114.365751 
L 542.339411 109.833687 
L 544.224731 122.452331 
L 546.049234 117.135259 
L 547.934554 110.816584 
L 549.819874 114.612606 
L 551.522744 112.039157 
L 553.408064 111.512956 
L 555.232567 115.488141 
L 557.117887 110.804746 
L 558.94239 113.996525 
L 560.82771 111.572844 
L 562.71303 111.567474 
L 564.537534 114.518483 
L 566.422854 114.584359 
L 568.247357 116.508348 
L 570.132677 110.851171 
L 570.132677 110.851171 
" clip-path="url(#p0659dd9d54)" style="fill: none; stroke: #008000; stroke-linecap: square"/>
   </g>
   <g id="patch_3">
    <path d="M 37.496314 336.24 
L 37.496314 3.6 
" style="fill: none; stroke: #000000; stroke-width: 0.5; stroke-linejoin: miter; stroke-linecap: square"/>
   </g>
   <g id="patch_4">
    <path d="M 595.496314 336.24 
L 595.496314 3.6 
" style="fill: none; stroke: #000000; stroke-width: 0.5; stroke-linejoin: miter; stroke-linecap: square"/>
   </g>
   <g id="patch_5">
    <path d="M 37.496314 336.24 
L 595.496314 336.24 
" style="fill: none; stroke: #000000; stroke-width: 0.5; stroke-linejoin: miter; stroke-linecap: square"/>
   </g>
   <g id="patch_6">
    <path d="M 37.496314 3.6 
L 595.496314 3.6 
" style="fill: none; stroke: #000000; stroke-width: 0.5; stroke-linejoin: miter; stroke-linecap: square"/>
   </g>
   <g id="legend_1">
    <g id="line2d_129">
     <path d="M 48.296314 285.466213 
L 60.296314 285.466213 
L 72.296314 285.466213 
" style="fill: none; stroke-dasharray: 3.7,1.6; stroke-dashoffset: 0; stroke: #000000"/>
    </g>
    <g id="text_14">
     <!-- rendimenti SP 500 -->
     <g transform="translate(81.896314 289.666213) scale(0.12 -0.12)">
      <defs>
       <path id="CMR17-72" d="M 960 1517 
C 960 2134 1222 2713 1702 2713 
C 1747 2713 1792 2707 1837 2687 
C 1837 2687 1696 2642 1696 2475 
C 1696 2321 1818 2257 1914 2257 
C 1990 2257 2131 2302 2131 2482 
C 2131 2687 1926 2816 1709 2816 
C 1222 2816 1011 2340 947 2115 
L 941 2115 
L 941 2816 
L 198 2745 
L 198 2578 
C 576 2578 634 2540 634 2231 
L 634 443 
C 634 198 608 166 198 166 
L 198 0 
C 352 12 646 12 813 12 
C 998 12 1325 12 1498 0 
L 1498 166 
C 1037 166 960 166 960 455 
L 960 1517 
z
" transform="scale(0.015625)"/>
       <path id="CMR17-65" d="M 2438 1503 
C 2464 1529 2464 1542 2464 1606 
C 2464 2251 2118 2816 1389 2816 
C 710 2816 173 2175 173 1394 
C 173 554 781 -64 1459 -64 
C 2176 -64 2458 619 2458 755 
C 2458 800 2419 800 2406 800 
C 2362 800 2355 787 2330 709 
C 2189 270 1837 51 1504 51 
C 1229 51 954 206 781 490 
C 582 819 582 1200 582 1503 
L 2438 1503 
z
M 589 1600 
C 634 2511 1126 2713 1382 2713 
C 1818 2713 2112 2308 2118 1600 
L 589 1600 
z
" transform="scale(0.015625)"/>
       <path id="CMR17-6e" d="M 2656 1954 
C 2656 2282 2592 2816 1837 2816 
C 1331 2816 1069 2424 973 2166 
L 966 2166 
L 966 2816 
L 211 2745 
L 211 2578 
C 589 2578 646 2540 646 2231 
L 646 443 
C 646 198 621 166 211 166 
L 211 0 
C 365 12 646 12 813 12 
C 979 12 1267 12 1421 0 
L 1421 166 
C 1011 166 986 192 986 443 
L 986 1678 
C 986 2269 1344 2713 1792 2713 
C 2266 2713 2317 2289 2317 1980 
L 2317 443 
C 2317 198 2291 166 1882 166 
L 1882 0 
C 2035 12 2317 12 2483 12 
C 2650 12 2938 12 3091 0 
L 3091 166 
C 2682 166 2656 192 2656 443 
L 2656 1954 
z
" transform="scale(0.015625)"/>
       <path id="CMR17-64" d="M 1869 4345 
L 1869 4179 
C 2246 4179 2304 4141 2304 3843 
L 2304 2371 
C 2278 2403 2016 2816 1498 2816 
C 845 2816 211 2228 211 1376 
C 211 529 806 -64 1434 -64 
C 1978 -64 2259 361 2291 406 
L 2291 -64 
L 3066 -13 
L 3066 154 
C 2688 154 2630 193 2630 503 
L 2630 4416 
L 1869 4345 
z
M 2291 762 
C 2291 568 2176 393 2029 264 
C 1811 70 1594 38 1472 38 
C 1286 38 621 135 621 1369 
C 621 2636 1363 2713 1530 2713 
C 1824 2713 2061 2545 2208 2313 
C 2291 2177 2291 2157 2291 2041 
L 2291 762 
z
" transform="scale(0.015625)"/>
       <path id="CMR17-69" d="M 992 3961 
C 992 4102 877 4224 730 4224 
C 589 4224 467 4108 467 3961 
C 467 3820 582 3699 730 3699 
C 870 3699 992 3814 992 3961 
z
M 243 2745 
L 243 2579 
C 602 2579 653 2540 653 2231 
L 653 443 
C 653 198 627 166 218 166 
L 218 0 
C 371 12 646 12 806 12 
C 960 12 1222 12 1370 0 
L 1370 166 
C 992 166 979 205 979 436 
L 979 2816 
L 243 2745 
z
" transform="scale(0.015625)"/>
       <path id="CMR17-6d" d="M 4326 1954 
C 4326 2276 4269 2816 3507 2816 
C 3072 2816 2771 2520 2656 2173 
L 2650 2173 
C 2573 2700 2195 2816 1837 2816 
C 1331 2816 1069 2424 973 2166 
L 966 2166 
L 966 2816 
L 211 2745 
L 211 2578 
C 589 2578 646 2540 646 2231 
L 646 443 
C 646 198 621 166 211 166 
L 211 0 
C 365 12 646 12 813 12 
C 979 12 1267 12 1421 0 
L 1421 166 
C 1011 166 986 192 986 443 
L 986 1678 
C 986 2269 1344 2713 1792 2713 
C 2266 2713 2317 2289 2317 1980 
L 2317 443 
C 2317 198 2291 166 1882 166 
L 1882 0 
C 2035 12 2317 12 2483 12 
C 2650 12 2938 12 3091 0 
L 3091 166 
C 2682 166 2656 192 2656 443 
L 2656 1678 
C 2656 2269 3014 2713 3462 2713 
C 3936 2713 3987 2289 3987 1980 
L 3987 443 
C 3987 198 3962 166 3552 166 
L 3552 0 
C 3706 12 3987 12 4154 12 
C 4320 12 4608 12 4762 0 
L 4762 166 
C 4352 166 4326 192 4326 443 
L 4326 1954 
z
" transform="scale(0.015625)"/>
       <path id="CMR17-74" d="M 966 2585 
L 1862 2585 
L 1862 2752 
L 966 2752 
L 966 3968 
L 851 3968 
C 838 3292 614 2700 70 2687 
L 70 2585 
L 627 2585 
L 627 778 
C 627 655 627 -64 1370 -64 
C 1747 -64 1965 308 1965 784 
L 1965 1151 
L 1850 1151 
L 1850 790 
C 1850 347 1677 51 1408 51 
C 1222 51 966 179 966 765 
L 966 2585 
z
" transform="scale(0.015625)"/>
       <path id="CMR17-53" d="M 2803 4351 
C 2803 4467 2797 4473 2758 4473 
C 2720 4473 2707 4447 2682 4390 
L 2490 3965 
C 2246 4320 1875 4480 1472 4480 
C 819 4480 294 3958 294 3301 
C 294 3101 339 2817 557 2546 
C 794 2250 1018 2198 1530 2063 
C 1722 2011 2042 1927 2106 1901 
C 2470 1747 2662 1360 2662 999 
C 2662 534 2336 38 1779 38 
C 1094 38 454 425 410 1328 
C 403 1431 397 1437 352 1437 
C 301 1437 294 1431 294 1302 
L 294 0 
C 294 -116 301 -122 339 -122 
C 384 -122 397 -90 486 109 
C 493 128 493 141 614 386 
C 934 -39 1472 -128 1779 -128 
C 2477 -128 2970 457 2970 1141 
C 2970 1476 2848 1734 2778 1850 
C 2509 2263 2221 2340 1914 2417 
C 1869 2437 1856 2437 1498 2527 
C 1152 2617 1005 2662 845 2836 
C 666 3036 602 3243 602 3449 
C 602 3868 934 4326 1478 4326 
C 2157 4326 2579 3842 2675 3036 
C 2694 2920 2701 2914 2746 2914 
C 2803 2914 2803 2933 2803 3043 
L 2803 4351 
z
" transform="scale(0.015625)"/>
       <path id="CMR17-50" d="M 1267 2048 
L 2291 2048 
C 3117 2048 3718 2583 3718 3187 
C 3718 3791 3130 4352 2291 4352 
L 333 4352 
L 333 4185 
C 774 4185 845 4185 845 3899 
L 845 453 
C 845 166 774 166 333 166 
L 333 0 
C 518 12 858 12 1056 12 
C 1254 12 1594 12 1779 0 
L 1779 166 
C 1338 166 1267 166 1267 453 
L 1267 2048 
z
M 1254 2182 
L 1254 3937 
C 1254 4153 1267 4185 1523 4185 
L 2170 4185 
C 2995 4185 3232 3715 3232 3187 
C 3232 2608 2950 2182 2170 2182 
L 1254 2182 
z
" transform="scale(0.015625)"/>
      </defs>
      <use xlink:href="#CMR17-72" transform="scale(0.996264)"/>
      <use xlink:href="#CMR17-65" transform="translate(35.280768 0) scale(0.996264)"/>
      <use xlink:href="#CMR17-6e" transform="translate(75.766428 0) scale(0.996264)"/>
      <use xlink:href="#CMR17-64" transform="translate(126.661798 0) scale(0.996264)"/>
      <use xlink:href="#CMR17-69" transform="translate(177.557168 0) scale(0.996264)"/>
      <use xlink:href="#CMR17-6d" transform="translate(202.428226 0) scale(0.996264)"/>
      <use xlink:href="#CMR17-65" transform="translate(279.347816 0) scale(0.996264)"/>
      <use xlink:href="#CMR17-6e" transform="translate(319.833477 0) scale(0.996264)"/>
      <use xlink:href="#CMR17-74" transform="translate(368.126392 0) scale(0.996264)"/>
      <use xlink:href="#CMR17-69" transform="translate(403.40716 0) scale(0.996264)"/>
      <use xlink:href="#CMR17-53" transform="translate(458.354185 0) scale(0.996264)"/>
      <use xlink:href="#CMR17-50" transform="translate(509.249555 0) scale(0.996264)"/>
      <use xlink:href="#CMR17-35" transform="translate(601.911822 0) scale(0.996264)"/>
      <use xlink:href="#CMR17-30" transform="translate(647.602299 0) scale(0.996264)"/>
      <use xlink:href="#CMR17-30" transform="translate(693.292776 0) scale(0.996264)"/>
     </g>
    </g>
    <g id="line2d_130">
     <path d="M 48.296314 302.190808 
L 60.296314 302.190808 
L 72.296314 302.190808 
" style="fill: none; stroke: #008000; stroke-linecap: square"/>
    </g>
    <g id="text_15">
     <!-- forecast RF -->
     <g transform="translate(81.896314 306.390808) scale(0.12 -0.12)">
      <defs>
       <path id="CMR17-66" d="M 979 2585 
L 1709 2585 
L 1709 2752 
L 966 2752 
L 966 3539 
C 966 4076 1235 4377 1510 4377 
C 1594 4377 1690 4363 1754 4339 
C 1702 4326 1568 4281 1568 4121 
C 1568 3955 1696 3904 1786 3904 
C 1875 3904 2003 3955 2003 4121 
C 2003 4353 1773 4480 1517 4480 
C 1152 4480 653 4211 653 3526 
L 653 2752 
L 141 2752 
L 141 2585 
L 653 2585 
L 653 441 
C 653 198 627 166 218 166 
L 218 0 
C 371 12 666 12 832 12 
C 1018 12 1344 12 1517 0 
L 1517 166 
C 1056 166 979 166 979 454 
L 979 2585 
z
" transform="scale(0.015625)"/>
       <path id="CMR17-6f" d="M 2758 1356 
C 2758 2176 2163 2816 1466 2816 
C 768 2816 173 2176 173 1356 
C 173 550 768 -64 1466 -64 
C 2163 -64 2758 550 2758 1356 
z
M 1466 51 
C 1165 51 909 230 762 480 
C 602 768 582 1126 582 1408 
C 582 1676 595 2009 762 2297 
C 890 2508 1139 2713 1466 2713 
C 1754 2713 1997 2553 2150 2329 
C 2349 2028 2349 1606 2349 1408 
C 2349 1158 2336 774 2163 467 
C 1984 172 1709 51 1466 51 
z
" transform="scale(0.015625)"/>
       <path id="CMR17-63" d="M 2234 2240 
C 2112 2240 1933 2240 1933 2015 
C 1933 1836 2080 1785 2163 1785 
C 2208 1785 2394 1804 2394 2028 
C 2394 2476 1958 2816 1466 2816 
C 787 2816 211 2201 211 1379 
C 211 521 813 -64 1466 -64 
C 2259 -64 2458 676 2458 747 
C 2458 773 2451 792 2406 792 
C 2362 792 2355 786 2330 702 
C 2163 180 1798 51 1523 51 
C 1114 51 621 431 621 1385 
C 621 2358 1094 2700 1472 2700 
C 1722 2700 2093 2582 2234 2240 
z
" transform="scale(0.015625)"/>
       <path id="CMR17-61" d="M 2304 1656 
C 2304 2048 2304 2275 2035 2534 
C 1798 2751 1523 2816 1306 2816 
C 800 2816 435 2408 435 1977 
C 435 1740 627 1728 666 1728 
C 749 1728 896 1779 896 1958 
C 896 2118 774 2188 666 2188 
C 640 2188 608 2182 589 2176 
C 723 2594 1069 2713 1293 2713 
C 1613 2713 1965 2421 1965 1875 
L 1965 1632 
C 1587 1619 1133 1568 774 1373 
C 371 1147 256 822 256 576 
C 256 77 832 -64 1171 -64 
C 1523 -64 1850 135 1990 505 
C 2003 219 2182 -39 2464 -39 
C 2598 -39 2938 51 2938 563 
L 2938 926 
L 2822 926 
L 2822 557 
C 2822 161 2650 109 2566 109 
C 2304 109 2304 446 2304 732 
L 2304 1656 
z
M 1965 887 
C 1965 323 1568 38 1216 38 
C 896 38 646 278 646 576 
C 646 771 730 1114 1101 1322 
C 1408 1497 1760 1523 1965 1536 
L 1965 887 
z
" transform="scale(0.015625)"/>
       <path id="CMR17-73" d="M 1978 2688 
C 1978 2803 1971 2809 1933 2809 
C 1907 2809 1901 2803 1824 2707 
C 1805 2681 1747 2617 1728 2592 
C 1523 2809 1235 2816 1126 2816 
C 416 2816 160 2444 160 2073 
C 160 1497 813 1363 998 1324 
C 1402 1241 1542 1216 1677 1100 
C 1760 1024 1901 883 1901 652 
C 1901 384 1747 38 1158 38 
C 602 38 403 460 288 1024 
C 269 1113 269 1120 218 1120 
C 166 1120 160 1113 160 985 
L 160 64 
C 160 -52 166 -58 205 -58 
C 237 -58 243 -52 275 0 
C 314 57 410 211 448 275 
C 576 102 800 -64 1158 -64 
C 1792 -64 2131 281 2131 780 
C 2131 1107 1958 1280 1875 1356 
C 1683 1555 1459 1600 1190 1651 
C 838 1728 390 1817 390 2208 
C 390 2374 480 2726 1126 2726 
C 1811 2726 1850 2086 1862 1881 
C 1869 1849 1901 1843 1920 1843 
C 1978 1843 1978 1862 1978 1971 
L 1978 2688 
z
" transform="scale(0.015625)"/>
       <path id="CMR17-52" d="M 2509 2156 
C 3117 2278 3629 2689 3629 3203 
C 3629 3806 2950 4352 2054 4352 
L 333 4352 
L 333 4185 
C 774 4185 845 4185 845 3896 
L 845 428 
C 845 140 774 140 333 140 
L 333 -26 
C 518 -13 851 -13 1050 -13 
C 1248 -13 1581 -13 1766 -26 
L 1766 140 
C 1325 140 1254 140 1254 428 
L 1254 2112 
L 2003 2112 
C 2368 2112 2573 1964 2662 1881 
C 2918 1632 2918 1459 2918 1024 
C 2918 595 2918 377 3110 160 
C 3354 -103 3680 -128 3821 -128 
C 4294 -128 4365 403 4365 512 
C 4365 550 4365 595 4307 595 
C 4256 595 4250 556 4250 531 
C 4218 115 4032 -26 3834 -26 
C 3482 -26 3443 377 3405 768 
C 3386 902 3373 998 3360 1139 
C 3322 1459 3270 1926 2509 2156 
z
M 1984 2214 
L 1254 2214 
L 1254 3935 
C 1254 4153 1267 4185 1523 4185 
L 1990 4185 
C 2522 4185 3142 3999 3142 3203 
C 3142 2374 2464 2214 1984 2214 
z
" transform="scale(0.015625)"/>
       <path id="CMR17-46" d="M 3482 4339 
L 326 4339 
L 326 4172 
C 768 4172 838 4172 838 3883 
L 838 450 
C 838 166 768 166 326 166 
L 326 0 
C 512 12 870 12 1069 12 
C 1331 12 1638 12 1901 0 
L 1901 166 
L 1760 166 
C 1274 166 1261 229 1261 456 
L 1261 2073 
L 1837 2073 
C 2432 2073 2490 1865 2490 1334 
L 2605 1334 
L 2605 2991 
L 2490 2991 
C 2490 2451 2432 2240 1837 2240 
L 1261 2240 
L 1261 3922 
C 1261 4140 1274 4172 1530 4172 
L 2355 4172 
C 3322 4172 3430 3774 3520 2920 
L 3635 2920 
L 3482 4339 
z
" transform="scale(0.015625)"/>
      </defs>
      <use xlink:href="#CMR17-66" transform="scale(0.996264)"/>
      <use xlink:href="#CMR17-6f" transform="translate(27.473512 0) scale(0.996264)"/>
      <use xlink:href="#CMR17-72" transform="translate(73.16399 0) scale(0.996264)"/>
      <use xlink:href="#CMR17-65" transform="translate(108.444757 0) scale(0.996264)"/>
      <use xlink:href="#CMR17-63" transform="translate(148.930418 0) scale(0.996264)"/>
      <use xlink:href="#CMR17-61" transform="translate(189.416078 0) scale(0.996264)"/>
      <use xlink:href="#CMR17-73" transform="translate(235.106555 0) scale(0.996264)"/>
      <use xlink:href="#CMR17-74" transform="translate(270.907893 0) scale(0.996264)"/>
      <use xlink:href="#CMR17-52" transform="translate(336.264627 0) scale(0.996264)"/>
      <use xlink:href="#CMR17-46" transform="translate(404.055729 0) scale(0.996264)"/>
     </g>
    </g>
    <g id="patch_7">
     <path d="M 48.296314 323.115404 
L 72.296314 323.115404 
L 72.296314 314.715404 
L 48.296314 314.715404 
z
" style="fill: #808080; fill-opacity: 0.3; stroke: #808080; stroke-opacity: 0.3; stroke-linejoin: miter"/>
    </g>
    <g id="text_16">
     <!-- 99 perc. CI -->
     <g transform="translate(81.896314 323.115404) scale(0.12 -0.12)">
      <defs>
       <path id="CMR17-39" d="M 2253 1871 
C 2253 448 1670 25 1190 25 
C 1043 25 685 43 538 281 
C 704 256 826 345 826 505 
C 826 678 685 736 595 736 
C 538 736 365 710 365 492 
C 365 68 742 -128 1203 -128 
C 1939 -128 2688 665 2688 2090 
C 2688 3857 1971 4224 1485 4224 
C 851 4224 243 3664 243 2800 
C 243 2000 762 1408 1414 1408 
C 1952 1408 2189 1910 2253 2122 
L 2253 1871 
z
M 1427 1510 
C 1254 1510 1011 1542 813 1929 
C 678 2181 678 2477 678 2793 
C 678 3174 678 3438 858 3722 
C 947 3857 1114 4076 1485 4076 
C 2240 4076 2240 2909 2240 2651 
C 2240 2193 2035 1510 1427 1510 
z
" transform="scale(0.015625)"/>
       <path id="CMR17-70" d="M 1408 -1114 
C 998 -1114 973 -1088 973 -834 
L 973 380 
C 1158 109 1427 -64 1766 -64 
C 2406 -64 3053 503 3053 1382 
C 3053 2196 2496 2816 1837 2816 
C 1453 2816 1139 2603 960 2345 
L 960 2816 
L 198 2745 
L 198 2577 
C 576 2577 634 2539 634 2228 
L 634 -834 
C 634 -1081 608 -1114 198 -1114 
L 198 -1280 
C 352 -1268 634 -1268 800 -1268 
C 966 -1268 1254 -1268 1408 -1280 
L 1408 -1114 
z
M 973 2015 
C 973 2106 973 2241 1222 2481 
C 1254 2506 1472 2700 1792 2700 
C 2259 2700 2643 2112 2643 1376 
C 2643 639 2234 38 1728 38 
C 1498 38 1248 148 1056 451 
C 973 594 973 632 973 736 
L 973 2015 
z
" transform="scale(0.015625)"/>
       <path id="CMR17-2e" d="M 1062 262 
C 1062 422 934 524 800 524 
C 672 524 538 422 538 262 
C 538 102 666 0 800 0 
C 928 0 1062 102 1062 262 
z
" transform="scale(0.015625)"/>
       <path id="CMR17-43" d="M 3974 4351 
C 3974 4467 3968 4473 3930 4473 
C 3904 4473 3898 4467 3853 4390 
L 3571 3849 
C 3258 4249 2874 4480 2381 4480 
C 1286 4480 294 3507 294 2179 
C 294 837 1286 -128 2387 -128 
C 3366 -128 3974 741 3974 1482 
C 3974 1547 3974 1573 3917 1573 
C 3866 1573 3866 1553 3859 1495 
C 3808 592 3168 38 2477 38 
C 1824 38 781 502 781 2179 
C 781 3862 1843 4313 2464 4313 
C 3187 4313 3712 3681 3834 2785 
C 3846 2707 3846 2695 3904 2695 
C 3974 2695 3974 2707 3974 2824 
L 3974 4351 
z
" transform="scale(0.015625)"/>
       <path id="CMR17-49" d="M 1261 3898 
C 1261 4185 1338 4185 1798 4185 
L 1798 4352 
C 1594 4339 1267 4339 1050 4339 
C 832 4339 506 4339 301 4352 
L 301 4185 
C 762 4185 838 4185 838 3898 
L 838 453 
C 838 166 762 166 301 166 
L 301 0 
C 506 12 832 12 1050 12 
C 1267 12 1594 12 1798 0 
L 1798 166 
C 1338 166 1261 166 1261 453 
L 1261 3898 
z
" transform="scale(0.015625)"/>
      </defs>
      <use xlink:href="#CMR17-39" transform="scale(0.996264)"/>
      <use xlink:href="#CMR17-39" transform="translate(45.690477 0) scale(0.996264)"/>
      <use xlink:href="#CMR17-70" transform="translate(121.456921 0) scale(0.996264)"/>
      <use xlink:href="#CMR17-65" transform="translate(174.954729 0) scale(0.996264)"/>
      <use xlink:href="#CMR17-72" transform="translate(215.44039 0) scale(0.996264)"/>
      <use xlink:href="#CMR17-63" transform="translate(250.721157 0) scale(0.996264)"/>
      <use xlink:href="#CMR17-2e" transform="translate(291.206818 0) scale(0.996264)"/>
      <use xlink:href="#CMR17-43" transform="translate(356.563537 0) scale(0.996264)"/>
      <use xlink:href="#CMR17-49" transform="translate(423.073417 0) scale(0.996264)"/>
     </g>
    </g>
   </g>
  </g>
 </g>
 <defs>
  <clipPath id="p0659dd9d54">
   <rect x="37.496314" y="3.6" width="558" height="332.64"/>
  </clipPath>
 </defs>
</svg>
