<?xml version="1.0" encoding="utf-8" standalone="no"?>
<!DOCTYPE svg PUBLIC "-//W3C//DTD SVG 1.1//EN"
  "http://www.w3.org/Graphics/SVG/1.1/DTD/svg11.dtd">
<svg xmlns:xlink="http://www.w3.org/1999/xlink" width="599.096314pt" height="359.281364pt" viewBox="0 0 599.096314 359.281364" xmlns="http://www.w3.org/2000/svg" version="1.1">
 <metadata>
  <rdf:RDF xmlns:dc="http://purl.org/dc/elements/1.1/" xmlns:cc="http://creativecommons.org/ns#" xmlns:rdf="http://www.w3.org/1999/02/22-rdf-syntax-ns#">
   <cc:Work>
    <dc:type rdf:resource="http://purl.org/dc/dcmitype/StillImage"/>
    <dc:date>2025-03-20T12:36:35.857741</dc:date>
    <dc:format>image/svg+xml</dc:format>
    <dc:creator>
     <cc:Agent>
      <dc:title>Matplotlib v3.9.2, https://matplotlib.org/</dc:title>
     </cc:Agent>
    </dc:creator>
   </cc:Work>
  </rdf:RDF>
 </metadata>
 <defs>
  <style type="text/css">*{stroke-linejoin: round; stroke-linecap: butt}</style>
 </defs>
 <g id="figure_1">
  <g id="patch_1">
   <path d="M 0 359.281364 
L 599.096314 359.281364 
L 599.096314 0 
L 0 0 
z
" style="fill: #ffffff"/>
  </g>
  <g id="axes_1">
   <g id="patch_2">
    <path d="M 37.496314 336.24 
L 595.496314 336.24 
L 595.496314 3.6 
L 37.496314 3.6 
z
" style="fill: #ffffff"/>
   </g>
   <g id="PolyCollection_1">
    <defs>
     <path id="m575af0e2dd" d="M 62.85995 -316.216396 
L 62.85995 -183.531648 
L 64.74527 -180.043853 
L 66.569773 -172.794312 
L 68.455093 -177.23147 
L 70.279597 -197.328929 
L 72.164917 -184.095228 
L 74.050237 -175.870986 
L 75.87474 -181.618306 
L 77.76006 -158.789875 
L 79.584563 -183.265238 
L 81.469883 -181.336294 
L 83.355203 -170.605987 
L 85.058073 -171.704234 
L 86.943393 -169.201364 
L 88.767896 -174.941023 
L 90.653216 -169.587046 
L 92.47772 -169.996109 
L 94.36304 -170.731011 
L 96.24836 -161.424883 
L 98.072863 -182.088036 
L 99.958183 -173.852399 
L 101.782686 -172.602869 
L 103.668006 -185.434699 
L 105.553327 -174.372996 
L 107.256196 -173.099499 
L 109.141516 -167.071299 
L 110.96602 -177.008375 
L 112.85134 -176.13777 
L 114.675843 -187.374788 
L 116.561163 -187.763671 
L 118.446483 -160.938771 
L 120.270986 -167.125468 
L 122.156306 -181.592325 
L 123.98081 -175.844474 
L 125.86613 -174.978861 
L 127.75145 -178.21565 
L 129.515136 -184.915859 
L 131.400456 -178.227376 
L 133.22496 -179.507906 
L 135.11028 -169.108416 
L 136.934783 -167.997453 
L 138.820103 -180.074657 
L 140.705423 -177.876861 
L 142.529926 -179.320228 
L 144.415246 -184.207852 
L 146.23975 -176.754664 
L 148.12507 -182.933024 
L 150.01039 -180.668581 
L 151.713259 -174.767997 
L 153.598579 -179.932405 
L 155.423083 -170.814024 
L 157.308403 -176.275126 
L 159.132906 -182.330296 
L 161.018226 -182.870065 
L 162.903546 -175.519399 
L 164.728049 -175.514856 
L 166.613369 -178.087461 
L 168.437873 -170.226999 
L 170.323193 -181.371217 
L 172.208513 -181.442968 
L 173.911383 -179.830689 
L 175.796703 -174.018153 
L 177.621206 -175.977264 
L 179.506526 -173.420051 
L 181.331029 -174.847256 
L 183.216349 -173.838925 
L 185.101669 -177.102601 
L 186.926173 -183.172478 
L 188.811493 -183.045197 
L 190.635996 -181.972358 
L 192.521316 -181.970588 
L 194.406636 -180.750742 
L 196.109506 -174.304929 
L 197.994826 -180.315485 
L 199.819329 -177.161296 
L 201.704649 -180.888453 
L 203.529152 -181.612989 
L 205.414472 -172.877114 
L 207.299792 -180.419713 
L 209.124296 -179.291229 
L 211.009616 -184.111451 
L 212.834119 -180.240262 
L 214.719439 -180.342153 
L 216.604759 -177.395572 
L 218.368446 -179.603021 
L 220.253766 -174.569959 
L 222.078269 -179.25281 
L 223.963589 -175.167783 
L 225.788092 -174.566249 
L 227.673412 -170.275512 
L 229.558732 -172.63304 
L 231.383236 -179.419254 
L 233.268556 -176.142189 
L 235.093059 -165.577133 
L 236.978379 -42.491952 
L 238.863699 -172.404962 
L 240.566569 -134.146279 
L 242.451889 -118.025317 
L 244.276392 -154.427745 
L 246.161712 -174.0857 
L 247.986216 -153.81776 
L 249.871536 -186.448169 
L 251.756856 -175.560871 
L 253.581359 -177.388198 
L 255.466679 -177.704632 
L 257.291182 -190.388283 
L 259.176502 -200.68279 
L 261.061822 -192.421625 
L 262.764692 -162.441506 
L 264.650012 -171.87992 
L 266.474515 -181.558357 
L 268.359835 -176.517594 
L 270.184339 -171.682933 
L 272.069659 -172.095278 
L 273.954979 -176.227915 
L 275.779482 -181.291363 
L 277.664802 -176.786798 
L 279.489305 -183.068296 
L 281.374625 -169.210287 
L 283.259946 -168.492149 
L 284.962815 -181.613787 
L 286.848135 -173.679809 
L 288.672639 -176.255275 
L 290.557959 -175.856993 
L 292.382462 -180.808038 
L 294.267782 -171.262899 
L 296.153102 -178.719408 
L 297.977605 -171.964416 
L 299.862925 -178.209026 
L 301.687429 -169.086538 
L 303.572749 -181.927787 
L 305.458069 -176.255048 
L 307.221755 -181.922306 
L 309.107075 -179.635313 
L 310.931579 -168.90636 
L 312.816899 -178.977362 
L 314.641402 -177.353483 
L 316.526722 -178.279772 
L 318.412042 -180.729848 
L 320.236545 -170.312213 
L 322.121865 -179.35467 
L 323.946369 -171.196294 
L 325.831689 -172.752093 
L 327.717009 -174.403746 
L 329.419878 -172.128525 
L 331.305198 -177.33525 
L 333.129702 -178.418706 
L 335.015022 -182.003075 
L 336.839525 -173.509786 
L 338.724845 -163.833679 
L 340.610165 -179.479013 
L 342.434668 -174.210775 
L 344.319988 -174.700427 
L 346.144492 -181.348859 
L 348.029812 -174.678788 
L 349.915132 -171.58259 
L 351.618002 -176.09058 
L 353.503322 -177.533223 
L 355.327825 -177.578872 
L 357.213145 -174.012953 
L 359.037648 -180.260174 
L 360.922968 -176.882207 
L 362.808288 -178.535074 
L 364.632792 -176.912684 
L 366.518112 -173.68214 
L 368.342615 -176.670508 
L 370.227935 -180.724249 
L 372.113255 -179.741402 
L 373.816125 -182.278511 
L 375.701445 -172.900398 
L 377.525948 -173.075367 
L 379.411268 -179.083729 
L 381.235771 -167.893331 
L 383.121091 -174.786344 
L 385.006411 -176.62191 
L 386.830915 -175.926592 
L 388.716235 -167.288473 
L 390.540738 -183.910109 
L 392.426058 -171.278154 
L 394.311378 -175.007459 
L 396.075065 -167.870803 
L 397.960385 -183.007573 
L 399.784888 -177.675094 
L 401.670208 -183.137558 
L 403.494711 -173.274028 
L 405.380031 -182.414646 
L 407.265351 -186.09991 
L 409.089855 -171.401001 
L 410.975175 -170.667192 
L 412.799678 -170.703232 
L 414.684998 -169.796795 
L 416.570318 -177.809639 
L 418.273188 -179.078443 
L 420.158508 -177.868267 
L 421.983011 -174.489365 
L 423.868331 -178.797028 
L 425.692835 -177.101749 
L 427.578155 -181.600007 
L 429.463475 -171.520902 
L 431.287978 -178.777264 
L 433.173298 -177.803441 
L 434.997801 -173.714781 
L 436.883121 -177.900005 
L 438.768441 -178.022245 
L 440.471311 -177.306446 
L 442.356631 -167.209835 
L 444.181134 -177.960132 
L 446.066454 -172.681527 
L 447.890958 -177.219364 
L 449.776278 -180.483865 
L 451.661598 -177.889857 
L 453.486101 -179.020767 
L 455.371421 -174.846523 
L 457.195924 -167.417502 
L 459.081244 -173.818343 
L 460.966565 -173.094556 
L 462.669434 -181.9812 
L 464.554754 -187.065378 
L 466.379258 -181.986255 
L 468.264578 -183.167664 
L 470.089081 -177.360931 
L 471.974401 -187.880364 
L 473.859721 -194.09395 
L 475.684224 -170.978163 
L 477.569544 -179.303518 
L 479.394048 -174.464768 
L 481.279368 -178.587736 
L 483.164688 -177.915115 
L 484.928374 -180.806605 
L 486.813694 -178.508627 
L 488.638198 -157.271747 
L 490.523518 -189.995821 
L 492.348021 -175.923311 
L 494.233341 -175.439659 
L 496.118661 -183.769512 
L 497.943164 -180.780294 
L 499.828484 -169.15606 
L 501.652988 -170.361122 
L 503.538308 -179.790176 
L 505.423628 -179.366107 
L 507.126497 -174.509394 
L 509.011817 -177.240753 
L 510.836321 -172.174346 
L 512.721641 -183.439519 
L 514.546144 -175.812594 
L 516.431464 -179.473542 
L 518.316784 -183.698613 
L 520.141287 -178.359895 
L 522.026607 -170.377048 
L 523.851111 -173.825905 
L 525.736431 -182.338861 
L 527.621751 -176.340917 
L 529.324621 -169.47204 
L 531.209941 -172.02557 
L 533.034444 -172.385133 
L 534.919764 -170.252849 
L 536.744267 -167.210001 
L 538.629587 -170.143959 
L 540.514907 -177.270351 
L 542.339411 -183.895981 
L 544.224731 -157.11098 
L 546.049234 -168.962208 
L 547.934554 -183.523673 
L 549.819874 -175.423269 
L 551.522744 -178.100077 
L 553.408064 -173.613176 
L 555.232567 -171.755571 
L 557.117887 -183.434487 
L 558.94239 -170.634253 
L 560.82771 -178.087025 
L 562.71303 -177.459483 
L 564.537534 -167.763011 
L 566.422854 -170.680377 
L 568.247357 -167.247027 
L 570.132677 -183.585592 
L 570.132677 -324.981433 
L 570.132677 -324.981433 
L 568.247357 -308.574599 
L 566.422854 -312.012524 
L 564.537534 -309.166796 
L 562.71303 -318.911277 
L 560.82771 -319.56762 
L 558.94239 -312.049673 
L 557.117887 -324.914571 
L 555.232567 -313.229286 
L 553.408064 -315.092167 
L 551.522744 -319.627926 
L 549.819874 -317.022759 
L 547.934554 -325.181435 
L 546.049234 -310.528924 
L 544.224731 -298.722896 
L 542.339411 -325.021206 
L 540.514907 -318.29532 
L 538.629587 -311.249926 
L 536.744267 -308.31705 
L 534.919764 -310.994529 
L 533.034444 -313.20135 
L 531.209941 -312.905616 
L 529.324621 -310.375289 
L 527.621751 -317.266702 
L 525.736431 -323.328281 
L 523.851111 -314.779281 
L 522.026607 -311.400382 
L 520.141287 -319.451454 
L 518.316784 -324.863492 
L 516.431464 -320.69488 
L 514.546144 -317.099794 
L 512.721641 -324.79556 
L 510.836321 -313.42066 
L 509.011817 -318.563828 
L 507.126497 -315.887375 
L 505.423628 -320.803919 
L 503.538308 -320.10702 
L 501.652988 -310.672262 
L 499.828484 -309.529151 
L 497.943164 -321.204952 
L 496.118661 -325.305883 
L 494.233341 -317.000888 
L 492.348021 -316.197928 
L 490.523518 -330.215818 
L 488.638198 -297.373377 
L 486.813694 -315.673342 
L 484.928374 -318.024621 
L 483.164688 -315.17178 
L 481.279368 -315.900898 
L 479.394048 -311.752524 
L 477.569544 -316.659693 
L 475.684224 -308.339733 
L 473.859721 -331.289037 
L 471.974401 -325.131735 
L 470.089081 -314.689074 
L 468.264578 -320.503703 
L 466.379258 -319.362925 
L 464.554754 -324.520503 
L 462.669434 -319.401424 
L 460.966565 -310.571676 
L 459.081244 -311.119936 
L 457.195924 -304.780289 
L 455.371421 -312.14131 
L 453.486101 -316.389598 
L 451.661598 -315.323211 
L 449.776278 -317.991761 
L 447.890958 -314.796014 
L 446.066454 -310.311581 
L 444.181134 -315.626661 
L 442.356631 -304.960861 
L 440.471311 -315.035671 
L 438.768441 -315.715256 
L 436.883121 -315.651121 
L 434.997801 -311.531198 
L 433.173298 -315.684462 
L 431.287978 -316.733899 
L 429.463475 -309.556077 
L 427.578155 -319.711711 
L 425.692835 -315.285337 
L 423.868331 -318.151205 
L 421.983011 -313.921486 
L 420.158508 -317.377108 
L 418.273188 -318.651097 
L 416.570318 -317.459121 
L 414.684998 -308.336696 
L 412.799678 -309.313225 
L 410.975175 -309.355787 
L 409.089855 -310.172707 
L 407.265351 -324.948415 
L 405.380031 -321.330453 
L 403.494711 -312.260586 
L 401.670208 -322.178199 
L 399.784888 -316.758848 
L 397.960385 -323.132506 
L 396.075065 -308.076696 
L 394.311378 -313.828049 
L 392.426058 -311.259529 
L 390.540738 -323.971053 
L 388.716235 -307.281786 
L 386.830915 -315.794691 
L 385.006411 -316.496997 
L 383.121091 -314.740572 
L 381.235771 -307.933333 
L 379.411268 -319.200459 
L 377.525948 -313.273512 
L 375.701445 -313.182753 
L 373.816125 -322.630664 
L 372.113255 -320.138506 
L 370.227935 -321.198123 
L 368.342615 -317.078766 
L 366.518112 -314.102287 
L 364.632792 -317.41064 
L 362.808288 -319.095246 
L 360.922968 -317.525462 
L 359.037648 -320.966637 
L 357.213145 -314.796175 
L 355.327825 -318.43996 
L 353.503322 -318.461327 
L 351.618002 -317.09501 
L 349.915132 -312.666913 
L 348.029812 -315.840048 
L 346.144492 -322.565162 
L 344.319988 -315.985389 
L 342.434668 -315.57865 
L 340.610165 -320.920108 
L 338.724845 -305.256491 
L 336.839525 -314.999282 
L 335.015022 -323.524471 
L 333.129702 -320.025029 
L 331.305198 -319.008582 
L 329.419878 -313.87446 
L 327.717009 -316.146504 
L 325.831689 -314.567165 
L 323.946369 -313.01442 
L 322.121865 -321.243079 
L 320.236545 -312.248003 
L 318.412042 -322.729229 
L 316.526722 -320.347391 
L 314.641402 -319.469361 
L 312.816899 -321.039274 
L 310.931579 -311.053497 
L 309.107075 -321.855551 
L 307.221755 -324.188467 
L 305.458069 -318.505789 
L 303.572749 -324.262797 
L 301.687429 -311.491244 
L 299.862925 -320.679666 
L 297.977605 -314.511143 
L 296.153102 -320.231451 
L 294.267782 -312.805919 
L 292.382462 -322.233619 
L 290.557959 -317.37083 
L 288.672639 -317.844793 
L 286.848135 -315.329651 
L 284.962815 -323.335616 
L 283.259946 -310.226431 
L 281.374625 -310.941116 
L 279.489305 -324.889361 
L 277.664802 -318.61406 
L 275.779482 -323.182926 
L 273.954979 -318.20596 
L 272.069659 -314.162568 
L 270.184339 -313.715521 
L 268.359835 -318.256984 
L 266.474515 -323.346874 
L 264.650012 -313.541794 
L 262.764692 -301.527575 
L 261.061822 -332.275661 
L 259.176502 -340.561364 
L 257.291182 -330.325012 
L 255.466679 -318.428461 
L 253.581359 -318.140833 
L 251.756856 -316.054018 
L 249.871536 -327.013816 
L 247.986216 -294.413738 
L 246.161712 -314.559394 
L 244.276392 -289.843788 
L 242.451889 -254.673896 
L 240.566569 -270.676475 
L 238.863699 -312.367058 
L 236.978379 -182.2903 
L 235.093059 -306.613391 
L 233.268556 -312.105917 
L 231.383236 -315.163417 
L 229.558732 -308.462492 
L 227.673412 -305.872452 
L 225.788092 -310.077162 
L 223.963589 -310.716415 
L 222.078269 -314.803475 
L 220.253766 -310.127974 
L 218.368446 -315.191081 
L 216.604759 -312.619126 
L 214.719439 -315.659749 
L 212.834119 -315.33153 
L 211.009616 -319.279049 
L 209.124296 -314.514909 
L 207.299792 -315.480788 
L 205.414472 -308.03987 
L 203.529152 -316.850681 
L 201.704649 -316.172609 
L 199.819329 -312.420881 
L 197.994826 -315.462581 
L 196.109506 -309.533997 
L 194.406636 -317.13125 
L 192.521316 -318.437446 
L 190.635996 -318.514861 
L 188.811493 -319.604077 
L 186.926173 -319.828237 
L 185.101669 -313.917426 
L 183.216349 -310.745658 
L 181.331029 -311.760596 
L 179.506526 -310.329783 
L 177.621206 -312.982408 
L 175.796703 -310.528455 
L 173.911383 -315.402032 
L 172.208513 -317.112906 
L 170.323193 -317.134698 
L 168.437873 -304.83949 
L 166.613369 -313.808057 
L 164.728049 -311.332809 
L 162.903546 -311.431024 
L 161.018226 -318.90571 
L 159.132906 -318.459239 
L 157.308403 -312.488933 
L 155.423083 -307.075857 
L 153.598579 -316.277982 
L 151.713259 -311.192634 
L 150.01039 -317.093036 
L 148.12507 -319.443074 
L 146.23975 -313.232455 
L 144.415246 -320.757926 
L 142.529926 -315.939522 
L 140.705423 -314.545663 
L 138.820103 -316.744724 
L 136.934783 -304.682393 
L 135.11028 -306.8897 
L 133.22496 -316.335384 
L 131.400456 -315.094393 
L 129.515136 -322.960558 
L 127.75145 -316.192965 
L 125.86613 -313.000108 
L 123.98081 -312.904095 
L 122.156306 -318.73878 
L 120.270986 -304.251399 
L 118.446483 -298.15642 
L 116.561163 -325.054635 
L 114.675843 -324.647492 
L 112.85134 -313.319192 
L 110.96602 -314.11804 
L 109.141516 -304.234013 
L 107.256196 -309.933736 
L 105.553327 -311.296643 
L 103.668006 -322.380121 
L 101.782686 -309.330757 
L 99.958183 -310.660143 
L 98.072863 -318.648169 
L 96.24836 -298.016663 
L 94.36304 -306.379878 
L 92.47772 -306.44488 
L 90.653216 -306.07483 
L 88.767896 -311.389747 
L 86.943393 -304.539845 
L 85.058073 -307.01303 
L 83.355203 -306.001639 
L 81.469883 -316.820071 
L 79.584563 -318.724625 
L 77.76006 -294.185759 
L 75.87474 -315.435845 
L 74.050237 -309.736239 
L 72.164917 -317.944789 
L 70.279597 -331.053944 
L 68.455093 -310.721753 
L 66.569773 -306.388595 
L 64.74527 -312.737671 
L 62.85995 -316.216396 
z
" style="stroke: #808080; stroke-opacity: 0.3"/>
    </defs>
    <g clip-path="url(#p6c199ca1f2)">
     <use xlink:href="#m575af0e2dd" x="0" y="359.281364" style="fill: #808080; fill-opacity: 0.3; stroke: #808080; stroke-opacity: 0.3"/>
    </g>
   </g>
   <g id="matplotlib.axis_1">
    <g id="xtick_1">
     <g id="line2d_1">
      <defs>
       <path id="mbae26f925b" d="M 0 0 
L 0 -3 
" style="stroke: #000000; stroke-width: 0.5"/>
      </defs>
      <g>
       <use xlink:href="#mbae26f925b" x="125.926946" y="336.24" style="stroke: #000000; stroke-width: 0.5"/>
      </g>
     </g>
     <g id="line2d_2">
      <defs>
       <path id="me920870774" d="M 0 0 
L 0 3 
" style="stroke: #000000; stroke-width: 0.5"/>
      </defs>
      <g>
       <use xlink:href="#me920870774" x="125.926946" y="3.6" style="stroke: #000000; stroke-width: 0.5"/>
      </g>
     </g>
     <g id="text_1">
      <!-- $\mathdefault{2004}$ -->
      <g transform="translate(109.478375 352.1933) scale(0.18 -0.18)">
       <defs>
        <path id="CMR17-32" d="M 2669 990 
L 2554 990 
C 2490 537 2438 460 2413 422 
C 2381 371 1920 371 1830 371 
L 602 371 
C 832 620 1280 1073 1824 1596 
C 2214 1966 2669 2400 2669 3033 
C 2669 3788 2067 4224 1395 4224 
C 691 4224 262 3603 262 3027 
C 262 2777 448 2745 525 2745 
C 589 2745 781 2783 781 3007 
C 781 3206 614 3264 525 3264 
C 486 3264 448 3257 422 3244 
C 544 3788 915 4057 1306 4057 
C 1862 4057 2227 3616 2227 3033 
C 2227 2477 1901 1998 1536 1583 
L 262 147 
L 262 0 
L 2515 0 
L 2669 990 
z
" transform="scale(0.015625)"/>
        <path id="CMR17-30" d="M 2688 2038 
C 2688 2430 2682 3099 2413 3613 
C 2176 4063 1798 4224 1466 4224 
C 1158 4224 768 4082 525 3620 
C 269 3137 243 2539 243 2038 
C 243 1671 250 1112 448 623 
C 723 -39 1216 -128 1466 -128 
C 1760 -128 2208 -7 2470 604 
C 2662 1048 2688 1568 2688 2038 
z
M 1466 -26 
C 1056 -26 813 328 723 816 
C 653 1196 653 1749 653 2109 
C 653 2604 653 3015 736 3407 
C 858 3954 1216 4121 1466 4121 
C 1728 4121 2067 3947 2189 3420 
C 2272 3054 2278 2623 2278 2109 
C 2278 1691 2278 1176 2202 797 
C 2067 96 1690 -26 1466 -26 
z
" transform="scale(0.015625)"/>
        <path id="CMR17-34" d="M 2150 4147 
C 2150 4281 2144 4288 2029 4288 
L 128 1254 
L 128 1088 
L 1779 1088 
L 1779 460 
C 1779 230 1766 166 1318 166 
L 1197 166 
L 1197 0 
C 1402 12 1747 12 1965 12 
C 2182 12 2528 12 2733 0 
L 2733 166 
L 2611 166 
C 2163 166 2150 230 2150 460 
L 2150 1088 
L 2803 1088 
L 2803 1254 
L 2150 1254 
L 2150 4147 
z
M 1798 3723 
L 1798 1254 
L 256 1254 
L 1798 3723 
z
" transform="scale(0.015625)"/>
       </defs>
       <use xlink:href="#CMR17-32" transform="scale(0.996264)"/>
       <use xlink:href="#CMR17-30" transform="translate(45.690477 0) scale(0.996264)"/>
       <use xlink:href="#CMR17-30" transform="translate(91.380954 0) scale(0.996264)"/>
       <use xlink:href="#CMR17-34" transform="translate(137.071431 0) scale(0.996264)"/>
      </g>
     </g>
    </g>
    <g id="xtick_2">
     <g id="line2d_3">
      <g>
       <use xlink:href="#mbae26f925b" x="214.780256" y="336.24" style="stroke: #000000; stroke-width: 0.5"/>
      </g>
     </g>
     <g id="line2d_4">
      <g>
       <use xlink:href="#me920870774" x="214.780256" y="3.6" style="stroke: #000000; stroke-width: 0.5"/>
      </g>
     </g>
     <g id="text_2">
      <!-- $\mathdefault{2008}$ -->
      <g transform="translate(198.331684 352.1933) scale(0.18 -0.18)">
       <defs>
        <path id="CMR17-38" d="M 1741 2289 
C 2144 2494 2554 2803 2554 3298 
C 2554 3884 1990 4224 1472 4224 
C 890 4224 378 3800 378 3215 
C 378 3054 416 2777 666 2533 
C 730 2469 998 2276 1171 2154 
C 883 2006 211 1652 211 945 
C 211 282 838 -128 1459 -128 
C 2144 -128 2720 366 2720 1022 
C 2720 1607 2330 1877 2074 2051 
L 1741 2289 
z
M 902 2855 
C 851 2887 595 3086 595 3388 
C 595 3781 998 4076 1459 4076 
C 1965 4076 2336 3716 2336 3298 
C 2336 2700 1670 2359 1638 2359 
C 1632 2359 1626 2359 1574 2398 
L 902 2855 
z
M 2080 1536 
C 2176 1466 2483 1253 2483 861 
C 2483 385 2010 25 1472 25 
C 890 25 448 443 448 951 
C 448 1459 838 1884 1280 2083 
L 2080 1536 
z
" transform="scale(0.015625)"/>
       </defs>
       <use xlink:href="#CMR17-32" transform="scale(0.996264)"/>
       <use xlink:href="#CMR17-30" transform="translate(45.690477 0) scale(0.996264)"/>
       <use xlink:href="#CMR17-30" transform="translate(91.380954 0) scale(0.996264)"/>
       <use xlink:href="#CMR17-38" transform="translate(137.071431 0) scale(0.996264)"/>
      </g>
     </g>
    </g>
    <g id="xtick_3">
     <g id="line2d_5">
      <g>
       <use xlink:href="#mbae26f925b" x="303.633565" y="336.24" style="stroke: #000000; stroke-width: 0.5"/>
      </g>
     </g>
     <g id="line2d_6">
      <g>
       <use xlink:href="#me920870774" x="303.633565" y="3.6" style="stroke: #000000; stroke-width: 0.5"/>
      </g>
     </g>
     <g id="text_3">
      <!-- $\mathdefault{2012}$ -->
      <g transform="translate(287.184994 352.1933) scale(0.18 -0.18)">
       <defs>
        <path id="CMR17-31" d="M 1702 4083 
C 1702 4217 1696 4224 1606 4224 
C 1357 3927 979 3833 621 3820 
C 602 3820 570 3820 563 3808 
C 557 3795 557 3782 557 3648 
C 755 3648 1088 3686 1344 3839 
L 1344 467 
C 1344 243 1331 166 781 166 
L 589 166 
L 589 0 
C 896 6 1216 12 1523 12 
C 1830 12 2150 6 2458 0 
L 2458 166 
L 2266 166 
C 1715 166 1702 236 1702 467 
L 1702 4083 
z
" transform="scale(0.015625)"/>
       </defs>
       <use xlink:href="#CMR17-32" transform="scale(0.996264)"/>
       <use xlink:href="#CMR17-30" transform="translate(45.690477 0) scale(0.996264)"/>
       <use xlink:href="#CMR17-31" transform="translate(91.380954 0) scale(0.996264)"/>
       <use xlink:href="#CMR17-32" transform="translate(137.071431 0) scale(0.996264)"/>
      </g>
     </g>
    </g>
    <g id="xtick_4">
     <g id="line2d_7">
      <g>
       <use xlink:href="#mbae26f925b" x="392.486875" y="336.24" style="stroke: #000000; stroke-width: 0.5"/>
      </g>
     </g>
     <g id="line2d_8">
      <g>
       <use xlink:href="#me920870774" x="392.486875" y="3.6" style="stroke: #000000; stroke-width: 0.5"/>
      </g>
     </g>
     <g id="text_4">
      <!-- $\mathdefault{2016}$ -->
      <g transform="translate(376.038303 352.1933) scale(0.18 -0.18)">
       <defs>
        <path id="CMR17-36" d="M 678 2198 
C 678 3712 1395 4076 1811 4076 
C 1946 4076 2272 4049 2400 3782 
C 2298 3782 2106 3782 2106 3558 
C 2106 3385 2246 3328 2336 3328 
C 2394 3328 2566 3353 2566 3571 
C 2566 3987 2246 4224 1805 4224 
C 1043 4224 243 3411 243 2011 
C 243 257 966 -128 1478 -128 
C 2099 -128 2688 431 2688 1295 
C 2688 2101 2170 2688 1517 2688 
C 1126 2688 838 2430 678 1979 
L 678 2198 
z
M 1478 25 
C 691 25 691 1212 691 1450 
C 691 1914 909 2585 1504 2585 
C 1613 2585 1926 2585 2138 2140 
C 2253 1889 2253 1624 2253 1302 
C 2253 954 2253 696 2118 438 
C 1978 173 1773 25 1478 25 
z
" transform="scale(0.015625)"/>
       </defs>
       <use xlink:href="#CMR17-32" transform="scale(0.996264)"/>
       <use xlink:href="#CMR17-30" transform="translate(45.690477 0) scale(0.996264)"/>
       <use xlink:href="#CMR17-31" transform="translate(91.380954 0) scale(0.996264)"/>
       <use xlink:href="#CMR17-36" transform="translate(137.071431 0) scale(0.996264)"/>
      </g>
     </g>
    </g>
    <g id="xtick_5">
     <g id="line2d_9">
      <g>
       <use xlink:href="#mbae26f925b" x="481.340184" y="336.24" style="stroke: #000000; stroke-width: 0.5"/>
      </g>
     </g>
     <g id="line2d_10">
      <g>
       <use xlink:href="#me920870774" x="481.340184" y="3.6" style="stroke: #000000; stroke-width: 0.5"/>
      </g>
     </g>
     <g id="text_5">
      <!-- $\mathdefault{2020}$ -->
      <g transform="translate(464.891613 352.1933) scale(0.18 -0.18)">
       <use xlink:href="#CMR17-32" transform="scale(0.996264)"/>
       <use xlink:href="#CMR17-30" transform="translate(45.690477 0) scale(0.996264)"/>
       <use xlink:href="#CMR17-32" transform="translate(91.380954 0) scale(0.996264)"/>
       <use xlink:href="#CMR17-30" transform="translate(137.071431 0) scale(0.996264)"/>
      </g>
     </g>
    </g>
    <g id="xtick_6">
     <g id="line2d_11">
      <g>
       <use xlink:href="#mbae26f925b" x="570.193494" y="336.24" style="stroke: #000000; stroke-width: 0.5"/>
      </g>
     </g>
     <g id="line2d_12">
      <g>
       <use xlink:href="#me920870774" x="570.193494" y="3.6" style="stroke: #000000; stroke-width: 0.5"/>
      </g>
     </g>
     <g id="text_6">
      <!-- $\mathdefault{2024}$ -->
      <g transform="translate(553.744922 352.1933) scale(0.18 -0.18)">
       <use xlink:href="#CMR17-32" transform="scale(0.996264)"/>
       <use xlink:href="#CMR17-30" transform="translate(45.690477 0) scale(0.996264)"/>
       <use xlink:href="#CMR17-32" transform="translate(91.380954 0) scale(0.996264)"/>
       <use xlink:href="#CMR17-34" transform="translate(137.071431 0) scale(0.996264)"/>
      </g>
     </g>
    </g>
    <g id="xtick_7">
     <g id="line2d_13">
      <defs>
       <path id="mb043638736" d="M 0 0 
L 0 -1.5 
" style="stroke: #000000; stroke-width: 0.5"/>
      </defs>
      <g>
       <use xlink:href="#mb043638736" x="59.286964" y="336.24" style="stroke: #000000; stroke-width: 0.5"/>
      </g>
     </g>
     <g id="line2d_14">
      <defs>
       <path id="m57f9f7e2cb" d="M 0 0 
L 0 1.5 
" style="stroke: #000000; stroke-width: 0.5"/>
      </defs>
      <g>
       <use xlink:href="#m57f9f7e2cb" x="59.286964" y="3.6" style="stroke: #000000; stroke-width: 0.5"/>
      </g>
     </g>
    </g>
    <g id="xtick_8">
     <g id="line2d_15">
      <g>
       <use xlink:href="#mb043638736" x="81.500292" y="336.24" style="stroke: #000000; stroke-width: 0.5"/>
      </g>
     </g>
     <g id="line2d_16">
      <g>
       <use xlink:href="#m57f9f7e2cb" x="81.500292" y="3.6" style="stroke: #000000; stroke-width: 0.5"/>
      </g>
     </g>
    </g>
    <g id="xtick_9">
     <g id="line2d_17">
      <g>
       <use xlink:href="#mb043638736" x="103.713619" y="336.24" style="stroke: #000000; stroke-width: 0.5"/>
      </g>
     </g>
     <g id="line2d_18">
      <g>
       <use xlink:href="#m57f9f7e2cb" x="103.713619" y="3.6" style="stroke: #000000; stroke-width: 0.5"/>
      </g>
     </g>
    </g>
    <g id="xtick_10">
     <g id="line2d_19">
      <g>
       <use xlink:href="#mb043638736" x="148.140274" y="336.24" style="stroke: #000000; stroke-width: 0.5"/>
      </g>
     </g>
     <g id="line2d_20">
      <g>
       <use xlink:href="#m57f9f7e2cb" x="148.140274" y="3.6" style="stroke: #000000; stroke-width: 0.5"/>
      </g>
     </g>
    </g>
    <g id="xtick_11">
     <g id="line2d_21">
      <g>
       <use xlink:href="#mb043638736" x="170.353601" y="336.24" style="stroke: #000000; stroke-width: 0.5"/>
      </g>
     </g>
     <g id="line2d_22">
      <g>
       <use xlink:href="#m57f9f7e2cb" x="170.353601" y="3.6" style="stroke: #000000; stroke-width: 0.5"/>
      </g>
     </g>
    </g>
    <g id="xtick_12">
     <g id="line2d_23">
      <g>
       <use xlink:href="#mb043638736" x="192.566929" y="336.24" style="stroke: #000000; stroke-width: 0.5"/>
      </g>
     </g>
     <g id="line2d_24">
      <g>
       <use xlink:href="#m57f9f7e2cb" x="192.566929" y="3.6" style="stroke: #000000; stroke-width: 0.5"/>
      </g>
     </g>
    </g>
    <g id="xtick_13">
     <g id="line2d_25">
      <g>
       <use xlink:href="#mb043638736" x="236.993583" y="336.24" style="stroke: #000000; stroke-width: 0.5"/>
      </g>
     </g>
     <g id="line2d_26">
      <g>
       <use xlink:href="#m57f9f7e2cb" x="236.993583" y="3.6" style="stroke: #000000; stroke-width: 0.5"/>
      </g>
     </g>
    </g>
    <g id="xtick_14">
     <g id="line2d_27">
      <g>
       <use xlink:href="#mb043638736" x="259.206911" y="336.24" style="stroke: #000000; stroke-width: 0.5"/>
      </g>
     </g>
     <g id="line2d_28">
      <g>
       <use xlink:href="#m57f9f7e2cb" x="259.206911" y="3.6" style="stroke: #000000; stroke-width: 0.5"/>
      </g>
     </g>
    </g>
    <g id="xtick_15">
     <g id="line2d_29">
      <g>
       <use xlink:href="#mb043638736" x="281.420238" y="336.24" style="stroke: #000000; stroke-width: 0.5"/>
      </g>
     </g>
     <g id="line2d_30">
      <g>
       <use xlink:href="#m57f9f7e2cb" x="281.420238" y="3.6" style="stroke: #000000; stroke-width: 0.5"/>
      </g>
     </g>
    </g>
    <g id="xtick_16">
     <g id="line2d_31">
      <g>
       <use xlink:href="#mb043638736" x="325.846893" y="336.24" style="stroke: #000000; stroke-width: 0.5"/>
      </g>
     </g>
     <g id="line2d_32">
      <g>
       <use xlink:href="#m57f9f7e2cb" x="325.846893" y="3.6" style="stroke: #000000; stroke-width: 0.5"/>
      </g>
     </g>
    </g>
    <g id="xtick_17">
     <g id="line2d_33">
      <g>
       <use xlink:href="#mb043638736" x="348.06022" y="336.24" style="stroke: #000000; stroke-width: 0.5"/>
      </g>
     </g>
     <g id="line2d_34">
      <g>
       <use xlink:href="#m57f9f7e2cb" x="348.06022" y="3.6" style="stroke: #000000; stroke-width: 0.5"/>
      </g>
     </g>
    </g>
    <g id="xtick_18">
     <g id="line2d_35">
      <g>
       <use xlink:href="#mb043638736" x="370.273548" y="336.24" style="stroke: #000000; stroke-width: 0.5"/>
      </g>
     </g>
     <g id="line2d_36">
      <g>
       <use xlink:href="#m57f9f7e2cb" x="370.273548" y="3.6" style="stroke: #000000; stroke-width: 0.5"/>
      </g>
     </g>
    </g>
    <g id="xtick_19">
     <g id="line2d_37">
      <g>
       <use xlink:href="#mb043638736" x="414.700202" y="336.24" style="stroke: #000000; stroke-width: 0.5"/>
      </g>
     </g>
     <g id="line2d_38">
      <g>
       <use xlink:href="#m57f9f7e2cb" x="414.700202" y="3.6" style="stroke: #000000; stroke-width: 0.5"/>
      </g>
     </g>
    </g>
    <g id="xtick_20">
     <g id="line2d_39">
      <g>
       <use xlink:href="#mb043638736" x="436.91353" y="336.24" style="stroke: #000000; stroke-width: 0.5"/>
      </g>
     </g>
     <g id="line2d_40">
      <g>
       <use xlink:href="#m57f9f7e2cb" x="436.91353" y="3.6" style="stroke: #000000; stroke-width: 0.5"/>
      </g>
     </g>
    </g>
    <g id="xtick_21">
     <g id="line2d_41">
      <g>
       <use xlink:href="#mb043638736" x="459.126857" y="336.24" style="stroke: #000000; stroke-width: 0.5"/>
      </g>
     </g>
     <g id="line2d_42">
      <g>
       <use xlink:href="#m57f9f7e2cb" x="459.126857" y="3.6" style="stroke: #000000; stroke-width: 0.5"/>
      </g>
     </g>
    </g>
    <g id="xtick_22">
     <g id="line2d_43">
      <g>
       <use xlink:href="#mb043638736" x="503.553512" y="336.24" style="stroke: #000000; stroke-width: 0.5"/>
      </g>
     </g>
     <g id="line2d_44">
      <g>
       <use xlink:href="#m57f9f7e2cb" x="503.553512" y="3.6" style="stroke: #000000; stroke-width: 0.5"/>
      </g>
     </g>
    </g>
    <g id="xtick_23">
     <g id="line2d_45">
      <g>
       <use xlink:href="#mb043638736" x="525.766839" y="336.24" style="stroke: #000000; stroke-width: 0.5"/>
      </g>
     </g>
     <g id="line2d_46">
      <g>
       <use xlink:href="#m57f9f7e2cb" x="525.766839" y="3.6" style="stroke: #000000; stroke-width: 0.5"/>
      </g>
     </g>
    </g>
    <g id="xtick_24">
     <g id="line2d_47">
      <g>
       <use xlink:href="#mb043638736" x="547.980167" y="336.24" style="stroke: #000000; stroke-width: 0.5"/>
      </g>
     </g>
     <g id="line2d_48">
      <g>
       <use xlink:href="#m57f9f7e2cb" x="547.980167" y="3.6" style="stroke: #000000; stroke-width: 0.5"/>
      </g>
     </g>
    </g>
    <g id="xtick_25">
     <g id="line2d_49">
      <g>
       <use xlink:href="#mb043638736" x="592.406821" y="336.24" style="stroke: #000000; stroke-width: 0.5"/>
      </g>
     </g>
     <g id="line2d_50">
      <g>
       <use xlink:href="#m57f9f7e2cb" x="592.406821" y="3.6" style="stroke: #000000; stroke-width: 0.5"/>
      </g>
     </g>
    </g>
   </g>
   <g id="matplotlib.axis_2">
    <g id="ytick_1">
     <g id="line2d_51">
      <defs>
       <path id="m624b3cc5f8" d="M 0 0 
L 3 0 
" style="stroke: #000000; stroke-width: 0.5"/>
      </defs>
      <g>
       <use xlink:href="#m624b3cc5f8" x="37.496314" y="296.341071" style="stroke: #000000; stroke-width: 0.5"/>
      </g>
     </g>
     <g id="line2d_52">
      <defs>
       <path id="mad302d7111" d="M 0 0 
L -3 0 
" style="stroke: #000000; stroke-width: 0.5"/>
      </defs>
      <g>
       <use xlink:href="#mad302d7111" x="595.496314" y="296.341071" style="stroke: #000000; stroke-width: 0.5"/>
      </g>
     </g>
     <g id="text_7">
      <!-- $\mathdefault{−20}$ -->
      <g transform="translate(3.6 302.567721) scale(0.18 -0.18)">
       <defs>
        <path id="CMSY10-0" d="M 4218 1472 
C 4326 1472 4442 1472 4442 1600 
C 4442 1728 4326 1728 4218 1728 
L 755 1728 
C 646 1728 531 1728 531 1600 
C 531 1472 646 1472 755 1472 
L 4218 1472 
z
" transform="scale(0.015625)"/>
       </defs>
       <use xlink:href="#CMSY10-0" transform="scale(0.996264)"/>
       <use xlink:href="#CMR17-32" transform="translate(77.487468 0) scale(0.996264)"/>
       <use xlink:href="#CMR17-30" transform="translate(123.177945 0) scale(0.996264)"/>
      </g>
     </g>
    </g>
    <g id="ytick_2">
     <g id="line2d_53">
      <g>
       <use xlink:href="#m624b3cc5f8" x="37.496314" y="252.163692" style="stroke: #000000; stroke-width: 0.5"/>
      </g>
     </g>
     <g id="line2d_54">
      <g>
       <use xlink:href="#mad302d7111" x="595.496314" y="252.163692" style="stroke: #000000; stroke-width: 0.5"/>
      </g>
     </g>
     <g id="text_8">
      <!-- $\mathdefault{−15}$ -->
      <g transform="translate(3.6 258.390342) scale(0.18 -0.18)">
       <defs>
        <path id="CMR17-35" d="M 730 3750 
C 794 3724 1056 3641 1325 3641 
C 1920 3641 2246 3961 2432 4140 
C 2432 4191 2432 4224 2394 4224 
C 2387 4224 2374 4224 2323 4198 
C 2099 4102 1837 4032 1517 4032 
C 1325 4032 1037 4055 723 4191 
C 653 4224 640 4224 634 4224 
C 602 4224 595 4217 595 4090 
L 595 2231 
C 595 2113 595 2080 659 2080 
C 691 2080 704 2093 736 2139 
C 941 2435 1222 2560 1542 2560 
C 1766 2560 2246 2415 2246 1293 
C 2246 1087 2246 716 2054 422 
C 1894 159 1645 25 1370 25 
C 947 25 518 319 403 812 
C 429 806 480 793 506 793 
C 589 793 749 838 749 1036 
C 749 1209 627 1280 506 1280 
C 358 1280 262 1190 262 1011 
C 262 454 704 -128 1382 -128 
C 2042 -128 2669 441 2669 1267 
C 2669 2054 2170 2662 1549 2662 
C 1222 2662 947 2540 730 2304 
L 730 3750 
z
" transform="scale(0.015625)"/>
       </defs>
       <use xlink:href="#CMSY10-0" transform="scale(0.996264)"/>
       <use xlink:href="#CMR17-31" transform="translate(77.487468 0) scale(0.996264)"/>
       <use xlink:href="#CMR17-35" transform="translate(123.177945 0) scale(0.996264)"/>
      </g>
     </g>
    </g>
    <g id="ytick_3">
     <g id="line2d_55">
      <g>
       <use xlink:href="#m624b3cc5f8" x="37.496314" y="207.986312" style="stroke: #000000; stroke-width: 0.5"/>
      </g>
     </g>
     <g id="line2d_56">
      <g>
       <use xlink:href="#mad302d7111" x="595.496314" y="207.986312" style="stroke: #000000; stroke-width: 0.5"/>
      </g>
     </g>
     <g id="text_9">
      <!-- $\mathdefault{−10}$ -->
      <g transform="translate(3.6 214.212962) scale(0.18 -0.18)">
       <use xlink:href="#CMSY10-0" transform="scale(0.996264)"/>
       <use xlink:href="#CMR17-31" transform="translate(77.487468 0) scale(0.996264)"/>
       <use xlink:href="#CMR17-30" transform="translate(123.177945 0) scale(0.996264)"/>
      </g>
     </g>
    </g>
    <g id="ytick_4">
     <g id="line2d_57">
      <g>
       <use xlink:href="#m624b3cc5f8" x="37.496314" y="163.808932" style="stroke: #000000; stroke-width: 0.5"/>
      </g>
     </g>
     <g id="line2d_58">
      <g>
       <use xlink:href="#mad302d7111" x="595.496314" y="163.808932" style="stroke: #000000; stroke-width: 0.5"/>
      </g>
     </g>
     <g id="text_10">
      <!-- $\mathdefault{−5}$ -->
      <g transform="translate(11.824286 170.035583) scale(0.18 -0.18)">
       <use xlink:href="#CMSY10-0" transform="scale(0.996264)"/>
       <use xlink:href="#CMR17-35" transform="translate(77.487468 0) scale(0.996264)"/>
      </g>
     </g>
    </g>
    <g id="ytick_5">
     <g id="line2d_59">
      <g>
       <use xlink:href="#m624b3cc5f8" x="37.496314" y="119.631553" style="stroke: #000000; stroke-width: 0.5"/>
      </g>
     </g>
     <g id="line2d_60">
      <g>
       <use xlink:href="#mad302d7111" x="595.496314" y="119.631553" style="stroke: #000000; stroke-width: 0.5"/>
      </g>
     </g>
     <g id="text_11">
      <!-- $\mathdefault{0}$ -->
      <g transform="translate(25.772028 125.858203) scale(0.18 -0.18)">
       <use xlink:href="#CMR17-30" transform="scale(0.996264)"/>
      </g>
     </g>
    </g>
    <g id="ytick_6">
     <g id="line2d_61">
      <g>
       <use xlink:href="#m624b3cc5f8" x="37.496314" y="75.454173" style="stroke: #000000; stroke-width: 0.5"/>
      </g>
     </g>
     <g id="line2d_62">
      <g>
       <use xlink:href="#mad302d7111" x="595.496314" y="75.454173" style="stroke: #000000; stroke-width: 0.5"/>
      </g>
     </g>
     <g id="text_12">
      <!-- $\mathdefault{5}$ -->
      <g transform="translate(25.772028 81.680823) scale(0.18 -0.18)">
       <use xlink:href="#CMR17-35" transform="scale(0.996264)"/>
      </g>
     </g>
    </g>
    <g id="ytick_7">
     <g id="line2d_63">
      <g>
       <use xlink:href="#m624b3cc5f8" x="37.496314" y="31.276794" style="stroke: #000000; stroke-width: 0.5"/>
      </g>
     </g>
     <g id="line2d_64">
      <g>
       <use xlink:href="#mad302d7111" x="595.496314" y="31.276794" style="stroke: #000000; stroke-width: 0.5"/>
      </g>
     </g>
     <g id="text_13">
      <!-- $\mathdefault{10}$ -->
      <g transform="translate(17.547742 37.503444) scale(0.18 -0.18)">
       <use xlink:href="#CMR17-31" transform="scale(0.996264)"/>
       <use xlink:href="#CMR17-30" transform="translate(45.690477 0) scale(0.996264)"/>
      </g>
     </g>
    </g>
    <g id="ytick_8">
     <g id="line2d_65">
      <defs>
       <path id="m703b748095" d="M 0 0 
L 1.5 0 
" style="stroke: #000000; stroke-width: 0.5"/>
      </defs>
      <g>
       <use xlink:href="#m703b748095" x="37.496314" y="331.682975" style="stroke: #000000; stroke-width: 0.5"/>
      </g>
     </g>
     <g id="line2d_66">
      <defs>
       <path id="m7555381c55" d="M 0 0 
L -1.5 0 
" style="stroke: #000000; stroke-width: 0.5"/>
      </defs>
      <g>
       <use xlink:href="#m7555381c55" x="595.496314" y="331.682975" style="stroke: #000000; stroke-width: 0.5"/>
      </g>
     </g>
    </g>
    <g id="ytick_9">
     <g id="line2d_67">
      <g>
       <use xlink:href="#m703b748095" x="37.496314" y="322.847499" style="stroke: #000000; stroke-width: 0.5"/>
      </g>
     </g>
     <g id="line2d_68">
      <g>
       <use xlink:href="#m7555381c55" x="595.496314" y="322.847499" style="stroke: #000000; stroke-width: 0.5"/>
      </g>
     </g>
    </g>
    <g id="ytick_10">
     <g id="line2d_69">
      <g>
       <use xlink:href="#m703b748095" x="37.496314" y="314.012023" style="stroke: #000000; stroke-width: 0.5"/>
      </g>
     </g>
     <g id="line2d_70">
      <g>
       <use xlink:href="#m7555381c55" x="595.496314" y="314.012023" style="stroke: #000000; stroke-width: 0.5"/>
      </g>
     </g>
    </g>
    <g id="ytick_11">
     <g id="line2d_71">
      <g>
       <use xlink:href="#m703b748095" x="37.496314" y="305.176547" style="stroke: #000000; stroke-width: 0.5"/>
      </g>
     </g>
     <g id="line2d_72">
      <g>
       <use xlink:href="#m7555381c55" x="595.496314" y="305.176547" style="stroke: #000000; stroke-width: 0.5"/>
      </g>
     </g>
    </g>
    <g id="ytick_12">
     <g id="line2d_73">
      <g>
       <use xlink:href="#m703b748095" x="37.496314" y="287.505595" style="stroke: #000000; stroke-width: 0.5"/>
      </g>
     </g>
     <g id="line2d_74">
      <g>
       <use xlink:href="#m7555381c55" x="595.496314" y="287.505595" style="stroke: #000000; stroke-width: 0.5"/>
      </g>
     </g>
    </g>
    <g id="ytick_13">
     <g id="line2d_75">
      <g>
       <use xlink:href="#m703b748095" x="37.496314" y="278.670119" style="stroke: #000000; stroke-width: 0.5"/>
      </g>
     </g>
     <g id="line2d_76">
      <g>
       <use xlink:href="#m7555381c55" x="595.496314" y="278.670119" style="stroke: #000000; stroke-width: 0.5"/>
      </g>
     </g>
    </g>
    <g id="ytick_14">
     <g id="line2d_77">
      <g>
       <use xlink:href="#m703b748095" x="37.496314" y="269.834643" style="stroke: #000000; stroke-width: 0.5"/>
      </g>
     </g>
     <g id="line2d_78">
      <g>
       <use xlink:href="#m7555381c55" x="595.496314" y="269.834643" style="stroke: #000000; stroke-width: 0.5"/>
      </g>
     </g>
    </g>
    <g id="ytick_15">
     <g id="line2d_79">
      <g>
       <use xlink:href="#m703b748095" x="37.496314" y="260.999167" style="stroke: #000000; stroke-width: 0.5"/>
      </g>
     </g>
     <g id="line2d_80">
      <g>
       <use xlink:href="#m7555381c55" x="595.496314" y="260.999167" style="stroke: #000000; stroke-width: 0.5"/>
      </g>
     </g>
    </g>
    <g id="ytick_16">
     <g id="line2d_81">
      <g>
       <use xlink:href="#m703b748095" x="37.496314" y="243.328216" style="stroke: #000000; stroke-width: 0.5"/>
      </g>
     </g>
     <g id="line2d_82">
      <g>
       <use xlink:href="#m7555381c55" x="595.496314" y="243.328216" style="stroke: #000000; stroke-width: 0.5"/>
      </g>
     </g>
    </g>
    <g id="ytick_17">
     <g id="line2d_83">
      <g>
       <use xlink:href="#m703b748095" x="37.496314" y="234.49274" style="stroke: #000000; stroke-width: 0.5"/>
      </g>
     </g>
     <g id="line2d_84">
      <g>
       <use xlink:href="#m7555381c55" x="595.496314" y="234.49274" style="stroke: #000000; stroke-width: 0.5"/>
      </g>
     </g>
    </g>
    <g id="ytick_18">
     <g id="line2d_85">
      <g>
       <use xlink:href="#m703b748095" x="37.496314" y="225.657264" style="stroke: #000000; stroke-width: 0.5"/>
      </g>
     </g>
     <g id="line2d_86">
      <g>
       <use xlink:href="#m7555381c55" x="595.496314" y="225.657264" style="stroke: #000000; stroke-width: 0.5"/>
      </g>
     </g>
    </g>
    <g id="ytick_19">
     <g id="line2d_87">
      <g>
       <use xlink:href="#m703b748095" x="37.496314" y="216.821788" style="stroke: #000000; stroke-width: 0.5"/>
      </g>
     </g>
     <g id="line2d_88">
      <g>
       <use xlink:href="#m7555381c55" x="595.496314" y="216.821788" style="stroke: #000000; stroke-width: 0.5"/>
      </g>
     </g>
    </g>
    <g id="ytick_20">
     <g id="line2d_89">
      <g>
       <use xlink:href="#m703b748095" x="37.496314" y="199.150836" style="stroke: #000000; stroke-width: 0.5"/>
      </g>
     </g>
     <g id="line2d_90">
      <g>
       <use xlink:href="#m7555381c55" x="595.496314" y="199.150836" style="stroke: #000000; stroke-width: 0.5"/>
      </g>
     </g>
    </g>
    <g id="ytick_21">
     <g id="line2d_91">
      <g>
       <use xlink:href="#m703b748095" x="37.496314" y="190.31536" style="stroke: #000000; stroke-width: 0.5"/>
      </g>
     </g>
     <g id="line2d_92">
      <g>
       <use xlink:href="#m7555381c55" x="595.496314" y="190.31536" style="stroke: #000000; stroke-width: 0.5"/>
      </g>
     </g>
    </g>
    <g id="ytick_22">
     <g id="line2d_93">
      <g>
       <use xlink:href="#m703b748095" x="37.496314" y="181.479884" style="stroke: #000000; stroke-width: 0.5"/>
      </g>
     </g>
     <g id="line2d_94">
      <g>
       <use xlink:href="#m7555381c55" x="595.496314" y="181.479884" style="stroke: #000000; stroke-width: 0.5"/>
      </g>
     </g>
    </g>
    <g id="ytick_23">
     <g id="line2d_95">
      <g>
       <use xlink:href="#m703b748095" x="37.496314" y="172.644408" style="stroke: #000000; stroke-width: 0.5"/>
      </g>
     </g>
     <g id="line2d_96">
      <g>
       <use xlink:href="#m7555381c55" x="595.496314" y="172.644408" style="stroke: #000000; stroke-width: 0.5"/>
      </g>
     </g>
    </g>
    <g id="ytick_24">
     <g id="line2d_97">
      <g>
       <use xlink:href="#m703b748095" x="37.496314" y="154.973457" style="stroke: #000000; stroke-width: 0.5"/>
      </g>
     </g>
     <g id="line2d_98">
      <g>
       <use xlink:href="#m7555381c55" x="595.496314" y="154.973457" style="stroke: #000000; stroke-width: 0.5"/>
      </g>
     </g>
    </g>
    <g id="ytick_25">
     <g id="line2d_99">
      <g>
       <use xlink:href="#m703b748095" x="37.496314" y="146.137981" style="stroke: #000000; stroke-width: 0.5"/>
      </g>
     </g>
     <g id="line2d_100">
      <g>
       <use xlink:href="#m7555381c55" x="595.496314" y="146.137981" style="stroke: #000000; stroke-width: 0.5"/>
      </g>
     </g>
    </g>
    <g id="ytick_26">
     <g id="line2d_101">
      <g>
       <use xlink:href="#m703b748095" x="37.496314" y="137.302505" style="stroke: #000000; stroke-width: 0.5"/>
      </g>
     </g>
     <g id="line2d_102">
      <g>
       <use xlink:href="#m7555381c55" x="595.496314" y="137.302505" style="stroke: #000000; stroke-width: 0.5"/>
      </g>
     </g>
    </g>
    <g id="ytick_27">
     <g id="line2d_103">
      <g>
       <use xlink:href="#m703b748095" x="37.496314" y="128.467029" style="stroke: #000000; stroke-width: 0.5"/>
      </g>
     </g>
     <g id="line2d_104">
      <g>
       <use xlink:href="#m7555381c55" x="595.496314" y="128.467029" style="stroke: #000000; stroke-width: 0.5"/>
      </g>
     </g>
    </g>
    <g id="ytick_28">
     <g id="line2d_105">
      <g>
       <use xlink:href="#m703b748095" x="37.496314" y="110.796077" style="stroke: #000000; stroke-width: 0.5"/>
      </g>
     </g>
     <g id="line2d_106">
      <g>
       <use xlink:href="#m7555381c55" x="595.496314" y="110.796077" style="stroke: #000000; stroke-width: 0.5"/>
      </g>
     </g>
    </g>
    <g id="ytick_29">
     <g id="line2d_107">
      <g>
       <use xlink:href="#m703b748095" x="37.496314" y="101.960601" style="stroke: #000000; stroke-width: 0.5"/>
      </g>
     </g>
     <g id="line2d_108">
      <g>
       <use xlink:href="#m7555381c55" x="595.496314" y="101.960601" style="stroke: #000000; stroke-width: 0.5"/>
      </g>
     </g>
    </g>
    <g id="ytick_30">
     <g id="line2d_109">
      <g>
       <use xlink:href="#m703b748095" x="37.496314" y="93.125125" style="stroke: #000000; stroke-width: 0.5"/>
      </g>
     </g>
     <g id="line2d_110">
      <g>
       <use xlink:href="#m7555381c55" x="595.496314" y="93.125125" style="stroke: #000000; stroke-width: 0.5"/>
      </g>
     </g>
    </g>
    <g id="ytick_31">
     <g id="line2d_111">
      <g>
       <use xlink:href="#m703b748095" x="37.496314" y="84.289649" style="stroke: #000000; stroke-width: 0.5"/>
      </g>
     </g>
     <g id="line2d_112">
      <g>
       <use xlink:href="#m7555381c55" x="595.496314" y="84.289649" style="stroke: #000000; stroke-width: 0.5"/>
      </g>
     </g>
    </g>
    <g id="ytick_32">
     <g id="line2d_113">
      <g>
       <use xlink:href="#m703b748095" x="37.496314" y="66.618698" style="stroke: #000000; stroke-width: 0.5"/>
      </g>
     </g>
     <g id="line2d_114">
      <g>
       <use xlink:href="#m7555381c55" x="595.496314" y="66.618698" style="stroke: #000000; stroke-width: 0.5"/>
      </g>
     </g>
    </g>
    <g id="ytick_33">
     <g id="line2d_115">
      <g>
       <use xlink:href="#m703b748095" x="37.496314" y="57.783222" style="stroke: #000000; stroke-width: 0.5"/>
      </g>
     </g>
     <g id="line2d_116">
      <g>
       <use xlink:href="#m7555381c55" x="595.496314" y="57.783222" style="stroke: #000000; stroke-width: 0.5"/>
      </g>
     </g>
    </g>
    <g id="ytick_34">
     <g id="line2d_117">
      <g>
       <use xlink:href="#m703b748095" x="37.496314" y="48.947746" style="stroke: #000000; stroke-width: 0.5"/>
      </g>
     </g>
     <g id="line2d_118">
      <g>
       <use xlink:href="#m7555381c55" x="595.496314" y="48.947746" style="stroke: #000000; stroke-width: 0.5"/>
      </g>
     </g>
    </g>
    <g id="ytick_35">
     <g id="line2d_119">
      <g>
       <use xlink:href="#m703b748095" x="37.496314" y="40.11227" style="stroke: #000000; stroke-width: 0.5"/>
      </g>
     </g>
     <g id="line2d_120">
      <g>
       <use xlink:href="#m7555381c55" x="595.496314" y="40.11227" style="stroke: #000000; stroke-width: 0.5"/>
      </g>
     </g>
    </g>
    <g id="ytick_36">
     <g id="line2d_121">
      <g>
       <use xlink:href="#m703b748095" x="37.496314" y="22.441318" style="stroke: #000000; stroke-width: 0.5"/>
      </g>
     </g>
     <g id="line2d_122">
      <g>
       <use xlink:href="#m7555381c55" x="595.496314" y="22.441318" style="stroke: #000000; stroke-width: 0.5"/>
      </g>
     </g>
    </g>
    <g id="ytick_37">
     <g id="line2d_123">
      <g>
       <use xlink:href="#m703b748095" x="37.496314" y="13.605842" style="stroke: #000000; stroke-width: 0.5"/>
      </g>
     </g>
     <g id="line2d_124">
      <g>
       <use xlink:href="#m7555381c55" x="595.496314" y="13.605842" style="stroke: #000000; stroke-width: 0.5"/>
      </g>
     </g>
    </g>
    <g id="ytick_38">
     <g id="line2d_125">
      <g>
       <use xlink:href="#m703b748095" x="37.496314" y="4.770366" style="stroke: #000000; stroke-width: 0.5"/>
      </g>
     </g>
     <g id="line2d_126">
      <g>
       <use xlink:href="#m7555381c55" x="595.496314" y="4.770366" style="stroke: #000000; stroke-width: 0.5"/>
      </g>
     </g>
    </g>
   </g>
   <g id="line2d_127">
    <path d="M 62.85995 139.622261 
L 64.74527 204.732888 
L 66.569773 116.663692 
L 68.455093 61.768593 
L 70.279597 141.930245 
L 72.164917 144.41284 
L 74.050237 138.875739 
L 75.87474 226.160987 
L 77.76006 93.013524 
L 79.584563 77.101311 
L 81.469883 107.783981 
L 83.355203 123.281527 
L 85.058073 150.814926 
L 86.943393 77.987224 
L 88.767896 152.282994 
L 90.653216 145.988563 
L 92.47772 174.715202 
L 94.36304 221.506525 
L 96.24836 110.913447 
L 98.072863 164.047563 
L 99.958183 133.153515 
L 101.782686 64.233961 
L 103.668006 130.132018 
L 105.553327 122.919597 
L 107.256196 179.626125 
L 109.141516 109.555708 
L 110.96602 75.461766 
L 112.85134 75.173585 
L 114.675843 71.822831 
L 116.561163 115.580826 
L 118.446483 122.315091 
L 120.270986 93.320696 
L 122.156306 103.069139 
L 123.98081 110.181032 
L 127.75145 78.200434 
L 129.515136 111.214828 
L 131.400456 134.736098 
L 133.22496 112.288641 
L 135.11028 143.798707 
L 136.934783 95.932272 
L 138.820103 140.874566 
L 140.705423 133.246601 
L 142.529926 96.630629 
L 144.415246 119.987365 
L 146.23975 79.639672 
L 148.12507 97.043083 
L 150.01039 132.844447 
L 151.713259 106.109267 
L 153.598579 123.122163 
L 155.423083 142.454297 
L 157.308403 109.184441 
L 159.132906 101.837741 
L 161.018226 105.061465 
L 162.903546 118.165299 
L 164.728049 118.441561 
L 166.613369 144.452677 
L 168.437873 86.596461 
L 170.323193 102.168172 
L 172.208513 108.044562 
L 173.911383 121.069914 
L 175.796703 107.882324 
L 177.621206 113.893039 
L 179.506526 127.921114 
L 181.331029 145.231133 
L 183.216349 114.660857 
L 185.101669 100.963701 
L 186.926173 98.879073 
L 188.811493 89.547851 
L 190.635996 103.411439 
L 192.521316 102.130498 
L 194.406636 114.816568 
L 196.109506 106.918419 
L 197.994826 143.086793 
L 199.819329 84.729442 
L 201.704649 91.412943 
L 203.529152 117.850047 
L 205.414472 115.835224 
L 207.299792 158.889899 
L 209.124296 94.186651 
L 211.009616 94.876007 
L 212.834119 164.521028 
L 214.719439 110.125235 
L 216.604759 181.771788 
L 218.368446 135.075113 
L 220.253766 144.719573 
L 222.078269 84.42847 
L 223.963589 98.765826 
L 225.788092 159.53926 
L 227.673412 176.718968 
L 229.558732 102.828747 
L 231.383236 165.275735 
L 233.268556 321.12 
L 235.093059 201.52554 
L 236.978379 125.131787 
L 238.863699 131.77638 
L 240.566569 183.487173 
L 242.451889 174.051883 
L 244.276392 19.328988 
L 246.161712 64.841481 
L 247.986216 96.716875 
L 249.871536 110.425575 
L 251.756856 52.468597 
L 253.581359 89.67646 
L 255.466679 100.296733 
L 257.291182 102.900566 
L 259.176502 101.698351 
L 261.061822 109.190037 
L 262.764692 147.121598 
L 264.650012 70.032542 
L 266.474515 85.577189 
L 268.359835 174.631823 
L 270.184339 153.002301 
L 272.069659 122.539736 
L 273.954979 113.532136 
L 275.779482 91.795438 
L 277.664802 81.489546 
L 279.489305 99.272086 
L 281.374625 88.753013 
L 283.259946 90.862916 
L 284.962815 93.500632 
L 286.848135 130.82407 
L 288.672639 101.517523 
L 290.557959 115.130773 
L 292.382462 153.973626 
L 294.267782 93.993995 
L 296.153102 218.192613 
L 297.977605 128.19299 
L 299.862925 94.887189 
L 301.687429 105.689913 
L 303.572749 107.53944 
L 305.458069 79.849736 
L 307.221755 85.052134 
L 309.107075 95.944086 
L 312.816899 148.890383 
L 314.641402 131.428941 
L 316.526722 95.724265 
L 318.412042 91.702111 
L 320.236545 94.81994 
L 322.121865 123.066097 
L 323.946369 146.654837 
L 325.831689 102.203445 
L 327.717009 84.250709 
L 329.419878 100.789051 
L 331.305198 97.408574 
L 333.129702 108.383013 
L 335.015022 81.570712 
L 336.839525 131.057656 
L 338.724845 92.801488 
L 340.610165 118.885289 
L 344.319988 102.588659 
L 346.144492 87.595513 
L 348.029812 107.704173 
L 349.915132 112.5342 
L 351.618002 122.214658 
L 353.503322 97.314582 
L 355.327825 119.280768 
L 357.213145 107.623313 
L 359.037648 93.230425 
L 360.922968 107.906912 
L 362.808288 124.82781 
L 364.632792 105.466821 
L 366.518112 144.792049 
L 368.342615 72.001505 
L 370.227935 115.449673 
L 372.113255 130.924806 
L 373.816125 96.406455 
L 375.701445 120.569828 
L 377.525948 113.337479 
L 379.411268 112.456942 
L 381.235771 124.939698 
L 383.121091 121.801744 
L 386.830915 161.977772 
L 388.716235 83.832608 
L 390.540738 95.607843 
L 392.426058 130.974419 
L 394.311378 179.918042 
L 397.960385 66.720401 
L 399.784888 96.518859 
L 401.670208 123.894516 
L 403.494711 111.821165 
L 405.380031 92.489197 
L 407.265351 110.611613 
L 409.089855 125.044744 
L 410.975175 125.659252 
L 412.799678 110.619638 
L 414.684998 86.926532 
L 416.570318 108.497543 
L 418.273188 98.605911 
L 420.158508 105.744268 
L 421.983011 122.439537 
L 423.868331 106.236835 
L 425.692835 105.492558 
L 429.463475 118.868621 
L 431.287978 106.555897 
L 433.173298 97.178777 
L 434.997801 107.071013 
L 436.883121 95.859136 
L 438.768441 78.976404 
L 440.471311 146.852637 
L 442.356631 120.412509 
L 444.181134 135.843466 
L 446.066454 103.838176 
L 447.890958 102.510161 
L 449.776278 107.117051 
L 451.661598 99.562926 
L 453.486101 106.229242 
L 455.371421 155.693384 
L 457.195924 139.59474 
L 459.081244 171.725534 
L 460.966565 105.944462 
L 462.669434 71.0215 
L 464.554754 104.016429 
L 466.379258 88.724716 
L 468.264578 134.696006 
L 470.089081 108.724103 
L 471.974401 87.823247 
L 473.859721 149.202411 
L 475.684224 94.186389 
L 477.569544 120.95869 
L 479.394048 82.665261 
L 481.279368 99.419913 
L 483.164688 91.855599 
L 484.928374 119.871095 
L 486.813694 306.556434 
L 488.638198 83.862367 
L 490.523518 70.589653 
L 492.348021 65.33513 
L 494.233341 90.806304 
L 496.118661 70.324938 
L 497.943164 126.481456 
L 501.652988 86.584223 
L 503.538308 83.935623 
L 505.423628 96.402988 
L 507.126497 98.98767 
L 509.011817 113.492638 
L 510.836321 68.993235 
L 512.721641 113.958874 
L 514.546144 104.781971 
L 516.431464 93.905915 
L 518.316784 101.49618 
L 520.141287 121.351647 
L 522.026607 116.622888 
L 523.851111 79.613907 
L 525.736431 118.234459 
L 527.621751 138.921861 
L 529.324621 146.667295 
L 531.209941 128.583029 
L 533.034444 119.625359 
L 534.919764 193.222765 
L 536.744267 151.110026 
L 538.629587 116.739549 
L 540.514907 65.567286 
L 542.339411 187.630493 
L 544.224731 148.66438 
L 546.049234 75.364201 
L 547.934554 120.784273 
L 549.819874 108.79602 
L 551.522744 93.469779 
L 553.408064 144.032156 
L 555.232567 86.228004 
L 557.117887 114.351007 
L 558.94239 78.17039 
L 560.82771 87.153425 
L 562.71303 129.627988 
L 564.537534 129.250662 
L 566.422854 148.078196 
L 568.247357 81.029844 
L 570.132677 76.148693 
L 570.132677 76.148693 
" clip-path="url(#p6c199ca1f2)" style="fill: none; stroke-dasharray: 3.7,1.6; stroke-dashoffset: 0; stroke: #000000"/>
   </g>
   <g id="line2d_128">
    <path d="M 62.85995 109.407343 
L 64.74527 112.890602 
L 66.569773 119.689911 
L 68.455093 115.304753 
L 70.279597 95.089928 
L 72.164917 108.261356 
L 74.050237 116.477752 
L 75.87474 110.754289 
L 77.76006 132.793547 
L 79.584563 108.286433 
L 81.469883 110.203182 
L 83.355203 120.977551 
L 85.058073 119.922732 
L 86.943393 122.41076 
L 88.767896 116.115979 
L 90.653216 121.450426 
L 94.36304 120.72592 
L 96.24836 129.560591 
L 98.072863 108.913262 
L 99.958183 117.025093 
L 101.782686 118.314551 
L 103.668006 105.373954 
L 105.553327 116.446545 
L 107.256196 117.764747 
L 109.141516 123.628708 
L 110.96602 113.718157 
L 112.85134 114.552883 
L 114.675843 103.270225 
L 116.561163 102.872211 
L 118.446483 129.733769 
L 120.270986 123.592931 
L 122.156306 109.115812 
L 123.98081 114.90708 
L 125.86613 115.29188 
L 127.75145 112.077057 
L 129.515136 105.343156 
L 131.400456 112.62048 
L 133.22496 111.359719 
L 135.11028 121.282306 
L 136.934783 122.941441 
L 138.820103 110.871674 
L 140.705423 113.070102 
L 142.529926 111.651489 
L 144.415246 106.798475 
L 146.23975 114.287805 
L 148.12507 108.093315 
L 150.01039 110.400555 
L 151.713259 116.301049 
L 153.598579 111.176171 
L 155.423083 120.336424 
L 157.308403 114.899334 
L 159.132906 108.886597 
L 161.018226 108.393477 
L 162.903546 115.806152 
L 164.728049 115.857532 
L 166.613369 113.333606 
L 168.437873 121.74812 
L 170.323193 110.028407 
L 172.208513 110.003427 
L 173.911383 111.665004 
L 175.796703 117.00806 
L 177.621206 114.801529 
L 179.506526 117.406447 
L 181.331029 115.977438 
L 183.216349 116.989073 
L 185.101669 113.771351 
L 186.926173 107.781007 
L 188.811493 107.956727 
L 190.635996 109.037755 
L 192.521316 109.077347 
L 194.406636 110.340369 
L 196.109506 117.361901 
L 197.994826 111.392332 
L 199.819329 114.490276 
L 201.704649 110.750833 
L 203.529152 110.049529 
L 205.414472 118.822872 
L 207.299792 111.331114 
L 209.124296 112.378296 
L 211.009616 107.586114 
L 212.834119 111.495468 
L 214.719439 111.280414 
L 216.604759 114.274015 
L 218.368446 111.884313 
L 220.253766 116.932398 
L 222.078269 112.253222 
L 223.963589 116.339266 
L 225.788092 116.959659 
L 227.673412 121.207382 
L 229.558732 118.733598 
L 231.383236 111.990029 
L 233.268556 115.157311 
L 235.093059 123.186103 
L 236.978379 246.890238 
L 238.863699 116.895354 
L 240.566569 156.869987 
L 242.451889 172.931758 
L 244.276392 137.145598 
L 246.161712 114.958817 
L 247.986216 135.165615 
L 249.871536 102.550372 
L 251.756856 113.47392 
L 253.581359 111.516849 
L 255.466679 111.214818 
L 257.291182 98.924717 
L 259.176502 88.659287 
L 261.061822 96.932721 
L 262.764692 127.296824 
L 266.474515 106.828748 
L 270.184339 116.582137 
L 272.069659 116.152442 
L 273.954979 112.064427 
L 275.779482 107.04422 
L 277.664802 111.580936 
L 279.489305 105.302535 
L 281.374625 119.205663 
L 283.259946 119.922074 
L 284.962815 106.806663 
L 286.848135 114.776634 
L 288.672639 112.23133 
L 290.557959 112.667453 
L 292.382462 107.760536 
L 294.267782 117.246955 
L 296.153102 109.805935 
L 297.977605 116.043585 
L 299.862925 109.837018 
L 301.687429 118.992473 
L 303.572749 106.186072 
L 305.458069 111.900946 
L 307.221755 106.225978 
L 309.107075 108.535932 
L 310.931579 119.301436 
L 312.816899 109.273046 
L 314.641402 110.869942 
L 316.526722 109.967782 
L 318.412042 107.551826 
L 320.236545 118.001256 
L 322.121865 108.98249 
L 323.946369 117.176007 
L 327.717009 114.006239 
L 329.419878 116.279872 
L 331.305198 111.109449 
L 333.129702 110.059497 
L 335.015022 106.517591 
L 336.839525 115.026831 
L 338.724845 124.736279 
L 340.610165 109.081804 
L 342.434668 114.386652 
L 344.319988 113.938456 
L 346.144492 107.324353 
L 348.029812 114.021947 
L 349.915132 117.156613 
L 351.618002 112.68857 
L 353.503322 111.284089 
L 355.327825 111.271949 
L 357.213145 114.876801 
L 359.037648 108.667959 
L 360.922968 112.07753 
L 362.808288 110.466204 
L 364.632792 112.119702 
L 366.518112 115.389151 
L 368.342615 112.406727 
L 370.227935 108.320178 
L 372.113255 109.34141 
L 373.816125 106.826777 
L 375.701445 116.239789 
L 377.525948 116.106925 
L 379.411268 110.13927 
L 381.235771 121.368032 
L 383.121091 114.517906 
L 385.006411 112.72191 
L 386.830915 113.420723 
L 388.716235 121.996234 
L 390.540738 105.340783 
L 392.426058 118.012523 
L 394.311378 114.863611 
L 396.075065 121.307615 
L 397.960385 106.211325 
L 399.784888 112.064393 
L 401.670208 106.623486 
L 403.494711 116.514057 
L 405.380031 107.408815 
L 407.265351 103.757202 
L 409.089855 118.49451 
L 410.975175 119.269875 
L 412.799678 119.273136 
L 414.684998 120.214619 
L 416.570318 111.646985 
L 418.273188 110.416595 
L 420.158508 111.658677 
L 421.983011 115.075939 
L 423.868331 110.807248 
L 425.692835 113.087821 
L 427.578155 108.625505 
L 429.463475 118.742875 
L 431.287978 111.525783 
L 433.173298 112.537413 
L 434.997801 116.658375 
L 436.883121 112.505801 
L 438.768441 112.412614 
L 440.471311 113.110306 
L 442.356631 123.196017 
L 444.181134 112.487968 
L 446.066454 117.78481 
L 447.890958 113.273675 
L 449.776278 110.043552 
L 451.661598 112.67483 
L 453.486101 111.576182 
L 455.371421 115.787448 
L 457.195924 123.182469 
L 459.081244 116.812225 
L 460.966565 117.448249 
L 462.669434 108.590052 
L 464.554754 103.488424 
L 466.379258 108.606774 
L 468.264578 107.445681 
L 470.089081 113.256362 
L 471.974401 102.775315 
L 473.859721 96.58987 
L 475.684224 119.622416 
L 477.569544 111.299759 
L 479.394048 116.172718 
L 481.279368 112.037047 
L 483.164688 112.737917 
L 484.928374 109.865751 
L 486.813694 112.19038 
L 488.638198 131.958802 
L 490.523518 99.175545 
L 492.348021 113.220745 
L 494.233341 113.061091 
L 496.118661 104.743667 
L 497.943164 108.288741 
L 499.828484 119.938759 
L 501.652988 118.764672 
L 503.538308 109.332766 
L 505.423628 109.196351 
L 507.126497 114.08298 
L 509.011817 111.379074 
L 510.836321 116.483861 
L 512.721641 105.163825 
L 514.546144 112.82517 
L 516.431464 109.197153 
L 518.316784 105.000312 
L 520.141287 110.37569 
L 522.026607 118.39265 
L 523.851111 114.978771 
L 525.736431 106.447793 
L 527.621751 112.477555 
L 529.324621 119.3577 
L 531.209941 116.815771 
L 533.034444 116.488123 
L 534.919764 118.657676 
L 536.744267 121.517839 
L 538.629587 118.584422 
L 542.339411 104.822771 
L 544.224731 131.364426 
L 546.049234 119.535798 
L 547.934554 104.92881 
L 549.819874 113.05835 
L 551.522744 110.417363 
L 553.408064 114.928693 
L 555.232567 116.788936 
L 557.117887 105.106835 
L 558.94239 117.939401 
L 560.82771 110.454042 
L 562.71303 111.095984 
L 564.537534 120.816461 
L 566.422854 117.934914 
L 568.247357 121.370551 
L 570.132677 104.997852 
L 570.132677 104.997852 
" clip-path="url(#p6c199ca1f2)" style="fill: none; stroke: #00ffff; stroke-linecap: square"/>
   </g>
   <g id="patch_3">
    <path d="M 37.496314 336.24 
L 37.496314 3.6 
" style="fill: none; stroke: #000000; stroke-width: 0.5; stroke-linejoin: miter; stroke-linecap: square"/>
   </g>
   <g id="patch_4">
    <path d="M 595.496314 336.24 
L 595.496314 3.6 
" style="fill: none; stroke: #000000; stroke-width: 0.5; stroke-linejoin: miter; stroke-linecap: square"/>
   </g>
   <g id="patch_5">
    <path d="M 37.496314 336.24 
L 595.496314 336.24 
" style="fill: none; stroke: #000000; stroke-width: 0.5; stroke-linejoin: miter; stroke-linecap: square"/>
   </g>
   <g id="patch_6">
    <path d="M 37.496314 3.6 
L 595.496314 3.6 
" style="fill: none; stroke: #000000; stroke-width: 0.5; stroke-linejoin: miter; stroke-linecap: square"/>
   </g>
   <g id="legend_1">
    <g id="line2d_129">
     <path d="M 48.296314 285.466213 
L 60.296314 285.466213 
L 72.296314 285.466213 
" style="fill: none; stroke-dasharray: 3.7,1.6; stroke-dashoffset: 0; stroke: #000000"/>
    </g>
    <g id="text_14">
     <!-- rendimenti SP 500 -->
     <g transform="translate(81.896314 289.666213) scale(0.12 -0.12)">
      <defs>
       <path id="CMR17-72" d="M 960 1517 
C 960 2134 1222 2713 1702 2713 
C 1747 2713 1792 2707 1837 2687 
C 1837 2687 1696 2642 1696 2475 
C 1696 2321 1818 2257 1914 2257 
C 1990 2257 2131 2302 2131 2482 
C 2131 2687 1926 2816 1709 2816 
C 1222 2816 1011 2340 947 2115 
L 941 2115 
L 941 2816 
L 198 2745 
L 198 2578 
C 576 2578 634 2540 634 2231 
L 634 443 
C 634 198 608 166 198 166 
L 198 0 
C 352 12 646 12 813 12 
C 998 12 1325 12 1498 0 
L 1498 166 
C 1037 166 960 166 960 455 
L 960 1517 
z
" transform="scale(0.015625)"/>
       <path id="CMR17-65" d="M 2438 1503 
C 2464 1529 2464 1542 2464 1606 
C 2464 2251 2118 2816 1389 2816 
C 710 2816 173 2175 173 1394 
C 173 554 781 -64 1459 -64 
C 2176 -64 2458 619 2458 755 
C 2458 800 2419 800 2406 800 
C 2362 800 2355 787 2330 709 
C 2189 270 1837 51 1504 51 
C 1229 51 954 206 781 490 
C 582 819 582 1200 582 1503 
L 2438 1503 
z
M 589 1600 
C 634 2511 1126 2713 1382 2713 
C 1818 2713 2112 2308 2118 1600 
L 589 1600 
z
" transform="scale(0.015625)"/>
       <path id="CMR17-6e" d="M 2656 1954 
C 2656 2282 2592 2816 1837 2816 
C 1331 2816 1069 2424 973 2166 
L 966 2166 
L 966 2816 
L 211 2745 
L 211 2578 
C 589 2578 646 2540 646 2231 
L 646 443 
C 646 198 621 166 211 166 
L 211 0 
C 365 12 646 12 813 12 
C 979 12 1267 12 1421 0 
L 1421 166 
C 1011 166 986 192 986 443 
L 986 1678 
C 986 2269 1344 2713 1792 2713 
C 2266 2713 2317 2289 2317 1980 
L 2317 443 
C 2317 198 2291 166 1882 166 
L 1882 0 
C 2035 12 2317 12 2483 12 
C 2650 12 2938 12 3091 0 
L 3091 166 
C 2682 166 2656 192 2656 443 
L 2656 1954 
z
" transform="scale(0.015625)"/>
       <path id="CMR17-64" d="M 1869 4345 
L 1869 4179 
C 2246 4179 2304 4141 2304 3843 
L 2304 2371 
C 2278 2403 2016 2816 1498 2816 
C 845 2816 211 2228 211 1376 
C 211 529 806 -64 1434 -64 
C 1978 -64 2259 361 2291 406 
L 2291 -64 
L 3066 -13 
L 3066 154 
C 2688 154 2630 193 2630 503 
L 2630 4416 
L 1869 4345 
z
M 2291 762 
C 2291 568 2176 393 2029 264 
C 1811 70 1594 38 1472 38 
C 1286 38 621 135 621 1369 
C 621 2636 1363 2713 1530 2713 
C 1824 2713 2061 2545 2208 2313 
C 2291 2177 2291 2157 2291 2041 
L 2291 762 
z
" transform="scale(0.015625)"/>
       <path id="CMR17-69" d="M 992 3961 
C 992 4102 877 4224 730 4224 
C 589 4224 467 4108 467 3961 
C 467 3820 582 3699 730 3699 
C 870 3699 992 3814 992 3961 
z
M 243 2745 
L 243 2579 
C 602 2579 653 2540 653 2231 
L 653 443 
C 653 198 627 166 218 166 
L 218 0 
C 371 12 646 12 806 12 
C 960 12 1222 12 1370 0 
L 1370 166 
C 992 166 979 205 979 436 
L 979 2816 
L 243 2745 
z
" transform="scale(0.015625)"/>
       <path id="CMR17-6d" d="M 4326 1954 
C 4326 2276 4269 2816 3507 2816 
C 3072 2816 2771 2520 2656 2173 
L 2650 2173 
C 2573 2700 2195 2816 1837 2816 
C 1331 2816 1069 2424 973 2166 
L 966 2166 
L 966 2816 
L 211 2745 
L 211 2578 
C 589 2578 646 2540 646 2231 
L 646 443 
C 646 198 621 166 211 166 
L 211 0 
C 365 12 646 12 813 12 
C 979 12 1267 12 1421 0 
L 1421 166 
C 1011 166 986 192 986 443 
L 986 1678 
C 986 2269 1344 2713 1792 2713 
C 2266 2713 2317 2289 2317 1980 
L 2317 443 
C 2317 198 2291 166 1882 166 
L 1882 0 
C 2035 12 2317 12 2483 12 
C 2650 12 2938 12 3091 0 
L 3091 166 
C 2682 166 2656 192 2656 443 
L 2656 1678 
C 2656 2269 3014 2713 3462 2713 
C 3936 2713 3987 2289 3987 1980 
L 3987 443 
C 3987 198 3962 166 3552 166 
L 3552 0 
C 3706 12 3987 12 4154 12 
C 4320 12 4608 12 4762 0 
L 4762 166 
C 4352 166 4326 192 4326 443 
L 4326 1954 
z
" transform="scale(0.015625)"/>
       <path id="CMR17-74" d="M 966 2585 
L 1862 2585 
L 1862 2752 
L 966 2752 
L 966 3968 
L 851 3968 
C 838 3292 614 2700 70 2687 
L 70 2585 
L 627 2585 
L 627 778 
C 627 655 627 -64 1370 -64 
C 1747 -64 1965 308 1965 784 
L 1965 1151 
L 1850 1151 
L 1850 790 
C 1850 347 1677 51 1408 51 
C 1222 51 966 179 966 765 
L 966 2585 
z
" transform="scale(0.015625)"/>
       <path id="CMR17-53" d="M 2803 4351 
C 2803 4467 2797 4473 2758 4473 
C 2720 4473 2707 4447 2682 4390 
L 2490 3965 
C 2246 4320 1875 4480 1472 4480 
C 819 4480 294 3958 294 3301 
C 294 3101 339 2817 557 2546 
C 794 2250 1018 2198 1530 2063 
C 1722 2011 2042 1927 2106 1901 
C 2470 1747 2662 1360 2662 999 
C 2662 534 2336 38 1779 38 
C 1094 38 454 425 410 1328 
C 403 1431 397 1437 352 1437 
C 301 1437 294 1431 294 1302 
L 294 0 
C 294 -116 301 -122 339 -122 
C 384 -122 397 -90 486 109 
C 493 128 493 141 614 386 
C 934 -39 1472 -128 1779 -128 
C 2477 -128 2970 457 2970 1141 
C 2970 1476 2848 1734 2778 1850 
C 2509 2263 2221 2340 1914 2417 
C 1869 2437 1856 2437 1498 2527 
C 1152 2617 1005 2662 845 2836 
C 666 3036 602 3243 602 3449 
C 602 3868 934 4326 1478 4326 
C 2157 4326 2579 3842 2675 3036 
C 2694 2920 2701 2914 2746 2914 
C 2803 2914 2803 2933 2803 3043 
L 2803 4351 
z
" transform="scale(0.015625)"/>
       <path id="CMR17-50" d="M 1267 2048 
L 2291 2048 
C 3117 2048 3718 2583 3718 3187 
C 3718 3791 3130 4352 2291 4352 
L 333 4352 
L 333 4185 
C 774 4185 845 4185 845 3899 
L 845 453 
C 845 166 774 166 333 166 
L 333 0 
C 518 12 858 12 1056 12 
C 1254 12 1594 12 1779 0 
L 1779 166 
C 1338 166 1267 166 1267 453 
L 1267 2048 
z
M 1254 2182 
L 1254 3937 
C 1254 4153 1267 4185 1523 4185 
L 2170 4185 
C 2995 4185 3232 3715 3232 3187 
C 3232 2608 2950 2182 2170 2182 
L 1254 2182 
z
" transform="scale(0.015625)"/>
      </defs>
      <use xlink:href="#CMR17-72" transform="scale(0.996264)"/>
      <use xlink:href="#CMR17-65" transform="translate(35.280768 0) scale(0.996264)"/>
      <use xlink:href="#CMR17-6e" transform="translate(75.766428 0) scale(0.996264)"/>
      <use xlink:href="#CMR17-64" transform="translate(126.661798 0) scale(0.996264)"/>
      <use xlink:href="#CMR17-69" transform="translate(177.557168 0) scale(0.996264)"/>
      <use xlink:href="#CMR17-6d" transform="translate(202.428226 0) scale(0.996264)"/>
      <use xlink:href="#CMR17-65" transform="translate(279.347816 0) scale(0.996264)"/>
      <use xlink:href="#CMR17-6e" transform="translate(319.833477 0) scale(0.996264)"/>
      <use xlink:href="#CMR17-74" transform="translate(368.126392 0) scale(0.996264)"/>
      <use xlink:href="#CMR17-69" transform="translate(403.40716 0) scale(0.996264)"/>
      <use xlink:href="#CMR17-53" transform="translate(458.354185 0) scale(0.996264)"/>
      <use xlink:href="#CMR17-50" transform="translate(509.249555 0) scale(0.996264)"/>
      <use xlink:href="#CMR17-35" transform="translate(601.911822 0) scale(0.996264)"/>
      <use xlink:href="#CMR17-30" transform="translate(647.602299 0) scale(0.996264)"/>
      <use xlink:href="#CMR17-30" transform="translate(693.292776 0) scale(0.996264)"/>
     </g>
    </g>
    <g id="line2d_130">
     <path d="M 48.296314 302.190808 
L 60.296314 302.190808 
L 72.296314 302.190808 
" style="fill: none; stroke: #00ffff; stroke-linecap: square"/>
    </g>
    <g id="text_15">
     <!-- forecast media semplice -->
     <g transform="translate(81.896314 306.390808) scale(0.12 -0.12)">
      <defs>
       <path id="CMR17-66" d="M 979 2585 
L 1709 2585 
L 1709 2752 
L 966 2752 
L 966 3539 
C 966 4076 1235 4377 1510 4377 
C 1594 4377 1690 4363 1754 4339 
C 1702 4326 1568 4281 1568 4121 
C 1568 3955 1696 3904 1786 3904 
C 1875 3904 2003 3955 2003 4121 
C 2003 4353 1773 4480 1517 4480 
C 1152 4480 653 4211 653 3526 
L 653 2752 
L 141 2752 
L 141 2585 
L 653 2585 
L 653 441 
C 653 198 627 166 218 166 
L 218 0 
C 371 12 666 12 832 12 
C 1018 12 1344 12 1517 0 
L 1517 166 
C 1056 166 979 166 979 454 
L 979 2585 
z
" transform="scale(0.015625)"/>
       <path id="CMR17-6f" d="M 2758 1356 
C 2758 2176 2163 2816 1466 2816 
C 768 2816 173 2176 173 1356 
C 173 550 768 -64 1466 -64 
C 2163 -64 2758 550 2758 1356 
z
M 1466 51 
C 1165 51 909 230 762 480 
C 602 768 582 1126 582 1408 
C 582 1676 595 2009 762 2297 
C 890 2508 1139 2713 1466 2713 
C 1754 2713 1997 2553 2150 2329 
C 2349 2028 2349 1606 2349 1408 
C 2349 1158 2336 774 2163 467 
C 1984 172 1709 51 1466 51 
z
" transform="scale(0.015625)"/>
       <path id="CMR17-63" d="M 2234 2240 
C 2112 2240 1933 2240 1933 2015 
C 1933 1836 2080 1785 2163 1785 
C 2208 1785 2394 1804 2394 2028 
C 2394 2476 1958 2816 1466 2816 
C 787 2816 211 2201 211 1379 
C 211 521 813 -64 1466 -64 
C 2259 -64 2458 676 2458 747 
C 2458 773 2451 792 2406 792 
C 2362 792 2355 786 2330 702 
C 2163 180 1798 51 1523 51 
C 1114 51 621 431 621 1385 
C 621 2358 1094 2700 1472 2700 
C 1722 2700 2093 2582 2234 2240 
z
" transform="scale(0.015625)"/>
       <path id="CMR17-61" d="M 2304 1656 
C 2304 2048 2304 2275 2035 2534 
C 1798 2751 1523 2816 1306 2816 
C 800 2816 435 2408 435 1977 
C 435 1740 627 1728 666 1728 
C 749 1728 896 1779 896 1958 
C 896 2118 774 2188 666 2188 
C 640 2188 608 2182 589 2176 
C 723 2594 1069 2713 1293 2713 
C 1613 2713 1965 2421 1965 1875 
L 1965 1632 
C 1587 1619 1133 1568 774 1373 
C 371 1147 256 822 256 576 
C 256 77 832 -64 1171 -64 
C 1523 -64 1850 135 1990 505 
C 2003 219 2182 -39 2464 -39 
C 2598 -39 2938 51 2938 563 
L 2938 926 
L 2822 926 
L 2822 557 
C 2822 161 2650 109 2566 109 
C 2304 109 2304 446 2304 732 
L 2304 1656 
z
M 1965 887 
C 1965 323 1568 38 1216 38 
C 896 38 646 278 646 576 
C 646 771 730 1114 1101 1322 
C 1408 1497 1760 1523 1965 1536 
L 1965 887 
z
" transform="scale(0.015625)"/>
       <path id="CMR17-73" d="M 1978 2688 
C 1978 2803 1971 2809 1933 2809 
C 1907 2809 1901 2803 1824 2707 
C 1805 2681 1747 2617 1728 2592 
C 1523 2809 1235 2816 1126 2816 
C 416 2816 160 2444 160 2073 
C 160 1497 813 1363 998 1324 
C 1402 1241 1542 1216 1677 1100 
C 1760 1024 1901 883 1901 652 
C 1901 384 1747 38 1158 38 
C 602 38 403 460 288 1024 
C 269 1113 269 1120 218 1120 
C 166 1120 160 1113 160 985 
L 160 64 
C 160 -52 166 -58 205 -58 
C 237 -58 243 -52 275 0 
C 314 57 410 211 448 275 
C 576 102 800 -64 1158 -64 
C 1792 -64 2131 281 2131 780 
C 2131 1107 1958 1280 1875 1356 
C 1683 1555 1459 1600 1190 1651 
C 838 1728 390 1817 390 2208 
C 390 2374 480 2726 1126 2726 
C 1811 2726 1850 2086 1862 1881 
C 1869 1849 1901 1843 1920 1843 
C 1978 1843 1978 1862 1978 1971 
L 1978 2688 
z
" transform="scale(0.015625)"/>
       <path id="CMR17-70" d="M 1408 -1114 
C 998 -1114 973 -1088 973 -834 
L 973 380 
C 1158 109 1427 -64 1766 -64 
C 2406 -64 3053 503 3053 1382 
C 3053 2196 2496 2816 1837 2816 
C 1453 2816 1139 2603 960 2345 
L 960 2816 
L 198 2745 
L 198 2577 
C 576 2577 634 2539 634 2228 
L 634 -834 
C 634 -1081 608 -1114 198 -1114 
L 198 -1280 
C 352 -1268 634 -1268 800 -1268 
C 966 -1268 1254 -1268 1408 -1280 
L 1408 -1114 
z
M 973 2015 
C 973 2106 973 2241 1222 2481 
C 1254 2506 1472 2700 1792 2700 
C 2259 2700 2643 2112 2643 1376 
C 2643 639 2234 38 1728 38 
C 1498 38 1248 148 1056 451 
C 973 594 973 632 973 736 
L 973 2015 
z
" transform="scale(0.015625)"/>
       <path id="CMR17-6c" d="M 979 4416 
L 218 4345 
L 218 4179 
C 595 4179 653 4141 653 3835 
L 653 439 
C 653 198 627 166 218 166 
L 218 0 
C 371 12 653 12 813 12 
C 979 12 1261 12 1414 0 
L 1414 166 
C 1005 166 979 191 979 439 
L 979 4416 
z
" transform="scale(0.015625)"/>
      </defs>
      <use xlink:href="#CMR17-66" transform="scale(0.996264)"/>
      <use xlink:href="#CMR17-6f" transform="translate(27.473512 0) scale(0.996264)"/>
      <use xlink:href="#CMR17-72" transform="translate(73.16399 0) scale(0.996264)"/>
      <use xlink:href="#CMR17-65" transform="translate(108.444757 0) scale(0.996264)"/>
      <use xlink:href="#CMR17-63" transform="translate(148.930418 0) scale(0.996264)"/>
      <use xlink:href="#CMR17-61" transform="translate(189.416078 0) scale(0.996264)"/>
      <use xlink:href="#CMR17-73" transform="translate(235.106555 0) scale(0.996264)"/>
      <use xlink:href="#CMR17-74" transform="translate(270.907893 0) scale(0.996264)"/>
      <use xlink:href="#CMR17-6d" transform="translate(336.264627 0) scale(0.996264)"/>
      <use xlink:href="#CMR17-65" transform="translate(413.184217 0) scale(0.996264)"/>
      <use xlink:href="#CMR17-64" transform="translate(453.669877 0) scale(0.996264)"/>
      <use xlink:href="#CMR17-69" transform="translate(504.565247 0) scale(0.996264)"/>
      <use xlink:href="#CMR17-61" transform="translate(529.436306 0) scale(0.996264)"/>
      <use xlink:href="#CMR17-73" transform="translate(605.202749 0) scale(0.996264)"/>
      <use xlink:href="#CMR17-65" transform="translate(641.004087 0) scale(0.996264)"/>
      <use xlink:href="#CMR17-6d" transform="translate(681.489747 0) scale(0.996264)"/>
      <use xlink:href="#CMR17-70" transform="translate(758.409337 0) scale(0.996264)"/>
      <use xlink:href="#CMR17-6c" transform="translate(809.304707 0) scale(0.996264)"/>
      <use xlink:href="#CMR17-69" transform="translate(834.175765 0) scale(0.996264)"/>
      <use xlink:href="#CMR17-63" transform="translate(859.046824 0) scale(0.996264)"/>
      <use xlink:href="#CMR17-65" transform="translate(899.532484 0) scale(0.996264)"/>
     </g>
    </g>
    <g id="patch_7">
     <path d="M 48.296314 323.115404 
L 72.296314 323.115404 
L 72.296314 314.715404 
L 48.296314 314.715404 
z
" style="fill: #808080; fill-opacity: 0.3; stroke: #808080; stroke-opacity: 0.3; stroke-linejoin: miter"/>
    </g>
    <g id="text_16">
     <!-- 99 perc. CI -->
     <g transform="translate(81.896314 323.115404) scale(0.12 -0.12)">
      <defs>
       <path id="CMR17-39" d="M 2253 1871 
C 2253 448 1670 25 1190 25 
C 1043 25 685 43 538 281 
C 704 256 826 345 826 505 
C 826 678 685 736 595 736 
C 538 736 365 710 365 492 
C 365 68 742 -128 1203 -128 
C 1939 -128 2688 665 2688 2090 
C 2688 3857 1971 4224 1485 4224 
C 851 4224 243 3664 243 2800 
C 243 2000 762 1408 1414 1408 
C 1952 1408 2189 1910 2253 2122 
L 2253 1871 
z
M 1427 1510 
C 1254 1510 1011 1542 813 1929 
C 678 2181 678 2477 678 2793 
C 678 3174 678 3438 858 3722 
C 947 3857 1114 4076 1485 4076 
C 2240 4076 2240 2909 2240 2651 
C 2240 2193 2035 1510 1427 1510 
z
" transform="scale(0.015625)"/>
       <path id="CMR17-2e" d="M 1062 262 
C 1062 422 934 524 800 524 
C 672 524 538 422 538 262 
C 538 102 666 0 800 0 
C 928 0 1062 102 1062 262 
z
" transform="scale(0.015625)"/>
       <path id="CMR17-43" d="M 3974 4351 
C 3974 4467 3968 4473 3930 4473 
C 3904 4473 3898 4467 3853 4390 
L 3571 3849 
C 3258 4249 2874 4480 2381 4480 
C 1286 4480 294 3507 294 2179 
C 294 837 1286 -128 2387 -128 
C 3366 -128 3974 741 3974 1482 
C 3974 1547 3974 1573 3917 1573 
C 3866 1573 3866 1553 3859 1495 
C 3808 592 3168 38 2477 38 
C 1824 38 781 502 781 2179 
C 781 3862 1843 4313 2464 4313 
C 3187 4313 3712 3681 3834 2785 
C 3846 2707 3846 2695 3904 2695 
C 3974 2695 3974 2707 3974 2824 
L 3974 4351 
z
" transform="scale(0.015625)"/>
       <path id="CMR17-49" d="M 1261 3898 
C 1261 4185 1338 4185 1798 4185 
L 1798 4352 
C 1594 4339 1267 4339 1050 4339 
C 832 4339 506 4339 301 4352 
L 301 4185 
C 762 4185 838 4185 838 3898 
L 838 453 
C 838 166 762 166 301 166 
L 301 0 
C 506 12 832 12 1050 12 
C 1267 12 1594 12 1798 0 
L 1798 166 
C 1338 166 1261 166 1261 453 
L 1261 3898 
z
" transform="scale(0.015625)"/>
      </defs>
      <use xlink:href="#CMR17-39" transform="scale(0.996264)"/>
      <use xlink:href="#CMR17-39" transform="translate(45.690477 0) scale(0.996264)"/>
      <use xlink:href="#CMR17-70" transform="translate(121.456921 0) scale(0.996264)"/>
      <use xlink:href="#CMR17-65" transform="translate(174.954729 0) scale(0.996264)"/>
      <use xlink:href="#CMR17-72" transform="translate(215.44039 0) scale(0.996264)"/>
      <use xlink:href="#CMR17-63" transform="translate(250.721157 0) scale(0.996264)"/>
      <use xlink:href="#CMR17-2e" transform="translate(291.206818 0) scale(0.996264)"/>
      <use xlink:href="#CMR17-43" transform="translate(356.563537 0) scale(0.996264)"/>
      <use xlink:href="#CMR17-49" transform="translate(423.073417 0) scale(0.996264)"/>
     </g>
    </g>
   </g>
  </g>
 </g>
 <defs>
  <clipPath id="p6c199ca1f2">
   <rect x="37.496314" y="3.6" width="558" height="332.64"/>
  </clipPath>
 </defs>
</svg>
