<?xml version="1.0" encoding="utf-8" standalone="no"?>
<!DOCTYPE svg PUBLIC "-//W3C//DTD SVG 1.1//EN"
  "http://www.w3.org/Graphics/SVG/1.1/DTD/svg11.dtd">
<svg xmlns:xlink="http://www.w3.org/1999/xlink" width="599.096314pt" height="359.281364pt" viewBox="0 0 599.096314 359.281364" xmlns="http://www.w3.org/2000/svg" version="1.1">
 <metadata>
  <rdf:RDF xmlns:dc="http://purl.org/dc/elements/1.1/" xmlns:cc="http://creativecommons.org/ns#" xmlns:rdf="http://www.w3.org/1999/02/22-rdf-syntax-ns#">
   <cc:Work>
    <dc:type rdf:resource="http://purl.org/dc/dcmitype/StillImage"/>
    <dc:date>2025-03-28T01:13:18.832549</dc:date>
    <dc:format>image/svg+xml</dc:format>
    <dc:creator>
     <cc:Agent>
      <dc:title>Matplotlib v3.9.2, https://matplotlib.org/</dc:title>
     </cc:Agent>
    </dc:creator>
   </cc:Work>
  </rdf:RDF>
 </metadata>
 <defs>
  <style type="text/css">*{stroke-linejoin: round; stroke-linecap: butt}</style>
 </defs>
 <g id="figure_1">
  <g id="patch_1">
   <path d="M 0 359.281364 
L 599.096314 359.281364 
L 599.096314 0 
L 0 0 
z
" style="fill: #ffffff"/>
  </g>
  <g id="axes_1">
   <g id="patch_2">
    <path d="M 37.496314 336.24 
L 595.496314 336.24 
L 595.496314 3.6 
L 37.496314 3.6 
z
" style="fill: #ffffff"/>
   </g>
   <g id="PolyCollection_1">
    <defs>
     <path id="m89e4956537" d="M 62.85995 -284.272183 
L 62.85995 -140.413766 
L 64.74527 -133.23331 
L 66.569773 -121.653923 
L 68.455093 -125.711778 
L 70.279597 -141.781379 
L 72.164917 -132.818321 
L 74.050237 -127.38654 
L 75.87474 -139.339242 
L 77.76006 -110.161741 
L 79.584563 -146.327268 
L 81.469883 -140.958275 
L 83.355203 -126.486956 
L 85.058073 -136.765704 
L 86.943393 -132.544345 
L 88.767896 -135.962353 
L 90.653216 -131.314636 
L 92.47772 -132.298553 
L 94.36304 -130.478295 
L 96.24836 -121.69849 
L 98.072863 -149.400957 
L 99.958183 -136.966996 
L 101.782686 -129.298774 
L 103.668006 -145.157856 
L 105.553327 -132.825178 
L 107.256196 -137.672811 
L 109.141516 -128.224028 
L 110.96602 -141.64378 
L 112.85134 -144.456411 
L 114.675843 -158.911271 
L 116.561163 -156.657394 
L 118.446483 -120.247968 
L 120.270986 -128.09708 
L 122.156306 -153.066243 
L 123.98081 -142.019243 
L 125.86613 -147.817202 
L 127.75145 -150.009731 
L 129.515136 -150.153178 
L 131.400456 -139.356505 
L 133.22496 -140.287965 
L 135.11028 -135.785635 
L 136.934783 -129.882864 
L 138.820103 -152.842739 
L 140.705423 -138.373969 
L 142.529926 -142.161889 
L 144.415246 -149.117436 
L 146.23975 -137.709826 
L 148.12507 -149.839188 
L 150.01039 -140.614658 
L 151.713259 -136.025287 
L 153.598579 -143.797878 
L 155.423083 -131.258377 
L 157.308403 -137.503874 
L 159.132906 -146.446555 
L 161.018226 -147.364906 
L 162.903546 -135.921514 
L 164.728049 -139.858956 
L 166.613369 -141.121897 
L 168.437873 -132.24034 
L 170.323193 -151.704584 
L 172.208513 -143.599218 
L 173.911383 -141.906905 
L 175.796703 -136.546158 
L 177.621206 -140.478322 
L 179.506526 -133.694265 
L 181.331029 -137.761644 
L 183.216349 -135.37415 
L 185.101669 -142.714986 
L 186.926173 -146.587596 
L 188.811493 -147.049453 
L 190.635996 -146.78472 
L 192.521316 -145.921875 
L 194.406636 -145.568112 
L 196.109506 -137.698631 
L 197.994826 -144.284849 
L 199.819329 -138.4099 
L 201.704649 -148.861586 
L 203.529152 -146.922903 
L 205.414472 -135.611141 
L 207.299792 -141.770511 
L 209.124296 -138.141939 
L 211.009616 -149.561795 
L 212.834119 -147.431981 
L 214.719439 -133.723416 
L 216.604759 -140.349057 
L 218.368446 -132.742552 
L 220.253766 -136.461161 
L 222.078269 -135.812179 
L 223.963589 -137.8511 
L 225.788092 -133.99604 
L 227.673412 -120.19338 
L 229.558732 -129.144047 
L 231.383236 -145.246779 
L 233.268556 -134.847505 
L 235.093059 -90.39919 
L 236.978379 -123.103926 
L 238.863699 -125.10894 
L 240.566569 -119.12586 
L 242.451889 -108.209428 
L 244.276392 -122.563688 
L 246.161712 -177.115952 
L 247.986216 -138.084395 
L 249.871536 -141.824608 
L 251.756856 -142.286713 
L 253.581359 -154.098803 
L 255.466679 -152.156686 
L 257.291182 -150.898715 
L 259.176502 -161.927798 
L 261.061822 -158.067291 
L 262.764692 -147.360845 
L 264.650012 -137.618042 
L 266.474515 -151.377965 
L 268.359835 -146.516862 
L 270.184339 -135.31342 
L 272.069659 -138.749177 
L 273.954979 -139.949683 
L 275.779482 -143.280036 
L 277.664802 -146.463521 
L 279.489305 -148.217521 
L 281.374625 -141.493783 
L 283.259946 -138.984863 
L 284.962815 -148.344176 
L 286.848135 -143.494345 
L 288.672639 -138.563337 
L 290.557959 -145.455353 
L 292.382462 -141.178678 
L 294.267782 -137.684774 
L 296.153102 -147.678739 
L 297.977605 -113.70634 
L 299.862925 -144.535025 
L 301.687429 -143.058361 
L 303.572749 -143.879064 
L 305.458069 -142.726741 
L 307.221755 -149.491609 
L 309.107075 -146.687114 
L 310.931579 -140.39584 
L 312.816899 -140.013953 
L 314.641402 -141.073883 
L 316.526722 -142.624615 
L 318.412042 -148.6282 
L 320.236545 -142.857429 
L 322.121865 -147.635179 
L 323.946369 -136.980955 
L 325.831689 -137.174714 
L 327.717009 -144.905694 
L 329.419878 -142.634589 
L 331.305198 -146.146824 
L 333.129702 -146.578416 
L 335.015022 -144.881919 
L 336.839525 -145.429317 
L 338.724845 -131.290434 
L 340.610165 -147.94435 
L 342.434668 -138.703138 
L 344.319988 -140.249723 
L 346.144492 -146.122619 
L 348.029812 -145.047197 
L 349.915132 -139.864917 
L 351.618002 -140.159725 
L 353.503322 -140.700236 
L 355.327825 -146.563546 
L 357.213145 -138.88288 
L 359.037648 -143.781742 
L 360.922968 -145.981118 
L 362.808288 -143.398441 
L 364.632792 -140.381837 
L 366.518112 -143.26793 
L 368.342615 -138.925322 
L 370.227935 -150.439971 
L 372.113255 -141.404283 
L 373.816125 -144.202207 
L 375.701445 -145.390208 
L 377.525948 -138.74228 
L 379.411268 -141.436109 
L 381.235771 -137.017939 
L 383.121091 -139.612801 
L 385.006411 -141.249798 
L 386.830915 -140.037881 
L 388.716235 -135.860234 
L 390.540738 -149.61889 
L 392.426058 -143.425311 
L 394.311378 -139.964665 
L 396.075065 -134.852284 
L 397.960385 -144.464046 
L 399.784888 -148.673804 
L 401.670208 -147.45591 
L 403.494711 -138.969114 
L 405.380031 -142.68768 
L 407.265351 -151.051447 
L 409.089855 -138.273925 
L 410.975175 -138.317973 
L 412.799678 -138.5874 
L 414.684998 -137.309161 
L 416.570318 -147.035129 
L 418.273188 -144.495757 
L 420.158508 -146.274906 
L 421.983011 -142.902974 
L 423.868331 -140.814201 
L 425.692835 -144.279631 
L 427.578155 -145.170972 
L 429.463475 -139.221087 
L 431.287978 -140.860802 
L 433.173298 -144.36224 
L 434.997801 -144.677471 
L 436.883121 -144.413333 
L 438.768441 -147.04847 
L 440.471311 -146.617635 
L 442.356631 -134.407707 
L 444.181134 -142.354984 
L 446.066454 -139.636145 
L 447.890958 -147.026662 
L 449.776278 -146.381318 
L 451.661598 -144.060944 
L 453.486101 -146.908205 
L 455.371421 -143.342132 
L 457.195924 -136.742675 
L 459.081244 -138.996225 
L 460.966565 -137.361583 
L 462.669434 -146.462704 
L 464.554754 -152.118322 
L 466.379258 -146.694604 
L 468.264578 -149.132342 
L 470.089081 -140.146342 
L 471.974401 -149.508019 
L 473.859721 -157.161112 
L 475.684224 -138.710511 
L 477.569544 -148.902777 
L 479.394048 -139.198847 
L 481.279368 -148.656407 
L 483.164688 -146.781638 
L 484.928374 -146.50926 
L 486.813694 -137.157762 
L 488.638198 -116.566984 
L 490.523518 -200.432576 
L 492.348021 -147.78386 
L 494.233341 -145.834744 
L 496.118661 -149.483865 
L 497.943164 -149.863545 
L 499.828484 -136.39248 
L 501.652988 -141.457383 
L 503.538308 -148.613788 
L 505.423628 -148.411309 
L 507.126497 -142.808509 
L 509.011817 -148.695101 
L 510.836321 -140.599584 
L 512.721641 -152.10871 
L 514.546144 -141.650263 
L 516.431464 -145.37914 
L 518.316784 -150.164881 
L 520.141287 -147.134137 
L 522.026607 -139.225619 
L 523.851111 -140.943924 
L 525.736431 -150.139636 
L 527.621751 -139.881068 
L 529.324621 -139.747107 
L 531.209941 -138.180921 
L 533.034444 -139.485305 
L 534.919764 -138.036616 
L 536.744267 -133.838159 
L 538.629587 -138.959689 
L 540.514907 -140.652785 
L 542.339411 -152.032988 
L 544.224731 -127.180128 
L 546.049234 -136.231654 
L 547.934554 -152.360471 
L 549.819874 -139.065115 
L 551.522744 -145.111847 
L 553.408064 -145.456906 
L 555.232567 -138.584575 
L 557.117887 -148.996339 
L 558.94239 -138.074613 
L 560.82771 -148.58492 
L 562.71303 -146.560743 
L 564.537534 -136.642071 
L 566.422854 -138.877954 
L 568.247357 -137.430093 
L 570.132677 -150.723676 
L 570.132677 -290.608177 
L 570.132677 -290.608177 
L 568.247357 -277.318201 
L 566.422854 -278.777842 
L 564.537534 -276.559965 
L 562.71303 -286.526114 
L 560.82771 -288.580165 
L 558.94239 -278.065132 
L 557.117887 -289.032689 
L 555.232567 -278.643995 
L 553.408064 -285.554291 
L 551.522744 -285.228565 
L 549.819874 -279.218126 
L 547.934554 -292.540675 
L 546.049234 -276.398645 
L 544.224731 -267.376492 
L 542.339411 -291.951147 
L 540.514907 -280.508376 
L 538.629587 -278.859191 
L 536.744267 -273.757769 
L 534.919764 -277.769396 
L 533.034444 -279.272216 
L 531.209941 -278.009928 
L 529.324621 -279.5872 
L 527.621751 -279.761999 
L 525.736431 -290.065972 
L 523.851111 -280.867685 
L 522.026607 -279.192734 
L 520.141287 -287.143145 
L 518.316784 -290.219371 
L 516.431464 -285.467561 
L 514.546144 -281.772659 
L 512.721641 -292.274952 
L 510.836321 -280.727295 
L 509.011817 -288.857663 
L 507.126497 -283.023658 
L 505.423628 -288.666998 
L 503.538308 -288.896691 
L 501.652988 -281.723445 
L 499.828484 -276.705444 
L 497.943164 -290.211126 
L 496.118661 -289.798923 
L 494.233341 -286.165251 
L 492.348021 -288.067951 
L 490.523518 -340.561364 
L 488.638198 -256.517821 
L 486.813694 -276.032186 
L 484.928374 -285.462232 
L 483.164688 -285.724566 
L 481.279368 -287.650508 
L 479.394048 -278.168886 
L 477.569544 -287.927846 
L 475.684224 -277.772833 
L 473.859721 -296.220833 
L 471.974401 -288.572675 
L 470.089081 -279.260794 
L 468.264578 -288.261955 
L 466.379258 -285.849297 
L 464.554754 -291.320567 
L 462.669434 -285.623389 
L 460.966565 -276.57845 
L 459.081244 -278.157156 
L 457.195924 -275.905565 
L 455.371421 -282.513387 
L 453.486101 -286.128266 
L 451.661598 -283.306545 
L 449.776278 -285.659283 
L 447.890958 -286.343086 
L 446.066454 -279.013186 
L 444.181134 -281.75737 
L 442.356631 -273.864382 
L 440.471311 -286.07326 
L 438.768441 -286.486397 
L 436.883121 -283.885069 
L 434.997801 -284.191598 
L 433.173298 -283.914086 
L 431.287978 -280.461652 
L 429.463475 -278.875675 
L 427.578155 -284.86485 
L 425.692835 -284.021623 
L 423.868331 -280.599789 
L 421.983011 -282.735292 
L 420.158508 -286.159934 
L 418.273188 -284.417491 
L 416.570318 -287.005553 
L 414.684998 -277.268809 
L 412.799678 -278.590181 
L 410.975175 -278.383204 
L 409.089855 -278.402884 
L 407.265351 -291.235041 
L 405.380031 -282.899717 
L 403.494711 -279.211688 
L 401.670208 -287.73729 
L 399.784888 -288.986286 
L 397.960385 -284.770259 
L 396.075065 -275.208341 
L 394.311378 -280.194083 
L 392.426058 -283.717612 
L 390.540738 -289.950432 
L 388.716235 -276.205982 
L 386.830915 -280.358649 
L 385.006411 -281.584594 
L 383.121091 -279.998675 
L 381.235771 -277.444644 
L 379.411268 -281.890062 
L 377.525948 -279.267516 
L 375.701445 -285.940932 
L 373.816125 -284.799931 
L 372.113255 -282.060309 
L 370.227935 -291.119723 
L 368.342615 -279.591365 
L 366.518112 -283.948798 
L 364.632792 -281.100752 
L 362.808288 -284.176586 
L 360.922968 -286.800282 
L 359.037648 -284.640025 
L 357.213145 -279.77539 
L 355.327825 -287.495944 
L 353.503322 -281.676521 
L 351.618002 -281.173855 
L 349.915132 -280.93028 
L 348.029812 -286.166563 
L 346.144492 -287.27967 
L 344.319988 -281.446195 
L 342.434668 -279.940095 
L 340.610165 -289.227369 
L 338.724845 -272.593321 
L 336.839525 -286.763342 
L 335.015022 -286.232219 
L 333.129702 -287.979405 
L 331.305198 -287.597265 
L 329.419878 -284.126104 
L 327.717009 -286.409332 
L 325.831689 -278.713397 
L 323.946369 -278.571714 
L 322.121865 -289.259246 
L 320.236545 -284.537854 
L 318.412042 -290.313824 
L 316.526722 -284.349478 
L 314.641402 -282.851782 
L 312.816899 -281.790205 
L 310.931579 -282.213963 
L 309.107075 -288.550226 
L 307.221755 -291.378679 
L 305.458069 -284.628814 
L 303.572749 -285.830393 
L 301.687429 -285.044501 
L 299.862925 -286.555085 
L 297.977605 -255.767936 
L 296.153102 -289.361811 
L 294.267782 -279.416561 
L 292.382462 -282.887262 
L 290.557959 -287.212501 
L 288.672639 -280.345791 
L 286.848135 -285.311352 
L 284.962815 -290.212268 
L 283.259946 -280.870607 
L 281.374625 -283.394775 
L 279.489305 -290.172898 
L 277.664802 -288.426164 
L 275.779482 -285.253286 
L 273.954979 -281.985695 
L 272.069659 -280.831962 
L 270.184339 -277.413658 
L 268.359835 -288.512455 
L 266.474515 -293.406467 
L 264.650012 -279.619338 
L 262.764692 -289.36188 
L 261.061822 -289.373069 
L 259.176502 -293.284093 
L 257.291182 -282.33931 
L 255.466679 -283.638333 
L 253.581359 -285.598786 
L 251.756856 -268.462929 
L 249.871536 -268.022706 
L 247.986216 -269.554745 
L 246.161712 -308.471834 
L 244.276392 -264.240282 
L 242.451889 -243.755006 
L 240.566569 -254.700666 
L 238.863699 -260.737057 
L 236.978379 -264.84942 
L 235.093059 -233.012314 
L 233.268556 -277.593088 
L 231.383236 -287.920941 
L 229.558732 -270.383996 
L 227.673412 -262.88812 
L 225.788092 -276.695535 
L 223.963589 -280.587246 
L 222.078269 -277.030468 
L 220.253766 -276.706835 
L 218.368446 -273.043573 
L 216.604759 -280.620262 
L 214.719439 -274.013775 
L 212.834119 -287.65685 
L 211.009616 -289.794946 
L 209.124296 -278.440075 
L 207.299792 -282.007452 
L 205.414472 -275.906525 
L 203.529152 -287.256551 
L 201.704649 -289.241583 
L 199.819329 -278.822386 
L 197.994826 -284.717188 
L 196.109506 -278.157762 
L 194.406636 -286.095633 
L 192.521316 -286.48636 
L 190.635996 -287.406856 
L 188.811493 -289.243863 
L 186.926173 -288.832807 
L 185.101669 -285.005394 
L 183.216349 -277.717534 
L 181.331029 -280.122498 
L 179.506526 -276.11097 
L 177.621206 -282.951005 
L 175.796703 -279.067605 
L 173.911383 -284.482875 
L 172.208513 -286.234775 
L 170.323193 -294.392507 
L 168.437873 -274.920437 
L 166.613369 -283.821589 
L 164.728049 -282.616068 
L 162.903546 -278.732955 
L 161.018226 -290.230302 
L 159.132906 -289.364329 
L 157.308403 -280.48132 
L 155.423083 -274.282784 
L 153.598579 -286.874007 
L 151.713259 -279.147076 
L 150.01039 -283.779317 
L 148.12507 -293.060086 
L 146.23975 -280.918186 
L 144.415246 -292.373519 
L 142.529926 -285.45703 
L 140.705423 -281.716677 
L 138.820103 -296.1779 
L 136.934783 -273.25742 
L 135.11028 -279.199193 
L 133.22496 -283.758992 
L 131.400456 -282.87178 
L 129.515136 -293.723813 
L 127.75145 -293.591959 
L 125.86613 -291.444387 
L 123.98081 -285.692766 
L 122.156306 -296.795115 
L 120.270986 -272.85104 
L 118.446483 -265.048316 
L 116.561163 -301.502084 
L 114.675843 -303.786734 
L 112.85134 -289.334125 
L 110.96602 -286.512784 
L 109.141516 -273.13536 
L 107.256196 -282.482036 
L 105.553327 -277.693882 
L 103.668006 -290.067449 
L 101.782686 -274.088434 
L 99.958183 -281.807854 
L 98.072863 -294.157297 
L 96.24836 -266.48598 
L 94.36304 -274.931896 
L 92.47772 -276.701762 
L 90.653216 -275.759116 
L 88.767896 -280.419014 
L 86.943393 -276.968026 
L 85.058073 -281.206644 
L 83.355203 -270.983855 
L 81.469883 -285.513277 
L 79.584563 -290.897944 
L 77.76006 -254.676069 
L 75.87474 -283.386004 
L 74.050237 -271.317979 
L 72.164917 -276.79276 
L 70.279597 -285.951096 
L 68.455093 -269.544679 
L 66.569773 -265.528185 
L 64.74527 -277.056046 
L 62.85995 -284.272183 
z
" style="stroke: #808080; stroke-opacity: 0.3"/>
    </defs>
    <g clip-path="url(#pe76b48fd84)">
     <use xlink:href="#m89e4956537" x="0" y="359.281364" style="fill: #808080; fill-opacity: 0.3; stroke: #808080; stroke-opacity: 0.3"/>
    </g>
   </g>
   <g id="matplotlib.axis_1">
    <g id="xtick_1">
     <g id="line2d_1">
      <defs>
       <path id="mc30a6beca8" d="M 0 0 
L 0 -3 
" style="stroke: #000000; stroke-width: 0.5"/>
      </defs>
      <g>
       <use xlink:href="#mc30a6beca8" x="125.926946" y="336.24" style="stroke: #000000; stroke-width: 0.5"/>
      </g>
     </g>
     <g id="line2d_2">
      <defs>
       <path id="m137dbaf9f2" d="M 0 0 
L 0 3 
" style="stroke: #000000; stroke-width: 0.5"/>
      </defs>
      <g>
       <use xlink:href="#m137dbaf9f2" x="125.926946" y="3.6" style="stroke: #000000; stroke-width: 0.5"/>
      </g>
     </g>
     <g id="text_1">
      <!-- $\mathdefault{2004}$ -->
      <g transform="translate(109.478375 352.1933) scale(0.18 -0.18)">
       <defs>
        <path id="CMR17-32" d="M 2669 990 
L 2554 990 
C 2490 537 2438 460 2413 422 
C 2381 371 1920 371 1830 371 
L 602 371 
C 832 620 1280 1073 1824 1596 
C 2214 1966 2669 2400 2669 3033 
C 2669 3788 2067 4224 1395 4224 
C 691 4224 262 3603 262 3027 
C 262 2777 448 2745 525 2745 
C 589 2745 781 2783 781 3007 
C 781 3206 614 3264 525 3264 
C 486 3264 448 3257 422 3244 
C 544 3788 915 4057 1306 4057 
C 1862 4057 2227 3616 2227 3033 
C 2227 2477 1901 1998 1536 1583 
L 262 147 
L 262 0 
L 2515 0 
L 2669 990 
z
" transform="scale(0.015625)"/>
        <path id="CMR17-30" d="M 2688 2038 
C 2688 2430 2682 3099 2413 3613 
C 2176 4063 1798 4224 1466 4224 
C 1158 4224 768 4082 525 3620 
C 269 3137 243 2539 243 2038 
C 243 1671 250 1112 448 623 
C 723 -39 1216 -128 1466 -128 
C 1760 -128 2208 -7 2470 604 
C 2662 1048 2688 1568 2688 2038 
z
M 1466 -26 
C 1056 -26 813 328 723 816 
C 653 1196 653 1749 653 2109 
C 653 2604 653 3015 736 3407 
C 858 3954 1216 4121 1466 4121 
C 1728 4121 2067 3947 2189 3420 
C 2272 3054 2278 2623 2278 2109 
C 2278 1691 2278 1176 2202 797 
C 2067 96 1690 -26 1466 -26 
z
" transform="scale(0.015625)"/>
        <path id="CMR17-34" d="M 2150 4147 
C 2150 4281 2144 4288 2029 4288 
L 128 1254 
L 128 1088 
L 1779 1088 
L 1779 460 
C 1779 230 1766 166 1318 166 
L 1197 166 
L 1197 0 
C 1402 12 1747 12 1965 12 
C 2182 12 2528 12 2733 0 
L 2733 166 
L 2611 166 
C 2163 166 2150 230 2150 460 
L 2150 1088 
L 2803 1088 
L 2803 1254 
L 2150 1254 
L 2150 4147 
z
M 1798 3723 
L 1798 1254 
L 256 1254 
L 1798 3723 
z
" transform="scale(0.015625)"/>
       </defs>
       <use xlink:href="#CMR17-32" transform="scale(0.996264)"/>
       <use xlink:href="#CMR17-30" transform="translate(45.690477 0) scale(0.996264)"/>
       <use xlink:href="#CMR17-30" transform="translate(91.380954 0) scale(0.996264)"/>
       <use xlink:href="#CMR17-34" transform="translate(137.071431 0) scale(0.996264)"/>
      </g>
     </g>
    </g>
    <g id="xtick_2">
     <g id="line2d_3">
      <g>
       <use xlink:href="#mc30a6beca8" x="214.780256" y="336.24" style="stroke: #000000; stroke-width: 0.5"/>
      </g>
     </g>
     <g id="line2d_4">
      <g>
       <use xlink:href="#m137dbaf9f2" x="214.780256" y="3.6" style="stroke: #000000; stroke-width: 0.5"/>
      </g>
     </g>
     <g id="text_2">
      <!-- $\mathdefault{2008}$ -->
      <g transform="translate(198.331684 352.1933) scale(0.18 -0.18)">
       <defs>
        <path id="CMR17-38" d="M 1741 2289 
C 2144 2494 2554 2803 2554 3298 
C 2554 3884 1990 4224 1472 4224 
C 890 4224 378 3800 378 3215 
C 378 3054 416 2777 666 2533 
C 730 2469 998 2276 1171 2154 
C 883 2006 211 1652 211 945 
C 211 282 838 -128 1459 -128 
C 2144 -128 2720 366 2720 1022 
C 2720 1607 2330 1877 2074 2051 
L 1741 2289 
z
M 902 2855 
C 851 2887 595 3086 595 3388 
C 595 3781 998 4076 1459 4076 
C 1965 4076 2336 3716 2336 3298 
C 2336 2700 1670 2359 1638 2359 
C 1632 2359 1626 2359 1574 2398 
L 902 2855 
z
M 2080 1536 
C 2176 1466 2483 1253 2483 861 
C 2483 385 2010 25 1472 25 
C 890 25 448 443 448 951 
C 448 1459 838 1884 1280 2083 
L 2080 1536 
z
" transform="scale(0.015625)"/>
       </defs>
       <use xlink:href="#CMR17-32" transform="scale(0.996264)"/>
       <use xlink:href="#CMR17-30" transform="translate(45.690477 0) scale(0.996264)"/>
       <use xlink:href="#CMR17-30" transform="translate(91.380954 0) scale(0.996264)"/>
       <use xlink:href="#CMR17-38" transform="translate(137.071431 0) scale(0.996264)"/>
      </g>
     </g>
    </g>
    <g id="xtick_3">
     <g id="line2d_5">
      <g>
       <use xlink:href="#mc30a6beca8" x="303.633565" y="336.24" style="stroke: #000000; stroke-width: 0.5"/>
      </g>
     </g>
     <g id="line2d_6">
      <g>
       <use xlink:href="#m137dbaf9f2" x="303.633565" y="3.6" style="stroke: #000000; stroke-width: 0.5"/>
      </g>
     </g>
     <g id="text_3">
      <!-- $\mathdefault{2012}$ -->
      <g transform="translate(287.184994 352.1933) scale(0.18 -0.18)">
       <defs>
        <path id="CMR17-31" d="M 1702 4083 
C 1702 4217 1696 4224 1606 4224 
C 1357 3927 979 3833 621 3820 
C 602 3820 570 3820 563 3808 
C 557 3795 557 3782 557 3648 
C 755 3648 1088 3686 1344 3839 
L 1344 467 
C 1344 243 1331 166 781 166 
L 589 166 
L 589 0 
C 896 6 1216 12 1523 12 
C 1830 12 2150 6 2458 0 
L 2458 166 
L 2266 166 
C 1715 166 1702 236 1702 467 
L 1702 4083 
z
" transform="scale(0.015625)"/>
       </defs>
       <use xlink:href="#CMR17-32" transform="scale(0.996264)"/>
       <use xlink:href="#CMR17-30" transform="translate(45.690477 0) scale(0.996264)"/>
       <use xlink:href="#CMR17-31" transform="translate(91.380954 0) scale(0.996264)"/>
       <use xlink:href="#CMR17-32" transform="translate(137.071431 0) scale(0.996264)"/>
      </g>
     </g>
    </g>
    <g id="xtick_4">
     <g id="line2d_7">
      <g>
       <use xlink:href="#mc30a6beca8" x="392.486875" y="336.24" style="stroke: #000000; stroke-width: 0.5"/>
      </g>
     </g>
     <g id="line2d_8">
      <g>
       <use xlink:href="#m137dbaf9f2" x="392.486875" y="3.6" style="stroke: #000000; stroke-width: 0.5"/>
      </g>
     </g>
     <g id="text_4">
      <!-- $\mathdefault{2016}$ -->
      <g transform="translate(376.038303 352.1933) scale(0.18 -0.18)">
       <defs>
        <path id="CMR17-36" d="M 678 2198 
C 678 3712 1395 4076 1811 4076 
C 1946 4076 2272 4049 2400 3782 
C 2298 3782 2106 3782 2106 3558 
C 2106 3385 2246 3328 2336 3328 
C 2394 3328 2566 3353 2566 3571 
C 2566 3987 2246 4224 1805 4224 
C 1043 4224 243 3411 243 2011 
C 243 257 966 -128 1478 -128 
C 2099 -128 2688 431 2688 1295 
C 2688 2101 2170 2688 1517 2688 
C 1126 2688 838 2430 678 1979 
L 678 2198 
z
M 1478 25 
C 691 25 691 1212 691 1450 
C 691 1914 909 2585 1504 2585 
C 1613 2585 1926 2585 2138 2140 
C 2253 1889 2253 1624 2253 1302 
C 2253 954 2253 696 2118 438 
C 1978 173 1773 25 1478 25 
z
" transform="scale(0.015625)"/>
       </defs>
       <use xlink:href="#CMR17-32" transform="scale(0.996264)"/>
       <use xlink:href="#CMR17-30" transform="translate(45.690477 0) scale(0.996264)"/>
       <use xlink:href="#CMR17-31" transform="translate(91.380954 0) scale(0.996264)"/>
       <use xlink:href="#CMR17-36" transform="translate(137.071431 0) scale(0.996264)"/>
      </g>
     </g>
    </g>
    <g id="xtick_5">
     <g id="line2d_9">
      <g>
       <use xlink:href="#mc30a6beca8" x="481.340184" y="336.24" style="stroke: #000000; stroke-width: 0.5"/>
      </g>
     </g>
     <g id="line2d_10">
      <g>
       <use xlink:href="#m137dbaf9f2" x="481.340184" y="3.6" style="stroke: #000000; stroke-width: 0.5"/>
      </g>
     </g>
     <g id="text_5">
      <!-- $\mathdefault{2020}$ -->
      <g transform="translate(464.891613 352.1933) scale(0.18 -0.18)">
       <use xlink:href="#CMR17-32" transform="scale(0.996264)"/>
       <use xlink:href="#CMR17-30" transform="translate(45.690477 0) scale(0.996264)"/>
       <use xlink:href="#CMR17-32" transform="translate(91.380954 0) scale(0.996264)"/>
       <use xlink:href="#CMR17-30" transform="translate(137.071431 0) scale(0.996264)"/>
      </g>
     </g>
    </g>
    <g id="xtick_6">
     <g id="line2d_11">
      <g>
       <use xlink:href="#mc30a6beca8" x="570.193494" y="336.24" style="stroke: #000000; stroke-width: 0.5"/>
      </g>
     </g>
     <g id="line2d_12">
      <g>
       <use xlink:href="#m137dbaf9f2" x="570.193494" y="3.6" style="stroke: #000000; stroke-width: 0.5"/>
      </g>
     </g>
     <g id="text_6">
      <!-- $\mathdefault{2024}$ -->
      <g transform="translate(553.744922 352.1933) scale(0.18 -0.18)">
       <use xlink:href="#CMR17-32" transform="scale(0.996264)"/>
       <use xlink:href="#CMR17-30" transform="translate(45.690477 0) scale(0.996264)"/>
       <use xlink:href="#CMR17-32" transform="translate(91.380954 0) scale(0.996264)"/>
       <use xlink:href="#CMR17-34" transform="translate(137.071431 0) scale(0.996264)"/>
      </g>
     </g>
    </g>
    <g id="xtick_7">
     <g id="line2d_13">
      <defs>
       <path id="m3f7351c987" d="M 0 0 
L 0 -1.5 
" style="stroke: #000000; stroke-width: 0.5"/>
      </defs>
      <g>
       <use xlink:href="#m3f7351c987" x="59.286964" y="336.24" style="stroke: #000000; stroke-width: 0.5"/>
      </g>
     </g>
     <g id="line2d_14">
      <defs>
       <path id="m3e72d206f6" d="M 0 0 
L 0 1.5 
" style="stroke: #000000; stroke-width: 0.5"/>
      </defs>
      <g>
       <use xlink:href="#m3e72d206f6" x="59.286964" y="3.6" style="stroke: #000000; stroke-width: 0.5"/>
      </g>
     </g>
    </g>
    <g id="xtick_8">
     <g id="line2d_15">
      <g>
       <use xlink:href="#m3f7351c987" x="81.500292" y="336.24" style="stroke: #000000; stroke-width: 0.5"/>
      </g>
     </g>
     <g id="line2d_16">
      <g>
       <use xlink:href="#m3e72d206f6" x="81.500292" y="3.6" style="stroke: #000000; stroke-width: 0.5"/>
      </g>
     </g>
    </g>
    <g id="xtick_9">
     <g id="line2d_17">
      <g>
       <use xlink:href="#m3f7351c987" x="103.713619" y="336.24" style="stroke: #000000; stroke-width: 0.5"/>
      </g>
     </g>
     <g id="line2d_18">
      <g>
       <use xlink:href="#m3e72d206f6" x="103.713619" y="3.6" style="stroke: #000000; stroke-width: 0.5"/>
      </g>
     </g>
    </g>
    <g id="xtick_10">
     <g id="line2d_19">
      <g>
       <use xlink:href="#m3f7351c987" x="148.140274" y="336.24" style="stroke: #000000; stroke-width: 0.5"/>
      </g>
     </g>
     <g id="line2d_20">
      <g>
       <use xlink:href="#m3e72d206f6" x="148.140274" y="3.6" style="stroke: #000000; stroke-width: 0.5"/>
      </g>
     </g>
    </g>
    <g id="xtick_11">
     <g id="line2d_21">
      <g>
       <use xlink:href="#m3f7351c987" x="170.353601" y="336.24" style="stroke: #000000; stroke-width: 0.5"/>
      </g>
     </g>
     <g id="line2d_22">
      <g>
       <use xlink:href="#m3e72d206f6" x="170.353601" y="3.6" style="stroke: #000000; stroke-width: 0.5"/>
      </g>
     </g>
    </g>
    <g id="xtick_12">
     <g id="line2d_23">
      <g>
       <use xlink:href="#m3f7351c987" x="192.566929" y="336.24" style="stroke: #000000; stroke-width: 0.5"/>
      </g>
     </g>
     <g id="line2d_24">
      <g>
       <use xlink:href="#m3e72d206f6" x="192.566929" y="3.6" style="stroke: #000000; stroke-width: 0.5"/>
      </g>
     </g>
    </g>
    <g id="xtick_13">
     <g id="line2d_25">
      <g>
       <use xlink:href="#m3f7351c987" x="236.993583" y="336.24" style="stroke: #000000; stroke-width: 0.5"/>
      </g>
     </g>
     <g id="line2d_26">
      <g>
       <use xlink:href="#m3e72d206f6" x="236.993583" y="3.6" style="stroke: #000000; stroke-width: 0.5"/>
      </g>
     </g>
    </g>
    <g id="xtick_14">
     <g id="line2d_27">
      <g>
       <use xlink:href="#m3f7351c987" x="259.206911" y="336.24" style="stroke: #000000; stroke-width: 0.5"/>
      </g>
     </g>
     <g id="line2d_28">
      <g>
       <use xlink:href="#m3e72d206f6" x="259.206911" y="3.6" style="stroke: #000000; stroke-width: 0.5"/>
      </g>
     </g>
    </g>
    <g id="xtick_15">
     <g id="line2d_29">
      <g>
       <use xlink:href="#m3f7351c987" x="281.420238" y="336.24" style="stroke: #000000; stroke-width: 0.5"/>
      </g>
     </g>
     <g id="line2d_30">
      <g>
       <use xlink:href="#m3e72d206f6" x="281.420238" y="3.6" style="stroke: #000000; stroke-width: 0.5"/>
      </g>
     </g>
    </g>
    <g id="xtick_16">
     <g id="line2d_31">
      <g>
       <use xlink:href="#m3f7351c987" x="325.846893" y="336.24" style="stroke: #000000; stroke-width: 0.5"/>
      </g>
     </g>
     <g id="line2d_32">
      <g>
       <use xlink:href="#m3e72d206f6" x="325.846893" y="3.6" style="stroke: #000000; stroke-width: 0.5"/>
      </g>
     </g>
    </g>
    <g id="xtick_17">
     <g id="line2d_33">
      <g>
       <use xlink:href="#m3f7351c987" x="348.06022" y="336.24" style="stroke: #000000; stroke-width: 0.5"/>
      </g>
     </g>
     <g id="line2d_34">
      <g>
       <use xlink:href="#m3e72d206f6" x="348.06022" y="3.6" style="stroke: #000000; stroke-width: 0.5"/>
      </g>
     </g>
    </g>
    <g id="xtick_18">
     <g id="line2d_35">
      <g>
       <use xlink:href="#m3f7351c987" x="370.273548" y="336.24" style="stroke: #000000; stroke-width: 0.5"/>
      </g>
     </g>
     <g id="line2d_36">
      <g>
       <use xlink:href="#m3e72d206f6" x="370.273548" y="3.6" style="stroke: #000000; stroke-width: 0.5"/>
      </g>
     </g>
    </g>
    <g id="xtick_19">
     <g id="line2d_37">
      <g>
       <use xlink:href="#m3f7351c987" x="414.700202" y="336.24" style="stroke: #000000; stroke-width: 0.5"/>
      </g>
     </g>
     <g id="line2d_38">
      <g>
       <use xlink:href="#m3e72d206f6" x="414.700202" y="3.6" style="stroke: #000000; stroke-width: 0.5"/>
      </g>
     </g>
    </g>
    <g id="xtick_20">
     <g id="line2d_39">
      <g>
       <use xlink:href="#m3f7351c987" x="436.91353" y="336.24" style="stroke: #000000; stroke-width: 0.5"/>
      </g>
     </g>
     <g id="line2d_40">
      <g>
       <use xlink:href="#m3e72d206f6" x="436.91353" y="3.6" style="stroke: #000000; stroke-width: 0.5"/>
      </g>
     </g>
    </g>
    <g id="xtick_21">
     <g id="line2d_41">
      <g>
       <use xlink:href="#m3f7351c987" x="459.126857" y="336.24" style="stroke: #000000; stroke-width: 0.5"/>
      </g>
     </g>
     <g id="line2d_42">
      <g>
       <use xlink:href="#m3e72d206f6" x="459.126857" y="3.6" style="stroke: #000000; stroke-width: 0.5"/>
      </g>
     </g>
    </g>
    <g id="xtick_22">
     <g id="line2d_43">
      <g>
       <use xlink:href="#m3f7351c987" x="503.553512" y="336.24" style="stroke: #000000; stroke-width: 0.5"/>
      </g>
     </g>
     <g id="line2d_44">
      <g>
       <use xlink:href="#m3e72d206f6" x="503.553512" y="3.6" style="stroke: #000000; stroke-width: 0.5"/>
      </g>
     </g>
    </g>
    <g id="xtick_23">
     <g id="line2d_45">
      <g>
       <use xlink:href="#m3f7351c987" x="525.766839" y="336.24" style="stroke: #000000; stroke-width: 0.5"/>
      </g>
     </g>
     <g id="line2d_46">
      <g>
       <use xlink:href="#m3e72d206f6" x="525.766839" y="3.6" style="stroke: #000000; stroke-width: 0.5"/>
      </g>
     </g>
    </g>
    <g id="xtick_24">
     <g id="line2d_47">
      <g>
       <use xlink:href="#m3f7351c987" x="547.980167" y="336.24" style="stroke: #000000; stroke-width: 0.5"/>
      </g>
     </g>
     <g id="line2d_48">
      <g>
       <use xlink:href="#m3e72d206f6" x="547.980167" y="3.6" style="stroke: #000000; stroke-width: 0.5"/>
      </g>
     </g>
    </g>
    <g id="xtick_25">
     <g id="line2d_49">
      <g>
       <use xlink:href="#m3f7351c987" x="592.406821" y="336.24" style="stroke: #000000; stroke-width: 0.5"/>
      </g>
     </g>
     <g id="line2d_50">
      <g>
       <use xlink:href="#m3e72d206f6" x="592.406821" y="3.6" style="stroke: #000000; stroke-width: 0.5"/>
      </g>
     </g>
    </g>
   </g>
   <g id="matplotlib.axis_2">
    <g id="ytick_1">
     <g id="line2d_51">
      <defs>
       <path id="m9384ab7fda" d="M 0 0 
L 3 0 
" style="stroke: #000000; stroke-width: 0.5"/>
      </defs>
      <g>
       <use xlink:href="#m9384ab7fda" x="37.496314" y="300.096324" style="stroke: #000000; stroke-width: 0.5"/>
      </g>
     </g>
     <g id="line2d_52">
      <defs>
       <path id="md4ed4bbbbe" d="M 0 0 
L -3 0 
" style="stroke: #000000; stroke-width: 0.5"/>
      </defs>
      <g>
       <use xlink:href="#md4ed4bbbbe" x="595.496314" y="300.096324" style="stroke: #000000; stroke-width: 0.5"/>
      </g>
     </g>
     <g id="text_7">
      <!-- $\mathdefault{−20}$ -->
      <g transform="translate(3.6 306.322974) scale(0.18 -0.18)">
       <defs>
        <path id="CMSY10-0" d="M 4218 1472 
C 4326 1472 4442 1472 4442 1600 
C 4442 1728 4326 1728 4218 1728 
L 755 1728 
C 646 1728 531 1728 531 1600 
C 531 1472 646 1472 755 1472 
L 4218 1472 
z
" transform="scale(0.015625)"/>
       </defs>
       <use xlink:href="#CMSY10-0" transform="scale(0.996264)"/>
       <use xlink:href="#CMR17-32" transform="translate(77.487468 0) scale(0.996264)"/>
       <use xlink:href="#CMR17-30" transform="translate(123.177945 0) scale(0.996264)"/>
      </g>
     </g>
    </g>
    <g id="ytick_2">
     <g id="line2d_53">
      <g>
       <use xlink:href="#m9384ab7fda" x="37.496314" y="262.614038" style="stroke: #000000; stroke-width: 0.5"/>
      </g>
     </g>
     <g id="line2d_54">
      <g>
       <use xlink:href="#md4ed4bbbbe" x="595.496314" y="262.614038" style="stroke: #000000; stroke-width: 0.5"/>
      </g>
     </g>
     <g id="text_8">
      <!-- $\mathdefault{−15}$ -->
      <g transform="translate(3.6 268.840688) scale(0.18 -0.18)">
       <defs>
        <path id="CMR17-35" d="M 730 3750 
C 794 3724 1056 3641 1325 3641 
C 1920 3641 2246 3961 2432 4140 
C 2432 4191 2432 4224 2394 4224 
C 2387 4224 2374 4224 2323 4198 
C 2099 4102 1837 4032 1517 4032 
C 1325 4032 1037 4055 723 4191 
C 653 4224 640 4224 634 4224 
C 602 4224 595 4217 595 4090 
L 595 2231 
C 595 2113 595 2080 659 2080 
C 691 2080 704 2093 736 2139 
C 941 2435 1222 2560 1542 2560 
C 1766 2560 2246 2415 2246 1293 
C 2246 1087 2246 716 2054 422 
C 1894 159 1645 25 1370 25 
C 947 25 518 319 403 812 
C 429 806 480 793 506 793 
C 589 793 749 838 749 1036 
C 749 1209 627 1280 506 1280 
C 358 1280 262 1190 262 1011 
C 262 454 704 -128 1382 -128 
C 2042 -128 2669 441 2669 1267 
C 2669 2054 2170 2662 1549 2662 
C 1222 2662 947 2540 730 2304 
L 730 3750 
z
" transform="scale(0.015625)"/>
       </defs>
       <use xlink:href="#CMSY10-0" transform="scale(0.996264)"/>
       <use xlink:href="#CMR17-31" transform="translate(77.487468 0) scale(0.996264)"/>
       <use xlink:href="#CMR17-35" transform="translate(123.177945 0) scale(0.996264)"/>
      </g>
     </g>
    </g>
    <g id="ytick_3">
     <g id="line2d_55">
      <g>
       <use xlink:href="#m9384ab7fda" x="37.496314" y="225.131753" style="stroke: #000000; stroke-width: 0.5"/>
      </g>
     </g>
     <g id="line2d_56">
      <g>
       <use xlink:href="#md4ed4bbbbe" x="595.496314" y="225.131753" style="stroke: #000000; stroke-width: 0.5"/>
      </g>
     </g>
     <g id="text_9">
      <!-- $\mathdefault{−10}$ -->
      <g transform="translate(3.6 231.358403) scale(0.18 -0.18)">
       <use xlink:href="#CMSY10-0" transform="scale(0.996264)"/>
       <use xlink:href="#CMR17-31" transform="translate(77.487468 0) scale(0.996264)"/>
       <use xlink:href="#CMR17-30" transform="translate(123.177945 0) scale(0.996264)"/>
      </g>
     </g>
    </g>
    <g id="ytick_4">
     <g id="line2d_57">
      <g>
       <use xlink:href="#m9384ab7fda" x="37.496314" y="187.649467" style="stroke: #000000; stroke-width: 0.5"/>
      </g>
     </g>
     <g id="line2d_58">
      <g>
       <use xlink:href="#md4ed4bbbbe" x="595.496314" y="187.649467" style="stroke: #000000; stroke-width: 0.5"/>
      </g>
     </g>
     <g id="text_10">
      <!-- $\mathdefault{−5}$ -->
      <g transform="translate(11.824286 193.876117) scale(0.18 -0.18)">
       <use xlink:href="#CMSY10-0" transform="scale(0.996264)"/>
       <use xlink:href="#CMR17-35" transform="translate(77.487468 0) scale(0.996264)"/>
      </g>
     </g>
    </g>
    <g id="ytick_5">
     <g id="line2d_59">
      <g>
       <use xlink:href="#m9384ab7fda" x="37.496314" y="150.167181" style="stroke: #000000; stroke-width: 0.5"/>
      </g>
     </g>
     <g id="line2d_60">
      <g>
       <use xlink:href="#md4ed4bbbbe" x="595.496314" y="150.167181" style="stroke: #000000; stroke-width: 0.5"/>
      </g>
     </g>
     <g id="text_11">
      <!-- $\mathdefault{0}$ -->
      <g transform="translate(25.772028 156.393831) scale(0.18 -0.18)">
       <use xlink:href="#CMR17-30" transform="scale(0.996264)"/>
      </g>
     </g>
    </g>
    <g id="ytick_6">
     <g id="line2d_61">
      <g>
       <use xlink:href="#m9384ab7fda" x="37.496314" y="112.684895" style="stroke: #000000; stroke-width: 0.5"/>
      </g>
     </g>
     <g id="line2d_62">
      <g>
       <use xlink:href="#md4ed4bbbbe" x="595.496314" y="112.684895" style="stroke: #000000; stroke-width: 0.5"/>
      </g>
     </g>
     <g id="text_12">
      <!-- $\mathdefault{5}$ -->
      <g transform="translate(25.772028 118.911545) scale(0.18 -0.18)">
       <use xlink:href="#CMR17-35" transform="scale(0.996264)"/>
      </g>
     </g>
    </g>
    <g id="ytick_7">
     <g id="line2d_63">
      <g>
       <use xlink:href="#m9384ab7fda" x="37.496314" y="75.202609" style="stroke: #000000; stroke-width: 0.5"/>
      </g>
     </g>
     <g id="line2d_64">
      <g>
       <use xlink:href="#md4ed4bbbbe" x="595.496314" y="75.202609" style="stroke: #000000; stroke-width: 0.5"/>
      </g>
     </g>
     <g id="text_13">
      <!-- $\mathdefault{10}$ -->
      <g transform="translate(17.547742 81.429259) scale(0.18 -0.18)">
       <use xlink:href="#CMR17-31" transform="scale(0.996264)"/>
       <use xlink:href="#CMR17-30" transform="translate(45.690477 0) scale(0.996264)"/>
      </g>
     </g>
    </g>
    <g id="ytick_8">
     <g id="line2d_65">
      <g>
       <use xlink:href="#m9384ab7fda" x="37.496314" y="37.720323" style="stroke: #000000; stroke-width: 0.5"/>
      </g>
     </g>
     <g id="line2d_66">
      <g>
       <use xlink:href="#md4ed4bbbbe" x="595.496314" y="37.720323" style="stroke: #000000; stroke-width: 0.5"/>
      </g>
     </g>
     <g id="text_14">
      <!-- $\mathdefault{15}$ -->
      <g transform="translate(17.547742 43.946973) scale(0.18 -0.18)">
       <use xlink:href="#CMR17-31" transform="scale(0.996264)"/>
       <use xlink:href="#CMR17-35" transform="translate(45.690477 0) scale(0.996264)"/>
      </g>
     </g>
    </g>
    <g id="ytick_9">
     <g id="line2d_67">
      <defs>
       <path id="m646328f0e1" d="M 0 0 
L 1.5 0 
" style="stroke: #000000; stroke-width: 0.5"/>
      </defs>
      <g>
       <use xlink:href="#m646328f0e1" x="37.496314" y="330.082153" style="stroke: #000000; stroke-width: 0.5"/>
      </g>
     </g>
     <g id="line2d_68">
      <defs>
       <path id="mcf0da04c63" d="M 0 0 
L -1.5 0 
" style="stroke: #000000; stroke-width: 0.5"/>
      </defs>
      <g>
       <use xlink:href="#mcf0da04c63" x="595.496314" y="330.082153" style="stroke: #000000; stroke-width: 0.5"/>
      </g>
     </g>
    </g>
    <g id="ytick_10">
     <g id="line2d_69">
      <g>
       <use xlink:href="#m646328f0e1" x="37.496314" y="322.585696" style="stroke: #000000; stroke-width: 0.5"/>
      </g>
     </g>
     <g id="line2d_70">
      <g>
       <use xlink:href="#mcf0da04c63" x="595.496314" y="322.585696" style="stroke: #000000; stroke-width: 0.5"/>
      </g>
     </g>
    </g>
    <g id="ytick_11">
     <g id="line2d_71">
      <g>
       <use xlink:href="#m646328f0e1" x="37.496314" y="315.089239" style="stroke: #000000; stroke-width: 0.5"/>
      </g>
     </g>
     <g id="line2d_72">
      <g>
       <use xlink:href="#mcf0da04c63" x="595.496314" y="315.089239" style="stroke: #000000; stroke-width: 0.5"/>
      </g>
     </g>
    </g>
    <g id="ytick_12">
     <g id="line2d_73">
      <g>
       <use xlink:href="#m646328f0e1" x="37.496314" y="307.592782" style="stroke: #000000; stroke-width: 0.5"/>
      </g>
     </g>
     <g id="line2d_74">
      <g>
       <use xlink:href="#mcf0da04c63" x="595.496314" y="307.592782" style="stroke: #000000; stroke-width: 0.5"/>
      </g>
     </g>
    </g>
    <g id="ytick_13">
     <g id="line2d_75">
      <g>
       <use xlink:href="#m646328f0e1" x="37.496314" y="292.599867" style="stroke: #000000; stroke-width: 0.5"/>
      </g>
     </g>
     <g id="line2d_76">
      <g>
       <use xlink:href="#mcf0da04c63" x="595.496314" y="292.599867" style="stroke: #000000; stroke-width: 0.5"/>
      </g>
     </g>
    </g>
    <g id="ytick_14">
     <g id="line2d_77">
      <g>
       <use xlink:href="#m646328f0e1" x="37.496314" y="285.10341" style="stroke: #000000; stroke-width: 0.5"/>
      </g>
     </g>
     <g id="line2d_78">
      <g>
       <use xlink:href="#mcf0da04c63" x="595.496314" y="285.10341" style="stroke: #000000; stroke-width: 0.5"/>
      </g>
     </g>
    </g>
    <g id="ytick_15">
     <g id="line2d_79">
      <g>
       <use xlink:href="#m646328f0e1" x="37.496314" y="277.606953" style="stroke: #000000; stroke-width: 0.5"/>
      </g>
     </g>
     <g id="line2d_80">
      <g>
       <use xlink:href="#mcf0da04c63" x="595.496314" y="277.606953" style="stroke: #000000; stroke-width: 0.5"/>
      </g>
     </g>
    </g>
    <g id="ytick_16">
     <g id="line2d_81">
      <g>
       <use xlink:href="#m646328f0e1" x="37.496314" y="270.110496" style="stroke: #000000; stroke-width: 0.5"/>
      </g>
     </g>
     <g id="line2d_82">
      <g>
       <use xlink:href="#mcf0da04c63" x="595.496314" y="270.110496" style="stroke: #000000; stroke-width: 0.5"/>
      </g>
     </g>
    </g>
    <g id="ytick_17">
     <g id="line2d_83">
      <g>
       <use xlink:href="#m646328f0e1" x="37.496314" y="255.117581" style="stroke: #000000; stroke-width: 0.5"/>
      </g>
     </g>
     <g id="line2d_84">
      <g>
       <use xlink:href="#mcf0da04c63" x="595.496314" y="255.117581" style="stroke: #000000; stroke-width: 0.5"/>
      </g>
     </g>
    </g>
    <g id="ytick_18">
     <g id="line2d_85">
      <g>
       <use xlink:href="#m646328f0e1" x="37.496314" y="247.621124" style="stroke: #000000; stroke-width: 0.5"/>
      </g>
     </g>
     <g id="line2d_86">
      <g>
       <use xlink:href="#mcf0da04c63" x="595.496314" y="247.621124" style="stroke: #000000; stroke-width: 0.5"/>
      </g>
     </g>
    </g>
    <g id="ytick_19">
     <g id="line2d_87">
      <g>
       <use xlink:href="#m646328f0e1" x="37.496314" y="240.124667" style="stroke: #000000; stroke-width: 0.5"/>
      </g>
     </g>
     <g id="line2d_88">
      <g>
       <use xlink:href="#mcf0da04c63" x="595.496314" y="240.124667" style="stroke: #000000; stroke-width: 0.5"/>
      </g>
     </g>
    </g>
    <g id="ytick_20">
     <g id="line2d_89">
      <g>
       <use xlink:href="#m646328f0e1" x="37.496314" y="232.62821" style="stroke: #000000; stroke-width: 0.5"/>
      </g>
     </g>
     <g id="line2d_90">
      <g>
       <use xlink:href="#mcf0da04c63" x="595.496314" y="232.62821" style="stroke: #000000; stroke-width: 0.5"/>
      </g>
     </g>
    </g>
    <g id="ytick_21">
     <g id="line2d_91">
      <g>
       <use xlink:href="#m646328f0e1" x="37.496314" y="217.635295" style="stroke: #000000; stroke-width: 0.5"/>
      </g>
     </g>
     <g id="line2d_92">
      <g>
       <use xlink:href="#mcf0da04c63" x="595.496314" y="217.635295" style="stroke: #000000; stroke-width: 0.5"/>
      </g>
     </g>
    </g>
    <g id="ytick_22">
     <g id="line2d_93">
      <g>
       <use xlink:href="#m646328f0e1" x="37.496314" y="210.138838" style="stroke: #000000; stroke-width: 0.5"/>
      </g>
     </g>
     <g id="line2d_94">
      <g>
       <use xlink:href="#mcf0da04c63" x="595.496314" y="210.138838" style="stroke: #000000; stroke-width: 0.5"/>
      </g>
     </g>
    </g>
    <g id="ytick_23">
     <g id="line2d_95">
      <g>
       <use xlink:href="#m646328f0e1" x="37.496314" y="202.642381" style="stroke: #000000; stroke-width: 0.5"/>
      </g>
     </g>
     <g id="line2d_96">
      <g>
       <use xlink:href="#mcf0da04c63" x="595.496314" y="202.642381" style="stroke: #000000; stroke-width: 0.5"/>
      </g>
     </g>
    </g>
    <g id="ytick_24">
     <g id="line2d_97">
      <g>
       <use xlink:href="#m646328f0e1" x="37.496314" y="195.145924" style="stroke: #000000; stroke-width: 0.5"/>
      </g>
     </g>
     <g id="line2d_98">
      <g>
       <use xlink:href="#mcf0da04c63" x="595.496314" y="195.145924" style="stroke: #000000; stroke-width: 0.5"/>
      </g>
     </g>
    </g>
    <g id="ytick_25">
     <g id="line2d_99">
      <g>
       <use xlink:href="#m646328f0e1" x="37.496314" y="180.153009" style="stroke: #000000; stroke-width: 0.5"/>
      </g>
     </g>
     <g id="line2d_100">
      <g>
       <use xlink:href="#mcf0da04c63" x="595.496314" y="180.153009" style="stroke: #000000; stroke-width: 0.5"/>
      </g>
     </g>
    </g>
    <g id="ytick_26">
     <g id="line2d_101">
      <g>
       <use xlink:href="#m646328f0e1" x="37.496314" y="172.656552" style="stroke: #000000; stroke-width: 0.5"/>
      </g>
     </g>
     <g id="line2d_102">
      <g>
       <use xlink:href="#mcf0da04c63" x="595.496314" y="172.656552" style="stroke: #000000; stroke-width: 0.5"/>
      </g>
     </g>
    </g>
    <g id="ytick_27">
     <g id="line2d_103">
      <g>
       <use xlink:href="#m646328f0e1" x="37.496314" y="165.160095" style="stroke: #000000; stroke-width: 0.5"/>
      </g>
     </g>
     <g id="line2d_104">
      <g>
       <use xlink:href="#mcf0da04c63" x="595.496314" y="165.160095" style="stroke: #000000; stroke-width: 0.5"/>
      </g>
     </g>
    </g>
    <g id="ytick_28">
     <g id="line2d_105">
      <g>
       <use xlink:href="#m646328f0e1" x="37.496314" y="157.663638" style="stroke: #000000; stroke-width: 0.5"/>
      </g>
     </g>
     <g id="line2d_106">
      <g>
       <use xlink:href="#mcf0da04c63" x="595.496314" y="157.663638" style="stroke: #000000; stroke-width: 0.5"/>
      </g>
     </g>
    </g>
    <g id="ytick_29">
     <g id="line2d_107">
      <g>
       <use xlink:href="#m646328f0e1" x="37.496314" y="142.670724" style="stroke: #000000; stroke-width: 0.5"/>
      </g>
     </g>
     <g id="line2d_108">
      <g>
       <use xlink:href="#mcf0da04c63" x="595.496314" y="142.670724" style="stroke: #000000; stroke-width: 0.5"/>
      </g>
     </g>
    </g>
    <g id="ytick_30">
     <g id="line2d_109">
      <g>
       <use xlink:href="#m646328f0e1" x="37.496314" y="135.174266" style="stroke: #000000; stroke-width: 0.5"/>
      </g>
     </g>
     <g id="line2d_110">
      <g>
       <use xlink:href="#mcf0da04c63" x="595.496314" y="135.174266" style="stroke: #000000; stroke-width: 0.5"/>
      </g>
     </g>
    </g>
    <g id="ytick_31">
     <g id="line2d_111">
      <g>
       <use xlink:href="#m646328f0e1" x="37.496314" y="127.677809" style="stroke: #000000; stroke-width: 0.5"/>
      </g>
     </g>
     <g id="line2d_112">
      <g>
       <use xlink:href="#mcf0da04c63" x="595.496314" y="127.677809" style="stroke: #000000; stroke-width: 0.5"/>
      </g>
     </g>
    </g>
    <g id="ytick_32">
     <g id="line2d_113">
      <g>
       <use xlink:href="#m646328f0e1" x="37.496314" y="120.181352" style="stroke: #000000; stroke-width: 0.5"/>
      </g>
     </g>
     <g id="line2d_114">
      <g>
       <use xlink:href="#mcf0da04c63" x="595.496314" y="120.181352" style="stroke: #000000; stroke-width: 0.5"/>
      </g>
     </g>
    </g>
    <g id="ytick_33">
     <g id="line2d_115">
      <g>
       <use xlink:href="#m646328f0e1" x="37.496314" y="105.188438" style="stroke: #000000; stroke-width: 0.5"/>
      </g>
     </g>
     <g id="line2d_116">
      <g>
       <use xlink:href="#mcf0da04c63" x="595.496314" y="105.188438" style="stroke: #000000; stroke-width: 0.5"/>
      </g>
     </g>
    </g>
    <g id="ytick_34">
     <g id="line2d_117">
      <g>
       <use xlink:href="#m646328f0e1" x="37.496314" y="97.691981" style="stroke: #000000; stroke-width: 0.5"/>
      </g>
     </g>
     <g id="line2d_118">
      <g>
       <use xlink:href="#mcf0da04c63" x="595.496314" y="97.691981" style="stroke: #000000; stroke-width: 0.5"/>
      </g>
     </g>
    </g>
    <g id="ytick_35">
     <g id="line2d_119">
      <g>
       <use xlink:href="#m646328f0e1" x="37.496314" y="90.195523" style="stroke: #000000; stroke-width: 0.5"/>
      </g>
     </g>
     <g id="line2d_120">
      <g>
       <use xlink:href="#mcf0da04c63" x="595.496314" y="90.195523" style="stroke: #000000; stroke-width: 0.5"/>
      </g>
     </g>
    </g>
    <g id="ytick_36">
     <g id="line2d_121">
      <g>
       <use xlink:href="#m646328f0e1" x="37.496314" y="82.699066" style="stroke: #000000; stroke-width: 0.5"/>
      </g>
     </g>
     <g id="line2d_122">
      <g>
       <use xlink:href="#mcf0da04c63" x="595.496314" y="82.699066" style="stroke: #000000; stroke-width: 0.5"/>
      </g>
     </g>
    </g>
    <g id="ytick_37">
     <g id="line2d_123">
      <g>
       <use xlink:href="#m646328f0e1" x="37.496314" y="67.706152" style="stroke: #000000; stroke-width: 0.5"/>
      </g>
     </g>
     <g id="line2d_124">
      <g>
       <use xlink:href="#mcf0da04c63" x="595.496314" y="67.706152" style="stroke: #000000; stroke-width: 0.5"/>
      </g>
     </g>
    </g>
    <g id="ytick_38">
     <g id="line2d_125">
      <g>
       <use xlink:href="#m646328f0e1" x="37.496314" y="60.209695" style="stroke: #000000; stroke-width: 0.5"/>
      </g>
     </g>
     <g id="line2d_126">
      <g>
       <use xlink:href="#mcf0da04c63" x="595.496314" y="60.209695" style="stroke: #000000; stroke-width: 0.5"/>
      </g>
     </g>
    </g>
    <g id="ytick_39">
     <g id="line2d_127">
      <g>
       <use xlink:href="#m646328f0e1" x="37.496314" y="52.713237" style="stroke: #000000; stroke-width: 0.5"/>
      </g>
     </g>
     <g id="line2d_128">
      <g>
       <use xlink:href="#mcf0da04c63" x="595.496314" y="52.713237" style="stroke: #000000; stroke-width: 0.5"/>
      </g>
     </g>
    </g>
    <g id="ytick_40">
     <g id="line2d_129">
      <g>
       <use xlink:href="#m646328f0e1" x="37.496314" y="45.21678" style="stroke: #000000; stroke-width: 0.5"/>
      </g>
     </g>
     <g id="line2d_130">
      <g>
       <use xlink:href="#mcf0da04c63" x="595.496314" y="45.21678" style="stroke: #000000; stroke-width: 0.5"/>
      </g>
     </g>
    </g>
    <g id="ytick_41">
     <g id="line2d_131">
      <g>
       <use xlink:href="#m646328f0e1" x="37.496314" y="30.223866" style="stroke: #000000; stroke-width: 0.5"/>
      </g>
     </g>
     <g id="line2d_132">
      <g>
       <use xlink:href="#mcf0da04c63" x="595.496314" y="30.223866" style="stroke: #000000; stroke-width: 0.5"/>
      </g>
     </g>
    </g>
    <g id="ytick_42">
     <g id="line2d_133">
      <g>
       <use xlink:href="#m646328f0e1" x="37.496314" y="22.727409" style="stroke: #000000; stroke-width: 0.5"/>
      </g>
     </g>
     <g id="line2d_134">
      <g>
       <use xlink:href="#mcf0da04c63" x="595.496314" y="22.727409" style="stroke: #000000; stroke-width: 0.5"/>
      </g>
     </g>
    </g>
    <g id="ytick_43">
     <g id="line2d_135">
      <g>
       <use xlink:href="#m646328f0e1" x="37.496314" y="15.230952" style="stroke: #000000; stroke-width: 0.5"/>
      </g>
     </g>
     <g id="line2d_136">
      <g>
       <use xlink:href="#mcf0da04c63" x="595.496314" y="15.230952" style="stroke: #000000; stroke-width: 0.5"/>
      </g>
     </g>
    </g>
    <g id="ytick_44">
     <g id="line2d_137">
      <g>
       <use xlink:href="#m646328f0e1" x="37.496314" y="7.734494" style="stroke: #000000; stroke-width: 0.5"/>
      </g>
     </g>
     <g id="line2d_138">
      <g>
       <use xlink:href="#mcf0da04c63" x="595.496314" y="7.734494" style="stroke: #000000; stroke-width: 0.5"/>
      </g>
     </g>
    </g>
   </g>
   <g id="line2d_139">
    <path d="M 62.85995 167.128292 
L 64.74527 222.371386 
L 66.569773 147.6491 
L 68.455093 101.073368 
L 70.279597 169.0865 
L 72.164917 171.192857 
L 74.050237 166.494905 
L 75.87474 240.552051 
L 77.76006 127.583121 
L 79.584563 114.082408 
L 81.469883 140.115112 
L 83.355203 153.264 
L 85.058073 176.624705 
L 86.943393 114.834061 
L 88.767896 177.870287 
L 90.653216 172.529779 
L 92.47772 196.902888 
L 94.36304 236.602974 
L 96.24836 142.770306 
L 98.072863 187.851932 
L 99.958183 161.639886 
L 101.782686 103.165109 
L 103.668006 159.076298 
L 105.553327 152.956921 
L 107.256196 201.069559 
L 109.141516 141.618333 
L 110.96602 112.691337 
L 112.85134 112.446829 
L 114.675843 109.603883 
L 116.561163 146.730343 
L 118.446483 152.444028 
L 120.270986 127.843741 
L 122.156306 136.114805 
L 123.98081 142.148889 
L 127.75145 115.014959 
L 129.515136 143.026012 
L 131.400456 162.982628 
L 133.22496 143.937089 
L 135.11028 170.671796 
L 136.934783 130.059532 
L 138.820103 168.19081 
L 140.705423 161.718864 
L 142.529926 130.652053 
L 144.415246 150.469069 
L 146.23975 116.23608 
L 148.12507 131.002 
L 150.01039 161.377657 
L 151.713259 138.694201 
L 153.598579 153.128788 
L 155.423083 169.531132 
L 157.308403 141.303331 
L 159.132906 135.070026 
L 161.018226 137.805193 
L 162.903546 148.923138 
L 164.728049 149.157532 
L 166.613369 171.226657 
L 168.437873 122.138566 
L 170.323193 135.35038 
L 172.208513 140.336201 
L 173.911383 151.387558 
L 175.796703 140.19855 
L 177.621206 145.29834 
L 179.506526 157.200457 
L 181.331029 171.887138 
L 183.216349 145.949795 
L 185.101669 134.328446 
L 186.926173 132.559745 
L 188.811493 124.642672 
L 190.635996 136.405229 
L 192.521316 135.318415 
L 194.406636 146.081908 
L 196.109506 139.380725 
L 197.994826 170.067773 
L 199.819329 120.554494 
L 201.704649 126.225109 
L 203.529152 148.655663 
L 205.414472 146.946187 
L 207.299792 183.475914 
L 209.124296 128.57846 
L 211.009616 129.163344 
L 212.834119 188.253644 
L 214.719439 142.101548 
L 216.604759 202.890047 
L 218.368446 163.270265 
L 220.253766 171.453105 
L 222.078269 120.299134 
L 223.963589 132.463661 
L 225.788092 184.026864 
L 227.673412 198.602983 
L 229.558732 135.910845 
L 231.383236 188.893974 
L 233.268556 321.12 
L 235.093059 219.650113 
L 236.978379 154.833853 
L 238.863699 160.471456 
L 240.566569 204.345465 
L 242.451889 196.340096 
L 244.276392 65.065496 
L 246.161712 103.680559 
L 247.986216 130.725229 
L 249.871536 142.356371 
L 251.756856 93.182789 
L 253.581359 124.75179 
L 255.466679 133.762558 
L 257.291182 135.971779 
L 259.176502 134.951761 
L 261.061822 141.30808 
L 262.764692 173.491102 
L 264.650012 108.084913 
L 266.474515 121.273764 
L 268.359835 196.832146 
L 270.184339 178.480583 
L 272.069659 152.634628 
L 273.954979 144.992132 
L 275.779482 126.549637 
L 277.664802 117.805605 
L 279.489305 132.893197 
L 281.374625 123.968291 
L 283.259946 125.758438 
L 284.962815 127.996408 
L 286.848135 159.663469 
L 288.672639 134.798336 
L 290.557959 146.348495 
L 292.382462 179.304703 
L 294.267782 128.415002 
L 296.153102 233.791286 
L 297.977605 157.431129 
L 299.862925 129.172832 
L 301.687429 138.3384 
L 303.572749 139.907631 
L 305.458069 116.414309 
L 307.221755 120.828282 
L 309.107075 130.069556 
L 312.816899 174.991827 
L 314.641402 160.176672 
L 316.526722 129.883049 
L 318.412042 126.470453 
L 320.236545 129.115775 
L 322.121865 153.081219 
L 323.946369 173.095079 
L 325.831689 135.380307 
L 327.717009 120.148313 
L 329.419878 134.180265 
L 331.305198 131.3121 
L 333.129702 140.62336 
L 335.015022 117.87447 
L 336.839525 159.861655 
L 338.724845 127.403219 
L 340.610165 149.534013 
L 344.319988 135.707142 
L 346.144492 122.986211 
L 348.029812 140.047399 
L 349.915132 144.145433 
L 351.618002 152.358816 
L 353.503322 131.232353 
L 355.327825 149.869557 
L 357.213145 139.978793 
L 359.037648 127.767151 
L 360.922968 140.219412 
L 362.808288 154.575944 
L 364.632792 138.149117 
L 366.518112 171.514597 
L 368.342615 109.75548 
L 370.227935 146.619066 
L 372.113255 159.748938 
L 373.816125 130.461853 
L 375.701445 150.96326 
L 377.525948 144.826975 
L 379.411268 144.079884 
L 381.235771 154.670875 
L 383.121091 152.008479 
L 386.830915 186.095819 
L 388.716235 119.793575 
L 390.540738 129.784271 
L 392.426058 159.791033 
L 394.311378 201.317237 
L 397.960385 105.274728 
L 399.784888 130.557222 
L 401.670208 153.784091 
L 403.494711 143.540459 
L 405.380031 127.138256 
L 407.265351 142.514215 
L 409.089855 154.760001 
L 410.975175 155.281381 
L 412.799678 142.521024 
L 414.684998 122.418615 
L 416.570318 140.720533 
L 418.273188 132.32798 
L 420.158508 138.384518 
L 421.983011 152.549614 
L 423.868331 138.802436 
L 425.692835 138.170954 
L 429.463475 149.519871 
L 431.287978 139.073144 
L 433.173298 131.117129 
L 434.997801 139.510194 
L 436.883121 129.99748 
L 438.768441 115.67333 
L 440.471311 173.262902 
L 442.356631 150.829783 
L 444.181134 163.922174 
L 446.066454 136.767295 
L 447.890958 135.64054 
L 449.776278 139.549255 
L 451.661598 133.139959 
L 453.486101 138.795994 
L 455.371421 180.763832 
L 457.195924 167.104942 
L 459.081244 194.366306 
L 460.966565 138.554372 
L 462.669434 108.923995 
L 464.554754 136.918533 
L 466.379258 123.944283 
L 468.264578 162.948612 
L 470.089081 140.912758 
L 471.974401 123.179432 
L 473.859721 175.256568 
L 475.684224 128.578239 
L 477.569544 151.29319 
L 479.394048 118.80314 
L 481.279368 133.01862 
L 483.164688 126.60068 
L 484.928374 150.37042 
L 486.813694 308.763546 
L 488.638198 119.818825 
L 490.523518 108.557594 
L 492.348021 104.099395 
L 494.233341 125.710406 
L 496.118661 108.332997 
L 497.943164 155.978979 
L 501.652988 122.128182 
L 503.538308 119.880978 
L 505.423628 130.458911 
L 507.126497 132.651884 
L 509.011817 144.95862 
L 510.836321 107.203114 
L 512.721641 145.354197 
L 514.546144 137.568057 
L 516.431464 128.34027 
L 518.316784 134.780228 
L 520.141287 151.626594 
L 522.026607 147.61448 
L 523.851111 116.21422 
L 525.736431 148.981817 
L 527.621751 166.534038 
L 529.324621 173.105649 
L 531.209941 157.762059 
L 533.034444 150.161926 
L 534.919764 212.605625 
L 536.744267 176.875083 
L 538.629587 147.713461 
L 540.514907 104.296368 
L 542.339411 207.860863 
L 544.224731 174.800075 
L 546.049234 112.608558 
L 547.934554 151.145206 
L 549.819874 140.973776 
L 551.522744 127.970231 
L 553.408064 170.869866 
L 555.232567 121.825949 
L 557.117887 145.686903 
L 558.94239 114.989468 
L 560.82771 122.611122 
L 562.71303 158.648653 
L 564.537534 158.328511 
L 566.422854 174.302728 
L 568.247357 117.415571 
L 570.132677 113.27416 
L 570.132677 113.27416 
" clip-path="url(#pe76b48fd84)" style="fill: none; stroke-dasharray: 3.7,1.6; stroke-dashoffset: 0; stroke: #000000"/>
   </g>
   <g id="line2d_140">
    <path d="M 62.85995 146.93839 
L 64.74527 154.136686 
L 66.569773 165.69031 
L 68.455093 161.653136 
L 70.279597 145.415127 
L 72.164917 154.475824 
L 74.050237 159.929105 
L 75.87474 147.918742 
L 77.76006 176.862459 
L 79.584563 140.668758 
L 81.469883 146.045588 
L 83.355203 160.545959 
L 85.058073 150.295191 
L 86.943393 154.525179 
L 88.767896 151.090681 
L 90.653216 155.744488 
L 92.47772 154.781206 
L 94.36304 156.576269 
L 96.24836 165.189129 
L 98.072863 137.502237 
L 99.958183 149.893939 
L 101.782686 157.58776 
L 103.668006 141.668712 
L 105.553327 154.021834 
L 107.256196 149.20394 
L 109.141516 158.60167 
L 110.96602 145.203082 
L 112.85134 142.386096 
L 114.675843 127.932362 
L 116.561163 130.201625 
L 118.446483 166.633222 
L 120.270986 158.807304 
L 122.156306 134.350685 
L 123.98081 145.42536 
L 125.86613 139.65057 
L 127.75145 137.48052 
L 129.515136 137.342869 
L 131.400456 148.167222 
L 133.22496 147.257886 
L 135.11028 151.78895 
L 136.934783 157.711222 
L 138.820103 134.771045 
L 140.705423 149.236042 
L 142.529926 145.471905 
L 144.415246 138.535887 
L 146.23975 149.967358 
L 148.12507 137.831727 
L 150.01039 147.084377 
L 151.713259 151.695183 
L 153.598579 143.945422 
L 155.423083 156.510784 
L 157.308403 150.288767 
L 159.132906 141.375922 
L 161.018226 140.483761 
L 162.903546 151.95413 
L 164.728049 148.043852 
L 166.613369 146.809621 
L 168.437873 155.700976 
L 170.323193 136.232819 
L 172.208513 144.364367 
L 173.911383 146.086474 
L 175.796703 151.474483 
L 177.621206 147.566701 
L 179.506526 154.378746 
L 181.331029 150.339293 
L 183.216349 152.735522 
L 185.101669 145.421174 
L 186.926173 141.571163 
L 188.811493 141.134707 
L 190.635996 142.185576 
L 192.521316 143.077247 
L 194.406636 143.449492 
L 196.109506 151.353168 
L 197.994826 144.780346 
L 199.819329 150.665221 
L 201.704649 140.22978 
L 203.529152 142.191637 
L 205.414472 153.522532 
L 207.299792 147.392382 
L 209.124296 150.990357 
L 211.009616 139.602994 
L 212.834119 141.736949 
L 214.719439 155.412769 
L 216.604759 148.796705 
L 218.368446 156.388302 
L 220.253766 152.697366 
L 222.078269 152.86004 
L 223.963589 150.062191 
L 225.788092 153.935577 
L 227.673412 167.740614 
L 229.558732 159.517343 
L 231.383236 142.697504 
L 233.268556 153.061067 
L 235.093059 197.575612 
L 236.978379 165.304691 
L 238.863699 166.358366 
L 240.566569 172.368102 
L 242.451889 183.299147 
L 244.276392 165.879379 
L 246.161712 116.487471 
L 247.986216 155.461794 
L 249.871536 154.357707 
L 251.756856 153.906543 
L 253.581359 139.43257 
L 255.466679 141.383855 
L 257.291182 142.662352 
L 259.176502 131.675419 
L 261.061822 135.561185 
L 262.764692 140.920001 
L 264.650012 150.662674 
L 266.474515 136.889149 
L 268.359835 141.766706 
L 270.184339 152.917825 
L 272.069659 149.490795 
L 273.954979 148.313675 
L 275.779482 145.014703 
L 277.664802 141.836522 
L 279.489305 140.086154 
L 281.374625 146.837085 
L 283.259946 149.35363 
L 284.962815 140.003142 
L 288.672639 149.8268 
L 290.557959 142.947437 
L 292.382462 147.248395 
L 294.267782 150.730697 
L 296.153102 140.761089 
L 297.977605 174.544226 
L 299.862925 143.736309 
L 301.687429 145.229933 
L 303.572749 144.426636 
L 305.458069 145.603587 
L 307.221755 138.846221 
L 309.107075 141.662694 
L 310.931579 147.976463 
L 312.816899 148.379286 
L 314.641402 147.318532 
L 316.526722 145.794318 
L 318.412042 139.810352 
L 320.236545 145.583723 
L 322.121865 140.834152 
L 323.946369 151.50503 
L 325.831689 151.337309 
L 327.717009 143.623851 
L 329.419878 145.901017 
L 331.305198 142.40932 
L 333.129702 142.002454 
L 335.015022 143.724295 
L 336.839525 143.185035 
L 338.724845 157.339487 
L 340.610165 140.695504 
L 342.434668 149.959748 
L 344.319988 148.433405 
L 346.144492 142.58022 
L 348.029812 143.674485 
L 349.915132 148.883766 
L 351.618002 148.614574 
L 353.503322 148.092986 
L 355.327825 142.251619 
L 357.213145 149.952229 
L 359.037648 145.070481 
L 360.922968 142.890664 
L 362.808288 145.493851 
L 364.632792 148.54007 
L 366.518112 145.673 
L 368.342615 150.023021 
L 370.227935 138.501517 
L 372.113255 147.549068 
L 373.816125 144.780295 
L 375.701445 143.615794 
L 377.525948 150.276466 
L 379.411268 147.618279 
L 381.235771 152.050072 
L 383.121091 149.475626 
L 385.006411 147.864168 
L 386.830915 149.083099 
L 388.716235 153.248256 
L 390.540738 139.496704 
L 392.426058 145.709903 
L 394.311378 149.20199 
L 396.075065 154.251052 
L 397.960385 144.664212 
L 399.784888 140.451319 
L 401.670208 141.684764 
L 403.494711 150.190963 
L 405.380031 146.487666 
L 407.265351 138.13812 
L 409.089855 150.94296 
L 410.975175 150.930776 
L 412.799678 150.692574 
L 414.684998 151.992379 
L 416.570318 142.261023 
L 418.273188 144.82474 
L 420.158508 143.063944 
L 421.983011 146.462231 
L 423.868331 148.57437 
L 425.692835 145.130737 
L 427.578155 144.263454 
L 429.463475 150.232983 
L 431.287978 148.620137 
L 433.173298 145.143201 
L 434.997801 144.84683 
L 436.883121 145.132163 
L 438.768441 142.513931 
L 440.471311 142.935917 
L 442.356631 155.14532 
L 444.181134 147.225187 
L 446.066454 149.956699 
L 447.890958 142.59649 
L 449.776278 143.261064 
L 451.661598 145.59762 
L 453.486101 142.763129 
L 455.371421 146.353605 
L 457.195924 152.957244 
L 459.081244 150.704674 
L 460.966565 152.311348 
L 462.669434 143.238318 
L 464.554754 137.56192 
L 466.379258 143.009414 
L 468.264578 140.584216 
L 470.089081 149.577796 
L 471.974401 140.241017 
L 473.859721 132.590392 
L 475.684224 151.039693 
L 477.569544 140.866053 
L 479.394048 150.597498 
L 481.279368 141.127907 
L 483.164688 143.028262 
L 484.928374 143.295618 
L 486.813694 152.68639 
L 488.638198 172.738962 
L 490.523518 88.784394 
L 492.348021 141.355459 
L 494.233341 143.281367 
L 496.118661 139.63997 
L 497.943164 139.244029 
L 499.828484 152.732403 
L 501.652988 147.69095 
L 503.538308 140.526125 
L 505.423628 140.742211 
L 507.126497 146.365281 
L 509.011817 140.504982 
L 510.836321 148.617925 
L 512.721641 137.089533 
L 514.546144 147.569903 
L 516.431464 143.858014 
L 518.316784 139.089239 
L 520.141287 142.142723 
L 522.026607 150.072188 
L 523.851111 148.37556 
L 525.736431 139.17856 
L 527.621751 149.459831 
L 529.324621 149.614211 
L 531.209941 151.18594 
L 533.034444 149.902603 
L 534.919764 151.378358 
L 536.744267 155.483401 
L 538.629587 150.371924 
L 540.514907 148.700784 
L 542.339411 137.289297 
L 544.224731 162.003054 
L 546.049234 152.966215 
L 547.934554 136.830792 
L 549.819874 150.139744 
L 551.522744 144.111158 
L 553.408064 143.775766 
L 555.232567 150.667079 
L 557.117887 140.26685 
L 558.94239 151.211492 
L 560.82771 140.698822 
L 562.71303 142.737936 
L 564.537534 152.680346 
L 566.422854 150.453466 
L 568.247357 151.907217 
L 570.132677 138.615438 
L 570.132677 138.615438 
" clip-path="url(#pe76b48fd84)" style="fill: none; stroke: #ff0000; stroke-linecap: square"/>
   </g>
   <g id="patch_3">
    <path d="M 37.496314 336.24 
L 37.496314 3.6 
" style="fill: none; stroke: #000000; stroke-width: 0.5; stroke-linejoin: miter; stroke-linecap: square"/>
   </g>
   <g id="patch_4">
    <path d="M 595.496314 336.24 
L 595.496314 3.6 
" style="fill: none; stroke: #000000; stroke-width: 0.5; stroke-linejoin: miter; stroke-linecap: square"/>
   </g>
   <g id="patch_5">
    <path d="M 37.496314 336.24 
L 595.496314 336.24 
" style="fill: none; stroke: #000000; stroke-width: 0.5; stroke-linejoin: miter; stroke-linecap: square"/>
   </g>
   <g id="patch_6">
    <path d="M 37.496314 3.6 
L 595.496314 3.6 
" style="fill: none; stroke: #000000; stroke-width: 0.5; stroke-linejoin: miter; stroke-linecap: square"/>
   </g>
   <g id="legend_1">
    <g id="line2d_141">
     <path d="M 48.296314 284.23564 
L 60.296314 284.23564 
L 72.296314 284.23564 
" style="fill: none; stroke-dasharray: 3.7,1.6; stroke-dashoffset: 0; stroke: #000000"/>
    </g>
    <g id="text_15">
     <!-- rendimenti SP 500 -->
     <g transform="translate(81.896314 288.43564) scale(0.12 -0.12)">
      <defs>
       <path id="CMR17-72" d="M 960 1517 
C 960 2134 1222 2713 1702 2713 
C 1747 2713 1792 2707 1837 2687 
C 1837 2687 1696 2642 1696 2475 
C 1696 2321 1818 2257 1914 2257 
C 1990 2257 2131 2302 2131 2482 
C 2131 2687 1926 2816 1709 2816 
C 1222 2816 1011 2340 947 2115 
L 941 2115 
L 941 2816 
L 198 2745 
L 198 2578 
C 576 2578 634 2540 634 2231 
L 634 443 
C 634 198 608 166 198 166 
L 198 0 
C 352 12 646 12 813 12 
C 998 12 1325 12 1498 0 
L 1498 166 
C 1037 166 960 166 960 455 
L 960 1517 
z
" transform="scale(0.015625)"/>
       <path id="CMR17-65" d="M 2438 1503 
C 2464 1529 2464 1542 2464 1606 
C 2464 2251 2118 2816 1389 2816 
C 710 2816 173 2175 173 1394 
C 173 554 781 -64 1459 -64 
C 2176 -64 2458 619 2458 755 
C 2458 800 2419 800 2406 800 
C 2362 800 2355 787 2330 709 
C 2189 270 1837 51 1504 51 
C 1229 51 954 206 781 490 
C 582 819 582 1200 582 1503 
L 2438 1503 
z
M 589 1600 
C 634 2511 1126 2713 1382 2713 
C 1818 2713 2112 2308 2118 1600 
L 589 1600 
z
" transform="scale(0.015625)"/>
       <path id="CMR17-6e" d="M 2656 1954 
C 2656 2282 2592 2816 1837 2816 
C 1331 2816 1069 2424 973 2166 
L 966 2166 
L 966 2816 
L 211 2745 
L 211 2578 
C 589 2578 646 2540 646 2231 
L 646 443 
C 646 198 621 166 211 166 
L 211 0 
C 365 12 646 12 813 12 
C 979 12 1267 12 1421 0 
L 1421 166 
C 1011 166 986 192 986 443 
L 986 1678 
C 986 2269 1344 2713 1792 2713 
C 2266 2713 2317 2289 2317 1980 
L 2317 443 
C 2317 198 2291 166 1882 166 
L 1882 0 
C 2035 12 2317 12 2483 12 
C 2650 12 2938 12 3091 0 
L 3091 166 
C 2682 166 2656 192 2656 443 
L 2656 1954 
z
" transform="scale(0.015625)"/>
       <path id="CMR17-64" d="M 1869 4345 
L 1869 4179 
C 2246 4179 2304 4141 2304 3843 
L 2304 2371 
C 2278 2403 2016 2816 1498 2816 
C 845 2816 211 2228 211 1376 
C 211 529 806 -64 1434 -64 
C 1978 -64 2259 361 2291 406 
L 2291 -64 
L 3066 -13 
L 3066 154 
C 2688 154 2630 193 2630 503 
L 2630 4416 
L 1869 4345 
z
M 2291 762 
C 2291 568 2176 393 2029 264 
C 1811 70 1594 38 1472 38 
C 1286 38 621 135 621 1369 
C 621 2636 1363 2713 1530 2713 
C 1824 2713 2061 2545 2208 2313 
C 2291 2177 2291 2157 2291 2041 
L 2291 762 
z
" transform="scale(0.015625)"/>
       <path id="CMR17-69" d="M 992 3961 
C 992 4102 877 4224 730 4224 
C 589 4224 467 4108 467 3961 
C 467 3820 582 3699 730 3699 
C 870 3699 992 3814 992 3961 
z
M 243 2745 
L 243 2579 
C 602 2579 653 2540 653 2231 
L 653 443 
C 653 198 627 166 218 166 
L 218 0 
C 371 12 646 12 806 12 
C 960 12 1222 12 1370 0 
L 1370 166 
C 992 166 979 205 979 436 
L 979 2816 
L 243 2745 
z
" transform="scale(0.015625)"/>
       <path id="CMR17-6d" d="M 4326 1954 
C 4326 2276 4269 2816 3507 2816 
C 3072 2816 2771 2520 2656 2173 
L 2650 2173 
C 2573 2700 2195 2816 1837 2816 
C 1331 2816 1069 2424 973 2166 
L 966 2166 
L 966 2816 
L 211 2745 
L 211 2578 
C 589 2578 646 2540 646 2231 
L 646 443 
C 646 198 621 166 211 166 
L 211 0 
C 365 12 646 12 813 12 
C 979 12 1267 12 1421 0 
L 1421 166 
C 1011 166 986 192 986 443 
L 986 1678 
C 986 2269 1344 2713 1792 2713 
C 2266 2713 2317 2289 2317 1980 
L 2317 443 
C 2317 198 2291 166 1882 166 
L 1882 0 
C 2035 12 2317 12 2483 12 
C 2650 12 2938 12 3091 0 
L 3091 166 
C 2682 166 2656 192 2656 443 
L 2656 1678 
C 2656 2269 3014 2713 3462 2713 
C 3936 2713 3987 2289 3987 1980 
L 3987 443 
C 3987 198 3962 166 3552 166 
L 3552 0 
C 3706 12 3987 12 4154 12 
C 4320 12 4608 12 4762 0 
L 4762 166 
C 4352 166 4326 192 4326 443 
L 4326 1954 
z
" transform="scale(0.015625)"/>
       <path id="CMR17-74" d="M 966 2585 
L 1862 2585 
L 1862 2752 
L 966 2752 
L 966 3968 
L 851 3968 
C 838 3292 614 2700 70 2687 
L 70 2585 
L 627 2585 
L 627 778 
C 627 655 627 -64 1370 -64 
C 1747 -64 1965 308 1965 784 
L 1965 1151 
L 1850 1151 
L 1850 790 
C 1850 347 1677 51 1408 51 
C 1222 51 966 179 966 765 
L 966 2585 
z
" transform="scale(0.015625)"/>
       <path id="CMR17-53" d="M 2803 4351 
C 2803 4467 2797 4473 2758 4473 
C 2720 4473 2707 4447 2682 4390 
L 2490 3965 
C 2246 4320 1875 4480 1472 4480 
C 819 4480 294 3958 294 3301 
C 294 3101 339 2817 557 2546 
C 794 2250 1018 2198 1530 2063 
C 1722 2011 2042 1927 2106 1901 
C 2470 1747 2662 1360 2662 999 
C 2662 534 2336 38 1779 38 
C 1094 38 454 425 410 1328 
C 403 1431 397 1437 352 1437 
C 301 1437 294 1431 294 1302 
L 294 0 
C 294 -116 301 -122 339 -122 
C 384 -122 397 -90 486 109 
C 493 128 493 141 614 386 
C 934 -39 1472 -128 1779 -128 
C 2477 -128 2970 457 2970 1141 
C 2970 1476 2848 1734 2778 1850 
C 2509 2263 2221 2340 1914 2417 
C 1869 2437 1856 2437 1498 2527 
C 1152 2617 1005 2662 845 2836 
C 666 3036 602 3243 602 3449 
C 602 3868 934 4326 1478 4326 
C 2157 4326 2579 3842 2675 3036 
C 2694 2920 2701 2914 2746 2914 
C 2803 2914 2803 2933 2803 3043 
L 2803 4351 
z
" transform="scale(0.015625)"/>
       <path id="CMR17-50" d="M 1267 2048 
L 2291 2048 
C 3117 2048 3718 2583 3718 3187 
C 3718 3791 3130 4352 2291 4352 
L 333 4352 
L 333 4185 
C 774 4185 845 4185 845 3899 
L 845 453 
C 845 166 774 166 333 166 
L 333 0 
C 518 12 858 12 1056 12 
C 1254 12 1594 12 1779 0 
L 1779 166 
C 1338 166 1267 166 1267 453 
L 1267 2048 
z
M 1254 2182 
L 1254 3937 
C 1254 4153 1267 4185 1523 4185 
L 2170 4185 
C 2995 4185 3232 3715 3232 3187 
C 3232 2608 2950 2182 2170 2182 
L 1254 2182 
z
" transform="scale(0.015625)"/>
      </defs>
      <use xlink:href="#CMR17-72" transform="scale(0.996264)"/>
      <use xlink:href="#CMR17-65" transform="translate(35.280768 0) scale(0.996264)"/>
      <use xlink:href="#CMR17-6e" transform="translate(75.766428 0) scale(0.996264)"/>
      <use xlink:href="#CMR17-64" transform="translate(126.661798 0) scale(0.996264)"/>
      <use xlink:href="#CMR17-69" transform="translate(177.557168 0) scale(0.996264)"/>
      <use xlink:href="#CMR17-6d" transform="translate(202.428226 0) scale(0.996264)"/>
      <use xlink:href="#CMR17-65" transform="translate(279.347816 0) scale(0.996264)"/>
      <use xlink:href="#CMR17-6e" transform="translate(319.833477 0) scale(0.996264)"/>
      <use xlink:href="#CMR17-74" transform="translate(368.126392 0) scale(0.996264)"/>
      <use xlink:href="#CMR17-69" transform="translate(403.40716 0) scale(0.996264)"/>
      <use xlink:href="#CMR17-53" transform="translate(458.354185 0) scale(0.996264)"/>
      <use xlink:href="#CMR17-50" transform="translate(509.249555 0) scale(0.996264)"/>
      <use xlink:href="#CMR17-35" transform="translate(601.911822 0) scale(0.996264)"/>
      <use xlink:href="#CMR17-30" transform="translate(647.602299 0) scale(0.996264)"/>
      <use xlink:href="#CMR17-30" transform="translate(693.292776 0) scale(0.996264)"/>
     </g>
    </g>
    <g id="line2d_142">
     <path d="M 48.296314 301.526612 
L 60.296314 301.526612 
L 72.296314 301.526612 
" style="fill: none; stroke: #ff0000; stroke-linecap: square"/>
    </g>
    <g id="text_16">
     <!-- combined forecast (BIC) -->
     <g transform="translate(81.896314 305.726612) scale(0.12 -0.12)">
      <defs>
       <path id="CMR17-63" d="M 2234 2240 
C 2112 2240 1933 2240 1933 2015 
C 1933 1836 2080 1785 2163 1785 
C 2208 1785 2394 1804 2394 2028 
C 2394 2476 1958 2816 1466 2816 
C 787 2816 211 2201 211 1379 
C 211 521 813 -64 1466 -64 
C 2259 -64 2458 676 2458 747 
C 2458 773 2451 792 2406 792 
C 2362 792 2355 786 2330 702 
C 2163 180 1798 51 1523 51 
C 1114 51 621 431 621 1385 
C 621 2358 1094 2700 1472 2700 
C 1722 2700 2093 2582 2234 2240 
z
" transform="scale(0.015625)"/>
       <path id="CMR17-6f" d="M 2758 1356 
C 2758 2176 2163 2816 1466 2816 
C 768 2816 173 2176 173 1356 
C 173 550 768 -64 1466 -64 
C 2163 -64 2758 550 2758 1356 
z
M 1466 51 
C 1165 51 909 230 762 480 
C 602 768 582 1126 582 1408 
C 582 1676 595 2009 762 2297 
C 890 2508 1139 2713 1466 2713 
C 1754 2713 1997 2553 2150 2329 
C 2349 2028 2349 1606 2349 1408 
C 2349 1158 2336 774 2163 467 
C 1984 172 1709 51 1466 51 
z
" transform="scale(0.015625)"/>
       <path id="CMR17-62" d="M 960 4416 
L 198 4345 
L 198 4179 
C 576 4179 634 4141 634 3843 
L 634 -13 
L 749 -13 
L 934 445 
C 1120 141 1395 -64 1766 -64 
C 2406 -64 3053 503 3053 1382 
C 3053 2209 2477 2816 1830 2816 
C 1434 2816 1152 2603 960 2351 
L 960 4416 
z
M 973 2022 
C 973 2138 973 2157 1062 2293 
C 1312 2681 1670 2713 1792 2713 
C 1984 2713 2643 2610 2643 1388 
C 2643 109 1888 38 1734 38 
C 1536 38 1248 115 1043 490 
C 973 613 973 626 973 742 
L 973 2022 
z
" transform="scale(0.015625)"/>
       <path id="CMR17-66" d="M 979 2585 
L 1709 2585 
L 1709 2752 
L 966 2752 
L 966 3539 
C 966 4076 1235 4377 1510 4377 
C 1594 4377 1690 4363 1754 4339 
C 1702 4326 1568 4281 1568 4121 
C 1568 3955 1696 3904 1786 3904 
C 1875 3904 2003 3955 2003 4121 
C 2003 4353 1773 4480 1517 4480 
C 1152 4480 653 4211 653 3526 
L 653 2752 
L 141 2752 
L 141 2585 
L 653 2585 
L 653 441 
C 653 198 627 166 218 166 
L 218 0 
C 371 12 666 12 832 12 
C 1018 12 1344 12 1517 0 
L 1517 166 
C 1056 166 979 166 979 454 
L 979 2585 
z
" transform="scale(0.015625)"/>
       <path id="CMR17-61" d="M 2304 1656 
C 2304 2048 2304 2275 2035 2534 
C 1798 2751 1523 2816 1306 2816 
C 800 2816 435 2408 435 1977 
C 435 1740 627 1728 666 1728 
C 749 1728 896 1779 896 1958 
C 896 2118 774 2188 666 2188 
C 640 2188 608 2182 589 2176 
C 723 2594 1069 2713 1293 2713 
C 1613 2713 1965 2421 1965 1875 
L 1965 1632 
C 1587 1619 1133 1568 774 1373 
C 371 1147 256 822 256 576 
C 256 77 832 -64 1171 -64 
C 1523 -64 1850 135 1990 505 
C 2003 219 2182 -39 2464 -39 
C 2598 -39 2938 51 2938 563 
L 2938 926 
L 2822 926 
L 2822 557 
C 2822 161 2650 109 2566 109 
C 2304 109 2304 446 2304 732 
L 2304 1656 
z
M 1965 887 
C 1965 323 1568 38 1216 38 
C 896 38 646 278 646 576 
C 646 771 730 1114 1101 1322 
C 1408 1497 1760 1523 1965 1536 
L 1965 887 
z
" transform="scale(0.015625)"/>
       <path id="CMR17-73" d="M 1978 2688 
C 1978 2803 1971 2809 1933 2809 
C 1907 2809 1901 2803 1824 2707 
C 1805 2681 1747 2617 1728 2592 
C 1523 2809 1235 2816 1126 2816 
C 416 2816 160 2444 160 2073 
C 160 1497 813 1363 998 1324 
C 1402 1241 1542 1216 1677 1100 
C 1760 1024 1901 883 1901 652 
C 1901 384 1747 38 1158 38 
C 602 38 403 460 288 1024 
C 269 1113 269 1120 218 1120 
C 166 1120 160 1113 160 985 
L 160 64 
C 160 -52 166 -58 205 -58 
C 237 -58 243 -52 275 0 
C 314 57 410 211 448 275 
C 576 102 800 -64 1158 -64 
C 1792 -64 2131 281 2131 780 
C 2131 1107 1958 1280 1875 1356 
C 1683 1555 1459 1600 1190 1651 
C 838 1728 390 1817 390 2208 
C 390 2374 480 2726 1126 2726 
C 1811 2726 1850 2086 1862 1881 
C 1869 1849 1901 1843 1920 1843 
C 1978 1843 1978 1862 1978 1971 
L 1978 2688 
z
" transform="scale(0.015625)"/>
       <path id="CMR17-28" d="M 1958 -1562 
C 1958 -1556 1958 -1543 1939 -1524 
C 1645 -1223 858 -403 858 1596 
C 858 3595 1632 4408 1946 4729 
C 1946 4735 1958 4748 1958 4767 
C 1958 4787 1939 4800 1914 4800 
C 1843 4800 1299 4325 986 3620 
C 666 2909 576 2218 576 1603 
C 576 1141 621 360 1005 -467 
C 1312 -1133 1837 -1600 1914 -1600 
C 1946 -1600 1958 -1588 1958 -1562 
z
" transform="scale(0.015625)"/>
       <path id="CMR17-42" d="M 333 4352 
L 333 4185 
C 774 4185 845 4185 845 3897 
L 845 451 
C 845 166 774 166 333 166 
L 333 0 
L 2534 0 
C 3354 0 3885 578 3885 1155 
C 3885 1726 3360 2214 2675 2259 
C 3290 2380 3718 2790 3718 3276 
C 3718 3808 3194 4352 2368 4352 
L 333 4352 
z
M 1248 2304 
L 1248 3936 
C 1248 4153 1261 4185 1517 4185 
L 2336 4185 
C 2970 4185 3251 3673 3251 3276 
C 3251 2790 2861 2304 2170 2304 
L 1248 2304 
z
M 1517 166 
C 1261 166 1248 198 1248 413 
L 1248 2201 
L 2432 2201 
C 3091 2201 3411 1624 3411 1161 
C 3411 698 3046 166 2349 166 
L 1517 166 
z
" transform="scale(0.015625)"/>
       <path id="CMR17-49" d="M 1261 3898 
C 1261 4185 1338 4185 1798 4185 
L 1798 4352 
C 1594 4339 1267 4339 1050 4339 
C 832 4339 506 4339 301 4352 
L 301 4185 
C 762 4185 838 4185 838 3898 
L 838 453 
C 838 166 762 166 301 166 
L 301 0 
C 506 12 832 12 1050 12 
C 1267 12 1594 12 1798 0 
L 1798 166 
C 1338 166 1261 166 1261 453 
L 1261 3898 
z
" transform="scale(0.015625)"/>
       <path id="CMR17-43" d="M 3974 4351 
C 3974 4467 3968 4473 3930 4473 
C 3904 4473 3898 4467 3853 4390 
L 3571 3849 
C 3258 4249 2874 4480 2381 4480 
C 1286 4480 294 3507 294 2179 
C 294 837 1286 -128 2387 -128 
C 3366 -128 3974 741 3974 1482 
C 3974 1547 3974 1573 3917 1573 
C 3866 1573 3866 1553 3859 1495 
C 3808 592 3168 38 2477 38 
C 1824 38 781 502 781 2179 
C 781 3862 1843 4313 2464 4313 
C 3187 4313 3712 3681 3834 2785 
C 3846 2707 3846 2695 3904 2695 
C 3974 2695 3974 2707 3974 2824 
L 3974 4351 
z
" transform="scale(0.015625)"/>
       <path id="CMR17-29" d="M 1683 1596 
C 1683 2057 1638 2839 1254 3665 
C 947 4332 422 4800 346 4800 
C 326 4800 301 4793 301 4761 
C 301 4748 307 4742 314 4729 
C 621 4408 1402 3595 1402 1603 
C 1402 -396 627 -1210 314 -1530 
C 307 -1543 301 -1549 301 -1562 
C 301 -1594 326 -1600 346 -1600 
C 416 -1600 960 -1127 1274 -422 
C 1594 289 1683 981 1683 1596 
z
" transform="scale(0.015625)"/>
      </defs>
      <use xlink:href="#CMR17-63" transform="scale(0.996264)"/>
      <use xlink:href="#CMR17-6f" transform="translate(40.48566 0) scale(0.996264)"/>
      <use xlink:href="#CMR17-6d" transform="translate(86.176138 0) scale(0.996264)"/>
      <use xlink:href="#CMR17-62" transform="translate(160.493274 0) scale(0.996264)"/>
      <use xlink:href="#CMR17-69" transform="translate(211.388643 0) scale(0.996264)"/>
      <use xlink:href="#CMR17-6e" transform="translate(236.259702 0) scale(0.996264)"/>
      <use xlink:href="#CMR17-65" transform="translate(287.155072 0) scale(0.996264)"/>
      <use xlink:href="#CMR17-64" transform="translate(327.640732 0) scale(0.996264)"/>
      <use xlink:href="#CMR17-66" transform="translate(408.612068 0) scale(0.996264)"/>
      <use xlink:href="#CMR17-6f" transform="translate(436.085581 0) scale(0.996264)"/>
      <use xlink:href="#CMR17-72" transform="translate(481.776058 0) scale(0.996264)"/>
      <use xlink:href="#CMR17-65" transform="translate(517.056825 0) scale(0.996264)"/>
      <use xlink:href="#CMR17-63" transform="translate(557.542486 0) scale(0.996264)"/>
      <use xlink:href="#CMR17-61" transform="translate(598.028146 0) scale(0.996264)"/>
      <use xlink:href="#CMR17-73" transform="translate(643.718624 0) scale(0.996264)"/>
      <use xlink:href="#CMR17-74" transform="translate(679.519961 0) scale(0.996264)"/>
      <use xlink:href="#CMR17-28" transform="translate(744.876695 0) scale(0.996264)"/>
      <use xlink:href="#CMR17-42" transform="translate(780.157463 0) scale(0.996264)"/>
      <use xlink:href="#CMR17-49" transform="translate(845.346218 0) scale(0.996264)"/>
      <use xlink:href="#CMR17-43" transform="translate(877.984627 0) scale(0.996264)"/>
      <use xlink:href="#CMR17-29" transform="translate(944.494507 0) scale(0.996264)"/>
     </g>
    </g>
    <g id="patch_7">
     <path d="M 48.296314 323.115404 
L 72.296314 323.115404 
L 72.296314 314.715404 
L 48.296314 314.715404 
z
" style="fill: #808080; fill-opacity: 0.3; stroke: #808080; stroke-opacity: 0.3; stroke-linejoin: miter"/>
    </g>
    <g id="text_17">
     <!-- 99 perc. CI -->
     <g transform="translate(81.896314 323.115404) scale(0.12 -0.12)">
      <defs>
       <path id="CMR17-39" d="M 2253 1871 
C 2253 448 1670 25 1190 25 
C 1043 25 685 43 538 281 
C 704 256 826 345 826 505 
C 826 678 685 736 595 736 
C 538 736 365 710 365 492 
C 365 68 742 -128 1203 -128 
C 1939 -128 2688 665 2688 2090 
C 2688 3857 1971 4224 1485 4224 
C 851 4224 243 3664 243 2800 
C 243 2000 762 1408 1414 1408 
C 1952 1408 2189 1910 2253 2122 
L 2253 1871 
z
M 1427 1510 
C 1254 1510 1011 1542 813 1929 
C 678 2181 678 2477 678 2793 
C 678 3174 678 3438 858 3722 
C 947 3857 1114 4076 1485 4076 
C 2240 4076 2240 2909 2240 2651 
C 2240 2193 2035 1510 1427 1510 
z
" transform="scale(0.015625)"/>
       <path id="CMR17-70" d="M 1408 -1114 
C 998 -1114 973 -1088 973 -834 
L 973 380 
C 1158 109 1427 -64 1766 -64 
C 2406 -64 3053 503 3053 1382 
C 3053 2196 2496 2816 1837 2816 
C 1453 2816 1139 2603 960 2345 
L 960 2816 
L 198 2745 
L 198 2577 
C 576 2577 634 2539 634 2228 
L 634 -834 
C 634 -1081 608 -1114 198 -1114 
L 198 -1280 
C 352 -1268 634 -1268 800 -1268 
C 966 -1268 1254 -1268 1408 -1280 
L 1408 -1114 
z
M 973 2015 
C 973 2106 973 2241 1222 2481 
C 1254 2506 1472 2700 1792 2700 
C 2259 2700 2643 2112 2643 1376 
C 2643 639 2234 38 1728 38 
C 1498 38 1248 148 1056 451 
C 973 594 973 632 973 736 
L 973 2015 
z
" transform="scale(0.015625)"/>
       <path id="CMR17-2e" d="M 1062 262 
C 1062 422 934 524 800 524 
C 672 524 538 422 538 262 
C 538 102 666 0 800 0 
C 928 0 1062 102 1062 262 
z
" transform="scale(0.015625)"/>
      </defs>
      <use xlink:href="#CMR17-39" transform="scale(0.996264)"/>
      <use xlink:href="#CMR17-39" transform="translate(45.690477 0) scale(0.996264)"/>
      <use xlink:href="#CMR17-70" transform="translate(121.456921 0) scale(0.996264)"/>
      <use xlink:href="#CMR17-65" transform="translate(174.954729 0) scale(0.996264)"/>
      <use xlink:href="#CMR17-72" transform="translate(215.44039 0) scale(0.996264)"/>
      <use xlink:href="#CMR17-63" transform="translate(250.721157 0) scale(0.996264)"/>
      <use xlink:href="#CMR17-2e" transform="translate(291.206818 0) scale(0.996264)"/>
      <use xlink:href="#CMR17-43" transform="translate(356.563537 0) scale(0.996264)"/>
      <use xlink:href="#CMR17-49" transform="translate(423.073417 0) scale(0.996264)"/>
     </g>
    </g>
   </g>
  </g>
 </g>
 <defs>
  <clipPath id="pe76b48fd84">
   <rect x="37.496314" y="3.6" width="558" height="332.64"/>
  </clipPath>
 </defs>
</svg>
