<?xml version="1.0" encoding="utf-8" standalone="no"?>
<!DOCTYPE svg PUBLIC "-//W3C//DTD SVG 1.1//EN"
  "http://www.w3.org/Graphics/SVG/1.1/DTD/svg11.dtd">
<svg xmlns:xlink="http://www.w3.org/1999/xlink" width="599.096314pt" height="359.281364pt" viewBox="0 0 599.096314 359.281364" xmlns="http://www.w3.org/2000/svg" version="1.1">
 <metadata>
  <rdf:RDF xmlns:dc="http://purl.org/dc/elements/1.1/" xmlns:cc="http://creativecommons.org/ns#" xmlns:rdf="http://www.w3.org/1999/02/22-rdf-syntax-ns#">
   <cc:Work>
    <dc:type rdf:resource="http://purl.org/dc/dcmitype/StillImage"/>
    <dc:date>2025-03-28T01:13:14.377187</dc:date>
    <dc:format>image/svg+xml</dc:format>
    <dc:creator>
     <cc:Agent>
      <dc:title>Matplotlib v3.9.2, https://matplotlib.org/</dc:title>
     </cc:Agent>
    </dc:creator>
   </cc:Work>
  </rdf:RDF>
 </metadata>
 <defs>
  <style type="text/css">*{stroke-linejoin: round; stroke-linecap: butt}</style>
 </defs>
 <g id="figure_1">
  <g id="patch_1">
   <path d="M 0 359.281364 
L 599.096314 359.281364 
L 599.096314 0 
L 0 0 
z
" style="fill: #ffffff"/>
  </g>
  <g id="axes_1">
   <g id="patch_2">
    <path d="M 37.496314 336.24 
L 595.496314 336.24 
L 595.496314 3.6 
L 37.496314 3.6 
z
" style="fill: #ffffff"/>
   </g>
   <g id="PolyCollection_1">
    <defs>
     <path id="m2a92ddc1a7" d="M 62.85995 -301.82343 
L 62.85995 -146.92308 
L 64.74527 -141.869188 
L 66.569773 -132.079139 
L 68.455093 -137.388852 
L 70.279597 -157.999541 
L 72.164917 -141.628684 
L 74.050237 -137.717773 
L 75.87474 -146.033372 
L 77.76006 -105.614794 
L 79.584563 -151.856376 
L 81.469883 -148.368782 
L 83.355203 -136.138857 
L 85.058073 -143.081328 
L 86.943393 -139.867463 
L 88.767896 -144.364086 
L 90.653216 -139.050853 
L 92.47772 -139.715269 
L 94.36304 -138.927054 
L 96.24836 -130.508095 
L 98.072863 -154.118751 
L 99.958183 -144.381207 
L 101.782686 -136.884128 
L 103.668006 -152.295237 
L 105.553327 -139.783794 
L 107.256196 -143.832024 
L 109.141516 -137.01086 
L 110.96602 -148.519851 
L 112.85134 -151.177195 
L 114.675843 -162.200551 
L 116.561163 -160.990199 
L 118.446483 -131.488289 
L 120.270986 -136.664063 
L 122.156306 -156.712971 
L 123.98081 -148.433889 
L 125.86613 -152.039598 
L 127.75145 -155.731041 
L 129.515136 -157.992896 
L 131.400456 -146.969603 
L 133.22496 -147.601954 
L 135.11028 -141.424176 
L 136.934783 -137.411651 
L 138.820103 -156.443858 
L 140.705423 -145.62769 
L 142.529926 -148.574753 
L 144.415246 -155.811532 
L 146.23975 -145.261288 
L 148.12507 -155.424017 
L 150.01039 -148.615599 
L 151.713259 -142.597502 
L 153.598579 -151.111165 
L 155.423083 -138.731513 
L 157.308403 -144.715222 
L 159.132906 -153.546481 
L 161.018226 -154.254791 
L 162.903546 -144.569615 
L 164.728049 -145.948078 
L 166.613369 -148.198684 
L 168.437873 -138.471669 
L 170.323193 -156.276806 
L 172.208513 -151.292898 
L 173.911383 -149.759573 
L 175.796703 -143.401552 
L 177.621206 -147.392023 
L 179.506526 -141.967396 
L 181.331029 -144.007963 
L 183.216349 -142.039105 
L 185.101669 -149.463715 
L 186.926173 -154.947757 
L 188.811493 -154.744955 
L 190.635996 -153.760621 
L 192.521316 -153.082086 
L 194.406636 -152.29561 
L 196.109506 -143.574749 
L 197.994826 -151.647917 
L 199.819329 -145.459562 
L 201.704649 -155.590831 
L 203.529152 -152.243483 
L 205.414472 -139.670472 
L 207.299792 -150.48123 
L 209.124296 -144.992318 
L 211.009616 -157.202997 
L 212.834119 -152.284698 
L 214.719439 -141.939218 
L 216.604759 -150.030334 
L 218.368446 -140.18348 
L 220.253766 -145.69876 
L 222.078269 -146.640553 
L 223.963589 -146.496175 
L 225.788092 -143.485179 
L 227.673412 -131.2393 
L 229.558732 -134.682966 
L 231.383236 -151.465806 
L 233.268556 -142.321539 
L 235.093059 -88.539833 
L 236.978379 -127.161154 
L 238.863699 -149.417846 
L 240.566569 -103.891439 
L 242.451889 -94.600921 
L 244.276392 -120.91613 
L 246.161712 -160.660105 
L 247.986216 -122.738659 
L 249.871536 -152.116985 
L 251.756856 -147.831009 
L 253.581359 -158.88191 
L 255.466679 -158.274113 
L 257.291182 -164.967075 
L 259.176502 -187.164173 
L 261.061822 -181.901255 
L 262.764692 -155.699148 
L 264.650012 -144.821248 
L 266.474515 -160.213533 
L 268.359835 -151.717746 
L 270.184339 -143.287219 
L 272.069659 -146.475135 
L 273.954979 -150.008639 
L 275.779482 -155.456529 
L 277.664802 -152.525585 
L 279.489305 -157.523921 
L 281.374625 -142.899479 
L 283.259946 -140.319618 
L 284.962815 -155.679449 
L 286.848135 -147.370764 
L 288.672639 -147.36703 
L 290.557959 -151.032152 
L 292.382462 -152.918 
L 294.267782 -143.745853 
L 296.153102 -154.751778 
L 297.977605 -137.070914 
L 299.862925 -155.589889 
L 301.687429 -145.108019 
L 303.572749 -154.245478 
L 305.458069 -149.919279 
L 307.221755 -157.666059 
L 309.107075 -153.721769 
L 310.931579 -142.076524 
L 312.816899 -150.191579 
L 314.641402 -151.010119 
L 316.526722 -152.463188 
L 318.412042 -156.604367 
L 320.236545 -145.235771 
L 322.121865 -153.470247 
L 323.946369 -142.771742 
L 325.831689 -144.962156 
L 327.717009 -150.261209 
L 329.419878 -146.133683 
L 331.305198 -151.054208 
L 333.129702 -153.005246 
L 335.015022 -155.768639 
L 336.839525 -148.952291 
L 338.724845 -133.415988 
L 340.610165 -153.608856 
L 342.434668 -145.701904 
L 344.319988 -148.32274 
L 346.144492 -155.260415 
L 348.029812 -150.211133 
L 349.915132 -144.183187 
L 351.618002 -149.084676 
L 353.503322 -150.217264 
L 355.327825 -152.595737 
L 357.213145 -146.111405 
L 359.037648 -153.714163 
L 360.922968 -151.657128 
L 362.808288 -150.97842 
L 364.632792 -149.381043 
L 366.518112 -148.445989 
L 368.342615 -147.932108 
L 370.227935 -156.938711 
L 372.113255 -150.576201 
L 373.816125 -155.54614 
L 375.701445 -148.199795 
L 377.525948 -144.259502 
L 379.411268 -151.414343 
L 381.235771 -140.185042 
L 383.121091 -145.930591 
L 385.006411 -149.106873 
L 386.830915 -147.743721 
L 388.716235 -139.504302 
L 390.540738 -159.038154 
L 392.426058 -144.701277 
L 394.311378 -146.198077 
L 396.075065 -139.625077 
L 397.960385 -157.213686 
L 399.784888 -152.745267 
L 401.670208 -154.102136 
L 403.494711 -145.004257 
L 405.380031 -154.804496 
L 407.265351 -160.081232 
L 409.089855 -143.919986 
L 410.975175 -143.070419 
L 412.799678 -143.045355 
L 414.684998 -140.720748 
L 416.570318 -151.082344 
L 418.273188 -152.506873 
L 420.158508 -152.360831 
L 421.983011 -148.303686 
L 423.868331 -150.853671 
L 425.692835 -150.846944 
L 427.578155 -154.038362 
L 429.463475 -144.374744 
L 431.287978 -150.134999 
L 433.173298 -151.269716 
L 434.997801 -147.594312 
L 436.883121 -150.929193 
L 438.768441 -152.271344 
L 440.471311 -151.000058 
L 442.356631 -136.657508 
L 444.181134 -151.649204 
L 446.066454 -144.941581 
L 447.890958 -152.278793 
L 449.776278 -153.230726 
L 451.661598 -150.559161 
L 453.486101 -152.759817 
L 455.371421 -147.98417 
L 457.195924 -138.936858 
L 459.081244 -145.820464 
L 460.966565 -144.230073 
L 462.669434 -155.211157 
L 464.554754 -160.473379 
L 466.379258 -153.131383 
L 468.264578 -156.510296 
L 470.089081 -147.400214 
L 471.974401 -161.226854 
L 473.859721 -169.436556 
L 475.684224 -142.144311 
L 477.569544 -154.510519 
L 479.394048 -145.700083 
L 481.279368 -154.621918 
L 483.164688 -151.258126 
L 484.928374 -155.145877 
L 486.813694 -151.864558 
L 488.638198 -135.443443 
L 490.523518 -188.629167 
L 492.348021 -154.888296 
L 494.233341 -150.921566 
L 496.118661 -159.446961 
L 497.943164 -154.237557 
L 499.828484 -139.930624 
L 501.652988 -143.575696 
L 503.538308 -153.064758 
L 505.423628 -152.823045 
L 507.126497 -145.649524 
L 509.011817 -152.594263 
L 510.836321 -145.03116 
L 512.721641 -161.397395 
L 514.546144 -150.060417 
L 516.431464 -154.313748 
L 518.316784 -159.630483 
L 520.141287 -152.795587 
L 522.026607 -144.528998 
L 523.851111 -147.313243 
L 525.736431 -159.117975 
L 527.621751 -149.301442 
L 529.324621 -142.357728 
L 531.209941 -144.08797 
L 533.034444 -145.568082 
L 534.919764 -141.679972 
L 536.744267 -136.973735 
L 538.629587 -143.924607 
L 540.514907 -151.448082 
L 542.339411 -159.748705 
L 544.224731 -126.566849 
L 546.049234 -141.862572 
L 547.934554 -160.729484 
L 549.819874 -147.755493 
L 551.522744 -152.228574 
L 553.408064 -149.391918 
L 555.232567 -144.248266 
L 557.117887 -158.692643 
L 558.94239 -143.46341 
L 560.82771 -154.99148 
L 562.71303 -151.733616 
L 564.537534 -140.232585 
L 566.422854 -144.41985 
L 568.247357 -140.804522 
L 570.132677 -160.784144 
L 570.132677 -312.110938 
L 570.132677 -312.110938 
L 568.247357 -292.112057 
L 566.422854 -295.749579 
L 564.537534 -291.60726 
L 562.71303 -303.149597 
L 560.82771 -306.438233 
L 558.94239 -294.884403 
L 557.117887 -310.163642 
L 555.232567 -295.723317 
L 553.408064 -300.889076 
L 551.522744 -303.755263 
L 549.819874 -299.331528 
L 547.934554 -312.335121 
L 546.049234 -293.433829 
L 544.224731 -278.179539 
L 542.339411 -311.107138 
L 540.514907 -302.766526 
L 538.629587 -295.292126 
L 536.744267 -288.37523 
L 534.919764 -292.936906 
L 533.034444 -296.87678 
L 531.209941 -295.44656 
L 529.324621 -293.749072 
L 527.621751 -300.733136 
L 525.736431 -310.592837 
L 523.851111 -298.782545 
L 522.026607 -296.047058 
L 520.141287 -304.366931 
L 518.316784 -311.246963 
L 516.431464 -305.965343 
L 514.546144 -301.748066 
L 512.721641 -313.130054 
L 510.836321 -296.717354 
L 509.011817 -304.329399 
L 507.126497 -297.429453 
L 505.423628 -304.644331 
L 503.538308 -304.914152 
L 501.652988 -295.426971 
L 499.828484 -291.819944 
L 497.943164 -306.167838 
L 496.118661 -311.383459 
L 494.233341 -302.890229 
L 492.348021 -306.8444 
L 490.523518 -340.561364 
L 488.638198 -287.308391 
L 486.813694 -302.309463 
L 484.928374 -305.648992 
L 483.164688 -301.789172 
L 481.279368 -305.200591 
L 479.394048 -296.272207 
L 477.569544 -305.129806 
L 475.684224 -292.776543 
L 473.859721 -319.997564 
L 471.974401 -311.826058 
L 470.089081 -298.045437 
L 468.264578 -307.170099 
L 466.379258 -303.82134 
L 464.554754 -311.215447 
L 462.669434 -305.945358 
L 460.966565 -295.006297 
L 459.081244 -296.544646 
L 457.195924 -289.697353 
L 455.371421 -298.743227 
L 453.486101 -303.570745 
L 451.661598 -301.404908 
L 449.776278 -304.128802 
L 447.890958 -303.224756 
L 446.066454 -295.931069 
L 444.181134 -302.677969 
L 442.356631 -287.734163 
L 440.471311 -302.156766 
L 438.768441 -303.434989 
L 436.883121 -302.131777 
L 434.997801 -298.846064 
L 433.173298 -302.561826 
L 431.287978 -301.474304 
L 429.463475 -295.772799 
L 427.578155 -305.488984 
L 425.692835 -302.340218 
L 423.868331 -302.395356 
L 421.983011 -299.900654 
L 420.158508 -304.007647 
L 418.273188 -304.127095 
L 416.570318 -302.751958 
L 414.684998 -292.379276 
L 412.799678 -294.752769 
L 410.975175 -294.900406 
L 409.089855 -295.809417 
L 407.265351 -312.024668 
L 405.380031 -306.789722 
L 403.494711 -297.030804 
L 401.670208 -306.173401 
L 399.784888 -304.854857 
L 397.960385 -309.308607 
L 396.075065 -291.775654 
L 394.311378 -298.240004 
L 392.426058 -296.797328 
L 390.540738 -311.178927 
L 388.716235 -291.62869 
L 386.830915 -299.837349 
L 385.006411 -301.240019 
L 383.121091 -298.118867 
L 381.235771 -292.413658 
L 379.411268 -303.695072 
L 377.525948 -296.592505 
L 375.701445 -300.585985 
L 373.816125 -307.980645 
L 372.113255 -303.057596 
L 370.227935 -309.472145 
L 368.342615 -300.442315 
L 366.518112 -300.981291 
L 364.632792 -301.960504 
L 362.808288 -303.609672 
L 360.922968 -304.341862 
L 359.037648 -306.436802 
L 357.213145 -298.88143 
L 355.327825 -305.419772 
L 353.503322 -303.083839 
L 351.618002 -302.003807 
L 349.915132 -297.150163 
L 348.029812 -303.229839 
L 346.144492 -308.315622 
L 344.319988 -301.431186 
L 342.434668 -298.861134 
L 340.610165 -306.8137 
L 338.724845 -286.603766 
L 336.839525 -302.187854 
L 335.015022 -309.030057 
L 333.129702 -306.319202 
L 331.305198 -304.413826 
L 329.419878 -299.535088 
L 327.717009 -303.679539 
L 325.831689 -298.424791 
L 323.946369 -296.272746 
L 322.121865 -306.951762 
L 320.236545 -298.758621 
L 318.412042 -310.224937 
L 316.526722 -306.119056 
L 314.641402 -304.712534 
L 312.816899 -303.90104 
L 310.931579 -295.780703 
L 309.107075 -307.473054 
L 307.221755 -311.460197 
L 305.458069 -303.718129 
L 303.572749 -308.099073 
L 301.687429 -299.003134 
L 299.862925 -309.525817 
L 297.977605 -291.063566 
L 296.153102 -308.275909 
L 294.267782 -297.293993 
L 292.382462 -306.437759 
L 290.557959 -304.610039 
L 288.672639 -300.986323 
L 286.848135 -301.038598 
L 284.962815 -309.397232 
L 283.259946 -294.044791 
L 281.374625 -296.637239 
L 279.489305 -311.317136 
L 277.664802 -306.34089 
L 275.779482 -309.303056 
L 273.954979 -303.912344 
L 272.069659 -300.441621 
L 270.184339 -297.268159 
L 268.359835 -305.576295 
L 266.474515 -314.111485 
L 264.650012 -298.671116 
L 262.764692 -309.553275 
L 261.061822 -330.124441 
L 259.176502 -335.397076 
L 257.291182 -313.215324 
L 255.466679 -306.572715 
L 253.581359 -307.208854 
L 251.756856 -293.517693 
L 249.871536 -297.843261 
L 247.986216 -270.995525 
L 246.161712 -308.872462 
L 244.276392 -274.338926 
L 242.451889 -245.354626 
L 240.566569 -254.647396 
L 238.863699 -300.225422 
L 236.978379 -280.704316 
L 235.093059 -242.696238 
L 233.268556 -295.638139 
L 231.383236 -304.715732 
L 229.558732 -287.187694 
L 227.673412 -284.502897 
L 225.788092 -296.749479 
L 223.963589 -299.797546 
L 222.078269 -299.185003 
L 220.253766 -297.632151 
L 218.368446 -292.172723 
L 216.604759 -301.879707 
L 214.719439 -293.835387 
L 212.834119 -304.109734 
L 211.009616 -309.068443 
L 209.124296 -296.901805 
L 207.299792 -302.347604 
L 205.414472 -291.58812 
L 203.529152 -304.215712 
L 201.704649 -307.602042 
L 199.819329 -297.484379 
L 197.994826 -303.687848 
L 196.109506 -295.660902 
L 194.406636 -304.442316 
L 192.521316 -305.281134 
L 190.635996 -306.018959 
L 188.811493 -307.989051 
L 186.926173 -308.241823 
L 185.101669 -302.807581 
L 183.216349 -295.442782 
L 181.331029 -297.439844 
L 179.506526 -295.458582 
L 177.621206 -300.944655 
L 175.796703 -297.006216 
L 173.911383 -303.42471 
L 172.208513 -305.017624 
L 170.323193 -310.057811 
L 168.437873 -292.256789 
L 166.613369 -302.00462 
L 164.728049 -299.817784 
L 162.903546 -298.478324 
L 161.018226 -308.222813 
L 159.132906 -307.56762 
L 157.308403 -298.793783 
L 155.423083 -292.861444 
L 153.598579 -305.29595 
L 151.713259 -296.832447 
L 150.01039 -302.894563 
L 148.12507 -309.758714 
L 146.23975 -299.591532 
L 144.415246 -310.195751 
L 142.529926 -303.001558 
L 140.705423 -300.105322 
L 138.820103 -310.928503 
L 136.934783 -291.91899 
L 135.11028 -295.978346 
L 133.22496 -302.217609 
L 131.400456 -301.633418 
L 129.515136 -312.713222 
L 127.75145 -310.467091 
L 125.86613 -306.843521 
L 123.98081 -303.290097 
L 122.156306 -311.627967 
L 120.270986 -292.123893 
L 118.446483 -287.003913 
L 116.561163 -316.557613 
L 114.675843 -317.789333 
L 112.85134 -306.77429 
L 110.96602 -304.106419 
L 109.141516 -292.639304 
L 107.256196 -299.354621 
L 105.553327 -295.374704 
L 103.668006 -307.934416 
L 101.782686 -292.396524 
L 99.958183 -299.953418 
L 98.072863 -309.612742 
L 96.24836 -286.023557 
L 94.36304 -294.080001 
L 92.47772 -294.815368 
L 90.653216 -294.194682 
L 88.767896 -299.519863 
L 86.943393 -294.985391 
L 85.058073 -298.22132 
L 83.355203 -291.341668 
L 81.469883 -303.630167 
L 79.584563 -307.127162 
L 77.76006 -261.238492 
L 75.87474 -301.171372 
L 74.050237 -291.965726 
L 72.164917 -295.918288 
L 70.279597 -313.218514 
L 68.455093 -291.565362 
L 66.569773 -286.305322 
L 64.74527 -296.727196 
L 62.85995 -301.82343 
z
" style="stroke: #808080; stroke-opacity: 0.3"/>
    </defs>
    <g clip-path="url(#p81d011b951)">
     <use xlink:href="#m2a92ddc1a7" x="0" y="359.281364" style="fill: #808080; fill-opacity: 0.3; stroke: #808080; stroke-opacity: 0.3"/>
    </g>
   </g>
   <g id="matplotlib.axis_1">
    <g id="xtick_1">
     <g id="line2d_1">
      <defs>
       <path id="m479ae97e4b" d="M 0 0 
L 0 -3 
" style="stroke: #000000; stroke-width: 0.5"/>
      </defs>
      <g>
       <use xlink:href="#m479ae97e4b" x="125.926946" y="336.24" style="stroke: #000000; stroke-width: 0.5"/>
      </g>
     </g>
     <g id="line2d_2">
      <defs>
       <path id="m851a4333f9" d="M 0 0 
L 0 3 
" style="stroke: #000000; stroke-width: 0.5"/>
      </defs>
      <g>
       <use xlink:href="#m851a4333f9" x="125.926946" y="3.6" style="stroke: #000000; stroke-width: 0.5"/>
      </g>
     </g>
     <g id="text_1">
      <!-- $\mathdefault{2004}$ -->
      <g transform="translate(109.478375 352.1933) scale(0.18 -0.18)">
       <defs>
        <path id="CMR17-32" d="M 2669 990 
L 2554 990 
C 2490 537 2438 460 2413 422 
C 2381 371 1920 371 1830 371 
L 602 371 
C 832 620 1280 1073 1824 1596 
C 2214 1966 2669 2400 2669 3033 
C 2669 3788 2067 4224 1395 4224 
C 691 4224 262 3603 262 3027 
C 262 2777 448 2745 525 2745 
C 589 2745 781 2783 781 3007 
C 781 3206 614 3264 525 3264 
C 486 3264 448 3257 422 3244 
C 544 3788 915 4057 1306 4057 
C 1862 4057 2227 3616 2227 3033 
C 2227 2477 1901 1998 1536 1583 
L 262 147 
L 262 0 
L 2515 0 
L 2669 990 
z
" transform="scale(0.015625)"/>
        <path id="CMR17-30" d="M 2688 2038 
C 2688 2430 2682 3099 2413 3613 
C 2176 4063 1798 4224 1466 4224 
C 1158 4224 768 4082 525 3620 
C 269 3137 243 2539 243 2038 
C 243 1671 250 1112 448 623 
C 723 -39 1216 -128 1466 -128 
C 1760 -128 2208 -7 2470 604 
C 2662 1048 2688 1568 2688 2038 
z
M 1466 -26 
C 1056 -26 813 328 723 816 
C 653 1196 653 1749 653 2109 
C 653 2604 653 3015 736 3407 
C 858 3954 1216 4121 1466 4121 
C 1728 4121 2067 3947 2189 3420 
C 2272 3054 2278 2623 2278 2109 
C 2278 1691 2278 1176 2202 797 
C 2067 96 1690 -26 1466 -26 
z
" transform="scale(0.015625)"/>
        <path id="CMR17-34" d="M 2150 4147 
C 2150 4281 2144 4288 2029 4288 
L 128 1254 
L 128 1088 
L 1779 1088 
L 1779 460 
C 1779 230 1766 166 1318 166 
L 1197 166 
L 1197 0 
C 1402 12 1747 12 1965 12 
C 2182 12 2528 12 2733 0 
L 2733 166 
L 2611 166 
C 2163 166 2150 230 2150 460 
L 2150 1088 
L 2803 1088 
L 2803 1254 
L 2150 1254 
L 2150 4147 
z
M 1798 3723 
L 1798 1254 
L 256 1254 
L 1798 3723 
z
" transform="scale(0.015625)"/>
       </defs>
       <use xlink:href="#CMR17-32" transform="scale(0.996264)"/>
       <use xlink:href="#CMR17-30" transform="translate(45.690477 0) scale(0.996264)"/>
       <use xlink:href="#CMR17-30" transform="translate(91.380954 0) scale(0.996264)"/>
       <use xlink:href="#CMR17-34" transform="translate(137.071431 0) scale(0.996264)"/>
      </g>
     </g>
    </g>
    <g id="xtick_2">
     <g id="line2d_3">
      <g>
       <use xlink:href="#m479ae97e4b" x="214.780256" y="336.24" style="stroke: #000000; stroke-width: 0.5"/>
      </g>
     </g>
     <g id="line2d_4">
      <g>
       <use xlink:href="#m851a4333f9" x="214.780256" y="3.6" style="stroke: #000000; stroke-width: 0.5"/>
      </g>
     </g>
     <g id="text_2">
      <!-- $\mathdefault{2008}$ -->
      <g transform="translate(198.331684 352.1933) scale(0.18 -0.18)">
       <defs>
        <path id="CMR17-38" d="M 1741 2289 
C 2144 2494 2554 2803 2554 3298 
C 2554 3884 1990 4224 1472 4224 
C 890 4224 378 3800 378 3215 
C 378 3054 416 2777 666 2533 
C 730 2469 998 2276 1171 2154 
C 883 2006 211 1652 211 945 
C 211 282 838 -128 1459 -128 
C 2144 -128 2720 366 2720 1022 
C 2720 1607 2330 1877 2074 2051 
L 1741 2289 
z
M 902 2855 
C 851 2887 595 3086 595 3388 
C 595 3781 998 4076 1459 4076 
C 1965 4076 2336 3716 2336 3298 
C 2336 2700 1670 2359 1638 2359 
C 1632 2359 1626 2359 1574 2398 
L 902 2855 
z
M 2080 1536 
C 2176 1466 2483 1253 2483 861 
C 2483 385 2010 25 1472 25 
C 890 25 448 443 448 951 
C 448 1459 838 1884 1280 2083 
L 2080 1536 
z
" transform="scale(0.015625)"/>
       </defs>
       <use xlink:href="#CMR17-32" transform="scale(0.996264)"/>
       <use xlink:href="#CMR17-30" transform="translate(45.690477 0) scale(0.996264)"/>
       <use xlink:href="#CMR17-30" transform="translate(91.380954 0) scale(0.996264)"/>
       <use xlink:href="#CMR17-38" transform="translate(137.071431 0) scale(0.996264)"/>
      </g>
     </g>
    </g>
    <g id="xtick_3">
     <g id="line2d_5">
      <g>
       <use xlink:href="#m479ae97e4b" x="303.633565" y="336.24" style="stroke: #000000; stroke-width: 0.5"/>
      </g>
     </g>
     <g id="line2d_6">
      <g>
       <use xlink:href="#m851a4333f9" x="303.633565" y="3.6" style="stroke: #000000; stroke-width: 0.5"/>
      </g>
     </g>
     <g id="text_3">
      <!-- $\mathdefault{2012}$ -->
      <g transform="translate(287.184994 352.1933) scale(0.18 -0.18)">
       <defs>
        <path id="CMR17-31" d="M 1702 4083 
C 1702 4217 1696 4224 1606 4224 
C 1357 3927 979 3833 621 3820 
C 602 3820 570 3820 563 3808 
C 557 3795 557 3782 557 3648 
C 755 3648 1088 3686 1344 3839 
L 1344 467 
C 1344 243 1331 166 781 166 
L 589 166 
L 589 0 
C 896 6 1216 12 1523 12 
C 1830 12 2150 6 2458 0 
L 2458 166 
L 2266 166 
C 1715 166 1702 236 1702 467 
L 1702 4083 
z
" transform="scale(0.015625)"/>
       </defs>
       <use xlink:href="#CMR17-32" transform="scale(0.996264)"/>
       <use xlink:href="#CMR17-30" transform="translate(45.690477 0) scale(0.996264)"/>
       <use xlink:href="#CMR17-31" transform="translate(91.380954 0) scale(0.996264)"/>
       <use xlink:href="#CMR17-32" transform="translate(137.071431 0) scale(0.996264)"/>
      </g>
     </g>
    </g>
    <g id="xtick_4">
     <g id="line2d_7">
      <g>
       <use xlink:href="#m479ae97e4b" x="392.486875" y="336.24" style="stroke: #000000; stroke-width: 0.5"/>
      </g>
     </g>
     <g id="line2d_8">
      <g>
       <use xlink:href="#m851a4333f9" x="392.486875" y="3.6" style="stroke: #000000; stroke-width: 0.5"/>
      </g>
     </g>
     <g id="text_4">
      <!-- $\mathdefault{2016}$ -->
      <g transform="translate(376.038303 352.1933) scale(0.18 -0.18)">
       <defs>
        <path id="CMR17-36" d="M 678 2198 
C 678 3712 1395 4076 1811 4076 
C 1946 4076 2272 4049 2400 3782 
C 2298 3782 2106 3782 2106 3558 
C 2106 3385 2246 3328 2336 3328 
C 2394 3328 2566 3353 2566 3571 
C 2566 3987 2246 4224 1805 4224 
C 1043 4224 243 3411 243 2011 
C 243 257 966 -128 1478 -128 
C 2099 -128 2688 431 2688 1295 
C 2688 2101 2170 2688 1517 2688 
C 1126 2688 838 2430 678 1979 
L 678 2198 
z
M 1478 25 
C 691 25 691 1212 691 1450 
C 691 1914 909 2585 1504 2585 
C 1613 2585 1926 2585 2138 2140 
C 2253 1889 2253 1624 2253 1302 
C 2253 954 2253 696 2118 438 
C 1978 173 1773 25 1478 25 
z
" transform="scale(0.015625)"/>
       </defs>
       <use xlink:href="#CMR17-32" transform="scale(0.996264)"/>
       <use xlink:href="#CMR17-30" transform="translate(45.690477 0) scale(0.996264)"/>
       <use xlink:href="#CMR17-31" transform="translate(91.380954 0) scale(0.996264)"/>
       <use xlink:href="#CMR17-36" transform="translate(137.071431 0) scale(0.996264)"/>
      </g>
     </g>
    </g>
    <g id="xtick_5">
     <g id="line2d_9">
      <g>
       <use xlink:href="#m479ae97e4b" x="481.340184" y="336.24" style="stroke: #000000; stroke-width: 0.5"/>
      </g>
     </g>
     <g id="line2d_10">
      <g>
       <use xlink:href="#m851a4333f9" x="481.340184" y="3.6" style="stroke: #000000; stroke-width: 0.5"/>
      </g>
     </g>
     <g id="text_5">
      <!-- $\mathdefault{2020}$ -->
      <g transform="translate(464.891613 352.1933) scale(0.18 -0.18)">
       <use xlink:href="#CMR17-32" transform="scale(0.996264)"/>
       <use xlink:href="#CMR17-30" transform="translate(45.690477 0) scale(0.996264)"/>
       <use xlink:href="#CMR17-32" transform="translate(91.380954 0) scale(0.996264)"/>
       <use xlink:href="#CMR17-30" transform="translate(137.071431 0) scale(0.996264)"/>
      </g>
     </g>
    </g>
    <g id="xtick_6">
     <g id="line2d_11">
      <g>
       <use xlink:href="#m479ae97e4b" x="570.193494" y="336.24" style="stroke: #000000; stroke-width: 0.5"/>
      </g>
     </g>
     <g id="line2d_12">
      <g>
       <use xlink:href="#m851a4333f9" x="570.193494" y="3.6" style="stroke: #000000; stroke-width: 0.5"/>
      </g>
     </g>
     <g id="text_6">
      <!-- $\mathdefault{2024}$ -->
      <g transform="translate(553.744922 352.1933) scale(0.18 -0.18)">
       <use xlink:href="#CMR17-32" transform="scale(0.996264)"/>
       <use xlink:href="#CMR17-30" transform="translate(45.690477 0) scale(0.996264)"/>
       <use xlink:href="#CMR17-32" transform="translate(91.380954 0) scale(0.996264)"/>
       <use xlink:href="#CMR17-34" transform="translate(137.071431 0) scale(0.996264)"/>
      </g>
     </g>
    </g>
    <g id="xtick_7">
     <g id="line2d_13">
      <defs>
       <path id="m9eff687276" d="M 0 0 
L 0 -1.5 
" style="stroke: #000000; stroke-width: 0.5"/>
      </defs>
      <g>
       <use xlink:href="#m9eff687276" x="59.286964" y="336.24" style="stroke: #000000; stroke-width: 0.5"/>
      </g>
     </g>
     <g id="line2d_14">
      <defs>
       <path id="m2b43a5b62c" d="M 0 0 
L 0 1.5 
" style="stroke: #000000; stroke-width: 0.5"/>
      </defs>
      <g>
       <use xlink:href="#m2b43a5b62c" x="59.286964" y="3.6" style="stroke: #000000; stroke-width: 0.5"/>
      </g>
     </g>
    </g>
    <g id="xtick_8">
     <g id="line2d_15">
      <g>
       <use xlink:href="#m9eff687276" x="81.500292" y="336.24" style="stroke: #000000; stroke-width: 0.5"/>
      </g>
     </g>
     <g id="line2d_16">
      <g>
       <use xlink:href="#m2b43a5b62c" x="81.500292" y="3.6" style="stroke: #000000; stroke-width: 0.5"/>
      </g>
     </g>
    </g>
    <g id="xtick_9">
     <g id="line2d_17">
      <g>
       <use xlink:href="#m9eff687276" x="103.713619" y="336.24" style="stroke: #000000; stroke-width: 0.5"/>
      </g>
     </g>
     <g id="line2d_18">
      <g>
       <use xlink:href="#m2b43a5b62c" x="103.713619" y="3.6" style="stroke: #000000; stroke-width: 0.5"/>
      </g>
     </g>
    </g>
    <g id="xtick_10">
     <g id="line2d_19">
      <g>
       <use xlink:href="#m9eff687276" x="148.140274" y="336.24" style="stroke: #000000; stroke-width: 0.5"/>
      </g>
     </g>
     <g id="line2d_20">
      <g>
       <use xlink:href="#m2b43a5b62c" x="148.140274" y="3.6" style="stroke: #000000; stroke-width: 0.5"/>
      </g>
     </g>
    </g>
    <g id="xtick_11">
     <g id="line2d_21">
      <g>
       <use xlink:href="#m9eff687276" x="170.353601" y="336.24" style="stroke: #000000; stroke-width: 0.5"/>
      </g>
     </g>
     <g id="line2d_22">
      <g>
       <use xlink:href="#m2b43a5b62c" x="170.353601" y="3.6" style="stroke: #000000; stroke-width: 0.5"/>
      </g>
     </g>
    </g>
    <g id="xtick_12">
     <g id="line2d_23">
      <g>
       <use xlink:href="#m9eff687276" x="192.566929" y="336.24" style="stroke: #000000; stroke-width: 0.5"/>
      </g>
     </g>
     <g id="line2d_24">
      <g>
       <use xlink:href="#m2b43a5b62c" x="192.566929" y="3.6" style="stroke: #000000; stroke-width: 0.5"/>
      </g>
     </g>
    </g>
    <g id="xtick_13">
     <g id="line2d_25">
      <g>
       <use xlink:href="#m9eff687276" x="236.993583" y="336.24" style="stroke: #000000; stroke-width: 0.5"/>
      </g>
     </g>
     <g id="line2d_26">
      <g>
       <use xlink:href="#m2b43a5b62c" x="236.993583" y="3.6" style="stroke: #000000; stroke-width: 0.5"/>
      </g>
     </g>
    </g>
    <g id="xtick_14">
     <g id="line2d_27">
      <g>
       <use xlink:href="#m9eff687276" x="259.206911" y="336.24" style="stroke: #000000; stroke-width: 0.5"/>
      </g>
     </g>
     <g id="line2d_28">
      <g>
       <use xlink:href="#m2b43a5b62c" x="259.206911" y="3.6" style="stroke: #000000; stroke-width: 0.5"/>
      </g>
     </g>
    </g>
    <g id="xtick_15">
     <g id="line2d_29">
      <g>
       <use xlink:href="#m9eff687276" x="281.420238" y="336.24" style="stroke: #000000; stroke-width: 0.5"/>
      </g>
     </g>
     <g id="line2d_30">
      <g>
       <use xlink:href="#m2b43a5b62c" x="281.420238" y="3.6" style="stroke: #000000; stroke-width: 0.5"/>
      </g>
     </g>
    </g>
    <g id="xtick_16">
     <g id="line2d_31">
      <g>
       <use xlink:href="#m9eff687276" x="325.846893" y="336.24" style="stroke: #000000; stroke-width: 0.5"/>
      </g>
     </g>
     <g id="line2d_32">
      <g>
       <use xlink:href="#m2b43a5b62c" x="325.846893" y="3.6" style="stroke: #000000; stroke-width: 0.5"/>
      </g>
     </g>
    </g>
    <g id="xtick_17">
     <g id="line2d_33">
      <g>
       <use xlink:href="#m9eff687276" x="348.06022" y="336.24" style="stroke: #000000; stroke-width: 0.5"/>
      </g>
     </g>
     <g id="line2d_34">
      <g>
       <use xlink:href="#m2b43a5b62c" x="348.06022" y="3.6" style="stroke: #000000; stroke-width: 0.5"/>
      </g>
     </g>
    </g>
    <g id="xtick_18">
     <g id="line2d_35">
      <g>
       <use xlink:href="#m9eff687276" x="370.273548" y="336.24" style="stroke: #000000; stroke-width: 0.5"/>
      </g>
     </g>
     <g id="line2d_36">
      <g>
       <use xlink:href="#m2b43a5b62c" x="370.273548" y="3.6" style="stroke: #000000; stroke-width: 0.5"/>
      </g>
     </g>
    </g>
    <g id="xtick_19">
     <g id="line2d_37">
      <g>
       <use xlink:href="#m9eff687276" x="414.700202" y="336.24" style="stroke: #000000; stroke-width: 0.5"/>
      </g>
     </g>
     <g id="line2d_38">
      <g>
       <use xlink:href="#m2b43a5b62c" x="414.700202" y="3.6" style="stroke: #000000; stroke-width: 0.5"/>
      </g>
     </g>
    </g>
    <g id="xtick_20">
     <g id="line2d_39">
      <g>
       <use xlink:href="#m9eff687276" x="436.91353" y="336.24" style="stroke: #000000; stroke-width: 0.5"/>
      </g>
     </g>
     <g id="line2d_40">
      <g>
       <use xlink:href="#m2b43a5b62c" x="436.91353" y="3.6" style="stroke: #000000; stroke-width: 0.5"/>
      </g>
     </g>
    </g>
    <g id="xtick_21">
     <g id="line2d_41">
      <g>
       <use xlink:href="#m9eff687276" x="459.126857" y="336.24" style="stroke: #000000; stroke-width: 0.5"/>
      </g>
     </g>
     <g id="line2d_42">
      <g>
       <use xlink:href="#m2b43a5b62c" x="459.126857" y="3.6" style="stroke: #000000; stroke-width: 0.5"/>
      </g>
     </g>
    </g>
    <g id="xtick_22">
     <g id="line2d_43">
      <g>
       <use xlink:href="#m9eff687276" x="503.553512" y="336.24" style="stroke: #000000; stroke-width: 0.5"/>
      </g>
     </g>
     <g id="line2d_44">
      <g>
       <use xlink:href="#m2b43a5b62c" x="503.553512" y="3.6" style="stroke: #000000; stroke-width: 0.5"/>
      </g>
     </g>
    </g>
    <g id="xtick_23">
     <g id="line2d_45">
      <g>
       <use xlink:href="#m9eff687276" x="525.766839" y="336.24" style="stroke: #000000; stroke-width: 0.5"/>
      </g>
     </g>
     <g id="line2d_46">
      <g>
       <use xlink:href="#m2b43a5b62c" x="525.766839" y="3.6" style="stroke: #000000; stroke-width: 0.5"/>
      </g>
     </g>
    </g>
    <g id="xtick_24">
     <g id="line2d_47">
      <g>
       <use xlink:href="#m9eff687276" x="547.980167" y="336.24" style="stroke: #000000; stroke-width: 0.5"/>
      </g>
     </g>
     <g id="line2d_48">
      <g>
       <use xlink:href="#m2b43a5b62c" x="547.980167" y="3.6" style="stroke: #000000; stroke-width: 0.5"/>
      </g>
     </g>
    </g>
    <g id="xtick_25">
     <g id="line2d_49">
      <g>
       <use xlink:href="#m9eff687276" x="592.406821" y="336.24" style="stroke: #000000; stroke-width: 0.5"/>
      </g>
     </g>
     <g id="line2d_50">
      <g>
       <use xlink:href="#m2b43a5b62c" x="592.406821" y="3.6" style="stroke: #000000; stroke-width: 0.5"/>
      </g>
     </g>
    </g>
   </g>
   <g id="matplotlib.axis_2">
    <g id="ytick_1">
     <g id="line2d_51">
      <defs>
       <path id="m91fe185c54" d="M 0 0 
L 3 0 
" style="stroke: #000000; stroke-width: 0.5"/>
      </defs>
      <g>
       <use xlink:href="#m91fe185c54" x="37.496314" y="298.669472" style="stroke: #000000; stroke-width: 0.5"/>
      </g>
     </g>
     <g id="line2d_52">
      <defs>
       <path id="m9acd27d474" d="M 0 0 
L -3 0 
" style="stroke: #000000; stroke-width: 0.5"/>
      </defs>
      <g>
       <use xlink:href="#m9acd27d474" x="595.496314" y="298.669472" style="stroke: #000000; stroke-width: 0.5"/>
      </g>
     </g>
     <g id="text_7">
      <!-- $\mathdefault{−20}$ -->
      <g transform="translate(3.6 304.896122) scale(0.18 -0.18)">
       <defs>
        <path id="CMSY10-0" d="M 4218 1472 
C 4326 1472 4442 1472 4442 1600 
C 4442 1728 4326 1728 4218 1728 
L 755 1728 
C 646 1728 531 1728 531 1600 
C 531 1472 646 1472 755 1472 
L 4218 1472 
z
" transform="scale(0.015625)"/>
       </defs>
       <use xlink:href="#CMSY10-0" transform="scale(0.996264)"/>
       <use xlink:href="#CMR17-32" transform="translate(77.487468 0) scale(0.996264)"/>
       <use xlink:href="#CMR17-30" transform="translate(123.177945 0) scale(0.996264)"/>
      </g>
     </g>
    </g>
    <g id="ytick_2">
     <g id="line2d_53">
      <g>
       <use xlink:href="#m91fe185c54" x="37.496314" y="258.643306" style="stroke: #000000; stroke-width: 0.5"/>
      </g>
     </g>
     <g id="line2d_54">
      <g>
       <use xlink:href="#m9acd27d474" x="595.496314" y="258.643306" style="stroke: #000000; stroke-width: 0.5"/>
      </g>
     </g>
     <g id="text_8">
      <!-- $\mathdefault{−15}$ -->
      <g transform="translate(3.6 264.869956) scale(0.18 -0.18)">
       <defs>
        <path id="CMR17-35" d="M 730 3750 
C 794 3724 1056 3641 1325 3641 
C 1920 3641 2246 3961 2432 4140 
C 2432 4191 2432 4224 2394 4224 
C 2387 4224 2374 4224 2323 4198 
C 2099 4102 1837 4032 1517 4032 
C 1325 4032 1037 4055 723 4191 
C 653 4224 640 4224 634 4224 
C 602 4224 595 4217 595 4090 
L 595 2231 
C 595 2113 595 2080 659 2080 
C 691 2080 704 2093 736 2139 
C 941 2435 1222 2560 1542 2560 
C 1766 2560 2246 2415 2246 1293 
C 2246 1087 2246 716 2054 422 
C 1894 159 1645 25 1370 25 
C 947 25 518 319 403 812 
C 429 806 480 793 506 793 
C 589 793 749 838 749 1036 
C 749 1209 627 1280 506 1280 
C 358 1280 262 1190 262 1011 
C 262 454 704 -128 1382 -128 
C 2042 -128 2669 441 2669 1267 
C 2669 2054 2170 2662 1549 2662 
C 1222 2662 947 2540 730 2304 
L 730 3750 
z
" transform="scale(0.015625)"/>
       </defs>
       <use xlink:href="#CMSY10-0" transform="scale(0.996264)"/>
       <use xlink:href="#CMR17-31" transform="translate(77.487468 0) scale(0.996264)"/>
       <use xlink:href="#CMR17-35" transform="translate(123.177945 0) scale(0.996264)"/>
      </g>
     </g>
    </g>
    <g id="ytick_3">
     <g id="line2d_55">
      <g>
       <use xlink:href="#m91fe185c54" x="37.496314" y="218.61714" style="stroke: #000000; stroke-width: 0.5"/>
      </g>
     </g>
     <g id="line2d_56">
      <g>
       <use xlink:href="#m9acd27d474" x="595.496314" y="218.61714" style="stroke: #000000; stroke-width: 0.5"/>
      </g>
     </g>
     <g id="text_9">
      <!-- $\mathdefault{−10}$ -->
      <g transform="translate(3.6 224.84379) scale(0.18 -0.18)">
       <use xlink:href="#CMSY10-0" transform="scale(0.996264)"/>
       <use xlink:href="#CMR17-31" transform="translate(77.487468 0) scale(0.996264)"/>
       <use xlink:href="#CMR17-30" transform="translate(123.177945 0) scale(0.996264)"/>
      </g>
     </g>
    </g>
    <g id="ytick_4">
     <g id="line2d_57">
      <g>
       <use xlink:href="#m91fe185c54" x="37.496314" y="178.590974" style="stroke: #000000; stroke-width: 0.5"/>
      </g>
     </g>
     <g id="line2d_58">
      <g>
       <use xlink:href="#m9acd27d474" x="595.496314" y="178.590974" style="stroke: #000000; stroke-width: 0.5"/>
      </g>
     </g>
     <g id="text_10">
      <!-- $\mathdefault{−5}$ -->
      <g transform="translate(11.824286 184.817624) scale(0.18 -0.18)">
       <use xlink:href="#CMSY10-0" transform="scale(0.996264)"/>
       <use xlink:href="#CMR17-35" transform="translate(77.487468 0) scale(0.996264)"/>
      </g>
     </g>
    </g>
    <g id="ytick_5">
     <g id="line2d_59">
      <g>
       <use xlink:href="#m91fe185c54" x="37.496314" y="138.564809" style="stroke: #000000; stroke-width: 0.5"/>
      </g>
     </g>
     <g id="line2d_60">
      <g>
       <use xlink:href="#m9acd27d474" x="595.496314" y="138.564809" style="stroke: #000000; stroke-width: 0.5"/>
      </g>
     </g>
     <g id="text_11">
      <!-- $\mathdefault{0}$ -->
      <g transform="translate(25.772028 144.791459) scale(0.18 -0.18)">
       <use xlink:href="#CMR17-30" transform="scale(0.996264)"/>
      </g>
     </g>
    </g>
    <g id="ytick_6">
     <g id="line2d_61">
      <g>
       <use xlink:href="#m91fe185c54" x="37.496314" y="98.538643" style="stroke: #000000; stroke-width: 0.5"/>
      </g>
     </g>
     <g id="line2d_62">
      <g>
       <use xlink:href="#m9acd27d474" x="595.496314" y="98.538643" style="stroke: #000000; stroke-width: 0.5"/>
      </g>
     </g>
     <g id="text_12">
      <!-- $\mathdefault{5}$ -->
      <g transform="translate(25.772028 104.765293) scale(0.18 -0.18)">
       <use xlink:href="#CMR17-35" transform="scale(0.996264)"/>
      </g>
     </g>
    </g>
    <g id="ytick_7">
     <g id="line2d_63">
      <g>
       <use xlink:href="#m91fe185c54" x="37.496314" y="58.512477" style="stroke: #000000; stroke-width: 0.5"/>
      </g>
     </g>
     <g id="line2d_64">
      <g>
       <use xlink:href="#m9acd27d474" x="595.496314" y="58.512477" style="stroke: #000000; stroke-width: 0.5"/>
      </g>
     </g>
     <g id="text_13">
      <!-- $\mathdefault{10}$ -->
      <g transform="translate(17.547742 64.739127) scale(0.18 -0.18)">
       <use xlink:href="#CMR17-31" transform="scale(0.996264)"/>
       <use xlink:href="#CMR17-30" transform="translate(45.690477 0) scale(0.996264)"/>
      </g>
     </g>
    </g>
    <g id="ytick_8">
     <g id="line2d_65">
      <g>
       <use xlink:href="#m91fe185c54" x="37.496314" y="18.486311" style="stroke: #000000; stroke-width: 0.5"/>
      </g>
     </g>
     <g id="line2d_66">
      <g>
       <use xlink:href="#m9acd27d474" x="595.496314" y="18.486311" style="stroke: #000000; stroke-width: 0.5"/>
      </g>
     </g>
     <g id="text_14">
      <!-- $\mathdefault{15}$ -->
      <g transform="translate(17.547742 24.712961) scale(0.18 -0.18)">
       <use xlink:href="#CMR17-31" transform="scale(0.996264)"/>
       <use xlink:href="#CMR17-35" transform="translate(45.690477 0) scale(0.996264)"/>
      </g>
     </g>
    </g>
    <g id="ytick_9">
     <g id="line2d_67">
      <defs>
       <path id="m8368a0c7a3" d="M 0 0 
L 1.5 0 
" style="stroke: #000000; stroke-width: 0.5"/>
      </defs>
      <g>
       <use xlink:href="#m8368a0c7a3" x="37.496314" y="330.690404" style="stroke: #000000; stroke-width: 0.5"/>
      </g>
     </g>
     <g id="line2d_68">
      <defs>
       <path id="m3af303183c" d="M 0 0 
L -1.5 0 
" style="stroke: #000000; stroke-width: 0.5"/>
      </defs>
      <g>
       <use xlink:href="#m3af303183c" x="595.496314" y="330.690404" style="stroke: #000000; stroke-width: 0.5"/>
      </g>
     </g>
    </g>
    <g id="ytick_10">
     <g id="line2d_69">
      <g>
       <use xlink:href="#m8368a0c7a3" x="37.496314" y="322.685171" style="stroke: #000000; stroke-width: 0.5"/>
      </g>
     </g>
     <g id="line2d_70">
      <g>
       <use xlink:href="#m3af303183c" x="595.496314" y="322.685171" style="stroke: #000000; stroke-width: 0.5"/>
      </g>
     </g>
    </g>
    <g id="ytick_11">
     <g id="line2d_71">
      <g>
       <use xlink:href="#m8368a0c7a3" x="37.496314" y="314.679938" style="stroke: #000000; stroke-width: 0.5"/>
      </g>
     </g>
     <g id="line2d_72">
      <g>
       <use xlink:href="#m3af303183c" x="595.496314" y="314.679938" style="stroke: #000000; stroke-width: 0.5"/>
      </g>
     </g>
    </g>
    <g id="ytick_12">
     <g id="line2d_73">
      <g>
       <use xlink:href="#m8368a0c7a3" x="37.496314" y="306.674705" style="stroke: #000000; stroke-width: 0.5"/>
      </g>
     </g>
     <g id="line2d_74">
      <g>
       <use xlink:href="#m3af303183c" x="595.496314" y="306.674705" style="stroke: #000000; stroke-width: 0.5"/>
      </g>
     </g>
    </g>
    <g id="ytick_13">
     <g id="line2d_75">
      <g>
       <use xlink:href="#m8368a0c7a3" x="37.496314" y="290.664238" style="stroke: #000000; stroke-width: 0.5"/>
      </g>
     </g>
     <g id="line2d_76">
      <g>
       <use xlink:href="#m3af303183c" x="595.496314" y="290.664238" style="stroke: #000000; stroke-width: 0.5"/>
      </g>
     </g>
    </g>
    <g id="ytick_14">
     <g id="line2d_77">
      <g>
       <use xlink:href="#m8368a0c7a3" x="37.496314" y="282.659005" style="stroke: #000000; stroke-width: 0.5"/>
      </g>
     </g>
     <g id="line2d_78">
      <g>
       <use xlink:href="#m3af303183c" x="595.496314" y="282.659005" style="stroke: #000000; stroke-width: 0.5"/>
      </g>
     </g>
    </g>
    <g id="ytick_15">
     <g id="line2d_79">
      <g>
       <use xlink:href="#m8368a0c7a3" x="37.496314" y="274.653772" style="stroke: #000000; stroke-width: 0.5"/>
      </g>
     </g>
     <g id="line2d_80">
      <g>
       <use xlink:href="#m3af303183c" x="595.496314" y="274.653772" style="stroke: #000000; stroke-width: 0.5"/>
      </g>
     </g>
    </g>
    <g id="ytick_16">
     <g id="line2d_81">
      <g>
       <use xlink:href="#m8368a0c7a3" x="37.496314" y="266.648539" style="stroke: #000000; stroke-width: 0.5"/>
      </g>
     </g>
     <g id="line2d_82">
      <g>
       <use xlink:href="#m3af303183c" x="595.496314" y="266.648539" style="stroke: #000000; stroke-width: 0.5"/>
      </g>
     </g>
    </g>
    <g id="ytick_17">
     <g id="line2d_83">
      <g>
       <use xlink:href="#m8368a0c7a3" x="37.496314" y="250.638073" style="stroke: #000000; stroke-width: 0.5"/>
      </g>
     </g>
     <g id="line2d_84">
      <g>
       <use xlink:href="#m3af303183c" x="595.496314" y="250.638073" style="stroke: #000000; stroke-width: 0.5"/>
      </g>
     </g>
    </g>
    <g id="ytick_18">
     <g id="line2d_85">
      <g>
       <use xlink:href="#m8368a0c7a3" x="37.496314" y="242.63284" style="stroke: #000000; stroke-width: 0.5"/>
      </g>
     </g>
     <g id="line2d_86">
      <g>
       <use xlink:href="#m3af303183c" x="595.496314" y="242.63284" style="stroke: #000000; stroke-width: 0.5"/>
      </g>
     </g>
    </g>
    <g id="ytick_19">
     <g id="line2d_87">
      <g>
       <use xlink:href="#m8368a0c7a3" x="37.496314" y="234.627606" style="stroke: #000000; stroke-width: 0.5"/>
      </g>
     </g>
     <g id="line2d_88">
      <g>
       <use xlink:href="#m3af303183c" x="595.496314" y="234.627606" style="stroke: #000000; stroke-width: 0.5"/>
      </g>
     </g>
    </g>
    <g id="ytick_20">
     <g id="line2d_89">
      <g>
       <use xlink:href="#m8368a0c7a3" x="37.496314" y="226.622373" style="stroke: #000000; stroke-width: 0.5"/>
      </g>
     </g>
     <g id="line2d_90">
      <g>
       <use xlink:href="#m3af303183c" x="595.496314" y="226.622373" style="stroke: #000000; stroke-width: 0.5"/>
      </g>
     </g>
    </g>
    <g id="ytick_21">
     <g id="line2d_91">
      <g>
       <use xlink:href="#m8368a0c7a3" x="37.496314" y="210.611907" style="stroke: #000000; stroke-width: 0.5"/>
      </g>
     </g>
     <g id="line2d_92">
      <g>
       <use xlink:href="#m3af303183c" x="595.496314" y="210.611907" style="stroke: #000000; stroke-width: 0.5"/>
      </g>
     </g>
    </g>
    <g id="ytick_22">
     <g id="line2d_93">
      <g>
       <use xlink:href="#m8368a0c7a3" x="37.496314" y="202.606674" style="stroke: #000000; stroke-width: 0.5"/>
      </g>
     </g>
     <g id="line2d_94">
      <g>
       <use xlink:href="#m3af303183c" x="595.496314" y="202.606674" style="stroke: #000000; stroke-width: 0.5"/>
      </g>
     </g>
    </g>
    <g id="ytick_23">
     <g id="line2d_95">
      <g>
       <use xlink:href="#m8368a0c7a3" x="37.496314" y="194.601441" style="stroke: #000000; stroke-width: 0.5"/>
      </g>
     </g>
     <g id="line2d_96">
      <g>
       <use xlink:href="#m3af303183c" x="595.496314" y="194.601441" style="stroke: #000000; stroke-width: 0.5"/>
      </g>
     </g>
    </g>
    <g id="ytick_24">
     <g id="line2d_97">
      <g>
       <use xlink:href="#m8368a0c7a3" x="37.496314" y="186.596207" style="stroke: #000000; stroke-width: 0.5"/>
      </g>
     </g>
     <g id="line2d_98">
      <g>
       <use xlink:href="#m3af303183c" x="595.496314" y="186.596207" style="stroke: #000000; stroke-width: 0.5"/>
      </g>
     </g>
    </g>
    <g id="ytick_25">
     <g id="line2d_99">
      <g>
       <use xlink:href="#m8368a0c7a3" x="37.496314" y="170.585741" style="stroke: #000000; stroke-width: 0.5"/>
      </g>
     </g>
     <g id="line2d_100">
      <g>
       <use xlink:href="#m3af303183c" x="595.496314" y="170.585741" style="stroke: #000000; stroke-width: 0.5"/>
      </g>
     </g>
    </g>
    <g id="ytick_26">
     <g id="line2d_101">
      <g>
       <use xlink:href="#m8368a0c7a3" x="37.496314" y="162.580508" style="stroke: #000000; stroke-width: 0.5"/>
      </g>
     </g>
     <g id="line2d_102">
      <g>
       <use xlink:href="#m3af303183c" x="595.496314" y="162.580508" style="stroke: #000000; stroke-width: 0.5"/>
      </g>
     </g>
    </g>
    <g id="ytick_27">
     <g id="line2d_103">
      <g>
       <use xlink:href="#m8368a0c7a3" x="37.496314" y="154.575275" style="stroke: #000000; stroke-width: 0.5"/>
      </g>
     </g>
     <g id="line2d_104">
      <g>
       <use xlink:href="#m3af303183c" x="595.496314" y="154.575275" style="stroke: #000000; stroke-width: 0.5"/>
      </g>
     </g>
    </g>
    <g id="ytick_28">
     <g id="line2d_105">
      <g>
       <use xlink:href="#m8368a0c7a3" x="37.496314" y="146.570042" style="stroke: #000000; stroke-width: 0.5"/>
      </g>
     </g>
     <g id="line2d_106">
      <g>
       <use xlink:href="#m3af303183c" x="595.496314" y="146.570042" style="stroke: #000000; stroke-width: 0.5"/>
      </g>
     </g>
    </g>
    <g id="ytick_29">
     <g id="line2d_107">
      <g>
       <use xlink:href="#m8368a0c7a3" x="37.496314" y="130.559575" style="stroke: #000000; stroke-width: 0.5"/>
      </g>
     </g>
     <g id="line2d_108">
      <g>
       <use xlink:href="#m3af303183c" x="595.496314" y="130.559575" style="stroke: #000000; stroke-width: 0.5"/>
      </g>
     </g>
    </g>
    <g id="ytick_30">
     <g id="line2d_109">
      <g>
       <use xlink:href="#m8368a0c7a3" x="37.496314" y="122.554342" style="stroke: #000000; stroke-width: 0.5"/>
      </g>
     </g>
     <g id="line2d_110">
      <g>
       <use xlink:href="#m3af303183c" x="595.496314" y="122.554342" style="stroke: #000000; stroke-width: 0.5"/>
      </g>
     </g>
    </g>
    <g id="ytick_31">
     <g id="line2d_111">
      <g>
       <use xlink:href="#m8368a0c7a3" x="37.496314" y="114.549109" style="stroke: #000000; stroke-width: 0.5"/>
      </g>
     </g>
     <g id="line2d_112">
      <g>
       <use xlink:href="#m3af303183c" x="595.496314" y="114.549109" style="stroke: #000000; stroke-width: 0.5"/>
      </g>
     </g>
    </g>
    <g id="ytick_32">
     <g id="line2d_113">
      <g>
       <use xlink:href="#m8368a0c7a3" x="37.496314" y="106.543876" style="stroke: #000000; stroke-width: 0.5"/>
      </g>
     </g>
     <g id="line2d_114">
      <g>
       <use xlink:href="#m3af303183c" x="595.496314" y="106.543876" style="stroke: #000000; stroke-width: 0.5"/>
      </g>
     </g>
    </g>
    <g id="ytick_33">
     <g id="line2d_115">
      <g>
       <use xlink:href="#m8368a0c7a3" x="37.496314" y="90.53341" style="stroke: #000000; stroke-width: 0.5"/>
      </g>
     </g>
     <g id="line2d_116">
      <g>
       <use xlink:href="#m3af303183c" x="595.496314" y="90.53341" style="stroke: #000000; stroke-width: 0.5"/>
      </g>
     </g>
    </g>
    <g id="ytick_34">
     <g id="line2d_117">
      <g>
       <use xlink:href="#m8368a0c7a3" x="37.496314" y="82.528177" style="stroke: #000000; stroke-width: 0.5"/>
      </g>
     </g>
     <g id="line2d_118">
      <g>
       <use xlink:href="#m3af303183c" x="595.496314" y="82.528177" style="stroke: #000000; stroke-width: 0.5"/>
      </g>
     </g>
    </g>
    <g id="ytick_35">
     <g id="line2d_119">
      <g>
       <use xlink:href="#m8368a0c7a3" x="37.496314" y="74.522943" style="stroke: #000000; stroke-width: 0.5"/>
      </g>
     </g>
     <g id="line2d_120">
      <g>
       <use xlink:href="#m3af303183c" x="595.496314" y="74.522943" style="stroke: #000000; stroke-width: 0.5"/>
      </g>
     </g>
    </g>
    <g id="ytick_36">
     <g id="line2d_121">
      <g>
       <use xlink:href="#m8368a0c7a3" x="37.496314" y="66.51771" style="stroke: #000000; stroke-width: 0.5"/>
      </g>
     </g>
     <g id="line2d_122">
      <g>
       <use xlink:href="#m3af303183c" x="595.496314" y="66.51771" style="stroke: #000000; stroke-width: 0.5"/>
      </g>
     </g>
    </g>
    <g id="ytick_37">
     <g id="line2d_123">
      <g>
       <use xlink:href="#m8368a0c7a3" x="37.496314" y="50.507244" style="stroke: #000000; stroke-width: 0.5"/>
      </g>
     </g>
     <g id="line2d_124">
      <g>
       <use xlink:href="#m3af303183c" x="595.496314" y="50.507244" style="stroke: #000000; stroke-width: 0.5"/>
      </g>
     </g>
    </g>
    <g id="ytick_38">
     <g id="line2d_125">
      <g>
       <use xlink:href="#m8368a0c7a3" x="37.496314" y="42.502011" style="stroke: #000000; stroke-width: 0.5"/>
      </g>
     </g>
     <g id="line2d_126">
      <g>
       <use xlink:href="#m3af303183c" x="595.496314" y="42.502011" style="stroke: #000000; stroke-width: 0.5"/>
      </g>
     </g>
    </g>
    <g id="ytick_39">
     <g id="line2d_127">
      <g>
       <use xlink:href="#m8368a0c7a3" x="37.496314" y="34.496778" style="stroke: #000000; stroke-width: 0.5"/>
      </g>
     </g>
     <g id="line2d_128">
      <g>
       <use xlink:href="#m3af303183c" x="595.496314" y="34.496778" style="stroke: #000000; stroke-width: 0.5"/>
      </g>
     </g>
    </g>
    <g id="ytick_40">
     <g id="line2d_129">
      <g>
       <use xlink:href="#m8368a0c7a3" x="37.496314" y="26.491545" style="stroke: #000000; stroke-width: 0.5"/>
      </g>
     </g>
     <g id="line2d_130">
      <g>
       <use xlink:href="#m3af303183c" x="595.496314" y="26.491545" style="stroke: #000000; stroke-width: 0.5"/>
      </g>
     </g>
    </g>
    <g id="ytick_41">
     <g id="line2d_131">
      <g>
       <use xlink:href="#m8368a0c7a3" x="37.496314" y="10.481078" style="stroke: #000000; stroke-width: 0.5"/>
      </g>
     </g>
     <g id="line2d_132">
      <g>
       <use xlink:href="#m3af303183c" x="595.496314" y="10.481078" style="stroke: #000000; stroke-width: 0.5"/>
      </g>
     </g>
    </g>
   </g>
   <g id="line2d_133">
    <path d="M 62.85995 156.677051 
L 64.74527 215.66943 
L 66.569773 135.875829 
L 68.455093 86.139055 
L 70.279597 158.768161 
L 72.164917 161.017474 
L 74.050237 156.000677 
L 75.87474 235.083997 
L 77.76006 114.447995 
L 79.584563 100.031004 
L 81.469883 127.830517 
L 83.355203 141.871805 
L 85.058073 166.817975 
L 86.943393 100.833671 
L 88.767896 168.148093 
L 90.653216 162.445131 
L 92.47772 188.472415 
L 94.36304 230.8669 
L 96.24836 130.665916 
L 98.072863 178.807181 
L 99.958183 150.816153 
L 101.782686 88.37276 
L 103.668006 148.078577 
L 105.553327 141.543885 
L 107.256196 192.921873 
L 109.141516 129.43576 
L 110.96602 98.545522 
L 112.85134 98.28442 
L 114.675843 95.248526 
L 116.561163 134.894716 
L 118.446483 140.996183 
L 120.270986 114.726303 
L 122.156306 123.558714 
L 123.98081 130.002324 
L 127.75145 101.026845 
L 129.515136 130.938977 
L 131.400456 152.250025 
L 133.22496 131.911888 
L 135.11028 160.461049 
L 136.934783 117.092477 
L 138.820103 157.811681 
L 140.705423 150.900492 
L 142.529926 117.725211 
L 144.415246 138.887186 
L 146.23975 102.330842 
L 148.12507 118.098909 
L 150.01039 150.536127 
L 151.713259 126.313171 
L 153.598579 141.727417 
L 155.423083 159.242969 
L 157.308403 129.09938 
L 159.132906 122.443027 
L 161.018226 125.363827 
L 162.903546 137.236334 
L 164.728049 137.486636 
L 166.613369 161.053567 
L 168.437873 108.633924 
L 170.323193 122.742409 
L 172.208513 128.066612 
L 173.911383 139.868011 
L 175.796703 127.919619 
L 177.621206 133.365526 
L 179.506526 146.075425 
L 181.331029 161.758874 
L 183.216349 134.061194 
L 185.101669 121.651118 
L 186.926173 119.762376 
L 188.811493 111.30798 
L 190.635996 123.868849 
L 192.521316 122.708275 
L 194.406636 134.202273 
L 196.109506 127.046289 
L 197.994826 159.816031 
L 199.819329 106.942342 
L 201.704649 112.997816 
L 203.529152 136.950706 
L 205.414472 135.125209 
L 207.299792 174.134167 
L 209.124296 115.510886 
L 211.009616 116.135466 
L 212.834119 179.236157 
L 214.719439 129.95177 
L 216.604759 194.865915 
L 218.368446 152.557184 
L 220.253766 161.295384 
L 222.078269 106.669652 
L 223.963589 119.659771 
L 225.788092 174.72251 
L 227.673412 190.287893 
L 229.558732 123.340911 
L 231.383236 179.919945 
L 233.268556 321.12 
L 235.093059 212.763467 
L 236.978379 143.548203 
L 238.863699 149.568423 
L 240.566569 196.420111 
L 242.451889 187.871426 
L 244.276392 47.68737 
L 246.161712 88.923193 
L 247.986216 117.803354 
L 249.871536 130.223888 
L 251.756856 77.712951 
L 253.581359 111.424505 
L 255.466679 121.046823 
L 257.291182 123.405982 
L 259.176502 122.316735 
L 261.061822 129.104451 
L 262.764692 163.471698 
L 264.650012 93.626466 
L 266.474515 107.710429 
L 268.359835 188.396871 
L 270.184339 168.79981 
L 272.069659 141.199718 
L 273.954979 133.038535 
L 275.779482 113.344369 
L 277.664802 104.00689 
L 279.489305 120.118459 
L 281.374625 110.587831 
L 283.259946 112.499473 
L 284.962815 114.889331 
L 286.848135 148.705599 
L 288.672639 122.152898 
L 290.557959 134.486953 
L 292.382462 169.679861 
L 294.267782 115.336334 
L 296.153102 227.864386 
L 297.977605 146.321753 
L 299.862925 116.145598 
L 301.687429 125.933223 
L 303.572749 127.608955 
L 305.458069 102.521168 
L 307.221755 107.234712 
L 309.107075 117.103181 
L 312.816899 165.074276 
L 314.641402 149.253632 
L 316.526722 116.904016 
L 318.412042 113.259811 
L 320.236545 116.084668 
L 322.121865 141.676619 
L 323.946369 163.048797 
L 325.831689 122.774366 
L 327.717009 106.508595 
L 329.419878 121.492879 
L 331.305198 118.430056 
L 333.129702 128.37326 
L 335.015022 104.080429 
L 336.839525 148.917236 
L 338.724845 114.255883 
L 340.610165 137.888669 
L 344.319988 123.123384 
L 346.144492 109.539097 
L 348.029812 127.758208 
L 349.915132 132.134372 
L 351.618002 140.905187 
L 353.503322 118.344895 
L 355.327825 138.246986 
L 357.213145 127.684947 
L 359.037648 114.644514 
L 360.922968 127.941896 
L 362.808288 143.27279 
L 364.632792 125.731093 
L 366.518112 161.361049 
L 368.342615 95.410412 
L 370.227935 134.775888 
L 372.113255 148.796869 
L 373.816125 117.522102 
L 375.701445 139.414917 
L 377.525948 132.862169 
L 379.411268 132.064374 
L 381.235771 143.374164 
L 383.121091 140.531074 
L 386.830915 176.931883 
L 388.716235 106.129781 
L 390.540738 116.798534 
L 392.426058 148.841821 
L 394.311378 193.18636 
L 397.960385 90.625556 
L 399.784888 117.623944 
L 401.670208 142.427194 
L 403.494711 131.488339 
L 405.380031 113.972937 
L 407.265351 130.392445 
L 409.089855 143.469339 
L 410.975175 144.026103 
L 412.799678 130.399716 
L 414.684998 108.932979 
L 416.570318 128.477028 
L 418.273188 119.514882 
L 420.158508 125.98247 
L 421.983011 141.108935 
L 423.868331 126.428751 
L 425.692835 125.754412 
L 429.463475 137.873567 
L 431.287978 126.717832 
L 433.173298 118.221851 
L 434.997801 127.184544 
L 436.883121 117.026213 
L 438.768441 101.7299 
L 440.471311 163.22801 
L 442.356631 139.272381 
L 444.181134 153.253338 
L 446.066454 124.255487 
L 447.890958 123.052262 
L 449.776278 127.226256 
L 451.661598 120.381969 
L 453.486101 126.421872 
L 455.371421 171.238019 
L 457.195924 156.652116 
L 459.081244 185.763677 
L 460.966565 126.163852 
L 462.669434 94.522495 
L 464.554754 124.41699 
L 466.379258 110.562193 
L 468.264578 152.213701 
L 470.089081 128.682299 
L 471.974401 109.745433 
L 473.859721 165.356984 
L 475.684224 115.51065 
L 477.569544 139.767239 
L 479.394048 105.072127 
L 481.279368 120.252395 
L 483.164688 113.398876 
L 484.928374 138.781842 
L 486.813694 307.924928 
L 488.638198 106.156744 
L 490.523518 94.131227 
L 492.348021 89.370455 
L 494.233341 112.44818 
L 496.118661 93.891386 
L 497.943164 144.771047 
L 501.652988 108.622835 
L 503.538308 106.223116 
L 505.423628 117.518961 
L 507.126497 119.860769 
L 509.011817 133.002749 
L 510.836321 92.684819 
L 512.721641 133.425174 
L 514.546144 125.110596 
L 516.431464 115.256531 
L 518.316784 122.133561 
L 520.141287 140.12327 
L 522.026607 135.838859 
L 523.851111 102.307499 
L 525.736431 137.298995 
L 527.621751 156.042465 
L 529.324621 163.060084 
L 531.209941 146.675142 
L 533.034444 138.559197 
L 534.919764 205.240878 
L 536.744267 167.085346 
L 538.629587 135.944558 
L 540.514907 89.580796 
L 542.339411 200.174095 
L 544.224731 164.869509 
L 546.049234 98.457125 
L 547.934554 139.609211 
L 549.819874 128.747458 
L 551.522744 114.861377 
L 553.408064 160.672561 
L 555.232567 108.30009 
L 557.117887 133.78046 
L 558.94239 100.999624 
L 560.82771 109.138551 
L 562.71303 147.621909 
L 564.537534 147.280039 
L 566.422854 164.338408 
L 568.247357 103.590384 
L 570.132677 99.167901 
L 570.132677 99.167901 
" clip-path="url(#p81d011b951)" style="fill: none; stroke-dasharray: 3.7,1.6; stroke-dashoffset: 0; stroke: #000000"/>
   </g>
   <g id="line2d_134">
    <path d="M 62.85995 134.908109 
L 64.74527 139.983172 
L 66.569773 150.089134 
L 68.455093 144.804257 
L 70.279597 123.672336 
L 72.164917 140.507879 
L 74.050237 144.439615 
L 75.87474 135.678992 
L 77.76006 175.854721 
L 79.584563 129.789595 
L 81.469883 133.281889 
L 83.355203 145.541102 
L 85.058073 138.63004 
L 86.943393 141.854937 
L 88.767896 137.33939 
L 90.653216 142.658597 
L 92.47772 142.016046 
L 94.36304 142.777837 
L 96.24836 151.015538 
L 98.072863 127.415618 
L 99.958183 137.114052 
L 101.782686 144.641038 
L 103.668006 129.166538 
L 105.553327 141.702115 
L 107.256196 137.688042 
L 109.141516 144.456282 
L 110.96602 132.968229 
L 112.85134 130.305622 
L 114.675843 119.286422 
L 116.561163 120.507458 
L 118.446483 150.035264 
L 120.270986 144.887386 
L 122.156306 125.110896 
L 123.98081 133.419371 
L 127.75145 126.182299 
L 129.515136 123.928305 
L 131.400456 134.979853 
L 133.22496 134.371583 
L 135.11028 140.580104 
L 136.934783 144.616044 
L 138.820103 125.595184 
L 140.705423 136.414858 
L 142.529926 133.493209 
L 144.415246 126.277723 
L 146.23975 136.854954 
L 148.12507 126.689999 
L 151.713259 139.56639 
L 153.598579 131.077806 
L 155.423083 143.484885 
L 157.308403 137.526862 
L 159.132906 128.724314 
L 161.018226 128.042562 
L 162.903546 137.757395 
L 164.728049 136.398433 
L 166.613369 134.179713 
L 168.437873 143.917135 
L 170.323193 126.114056 
L 172.208513 131.126103 
L 173.911383 132.689223 
L 175.796703 139.077481 
L 177.621206 135.113025 
L 179.506526 140.568375 
L 181.331029 138.557461 
L 183.216349 140.540421 
L 185.101669 133.145716 
L 186.926173 127.686574 
L 188.811493 127.914361 
L 190.635996 129.391574 
L 194.406636 130.912401 
L 196.109506 139.663539 
L 197.994826 131.613482 
L 199.819329 137.809394 
L 201.704649 127.684928 
L 203.529152 131.051767 
L 205.414472 143.652068 
L 207.299792 132.866947 
L 209.124296 138.334302 
L 211.009616 126.145644 
L 212.834119 131.084148 
L 214.719439 141.394062 
L 216.604759 133.326343 
L 218.368446 143.103263 
L 220.253766 137.615909 
L 222.078269 136.368586 
L 223.963589 136.134504 
L 225.788092 139.164035 
L 227.673412 151.410266 
L 229.558732 148.346034 
L 231.383236 131.190595 
L 233.268556 140.301525 
L 235.093059 193.663329 
L 236.978379 155.34863 
L 238.863699 134.45973 
L 240.566569 180.011947 
L 242.451889 189.30359 
L 244.276392 161.653836 
L 246.161712 124.515081 
L 247.986216 162.414273 
L 249.871536 134.301241 
L 251.756856 138.607013 
L 253.581359 126.235982 
L 255.466679 126.857951 
L 257.291182 120.190165 
L 259.176502 98.00074 
L 261.061822 103.268516 
L 262.764692 126.655152 
L 264.650012 137.535182 
L 266.474515 122.118855 
L 270.184339 139.003675 
L 272.069659 135.822986 
L 273.954979 132.320873 
L 275.779482 126.901572 
L 277.664802 129.848127 
L 279.489305 124.860836 
L 281.374625 139.513005 
L 283.259946 142.09916 
L 284.962815 126.743023 
L 286.848135 135.076683 
L 288.672639 135.104688 
L 290.557959 131.460269 
L 292.382462 129.603484 
L 294.267782 138.761441 
L 296.153102 127.767521 
L 297.977605 145.214125 
L 299.862925 126.723511 
L 301.687429 137.225787 
L 303.572749 128.109089 
L 305.458069 132.46266 
L 307.221755 124.718236 
L 309.107075 128.683953 
L 310.931579 140.35275 
L 312.816899 132.235054 
L 314.641402 131.420038 
L 316.526722 129.990242 
L 318.412042 125.866712 
L 320.236545 137.284168 
L 322.121865 129.07036 
L 323.946369 139.75912 
L 325.831689 137.587891 
L 327.717009 132.31099 
L 329.419878 136.446979 
L 331.305198 131.547347 
L 333.129702 129.619141 
L 335.015022 126.882017 
L 336.839525 133.711292 
L 338.724845 149.271488 
L 340.610165 129.070086 
L 342.434668 136.999845 
L 344.319988 134.404402 
L 346.144492 127.493345 
L 348.029812 132.560878 
L 349.915132 138.614689 
L 351.618002 133.737123 
L 353.503322 132.630813 
L 355.327825 130.27361 
L 357.213145 136.784947 
L 359.037648 129.205882 
L 360.922968 131.281869 
L 362.808288 131.987319 
L 364.632792 133.61059 
L 366.518112 134.567724 
L 368.342615 135.094152 
L 370.227935 126.075936 
L 372.113255 132.464466 
L 373.816125 127.517972 
L 375.701445 134.888474 
L 377.525948 138.855361 
L 379.411268 131.726656 
L 381.235771 142.982014 
L 383.121091 137.256635 
L 385.006411 134.107918 
L 386.830915 135.490829 
L 388.716235 143.714869 
L 390.540738 124.172824 
L 392.426058 138.532062 
L 394.311378 137.062324 
L 396.075065 143.580999 
L 397.960385 126.020218 
L 399.784888 130.481302 
L 401.670208 129.143596 
L 403.494711 138.263834 
L 405.380031 128.484255 
L 407.265351 123.228414 
L 409.089855 139.416663 
L 410.975175 140.295952 
L 412.799678 140.382302 
L 414.684998 142.731352 
L 416.570318 132.364213 
L 418.273188 130.964381 
L 420.158508 131.097125 
L 421.983011 135.179194 
L 423.868331 132.656851 
L 425.692835 132.687783 
L 427.578155 129.517691 
L 429.463475 139.207593 
L 431.287978 133.476713 
L 433.173298 132.365593 
L 434.997801 136.061176 
L 436.883121 132.750879 
L 438.768441 131.428198 
L 440.471311 132.702953 
L 442.356631 147.085529 
L 444.181134 132.117778 
L 446.066454 138.845039 
L 447.890958 131.52959 
L 449.776278 130.6016 
L 451.661598 133.29933 
L 453.486101 131.116083 
L 455.371421 135.917666 
L 457.195924 144.964259 
L 459.081244 138.09881 
L 460.966565 139.663179 
L 462.669434 128.703107 
L 464.554754 123.436951 
L 466.379258 130.805002 
L 468.264578 127.441167 
L 470.089081 136.558539 
L 471.974401 122.754908 
L 473.859721 114.564304 
L 475.684224 141.820937 
L 477.569544 129.461202 
L 479.394048 138.295219 
L 481.279368 129.37011 
L 483.164688 132.757716 
L 484.928374 128.88393 
L 486.813694 132.194354 
L 488.638198 147.905447 
L 490.523518 94.686099 
L 492.348021 128.415017 
L 494.233341 132.375467 
L 496.118661 123.866155 
L 497.943164 129.078667 
L 499.828484 143.40608 
L 501.652988 139.780031 
L 503.538308 130.291909 
L 505.423628 130.547676 
L 507.126497 137.741876 
L 509.011817 130.819534 
L 510.836321 138.407107 
L 512.721641 122.01764 
L 514.546144 133.377123 
L 516.431464 129.141819 
L 518.316784 123.842641 
L 520.141287 130.700105 
L 522.026607 138.993336 
L 523.851111 136.23347 
L 525.736431 124.425958 
L 527.621751 134.264075 
L 529.324621 141.227964 
L 531.209941 139.514099 
L 533.034444 138.058933 
L 534.919764 141.972925 
L 536.744267 146.606882 
L 538.629587 139.672998 
L 540.514907 132.17406 
L 542.339411 123.853443 
L 544.224731 156.908171 
L 546.049234 141.633164 
L 547.934554 122.749062 
L 549.819874 135.737854 
L 551.522744 131.289446 
L 553.408064 134.140867 
L 555.232567 139.295573 
L 557.117887 124.853222 
L 558.94239 140.107458 
L 560.82771 128.566508 
L 562.71303 131.839758 
L 564.537534 143.361442 
L 566.422854 139.19665 
L 568.247357 142.823075 
L 570.132677 122.833823 
L 570.132677 122.833823 
" clip-path="url(#p81d011b951)" style="fill: none; stroke: #0000ff; stroke-linecap: square"/>
   </g>
   <g id="patch_3">
    <path d="M 37.496314 336.24 
L 37.496314 3.6 
" style="fill: none; stroke: #000000; stroke-width: 0.5; stroke-linejoin: miter; stroke-linecap: square"/>
   </g>
   <g id="patch_4">
    <path d="M 595.496314 336.24 
L 595.496314 3.6 
" style="fill: none; stroke: #000000; stroke-width: 0.5; stroke-linejoin: miter; stroke-linecap: square"/>
   </g>
   <g id="patch_5">
    <path d="M 37.496314 336.24 
L 595.496314 336.24 
" style="fill: none; stroke: #000000; stroke-width: 0.5; stroke-linejoin: miter; stroke-linecap: square"/>
   </g>
   <g id="patch_6">
    <path d="M 37.496314 3.6 
L 595.496314 3.6 
" style="fill: none; stroke: #000000; stroke-width: 0.5; stroke-linejoin: miter; stroke-linecap: square"/>
   </g>
   <g id="legend_1">
    <g id="line2d_135">
     <path d="M 48.296314 284.23564 
L 60.296314 284.23564 
L 72.296314 284.23564 
" style="fill: none; stroke-dasharray: 3.7,1.6; stroke-dashoffset: 0; stroke: #000000"/>
    </g>
    <g id="text_15">
     <!-- rendimenti SP 500 -->
     <g transform="translate(81.896314 288.43564) scale(0.12 -0.12)">
      <defs>
       <path id="CMR17-72" d="M 960 1517 
C 960 2134 1222 2713 1702 2713 
C 1747 2713 1792 2707 1837 2687 
C 1837 2687 1696 2642 1696 2475 
C 1696 2321 1818 2257 1914 2257 
C 1990 2257 2131 2302 2131 2482 
C 2131 2687 1926 2816 1709 2816 
C 1222 2816 1011 2340 947 2115 
L 941 2115 
L 941 2816 
L 198 2745 
L 198 2578 
C 576 2578 634 2540 634 2231 
L 634 443 
C 634 198 608 166 198 166 
L 198 0 
C 352 12 646 12 813 12 
C 998 12 1325 12 1498 0 
L 1498 166 
C 1037 166 960 166 960 455 
L 960 1517 
z
" transform="scale(0.015625)"/>
       <path id="CMR17-65" d="M 2438 1503 
C 2464 1529 2464 1542 2464 1606 
C 2464 2251 2118 2816 1389 2816 
C 710 2816 173 2175 173 1394 
C 173 554 781 -64 1459 -64 
C 2176 -64 2458 619 2458 755 
C 2458 800 2419 800 2406 800 
C 2362 800 2355 787 2330 709 
C 2189 270 1837 51 1504 51 
C 1229 51 954 206 781 490 
C 582 819 582 1200 582 1503 
L 2438 1503 
z
M 589 1600 
C 634 2511 1126 2713 1382 2713 
C 1818 2713 2112 2308 2118 1600 
L 589 1600 
z
" transform="scale(0.015625)"/>
       <path id="CMR17-6e" d="M 2656 1954 
C 2656 2282 2592 2816 1837 2816 
C 1331 2816 1069 2424 973 2166 
L 966 2166 
L 966 2816 
L 211 2745 
L 211 2578 
C 589 2578 646 2540 646 2231 
L 646 443 
C 646 198 621 166 211 166 
L 211 0 
C 365 12 646 12 813 12 
C 979 12 1267 12 1421 0 
L 1421 166 
C 1011 166 986 192 986 443 
L 986 1678 
C 986 2269 1344 2713 1792 2713 
C 2266 2713 2317 2289 2317 1980 
L 2317 443 
C 2317 198 2291 166 1882 166 
L 1882 0 
C 2035 12 2317 12 2483 12 
C 2650 12 2938 12 3091 0 
L 3091 166 
C 2682 166 2656 192 2656 443 
L 2656 1954 
z
" transform="scale(0.015625)"/>
       <path id="CMR17-64" d="M 1869 4345 
L 1869 4179 
C 2246 4179 2304 4141 2304 3843 
L 2304 2371 
C 2278 2403 2016 2816 1498 2816 
C 845 2816 211 2228 211 1376 
C 211 529 806 -64 1434 -64 
C 1978 -64 2259 361 2291 406 
L 2291 -64 
L 3066 -13 
L 3066 154 
C 2688 154 2630 193 2630 503 
L 2630 4416 
L 1869 4345 
z
M 2291 762 
C 2291 568 2176 393 2029 264 
C 1811 70 1594 38 1472 38 
C 1286 38 621 135 621 1369 
C 621 2636 1363 2713 1530 2713 
C 1824 2713 2061 2545 2208 2313 
C 2291 2177 2291 2157 2291 2041 
L 2291 762 
z
" transform="scale(0.015625)"/>
       <path id="CMR17-69" d="M 992 3961 
C 992 4102 877 4224 730 4224 
C 589 4224 467 4108 467 3961 
C 467 3820 582 3699 730 3699 
C 870 3699 992 3814 992 3961 
z
M 243 2745 
L 243 2579 
C 602 2579 653 2540 653 2231 
L 653 443 
C 653 198 627 166 218 166 
L 218 0 
C 371 12 646 12 806 12 
C 960 12 1222 12 1370 0 
L 1370 166 
C 992 166 979 205 979 436 
L 979 2816 
L 243 2745 
z
" transform="scale(0.015625)"/>
       <path id="CMR17-6d" d="M 4326 1954 
C 4326 2276 4269 2816 3507 2816 
C 3072 2816 2771 2520 2656 2173 
L 2650 2173 
C 2573 2700 2195 2816 1837 2816 
C 1331 2816 1069 2424 973 2166 
L 966 2166 
L 966 2816 
L 211 2745 
L 211 2578 
C 589 2578 646 2540 646 2231 
L 646 443 
C 646 198 621 166 211 166 
L 211 0 
C 365 12 646 12 813 12 
C 979 12 1267 12 1421 0 
L 1421 166 
C 1011 166 986 192 986 443 
L 986 1678 
C 986 2269 1344 2713 1792 2713 
C 2266 2713 2317 2289 2317 1980 
L 2317 443 
C 2317 198 2291 166 1882 166 
L 1882 0 
C 2035 12 2317 12 2483 12 
C 2650 12 2938 12 3091 0 
L 3091 166 
C 2682 166 2656 192 2656 443 
L 2656 1678 
C 2656 2269 3014 2713 3462 2713 
C 3936 2713 3987 2289 3987 1980 
L 3987 443 
C 3987 198 3962 166 3552 166 
L 3552 0 
C 3706 12 3987 12 4154 12 
C 4320 12 4608 12 4762 0 
L 4762 166 
C 4352 166 4326 192 4326 443 
L 4326 1954 
z
" transform="scale(0.015625)"/>
       <path id="CMR17-74" d="M 966 2585 
L 1862 2585 
L 1862 2752 
L 966 2752 
L 966 3968 
L 851 3968 
C 838 3292 614 2700 70 2687 
L 70 2585 
L 627 2585 
L 627 778 
C 627 655 627 -64 1370 -64 
C 1747 -64 1965 308 1965 784 
L 1965 1151 
L 1850 1151 
L 1850 790 
C 1850 347 1677 51 1408 51 
C 1222 51 966 179 966 765 
L 966 2585 
z
" transform="scale(0.015625)"/>
       <path id="CMR17-53" d="M 2803 4351 
C 2803 4467 2797 4473 2758 4473 
C 2720 4473 2707 4447 2682 4390 
L 2490 3965 
C 2246 4320 1875 4480 1472 4480 
C 819 4480 294 3958 294 3301 
C 294 3101 339 2817 557 2546 
C 794 2250 1018 2198 1530 2063 
C 1722 2011 2042 1927 2106 1901 
C 2470 1747 2662 1360 2662 999 
C 2662 534 2336 38 1779 38 
C 1094 38 454 425 410 1328 
C 403 1431 397 1437 352 1437 
C 301 1437 294 1431 294 1302 
L 294 0 
C 294 -116 301 -122 339 -122 
C 384 -122 397 -90 486 109 
C 493 128 493 141 614 386 
C 934 -39 1472 -128 1779 -128 
C 2477 -128 2970 457 2970 1141 
C 2970 1476 2848 1734 2778 1850 
C 2509 2263 2221 2340 1914 2417 
C 1869 2437 1856 2437 1498 2527 
C 1152 2617 1005 2662 845 2836 
C 666 3036 602 3243 602 3449 
C 602 3868 934 4326 1478 4326 
C 2157 4326 2579 3842 2675 3036 
C 2694 2920 2701 2914 2746 2914 
C 2803 2914 2803 2933 2803 3043 
L 2803 4351 
z
" transform="scale(0.015625)"/>
       <path id="CMR17-50" d="M 1267 2048 
L 2291 2048 
C 3117 2048 3718 2583 3718 3187 
C 3718 3791 3130 4352 2291 4352 
L 333 4352 
L 333 4185 
C 774 4185 845 4185 845 3899 
L 845 453 
C 845 166 774 166 333 166 
L 333 0 
C 518 12 858 12 1056 12 
C 1254 12 1594 12 1779 0 
L 1779 166 
C 1338 166 1267 166 1267 453 
L 1267 2048 
z
M 1254 2182 
L 1254 3937 
C 1254 4153 1267 4185 1523 4185 
L 2170 4185 
C 2995 4185 3232 3715 3232 3187 
C 3232 2608 2950 2182 2170 2182 
L 1254 2182 
z
" transform="scale(0.015625)"/>
      </defs>
      <use xlink:href="#CMR17-72" transform="scale(0.996264)"/>
      <use xlink:href="#CMR17-65" transform="translate(35.280768 0) scale(0.996264)"/>
      <use xlink:href="#CMR17-6e" transform="translate(75.766428 0) scale(0.996264)"/>
      <use xlink:href="#CMR17-64" transform="translate(126.661798 0) scale(0.996264)"/>
      <use xlink:href="#CMR17-69" transform="translate(177.557168 0) scale(0.996264)"/>
      <use xlink:href="#CMR17-6d" transform="translate(202.428226 0) scale(0.996264)"/>
      <use xlink:href="#CMR17-65" transform="translate(279.347816 0) scale(0.996264)"/>
      <use xlink:href="#CMR17-6e" transform="translate(319.833477 0) scale(0.996264)"/>
      <use xlink:href="#CMR17-74" transform="translate(368.126392 0) scale(0.996264)"/>
      <use xlink:href="#CMR17-69" transform="translate(403.40716 0) scale(0.996264)"/>
      <use xlink:href="#CMR17-53" transform="translate(458.354185 0) scale(0.996264)"/>
      <use xlink:href="#CMR17-50" transform="translate(509.249555 0) scale(0.996264)"/>
      <use xlink:href="#CMR17-35" transform="translate(601.911822 0) scale(0.996264)"/>
      <use xlink:href="#CMR17-30" transform="translate(647.602299 0) scale(0.996264)"/>
      <use xlink:href="#CMR17-30" transform="translate(693.292776 0) scale(0.996264)"/>
     </g>
    </g>
    <g id="line2d_136">
     <path d="M 48.296314 301.526612 
L 60.296314 301.526612 
L 72.296314 301.526612 
" style="fill: none; stroke: #0000ff; stroke-linecap: square"/>
    </g>
    <g id="text_16">
     <!-- forecast media pesata (training r2) -->
     <g transform="translate(81.896314 305.726612) scale(0.12 -0.12)">
      <defs>
       <path id="CMR17-66" d="M 979 2585 
L 1709 2585 
L 1709 2752 
L 966 2752 
L 966 3539 
C 966 4076 1235 4377 1510 4377 
C 1594 4377 1690 4363 1754 4339 
C 1702 4326 1568 4281 1568 4121 
C 1568 3955 1696 3904 1786 3904 
C 1875 3904 2003 3955 2003 4121 
C 2003 4353 1773 4480 1517 4480 
C 1152 4480 653 4211 653 3526 
L 653 2752 
L 141 2752 
L 141 2585 
L 653 2585 
L 653 441 
C 653 198 627 166 218 166 
L 218 0 
C 371 12 666 12 832 12 
C 1018 12 1344 12 1517 0 
L 1517 166 
C 1056 166 979 166 979 454 
L 979 2585 
z
" transform="scale(0.015625)"/>
       <path id="CMR17-6f" d="M 2758 1356 
C 2758 2176 2163 2816 1466 2816 
C 768 2816 173 2176 173 1356 
C 173 550 768 -64 1466 -64 
C 2163 -64 2758 550 2758 1356 
z
M 1466 51 
C 1165 51 909 230 762 480 
C 602 768 582 1126 582 1408 
C 582 1676 595 2009 762 2297 
C 890 2508 1139 2713 1466 2713 
C 1754 2713 1997 2553 2150 2329 
C 2349 2028 2349 1606 2349 1408 
C 2349 1158 2336 774 2163 467 
C 1984 172 1709 51 1466 51 
z
" transform="scale(0.015625)"/>
       <path id="CMR17-63" d="M 2234 2240 
C 2112 2240 1933 2240 1933 2015 
C 1933 1836 2080 1785 2163 1785 
C 2208 1785 2394 1804 2394 2028 
C 2394 2476 1958 2816 1466 2816 
C 787 2816 211 2201 211 1379 
C 211 521 813 -64 1466 -64 
C 2259 -64 2458 676 2458 747 
C 2458 773 2451 792 2406 792 
C 2362 792 2355 786 2330 702 
C 2163 180 1798 51 1523 51 
C 1114 51 621 431 621 1385 
C 621 2358 1094 2700 1472 2700 
C 1722 2700 2093 2582 2234 2240 
z
" transform="scale(0.015625)"/>
       <path id="CMR17-61" d="M 2304 1656 
C 2304 2048 2304 2275 2035 2534 
C 1798 2751 1523 2816 1306 2816 
C 800 2816 435 2408 435 1977 
C 435 1740 627 1728 666 1728 
C 749 1728 896 1779 896 1958 
C 896 2118 774 2188 666 2188 
C 640 2188 608 2182 589 2176 
C 723 2594 1069 2713 1293 2713 
C 1613 2713 1965 2421 1965 1875 
L 1965 1632 
C 1587 1619 1133 1568 774 1373 
C 371 1147 256 822 256 576 
C 256 77 832 -64 1171 -64 
C 1523 -64 1850 135 1990 505 
C 2003 219 2182 -39 2464 -39 
C 2598 -39 2938 51 2938 563 
L 2938 926 
L 2822 926 
L 2822 557 
C 2822 161 2650 109 2566 109 
C 2304 109 2304 446 2304 732 
L 2304 1656 
z
M 1965 887 
C 1965 323 1568 38 1216 38 
C 896 38 646 278 646 576 
C 646 771 730 1114 1101 1322 
C 1408 1497 1760 1523 1965 1536 
L 1965 887 
z
" transform="scale(0.015625)"/>
       <path id="CMR17-73" d="M 1978 2688 
C 1978 2803 1971 2809 1933 2809 
C 1907 2809 1901 2803 1824 2707 
C 1805 2681 1747 2617 1728 2592 
C 1523 2809 1235 2816 1126 2816 
C 416 2816 160 2444 160 2073 
C 160 1497 813 1363 998 1324 
C 1402 1241 1542 1216 1677 1100 
C 1760 1024 1901 883 1901 652 
C 1901 384 1747 38 1158 38 
C 602 38 403 460 288 1024 
C 269 1113 269 1120 218 1120 
C 166 1120 160 1113 160 985 
L 160 64 
C 160 -52 166 -58 205 -58 
C 237 -58 243 -52 275 0 
C 314 57 410 211 448 275 
C 576 102 800 -64 1158 -64 
C 1792 -64 2131 281 2131 780 
C 2131 1107 1958 1280 1875 1356 
C 1683 1555 1459 1600 1190 1651 
C 838 1728 390 1817 390 2208 
C 390 2374 480 2726 1126 2726 
C 1811 2726 1850 2086 1862 1881 
C 1869 1849 1901 1843 1920 1843 
C 1978 1843 1978 1862 1978 1971 
L 1978 2688 
z
" transform="scale(0.015625)"/>
       <path id="CMR17-70" d="M 1408 -1114 
C 998 -1114 973 -1088 973 -834 
L 973 380 
C 1158 109 1427 -64 1766 -64 
C 2406 -64 3053 503 3053 1382 
C 3053 2196 2496 2816 1837 2816 
C 1453 2816 1139 2603 960 2345 
L 960 2816 
L 198 2745 
L 198 2577 
C 576 2577 634 2539 634 2228 
L 634 -834 
C 634 -1081 608 -1114 198 -1114 
L 198 -1280 
C 352 -1268 634 -1268 800 -1268 
C 966 -1268 1254 -1268 1408 -1280 
L 1408 -1114 
z
M 973 2015 
C 973 2106 973 2241 1222 2481 
C 1254 2506 1472 2700 1792 2700 
C 2259 2700 2643 2112 2643 1376 
C 2643 639 2234 38 1728 38 
C 1498 38 1248 148 1056 451 
C 973 594 973 632 973 736 
L 973 2015 
z
" transform="scale(0.015625)"/>
       <path id="CMR17-28" d="M 1958 -1562 
C 1958 -1556 1958 -1543 1939 -1524 
C 1645 -1223 858 -403 858 1596 
C 858 3595 1632 4408 1946 4729 
C 1946 4735 1958 4748 1958 4767 
C 1958 4787 1939 4800 1914 4800 
C 1843 4800 1299 4325 986 3620 
C 666 2909 576 2218 576 1603 
C 576 1141 621 360 1005 -467 
C 1312 -1133 1837 -1600 1914 -1600 
C 1946 -1600 1958 -1588 1958 -1562 
z
" transform="scale(0.015625)"/>
       <path id="CMR17-67" d="M 710 1165 
C 832 1068 1043 960 1299 960 
C 1805 960 2240 1359 2240 1895 
C 2240 2063 2189 2321 1997 2521 
C 2176 2713 2438 2777 2586 2777 
C 2611 2777 2650 2777 2682 2758 
C 2656 2751 2598 2726 2598 2623 
C 2598 2540 2656 2483 2739 2483 
C 2835 2483 2886 2547 2886 2630 
C 2886 2751 2790 2880 2586 2880 
C 2330 2880 2106 2758 1926 2591 
C 1734 2764 1504 2828 1299 2828 
C 794 2828 358 2431 358 1895 
C 358 1527 570 1294 634 1230 
C 442 1004 442 742 442 710 
C 442 544 506 300 723 166 
C 390 82 128 -184 128 -517 
C 128 -996 736 -1344 1466 -1344 
C 2170 -1344 2803 -1009 2803 -510 
C 2803 384 1856 384 1363 384 
C 1216 384 954 384 922 390 
C 723 422 589 601 589 825 
C 589 883 589 1024 710 1165 
z
M 1299 1068 
C 736 1068 736 1766 736 1895 
C 736 2024 736 2719 1299 2719 
C 1862 2719 1862 2024 1862 1895 
C 1862 1766 1862 1068 1299 1068 
z
M 1466 -1236 
C 826 -1236 384 -883 384 -517 
C 384 -311 493 -118 634 -11 
C 794 102 858 102 1293 102 
C 1818 102 2547 102 2547 -517 
C 2547 -883 2106 -1236 1466 -1236 
z
" transform="scale(0.015625)"/>
       <path id="CMR17-29" d="M 1683 1596 
C 1683 2057 1638 2839 1254 3665 
C 947 4332 422 4800 346 4800 
C 326 4800 301 4793 301 4761 
C 301 4748 307 4742 314 4729 
C 621 4408 1402 3595 1402 1603 
C 1402 -396 627 -1210 314 -1530 
C 307 -1543 301 -1549 301 -1562 
C 301 -1594 326 -1600 346 -1600 
C 416 -1600 960 -1127 1274 -422 
C 1594 289 1683 981 1683 1596 
z
" transform="scale(0.015625)"/>
      </defs>
      <use xlink:href="#CMR17-66" transform="scale(0.996264)"/>
      <use xlink:href="#CMR17-6f" transform="translate(27.473512 0) scale(0.996264)"/>
      <use xlink:href="#CMR17-72" transform="translate(73.16399 0) scale(0.996264)"/>
      <use xlink:href="#CMR17-65" transform="translate(108.444757 0) scale(0.996264)"/>
      <use xlink:href="#CMR17-63" transform="translate(148.930418 0) scale(0.996264)"/>
      <use xlink:href="#CMR17-61" transform="translate(189.416078 0) scale(0.996264)"/>
      <use xlink:href="#CMR17-73" transform="translate(235.106555 0) scale(0.996264)"/>
      <use xlink:href="#CMR17-74" transform="translate(270.907893 0) scale(0.996264)"/>
      <use xlink:href="#CMR17-6d" transform="translate(336.264627 0) scale(0.996264)"/>
      <use xlink:href="#CMR17-65" transform="translate(413.184217 0) scale(0.996264)"/>
      <use xlink:href="#CMR17-64" transform="translate(453.669877 0) scale(0.996264)"/>
      <use xlink:href="#CMR17-69" transform="translate(504.565247 0) scale(0.996264)"/>
      <use xlink:href="#CMR17-61" transform="translate(529.436306 0) scale(0.996264)"/>
      <use xlink:href="#CMR17-70" transform="translate(605.202749 0) scale(0.996264)"/>
      <use xlink:href="#CMR17-65" transform="translate(658.700558 0) scale(0.996264)"/>
      <use xlink:href="#CMR17-73" transform="translate(699.186218 0) scale(0.996264)"/>
      <use xlink:href="#CMR17-61" transform="translate(734.987556 0) scale(0.996264)"/>
      <use xlink:href="#CMR17-74" transform="translate(780.678033 0) scale(0.996264)"/>
      <use xlink:href="#CMR17-61" transform="translate(815.958801 0) scale(0.996264)"/>
      <use xlink:href="#CMR17-28" transform="translate(891.725244 0) scale(0.996264)"/>
      <use xlink:href="#CMR17-74" transform="translate(927.006012 0) scale(0.996264)"/>
      <use xlink:href="#CMR17-72" transform="translate(962.28678 0) scale(0.996264)"/>
      <use xlink:href="#CMR17-61" transform="translate(997.567548 0) scale(0.996264)"/>
      <use xlink:href="#CMR17-69" transform="translate(1043.258025 0) scale(0.996264)"/>
      <use xlink:href="#CMR17-6e" transform="translate(1068.129083 0) scale(0.996264)"/>
      <use xlink:href="#CMR17-69" transform="translate(1119.024453 0) scale(0.996264)"/>
      <use xlink:href="#CMR17-6e" transform="translate(1143.895511 0) scale(0.996264)"/>
      <use xlink:href="#CMR17-67" transform="translate(1194.790881 0) scale(0.996264)"/>
      <use xlink:href="#CMR17-72" transform="translate(1270.557325 0) scale(0.996264)"/>
      <use xlink:href="#CMR17-32" transform="translate(1305.838093 0) scale(0.996264)"/>
      <use xlink:href="#CMR17-29" transform="translate(1351.52857 0) scale(0.996264)"/>
     </g>
    </g>
    <g id="patch_7">
     <path d="M 48.296314 323.115404 
L 72.296314 323.115404 
L 72.296314 314.715404 
L 48.296314 314.715404 
z
" style="fill: #808080; fill-opacity: 0.3; stroke: #808080; stroke-opacity: 0.3; stroke-linejoin: miter"/>
    </g>
    <g id="text_17">
     <!-- 99 perc. confidence interval forecast weighted r2 -->
     <g transform="translate(81.896314 323.115404) scale(0.12 -0.12)">
      <defs>
       <path id="CMR17-39" d="M 2253 1871 
C 2253 448 1670 25 1190 25 
C 1043 25 685 43 538 281 
C 704 256 826 345 826 505 
C 826 678 685 736 595 736 
C 538 736 365 710 365 492 
C 365 68 742 -128 1203 -128 
C 1939 -128 2688 665 2688 2090 
C 2688 3857 1971 4224 1485 4224 
C 851 4224 243 3664 243 2800 
C 243 2000 762 1408 1414 1408 
C 1952 1408 2189 1910 2253 2122 
L 2253 1871 
z
M 1427 1510 
C 1254 1510 1011 1542 813 1929 
C 678 2181 678 2477 678 2793 
C 678 3174 678 3438 858 3722 
C 947 3857 1114 4076 1485 4076 
C 2240 4076 2240 2909 2240 2651 
C 2240 2193 2035 1510 1427 1510 
z
" transform="scale(0.015625)"/>
       <path id="CMR17-2e" d="M 1062 262 
C 1062 422 934 524 800 524 
C 672 524 538 422 538 262 
C 538 102 666 0 800 0 
C 928 0 1062 102 1062 262 
z
" transform="scale(0.015625)"/>
       <path id="CMR17-c" d="M 2554 2816 
C 2400 2809 1926 2777 1805 2764 
C 1766 2758 1754 2758 1677 2758 
L 947 2758 
L 947 3517 
C 947 4127 1434 4416 1818 4416 
C 1939 4416 2214 4383 2355 4160 
C 2291 4160 2086 4160 2086 3935 
C 2086 3782 2189 3705 2317 3705 
C 2432 3705 2547 3769 2547 3942 
C 2547 4265 2240 4518 1843 4518 
C 1338 4518 634 4225 634 3517 
L 634 2758 
L 122 2758 
L 122 2591 
L 634 2591 
L 634 442 
C 634 198 608 166 198 166 
L 198 0 
C 352 12 634 12 794 12 
C 960 12 1242 12 1395 0 
L 1395 166 
C 986 166 960 192 960 442 
L 960 2591 
L 1901 2591 
C 2176 2591 2227 2534 2227 2251 
L 2227 442 
C 2227 198 2202 166 1792 166 
L 1792 0 
C 1946 12 2227 12 2387 12 
C 2554 12 2835 12 2989 0 
L 2989 166 
C 2579 166 2554 192 2554 442 
L 2554 2816 
z
" transform="scale(0.015625)"/>
       <path id="CMR17-76" d="M 2502 2173 
C 2560 2315 2662 2572 3034 2585 
L 3034 2752 
C 2912 2745 2752 2739 2630 2739 
C 2496 2739 2285 2739 2157 2752 
L 2157 2585 
C 2317 2572 2406 2495 2406 2328 
C 2406 2270 2406 2257 2368 2167 
L 1664 379 
L 902 2308 
C 864 2392 864 2405 864 2431 
C 864 2585 1075 2585 1171 2585 
L 1171 2752 
C 1018 2739 736 2739 576 2739 
C 403 2739 205 2739 64 2752 
L 64 2585 
C 307 2585 442 2585 518 2386 
L 1446 44 
C 1485 -52 1491 -64 1549 -64 
C 1606 -64 1613 -52 1651 44 
L 2502 2173 
z
" transform="scale(0.015625)"/>
       <path id="CMR17-6c" d="M 979 4416 
L 218 4345 
L 218 4179 
C 595 4179 653 4141 653 3835 
L 653 439 
C 653 198 627 166 218 166 
L 218 0 
C 371 12 653 12 813 12 
C 979 12 1261 12 1414 0 
L 1414 166 
C 1005 166 979 191 979 439 
L 979 4416 
z
" transform="scale(0.015625)"/>
       <path id="CMR17-77" d="M 3725 2186 
C 3853 2566 4109 2579 4205 2585 
L 4205 2752 
C 4077 2745 3949 2739 3821 2739 
C 3699 2739 3424 2739 3315 2752 
L 3315 2585 
C 3514 2572 3622 2456 3622 2296 
C 3622 2251 3610 2193 3597 2148 
L 2995 398 
L 2342 2296 
C 2330 2341 2310 2392 2310 2418 
C 2310 2585 2528 2585 2630 2585 
L 2630 2752 
C 2483 2739 2214 2739 2061 2739 
C 1901 2739 1734 2739 1587 2752 
L 1587 2585 
C 1939 2585 1939 2572 2074 2167 
L 1485 443 
L 851 2302 
C 819 2386 819 2399 819 2418 
C 819 2585 1037 2585 1139 2585 
L 1139 2752 
C 986 2739 717 2739 557 2739 
C 416 2739 198 2739 64 2752 
L 64 2585 
C 346 2585 416 2566 486 2353 
L 1274 38 
C 1299 -45 1318 -64 1370 -64 
C 1414 -64 1440 -52 1472 44 
L 2131 1987 
L 2797 44 
C 2829 -52 2854 -64 2899 -64 
C 2950 -64 2970 -45 2995 38 
L 3725 2186 
z
" transform="scale(0.015625)"/>
       <path id="CMR17-68" d="M 2656 1954 
C 2656 2282 2592 2816 1837 2816 
C 1312 2816 1056 2392 979 2179 
L 973 2179 
L 973 4416 
L 211 4345 
L 211 4179 
C 589 4179 646 4141 646 3843 
L 646 443 
C 646 198 621 166 211 166 
L 211 0 
C 365 12 646 12 813 12 
C 979 12 1267 12 1421 0 
L 1421 166 
C 1011 166 986 192 986 443 
L 986 1678 
C 986 2269 1344 2713 1792 2713 
C 2266 2713 2317 2289 2317 1980 
L 2317 443 
C 2317 198 2291 166 1882 166 
L 1882 0 
C 2035 12 2317 12 2483 12 
C 2650 12 2938 12 3091 0 
L 3091 166 
C 2682 166 2656 192 2656 443 
L 2656 1954 
z
" transform="scale(0.015625)"/>
      </defs>
      <use xlink:href="#CMR17-39" transform="scale(0.996264)"/>
      <use xlink:href="#CMR17-39" transform="translate(45.690477 0) scale(0.996264)"/>
      <use xlink:href="#CMR17-70" transform="translate(121.456921 0) scale(0.996264)"/>
      <use xlink:href="#CMR17-65" transform="translate(174.954729 0) scale(0.996264)"/>
      <use xlink:href="#CMR17-72" transform="translate(215.44039 0) scale(0.996264)"/>
      <use xlink:href="#CMR17-63" transform="translate(250.721157 0) scale(0.996264)"/>
      <use xlink:href="#CMR17-2e" transform="translate(291.206818 0) scale(0.996264)"/>
      <use xlink:href="#CMR17-63" transform="translate(356.563537 0) scale(0.996264)"/>
      <use xlink:href="#CMR17-6f" transform="translate(397.049197 0) scale(0.996264)"/>
      <use xlink:href="#CMR17-6e" transform="translate(442.739674 0) scale(0.996264)"/>
      <use xlink:href="#CMR17-c" transform="translate(493.635044 0) scale(0.996264)"/>
      <use xlink:href="#CMR17-64" transform="translate(543.377267 0) scale(0.996264)"/>
      <use xlink:href="#CMR17-65" transform="translate(594.272637 0) scale(0.996264)"/>
      <use xlink:href="#CMR17-6e" transform="translate(634.758298 0) scale(0.996264)"/>
      <use xlink:href="#CMR17-63" transform="translate(685.653668 0) scale(0.996264)"/>
      <use xlink:href="#CMR17-65" transform="translate(726.139328 0) scale(0.996264)"/>
      <use xlink:href="#CMR17-69" transform="translate(796.700955 0) scale(0.996264)"/>
      <use xlink:href="#CMR17-6e" transform="translate(821.572013 0) scale(0.996264)"/>
      <use xlink:href="#CMR17-74" transform="translate(869.864929 0) scale(0.996264)"/>
      <use xlink:href="#CMR17-65" transform="translate(905.145697 0) scale(0.996264)"/>
      <use xlink:href="#CMR17-72" transform="translate(945.631357 0) scale(0.996264)"/>
      <use xlink:href="#CMR17-76" transform="translate(980.912125 0) scale(0.996264)"/>
      <use xlink:href="#CMR17-61" transform="translate(1024.000224 0) scale(0.996264)"/>
      <use xlink:href="#CMR17-6c" transform="translate(1069.690701 0) scale(0.996264)"/>
      <use xlink:href="#CMR17-66" transform="translate(1124.637726 0) scale(0.996264)"/>
      <use xlink:href="#CMR17-6f" transform="translate(1152.111239 0) scale(0.996264)"/>
      <use xlink:href="#CMR17-72" transform="translate(1197.801716 0) scale(0.996264)"/>
      <use xlink:href="#CMR17-65" transform="translate(1233.082484 0) scale(0.996264)"/>
      <use xlink:href="#CMR17-63" transform="translate(1273.568144 0) scale(0.996264)"/>
      <use xlink:href="#CMR17-61" transform="translate(1314.053805 0) scale(0.996264)"/>
      <use xlink:href="#CMR17-73" transform="translate(1359.744282 0) scale(0.996264)"/>
      <use xlink:href="#CMR17-74" transform="translate(1395.545619 0) scale(0.996264)"/>
      <use xlink:href="#CMR17-77" transform="translate(1460.902353 0) scale(0.996264)"/>
      <use xlink:href="#CMR17-65" transform="translate(1524.80978 0) scale(0.996264)"/>
      <use xlink:href="#CMR17-69" transform="translate(1565.295441 0) scale(0.996264)"/>
      <use xlink:href="#CMR17-67" transform="translate(1590.166499 0) scale(0.996264)"/>
      <use xlink:href="#CMR17-68" transform="translate(1635.856976 0) scale(0.996264)"/>
      <use xlink:href="#CMR17-74" transform="translate(1684.149892 0) scale(0.996264)"/>
      <use xlink:href="#CMR17-65" transform="translate(1719.43066 0) scale(0.996264)"/>
      <use xlink:href="#CMR17-64" transform="translate(1759.91632 0) scale(0.996264)"/>
      <use xlink:href="#CMR17-72" transform="translate(1840.887656 0) scale(0.996264)"/>
      <use xlink:href="#CMR17-32" transform="translate(1876.168424 0) scale(0.996264)"/>
     </g>
    </g>
   </g>
  </g>
 </g>
 <defs>
  <clipPath id="p81d011b951">
   <rect x="37.496314" y="3.6" width="558" height="332.64"/>
  </clipPath>
 </defs>
</svg>
