<?xml version="1.0" encoding="utf-8" standalone="no"?>
<!DOCTYPE svg PUBLIC "-//W3C//DTD SVG 1.1//EN"
  "http://www.w3.org/Graphics/SVG/1.1/DTD/svg11.dtd">
<svg xmlns:xlink="http://www.w3.org/1999/xlink" width="599.096314pt" height="359.763971pt" viewBox="0 0 599.096314 359.763971" xmlns="http://www.w3.org/2000/svg" version="1.1">
 <metadata>
  <rdf:RDF xmlns:dc="http://purl.org/dc/elements/1.1/" xmlns:cc="http://creativecommons.org/ns#" xmlns:rdf="http://www.w3.org/1999/02/22-rdf-syntax-ns#">
   <cc:Work>
    <dc:type rdf:resource="http://purl.org/dc/dcmitype/StillImage"/>
    <dc:date>2025-04-07T20:52:25.000388</dc:date>
    <dc:format>image/svg+xml</dc:format>
    <dc:creator>
     <cc:Agent>
      <dc:title>Matplotlib v3.9.2, https://matplotlib.org/</dc:title>
     </cc:Agent>
    </dc:creator>
   </cc:Work>
  </rdf:RDF>
 </metadata>
 <defs>
  <style type="text/css">*{stroke-linejoin: round; stroke-linecap: butt}</style>
 </defs>
 <g id="figure_1">
  <g id="patch_1">
   <path d="M 0 359.763971 
L 599.096314 359.763971 
L 599.096314 0 
L 0 0 
z
" style="fill: #ffffff"/>
  </g>
  <g id="axes_1">
   <g id="patch_2">
    <path d="M 37.496314 336.722607 
L 595.496314 336.722607 
L 595.496314 4.082607 
L 37.496314 4.082607 
z
" style="fill: #ffffff"/>
   </g>
   <g id="PolyCollection_1">
    <defs>
     <path id="m9efd191854" d="M 62.85995 -280.648715 
L 62.85995 -145.404153 
L 64.74527 -137.999474 
L 66.569773 -126.46836 
L 68.455093 -130.288263 
L 70.279597 -146.07936 
L 72.164917 -136.978081 
L 74.050237 -131.864818 
L 75.87474 -146.854072 
L 77.76006 -115.969909 
L 79.584563 -152.057642 
L 81.469883 -145.729805 
L 83.355203 -133.069959 
L 85.058073 -142.485073 
L 86.943393 -138.591908 
L 88.767896 -141.016428 
L 90.653216 -136.96512 
L 92.47772 -137.772063 
L 94.36304 -136.156703 
L 96.24836 -127.90556 
L 98.072863 -152.787257 
L 99.958183 -140.53961 
L 101.782686 -133.578625 
L 103.668006 -149.287213 
L 105.553327 -137.467062 
L 107.256196 -142.987885 
L 109.141516 -133.275555 
L 110.96602 -145.067153 
L 112.85134 -148.415225 
L 114.675843 -161.09167 
L 116.561163 -159.220644 
L 118.446483 -125.899679 
L 120.270986 -134.096993 
L 122.156306 -156.673505 
L 123.98081 -145.91125 
L 125.86613 -151.814705 
L 127.75145 -153.251324 
L 129.515136 -152.197623 
L 131.400456 -142.709049 
L 133.22496 -143.612629 
L 135.11028 -140.883923 
L 136.934783 -134.960006 
L 138.820103 -156.772881 
L 140.705423 -141.959097 
L 142.529926 -145.64132 
L 144.415246 -152.131145 
L 146.23975 -141.190144 
L 148.12507 -153.464539 
L 150.01039 -144.017382 
L 151.713259 -140.10701 
L 153.598579 -147.016725 
L 155.423083 -135.545723 
L 157.308403 -141.201614 
L 159.132906 -149.223413 
L 161.018226 -150.500366 
L 162.903546 -139.253918 
L 164.728049 -143.800395 
L 166.613369 -144.440632 
L 168.437873 -137.019478 
L 170.323193 -155.291167 
L 172.208513 -146.785187 
L 173.911383 -145.037861 
L 175.796703 -140.377953 
L 177.621206 -144.069358 
L 179.506526 -137.210907 
L 181.331029 -141.911087 
L 183.216349 -139.39027 
L 185.101669 -146.018275 
L 186.926173 -149.185481 
L 188.811493 -149.897068 
L 190.635996 -147.043429 
L 192.521316 -147.576883 
L 194.406636 -146.36775 
L 196.109506 -138.500709 
L 197.994826 -148.333493 
L 199.819329 -142.268043 
L 201.704649 -152.113093 
L 203.529152 -147.100918 
L 205.414472 -133.077695 
L 207.299792 -149.384379 
L 209.124296 -143.14001 
L 211.009616 -154.37661 
L 212.834119 -148.693319 
L 214.719439 -141.457417 
L 216.604759 -150.612276 
L 218.368446 -140.236374 
L 220.253766 -146.10837 
L 222.078269 -146.840967 
L 223.963589 -140.900626 
L 225.788092 -137.62025 
L 227.673412 -125.164274 
L 229.558732 -130.291226 
L 231.383236 -149.892962 
L 233.268556 -140.979428 
L 235.093059 -69.869787 
L 236.978379 -127.80744 
L 238.863699 -166.031385 
L 240.566569 -82.755426 
L 242.451889 -38.161364 
L 244.276392 -122.137889 
L 246.161712 -157.065612 
L 247.986216 -90.223383 
L 249.871536 -143.855475 
L 251.756856 -143.563063 
L 253.581359 -156.573355 
L 255.466679 -152.502471 
L 257.291182 -154.003422 
L 259.176502 -208.81667 
L 261.061822 -182.38404 
L 262.764692 -160.311898 
L 264.650012 -142.529316 
L 266.474515 -157.367737 
L 268.359835 -147.401599 
L 270.184339 -136.91271 
L 272.069659 -145.115968 
L 273.954979 -146.044971 
L 275.779482 -154.850696 
L 277.664802 -147.762316 
L 279.489305 -151.421803 
L 281.374625 -133.911453 
L 283.259946 -126.799033 
L 284.962815 -152.614822 
L 286.848135 -138.717869 
L 288.672639 -141.932955 
L 290.557959 -146.426694 
L 292.382462 -148.918012 
L 294.267782 -141.761316 
L 296.153102 -150.513025 
L 297.977605 -138.174818 
L 299.862925 -158.896533 
L 301.687429 -138.70228 
L 303.572749 -149.378757 
L 305.458069 -146.321156 
L 307.221755 -154.20525 
L 309.107075 -148.267293 
L 310.931579 -130.833533 
L 312.816899 -145.821708 
L 314.641402 -150.952652 
L 316.526722 -153.45549 
L 318.412042 -154.169017 
L 320.236545 -137.680453 
L 322.121865 -151.270355 
L 323.946369 -137.496849 
L 325.831689 -139.74717 
L 327.717009 -146.50361 
L 329.419878 -136.292947 
L 331.305198 -147.392343 
L 333.129702 -147.797354 
L 335.015022 -152.660701 
L 336.839525 -142.975102 
L 338.724845 -121.274867 
L 340.610165 -151.788403 
L 342.434668 -141.99675 
L 344.319988 -145.742435 
L 346.144492 -148.954888 
L 348.029812 -143.186657 
L 349.915132 -136.857385 
L 351.618002 -144.829913 
L 353.503322 -147.033279 
L 355.327825 -147.569506 
L 357.213145 -141.991452 
L 359.037648 -148.910128 
L 360.922968 -145.82055 
L 362.808288 -146.157337 
L 364.632792 -145.673444 
L 366.518112 -144.408664 
L 368.342615 -143.276022 
L 370.227935 -153.667316 
L 372.113255 -148.291177 
L 373.816125 -156.461609 
L 375.701445 -143.891497 
L 377.525948 -141.209256 
L 379.411268 -147.751398 
L 381.235771 -135.547107 
L 383.121091 -143.772323 
L 385.006411 -147.844309 
L 386.830915 -145.163104 
L 388.716235 -135.89387 
L 390.540738 -155.08707 
L 392.426058 -137.768934 
L 394.311378 -144.922395 
L 396.075065 -132.903011 
L 397.960385 -157.386606 
L 399.784888 -148.298752 
L 401.670208 -149.454762 
L 403.494711 -141.084001 
L 405.380031 -151.190638 
L 407.265351 -159.715238 
L 409.089855 -138.222982 
L 410.975175 -139.173172 
L 412.799678 -140.055375 
L 414.684998 -135.814713 
L 416.570318 -148.039261 
L 418.273188 -149.074486 
L 420.158508 -145.875676 
L 421.983011 -143.147278 
L 423.868331 -145.510521 
L 425.692835 -147.046596 
L 427.578155 -148.947086 
L 429.463475 -139.999635 
L 431.287978 -145.263555 
L 433.173298 -146.959151 
L 434.997801 -141.235317 
L 436.883121 -146.807918 
L 438.768441 -147.972354 
L 440.471311 -143.925175 
L 442.356631 -130.893687 
L 444.181134 -150.053418 
L 446.066454 -142.762404 
L 447.890958 -149.643984 
L 449.776278 -147.358623 
L 451.661598 -145.021265 
L 453.486101 -146.789564 
L 455.371421 -142.580361 
L 457.195924 -136.210076 
L 459.081244 -141.182173 
L 460.966565 -138.732192 
L 462.669434 -152.076844 
L 464.554754 -157.350056 
L 466.379258 -147.999001 
L 468.264578 -152.671778 
L 470.089081 -143.463867 
L 471.974401 -161.379199 
L 473.859721 -175.553598 
L 475.684224 -142.534935 
L 477.569544 -152.699352 
L 479.394048 -140.607765 
L 481.279368 -151.644866 
L 483.164688 -146.519078 
L 484.928374 -151.420532 
L 486.813694 -153.391712 
L 488.638198 -149.758253 
L 490.523518 -194.755067 
L 492.348021 -159.851481 
L 494.233341 -149.207405 
L 496.118661 -159.207501 
L 497.943164 -152.201305 
L 499.828484 -134.597027 
L 501.652988 -138.021936 
L 503.538308 -152.68209 
L 505.423628 -151.564884 
L 507.126497 -136.404453 
L 509.011817 -152.598095 
L 510.836321 -145.551783 
L 512.721641 -158.539909 
L 514.546144 -147.472366 
L 516.431464 -147.455765 
L 518.316784 -156.487358 
L 520.141287 -148.95935 
L 522.026607 -141.996901 
L 523.851111 -146.628314 
L 525.736431 -155.003445 
L 527.621751 -142.988871 
L 529.324621 -143.990823 
L 531.209941 -140.798112 
L 533.034444 -142.749995 
L 534.919764 -138.622457 
L 536.744267 -132.49657 
L 538.629587 -143.520821 
L 540.514907 -145.800675 
L 542.339411 -157.817053 
L 544.224731 -121.059909 
L 546.049234 -137.360313 
L 547.934554 -159.544621 
L 549.819874 -144.391363 
L 551.522744 -150.551619 
L 553.408064 -144.017035 
L 555.232567 -141.197495 
L 557.117887 -153.408174 
L 558.94239 -137.127888 
L 560.82771 -151.690938 
L 562.71303 -147.034877 
L 564.537534 -134.887429 
L 566.422854 -141.107768 
L 568.247357 -139.022627 
L 570.132677 -157.467972 
L 570.132677 -290.235483 
L 570.132677 -290.235483 
L 568.247357 -271.773957 
L 566.422854 -273.876419 
L 564.537534 -267.701164 
L 562.71303 -279.882926 
L 560.82771 -284.570375 
L 558.94239 -269.967541 
L 557.117887 -286.290766 
L 555.232567 -274.086296 
L 553.408064 -276.926562 
L 551.522744 -283.499502 
L 549.819874 -277.379608 
L 547.934554 -292.559355 
L 546.049234 -270.341749 
L 544.224731 -254.08661 
L 542.339411 -290.616713 
L 540.514907 -278.573316 
L 538.629587 -276.338536 
L 536.744267 -265.343782 
L 534.919764 -271.341341 
L 533.034444 -275.513782 
L 531.209941 -273.59963 
L 529.324621 -276.812891 
L 527.621751 -275.841959 
L 525.736431 -287.894205 
L 523.851111 -279.528885 
L 522.026607 -274.94309 
L 520.141287 -281.94768 
L 518.316784 -289.517336 
L 516.431464 -280.514591 
L 514.546144 -280.574199 
L 512.721641 -291.681683 
L 510.836321 -278.698432 
L 509.011817 -285.79075 
L 507.126497 -269.634054 
L 505.423628 -284.834585 
L 503.538308 -285.989925 
L 501.652988 -271.341651 
L 499.828484 -267.947969 
L 497.943164 -285.585261 
L 496.118661 -292.615331 
L 494.233341 -282.650356 
L 492.348021 -293.301584 
L 490.523518 -328.233831 
L 488.638198 -283.246441 
L 486.813694 -285.545407 
L 484.928374 -283.612219 
L 483.164688 -278.739096 
L 481.279368 -283.906989 
L 479.394048 -272.866568 
L 477.569544 -285.000825 
L 475.684224 -274.85594 
L 473.859721 -307.755296 
L 471.974401 -293.625784 
L 470.089081 -275.751801 
L 468.264578 -284.975568 
L 466.379258 -280.329848 
L 464.554754 -289.727096 
L 462.669434 -284.44847 
L 460.966565 -271.138585 
L 459.081244 -273.54497 
L 457.195924 -268.612123 
L 455.371421 -274.978688 
L 453.486101 -279.232909 
L 451.661598 -277.500683 
L 449.776278 -279.883417 
L 447.890958 -282.21415 
L 446.066454 -275.370979 
L 444.181134 -282.684381 
L 442.356631 -263.56669 
L 440.471311 -276.60739 
L 438.768441 -280.662206 
L 436.883121 -279.533652 
L 434.997801 -274.002837 
L 433.173298 -279.76245 
L 431.287978 -278.112814 
L 429.463475 -272.89616 
L 427.578155 -281.889812 
L 425.692835 -280.034615 
L 423.868331 -278.543582 
L 421.983011 -276.227258 
L 420.158508 -279.000948 
L 418.273188 -282.241208 
L 416.570318 -281.249063 
L 414.684998 -269.021368 
L 412.799678 -273.306409 
L 410.975175 -272.471687 
L 409.089855 -271.565718 
L 407.265351 -293.100929 
L 405.380031 -284.61891 
L 403.494711 -274.558083 
L 401.670208 -282.965896 
L 399.784888 -281.852704 
L 397.960385 -290.949357 
L 396.075065 -266.515176 
L 394.311378 -278.412399 
L 392.426058 -271.30604 
L 390.540738 -288.668517 
L 388.716235 -269.453519 
L 386.830915 -278.686946 
L 385.006411 -281.376627 
L 383.121091 -277.346816 
L 381.235771 -269.169383 
L 379.411268 -281.42221 
L 377.525948 -274.92768 
L 375.701445 -277.655957 
L 373.816125 -290.274301 
L 372.113255 -282.137114 
L 370.227935 -287.556636 
L 368.342615 -277.145705 
L 366.518112 -278.296113 
L 364.632792 -279.605201 
L 362.808288 -280.134103 
L 360.922968 -279.846207 
L 359.037648 -282.971175 
L 357.213145 -276.097362 
L 355.327825 -281.721767 
L 353.503322 -281.226668 
L 351.618002 -279.069449 
L 349.915132 -271.14324 
L 348.029812 -277.518294 
L 346.144492 -283.319793 
L 344.319988 -280.153707 
L 342.434668 -276.457036 
L 340.610165 -286.280459 
L 338.724845 -255.721044 
L 336.839525 -277.464675 
L 335.015022 -287.18555 
L 333.129702 -282.370666 
L 331.305198 -282.008302 
L 329.419878 -270.945062 
L 327.717009 -281.171791 
L 325.831689 -274.454376 
L 323.946369 -272.233079 
L 322.121865 -286.039772 
L 320.236545 -272.475665 
L 318.412042 -289.009124 
L 316.526722 -288.341997 
L 314.641402 -285.869607 
L 312.816899 -280.740141 
L 310.931579 -265.797268 
L 309.107075 -283.267832 
L 307.221755 -289.250462 
L 305.458069 -281.368589 
L 303.572749 -284.475863 
L 301.687429 -273.85023 
L 299.862925 -294.086594 
L 297.977605 -273.40679 
L 296.153102 -285.331461 
L 294.267782 -276.597296 
L 292.382462 -283.727161 
L 290.557959 -281.284343 
L 288.672639 -276.83458 
L 286.848135 -273.666438 
L 284.962815 -287.609973 
L 283.259946 -261.785096 
L 281.374625 -268.891946 
L 279.489305 -286.451213 
L 277.664802 -282.799488 
L 275.779482 -289.933642 
L 273.954979 -281.180081 
L 272.069659 -280.299817 
L 270.184339 -272.110488 
L 268.359835 -282.501952 
L 266.474515 -292.50634 
L 264.650012 -277.631738 
L 262.764692 -295.396264 
L 261.061822 -314.17144 
L 259.176502 -340.561364 
L 257.291182 -285.679682 
L 255.466679 -284.226216 
L 253.581359 -288.329437 
L 251.756856 -275.208546 
L 249.871536 -275.553974 
L 247.986216 -221.834299 
L 246.161712 -288.669457 
L 244.276392 -256.894573 
L 242.451889 -171.948473 
L 240.566569 -216.508549 
L 238.863699 -299.78486 
L 236.978379 -262.626649 
L 235.093059 -205.637103 
L 233.268556 -275.24414 
L 231.383236 -284.084098 
L 229.558732 -264.500437 
L 227.673412 -259.378895 
L 225.788092 -271.841932 
L 223.963589 -275.15511 
L 222.078269 -281.117757 
L 220.253766 -279.517978 
L 218.368446 -273.689364 
L 216.604759 -283.874544 
L 214.719439 -274.768783 
L 212.834119 -281.929191 
L 211.009616 -287.662873 
L 209.124296 -276.461577 
L 207.299792 -282.661798 
L 205.414472 -266.398996 
L 203.529152 -280.474652 
L 201.704649 -285.529168 
L 199.819329 -275.685604 
L 197.994826 -281.756521 
L 196.109506 -271.964878 
L 194.406636 -279.883576 
L 192.521316 -281.143666 
L 190.635996 -280.657722 
L 188.811493 -283.541158 
L 186.926173 -282.877467 
L 185.101669 -279.752395 
L 183.216349 -273.173878 
L 181.331029 -275.710556 
L 179.506526 -271.063156 
L 177.621206 -277.974357 
L 175.796703 -274.328716 
L 173.911383 -279.040006 
L 172.208513 -280.843827 
L 170.323193 -289.39949 
L 168.437873 -271.120596 
L 166.613369 -278.560541 
L 164.728049 -277.973678 
L 162.903546 -273.478736 
L 161.018226 -284.775732 
L 159.132906 -283.548294 
L 157.308403 -275.58346 
L 155.423083 -269.972321 
L 153.598579 -281.492115 
L 151.713259 -274.625594 
L 150.01039 -278.576742 
L 148.12507 -288.07734 
L 146.23975 -275.789264 
L 144.415246 -286.774845 
L 142.529926 -280.321212 
L 140.705423 -276.684243 
L 138.820103 -291.487936 
L 136.934783 -269.713097 
L 135.11028 -275.674066 
L 133.22496 -278.456823 
L 131.400456 -277.595209 
L 129.515136 -287.135989 
L 127.75145 -288.199677 
L 125.86613 -286.806142 
L 123.98081 -280.945906 
L 122.156306 -291.7609 
L 120.270986 -270.259302 
L 118.446483 -262.104971 
L 116.561163 -295.468418 
L 114.675843 -297.364181 
L 112.85134 -284.690338 
L 110.96602 -281.331297 
L 109.141516 -269.580774 
L 107.256196 -279.190503 
L 105.553327 -273.725234 
L 103.668006 -285.58234 
L 101.782686 -269.759925 
L 99.958183 -276.769022 
L 98.072863 -288.939421 
L 96.24836 -264.090884 
L 94.36304 -272.01573 
L 92.47772 -273.577725 
L 90.653216 -272.80701 
L 88.767896 -276.865388 
L 86.943393 -274.417339 
L 85.058073 -278.321884 
L 83.355203 -268.96018 
L 81.469883 -281.675134 
L 79.584563 -288.023177 
L 77.76006 -251.886332 
L 75.87474 -282.293044 
L 74.050237 -267.356161 
L 72.164917 -272.509903 
L 70.279597 -281.62857 
L 68.455093 -265.686847 
L 66.569773 -261.905879 
L 64.74527 -273.212942 
L 62.85995 -280.648715 
z
" style="stroke: #808080; stroke-opacity: 0.3"/>
    </defs>
    <g clip-path="url(#pa5a0ddd862)">
     <use xlink:href="#m9efd191854" x="0" y="359.763971" style="fill: #808080; fill-opacity: 0.3; stroke: #808080; stroke-opacity: 0.3"/>
    </g>
   </g>
   <g id="matplotlib.axis_1">
    <g id="xtick_1">
     <g id="line2d_1">
      <defs>
       <path id="md12e912243" d="M 0 0 
L 0 -3 
" style="stroke: #000000; stroke-width: 0.5"/>
      </defs>
      <g>
       <use xlink:href="#md12e912243" x="125.926946" y="336.722607" style="stroke: #000000; stroke-width: 0.5"/>
      </g>
     </g>
     <g id="line2d_2">
      <defs>
       <path id="m3aac193800" d="M 0 0 
L 0 3 
" style="stroke: #000000; stroke-width: 0.5"/>
      </defs>
      <g>
       <use xlink:href="#m3aac193800" x="125.926946" y="4.082607" style="stroke: #000000; stroke-width: 0.5"/>
      </g>
     </g>
     <g id="text_1">
      <!-- $\mathdefault{2004}$ -->
      <g transform="translate(109.478375 352.675907) scale(0.18 -0.18)">
       <defs>
        <path id="CMR17-32" d="M 2669 990 
L 2554 990 
C 2490 537 2438 460 2413 422 
C 2381 371 1920 371 1830 371 
L 602 371 
C 832 620 1280 1073 1824 1596 
C 2214 1966 2669 2400 2669 3033 
C 2669 3788 2067 4224 1395 4224 
C 691 4224 262 3603 262 3027 
C 262 2777 448 2745 525 2745 
C 589 2745 781 2783 781 3007 
C 781 3206 614 3264 525 3264 
C 486 3264 448 3257 422 3244 
C 544 3788 915 4057 1306 4057 
C 1862 4057 2227 3616 2227 3033 
C 2227 2477 1901 1998 1536 1583 
L 262 147 
L 262 0 
L 2515 0 
L 2669 990 
z
" transform="scale(0.015625)"/>
        <path id="CMR17-30" d="M 2688 2038 
C 2688 2430 2682 3099 2413 3613 
C 2176 4063 1798 4224 1466 4224 
C 1158 4224 768 4082 525 3620 
C 269 3137 243 2539 243 2038 
C 243 1671 250 1112 448 623 
C 723 -39 1216 -128 1466 -128 
C 1760 -128 2208 -7 2470 604 
C 2662 1048 2688 1568 2688 2038 
z
M 1466 -26 
C 1056 -26 813 328 723 816 
C 653 1196 653 1749 653 2109 
C 653 2604 653 3015 736 3407 
C 858 3954 1216 4121 1466 4121 
C 1728 4121 2067 3947 2189 3420 
C 2272 3054 2278 2623 2278 2109 
C 2278 1691 2278 1176 2202 797 
C 2067 96 1690 -26 1466 -26 
z
" transform="scale(0.015625)"/>
        <path id="CMR17-34" d="M 2150 4147 
C 2150 4281 2144 4288 2029 4288 
L 128 1254 
L 128 1088 
L 1779 1088 
L 1779 460 
C 1779 230 1766 166 1318 166 
L 1197 166 
L 1197 0 
C 1402 12 1747 12 1965 12 
C 2182 12 2528 12 2733 0 
L 2733 166 
L 2611 166 
C 2163 166 2150 230 2150 460 
L 2150 1088 
L 2803 1088 
L 2803 1254 
L 2150 1254 
L 2150 4147 
z
M 1798 3723 
L 1798 1254 
L 256 1254 
L 1798 3723 
z
" transform="scale(0.015625)"/>
       </defs>
       <use xlink:href="#CMR17-32" transform="scale(0.996264)"/>
       <use xlink:href="#CMR17-30" transform="translate(45.690477 0) scale(0.996264)"/>
       <use xlink:href="#CMR17-30" transform="translate(91.380954 0) scale(0.996264)"/>
       <use xlink:href="#CMR17-34" transform="translate(137.071431 0) scale(0.996264)"/>
      </g>
     </g>
    </g>
    <g id="xtick_2">
     <g id="line2d_3">
      <g>
       <use xlink:href="#md12e912243" x="214.780256" y="336.722607" style="stroke: #000000; stroke-width: 0.5"/>
      </g>
     </g>
     <g id="line2d_4">
      <g>
       <use xlink:href="#m3aac193800" x="214.780256" y="4.082607" style="stroke: #000000; stroke-width: 0.5"/>
      </g>
     </g>
     <g id="text_2">
      <!-- $\mathdefault{2008}$ -->
      <g transform="translate(198.331684 352.675907) scale(0.18 -0.18)">
       <defs>
        <path id="CMR17-38" d="M 1741 2289 
C 2144 2494 2554 2803 2554 3298 
C 2554 3884 1990 4224 1472 4224 
C 890 4224 378 3800 378 3215 
C 378 3054 416 2777 666 2533 
C 730 2469 998 2276 1171 2154 
C 883 2006 211 1652 211 945 
C 211 282 838 -128 1459 -128 
C 2144 -128 2720 366 2720 1022 
C 2720 1607 2330 1877 2074 2051 
L 1741 2289 
z
M 902 2855 
C 851 2887 595 3086 595 3388 
C 595 3781 998 4076 1459 4076 
C 1965 4076 2336 3716 2336 3298 
C 2336 2700 1670 2359 1638 2359 
C 1632 2359 1626 2359 1574 2398 
L 902 2855 
z
M 2080 1536 
C 2176 1466 2483 1253 2483 861 
C 2483 385 2010 25 1472 25 
C 890 25 448 443 448 951 
C 448 1459 838 1884 1280 2083 
L 2080 1536 
z
" transform="scale(0.015625)"/>
       </defs>
       <use xlink:href="#CMR17-32" transform="scale(0.996264)"/>
       <use xlink:href="#CMR17-30" transform="translate(45.690477 0) scale(0.996264)"/>
       <use xlink:href="#CMR17-30" transform="translate(91.380954 0) scale(0.996264)"/>
       <use xlink:href="#CMR17-38" transform="translate(137.071431 0) scale(0.996264)"/>
      </g>
     </g>
    </g>
    <g id="xtick_3">
     <g id="line2d_5">
      <g>
       <use xlink:href="#md12e912243" x="303.633565" y="336.722607" style="stroke: #000000; stroke-width: 0.5"/>
      </g>
     </g>
     <g id="line2d_6">
      <g>
       <use xlink:href="#m3aac193800" x="303.633565" y="4.082607" style="stroke: #000000; stroke-width: 0.5"/>
      </g>
     </g>
     <g id="text_3">
      <!-- $\mathdefault{2012}$ -->
      <g transform="translate(287.184994 352.675907) scale(0.18 -0.18)">
       <defs>
        <path id="CMR17-31" d="M 1702 4083 
C 1702 4217 1696 4224 1606 4224 
C 1357 3927 979 3833 621 3820 
C 602 3820 570 3820 563 3808 
C 557 3795 557 3782 557 3648 
C 755 3648 1088 3686 1344 3839 
L 1344 467 
C 1344 243 1331 166 781 166 
L 589 166 
L 589 0 
C 896 6 1216 12 1523 12 
C 1830 12 2150 6 2458 0 
L 2458 166 
L 2266 166 
C 1715 166 1702 236 1702 467 
L 1702 4083 
z
" transform="scale(0.015625)"/>
       </defs>
       <use xlink:href="#CMR17-32" transform="scale(0.996264)"/>
       <use xlink:href="#CMR17-30" transform="translate(45.690477 0) scale(0.996264)"/>
       <use xlink:href="#CMR17-31" transform="translate(91.380954 0) scale(0.996264)"/>
       <use xlink:href="#CMR17-32" transform="translate(137.071431 0) scale(0.996264)"/>
      </g>
     </g>
    </g>
    <g id="xtick_4">
     <g id="line2d_7">
      <g>
       <use xlink:href="#md12e912243" x="392.486875" y="336.722607" style="stroke: #000000; stroke-width: 0.5"/>
      </g>
     </g>
     <g id="line2d_8">
      <g>
       <use xlink:href="#m3aac193800" x="392.486875" y="4.082607" style="stroke: #000000; stroke-width: 0.5"/>
      </g>
     </g>
     <g id="text_4">
      <!-- $\mathdefault{2016}$ -->
      <g transform="translate(376.038303 352.675907) scale(0.18 -0.18)">
       <defs>
        <path id="CMR17-36" d="M 678 2198 
C 678 3712 1395 4076 1811 4076 
C 1946 4076 2272 4049 2400 3782 
C 2298 3782 2106 3782 2106 3558 
C 2106 3385 2246 3328 2336 3328 
C 2394 3328 2566 3353 2566 3571 
C 2566 3987 2246 4224 1805 4224 
C 1043 4224 243 3411 243 2011 
C 243 257 966 -128 1478 -128 
C 2099 -128 2688 431 2688 1295 
C 2688 2101 2170 2688 1517 2688 
C 1126 2688 838 2430 678 1979 
L 678 2198 
z
M 1478 25 
C 691 25 691 1212 691 1450 
C 691 1914 909 2585 1504 2585 
C 1613 2585 1926 2585 2138 2140 
C 2253 1889 2253 1624 2253 1302 
C 2253 954 2253 696 2118 438 
C 1978 173 1773 25 1478 25 
z
" transform="scale(0.015625)"/>
       </defs>
       <use xlink:href="#CMR17-32" transform="scale(0.996264)"/>
       <use xlink:href="#CMR17-30" transform="translate(45.690477 0) scale(0.996264)"/>
       <use xlink:href="#CMR17-31" transform="translate(91.380954 0) scale(0.996264)"/>
       <use xlink:href="#CMR17-36" transform="translate(137.071431 0) scale(0.996264)"/>
      </g>
     </g>
    </g>
    <g id="xtick_5">
     <g id="line2d_9">
      <g>
       <use xlink:href="#md12e912243" x="481.340184" y="336.722607" style="stroke: #000000; stroke-width: 0.5"/>
      </g>
     </g>
     <g id="line2d_10">
      <g>
       <use xlink:href="#m3aac193800" x="481.340184" y="4.082607" style="stroke: #000000; stroke-width: 0.5"/>
      </g>
     </g>
     <g id="text_5">
      <!-- $\mathdefault{2020}$ -->
      <g transform="translate(464.891613 352.675907) scale(0.18 -0.18)">
       <use xlink:href="#CMR17-32" transform="scale(0.996264)"/>
       <use xlink:href="#CMR17-30" transform="translate(45.690477 0) scale(0.996264)"/>
       <use xlink:href="#CMR17-32" transform="translate(91.380954 0) scale(0.996264)"/>
       <use xlink:href="#CMR17-30" transform="translate(137.071431 0) scale(0.996264)"/>
      </g>
     </g>
    </g>
    <g id="xtick_6">
     <g id="line2d_11">
      <g>
       <use xlink:href="#md12e912243" x="570.193494" y="336.722607" style="stroke: #000000; stroke-width: 0.5"/>
      </g>
     </g>
     <g id="line2d_12">
      <g>
       <use xlink:href="#m3aac193800" x="570.193494" y="4.082607" style="stroke: #000000; stroke-width: 0.5"/>
      </g>
     </g>
     <g id="text_6">
      <!-- $\mathdefault{2024}$ -->
      <g transform="translate(553.744922 352.675907) scale(0.18 -0.18)">
       <use xlink:href="#CMR17-32" transform="scale(0.996264)"/>
       <use xlink:href="#CMR17-30" transform="translate(45.690477 0) scale(0.996264)"/>
       <use xlink:href="#CMR17-32" transform="translate(91.380954 0) scale(0.996264)"/>
       <use xlink:href="#CMR17-34" transform="translate(137.071431 0) scale(0.996264)"/>
      </g>
     </g>
    </g>
    <g id="xtick_7">
     <g id="line2d_13">
      <defs>
       <path id="m110a566e94" d="M 0 0 
L 0 -1.5 
" style="stroke: #000000; stroke-width: 0.5"/>
      </defs>
      <g>
       <use xlink:href="#m110a566e94" x="59.286964" y="336.722607" style="stroke: #000000; stroke-width: 0.5"/>
      </g>
     </g>
     <g id="line2d_14">
      <defs>
       <path id="m1f29b8f894" d="M 0 0 
L 0 1.5 
" style="stroke: #000000; stroke-width: 0.5"/>
      </defs>
      <g>
       <use xlink:href="#m1f29b8f894" x="59.286964" y="4.082607" style="stroke: #000000; stroke-width: 0.5"/>
      </g>
     </g>
    </g>
    <g id="xtick_8">
     <g id="line2d_15">
      <g>
       <use xlink:href="#m110a566e94" x="81.500292" y="336.722607" style="stroke: #000000; stroke-width: 0.5"/>
      </g>
     </g>
     <g id="line2d_16">
      <g>
       <use xlink:href="#m1f29b8f894" x="81.500292" y="4.082607" style="stroke: #000000; stroke-width: 0.5"/>
      </g>
     </g>
    </g>
    <g id="xtick_9">
     <g id="line2d_17">
      <g>
       <use xlink:href="#m110a566e94" x="103.713619" y="336.722607" style="stroke: #000000; stroke-width: 0.5"/>
      </g>
     </g>
     <g id="line2d_18">
      <g>
       <use xlink:href="#m1f29b8f894" x="103.713619" y="4.082607" style="stroke: #000000; stroke-width: 0.5"/>
      </g>
     </g>
    </g>
    <g id="xtick_10">
     <g id="line2d_19">
      <g>
       <use xlink:href="#m110a566e94" x="148.140274" y="336.722607" style="stroke: #000000; stroke-width: 0.5"/>
      </g>
     </g>
     <g id="line2d_20">
      <g>
       <use xlink:href="#m1f29b8f894" x="148.140274" y="4.082607" style="stroke: #000000; stroke-width: 0.5"/>
      </g>
     </g>
    </g>
    <g id="xtick_11">
     <g id="line2d_21">
      <g>
       <use xlink:href="#m110a566e94" x="170.353601" y="336.722607" style="stroke: #000000; stroke-width: 0.5"/>
      </g>
     </g>
     <g id="line2d_22">
      <g>
       <use xlink:href="#m1f29b8f894" x="170.353601" y="4.082607" style="stroke: #000000; stroke-width: 0.5"/>
      </g>
     </g>
    </g>
    <g id="xtick_12">
     <g id="line2d_23">
      <g>
       <use xlink:href="#m110a566e94" x="192.566929" y="336.722607" style="stroke: #000000; stroke-width: 0.5"/>
      </g>
     </g>
     <g id="line2d_24">
      <g>
       <use xlink:href="#m1f29b8f894" x="192.566929" y="4.082607" style="stroke: #000000; stroke-width: 0.5"/>
      </g>
     </g>
    </g>
    <g id="xtick_13">
     <g id="line2d_25">
      <g>
       <use xlink:href="#m110a566e94" x="236.993583" y="336.722607" style="stroke: #000000; stroke-width: 0.5"/>
      </g>
     </g>
     <g id="line2d_26">
      <g>
       <use xlink:href="#m1f29b8f894" x="236.993583" y="4.082607" style="stroke: #000000; stroke-width: 0.5"/>
      </g>
     </g>
    </g>
    <g id="xtick_14">
     <g id="line2d_27">
      <g>
       <use xlink:href="#m110a566e94" x="259.206911" y="336.722607" style="stroke: #000000; stroke-width: 0.5"/>
      </g>
     </g>
     <g id="line2d_28">
      <g>
       <use xlink:href="#m1f29b8f894" x="259.206911" y="4.082607" style="stroke: #000000; stroke-width: 0.5"/>
      </g>
     </g>
    </g>
    <g id="xtick_15">
     <g id="line2d_29">
      <g>
       <use xlink:href="#m110a566e94" x="281.420238" y="336.722607" style="stroke: #000000; stroke-width: 0.5"/>
      </g>
     </g>
     <g id="line2d_30">
      <g>
       <use xlink:href="#m1f29b8f894" x="281.420238" y="4.082607" style="stroke: #000000; stroke-width: 0.5"/>
      </g>
     </g>
    </g>
    <g id="xtick_16">
     <g id="line2d_31">
      <g>
       <use xlink:href="#m110a566e94" x="325.846893" y="336.722607" style="stroke: #000000; stroke-width: 0.5"/>
      </g>
     </g>
     <g id="line2d_32">
      <g>
       <use xlink:href="#m1f29b8f894" x="325.846893" y="4.082607" style="stroke: #000000; stroke-width: 0.5"/>
      </g>
     </g>
    </g>
    <g id="xtick_17">
     <g id="line2d_33">
      <g>
       <use xlink:href="#m110a566e94" x="348.06022" y="336.722607" style="stroke: #000000; stroke-width: 0.5"/>
      </g>
     </g>
     <g id="line2d_34">
      <g>
       <use xlink:href="#m1f29b8f894" x="348.06022" y="4.082607" style="stroke: #000000; stroke-width: 0.5"/>
      </g>
     </g>
    </g>
    <g id="xtick_18">
     <g id="line2d_35">
      <g>
       <use xlink:href="#m110a566e94" x="370.273548" y="336.722607" style="stroke: #000000; stroke-width: 0.5"/>
      </g>
     </g>
     <g id="line2d_36">
      <g>
       <use xlink:href="#m1f29b8f894" x="370.273548" y="4.082607" style="stroke: #000000; stroke-width: 0.5"/>
      </g>
     </g>
    </g>
    <g id="xtick_19">
     <g id="line2d_37">
      <g>
       <use xlink:href="#m110a566e94" x="414.700202" y="336.722607" style="stroke: #000000; stroke-width: 0.5"/>
      </g>
     </g>
     <g id="line2d_38">
      <g>
       <use xlink:href="#m1f29b8f894" x="414.700202" y="4.082607" style="stroke: #000000; stroke-width: 0.5"/>
      </g>
     </g>
    </g>
    <g id="xtick_20">
     <g id="line2d_39">
      <g>
       <use xlink:href="#m110a566e94" x="436.91353" y="336.722607" style="stroke: #000000; stroke-width: 0.5"/>
      </g>
     </g>
     <g id="line2d_40">
      <g>
       <use xlink:href="#m1f29b8f894" x="436.91353" y="4.082607" style="stroke: #000000; stroke-width: 0.5"/>
      </g>
     </g>
    </g>
    <g id="xtick_21">
     <g id="line2d_41">
      <g>
       <use xlink:href="#m110a566e94" x="459.126857" y="336.722607" style="stroke: #000000; stroke-width: 0.5"/>
      </g>
     </g>
     <g id="line2d_42">
      <g>
       <use xlink:href="#m1f29b8f894" x="459.126857" y="4.082607" style="stroke: #000000; stroke-width: 0.5"/>
      </g>
     </g>
    </g>
    <g id="xtick_22">
     <g id="line2d_43">
      <g>
       <use xlink:href="#m110a566e94" x="503.553512" y="336.722607" style="stroke: #000000; stroke-width: 0.5"/>
      </g>
     </g>
     <g id="line2d_44">
      <g>
       <use xlink:href="#m1f29b8f894" x="503.553512" y="4.082607" style="stroke: #000000; stroke-width: 0.5"/>
      </g>
     </g>
    </g>
    <g id="xtick_23">
     <g id="line2d_45">
      <g>
       <use xlink:href="#m110a566e94" x="525.766839" y="336.722607" style="stroke: #000000; stroke-width: 0.5"/>
      </g>
     </g>
     <g id="line2d_46">
      <g>
       <use xlink:href="#m1f29b8f894" x="525.766839" y="4.082607" style="stroke: #000000; stroke-width: 0.5"/>
      </g>
     </g>
    </g>
    <g id="xtick_24">
     <g id="line2d_47">
      <g>
       <use xlink:href="#m110a566e94" x="547.980167" y="336.722607" style="stroke: #000000; stroke-width: 0.5"/>
      </g>
     </g>
     <g id="line2d_48">
      <g>
       <use xlink:href="#m1f29b8f894" x="547.980167" y="4.082607" style="stroke: #000000; stroke-width: 0.5"/>
      </g>
     </g>
    </g>
    <g id="xtick_25">
     <g id="line2d_49">
      <g>
       <use xlink:href="#m110a566e94" x="592.406821" y="336.722607" style="stroke: #000000; stroke-width: 0.5"/>
      </g>
     </g>
     <g id="line2d_50">
      <g>
       <use xlink:href="#m1f29b8f894" x="592.406821" y="4.082607" style="stroke: #000000; stroke-width: 0.5"/>
      </g>
     </g>
    </g>
   </g>
   <g id="matplotlib.axis_2">
    <g id="ytick_1">
     <g id="line2d_51">
      <defs>
       <path id="mabca36337d" d="M 0 0 
L 3 0 
" style="stroke: #000000; stroke-width: 0.5"/>
      </defs>
      <g>
       <use xlink:href="#mabca36337d" x="37.496314" y="292.101338" style="stroke: #000000; stroke-width: 0.5"/>
      </g>
     </g>
     <g id="line2d_52">
      <defs>
       <path id="m6bc43c8d96" d="M 0 0 
L -3 0 
" style="stroke: #000000; stroke-width: 0.5"/>
      </defs>
      <g>
       <use xlink:href="#m6bc43c8d96" x="595.496314" y="292.101338" style="stroke: #000000; stroke-width: 0.5"/>
      </g>
     </g>
     <g id="text_7">
      <!-- $\mathdefault{−20}$ -->
      <g transform="translate(3.6 298.327988) scale(0.18 -0.18)">
       <defs>
        <path id="CMSY10-0" d="M 4218 1472 
C 4326 1472 4442 1472 4442 1600 
C 4442 1728 4326 1728 4218 1728 
L 755 1728 
C 646 1728 531 1728 531 1600 
C 531 1472 646 1472 755 1472 
L 4218 1472 
z
" transform="scale(0.015625)"/>
       </defs>
       <use xlink:href="#CMSY10-0" transform="scale(0.996264)"/>
       <use xlink:href="#CMR17-32" transform="translate(77.487468 0) scale(0.996264)"/>
       <use xlink:href="#CMR17-30" transform="translate(123.177945 0) scale(0.996264)"/>
      </g>
     </g>
    </g>
    <g id="ytick_2">
     <g id="line2d_53">
      <g>
       <use xlink:href="#mabca36337d" x="37.496314" y="221.532666" style="stroke: #000000; stroke-width: 0.5"/>
      </g>
     </g>
     <g id="line2d_54">
      <g>
       <use xlink:href="#m6bc43c8d96" x="595.496314" y="221.532666" style="stroke: #000000; stroke-width: 0.5"/>
      </g>
     </g>
     <g id="text_8">
      <!-- $\mathdefault{−10}$ -->
      <g transform="translate(3.6 227.759316) scale(0.18 -0.18)">
       <use xlink:href="#CMSY10-0" transform="scale(0.996264)"/>
       <use xlink:href="#CMR17-31" transform="translate(77.487468 0) scale(0.996264)"/>
       <use xlink:href="#CMR17-30" transform="translate(123.177945 0) scale(0.996264)"/>
      </g>
     </g>
    </g>
    <g id="ytick_3">
     <g id="line2d_55">
      <g>
       <use xlink:href="#mabca36337d" x="37.496314" y="150.963994" style="stroke: #000000; stroke-width: 0.5"/>
      </g>
     </g>
     <g id="line2d_56">
      <g>
       <use xlink:href="#m6bc43c8d96" x="595.496314" y="150.963994" style="stroke: #000000; stroke-width: 0.5"/>
      </g>
     </g>
     <g id="text_9">
      <!-- $\mathdefault{0}$ -->
      <g transform="translate(25.772028 157.190644) scale(0.18 -0.18)">
       <use xlink:href="#CMR17-30" transform="scale(0.996264)"/>
      </g>
     </g>
    </g>
    <g id="ytick_4">
     <g id="line2d_57">
      <g>
       <use xlink:href="#mabca36337d" x="37.496314" y="80.395322" style="stroke: #000000; stroke-width: 0.5"/>
      </g>
     </g>
     <g id="line2d_58">
      <g>
       <use xlink:href="#m6bc43c8d96" x="595.496314" y="80.395322" style="stroke: #000000; stroke-width: 0.5"/>
      </g>
     </g>
     <g id="text_10">
      <!-- $\mathdefault{10}$ -->
      <g transform="translate(17.547742 86.621972) scale(0.18 -0.18)">
       <use xlink:href="#CMR17-31" transform="scale(0.996264)"/>
       <use xlink:href="#CMR17-30" transform="translate(45.690477 0) scale(0.996264)"/>
      </g>
     </g>
    </g>
    <g id="ytick_5">
     <g id="line2d_59">
      <g>
       <use xlink:href="#mabca36337d" x="37.496314" y="9.82665" style="stroke: #000000; stroke-width: 0.5"/>
      </g>
     </g>
     <g id="line2d_60">
      <g>
       <use xlink:href="#m6bc43c8d96" x="595.496314" y="9.82665" style="stroke: #000000; stroke-width: 0.5"/>
      </g>
     </g>
     <g id="text_11">
      <!-- $\mathdefault{20}$ -->
      <g transform="translate(17.547742 16.0533) scale(0.18 -0.18)">
       <use xlink:href="#CMR17-32" transform="scale(0.996264)"/>
       <use xlink:href="#CMR17-30" transform="translate(45.690477 0) scale(0.996264)"/>
      </g>
     </g>
    </g>
    <g id="ytick_6">
     <g id="line2d_61">
      <defs>
       <path id="m43ff2b107f" d="M 0 0 
L 1.5 0 
" style="stroke: #000000; stroke-width: 0.5"/>
      </defs>
      <g>
       <use xlink:href="#m43ff2b107f" x="37.496314" y="334.442541" style="stroke: #000000; stroke-width: 0.5"/>
      </g>
     </g>
     <g id="line2d_62">
      <defs>
       <path id="mc70338b249" d="M 0 0 
L -1.5 0 
" style="stroke: #000000; stroke-width: 0.5"/>
      </defs>
      <g>
       <use xlink:href="#mc70338b249" x="595.496314" y="334.442541" style="stroke: #000000; stroke-width: 0.5"/>
      </g>
     </g>
    </g>
    <g id="ytick_7">
     <g id="line2d_63">
      <g>
       <use xlink:href="#m43ff2b107f" x="37.496314" y="320.328807" style="stroke: #000000; stroke-width: 0.5"/>
      </g>
     </g>
     <g id="line2d_64">
      <g>
       <use xlink:href="#mc70338b249" x="595.496314" y="320.328807" style="stroke: #000000; stroke-width: 0.5"/>
      </g>
     </g>
    </g>
    <g id="ytick_8">
     <g id="line2d_65">
      <g>
       <use xlink:href="#m43ff2b107f" x="37.496314" y="306.215073" style="stroke: #000000; stroke-width: 0.5"/>
      </g>
     </g>
     <g id="line2d_66">
      <g>
       <use xlink:href="#mc70338b249" x="595.496314" y="306.215073" style="stroke: #000000; stroke-width: 0.5"/>
      </g>
     </g>
    </g>
    <g id="ytick_9">
     <g id="line2d_67">
      <g>
       <use xlink:href="#m43ff2b107f" x="37.496314" y="277.987604" style="stroke: #000000; stroke-width: 0.5"/>
      </g>
     </g>
     <g id="line2d_68">
      <g>
       <use xlink:href="#mc70338b249" x="595.496314" y="277.987604" style="stroke: #000000; stroke-width: 0.5"/>
      </g>
     </g>
    </g>
    <g id="ytick_10">
     <g id="line2d_69">
      <g>
       <use xlink:href="#m43ff2b107f" x="37.496314" y="263.873869" style="stroke: #000000; stroke-width: 0.5"/>
      </g>
     </g>
     <g id="line2d_70">
      <g>
       <use xlink:href="#mc70338b249" x="595.496314" y="263.873869" style="stroke: #000000; stroke-width: 0.5"/>
      </g>
     </g>
    </g>
    <g id="ytick_11">
     <g id="line2d_71">
      <g>
       <use xlink:href="#m43ff2b107f" x="37.496314" y="249.760135" style="stroke: #000000; stroke-width: 0.5"/>
      </g>
     </g>
     <g id="line2d_72">
      <g>
       <use xlink:href="#mc70338b249" x="595.496314" y="249.760135" style="stroke: #000000; stroke-width: 0.5"/>
      </g>
     </g>
    </g>
    <g id="ytick_12">
     <g id="line2d_73">
      <g>
       <use xlink:href="#m43ff2b107f" x="37.496314" y="235.646401" style="stroke: #000000; stroke-width: 0.5"/>
      </g>
     </g>
     <g id="line2d_74">
      <g>
       <use xlink:href="#mc70338b249" x="595.496314" y="235.646401" style="stroke: #000000; stroke-width: 0.5"/>
      </g>
     </g>
    </g>
    <g id="ytick_13">
     <g id="line2d_75">
      <g>
       <use xlink:href="#m43ff2b107f" x="37.496314" y="207.418932" style="stroke: #000000; stroke-width: 0.5"/>
      </g>
     </g>
     <g id="line2d_76">
      <g>
       <use xlink:href="#mc70338b249" x="595.496314" y="207.418932" style="stroke: #000000; stroke-width: 0.5"/>
      </g>
     </g>
    </g>
    <g id="ytick_14">
     <g id="line2d_77">
      <g>
       <use xlink:href="#m43ff2b107f" x="37.496314" y="193.305197" style="stroke: #000000; stroke-width: 0.5"/>
      </g>
     </g>
     <g id="line2d_78">
      <g>
       <use xlink:href="#mc70338b249" x="595.496314" y="193.305197" style="stroke: #000000; stroke-width: 0.5"/>
      </g>
     </g>
    </g>
    <g id="ytick_15">
     <g id="line2d_79">
      <g>
       <use xlink:href="#m43ff2b107f" x="37.496314" y="179.191463" style="stroke: #000000; stroke-width: 0.5"/>
      </g>
     </g>
     <g id="line2d_80">
      <g>
       <use xlink:href="#mc70338b249" x="595.496314" y="179.191463" style="stroke: #000000; stroke-width: 0.5"/>
      </g>
     </g>
    </g>
    <g id="ytick_16">
     <g id="line2d_81">
      <g>
       <use xlink:href="#m43ff2b107f" x="37.496314" y="165.077729" style="stroke: #000000; stroke-width: 0.5"/>
      </g>
     </g>
     <g id="line2d_82">
      <g>
       <use xlink:href="#mc70338b249" x="595.496314" y="165.077729" style="stroke: #000000; stroke-width: 0.5"/>
      </g>
     </g>
    </g>
    <g id="ytick_17">
     <g id="line2d_83">
      <g>
       <use xlink:href="#m43ff2b107f" x="37.496314" y="136.85026" style="stroke: #000000; stroke-width: 0.5"/>
      </g>
     </g>
     <g id="line2d_84">
      <g>
       <use xlink:href="#mc70338b249" x="595.496314" y="136.85026" style="stroke: #000000; stroke-width: 0.5"/>
      </g>
     </g>
    </g>
    <g id="ytick_18">
     <g id="line2d_85">
      <g>
       <use xlink:href="#m43ff2b107f" x="37.496314" y="122.736525" style="stroke: #000000; stroke-width: 0.5"/>
      </g>
     </g>
     <g id="line2d_86">
      <g>
       <use xlink:href="#mc70338b249" x="595.496314" y="122.736525" style="stroke: #000000; stroke-width: 0.5"/>
      </g>
     </g>
    </g>
    <g id="ytick_19">
     <g id="line2d_87">
      <g>
       <use xlink:href="#m43ff2b107f" x="37.496314" y="108.622791" style="stroke: #000000; stroke-width: 0.5"/>
      </g>
     </g>
     <g id="line2d_88">
      <g>
       <use xlink:href="#mc70338b249" x="595.496314" y="108.622791" style="stroke: #000000; stroke-width: 0.5"/>
      </g>
     </g>
    </g>
    <g id="ytick_20">
     <g id="line2d_89">
      <g>
       <use xlink:href="#m43ff2b107f" x="37.496314" y="94.509056" style="stroke: #000000; stroke-width: 0.5"/>
      </g>
     </g>
     <g id="line2d_90">
      <g>
       <use xlink:href="#mc70338b249" x="595.496314" y="94.509056" style="stroke: #000000; stroke-width: 0.5"/>
      </g>
     </g>
    </g>
    <g id="ytick_21">
     <g id="line2d_91">
      <g>
       <use xlink:href="#m43ff2b107f" x="37.496314" y="66.281588" style="stroke: #000000; stroke-width: 0.5"/>
      </g>
     </g>
     <g id="line2d_92">
      <g>
       <use xlink:href="#mc70338b249" x="595.496314" y="66.281588" style="stroke: #000000; stroke-width: 0.5"/>
      </g>
     </g>
    </g>
    <g id="ytick_22">
     <g id="line2d_93">
      <g>
       <use xlink:href="#m43ff2b107f" x="37.496314" y="52.167853" style="stroke: #000000; stroke-width: 0.5"/>
      </g>
     </g>
     <g id="line2d_94">
      <g>
       <use xlink:href="#mc70338b249" x="595.496314" y="52.167853" style="stroke: #000000; stroke-width: 0.5"/>
      </g>
     </g>
    </g>
    <g id="ytick_23">
     <g id="line2d_95">
      <g>
       <use xlink:href="#m43ff2b107f" x="37.496314" y="38.054119" style="stroke: #000000; stroke-width: 0.5"/>
      </g>
     </g>
     <g id="line2d_96">
      <g>
       <use xlink:href="#mc70338b249" x="595.496314" y="38.054119" style="stroke: #000000; stroke-width: 0.5"/>
      </g>
     </g>
    </g>
    <g id="ytick_24">
     <g id="line2d_97">
      <g>
       <use xlink:href="#m43ff2b107f" x="37.496314" y="23.940384" style="stroke: #000000; stroke-width: 0.5"/>
      </g>
     </g>
     <g id="line2d_98">
      <g>
       <use xlink:href="#mc70338b249" x="595.496314" y="23.940384" style="stroke: #000000; stroke-width: 0.5"/>
      </g>
     </g>
    </g>
   </g>
   <g id="line2d_99">
    <path d="M 62.85995 166.930511 
L 64.74527 218.934166 
L 66.569773 148.593573 
L 68.455093 104.749028 
L 70.279597 168.773891 
L 72.164917 170.756731 
L 74.050237 166.334266 
L 75.87474 236.048723 
L 77.76006 129.704257 
L 79.584563 116.995222 
L 81.469883 141.501375 
L 83.355203 153.879217 
L 85.058073 175.870057 
L 86.943393 117.702798 
L 88.767896 177.042599 
L 90.653216 172.015256 
L 92.47772 194.959134 
L 94.36304 232.331219 
L 96.24836 144.00087 
L 98.072863 186.438923 
L 99.958183 161.763944 
L 101.782686 106.718109 
L 103.668006 159.350683 
L 105.553327 153.590145 
L 107.256196 198.881473 
L 109.141516 142.916448 
L 110.96602 115.685722 
L 112.85134 115.455553 
L 114.675843 112.779316 
L 116.561163 147.728691 
L 118.446483 153.107328 
L 120.270986 129.949594 
L 122.156306 137.735645 
L 123.98081 143.415892 
L 127.75145 117.873088 
L 129.515136 144.241582 
L 131.400456 163.027947 
L 133.22496 145.099233 
L 135.11028 170.266225 
L 136.934783 132.035452 
L 138.820103 167.930723 
L 140.705423 161.838291 
L 142.529926 132.593227 
L 144.415246 151.24818 
L 146.23975 119.022602 
L 148.12507 132.922653 
L 150.01039 161.517092 
L 151.713259 140.163787 
L 153.598579 153.751934 
L 155.423083 169.192449 
L 157.308403 142.619918 
L 159.132906 136.752132 
L 161.018226 139.32691 
L 162.903546 149.792902 
L 164.728049 150.013551 
L 166.613369 170.788549 
L 168.437873 124.578969 
L 170.323193 137.016046 
L 172.208513 141.7095 
L 173.911383 152.112809 
L 175.796703 141.579921 
L 177.621206 146.380661 
L 179.506526 157.584841 
L 181.331029 171.410299 
L 183.216349 146.993915 
L 185.101669 136.054038 
L 186.926173 134.389053 
L 188.811493 126.936235 
L 190.635996 138.009039 
L 192.521316 136.985956 
L 194.406636 147.11828 
L 196.109506 140.810053 
L 197.994826 169.697622 
L 199.819329 123.087786 
L 201.704649 128.425878 
L 203.529152 149.541111 
L 205.414472 147.931878 
L 207.299792 182.319513 
L 209.124296 130.64123 
L 211.009616 131.191816 
L 212.834119 186.817079 
L 214.719439 143.371327 
L 216.604759 200.595207 
L 218.368446 163.298718 
L 220.253766 171.001718 
L 222.078269 122.847401 
L 223.963589 134.298603 
L 225.788092 182.838156 
L 227.673412 196.559535 
L 229.558732 137.543645 
L 231.383236 187.41986 
L 233.268556 311.892192 
L 235.093059 216.372468 
L 236.978379 155.357014 
L 238.863699 160.66403 
L 240.566569 201.96528 
L 242.451889 194.429343 
L 244.276392 70.852647 
L 246.161712 107.203334 
L 247.986216 132.662112 
L 249.871536 143.611208 
L 251.756856 97.32115 
L 253.581359 127.038954 
L 255.466679 135.521334 
L 257.291182 137.601007 
L 259.176502 136.640802 
L 261.061822 142.624388 
L 262.764692 172.920208 
L 264.650012 111.349418 
L 266.474515 123.764879 
L 268.359835 194.89254 
L 270.184339 177.617107 
L 272.069659 153.286751 
L 273.954979 146.092409 
L 275.779482 128.731376 
L 277.664802 120.500092 
L 279.489305 134.702951 
L 281.374625 126.3014 
L 283.259946 127.986573 
L 284.962815 130.093309 
L 286.848135 159.903423 
L 288.672639 136.496374 
L 290.557959 147.369235 
L 292.382462 178.392901 
L 294.267782 130.487356 
L 296.153102 229.684407 
L 297.977605 157.801987 
L 299.862925 131.200748 
L 301.687429 139.82885 
L 303.572749 141.306061 
L 305.458069 119.190381 
L 307.221755 123.345519 
L 309.107075 132.044888 
L 312.816899 174.332931 
L 314.641402 160.386532 
L 316.526722 131.869318 
L 318.412042 128.656835 
L 320.236545 131.147036 
L 322.121865 153.707154 
L 323.946369 172.547407 
L 325.831689 137.044218 
L 327.717009 122.705424 
L 329.419878 135.914546 
L 331.305198 133.21457 
L 333.129702 141.97982 
L 335.015022 120.564918 
L 336.839525 160.089987 
L 338.724845 129.534904 
L 340.610165 150.367955 
L 344.319988 137.351888 
L 346.144492 125.376908 
L 348.029812 141.437633 
L 349.915132 145.29536 
L 351.618002 153.027112 
L 353.503322 133.139499 
L 355.327825 150.683823 
L 357.213145 141.37305 
L 359.037648 129.877495 
L 360.922968 141.59956 
L 362.808288 155.114229 
L 364.632792 139.650666 
L 366.518112 171.059604 
L 368.342615 112.922023 
L 370.227935 147.62394 
L 372.113255 159.98388 
L 373.816125 132.41418 
L 375.701445 151.713392 
L 377.525948 145.936936 
L 379.411268 145.233655 
L 381.235771 155.203593 
L 383.121091 152.697319 
L 386.830915 184.785788 
L 388.716235 122.371488 
L 390.540738 131.776332 
L 392.426058 160.023506 
L 394.311378 199.114626 
L 397.960385 108.704021 
L 399.784888 132.503957 
L 401.670208 154.36881 
L 403.494711 144.725861 
L 405.380031 129.285479 
L 407.265351 143.759796 
L 409.089855 155.287493 
L 410.975175 155.778299 
L 412.799678 143.766206 
L 414.684998 124.842596 
L 416.570318 142.071295 
L 418.273188 134.170879 
L 420.158508 139.872263 
L 421.983011 153.206722 
L 423.868331 140.265674 
L 425.692835 139.671223 
L 429.463475 150.354642 
L 431.287978 140.520508 
L 433.173298 133.031031 
L 434.997801 140.93193 
L 436.883121 131.977038 
L 438.768441 118.492852 
L 440.471311 172.705389 
L 442.356631 151.587742 
L 444.181134 163.912399 
L 446.066454 138.349873 
L 447.890958 137.289192 
L 449.776278 140.9687 
L 451.661598 134.935244 
L 453.486101 140.25961 
L 455.371421 179.766467 
L 457.195924 166.90853 
L 459.081244 192.571296 
L 460.966565 140.032157 
L 462.669434 112.139296 
L 464.554754 138.492243 
L 466.379258 126.278799 
L 468.264578 162.995926 
L 470.089081 142.252248 
L 471.974401 125.558799 
L 473.859721 174.582147 
L 475.684224 130.641021 
L 477.569544 152.023974 
L 479.394048 121.439131 
L 481.279368 134.82102 
L 483.164688 128.779426 
L 484.928374 151.155316 
L 486.813694 300.260317 
L 488.638198 122.395256 
L 490.523518 111.794381 
L 492.348021 107.597609 
L 494.233341 127.941357 
L 496.118661 111.582954 
L 497.943164 156.43499 
L 501.652988 124.569194 
L 503.538308 122.453765 
L 505.423628 132.411411 
L 507.126497 134.475789 
L 509.011817 146.060862 
L 510.836321 110.519327 
L 512.721641 146.433243 
L 514.546144 139.103679 
L 516.431464 130.417007 
L 518.316784 136.479328 
L 520.141287 152.337828 
L 522.026607 148.560983 
L 523.851111 119.002025 
L 525.736431 149.848139 
L 527.621751 166.371103 
L 529.324621 172.557357 
L 531.209941 158.113511 
L 533.034444 150.959047 
L 534.919764 209.741067 
L 536.744267 176.105753 
L 538.629587 148.65416 
L 540.514907 107.783032 
L 542.339411 205.274536 
L 544.224731 174.152423 
L 546.049234 115.607797 
L 547.934554 151.884668 
L 549.819874 142.309688 
L 551.522744 130.068666 
L 553.408064 170.45268 
L 555.232567 124.284683 
L 557.117887 146.746439 
L 558.94239 117.849092 
L 560.82771 125.023814 
L 562.71303 158.948115 
L 564.537534 158.646747 
L 566.422854 173.68424 
L 568.247357 120.132929 
L 570.132677 116.234369 
L 570.132677 116.234369 
" clip-path="url(#pa5a0ddd862)" style="fill: none; stroke-dasharray: 3.7,1.6; stroke-dashoffset: 0; stroke: #000000"/>
   </g>
   <g id="line2d_100">
    <path d="M 62.85995 146.737538 
L 64.74527 154.157763 
L 66.569773 165.576852 
L 68.455093 161.776417 
L 70.279597 145.910007 
L 72.164917 155.019979 
L 74.050237 160.153482 
L 75.87474 145.190414 
L 77.76006 175.835851 
L 79.584563 139.723562 
L 81.469883 146.061502 
L 83.355203 158.748902 
L 85.058073 149.360493 
L 86.943393 153.259348 
L 88.767896 150.823063 
L 90.653216 154.877907 
L 92.47772 154.089078 
L 94.36304 155.677755 
L 96.24836 163.765749 
L 98.072863 138.900632 
L 99.958183 151.109656 
L 101.782686 158.094696 
L 103.668006 142.329195 
L 105.553327 154.167824 
L 107.256196 148.674777 
L 109.141516 158.335807 
L 110.96602 146.564747 
L 112.85134 143.21119 
L 114.675843 130.536046 
L 116.561163 132.41944 
L 118.446483 165.761647 
L 120.270986 157.585824 
L 122.156306 135.546769 
L 123.98081 146.335394 
L 125.86613 140.453548 
L 127.75145 139.038471 
L 129.515136 140.097165 
L 131.400456 149.611842 
L 133.22496 148.729245 
L 135.11028 151.484977 
L 136.934783 157.42742 
L 138.820103 135.633563 
L 140.705423 150.442302 
L 142.529926 146.782705 
L 144.415246 140.310977 
L 146.23975 151.274268 
L 148.12507 138.993032 
L 150.01039 148.46691 
L 151.713259 152.397669 
L 153.598579 145.509551 
L 155.423083 157.00495 
L 157.308403 151.371435 
L 159.132906 143.378118 
L 161.018226 142.125923 
L 162.903546 153.397644 
L 164.728049 148.876935 
L 166.613369 148.263385 
L 168.437873 155.693935 
L 170.323193 137.418643 
L 172.208513 145.949464 
L 173.911383 147.725038 
L 175.796703 152.410637 
L 177.621206 148.742114 
L 179.506526 155.62694 
L 181.331029 150.95315 
L 183.216349 153.481898 
L 185.101669 146.878636 
L 186.926173 143.732497 
L 188.811493 143.044858 
L 190.635996 145.913396 
L 192.521316 145.403697 
L 194.406636 146.638309 
L 196.109506 154.531178 
L 197.994826 144.718964 
L 199.819329 150.787148 
L 201.704649 140.942841 
L 203.529152 145.976186 
L 205.414472 160.025626 
L 207.299792 143.740883 
L 209.124296 149.963178 
L 211.009616 138.74423 
L 212.834119 144.452716 
L 214.719439 151.650872 
L 216.604759 142.520561 
L 218.368446 152.801103 
L 220.253766 146.950798 
L 222.078269 145.78461 
L 223.963589 151.736104 
L 225.788092 155.032881 
L 227.673412 167.492387 
L 229.558732 162.36814 
L 231.383236 142.775442 
L 233.268556 151.652187 
L 235.093059 222.010526 
L 236.978379 164.546927 
L 238.863699 126.855849 
L 240.566569 210.131984 
L 242.451889 254.709053 
L 244.276392 170.247741 
L 246.161712 136.896437 
L 247.986216 203.73513 
L 249.871536 150.059247 
L 251.756856 150.378167 
L 253.581359 137.312576 
L 255.466679 141.399628 
L 257.291182 139.922419 
L 259.176502 85.074955 
L 261.061822 111.486231 
L 262.764692 131.90989 
L 264.650012 149.683445 
L 266.474515 134.826933 
L 268.359835 144.812196 
L 270.184339 155.252372 
L 272.069659 147.056079 
L 273.954979 146.151445 
L 275.779482 137.371802 
L 277.664802 144.48307 
L 279.489305 140.827463 
L 281.374625 158.362272 
L 283.259946 165.471907 
L 284.962815 139.651574 
L 286.848135 153.571818 
L 288.672639 150.380204 
L 290.557959 145.908453 
L 292.382462 143.441385 
L 294.267782 150.584665 
L 296.153102 141.841729 
L 297.977605 153.973167 
L 299.862925 133.272408 
L 301.687429 153.487716 
L 303.572749 142.836661 
L 305.458069 145.919099 
L 307.221755 138.036115 
L 309.107075 143.996409 
L 310.931579 161.448571 
L 312.816899 146.483047 
L 314.641402 141.352842 
L 316.526722 138.865228 
L 318.412042 138.174901 
L 320.236545 154.685912 
L 322.121865 141.108908 
L 323.946369 154.899007 
L 325.831689 152.663199 
L 327.717009 145.926271 
L 329.419878 156.144967 
L 331.305198 145.063649 
L 333.129702 144.679961 
L 335.015022 139.840846 
L 336.839525 149.544083 
L 338.724845 171.266016 
L 340.610165 140.729541 
L 342.434668 150.537079 
L 344.319988 146.815901 
L 346.144492 143.626631 
L 348.029812 149.411496 
L 349.915132 155.763659 
L 351.618002 147.814291 
L 353.503322 145.633998 
L 355.327825 145.118335 
L 357.213145 150.719564 
L 359.037648 143.82332 
L 360.922968 146.930593 
L 362.808288 146.618251 
L 364.632792 147.124649 
L 368.342615 149.553108 
L 370.227935 139.151995 
L 372.113255 144.549826 
L 373.816125 136.396016 
L 375.701445 148.990244 
L 377.525948 151.695503 
L 379.411268 145.177167 
L 381.235771 157.405727 
L 383.121091 149.204402 
L 385.006411 145.153503 
L 386.830915 147.838946 
L 388.716235 157.090277 
L 390.540738 137.886178 
L 392.426058 155.226484 
L 394.311378 148.096574 
L 396.075065 160.054878 
L 397.960385 135.59599 
L 399.784888 144.688244 
L 401.670208 143.553643 
L 403.494711 151.942929 
L 405.380031 141.859197 
L 407.265351 133.355888 
L 409.089855 154.869621 
L 412.799678 153.083079 
L 414.684998 157.345931 
L 416.570318 145.11981 
L 418.273188 144.106125 
L 420.158508 147.32566 
L 421.983011 150.076703 
L 423.868331 147.73692 
L 425.692835 146.223366 
L 427.578155 144.345523 
L 429.463475 153.316074 
L 431.287978 148.075787 
L 433.173298 146.403171 
L 434.997801 152.144895 
L 436.883121 146.593186 
L 438.768441 145.446692 
L 440.471311 149.497689 
L 442.356631 162.533783 
L 444.181134 143.395072 
L 446.066454 150.69728 
L 447.890958 143.834904 
L 451.661598 148.502997 
L 453.486101 146.752735 
L 455.371421 150.984447 
L 457.195924 157.352872 
L 459.081244 152.4004 
L 460.966565 154.828583 
L 462.669434 141.501314 
L 464.554754 136.225395 
L 466.379258 145.599547 
L 468.264578 140.940299 
L 470.089081 150.156137 
L 471.974401 132.26148 
L 473.859721 118.109524 
L 475.684224 151.068534 
L 477.569544 140.913883 
L 479.394048 153.026805 
L 481.279368 141.988044 
L 483.164688 147.134884 
L 484.928374 142.247596 
L 486.813694 140.295412 
L 488.638198 143.261624 
L 490.523518 98.269522 
L 492.348021 133.187439 
L 494.233341 143.835091 
L 496.118661 133.852555 
L 497.943164 140.870688 
L 499.828484 158.491473 
L 501.652988 155.082178 
L 503.538308 140.427964 
L 505.423628 141.564237 
L 507.126497 156.744718 
L 509.011817 140.569549 
L 510.836321 147.638864 
L 512.721641 134.653176 
L 514.546144 145.740689 
L 516.431464 145.778794 
L 518.316784 136.761625 
L 520.141287 144.310456 
L 522.026607 151.293976 
L 523.851111 146.685372 
L 525.736431 138.315147 
L 527.621751 150.348556 
L 529.324621 149.362115 
L 531.209941 152.5651 
L 533.034444 150.632083 
L 534.919764 154.782072 
L 536.744267 160.843796 
L 538.629587 149.834293 
L 540.514907 147.576976 
L 542.339411 135.547088 
L 544.224731 172.190712 
L 546.049234 155.91294 
L 547.934554 133.711983 
L 549.819874 148.878486 
L 551.522744 142.738411 
L 553.408064 149.292173 
L 555.232567 152.122076 
L 557.117887 139.914502 
L 558.94239 156.216257 
L 560.82771 141.633315 
L 562.71303 146.30507 
L 564.537534 158.469675 
L 566.422854 152.271878 
L 568.247357 154.36568 
L 570.132677 135.912244 
L 570.132677 135.912244 
" clip-path="url(#pa5a0ddd862)" style="fill: none; stroke: #800080; stroke-linecap: square"/>
   </g>
   <g id="patch_3">
    <path d="M 37.496314 336.722607 
L 37.496314 4.082607 
" style="fill: none; stroke: #000000; stroke-width: 0.5; stroke-linejoin: miter; stroke-linecap: square"/>
   </g>
   <g id="patch_4">
    <path d="M 595.496314 336.722607 
L 595.496314 4.082607 
" style="fill: none; stroke: #000000; stroke-width: 0.5; stroke-linejoin: miter; stroke-linecap: square"/>
   </g>
   <g id="patch_5">
    <path d="M 37.496314 336.722607 
L 595.496314 336.722607 
" style="fill: none; stroke: #000000; stroke-width: 0.5; stroke-linejoin: miter; stroke-linecap: square"/>
   </g>
   <g id="patch_6">
    <path d="M 37.496314 4.082607 
L 595.496314 4.082607 
" style="fill: none; stroke: #000000; stroke-width: 0.5; stroke-linejoin: miter; stroke-linecap: square"/>
   </g>
   <g id="legend_1">
    <g id="line2d_101">
     <path d="M 48.296314 285.94882 
L 60.296314 285.94882 
L 72.296314 285.94882 
" style="fill: none; stroke-dasharray: 3.7,1.6; stroke-dashoffset: 0; stroke: #000000"/>
    </g>
    <g id="text_12">
     <!-- rendimenti SP 500 -->
     <g transform="translate(81.896314 290.14882) scale(0.12 -0.12)">
      <defs>
       <path id="CMR17-72" d="M 960 1517 
C 960 2134 1222 2713 1702 2713 
C 1747 2713 1792 2707 1837 2687 
C 1837 2687 1696 2642 1696 2475 
C 1696 2321 1818 2257 1914 2257 
C 1990 2257 2131 2302 2131 2482 
C 2131 2687 1926 2816 1709 2816 
C 1222 2816 1011 2340 947 2115 
L 941 2115 
L 941 2816 
L 198 2745 
L 198 2578 
C 576 2578 634 2540 634 2231 
L 634 443 
C 634 198 608 166 198 166 
L 198 0 
C 352 12 646 12 813 12 
C 998 12 1325 12 1498 0 
L 1498 166 
C 1037 166 960 166 960 455 
L 960 1517 
z
" transform="scale(0.015625)"/>
       <path id="CMR17-65" d="M 2438 1503 
C 2464 1529 2464 1542 2464 1606 
C 2464 2251 2118 2816 1389 2816 
C 710 2816 173 2175 173 1394 
C 173 554 781 -64 1459 -64 
C 2176 -64 2458 619 2458 755 
C 2458 800 2419 800 2406 800 
C 2362 800 2355 787 2330 709 
C 2189 270 1837 51 1504 51 
C 1229 51 954 206 781 490 
C 582 819 582 1200 582 1503 
L 2438 1503 
z
M 589 1600 
C 634 2511 1126 2713 1382 2713 
C 1818 2713 2112 2308 2118 1600 
L 589 1600 
z
" transform="scale(0.015625)"/>
       <path id="CMR17-6e" d="M 2656 1954 
C 2656 2282 2592 2816 1837 2816 
C 1331 2816 1069 2424 973 2166 
L 966 2166 
L 966 2816 
L 211 2745 
L 211 2578 
C 589 2578 646 2540 646 2231 
L 646 443 
C 646 198 621 166 211 166 
L 211 0 
C 365 12 646 12 813 12 
C 979 12 1267 12 1421 0 
L 1421 166 
C 1011 166 986 192 986 443 
L 986 1678 
C 986 2269 1344 2713 1792 2713 
C 2266 2713 2317 2289 2317 1980 
L 2317 443 
C 2317 198 2291 166 1882 166 
L 1882 0 
C 2035 12 2317 12 2483 12 
C 2650 12 2938 12 3091 0 
L 3091 166 
C 2682 166 2656 192 2656 443 
L 2656 1954 
z
" transform="scale(0.015625)"/>
       <path id="CMR17-64" d="M 1869 4345 
L 1869 4179 
C 2246 4179 2304 4141 2304 3843 
L 2304 2371 
C 2278 2403 2016 2816 1498 2816 
C 845 2816 211 2228 211 1376 
C 211 529 806 -64 1434 -64 
C 1978 -64 2259 361 2291 406 
L 2291 -64 
L 3066 -13 
L 3066 154 
C 2688 154 2630 193 2630 503 
L 2630 4416 
L 1869 4345 
z
M 2291 762 
C 2291 568 2176 393 2029 264 
C 1811 70 1594 38 1472 38 
C 1286 38 621 135 621 1369 
C 621 2636 1363 2713 1530 2713 
C 1824 2713 2061 2545 2208 2313 
C 2291 2177 2291 2157 2291 2041 
L 2291 762 
z
" transform="scale(0.015625)"/>
       <path id="CMR17-69" d="M 992 3961 
C 992 4102 877 4224 730 4224 
C 589 4224 467 4108 467 3961 
C 467 3820 582 3699 730 3699 
C 870 3699 992 3814 992 3961 
z
M 243 2745 
L 243 2579 
C 602 2579 653 2540 653 2231 
L 653 443 
C 653 198 627 166 218 166 
L 218 0 
C 371 12 646 12 806 12 
C 960 12 1222 12 1370 0 
L 1370 166 
C 992 166 979 205 979 436 
L 979 2816 
L 243 2745 
z
" transform="scale(0.015625)"/>
       <path id="CMR17-6d" d="M 4326 1954 
C 4326 2276 4269 2816 3507 2816 
C 3072 2816 2771 2520 2656 2173 
L 2650 2173 
C 2573 2700 2195 2816 1837 2816 
C 1331 2816 1069 2424 973 2166 
L 966 2166 
L 966 2816 
L 211 2745 
L 211 2578 
C 589 2578 646 2540 646 2231 
L 646 443 
C 646 198 621 166 211 166 
L 211 0 
C 365 12 646 12 813 12 
C 979 12 1267 12 1421 0 
L 1421 166 
C 1011 166 986 192 986 443 
L 986 1678 
C 986 2269 1344 2713 1792 2713 
C 2266 2713 2317 2289 2317 1980 
L 2317 443 
C 2317 198 2291 166 1882 166 
L 1882 0 
C 2035 12 2317 12 2483 12 
C 2650 12 2938 12 3091 0 
L 3091 166 
C 2682 166 2656 192 2656 443 
L 2656 1678 
C 2656 2269 3014 2713 3462 2713 
C 3936 2713 3987 2289 3987 1980 
L 3987 443 
C 3987 198 3962 166 3552 166 
L 3552 0 
C 3706 12 3987 12 4154 12 
C 4320 12 4608 12 4762 0 
L 4762 166 
C 4352 166 4326 192 4326 443 
L 4326 1954 
z
" transform="scale(0.015625)"/>
       <path id="CMR17-74" d="M 966 2585 
L 1862 2585 
L 1862 2752 
L 966 2752 
L 966 3968 
L 851 3968 
C 838 3292 614 2700 70 2687 
L 70 2585 
L 627 2585 
L 627 778 
C 627 655 627 -64 1370 -64 
C 1747 -64 1965 308 1965 784 
L 1965 1151 
L 1850 1151 
L 1850 790 
C 1850 347 1677 51 1408 51 
C 1222 51 966 179 966 765 
L 966 2585 
z
" transform="scale(0.015625)"/>
       <path id="CMR17-53" d="M 2803 4351 
C 2803 4467 2797 4473 2758 4473 
C 2720 4473 2707 4447 2682 4390 
L 2490 3965 
C 2246 4320 1875 4480 1472 4480 
C 819 4480 294 3958 294 3301 
C 294 3101 339 2817 557 2546 
C 794 2250 1018 2198 1530 2063 
C 1722 2011 2042 1927 2106 1901 
C 2470 1747 2662 1360 2662 999 
C 2662 534 2336 38 1779 38 
C 1094 38 454 425 410 1328 
C 403 1431 397 1437 352 1437 
C 301 1437 294 1431 294 1302 
L 294 0 
C 294 -116 301 -122 339 -122 
C 384 -122 397 -90 486 109 
C 493 128 493 141 614 386 
C 934 -39 1472 -128 1779 -128 
C 2477 -128 2970 457 2970 1141 
C 2970 1476 2848 1734 2778 1850 
C 2509 2263 2221 2340 1914 2417 
C 1869 2437 1856 2437 1498 2527 
C 1152 2617 1005 2662 845 2836 
C 666 3036 602 3243 602 3449 
C 602 3868 934 4326 1478 4326 
C 2157 4326 2579 3842 2675 3036 
C 2694 2920 2701 2914 2746 2914 
C 2803 2914 2803 2933 2803 3043 
L 2803 4351 
z
" transform="scale(0.015625)"/>
       <path id="CMR17-50" d="M 1267 2048 
L 2291 2048 
C 3117 2048 3718 2583 3718 3187 
C 3718 3791 3130 4352 2291 4352 
L 333 4352 
L 333 4185 
C 774 4185 845 4185 845 3899 
L 845 453 
C 845 166 774 166 333 166 
L 333 0 
C 518 12 858 12 1056 12 
C 1254 12 1594 12 1779 0 
L 1779 166 
C 1338 166 1267 166 1267 453 
L 1267 2048 
z
M 1254 2182 
L 1254 3937 
C 1254 4153 1267 4185 1523 4185 
L 2170 4185 
C 2995 4185 3232 3715 3232 3187 
C 3232 2608 2950 2182 2170 2182 
L 1254 2182 
z
" transform="scale(0.015625)"/>
       <path id="CMR17-35" d="M 730 3750 
C 794 3724 1056 3641 1325 3641 
C 1920 3641 2246 3961 2432 4140 
C 2432 4191 2432 4224 2394 4224 
C 2387 4224 2374 4224 2323 4198 
C 2099 4102 1837 4032 1517 4032 
C 1325 4032 1037 4055 723 4191 
C 653 4224 640 4224 634 4224 
C 602 4224 595 4217 595 4090 
L 595 2231 
C 595 2113 595 2080 659 2080 
C 691 2080 704 2093 736 2139 
C 941 2435 1222 2560 1542 2560 
C 1766 2560 2246 2415 2246 1293 
C 2246 1087 2246 716 2054 422 
C 1894 159 1645 25 1370 25 
C 947 25 518 319 403 812 
C 429 806 480 793 506 793 
C 589 793 749 838 749 1036 
C 749 1209 627 1280 506 1280 
C 358 1280 262 1190 262 1011 
C 262 454 704 -128 1382 -128 
C 2042 -128 2669 441 2669 1267 
C 2669 2054 2170 2662 1549 2662 
C 1222 2662 947 2540 730 2304 
L 730 3750 
z
" transform="scale(0.015625)"/>
      </defs>
      <use xlink:href="#CMR17-72" transform="scale(0.996264)"/>
      <use xlink:href="#CMR17-65" transform="translate(35.280768 0) scale(0.996264)"/>
      <use xlink:href="#CMR17-6e" transform="translate(75.766428 0) scale(0.996264)"/>
      <use xlink:href="#CMR17-64" transform="translate(126.661798 0) scale(0.996264)"/>
      <use xlink:href="#CMR17-69" transform="translate(177.557168 0) scale(0.996264)"/>
      <use xlink:href="#CMR17-6d" transform="translate(202.428226 0) scale(0.996264)"/>
      <use xlink:href="#CMR17-65" transform="translate(279.347816 0) scale(0.996264)"/>
      <use xlink:href="#CMR17-6e" transform="translate(319.833477 0) scale(0.996264)"/>
      <use xlink:href="#CMR17-74" transform="translate(368.126392 0) scale(0.996264)"/>
      <use xlink:href="#CMR17-69" transform="translate(403.40716 0) scale(0.996264)"/>
      <use xlink:href="#CMR17-53" transform="translate(458.354185 0) scale(0.996264)"/>
      <use xlink:href="#CMR17-50" transform="translate(509.249555 0) scale(0.996264)"/>
      <use xlink:href="#CMR17-35" transform="translate(601.911822 0) scale(0.996264)"/>
      <use xlink:href="#CMR17-30" transform="translate(647.602299 0) scale(0.996264)"/>
      <use xlink:href="#CMR17-30" transform="translate(693.292776 0) scale(0.996264)"/>
     </g>
    </g>
    <g id="line2d_102">
     <path d="M 48.296314 302.673416 
L 60.296314 302.673416 
L 72.296314 302.673416 
" style="fill: none; stroke: #800080; stroke-linecap: square"/>
    </g>
    <g id="text_13">
     <!-- forecast ANN -->
     <g transform="translate(81.896314 306.873416) scale(0.12 -0.12)">
      <defs>
       <path id="CMR17-66" d="M 979 2585 
L 1709 2585 
L 1709 2752 
L 966 2752 
L 966 3539 
C 966 4076 1235 4377 1510 4377 
C 1594 4377 1690 4363 1754 4339 
C 1702 4326 1568 4281 1568 4121 
C 1568 3955 1696 3904 1786 3904 
C 1875 3904 2003 3955 2003 4121 
C 2003 4353 1773 4480 1517 4480 
C 1152 4480 653 4211 653 3526 
L 653 2752 
L 141 2752 
L 141 2585 
L 653 2585 
L 653 441 
C 653 198 627 166 218 166 
L 218 0 
C 371 12 666 12 832 12 
C 1018 12 1344 12 1517 0 
L 1517 166 
C 1056 166 979 166 979 454 
L 979 2585 
z
" transform="scale(0.015625)"/>
       <path id="CMR17-6f" d="M 2758 1356 
C 2758 2176 2163 2816 1466 2816 
C 768 2816 173 2176 173 1356 
C 173 550 768 -64 1466 -64 
C 2163 -64 2758 550 2758 1356 
z
M 1466 51 
C 1165 51 909 230 762 480 
C 602 768 582 1126 582 1408 
C 582 1676 595 2009 762 2297 
C 890 2508 1139 2713 1466 2713 
C 1754 2713 1997 2553 2150 2329 
C 2349 2028 2349 1606 2349 1408 
C 2349 1158 2336 774 2163 467 
C 1984 172 1709 51 1466 51 
z
" transform="scale(0.015625)"/>
       <path id="CMR17-63" d="M 2234 2240 
C 2112 2240 1933 2240 1933 2015 
C 1933 1836 2080 1785 2163 1785 
C 2208 1785 2394 1804 2394 2028 
C 2394 2476 1958 2816 1466 2816 
C 787 2816 211 2201 211 1379 
C 211 521 813 -64 1466 -64 
C 2259 -64 2458 676 2458 747 
C 2458 773 2451 792 2406 792 
C 2362 792 2355 786 2330 702 
C 2163 180 1798 51 1523 51 
C 1114 51 621 431 621 1385 
C 621 2358 1094 2700 1472 2700 
C 1722 2700 2093 2582 2234 2240 
z
" transform="scale(0.015625)"/>
       <path id="CMR17-61" d="M 2304 1656 
C 2304 2048 2304 2275 2035 2534 
C 1798 2751 1523 2816 1306 2816 
C 800 2816 435 2408 435 1977 
C 435 1740 627 1728 666 1728 
C 749 1728 896 1779 896 1958 
C 896 2118 774 2188 666 2188 
C 640 2188 608 2182 589 2176 
C 723 2594 1069 2713 1293 2713 
C 1613 2713 1965 2421 1965 1875 
L 1965 1632 
C 1587 1619 1133 1568 774 1373 
C 371 1147 256 822 256 576 
C 256 77 832 -64 1171 -64 
C 1523 -64 1850 135 1990 505 
C 2003 219 2182 -39 2464 -39 
C 2598 -39 2938 51 2938 563 
L 2938 926 
L 2822 926 
L 2822 557 
C 2822 161 2650 109 2566 109 
C 2304 109 2304 446 2304 732 
L 2304 1656 
z
M 1965 887 
C 1965 323 1568 38 1216 38 
C 896 38 646 278 646 576 
C 646 771 730 1114 1101 1322 
C 1408 1497 1760 1523 1965 1536 
L 1965 887 
z
" transform="scale(0.015625)"/>
       <path id="CMR17-73" d="M 1978 2688 
C 1978 2803 1971 2809 1933 2809 
C 1907 2809 1901 2803 1824 2707 
C 1805 2681 1747 2617 1728 2592 
C 1523 2809 1235 2816 1126 2816 
C 416 2816 160 2444 160 2073 
C 160 1497 813 1363 998 1324 
C 1402 1241 1542 1216 1677 1100 
C 1760 1024 1901 883 1901 652 
C 1901 384 1747 38 1158 38 
C 602 38 403 460 288 1024 
C 269 1113 269 1120 218 1120 
C 166 1120 160 1113 160 985 
L 160 64 
C 160 -52 166 -58 205 -58 
C 237 -58 243 -52 275 0 
C 314 57 410 211 448 275 
C 576 102 800 -64 1158 -64 
C 1792 -64 2131 281 2131 780 
C 2131 1107 1958 1280 1875 1356 
C 1683 1555 1459 1600 1190 1651 
C 838 1728 390 1817 390 2208 
C 390 2374 480 2726 1126 2726 
C 1811 2726 1850 2086 1862 1881 
C 1869 1849 1901 1843 1920 1843 
C 1978 1843 1978 1862 1978 1971 
L 1978 2688 
z
" transform="scale(0.015625)"/>
       <path id="CMR17-41" d="M 2323 4441 
C 2291 4524 2278 4544 2214 4544 
C 2150 4544 2138 4524 2106 4441 
L 749 580 
C 627 236 371 166 147 166 
L 147 0 
C 262 12 518 12 640 12 
C 800 12 1056 12 1210 0 
L 1210 166 
C 909 179 864 382 864 459 
C 864 516 877 548 890 586 
L 1229 1536 
L 2906 1536 
L 3290 453 
C 3322 376 3322 363 3322 338 
C 3322 166 3046 166 2925 166 
L 2925 0 
C 3110 12 3443 12 3642 12 
C 3808 12 4128 12 4282 0 
L 4282 166 
C 3942 166 3827 166 3744 402 
L 2323 4441 
z
M 2067 3924 
L 2848 1702 
L 1286 1702 
L 2067 3924 
z
" transform="scale(0.015625)"/>
       <path id="CMR17-4e" d="M 1312 4275 
C 1267 4345 1261 4352 1139 4352 
L 326 4352 
L 326 4185 
L 448 4185 
C 704 4185 819 4153 838 4147 
L 838 624 
C 838 465 838 166 326 166 
L 326 0 
C 474 12 742 12 902 12 
C 1062 12 1331 12 1478 0 
L 1478 166 
C 966 166 966 465 966 624 
L 966 4057 
C 1011 4019 1011 4007 1056 3943 
L 3430 76 
C 3475 0 3494 0 3526 0 
C 3590 0 3590 19 3590 140 
L 3590 3726 
C 3590 3885 3590 4185 4102 4185 
L 4102 4352 
C 3955 4339 3686 4339 3526 4339 
C 3366 4339 3098 4339 2950 4352 
L 2950 4185 
C 3462 4185 3462 3885 3462 3726 
L 3462 777 
L 1312 4275 
z
" transform="scale(0.015625)"/>
      </defs>
      <use xlink:href="#CMR17-66" transform="scale(0.996264)"/>
      <use xlink:href="#CMR17-6f" transform="translate(27.473512 0) scale(0.996264)"/>
      <use xlink:href="#CMR17-72" transform="translate(73.16399 0) scale(0.996264)"/>
      <use xlink:href="#CMR17-65" transform="translate(108.444757 0) scale(0.996264)"/>
      <use xlink:href="#CMR17-63" transform="translate(148.930418 0) scale(0.996264)"/>
      <use xlink:href="#CMR17-61" transform="translate(189.416078 0) scale(0.996264)"/>
      <use xlink:href="#CMR17-73" transform="translate(235.106555 0) scale(0.996264)"/>
      <use xlink:href="#CMR17-74" transform="translate(270.907893 0) scale(0.996264)"/>
      <use xlink:href="#CMR17-41" transform="translate(336.264627 0) scale(0.996264)"/>
      <use xlink:href="#CMR17-4e" transform="translate(405.337057 0) scale(0.996264)"/>
      <use xlink:href="#CMR17-4e" transform="translate(474.409487 0) scale(0.996264)"/>
     </g>
    </g>
    <g id="patch_7">
     <path d="M 48.296314 323.598011 
L 72.296314 323.598011 
L 72.296314 315.198011 
L 48.296314 315.198011 
z
" style="fill: #808080; fill-opacity: 0.3; stroke: #808080; stroke-opacity: 0.3; stroke-linejoin: miter"/>
    </g>
    <g id="text_14">
     <!-- 99 perc. CI -->
     <g transform="translate(81.896314 323.598011) scale(0.12 -0.12)">
      <defs>
       <path id="CMR17-39" d="M 2253 1871 
C 2253 448 1670 25 1190 25 
C 1043 25 685 43 538 281 
C 704 256 826 345 826 505 
C 826 678 685 736 595 736 
C 538 736 365 710 365 492 
C 365 68 742 -128 1203 -128 
C 1939 -128 2688 665 2688 2090 
C 2688 3857 1971 4224 1485 4224 
C 851 4224 243 3664 243 2800 
C 243 2000 762 1408 1414 1408 
C 1952 1408 2189 1910 2253 2122 
L 2253 1871 
z
M 1427 1510 
C 1254 1510 1011 1542 813 1929 
C 678 2181 678 2477 678 2793 
C 678 3174 678 3438 858 3722 
C 947 3857 1114 4076 1485 4076 
C 2240 4076 2240 2909 2240 2651 
C 2240 2193 2035 1510 1427 1510 
z
" transform="scale(0.015625)"/>
       <path id="CMR17-70" d="M 1408 -1114 
C 998 -1114 973 -1088 973 -834 
L 973 380 
C 1158 109 1427 -64 1766 -64 
C 2406 -64 3053 503 3053 1382 
C 3053 2196 2496 2816 1837 2816 
C 1453 2816 1139 2603 960 2345 
L 960 2816 
L 198 2745 
L 198 2577 
C 576 2577 634 2539 634 2228 
L 634 -834 
C 634 -1081 608 -1114 198 -1114 
L 198 -1280 
C 352 -1268 634 -1268 800 -1268 
C 966 -1268 1254 -1268 1408 -1280 
L 1408 -1114 
z
M 973 2015 
C 973 2106 973 2241 1222 2481 
C 1254 2506 1472 2700 1792 2700 
C 2259 2700 2643 2112 2643 1376 
C 2643 639 2234 38 1728 38 
C 1498 38 1248 148 1056 451 
C 973 594 973 632 973 736 
L 973 2015 
z
" transform="scale(0.015625)"/>
       <path id="CMR17-2e" d="M 1062 262 
C 1062 422 934 524 800 524 
C 672 524 538 422 538 262 
C 538 102 666 0 800 0 
C 928 0 1062 102 1062 262 
z
" transform="scale(0.015625)"/>
       <path id="CMR17-43" d="M 3974 4351 
C 3974 4467 3968 4473 3930 4473 
C 3904 4473 3898 4467 3853 4390 
L 3571 3849 
C 3258 4249 2874 4480 2381 4480 
C 1286 4480 294 3507 294 2179 
C 294 837 1286 -128 2387 -128 
C 3366 -128 3974 741 3974 1482 
C 3974 1547 3974 1573 3917 1573 
C 3866 1573 3866 1553 3859 1495 
C 3808 592 3168 38 2477 38 
C 1824 38 781 502 781 2179 
C 781 3862 1843 4313 2464 4313 
C 3187 4313 3712 3681 3834 2785 
C 3846 2707 3846 2695 3904 2695 
C 3974 2695 3974 2707 3974 2824 
L 3974 4351 
z
" transform="scale(0.015625)"/>
       <path id="CMR17-49" d="M 1261 3898 
C 1261 4185 1338 4185 1798 4185 
L 1798 4352 
C 1594 4339 1267 4339 1050 4339 
C 832 4339 506 4339 301 4352 
L 301 4185 
C 762 4185 838 4185 838 3898 
L 838 453 
C 838 166 762 166 301 166 
L 301 0 
C 506 12 832 12 1050 12 
C 1267 12 1594 12 1798 0 
L 1798 166 
C 1338 166 1261 166 1261 453 
L 1261 3898 
z
" transform="scale(0.015625)"/>
      </defs>
      <use xlink:href="#CMR17-39" transform="scale(0.996264)"/>
      <use xlink:href="#CMR17-39" transform="translate(45.690477 0) scale(0.996264)"/>
      <use xlink:href="#CMR17-70" transform="translate(121.456921 0) scale(0.996264)"/>
      <use xlink:href="#CMR17-65" transform="translate(174.954729 0) scale(0.996264)"/>
      <use xlink:href="#CMR17-72" transform="translate(215.44039 0) scale(0.996264)"/>
      <use xlink:href="#CMR17-63" transform="translate(250.721157 0) scale(0.996264)"/>
      <use xlink:href="#CMR17-2e" transform="translate(291.206818 0) scale(0.996264)"/>
      <use xlink:href="#CMR17-43" transform="translate(356.563537 0) scale(0.996264)"/>
      <use xlink:href="#CMR17-49" transform="translate(423.073417 0) scale(0.996264)"/>
     </g>
    </g>
   </g>
  </g>
 </g>
 <defs>
  <clipPath id="pa5a0ddd862">
   <rect x="37.496314" y="4.082607" width="558" height="332.64"/>
  </clipPath>
 </defs>
</svg>
