<?xml version="1.0" encoding="utf-8" standalone="no"?>
<!DOCTYPE svg PUBLIC "-//W3C//DTD SVG 1.1//EN"
  "http://www.w3.org/Graphics/SVG/1.1/DTD/svg11.dtd">
<svg xmlns:xlink="http://www.w3.org/1999/xlink" width="605.252382pt" height="361.05263pt" viewBox="0 0 605.252382 361.05263" xmlns="http://www.w3.org/2000/svg" version="1.1">
 <metadata>
  <rdf:RDF xmlns:dc="http://purl.org/dc/elements/1.1/" xmlns:cc="http://creativecommons.org/ns#" xmlns:rdf="http://www.w3.org/1999/02/22-rdf-syntax-ns#">
   <cc:Work>
    <dc:type rdf:resource="http://purl.org/dc/dcmitype/StillImage"/>
    <dc:date>2025-04-07T20:52:18.155445</dc:date>
    <dc:format>image/svg+xml</dc:format>
    <dc:creator>
     <cc:Agent>
      <dc:title>Matplotlib v3.9.2, https://matplotlib.org/</dc:title>
     </cc:Agent>
    </dc:creator>
   </cc:Work>
  </rdf:RDF>
 </metadata>
 <defs>
  <style type="text/css">*{stroke-linejoin: round; stroke-linecap: butt}</style>
 </defs>
 <g id="figure_1">
  <g id="patch_1">
   <path d="M 0 361.05263 
L 605.252382 361.05263 
L 605.252382 0 
L 0 0 
z
" style="fill: #ffffff"/>
  </g>
  <g id="axes_1">
   <g id="patch_2">
    <path d="M 43.652382 336.24 
L 601.652382 336.24 
L 601.652382 3.6 
L 43.652382 3.6 
z
" style="fill: #ffffff"/>
   </g>
   <g id="matplotlib.axis_1">
    <g id="xtick_1">
     <g id="line2d_1">
      <defs>
       <path id="m7ca4ba4737" d="M 0 0 
L 0 -3 
" style="stroke: #000000; stroke-width: 0.5"/>
      </defs>
      <g>
       <use xlink:href="#m7ca4ba4737" x="132.083015" y="336.24" style="stroke: #000000; stroke-width: 0.5"/>
      </g>
     </g>
     <g id="line2d_2">
      <defs>
       <path id="md7aa17f47f" d="M 0 0 
L 0 3 
" style="stroke: #000000; stroke-width: 0.5"/>
      </defs>
      <g>
       <use xlink:href="#md7aa17f47f" x="132.083015" y="3.6" style="stroke: #000000; stroke-width: 0.5"/>
      </g>
     </g>
     <g id="text_1">
      <!-- $\mathdefault{2004}$ -->
      <g transform="translate(113.806824 353.576997) scale(0.2 -0.2)">
       <defs>
        <path id="CMR17-32" d="M 2669 990 
L 2554 990 
C 2490 537 2438 460 2413 422 
C 2381 371 1920 371 1830 371 
L 602 371 
C 832 620 1280 1073 1824 1596 
C 2214 1966 2669 2400 2669 3033 
C 2669 3788 2067 4224 1395 4224 
C 691 4224 262 3603 262 3027 
C 262 2777 448 2745 525 2745 
C 589 2745 781 2783 781 3007 
C 781 3206 614 3264 525 3264 
C 486 3264 448 3257 422 3244 
C 544 3788 915 4057 1306 4057 
C 1862 4057 2227 3616 2227 3033 
C 2227 2477 1901 1998 1536 1583 
L 262 147 
L 262 0 
L 2515 0 
L 2669 990 
z
" transform="scale(0.015625)"/>
        <path id="CMR17-30" d="M 2688 2038 
C 2688 2430 2682 3099 2413 3613 
C 2176 4063 1798 4224 1466 4224 
C 1158 4224 768 4082 525 3620 
C 269 3137 243 2539 243 2038 
C 243 1671 250 1112 448 623 
C 723 -39 1216 -128 1466 -128 
C 1760 -128 2208 -7 2470 604 
C 2662 1048 2688 1568 2688 2038 
z
M 1466 -26 
C 1056 -26 813 328 723 816 
C 653 1196 653 1749 653 2109 
C 653 2604 653 3015 736 3407 
C 858 3954 1216 4121 1466 4121 
C 1728 4121 2067 3947 2189 3420 
C 2272 3054 2278 2623 2278 2109 
C 2278 1691 2278 1176 2202 797 
C 2067 96 1690 -26 1466 -26 
z
" transform="scale(0.015625)"/>
        <path id="CMR17-34" d="M 2150 4147 
C 2150 4281 2144 4288 2029 4288 
L 128 1254 
L 128 1088 
L 1779 1088 
L 1779 460 
C 1779 230 1766 166 1318 166 
L 1197 166 
L 1197 0 
C 1402 12 1747 12 1965 12 
C 2182 12 2528 12 2733 0 
L 2733 166 
L 2611 166 
C 2163 166 2150 230 2150 460 
L 2150 1088 
L 2803 1088 
L 2803 1254 
L 2150 1254 
L 2150 4147 
z
M 1798 3723 
L 1798 1254 
L 256 1254 
L 1798 3723 
z
" transform="scale(0.015625)"/>
       </defs>
       <use xlink:href="#CMR17-32" transform="scale(0.996264)"/>
       <use xlink:href="#CMR17-30" transform="translate(45.690477 0) scale(0.996264)"/>
       <use xlink:href="#CMR17-30" transform="translate(91.380954 0) scale(0.996264)"/>
       <use xlink:href="#CMR17-34" transform="translate(137.071431 0) scale(0.996264)"/>
      </g>
     </g>
    </g>
    <g id="xtick_2">
     <g id="line2d_3">
      <g>
       <use xlink:href="#m7ca4ba4737" x="220.936324" y="336.24" style="stroke: #000000; stroke-width: 0.5"/>
      </g>
     </g>
     <g id="line2d_4">
      <g>
       <use xlink:href="#md7aa17f47f" x="220.936324" y="3.6" style="stroke: #000000; stroke-width: 0.5"/>
      </g>
     </g>
     <g id="text_2">
      <!-- $\mathdefault{2008}$ -->
      <g transform="translate(202.660133 353.576997) scale(0.2 -0.2)">
       <defs>
        <path id="CMR17-38" d="M 1741 2289 
C 2144 2494 2554 2803 2554 3298 
C 2554 3884 1990 4224 1472 4224 
C 890 4224 378 3800 378 3215 
C 378 3054 416 2777 666 2533 
C 730 2469 998 2276 1171 2154 
C 883 2006 211 1652 211 945 
C 211 282 838 -128 1459 -128 
C 2144 -128 2720 366 2720 1022 
C 2720 1607 2330 1877 2074 2051 
L 1741 2289 
z
M 902 2855 
C 851 2887 595 3086 595 3388 
C 595 3781 998 4076 1459 4076 
C 1965 4076 2336 3716 2336 3298 
C 2336 2700 1670 2359 1638 2359 
C 1632 2359 1626 2359 1574 2398 
L 902 2855 
z
M 2080 1536 
C 2176 1466 2483 1253 2483 861 
C 2483 385 2010 25 1472 25 
C 890 25 448 443 448 951 
C 448 1459 838 1884 1280 2083 
L 2080 1536 
z
" transform="scale(0.015625)"/>
       </defs>
       <use xlink:href="#CMR17-32" transform="scale(0.996264)"/>
       <use xlink:href="#CMR17-30" transform="translate(45.690477 0) scale(0.996264)"/>
       <use xlink:href="#CMR17-30" transform="translate(91.380954 0) scale(0.996264)"/>
       <use xlink:href="#CMR17-38" transform="translate(137.071431 0) scale(0.996264)"/>
      </g>
     </g>
    </g>
    <g id="xtick_3">
     <g id="line2d_5">
      <g>
       <use xlink:href="#m7ca4ba4737" x="309.789634" y="336.24" style="stroke: #000000; stroke-width: 0.5"/>
      </g>
     </g>
     <g id="line2d_6">
      <g>
       <use xlink:href="#md7aa17f47f" x="309.789634" y="3.6" style="stroke: #000000; stroke-width: 0.5"/>
      </g>
     </g>
     <g id="text_3">
      <!-- $\mathdefault{2012}$ -->
      <g transform="translate(291.513443 353.576997) scale(0.2 -0.2)">
       <defs>
        <path id="CMR17-31" d="M 1702 4083 
C 1702 4217 1696 4224 1606 4224 
C 1357 3927 979 3833 621 3820 
C 602 3820 570 3820 563 3808 
C 557 3795 557 3782 557 3648 
C 755 3648 1088 3686 1344 3839 
L 1344 467 
C 1344 243 1331 166 781 166 
L 589 166 
L 589 0 
C 896 6 1216 12 1523 12 
C 1830 12 2150 6 2458 0 
L 2458 166 
L 2266 166 
C 1715 166 1702 236 1702 467 
L 1702 4083 
z
" transform="scale(0.015625)"/>
       </defs>
       <use xlink:href="#CMR17-32" transform="scale(0.996264)"/>
       <use xlink:href="#CMR17-30" transform="translate(45.690477 0) scale(0.996264)"/>
       <use xlink:href="#CMR17-31" transform="translate(91.380954 0) scale(0.996264)"/>
       <use xlink:href="#CMR17-32" transform="translate(137.071431 0) scale(0.996264)"/>
      </g>
     </g>
    </g>
    <g id="xtick_4">
     <g id="line2d_7">
      <g>
       <use xlink:href="#m7ca4ba4737" x="398.642943" y="336.24" style="stroke: #000000; stroke-width: 0.5"/>
      </g>
     </g>
     <g id="line2d_8">
      <g>
       <use xlink:href="#md7aa17f47f" x="398.642943" y="3.6" style="stroke: #000000; stroke-width: 0.5"/>
      </g>
     </g>
     <g id="text_4">
      <!-- $\mathdefault{2016}$ -->
      <g transform="translate(380.366752 353.576997) scale(0.2 -0.2)">
       <defs>
        <path id="CMR17-36" d="M 678 2198 
C 678 3712 1395 4076 1811 4076 
C 1946 4076 2272 4049 2400 3782 
C 2298 3782 2106 3782 2106 3558 
C 2106 3385 2246 3328 2336 3328 
C 2394 3328 2566 3353 2566 3571 
C 2566 3987 2246 4224 1805 4224 
C 1043 4224 243 3411 243 2011 
C 243 257 966 -128 1478 -128 
C 2099 -128 2688 431 2688 1295 
C 2688 2101 2170 2688 1517 2688 
C 1126 2688 838 2430 678 1979 
L 678 2198 
z
M 1478 25 
C 691 25 691 1212 691 1450 
C 691 1914 909 2585 1504 2585 
C 1613 2585 1926 2585 2138 2140 
C 2253 1889 2253 1624 2253 1302 
C 2253 954 2253 696 2118 438 
C 1978 173 1773 25 1478 25 
z
" transform="scale(0.015625)"/>
       </defs>
       <use xlink:href="#CMR17-32" transform="scale(0.996264)"/>
       <use xlink:href="#CMR17-30" transform="translate(45.690477 0) scale(0.996264)"/>
       <use xlink:href="#CMR17-31" transform="translate(91.380954 0) scale(0.996264)"/>
       <use xlink:href="#CMR17-36" transform="translate(137.071431 0) scale(0.996264)"/>
      </g>
     </g>
    </g>
    <g id="xtick_5">
     <g id="line2d_9">
      <g>
       <use xlink:href="#m7ca4ba4737" x="487.496253" y="336.24" style="stroke: #000000; stroke-width: 0.5"/>
      </g>
     </g>
     <g id="line2d_10">
      <g>
       <use xlink:href="#md7aa17f47f" x="487.496253" y="3.6" style="stroke: #000000; stroke-width: 0.5"/>
      </g>
     </g>
     <g id="text_5">
      <!-- $\mathdefault{2020}$ -->
      <g transform="translate(469.220062 353.576997) scale(0.2 -0.2)">
       <use xlink:href="#CMR17-32" transform="scale(0.996264)"/>
       <use xlink:href="#CMR17-30" transform="translate(45.690477 0) scale(0.996264)"/>
       <use xlink:href="#CMR17-32" transform="translate(91.380954 0) scale(0.996264)"/>
       <use xlink:href="#CMR17-30" transform="translate(137.071431 0) scale(0.996264)"/>
      </g>
     </g>
    </g>
    <g id="xtick_6">
     <g id="line2d_11">
      <g>
       <use xlink:href="#m7ca4ba4737" x="576.349562" y="336.24" style="stroke: #000000; stroke-width: 0.5"/>
      </g>
     </g>
     <g id="line2d_12">
      <g>
       <use xlink:href="#md7aa17f47f" x="576.349562" y="3.6" style="stroke: #000000; stroke-width: 0.5"/>
      </g>
     </g>
     <g id="text_6">
      <!-- $\mathdefault{2024}$ -->
      <g transform="translate(558.073371 353.576997) scale(0.2 -0.2)">
       <use xlink:href="#CMR17-32" transform="scale(0.996264)"/>
       <use xlink:href="#CMR17-30" transform="translate(45.690477 0) scale(0.996264)"/>
       <use xlink:href="#CMR17-32" transform="translate(91.380954 0) scale(0.996264)"/>
       <use xlink:href="#CMR17-34" transform="translate(137.071431 0) scale(0.996264)"/>
      </g>
     </g>
    </g>
    <g id="xtick_7">
     <g id="line2d_13">
      <defs>
       <path id="mdc1cb8013a" d="M 0 0 
L 0 -1.5 
" style="stroke: #000000; stroke-width: 0.5"/>
      </defs>
      <g>
       <use xlink:href="#mdc1cb8013a" x="65.443032" y="336.24" style="stroke: #000000; stroke-width: 0.5"/>
      </g>
     </g>
     <g id="line2d_14">
      <defs>
       <path id="m16800fa2ba" d="M 0 0 
L 0 1.5 
" style="stroke: #000000; stroke-width: 0.5"/>
      </defs>
      <g>
       <use xlink:href="#m16800fa2ba" x="65.443032" y="3.6" style="stroke: #000000; stroke-width: 0.5"/>
      </g>
     </g>
    </g>
    <g id="xtick_8">
     <g id="line2d_15">
      <g>
       <use xlink:href="#mdc1cb8013a" x="87.65636" y="336.24" style="stroke: #000000; stroke-width: 0.5"/>
      </g>
     </g>
     <g id="line2d_16">
      <g>
       <use xlink:href="#m16800fa2ba" x="87.65636" y="3.6" style="stroke: #000000; stroke-width: 0.5"/>
      </g>
     </g>
    </g>
    <g id="xtick_9">
     <g id="line2d_17">
      <g>
       <use xlink:href="#mdc1cb8013a" x="109.869687" y="336.24" style="stroke: #000000; stroke-width: 0.5"/>
      </g>
     </g>
     <g id="line2d_18">
      <g>
       <use xlink:href="#m16800fa2ba" x="109.869687" y="3.6" style="stroke: #000000; stroke-width: 0.5"/>
      </g>
     </g>
    </g>
    <g id="xtick_10">
     <g id="line2d_19">
      <g>
       <use xlink:href="#mdc1cb8013a" x="154.296342" y="336.24" style="stroke: #000000; stroke-width: 0.5"/>
      </g>
     </g>
     <g id="line2d_20">
      <g>
       <use xlink:href="#m16800fa2ba" x="154.296342" y="3.6" style="stroke: #000000; stroke-width: 0.5"/>
      </g>
     </g>
    </g>
    <g id="xtick_11">
     <g id="line2d_21">
      <g>
       <use xlink:href="#mdc1cb8013a" x="176.509669" y="336.24" style="stroke: #000000; stroke-width: 0.5"/>
      </g>
     </g>
     <g id="line2d_22">
      <g>
       <use xlink:href="#m16800fa2ba" x="176.509669" y="3.6" style="stroke: #000000; stroke-width: 0.5"/>
      </g>
     </g>
    </g>
    <g id="xtick_12">
     <g id="line2d_23">
      <g>
       <use xlink:href="#mdc1cb8013a" x="198.722997" y="336.24" style="stroke: #000000; stroke-width: 0.5"/>
      </g>
     </g>
     <g id="line2d_24">
      <g>
       <use xlink:href="#m16800fa2ba" x="198.722997" y="3.6" style="stroke: #000000; stroke-width: 0.5"/>
      </g>
     </g>
    </g>
    <g id="xtick_13">
     <g id="line2d_25">
      <g>
       <use xlink:href="#mdc1cb8013a" x="243.149651" y="336.24" style="stroke: #000000; stroke-width: 0.5"/>
      </g>
     </g>
     <g id="line2d_26">
      <g>
       <use xlink:href="#m16800fa2ba" x="243.149651" y="3.6" style="stroke: #000000; stroke-width: 0.5"/>
      </g>
     </g>
    </g>
    <g id="xtick_14">
     <g id="line2d_27">
      <g>
       <use xlink:href="#mdc1cb8013a" x="265.362979" y="336.24" style="stroke: #000000; stroke-width: 0.5"/>
      </g>
     </g>
     <g id="line2d_28">
      <g>
       <use xlink:href="#m16800fa2ba" x="265.362979" y="3.6" style="stroke: #000000; stroke-width: 0.5"/>
      </g>
     </g>
    </g>
    <g id="xtick_15">
     <g id="line2d_29">
      <g>
       <use xlink:href="#mdc1cb8013a" x="287.576306" y="336.24" style="stroke: #000000; stroke-width: 0.5"/>
      </g>
     </g>
     <g id="line2d_30">
      <g>
       <use xlink:href="#m16800fa2ba" x="287.576306" y="3.6" style="stroke: #000000; stroke-width: 0.5"/>
      </g>
     </g>
    </g>
    <g id="xtick_16">
     <g id="line2d_31">
      <g>
       <use xlink:href="#mdc1cb8013a" x="332.002961" y="336.24" style="stroke: #000000; stroke-width: 0.5"/>
      </g>
     </g>
     <g id="line2d_32">
      <g>
       <use xlink:href="#m16800fa2ba" x="332.002961" y="3.6" style="stroke: #000000; stroke-width: 0.5"/>
      </g>
     </g>
    </g>
    <g id="xtick_17">
     <g id="line2d_33">
      <g>
       <use xlink:href="#mdc1cb8013a" x="354.216288" y="336.24" style="stroke: #000000; stroke-width: 0.5"/>
      </g>
     </g>
     <g id="line2d_34">
      <g>
       <use xlink:href="#m16800fa2ba" x="354.216288" y="3.6" style="stroke: #000000; stroke-width: 0.5"/>
      </g>
     </g>
    </g>
    <g id="xtick_18">
     <g id="line2d_35">
      <g>
       <use xlink:href="#mdc1cb8013a" x="376.429616" y="336.24" style="stroke: #000000; stroke-width: 0.5"/>
      </g>
     </g>
     <g id="line2d_36">
      <g>
       <use xlink:href="#m16800fa2ba" x="376.429616" y="3.6" style="stroke: #000000; stroke-width: 0.5"/>
      </g>
     </g>
    </g>
    <g id="xtick_19">
     <g id="line2d_37">
      <g>
       <use xlink:href="#mdc1cb8013a" x="420.85627" y="336.24" style="stroke: #000000; stroke-width: 0.5"/>
      </g>
     </g>
     <g id="line2d_38">
      <g>
       <use xlink:href="#m16800fa2ba" x="420.85627" y="3.6" style="stroke: #000000; stroke-width: 0.5"/>
      </g>
     </g>
    </g>
    <g id="xtick_20">
     <g id="line2d_39">
      <g>
       <use xlink:href="#mdc1cb8013a" x="443.069598" y="336.24" style="stroke: #000000; stroke-width: 0.5"/>
      </g>
     </g>
     <g id="line2d_40">
      <g>
       <use xlink:href="#m16800fa2ba" x="443.069598" y="3.6" style="stroke: #000000; stroke-width: 0.5"/>
      </g>
     </g>
    </g>
    <g id="xtick_21">
     <g id="line2d_41">
      <g>
       <use xlink:href="#mdc1cb8013a" x="465.282925" y="336.24" style="stroke: #000000; stroke-width: 0.5"/>
      </g>
     </g>
     <g id="line2d_42">
      <g>
       <use xlink:href="#m16800fa2ba" x="465.282925" y="3.6" style="stroke: #000000; stroke-width: 0.5"/>
      </g>
     </g>
    </g>
    <g id="xtick_22">
     <g id="line2d_43">
      <g>
       <use xlink:href="#mdc1cb8013a" x="509.70958" y="336.24" style="stroke: #000000; stroke-width: 0.5"/>
      </g>
     </g>
     <g id="line2d_44">
      <g>
       <use xlink:href="#m16800fa2ba" x="509.70958" y="3.6" style="stroke: #000000; stroke-width: 0.5"/>
      </g>
     </g>
    </g>
    <g id="xtick_23">
     <g id="line2d_45">
      <g>
       <use xlink:href="#mdc1cb8013a" x="531.922907" y="336.24" style="stroke: #000000; stroke-width: 0.5"/>
      </g>
     </g>
     <g id="line2d_46">
      <g>
       <use xlink:href="#m16800fa2ba" x="531.922907" y="3.6" style="stroke: #000000; stroke-width: 0.5"/>
      </g>
     </g>
    </g>
    <g id="xtick_24">
     <g id="line2d_47">
      <g>
       <use xlink:href="#mdc1cb8013a" x="554.136235" y="336.24" style="stroke: #000000; stroke-width: 0.5"/>
      </g>
     </g>
     <g id="line2d_48">
      <g>
       <use xlink:href="#m16800fa2ba" x="554.136235" y="3.6" style="stroke: #000000; stroke-width: 0.5"/>
      </g>
     </g>
    </g>
    <g id="xtick_25">
     <g id="line2d_49">
      <g>
       <use xlink:href="#mdc1cb8013a" x="598.562889" y="336.24" style="stroke: #000000; stroke-width: 0.5"/>
      </g>
     </g>
     <g id="line2d_50">
      <g>
       <use xlink:href="#m16800fa2ba" x="598.562889" y="3.6" style="stroke: #000000; stroke-width: 0.5"/>
      </g>
     </g>
    </g>
   </g>
   <g id="matplotlib.axis_2">
    <g id="ytick_1">
     <g id="line2d_51">
      <defs>
       <path id="m9d87c25ffd" d="M 0 0 
L 3 0 
" style="stroke: #000000; stroke-width: 0.5"/>
      </defs>
      <g>
       <use xlink:href="#m9d87c25ffd" x="43.652382" y="302.693284" style="stroke: #000000; stroke-width: 0.5"/>
      </g>
     </g>
     <g id="line2d_52">
      <defs>
       <path id="mdd3ca45087" d="M 0 0 
L -3 0 
" style="stroke: #000000; stroke-width: 0.5"/>
      </defs>
      <g>
       <use xlink:href="#mdd3ca45087" x="601.652382" y="302.693284" style="stroke: #000000; stroke-width: 0.5"/>
      </g>
     </g>
     <g id="text_7">
      <!-- $\mathdefault{1000}$ -->
      <g transform="translate(3.6 309.611782) scale(0.2 -0.2)">
       <use xlink:href="#CMR17-31" transform="scale(0.996264)"/>
       <use xlink:href="#CMR17-30" transform="translate(45.690477 0) scale(0.996264)"/>
       <use xlink:href="#CMR17-30" transform="translate(91.380954 0) scale(0.996264)"/>
       <use xlink:href="#CMR17-30" transform="translate(137.071431 0) scale(0.996264)"/>
      </g>
     </g>
    </g>
    <g id="ytick_2">
     <g id="line2d_53">
      <g>
       <use xlink:href="#m9d87c25ffd" x="43.652382" y="264.757936" style="stroke: #000000; stroke-width: 0.5"/>
      </g>
     </g>
     <g id="line2d_54">
      <g>
       <use xlink:href="#mdd3ca45087" x="601.652382" y="264.757936" style="stroke: #000000; stroke-width: 0.5"/>
      </g>
     </g>
     <g id="text_8">
      <!-- $\mathdefault{1500}$ -->
      <g transform="translate(3.6 271.676434) scale(0.2 -0.2)">
       <defs>
        <path id="CMR17-35" d="M 730 3750 
C 794 3724 1056 3641 1325 3641 
C 1920 3641 2246 3961 2432 4140 
C 2432 4191 2432 4224 2394 4224 
C 2387 4224 2374 4224 2323 4198 
C 2099 4102 1837 4032 1517 4032 
C 1325 4032 1037 4055 723 4191 
C 653 4224 640 4224 634 4224 
C 602 4224 595 4217 595 4090 
L 595 2231 
C 595 2113 595 2080 659 2080 
C 691 2080 704 2093 736 2139 
C 941 2435 1222 2560 1542 2560 
C 1766 2560 2246 2415 2246 1293 
C 2246 1087 2246 716 2054 422 
C 1894 159 1645 25 1370 25 
C 947 25 518 319 403 812 
C 429 806 480 793 506 793 
C 589 793 749 838 749 1036 
C 749 1209 627 1280 506 1280 
C 358 1280 262 1190 262 1011 
C 262 454 704 -128 1382 -128 
C 2042 -128 2669 441 2669 1267 
C 2669 2054 2170 2662 1549 2662 
C 1222 2662 947 2540 730 2304 
L 730 3750 
z
" transform="scale(0.015625)"/>
       </defs>
       <use xlink:href="#CMR17-31" transform="scale(0.996264)"/>
       <use xlink:href="#CMR17-35" transform="translate(45.690477 0) scale(0.996264)"/>
       <use xlink:href="#CMR17-30" transform="translate(91.380954 0) scale(0.996264)"/>
       <use xlink:href="#CMR17-30" transform="translate(137.071431 0) scale(0.996264)"/>
      </g>
     </g>
    </g>
    <g id="ytick_3">
     <g id="line2d_55">
      <g>
       <use xlink:href="#m9d87c25ffd" x="43.652382" y="226.822588" style="stroke: #000000; stroke-width: 0.5"/>
      </g>
     </g>
     <g id="line2d_56">
      <g>
       <use xlink:href="#mdd3ca45087" x="601.652382" y="226.822588" style="stroke: #000000; stroke-width: 0.5"/>
      </g>
     </g>
     <g id="text_9">
      <!-- $\mathdefault{2000}$ -->
      <g transform="translate(3.6 233.741086) scale(0.2 -0.2)">
       <use xlink:href="#CMR17-32" transform="scale(0.996264)"/>
       <use xlink:href="#CMR17-30" transform="translate(45.690477 0) scale(0.996264)"/>
       <use xlink:href="#CMR17-30" transform="translate(91.380954 0) scale(0.996264)"/>
       <use xlink:href="#CMR17-30" transform="translate(137.071431 0) scale(0.996264)"/>
      </g>
     </g>
    </g>
    <g id="ytick_4">
     <g id="line2d_57">
      <g>
       <use xlink:href="#m9d87c25ffd" x="43.652382" y="188.88724" style="stroke: #000000; stroke-width: 0.5"/>
      </g>
     </g>
     <g id="line2d_58">
      <g>
       <use xlink:href="#mdd3ca45087" x="601.652382" y="188.88724" style="stroke: #000000; stroke-width: 0.5"/>
      </g>
     </g>
     <g id="text_10">
      <!-- $\mathdefault{2500}$ -->
      <g transform="translate(3.6 195.805738) scale(0.2 -0.2)">
       <use xlink:href="#CMR17-32" transform="scale(0.996264)"/>
       <use xlink:href="#CMR17-35" transform="translate(45.690477 0) scale(0.996264)"/>
       <use xlink:href="#CMR17-30" transform="translate(91.380954 0) scale(0.996264)"/>
       <use xlink:href="#CMR17-30" transform="translate(137.071431 0) scale(0.996264)"/>
      </g>
     </g>
    </g>
    <g id="ytick_5">
     <g id="line2d_59">
      <g>
       <use xlink:href="#m9d87c25ffd" x="43.652382" y="150.951892" style="stroke: #000000; stroke-width: 0.5"/>
      </g>
     </g>
     <g id="line2d_60">
      <g>
       <use xlink:href="#mdd3ca45087" x="601.652382" y="150.951892" style="stroke: #000000; stroke-width: 0.5"/>
      </g>
     </g>
     <g id="text_11">
      <!-- $\mathdefault{3000}$ -->
      <g transform="translate(3.6 157.87039) scale(0.2 -0.2)">
       <defs>
        <path id="CMR17-33" d="M 1414 2176 
C 1984 2176 2234 1673 2234 1094 
C 2234 322 1824 25 1453 25 
C 1114 25 563 193 390 691 
C 422 678 454 678 486 678 
C 640 678 755 780 755 947 
C 755 1132 614 1216 486 1216 
C 378 1216 211 1164 211 927 
C 211 335 787 -128 1466 -128 
C 2176 -128 2720 432 2720 1087 
C 2720 1718 2208 2176 1600 2246 
C 2086 2347 2554 2776 2554 3353 
C 2554 3856 2048 4224 1472 4224 
C 890 4224 378 3862 378 3347 
C 378 3123 544 3084 627 3084 
C 762 3084 877 3167 877 3334 
C 877 3500 762 3584 627 3584 
C 602 3584 570 3584 544 3571 
C 730 3999 1235 4076 1459 4076 
C 1683 4076 2106 3966 2106 3347 
C 2106 3167 2080 2851 1862 2574 
C 1670 2329 1453 2316 1242 2297 
C 1210 2297 1062 2284 1037 2284 
C 992 2278 966 2272 966 2227 
C 966 2182 973 2176 1101 2176 
L 1414 2176 
z
" transform="scale(0.015625)"/>
       </defs>
       <use xlink:href="#CMR17-33" transform="scale(0.996264)"/>
       <use xlink:href="#CMR17-30" transform="translate(45.690477 0) scale(0.996264)"/>
       <use xlink:href="#CMR17-30" transform="translate(91.380954 0) scale(0.996264)"/>
       <use xlink:href="#CMR17-30" transform="translate(137.071431 0) scale(0.996264)"/>
      </g>
     </g>
    </g>
    <g id="ytick_6">
     <g id="line2d_61">
      <g>
       <use xlink:href="#m9d87c25ffd" x="43.652382" y="113.016544" style="stroke: #000000; stroke-width: 0.5"/>
      </g>
     </g>
     <g id="line2d_62">
      <g>
       <use xlink:href="#mdd3ca45087" x="601.652382" y="113.016544" style="stroke: #000000; stroke-width: 0.5"/>
      </g>
     </g>
     <g id="text_12">
      <!-- $\mathdefault{3500}$ -->
      <g transform="translate(3.6 119.935042) scale(0.2 -0.2)">
       <use xlink:href="#CMR17-33" transform="scale(0.996264)"/>
       <use xlink:href="#CMR17-35" transform="translate(45.690477 0) scale(0.996264)"/>
       <use xlink:href="#CMR17-30" transform="translate(91.380954 0) scale(0.996264)"/>
       <use xlink:href="#CMR17-30" transform="translate(137.071431 0) scale(0.996264)"/>
      </g>
     </g>
    </g>
    <g id="ytick_7">
     <g id="line2d_63">
      <g>
       <use xlink:href="#m9d87c25ffd" x="43.652382" y="75.081195" style="stroke: #000000; stroke-width: 0.5"/>
      </g>
     </g>
     <g id="line2d_64">
      <g>
       <use xlink:href="#mdd3ca45087" x="601.652382" y="75.081195" style="stroke: #000000; stroke-width: 0.5"/>
      </g>
     </g>
     <g id="text_13">
      <!-- $\mathdefault{4000}$ -->
      <g transform="translate(3.6 81.999694) scale(0.2 -0.2)">
       <use xlink:href="#CMR17-34" transform="scale(0.996264)"/>
       <use xlink:href="#CMR17-30" transform="translate(45.690477 0) scale(0.996264)"/>
       <use xlink:href="#CMR17-30" transform="translate(91.380954 0) scale(0.996264)"/>
       <use xlink:href="#CMR17-30" transform="translate(137.071431 0) scale(0.996264)"/>
      </g>
     </g>
    </g>
    <g id="ytick_8">
     <g id="line2d_65">
      <g>
       <use xlink:href="#m9d87c25ffd" x="43.652382" y="37.145847" style="stroke: #000000; stroke-width: 0.5"/>
      </g>
     </g>
     <g id="line2d_66">
      <g>
       <use xlink:href="#mdd3ca45087" x="601.652382" y="37.145847" style="stroke: #000000; stroke-width: 0.5"/>
      </g>
     </g>
     <g id="text_14">
      <!-- $\mathdefault{4500}$ -->
      <g transform="translate(3.6 44.064346) scale(0.2 -0.2)">
       <use xlink:href="#CMR17-34" transform="scale(0.996264)"/>
       <use xlink:href="#CMR17-35" transform="translate(45.690477 0) scale(0.996264)"/>
       <use xlink:href="#CMR17-30" transform="translate(91.380954 0) scale(0.996264)"/>
       <use xlink:href="#CMR17-30" transform="translate(137.071431 0) scale(0.996264)"/>
      </g>
     </g>
    </g>
    <g id="ytick_9">
     <g id="line2d_67">
      <defs>
       <path id="mfbe982d925" d="M 0 0 
L 1.5 0 
" style="stroke: #000000; stroke-width: 0.5"/>
      </defs>
      <g>
       <use xlink:href="#mfbe982d925" x="43.652382" y="333.041562" style="stroke: #000000; stroke-width: 0.5"/>
      </g>
     </g>
     <g id="line2d_68">
      <defs>
       <path id="m5fdc3554b8" d="M 0 0 
L -1.5 0 
" style="stroke: #000000; stroke-width: 0.5"/>
      </defs>
      <g>
       <use xlink:href="#m5fdc3554b8" x="601.652382" y="333.041562" style="stroke: #000000; stroke-width: 0.5"/>
      </g>
     </g>
    </g>
    <g id="ytick_10">
     <g id="line2d_69">
      <g>
       <use xlink:href="#mfbe982d925" x="43.652382" y="325.454493" style="stroke: #000000; stroke-width: 0.5"/>
      </g>
     </g>
     <g id="line2d_70">
      <g>
       <use xlink:href="#m5fdc3554b8" x="601.652382" y="325.454493" style="stroke: #000000; stroke-width: 0.5"/>
      </g>
     </g>
    </g>
    <g id="ytick_11">
     <g id="line2d_71">
      <g>
       <use xlink:href="#mfbe982d925" x="43.652382" y="317.867423" style="stroke: #000000; stroke-width: 0.5"/>
      </g>
     </g>
     <g id="line2d_72">
      <g>
       <use xlink:href="#m5fdc3554b8" x="601.652382" y="317.867423" style="stroke: #000000; stroke-width: 0.5"/>
      </g>
     </g>
    </g>
    <g id="ytick_12">
     <g id="line2d_73">
      <g>
       <use xlink:href="#mfbe982d925" x="43.652382" y="310.280354" style="stroke: #000000; stroke-width: 0.5"/>
      </g>
     </g>
     <g id="line2d_74">
      <g>
       <use xlink:href="#m5fdc3554b8" x="601.652382" y="310.280354" style="stroke: #000000; stroke-width: 0.5"/>
      </g>
     </g>
    </g>
    <g id="ytick_13">
     <g id="line2d_75">
      <g>
       <use xlink:href="#mfbe982d925" x="43.652382" y="295.106214" style="stroke: #000000; stroke-width: 0.5"/>
      </g>
     </g>
     <g id="line2d_76">
      <g>
       <use xlink:href="#m5fdc3554b8" x="601.652382" y="295.106214" style="stroke: #000000; stroke-width: 0.5"/>
      </g>
     </g>
    </g>
    <g id="ytick_14">
     <g id="line2d_77">
      <g>
       <use xlink:href="#mfbe982d925" x="43.652382" y="287.519145" style="stroke: #000000; stroke-width: 0.5"/>
      </g>
     </g>
     <g id="line2d_78">
      <g>
       <use xlink:href="#m5fdc3554b8" x="601.652382" y="287.519145" style="stroke: #000000; stroke-width: 0.5"/>
      </g>
     </g>
    </g>
    <g id="ytick_15">
     <g id="line2d_79">
      <g>
       <use xlink:href="#mfbe982d925" x="43.652382" y="279.932075" style="stroke: #000000; stroke-width: 0.5"/>
      </g>
     </g>
     <g id="line2d_80">
      <g>
       <use xlink:href="#m5fdc3554b8" x="601.652382" y="279.932075" style="stroke: #000000; stroke-width: 0.5"/>
      </g>
     </g>
    </g>
    <g id="ytick_16">
     <g id="line2d_81">
      <g>
       <use xlink:href="#mfbe982d925" x="43.652382" y="272.345006" style="stroke: #000000; stroke-width: 0.5"/>
      </g>
     </g>
     <g id="line2d_82">
      <g>
       <use xlink:href="#m5fdc3554b8" x="601.652382" y="272.345006" style="stroke: #000000; stroke-width: 0.5"/>
      </g>
     </g>
    </g>
    <g id="ytick_17">
     <g id="line2d_83">
      <g>
       <use xlink:href="#mfbe982d925" x="43.652382" y="257.170866" style="stroke: #000000; stroke-width: 0.5"/>
      </g>
     </g>
     <g id="line2d_84">
      <g>
       <use xlink:href="#m5fdc3554b8" x="601.652382" y="257.170866" style="stroke: #000000; stroke-width: 0.5"/>
      </g>
     </g>
    </g>
    <g id="ytick_18">
     <g id="line2d_85">
      <g>
       <use xlink:href="#mfbe982d925" x="43.652382" y="249.583797" style="stroke: #000000; stroke-width: 0.5"/>
      </g>
     </g>
     <g id="line2d_86">
      <g>
       <use xlink:href="#m5fdc3554b8" x="601.652382" y="249.583797" style="stroke: #000000; stroke-width: 0.5"/>
      </g>
     </g>
    </g>
    <g id="ytick_19">
     <g id="line2d_87">
      <g>
       <use xlink:href="#mfbe982d925" x="43.652382" y="241.996727" style="stroke: #000000; stroke-width: 0.5"/>
      </g>
     </g>
     <g id="line2d_88">
      <g>
       <use xlink:href="#m5fdc3554b8" x="601.652382" y="241.996727" style="stroke: #000000; stroke-width: 0.5"/>
      </g>
     </g>
    </g>
    <g id="ytick_20">
     <g id="line2d_89">
      <g>
       <use xlink:href="#mfbe982d925" x="43.652382" y="234.409657" style="stroke: #000000; stroke-width: 0.5"/>
      </g>
     </g>
     <g id="line2d_90">
      <g>
       <use xlink:href="#m5fdc3554b8" x="601.652382" y="234.409657" style="stroke: #000000; stroke-width: 0.5"/>
      </g>
     </g>
    </g>
    <g id="ytick_21">
     <g id="line2d_91">
      <g>
       <use xlink:href="#mfbe982d925" x="43.652382" y="219.235518" style="stroke: #000000; stroke-width: 0.5"/>
      </g>
     </g>
     <g id="line2d_92">
      <g>
       <use xlink:href="#m5fdc3554b8" x="601.652382" y="219.235518" style="stroke: #000000; stroke-width: 0.5"/>
      </g>
     </g>
    </g>
    <g id="ytick_22">
     <g id="line2d_93">
      <g>
       <use xlink:href="#mfbe982d925" x="43.652382" y="211.648449" style="stroke: #000000; stroke-width: 0.5"/>
      </g>
     </g>
     <g id="line2d_94">
      <g>
       <use xlink:href="#m5fdc3554b8" x="601.652382" y="211.648449" style="stroke: #000000; stroke-width: 0.5"/>
      </g>
     </g>
    </g>
    <g id="ytick_23">
     <g id="line2d_95">
      <g>
       <use xlink:href="#mfbe982d925" x="43.652382" y="204.061379" style="stroke: #000000; stroke-width: 0.5"/>
      </g>
     </g>
     <g id="line2d_96">
      <g>
       <use xlink:href="#m5fdc3554b8" x="601.652382" y="204.061379" style="stroke: #000000; stroke-width: 0.5"/>
      </g>
     </g>
    </g>
    <g id="ytick_24">
     <g id="line2d_97">
      <g>
       <use xlink:href="#mfbe982d925" x="43.652382" y="196.474309" style="stroke: #000000; stroke-width: 0.5"/>
      </g>
     </g>
     <g id="line2d_98">
      <g>
       <use xlink:href="#m5fdc3554b8" x="601.652382" y="196.474309" style="stroke: #000000; stroke-width: 0.5"/>
      </g>
     </g>
    </g>
    <g id="ytick_25">
     <g id="line2d_99">
      <g>
       <use xlink:href="#mfbe982d925" x="43.652382" y="181.30017" style="stroke: #000000; stroke-width: 0.5"/>
      </g>
     </g>
     <g id="line2d_100">
      <g>
       <use xlink:href="#m5fdc3554b8" x="601.652382" y="181.30017" style="stroke: #000000; stroke-width: 0.5"/>
      </g>
     </g>
    </g>
    <g id="ytick_26">
     <g id="line2d_101">
      <g>
       <use xlink:href="#mfbe982d925" x="43.652382" y="173.713101" style="stroke: #000000; stroke-width: 0.5"/>
      </g>
     </g>
     <g id="line2d_102">
      <g>
       <use xlink:href="#m5fdc3554b8" x="601.652382" y="173.713101" style="stroke: #000000; stroke-width: 0.5"/>
      </g>
     </g>
    </g>
    <g id="ytick_27">
     <g id="line2d_103">
      <g>
       <use xlink:href="#mfbe982d925" x="43.652382" y="166.126031" style="stroke: #000000; stroke-width: 0.5"/>
      </g>
     </g>
     <g id="line2d_104">
      <g>
       <use xlink:href="#m5fdc3554b8" x="601.652382" y="166.126031" style="stroke: #000000; stroke-width: 0.5"/>
      </g>
     </g>
    </g>
    <g id="ytick_28">
     <g id="line2d_105">
      <g>
       <use xlink:href="#mfbe982d925" x="43.652382" y="158.538961" style="stroke: #000000; stroke-width: 0.5"/>
      </g>
     </g>
     <g id="line2d_106">
      <g>
       <use xlink:href="#m5fdc3554b8" x="601.652382" y="158.538961" style="stroke: #000000; stroke-width: 0.5"/>
      </g>
     </g>
    </g>
    <g id="ytick_29">
     <g id="line2d_107">
      <g>
       <use xlink:href="#mfbe982d925" x="43.652382" y="143.364822" style="stroke: #000000; stroke-width: 0.5"/>
      </g>
     </g>
     <g id="line2d_108">
      <g>
       <use xlink:href="#m5fdc3554b8" x="601.652382" y="143.364822" style="stroke: #000000; stroke-width: 0.5"/>
      </g>
     </g>
    </g>
    <g id="ytick_30">
     <g id="line2d_109">
      <g>
       <use xlink:href="#mfbe982d925" x="43.652382" y="135.777752" style="stroke: #000000; stroke-width: 0.5"/>
      </g>
     </g>
     <g id="line2d_110">
      <g>
       <use xlink:href="#m5fdc3554b8" x="601.652382" y="135.777752" style="stroke: #000000; stroke-width: 0.5"/>
      </g>
     </g>
    </g>
    <g id="ytick_31">
     <g id="line2d_111">
      <g>
       <use xlink:href="#mfbe982d925" x="43.652382" y="128.190683" style="stroke: #000000; stroke-width: 0.5"/>
      </g>
     </g>
     <g id="line2d_112">
      <g>
       <use xlink:href="#m5fdc3554b8" x="601.652382" y="128.190683" style="stroke: #000000; stroke-width: 0.5"/>
      </g>
     </g>
    </g>
    <g id="ytick_32">
     <g id="line2d_113">
      <g>
       <use xlink:href="#mfbe982d925" x="43.652382" y="120.603613" style="stroke: #000000; stroke-width: 0.5"/>
      </g>
     </g>
     <g id="line2d_114">
      <g>
       <use xlink:href="#m5fdc3554b8" x="601.652382" y="120.603613" style="stroke: #000000; stroke-width: 0.5"/>
      </g>
     </g>
    </g>
    <g id="ytick_33">
     <g id="line2d_115">
      <g>
       <use xlink:href="#mfbe982d925" x="43.652382" y="105.429474" style="stroke: #000000; stroke-width: 0.5"/>
      </g>
     </g>
     <g id="line2d_116">
      <g>
       <use xlink:href="#m5fdc3554b8" x="601.652382" y="105.429474" style="stroke: #000000; stroke-width: 0.5"/>
      </g>
     </g>
    </g>
    <g id="ytick_34">
     <g id="line2d_117">
      <g>
       <use xlink:href="#mfbe982d925" x="43.652382" y="97.842404" style="stroke: #000000; stroke-width: 0.5"/>
      </g>
     </g>
     <g id="line2d_118">
      <g>
       <use xlink:href="#m5fdc3554b8" x="601.652382" y="97.842404" style="stroke: #000000; stroke-width: 0.5"/>
      </g>
     </g>
    </g>
    <g id="ytick_35">
     <g id="line2d_119">
      <g>
       <use xlink:href="#mfbe982d925" x="43.652382" y="90.255335" style="stroke: #000000; stroke-width: 0.5"/>
      </g>
     </g>
     <g id="line2d_120">
      <g>
       <use xlink:href="#m5fdc3554b8" x="601.652382" y="90.255335" style="stroke: #000000; stroke-width: 0.5"/>
      </g>
     </g>
    </g>
    <g id="ytick_36">
     <g id="line2d_121">
      <g>
       <use xlink:href="#mfbe982d925" x="43.652382" y="82.668265" style="stroke: #000000; stroke-width: 0.5"/>
      </g>
     </g>
     <g id="line2d_122">
      <g>
       <use xlink:href="#m5fdc3554b8" x="601.652382" y="82.668265" style="stroke: #000000; stroke-width: 0.5"/>
      </g>
     </g>
    </g>
    <g id="ytick_37">
     <g id="line2d_123">
      <g>
       <use xlink:href="#mfbe982d925" x="43.652382" y="67.494126" style="stroke: #000000; stroke-width: 0.5"/>
      </g>
     </g>
     <g id="line2d_124">
      <g>
       <use xlink:href="#m5fdc3554b8" x="601.652382" y="67.494126" style="stroke: #000000; stroke-width: 0.5"/>
      </g>
     </g>
    </g>
    <g id="ytick_38">
     <g id="line2d_125">
      <g>
       <use xlink:href="#mfbe982d925" x="43.652382" y="59.907056" style="stroke: #000000; stroke-width: 0.5"/>
      </g>
     </g>
     <g id="line2d_126">
      <g>
       <use xlink:href="#m5fdc3554b8" x="601.652382" y="59.907056" style="stroke: #000000; stroke-width: 0.5"/>
      </g>
     </g>
    </g>
    <g id="ytick_39">
     <g id="line2d_127">
      <g>
       <use xlink:href="#mfbe982d925" x="43.652382" y="52.319987" style="stroke: #000000; stroke-width: 0.5"/>
      </g>
     </g>
     <g id="line2d_128">
      <g>
       <use xlink:href="#m5fdc3554b8" x="601.652382" y="52.319987" style="stroke: #000000; stroke-width: 0.5"/>
      </g>
     </g>
    </g>
    <g id="ytick_40">
     <g id="line2d_129">
      <g>
       <use xlink:href="#mfbe982d925" x="43.652382" y="44.732917" style="stroke: #000000; stroke-width: 0.5"/>
      </g>
     </g>
     <g id="line2d_130">
      <g>
       <use xlink:href="#m5fdc3554b8" x="601.652382" y="44.732917" style="stroke: #000000; stroke-width: 0.5"/>
      </g>
     </g>
    </g>
    <g id="ytick_41">
     <g id="line2d_131">
      <g>
       <use xlink:href="#mfbe982d925" x="43.652382" y="29.558778" style="stroke: #000000; stroke-width: 0.5"/>
      </g>
     </g>
     <g id="line2d_132">
      <g>
       <use xlink:href="#m5fdc3554b8" x="601.652382" y="29.558778" style="stroke: #000000; stroke-width: 0.5"/>
      </g>
     </g>
    </g>
    <g id="ytick_42">
     <g id="line2d_133">
      <g>
       <use xlink:href="#mfbe982d925" x="43.652382" y="21.971708" style="stroke: #000000; stroke-width: 0.5"/>
      </g>
     </g>
     <g id="line2d_134">
      <g>
       <use xlink:href="#m5fdc3554b8" x="601.652382" y="21.971708" style="stroke: #000000; stroke-width: 0.5"/>
      </g>
     </g>
    </g>
    <g id="ytick_43">
     <g id="line2d_135">
      <g>
       <use xlink:href="#mfbe982d925" x="43.652382" y="14.384639" style="stroke: #000000; stroke-width: 0.5"/>
      </g>
     </g>
     <g id="line2d_136">
      <g>
       <use xlink:href="#m5fdc3554b8" x="601.652382" y="14.384639" style="stroke: #000000; stroke-width: 0.5"/>
      </g>
     </g>
    </g>
    <g id="ytick_44">
     <g id="line2d_137">
      <g>
       <use xlink:href="#mfbe982d925" x="43.652382" y="6.797569" style="stroke: #000000; stroke-width: 0.5"/>
      </g>
     </g>
     <g id="line2d_138">
      <g>
       <use xlink:href="#m5fdc3554b8" x="601.652382" y="6.797569" style="stroke: #000000; stroke-width: 0.5"/>
      </g>
     </g>
    </g>
   </g>
   <g id="line2d_139">
    <path d="M 69.016018 279.495819 
L 70.901338 288.592715 
L 72.725841 288.289991 
L 74.611161 282.180124 
L 78.320985 287.18152 
L 80.206305 289.150365 
L 82.030808 299.306416 
L 83.916128 296.882347 
L 85.740631 292.854372 
L 87.625951 291.697344 
L 89.511272 292.055454 
L 91.214141 295.055381 
L 93.099461 291.02513 
L 94.923965 294.201077 
L 96.809285 296.680531 
L 98.633788 301.629577 
L 100.519108 310.007978 
L 102.404428 309.328176 
L 104.228931 312.722631 
L 106.114251 313.722607 
L 107.938755 309.526958 
L 109.824075 310.342568 
L 111.709395 310.595976 
L 113.412264 315.057931 
L 115.297584 314.329573 
L 119.007408 307.552043 
L 120.831911 303.603732 
L 122.717231 303.259279 
L 124.602551 303.48765 
L 126.427054 301.218358 
L 128.312375 299.754812 
L 130.136878 298.907336 
L 132.022198 296.575071 
L 133.907518 292.638899 
L 135.671204 291.816461 
L 137.556524 293.286835 
L 139.381028 292.575168 
L 141.266348 294.895294 
L 143.090851 292.62069 
L 144.976171 294.662371 
L 146.861491 295.945344 
L 148.685994 293.766338 
L 150.571314 293.80048 
L 152.395818 289.875689 
L 154.281138 287.579083 
L 156.166458 288.929581 
L 157.869328 287.547217 
L 159.754648 287.906085 
L 161.579151 290.217865 
L 163.464471 289.167056 
L 165.288974 287.348436 
L 167.174294 285.83178 
L 170.884118 285.552576 
L 172.769438 288.129145 
L 174.593941 284.683857 
L 176.479261 282.809851 
L 178.364581 281.545845 
L 180.067451 281.703656 
L 181.952771 280.407026 
L 183.777274 279.767436 
L 185.662594 280.690023 
L 187.487097 283.4851 
L 189.372417 282.948694 
L 191.257737 280.907014 
L 193.082241 278.586129 
L 194.967561 275.12339 
L 198.677384 271.099209 
L 200.562704 270.51197 
L 202.265574 268.945998 
L 204.150894 271.817704 
L 205.975397 267.516594 
L 207.860717 263.912736 
L 209.685221 263.681331 
L 211.570541 263.186654 
L 213.455861 268.200948 
L 217.165684 261.748904 
L 218.990187 267.535562 
L 220.875507 266.334529 
L 222.760827 273.956499 
L 224.524514 275.76905 
L 226.409834 278.646826 
L 228.234337 274.585467 
L 230.119657 272.100702 
L 231.944161 276.802409 
L 233.829481 283.169478 
L 235.714801 281.337959 
L 237.539304 286.233136 
L 239.424624 305.06045 
L 241.249127 311.567121 
L 243.134447 311.982892 
L 245.019767 312.891823 
L 246.722637 317.47062 
L 248.607957 321.12 
L 250.43246 314.214249 
L 252.31778 310.097505 
L 254.142284 308.298611 
L 256.027604 307.562665 
L 257.912924 301.955062 
L 259.737427 299.313245 
L 263.44725 296.011352 
L 265.33257 294.318677 
L 267.217891 293.317183 
L 268.92076 295.928653 
L 270.80608 291.157145 
L 272.630584 287.722478 
L 274.515904 293.204895 
L 276.340407 296.368703 
L 278.225727 296.638802 
L 280.111047 296.07129 
L 281.93555 293.430989 
L 283.82087 289.67539 
L 285.645374 287.603361 
L 291.118883 278.329686 
L 293.004203 279.591416 
L 294.828707 277.54139 
L 296.714027 277.025469 
L 298.53853 280.896392 
L 300.42385 278.020892 
L 302.30917 288.633685 
L 304.133673 289.500887 
L 306.018994 286.971358 
L 307.843497 285.514641 
L 309.728817 284.232426 
L 313.377823 275.949622 
L 315.263143 273.161374 
L 317.087647 273.374571 
L 318.972967 276.800892 
L 320.79747 278.150631 
L 322.68279 275.396525 
L 326.392613 269.0507 
L 328.277933 269.475576 
L 330.102437 272.761536 
L 331.987757 270.653848 
L 333.873077 266.245002 
L 335.575947 263.823968 
L 337.461267 260.901428 
L 339.28577 259.393878 
L 341.17109 254.148178 
L 342.995593 255.746773 
L 344.880913 251.960067 
L 346.766233 251.853089 
L 348.590737 250.557218 
L 350.476057 248.064107 
L 352.30056 243.245559 
L 354.18588 241.406453 
L 356.0712 240.300258 
L 357.77407 240.70389 
L 359.65939 237.17742 
L 361.483893 237.121276 
L 363.369213 235.185815 
L 365.193716 230.836906 
L 367.079036 228.86351 
L 368.964356 229.741334 
L 370.78886 227.336232 
L 372.67418 231.581957 
L 374.498683 223.441031 
L 376.384003 222.705085 
L 378.269323 224.684552 
L 379.972193 220.586017 
L 381.857513 220.753691 
L 385.567336 218.329622 
L 387.39184 219.289386 
L 389.27716 219.68012 
L 391.16248 223.797623 
L 392.986983 231.04024 
L 394.872303 224.940236 
L 396.696806 220.705892 
L 398.582126 222.719501 
L 400.467446 232.998463 
L 402.231133 234.074309 
L 404.116453 225.157226 
L 405.940956 221.091315 
L 407.826276 221.849264 
L 409.65078 220.457795 
L 411.5361 215.525441 
L 413.42142 213.852492 
L 417.131243 215.971561 
L 418.955746 214.304682 
L 420.841066 208.110598 
L 422.726386 205.949042 
L 424.429256 201.792086 
L 426.314576 198.991699 
L 428.139079 199.561488 
L 430.024399 196.827108 
L 431.848903 193.895464 
L 433.734223 192.369705 
L 435.619543 192.208859 
L 437.444046 189.430474 
L 439.329366 184.56261 
L 441.153869 181.784984 
L 443.039189 176.41865 
L 444.92451 166.899912 
L 446.627379 173.321608 
L 448.512699 173.502939 
L 450.337203 177.231225 
L 452.222523 173.600053 
L 454.047026 169.589528 
L 455.932346 166.608569 
L 457.817666 161.739187 
L 459.642169 158.425155 
L 461.527489 167.229191 
L 463.351993 171.950624 
L 465.237313 183.780383 
L 467.122633 180.739486 
L 468.825502 169.550834 
L 470.710822 165.824066 
L 472.535326 158.250653 
L 474.420646 161.975145 
L 476.245149 159.28477 
L 478.130469 151.246753 
L 480.015789 158.728776 
L 481.840292 152.305728 
L 483.725613 152.645326 
L 485.550116 142.992714 
L 487.435436 137.541782 
L 489.320756 129.844447 
L 491.084442 129.911869 
L 492.969762 177.325028 
L 494.794266 169.010996 
L 496.679586 157.050758 
L 498.504089 143.011196 
L 500.389409 135.199687 
L 502.274729 121.232581 
L 504.099232 123.219888 
L 505.984552 119.184728 
L 507.809056 109.299448 
L 509.694376 98.198238 
L 513.282566 83.925283 
L 515.167886 81.870996 
L 516.992389 64.37006 
L 518.877709 62.346337 
L 520.702212 56.986828 
L 522.587532 47.486048 
L 524.472852 40.620242 
L 526.297356 41.277513 
L 528.182676 40.127024 
L 530.007179 24.446104 
L 531.892499 23.885719 
L 533.777819 31.545414 
L 535.480689 42.003049 
L 537.366009 45.395631 
L 539.190512 45.393296 
L 541.075832 72.019054 
L 542.900335 82.748182 
L 544.785655 81.77834 
L 546.670975 63.050907 
L 548.495479 86.422311 
L 550.380799 95.8659 
L 552.205302 81.341395 
L 554.090622 81.728914 
L 555.975942 78.066214 
L 557.678812 69.035459 
L 559.564132 77.466636 
L 561.388635 65.865382 
L 563.273955 63.990934 
L 565.098459 48.877516 
L 566.983779 36.533154 
L 570.693602 44.042873 
L 572.578922 54.641561 
L 574.403425 40.17587 
L 576.288745 23.105861 
L 576.288745 23.105861 
" clip-path="url(#p171c7c3524)" style="fill: none; stroke-dasharray: 3.7,1.6; stroke-dashoffset: 0; stroke: #000000"/>
   </g>
   <g id="line2d_140">
    <path d="M 69.016018 276.393595 
L 70.901338 278.81353 
L 72.725841 288.642798 
L 74.611161 287.835395 
L 76.435665 276.983654 
L 78.320985 283.498624 
L 80.206305 286.604866 
L 82.030808 288.137363 
L 83.916128 305.473962 
L 85.740631 295.981641 
L 87.625951 291.946472 
L 89.511272 291.075405 
L 91.214141 291.759874 
L 93.099461 294.725485 
L 94.923965 290.323934 
L 96.809285 293.898897 
L 98.633788 296.455689 
L 100.519108 301.068348 
L 102.404428 309.622703 
L 104.228931 308.590122 
L 106.114251 312.156462 
L 107.938755 313.983993 
L 109.824075 308.568259 
L 111.709395 310.413851 
L 113.412264 310.347037 
L 115.297584 314.71794 
L 117.122088 313.696979 
L 119.007408 310.395105 
L 120.831911 306.916387 
L 122.717231 302.664661 
L 124.602551 302.780034 
L 126.427054 303.211409 
L 128.312375 300.629532 
L 130.136878 299.170576 
L 132.022198 298.14244 
L 133.907518 295.614469 
L 135.671204 291.413082 
L 137.556524 290.998803 
L 139.381028 292.482166 
L 141.266348 292.084683 
L 143.090851 294.283157 
L 144.976171 291.785311 
L 146.861491 294.009999 
L 148.685994 295.275057 
L 150.571314 292.553412 
L 152.395818 293.271741 
L 154.281138 288.638352 
L 156.166458 286.785669 
L 157.869328 288.819516 
L 159.754648 286.450475 
L 163.464471 289.675472 
L 165.288974 288.075174 
L 167.174294 286.119149 
L 169.059614 285.410569 
L 170.884118 285.260015 
L 172.769438 284.818321 
L 174.593941 288.307997 
L 176.479261 283.736746 
L 178.364581 281.706591 
L 180.067451 280.492387 
L 181.952771 281.598257 
L 183.777274 279.8839 
L 185.662594 279.627635 
L 187.487097 280.412887 
L 189.372417 283.493939 
L 191.257737 282.131605 
L 193.082241 279.364613 
L 194.967561 277.155426 
L 196.792064 273.676419 
L 200.562704 269.752177 
L 202.265574 270.380936 
L 204.150894 267.899313 
L 205.975397 271.259856 
L 207.860717 266.262041 
L 209.685221 262.800216 
L 211.570541 263.79582 
L 213.455861 262.412375 
L 215.280364 267.436748 
L 217.165684 263.740508 
L 218.990187 260.721479 
L 220.875507 266.842383 
L 222.760827 265.443062 
L 224.524514 273.252716 
L 226.409834 275.088749 
L 228.234337 277.61094 
L 230.119657 273.805141 
L 231.944161 271.379707 
L 233.829481 276.664857 
L 235.714801 283.137318 
L 237.539304 280.401302 
L 239.424624 285.521111 
L 241.249127 304.608375 
L 243.134447 311.138922 
L 245.019767 311.528069 
L 246.722637 312.461424 
L 248.607957 317.083615 
L 250.43246 320.807018 
L 252.31778 313.73083 
L 254.142284 309.571052 
L 256.027604 307.747948 
L 257.912924 307.005884 
L 259.737427 301.34249 
L 261.622747 298.654103 
L 263.44725 296.88277 
L 265.33257 295.305126 
L 267.217891 293.581462 
L 268.92076 292.69425 
L 270.80608 295.400976 
L 272.630584 289.809961 
L 274.515904 286.921889 
L 276.340407 292.47236 
L 278.225727 295.780946 
L 280.111047 295.832901 
L 281.93555 295.118138 
L 283.82087 292.618294 
L 285.645374 288.002549 
L 287.530694 287.247414 
L 291.118883 280.386566 
L 293.004203 277.789595 
L 294.828707 278.716746 
L 296.714027 276.454892 
L 298.53853 275.55598 
L 300.42385 280.247668 
L 302.30917 276.695856 
L 304.133673 287.960628 
L 306.018994 288.849647 
L 307.843497 286.336508 
L 309.728817 284.495491 
L 311.614137 283.197085 
L 313.377823 278.173297 
L 315.263143 274.516692 
L 317.087647 272.848971 
L 318.972967 272.413623 
L 320.79747 275.519122 
L 322.68279 277.113391 
L 324.56811 273.906618 
L 326.392613 271.418392 
L 328.277933 268.191284 
L 330.102437 269.450281 
L 331.987757 272.008617 
L 333.873077 269.6595 
L 335.575947 265.588025 
L 337.461267 262.882767 
L 339.28577 259.562703 
L 341.17109 257.440351 
L 342.995593 252.854186 
L 344.880913 254.619501 
L 346.766233 250.435134 
L 348.590737 250.742847 
L 350.476057 249.891338 
L 354.18588 241.685814 
L 356.0712 240.924346 
L 357.77407 239.168808 
L 359.65939 238.808269 
L 361.483893 235.166683 
L 363.369213 236.298647 
L 367.079036 228.846293 
L 368.964356 227.052934 
L 370.78886 227.719883 
L 372.67418 226.10173 
L 374.498683 229.947935 
L 376.384003 221.313962 
L 378.269323 220.692564 
L 379.972193 222.667914 
L 381.857513 219.144693 
L 383.682016 220.733664 
L 385.567336 217.768936 
L 387.39184 217.449923 
L 389.27716 217.762375 
L 391.16248 219.004617 
L 392.986983 222.03996 
L 394.872303 230.4911 
L 396.696806 222.554561 
L 398.582126 219.786158 
L 400.467446 222.297681 
L 402.231133 232.003159 
L 404.116453 232.343007 
L 405.940956 223.913284 
L 407.826276 219.145405 
L 409.65078 220.794605 
L 411.5361 217.71724 
L 413.42142 212.737011 
L 415.245923 212.597395 
L 417.131243 214.859457 
L 418.955746 215.817233 
L 420.841066 212.895815 
L 422.726386 206.548512 
L 424.429256 204.517244 
L 426.314576 199.27455 
L 428.139079 197.696058 
L 430.024399 196.96656 
L 431.848903 194.722925 
L 433.734223 190.687016 
L 435.619543 191.513375 
L 437.444046 190.407085 
L 443.039189 180.259343 
L 444.92451 174.358084 
L 446.627379 165.034101 
L 448.512699 172.490799 
L 450.337203 171.823075 
L 452.222523 176.89175 
L 455.932346 167.056425 
L 457.817666 164.262516 
L 459.642169 159.057627 
L 461.527489 157.321667 
L 463.351993 168.018096 
L 465.237313 171.275926 
L 467.122633 182.088123 
L 468.825502 178.433908 
L 470.710822 165.49267 
L 472.535326 162.851496 
L 474.420646 154.55224 
L 476.245149 159.814117 
L 478.130469 156.120799 
L 480.015789 149.164272 
L 481.840292 157.018427 
L 483.725613 150.524822 
L 485.550116 151.963941 
L 487.435436 140.944661 
L 489.320756 135.926074 
L 491.084442 126.680826 
L 492.969762 127.211732 
L 494.794266 175.674823 
L 496.679586 167.235814 
L 498.504089 155.080596 
L 500.389409 141.464681 
L 502.274729 132.802458 
L 504.099232 118.799378 
L 505.984552 123.38236 
L 507.809056 117.377595 
L 511.579696 95.453002 
L 513.282566 87.977875 
L 515.167886 80.899938 
L 516.992389 78.914987 
L 518.877709 61.137556 
L 520.702212 58.851563 
L 522.587532 52.097528 
L 524.472852 42.965815 
L 526.297356 37.056956 
L 528.182676 40.559065 
L 530.007179 36.709457 
L 531.892499 19.999954 
L 533.777819 18.72 
L 535.480689 29.001155 
L 537.366009 38.334126 
L 539.190512 42.910191 
L 541.075832 41.718573 
L 542.900335 69.27393 
L 544.785655 81.899122 
L 546.670975 78.782929 
L 548.495479 58.342884 
L 550.380799 84.323593 
L 552.205302 93.516972 
L 554.090622 78.587579 
L 555.975942 78.215476 
L 557.678812 74.63935 
L 559.564132 67.318396 
L 561.388635 76.395595 
L 563.273955 59.730496 
L 565.098459 62.657752 
L 566.983779 45.531254 
L 568.869099 33.536038 
L 570.693602 40.741595 
L 572.578922 43.459572 
L 574.403425 54.617079 
L 576.288745 35.961994 
L 576.288745 35.961994 
" clip-path="url(#p171c7c3524)" style="fill: none; stroke: #ff0000; stroke-linecap: square"/>
   </g>
   <g id="patch_3">
    <path d="M 43.652382 336.24 
L 43.652382 3.6 
" style="fill: none; stroke: #000000; stroke-width: 0.5; stroke-linejoin: miter; stroke-linecap: square"/>
   </g>
   <g id="patch_4">
    <path d="M 601.652382 336.24 
L 601.652382 3.6 
" style="fill: none; stroke: #000000; stroke-width: 0.5; stroke-linejoin: miter; stroke-linecap: square"/>
   </g>
   <g id="patch_5">
    <path d="M 43.652382 336.24 
L 601.652382 336.24 
" style="fill: none; stroke: #000000; stroke-width: 0.5; stroke-linejoin: miter; stroke-linecap: square"/>
   </g>
   <g id="patch_6">
    <path d="M 43.652382 3.6 
L 601.652382 3.6 
" style="fill: none; stroke: #000000; stroke-width: 0.5; stroke-linejoin: miter; stroke-linecap: square"/>
   </g>
   <g id="legend_1">
    <g id="line2d_141">
     <path d="M 56.252382 21.1 
L 70.252382 21.1 
L 84.252382 21.1 
" style="fill: none; stroke-dasharray: 3.7,1.6; stroke-dashoffset: 0; stroke: #000000"/>
    </g>
    <g id="text_15">
     <!-- SP 500 -->
     <g transform="translate(95.452382 26) scale(0.14 -0.14)">
      <defs>
       <path id="CMR17-53" d="M 2803 4351 
C 2803 4467 2797 4473 2758 4473 
C 2720 4473 2707 4447 2682 4390 
L 2490 3965 
C 2246 4320 1875 4480 1472 4480 
C 819 4480 294 3958 294 3301 
C 294 3101 339 2817 557 2546 
C 794 2250 1018 2198 1530 2063 
C 1722 2011 2042 1927 2106 1901 
C 2470 1747 2662 1360 2662 999 
C 2662 534 2336 38 1779 38 
C 1094 38 454 425 410 1328 
C 403 1431 397 1437 352 1437 
C 301 1437 294 1431 294 1302 
L 294 0 
C 294 -116 301 -122 339 -122 
C 384 -122 397 -90 486 109 
C 493 128 493 141 614 386 
C 934 -39 1472 -128 1779 -128 
C 2477 -128 2970 457 2970 1141 
C 2970 1476 2848 1734 2778 1850 
C 2509 2263 2221 2340 1914 2417 
C 1869 2437 1856 2437 1498 2527 
C 1152 2617 1005 2662 845 2836 
C 666 3036 602 3243 602 3449 
C 602 3868 934 4326 1478 4326 
C 2157 4326 2579 3842 2675 3036 
C 2694 2920 2701 2914 2746 2914 
C 2803 2914 2803 2933 2803 3043 
L 2803 4351 
z
" transform="scale(0.015625)"/>
       <path id="CMR17-50" d="M 1267 2048 
L 2291 2048 
C 3117 2048 3718 2583 3718 3187 
C 3718 3791 3130 4352 2291 4352 
L 333 4352 
L 333 4185 
C 774 4185 845 4185 845 3899 
L 845 453 
C 845 166 774 166 333 166 
L 333 0 
C 518 12 858 12 1056 12 
C 1254 12 1594 12 1779 0 
L 1779 166 
C 1338 166 1267 166 1267 453 
L 1267 2048 
z
M 1254 2182 
L 1254 3937 
C 1254 4153 1267 4185 1523 4185 
L 2170 4185 
C 2995 4185 3232 3715 3232 3187 
C 3232 2608 2950 2182 2170 2182 
L 1254 2182 
z
" transform="scale(0.015625)"/>
      </defs>
      <use xlink:href="#CMR17-53" transform="scale(0.996264)"/>
      <use xlink:href="#CMR17-50" transform="translate(50.89537 0) scale(0.996264)"/>
      <use xlink:href="#CMR17-35" transform="translate(143.557637 0) scale(0.996264)"/>
      <use xlink:href="#CMR17-30" transform="translate(189.248114 0) scale(0.996264)"/>
      <use xlink:href="#CMR17-30" transform="translate(234.938591 0) scale(0.996264)"/>
     </g>
    </g>
    <g id="line2d_142">
     <path d="M 56.252382 40.612028 
L 70.252382 40.612028 
L 84.252382 40.612028 
" style="fill: none; stroke: #ff0000; stroke-linecap: square"/>
    </g>
    <g id="text_16">
     <!-- SVR forecast -->
     <g transform="translate(95.452382 45.512028) scale(0.14 -0.14)">
      <defs>
       <path id="CMR17-56" d="M 3776 3762 
C 3834 3903 3936 4179 4365 4185 
L 4365 4352 
C 4218 4339 4051 4339 3891 4339 
C 3738 4339 3475 4339 3328 4352 
L 3328 4185 
C 3648 4166 3661 3942 3661 3903 
C 3661 3833 3642 3788 3622 3737 
L 2362 448 
L 1043 3903 
C 1024 3948 1011 3980 1011 4012 
C 1011 4185 1267 4185 1402 4185 
L 1402 4352 
C 1197 4339 896 4339 685 4339 
C 518 4339 218 4339 64 4352 
L 64 4185 
C 435 4185 506 4160 582 3955 
L 2106 -26 
C 2138 -116 2144 -128 2214 -128 
C 2285 -128 2291 -116 2323 -26 
L 3776 3762 
z
" transform="scale(0.015625)"/>
       <path id="CMR17-52" d="M 2509 2156 
C 3117 2278 3629 2689 3629 3203 
C 3629 3806 2950 4352 2054 4352 
L 333 4352 
L 333 4185 
C 774 4185 845 4185 845 3896 
L 845 428 
C 845 140 774 140 333 140 
L 333 -26 
C 518 -13 851 -13 1050 -13 
C 1248 -13 1581 -13 1766 -26 
L 1766 140 
C 1325 140 1254 140 1254 428 
L 1254 2112 
L 2003 2112 
C 2368 2112 2573 1964 2662 1881 
C 2918 1632 2918 1459 2918 1024 
C 2918 595 2918 377 3110 160 
C 3354 -103 3680 -128 3821 -128 
C 4294 -128 4365 403 4365 512 
C 4365 550 4365 595 4307 595 
C 4256 595 4250 556 4250 531 
C 4218 115 4032 -26 3834 -26 
C 3482 -26 3443 377 3405 768 
C 3386 902 3373 998 3360 1139 
C 3322 1459 3270 1926 2509 2156 
z
M 1984 2214 
L 1254 2214 
L 1254 3935 
C 1254 4153 1267 4185 1523 4185 
L 1990 4185 
C 2522 4185 3142 3999 3142 3203 
C 3142 2374 2464 2214 1984 2214 
z
" transform="scale(0.015625)"/>
       <path id="CMR17-66" d="M 979 2585 
L 1709 2585 
L 1709 2752 
L 966 2752 
L 966 3539 
C 966 4076 1235 4377 1510 4377 
C 1594 4377 1690 4363 1754 4339 
C 1702 4326 1568 4281 1568 4121 
C 1568 3955 1696 3904 1786 3904 
C 1875 3904 2003 3955 2003 4121 
C 2003 4353 1773 4480 1517 4480 
C 1152 4480 653 4211 653 3526 
L 653 2752 
L 141 2752 
L 141 2585 
L 653 2585 
L 653 441 
C 653 198 627 166 218 166 
L 218 0 
C 371 12 666 12 832 12 
C 1018 12 1344 12 1517 0 
L 1517 166 
C 1056 166 979 166 979 454 
L 979 2585 
z
" transform="scale(0.015625)"/>
       <path id="CMR17-6f" d="M 2758 1356 
C 2758 2176 2163 2816 1466 2816 
C 768 2816 173 2176 173 1356 
C 173 550 768 -64 1466 -64 
C 2163 -64 2758 550 2758 1356 
z
M 1466 51 
C 1165 51 909 230 762 480 
C 602 768 582 1126 582 1408 
C 582 1676 595 2009 762 2297 
C 890 2508 1139 2713 1466 2713 
C 1754 2713 1997 2553 2150 2329 
C 2349 2028 2349 1606 2349 1408 
C 2349 1158 2336 774 2163 467 
C 1984 172 1709 51 1466 51 
z
" transform="scale(0.015625)"/>
       <path id="CMR17-72" d="M 960 1517 
C 960 2134 1222 2713 1702 2713 
C 1747 2713 1792 2707 1837 2687 
C 1837 2687 1696 2642 1696 2475 
C 1696 2321 1818 2257 1914 2257 
C 1990 2257 2131 2302 2131 2482 
C 2131 2687 1926 2816 1709 2816 
C 1222 2816 1011 2340 947 2115 
L 941 2115 
L 941 2816 
L 198 2745 
L 198 2578 
C 576 2578 634 2540 634 2231 
L 634 443 
C 634 198 608 166 198 166 
L 198 0 
C 352 12 646 12 813 12 
C 998 12 1325 12 1498 0 
L 1498 166 
C 1037 166 960 166 960 455 
L 960 1517 
z
" transform="scale(0.015625)"/>
       <path id="CMR17-65" d="M 2438 1503 
C 2464 1529 2464 1542 2464 1606 
C 2464 2251 2118 2816 1389 2816 
C 710 2816 173 2175 173 1394 
C 173 554 781 -64 1459 -64 
C 2176 -64 2458 619 2458 755 
C 2458 800 2419 800 2406 800 
C 2362 800 2355 787 2330 709 
C 2189 270 1837 51 1504 51 
C 1229 51 954 206 781 490 
C 582 819 582 1200 582 1503 
L 2438 1503 
z
M 589 1600 
C 634 2511 1126 2713 1382 2713 
C 1818 2713 2112 2308 2118 1600 
L 589 1600 
z
" transform="scale(0.015625)"/>
       <path id="CMR17-63" d="M 2234 2240 
C 2112 2240 1933 2240 1933 2015 
C 1933 1836 2080 1785 2163 1785 
C 2208 1785 2394 1804 2394 2028 
C 2394 2476 1958 2816 1466 2816 
C 787 2816 211 2201 211 1379 
C 211 521 813 -64 1466 -64 
C 2259 -64 2458 676 2458 747 
C 2458 773 2451 792 2406 792 
C 2362 792 2355 786 2330 702 
C 2163 180 1798 51 1523 51 
C 1114 51 621 431 621 1385 
C 621 2358 1094 2700 1472 2700 
C 1722 2700 2093 2582 2234 2240 
z
" transform="scale(0.015625)"/>
       <path id="CMR17-61" d="M 2304 1656 
C 2304 2048 2304 2275 2035 2534 
C 1798 2751 1523 2816 1306 2816 
C 800 2816 435 2408 435 1977 
C 435 1740 627 1728 666 1728 
C 749 1728 896 1779 896 1958 
C 896 2118 774 2188 666 2188 
C 640 2188 608 2182 589 2176 
C 723 2594 1069 2713 1293 2713 
C 1613 2713 1965 2421 1965 1875 
L 1965 1632 
C 1587 1619 1133 1568 774 1373 
C 371 1147 256 822 256 576 
C 256 77 832 -64 1171 -64 
C 1523 -64 1850 135 1990 505 
C 2003 219 2182 -39 2464 -39 
C 2598 -39 2938 51 2938 563 
L 2938 926 
L 2822 926 
L 2822 557 
C 2822 161 2650 109 2566 109 
C 2304 109 2304 446 2304 732 
L 2304 1656 
z
M 1965 887 
C 1965 323 1568 38 1216 38 
C 896 38 646 278 646 576 
C 646 771 730 1114 1101 1322 
C 1408 1497 1760 1523 1965 1536 
L 1965 887 
z
" transform="scale(0.015625)"/>
       <path id="CMR17-73" d="M 1978 2688 
C 1978 2803 1971 2809 1933 2809 
C 1907 2809 1901 2803 1824 2707 
C 1805 2681 1747 2617 1728 2592 
C 1523 2809 1235 2816 1126 2816 
C 416 2816 160 2444 160 2073 
C 160 1497 813 1363 998 1324 
C 1402 1241 1542 1216 1677 1100 
C 1760 1024 1901 883 1901 652 
C 1901 384 1747 38 1158 38 
C 602 38 403 460 288 1024 
C 269 1113 269 1120 218 1120 
C 166 1120 160 1113 160 985 
L 160 64 
C 160 -52 166 -58 205 -58 
C 237 -58 243 -52 275 0 
C 314 57 410 211 448 275 
C 576 102 800 -64 1158 -64 
C 1792 -64 2131 281 2131 780 
C 2131 1107 1958 1280 1875 1356 
C 1683 1555 1459 1600 1190 1651 
C 838 1728 390 1817 390 2208 
C 390 2374 480 2726 1126 2726 
C 1811 2726 1850 2086 1862 1881 
C 1869 1849 1901 1843 1920 1843 
C 1978 1843 1978 1862 1978 1971 
L 1978 2688 
z
" transform="scale(0.015625)"/>
       <path id="CMR17-74" d="M 966 2585 
L 1862 2585 
L 1862 2752 
L 966 2752 
L 966 3968 
L 851 3968 
C 838 3292 614 2700 70 2687 
L 70 2585 
L 627 2585 
L 627 778 
C 627 655 627 -64 1370 -64 
C 1747 -64 1965 308 1965 784 
L 1965 1151 
L 1850 1151 
L 1850 790 
C 1850 347 1677 51 1408 51 
C 1222 51 966 179 966 765 
L 966 2585 
z
" transform="scale(0.015625)"/>
      </defs>
      <use xlink:href="#CMR17-53" transform="scale(0.996264)"/>
      <use xlink:href="#CMR17-56" transform="translate(50.89537 0) scale(0.996264)"/>
      <use xlink:href="#CMR17-52" transform="translate(119.9678 0) scale(0.996264)"/>
      <use xlink:href="#CMR17-66" transform="translate(217.834868 0) scale(0.996264)"/>
      <use xlink:href="#CMR17-6f" transform="translate(245.30838 0) scale(0.996264)"/>
      <use xlink:href="#CMR17-72" transform="translate(290.998857 0) scale(0.996264)"/>
      <use xlink:href="#CMR17-65" transform="translate(326.279625 0) scale(0.996264)"/>
      <use xlink:href="#CMR17-63" transform="translate(366.765286 0) scale(0.996264)"/>
      <use xlink:href="#CMR17-61" transform="translate(407.250946 0) scale(0.996264)"/>
      <use xlink:href="#CMR17-73" transform="translate(452.941423 0) scale(0.996264)"/>
      <use xlink:href="#CMR17-74" transform="translate(488.742761 0) scale(0.996264)"/>
     </g>
    </g>
   </g>
  </g>
 </g>
 <defs>
  <clipPath id="p171c7c3524">
   <rect x="43.652382" y="3.6" width="558" height="332.64"/>
  </clipPath>
 </defs>
</svg>
