<?xml version="1.0" encoding="utf-8" standalone="no"?>
<!DOCTYPE svg PUBLIC "-//W3C//DTD SVG 1.1//EN"
  "http://www.w3.org/Graphics/SVG/1.1/DTD/svg11.dtd">
<svg xmlns:xlink="http://www.w3.org/1999/xlink" width="605.252382pt" height="361.05263pt" viewBox="0 0 605.252382 361.05263" xmlns="http://www.w3.org/2000/svg" version="1.1">
 <metadata>
  <rdf:RDF xmlns:dc="http://purl.org/dc/elements/1.1/" xmlns:cc="http://creativecommons.org/ns#" xmlns:rdf="http://www.w3.org/1999/02/22-rdf-syntax-ns#">
   <cc:Work>
    <dc:type rdf:resource="http://purl.org/dc/dcmitype/StillImage"/>
    <dc:date>2025-04-08T14:00:27.214602</dc:date>
    <dc:format>image/svg+xml</dc:format>
    <dc:creator>
     <cc:Agent>
      <dc:title>Matplotlib v3.9.2, https://matplotlib.org/</dc:title>
     </cc:Agent>
    </dc:creator>
   </cc:Work>
  </rdf:RDF>
 </metadata>
 <defs>
  <style type="text/css">*{stroke-linejoin: round; stroke-linecap: butt}</style>
 </defs>
 <g id="figure_1">
  <g id="patch_1">
   <path d="M 0 361.05263 
L 605.252382 361.05263 
L 605.252382 0 
L 0 0 
z
" style="fill: #ffffff"/>
  </g>
  <g id="axes_1">
   <g id="patch_2">
    <path d="M 43.652382 336.24 
L 601.652382 336.24 
L 601.652382 3.6 
L 43.652382 3.6 
z
" style="fill: #ffffff"/>
   </g>
   <g id="matplotlib.axis_1">
    <g id="xtick_1">
     <g id="line2d_1">
      <defs>
       <path id="maec326949f" d="M 0 0 
L 0 -3 
" style="stroke: #000000; stroke-width: 0.5"/>
      </defs>
      <g>
       <use xlink:href="#maec326949f" x="132.083015" y="336.24" style="stroke: #000000; stroke-width: 0.5"/>
      </g>
     </g>
     <g id="line2d_2">
      <defs>
       <path id="mae2349745e" d="M 0 0 
L 0 3 
" style="stroke: #000000; stroke-width: 0.5"/>
      </defs>
      <g>
       <use xlink:href="#mae2349745e" x="132.083015" y="3.6" style="stroke: #000000; stroke-width: 0.5"/>
      </g>
     </g>
     <g id="text_1">
      <!-- $\mathdefault{2004}$ -->
      <g transform="translate(113.806824 353.576997) scale(0.2 -0.2)">
       <defs>
        <path id="CMR17-32" d="M 2669 990 
L 2554 990 
C 2490 537 2438 460 2413 422 
C 2381 371 1920 371 1830 371 
L 602 371 
C 832 620 1280 1073 1824 1596 
C 2214 1966 2669 2400 2669 3033 
C 2669 3788 2067 4224 1395 4224 
C 691 4224 262 3603 262 3027 
C 262 2777 448 2745 525 2745 
C 589 2745 781 2783 781 3007 
C 781 3206 614 3264 525 3264 
C 486 3264 448 3257 422 3244 
C 544 3788 915 4057 1306 4057 
C 1862 4057 2227 3616 2227 3033 
C 2227 2477 1901 1998 1536 1583 
L 262 147 
L 262 0 
L 2515 0 
L 2669 990 
z
" transform="scale(0.015625)"/>
        <path id="CMR17-30" d="M 2688 2038 
C 2688 2430 2682 3099 2413 3613 
C 2176 4063 1798 4224 1466 4224 
C 1158 4224 768 4082 525 3620 
C 269 3137 243 2539 243 2038 
C 243 1671 250 1112 448 623 
C 723 -39 1216 -128 1466 -128 
C 1760 -128 2208 -7 2470 604 
C 2662 1048 2688 1568 2688 2038 
z
M 1466 -26 
C 1056 -26 813 328 723 816 
C 653 1196 653 1749 653 2109 
C 653 2604 653 3015 736 3407 
C 858 3954 1216 4121 1466 4121 
C 1728 4121 2067 3947 2189 3420 
C 2272 3054 2278 2623 2278 2109 
C 2278 1691 2278 1176 2202 797 
C 2067 96 1690 -26 1466 -26 
z
" transform="scale(0.015625)"/>
        <path id="CMR17-34" d="M 2150 4147 
C 2150 4281 2144 4288 2029 4288 
L 128 1254 
L 128 1088 
L 1779 1088 
L 1779 460 
C 1779 230 1766 166 1318 166 
L 1197 166 
L 1197 0 
C 1402 12 1747 12 1965 12 
C 2182 12 2528 12 2733 0 
L 2733 166 
L 2611 166 
C 2163 166 2150 230 2150 460 
L 2150 1088 
L 2803 1088 
L 2803 1254 
L 2150 1254 
L 2150 4147 
z
M 1798 3723 
L 1798 1254 
L 256 1254 
L 1798 3723 
z
" transform="scale(0.015625)"/>
       </defs>
       <use xlink:href="#CMR17-32" transform="scale(0.996264)"/>
       <use xlink:href="#CMR17-30" transform="translate(45.690477 0) scale(0.996264)"/>
       <use xlink:href="#CMR17-30" transform="translate(91.380954 0) scale(0.996264)"/>
       <use xlink:href="#CMR17-34" transform="translate(137.071431 0) scale(0.996264)"/>
      </g>
     </g>
    </g>
    <g id="xtick_2">
     <g id="line2d_3">
      <g>
       <use xlink:href="#maec326949f" x="220.936324" y="336.24" style="stroke: #000000; stroke-width: 0.5"/>
      </g>
     </g>
     <g id="line2d_4">
      <g>
       <use xlink:href="#mae2349745e" x="220.936324" y="3.6" style="stroke: #000000; stroke-width: 0.5"/>
      </g>
     </g>
     <g id="text_2">
      <!-- $\mathdefault{2008}$ -->
      <g transform="translate(202.660133 353.576997) scale(0.2 -0.2)">
       <defs>
        <path id="CMR17-38" d="M 1741 2289 
C 2144 2494 2554 2803 2554 3298 
C 2554 3884 1990 4224 1472 4224 
C 890 4224 378 3800 378 3215 
C 378 3054 416 2777 666 2533 
C 730 2469 998 2276 1171 2154 
C 883 2006 211 1652 211 945 
C 211 282 838 -128 1459 -128 
C 2144 -128 2720 366 2720 1022 
C 2720 1607 2330 1877 2074 2051 
L 1741 2289 
z
M 902 2855 
C 851 2887 595 3086 595 3388 
C 595 3781 998 4076 1459 4076 
C 1965 4076 2336 3716 2336 3298 
C 2336 2700 1670 2359 1638 2359 
C 1632 2359 1626 2359 1574 2398 
L 902 2855 
z
M 2080 1536 
C 2176 1466 2483 1253 2483 861 
C 2483 385 2010 25 1472 25 
C 890 25 448 443 448 951 
C 448 1459 838 1884 1280 2083 
L 2080 1536 
z
" transform="scale(0.015625)"/>
       </defs>
       <use xlink:href="#CMR17-32" transform="scale(0.996264)"/>
       <use xlink:href="#CMR17-30" transform="translate(45.690477 0) scale(0.996264)"/>
       <use xlink:href="#CMR17-30" transform="translate(91.380954 0) scale(0.996264)"/>
       <use xlink:href="#CMR17-38" transform="translate(137.071431 0) scale(0.996264)"/>
      </g>
     </g>
    </g>
    <g id="xtick_3">
     <g id="line2d_5">
      <g>
       <use xlink:href="#maec326949f" x="309.789634" y="336.24" style="stroke: #000000; stroke-width: 0.5"/>
      </g>
     </g>
     <g id="line2d_6">
      <g>
       <use xlink:href="#mae2349745e" x="309.789634" y="3.6" style="stroke: #000000; stroke-width: 0.5"/>
      </g>
     </g>
     <g id="text_3">
      <!-- $\mathdefault{2012}$ -->
      <g transform="translate(291.513443 353.576997) scale(0.2 -0.2)">
       <defs>
        <path id="CMR17-31" d="M 1702 4083 
C 1702 4217 1696 4224 1606 4224 
C 1357 3927 979 3833 621 3820 
C 602 3820 570 3820 563 3808 
C 557 3795 557 3782 557 3648 
C 755 3648 1088 3686 1344 3839 
L 1344 467 
C 1344 243 1331 166 781 166 
L 589 166 
L 589 0 
C 896 6 1216 12 1523 12 
C 1830 12 2150 6 2458 0 
L 2458 166 
L 2266 166 
C 1715 166 1702 236 1702 467 
L 1702 4083 
z
" transform="scale(0.015625)"/>
       </defs>
       <use xlink:href="#CMR17-32" transform="scale(0.996264)"/>
       <use xlink:href="#CMR17-30" transform="translate(45.690477 0) scale(0.996264)"/>
       <use xlink:href="#CMR17-31" transform="translate(91.380954 0) scale(0.996264)"/>
       <use xlink:href="#CMR17-32" transform="translate(137.071431 0) scale(0.996264)"/>
      </g>
     </g>
    </g>
    <g id="xtick_4">
     <g id="line2d_7">
      <g>
       <use xlink:href="#maec326949f" x="398.642943" y="336.24" style="stroke: #000000; stroke-width: 0.5"/>
      </g>
     </g>
     <g id="line2d_8">
      <g>
       <use xlink:href="#mae2349745e" x="398.642943" y="3.6" style="stroke: #000000; stroke-width: 0.5"/>
      </g>
     </g>
     <g id="text_4">
      <!-- $\mathdefault{2016}$ -->
      <g transform="translate(380.366752 353.576997) scale(0.2 -0.2)">
       <defs>
        <path id="CMR17-36" d="M 678 2198 
C 678 3712 1395 4076 1811 4076 
C 1946 4076 2272 4049 2400 3782 
C 2298 3782 2106 3782 2106 3558 
C 2106 3385 2246 3328 2336 3328 
C 2394 3328 2566 3353 2566 3571 
C 2566 3987 2246 4224 1805 4224 
C 1043 4224 243 3411 243 2011 
C 243 257 966 -128 1478 -128 
C 2099 -128 2688 431 2688 1295 
C 2688 2101 2170 2688 1517 2688 
C 1126 2688 838 2430 678 1979 
L 678 2198 
z
M 1478 25 
C 691 25 691 1212 691 1450 
C 691 1914 909 2585 1504 2585 
C 1613 2585 1926 2585 2138 2140 
C 2253 1889 2253 1624 2253 1302 
C 2253 954 2253 696 2118 438 
C 1978 173 1773 25 1478 25 
z
" transform="scale(0.015625)"/>
       </defs>
       <use xlink:href="#CMR17-32" transform="scale(0.996264)"/>
       <use xlink:href="#CMR17-30" transform="translate(45.690477 0) scale(0.996264)"/>
       <use xlink:href="#CMR17-31" transform="translate(91.380954 0) scale(0.996264)"/>
       <use xlink:href="#CMR17-36" transform="translate(137.071431 0) scale(0.996264)"/>
      </g>
     </g>
    </g>
    <g id="xtick_5">
     <g id="line2d_9">
      <g>
       <use xlink:href="#maec326949f" x="487.496253" y="336.24" style="stroke: #000000; stroke-width: 0.5"/>
      </g>
     </g>
     <g id="line2d_10">
      <g>
       <use xlink:href="#mae2349745e" x="487.496253" y="3.6" style="stroke: #000000; stroke-width: 0.5"/>
      </g>
     </g>
     <g id="text_5">
      <!-- $\mathdefault{2020}$ -->
      <g transform="translate(469.220062 353.576997) scale(0.2 -0.2)">
       <use xlink:href="#CMR17-32" transform="scale(0.996264)"/>
       <use xlink:href="#CMR17-30" transform="translate(45.690477 0) scale(0.996264)"/>
       <use xlink:href="#CMR17-32" transform="translate(91.380954 0) scale(0.996264)"/>
       <use xlink:href="#CMR17-30" transform="translate(137.071431 0) scale(0.996264)"/>
      </g>
     </g>
    </g>
    <g id="xtick_6">
     <g id="line2d_11">
      <g>
       <use xlink:href="#maec326949f" x="576.349562" y="336.24" style="stroke: #000000; stroke-width: 0.5"/>
      </g>
     </g>
     <g id="line2d_12">
      <g>
       <use xlink:href="#mae2349745e" x="576.349562" y="3.6" style="stroke: #000000; stroke-width: 0.5"/>
      </g>
     </g>
     <g id="text_6">
      <!-- $\mathdefault{2024}$ -->
      <g transform="translate(558.073371 353.576997) scale(0.2 -0.2)">
       <use xlink:href="#CMR17-32" transform="scale(0.996264)"/>
       <use xlink:href="#CMR17-30" transform="translate(45.690477 0) scale(0.996264)"/>
       <use xlink:href="#CMR17-32" transform="translate(91.380954 0) scale(0.996264)"/>
       <use xlink:href="#CMR17-34" transform="translate(137.071431 0) scale(0.996264)"/>
      </g>
     </g>
    </g>
    <g id="xtick_7">
     <g id="line2d_13">
      <defs>
       <path id="m2554087195" d="M 0 0 
L 0 -1.5 
" style="stroke: #000000; stroke-width: 0.5"/>
      </defs>
      <g>
       <use xlink:href="#m2554087195" x="65.443032" y="336.24" style="stroke: #000000; stroke-width: 0.5"/>
      </g>
     </g>
     <g id="line2d_14">
      <defs>
       <path id="m0a666e017b" d="M 0 0 
L 0 1.5 
" style="stroke: #000000; stroke-width: 0.5"/>
      </defs>
      <g>
       <use xlink:href="#m0a666e017b" x="65.443032" y="3.6" style="stroke: #000000; stroke-width: 0.5"/>
      </g>
     </g>
    </g>
    <g id="xtick_8">
     <g id="line2d_15">
      <g>
       <use xlink:href="#m2554087195" x="87.65636" y="336.24" style="stroke: #000000; stroke-width: 0.5"/>
      </g>
     </g>
     <g id="line2d_16">
      <g>
       <use xlink:href="#m0a666e017b" x="87.65636" y="3.6" style="stroke: #000000; stroke-width: 0.5"/>
      </g>
     </g>
    </g>
    <g id="xtick_9">
     <g id="line2d_17">
      <g>
       <use xlink:href="#m2554087195" x="109.869687" y="336.24" style="stroke: #000000; stroke-width: 0.5"/>
      </g>
     </g>
     <g id="line2d_18">
      <g>
       <use xlink:href="#m0a666e017b" x="109.869687" y="3.6" style="stroke: #000000; stroke-width: 0.5"/>
      </g>
     </g>
    </g>
    <g id="xtick_10">
     <g id="line2d_19">
      <g>
       <use xlink:href="#m2554087195" x="154.296342" y="336.24" style="stroke: #000000; stroke-width: 0.5"/>
      </g>
     </g>
     <g id="line2d_20">
      <g>
       <use xlink:href="#m0a666e017b" x="154.296342" y="3.6" style="stroke: #000000; stroke-width: 0.5"/>
      </g>
     </g>
    </g>
    <g id="xtick_11">
     <g id="line2d_21">
      <g>
       <use xlink:href="#m2554087195" x="176.509669" y="336.24" style="stroke: #000000; stroke-width: 0.5"/>
      </g>
     </g>
     <g id="line2d_22">
      <g>
       <use xlink:href="#m0a666e017b" x="176.509669" y="3.6" style="stroke: #000000; stroke-width: 0.5"/>
      </g>
     </g>
    </g>
    <g id="xtick_12">
     <g id="line2d_23">
      <g>
       <use xlink:href="#m2554087195" x="198.722997" y="336.24" style="stroke: #000000; stroke-width: 0.5"/>
      </g>
     </g>
     <g id="line2d_24">
      <g>
       <use xlink:href="#m0a666e017b" x="198.722997" y="3.6" style="stroke: #000000; stroke-width: 0.5"/>
      </g>
     </g>
    </g>
    <g id="xtick_13">
     <g id="line2d_25">
      <g>
       <use xlink:href="#m2554087195" x="243.149651" y="336.24" style="stroke: #000000; stroke-width: 0.5"/>
      </g>
     </g>
     <g id="line2d_26">
      <g>
       <use xlink:href="#m0a666e017b" x="243.149651" y="3.6" style="stroke: #000000; stroke-width: 0.5"/>
      </g>
     </g>
    </g>
    <g id="xtick_14">
     <g id="line2d_27">
      <g>
       <use xlink:href="#m2554087195" x="265.362979" y="336.24" style="stroke: #000000; stroke-width: 0.5"/>
      </g>
     </g>
     <g id="line2d_28">
      <g>
       <use xlink:href="#m0a666e017b" x="265.362979" y="3.6" style="stroke: #000000; stroke-width: 0.5"/>
      </g>
     </g>
    </g>
    <g id="xtick_15">
     <g id="line2d_29">
      <g>
       <use xlink:href="#m2554087195" x="287.576306" y="336.24" style="stroke: #000000; stroke-width: 0.5"/>
      </g>
     </g>
     <g id="line2d_30">
      <g>
       <use xlink:href="#m0a666e017b" x="287.576306" y="3.6" style="stroke: #000000; stroke-width: 0.5"/>
      </g>
     </g>
    </g>
    <g id="xtick_16">
     <g id="line2d_31">
      <g>
       <use xlink:href="#m2554087195" x="332.002961" y="336.24" style="stroke: #000000; stroke-width: 0.5"/>
      </g>
     </g>
     <g id="line2d_32">
      <g>
       <use xlink:href="#m0a666e017b" x="332.002961" y="3.6" style="stroke: #000000; stroke-width: 0.5"/>
      </g>
     </g>
    </g>
    <g id="xtick_17">
     <g id="line2d_33">
      <g>
       <use xlink:href="#m2554087195" x="354.216288" y="336.24" style="stroke: #000000; stroke-width: 0.5"/>
      </g>
     </g>
     <g id="line2d_34">
      <g>
       <use xlink:href="#m0a666e017b" x="354.216288" y="3.6" style="stroke: #000000; stroke-width: 0.5"/>
      </g>
     </g>
    </g>
    <g id="xtick_18">
     <g id="line2d_35">
      <g>
       <use xlink:href="#m2554087195" x="376.429616" y="336.24" style="stroke: #000000; stroke-width: 0.5"/>
      </g>
     </g>
     <g id="line2d_36">
      <g>
       <use xlink:href="#m0a666e017b" x="376.429616" y="3.6" style="stroke: #000000; stroke-width: 0.5"/>
      </g>
     </g>
    </g>
    <g id="xtick_19">
     <g id="line2d_37">
      <g>
       <use xlink:href="#m2554087195" x="420.85627" y="336.24" style="stroke: #000000; stroke-width: 0.5"/>
      </g>
     </g>
     <g id="line2d_38">
      <g>
       <use xlink:href="#m0a666e017b" x="420.85627" y="3.6" style="stroke: #000000; stroke-width: 0.5"/>
      </g>
     </g>
    </g>
    <g id="xtick_20">
     <g id="line2d_39">
      <g>
       <use xlink:href="#m2554087195" x="443.069598" y="336.24" style="stroke: #000000; stroke-width: 0.5"/>
      </g>
     </g>
     <g id="line2d_40">
      <g>
       <use xlink:href="#m0a666e017b" x="443.069598" y="3.6" style="stroke: #000000; stroke-width: 0.5"/>
      </g>
     </g>
    </g>
    <g id="xtick_21">
     <g id="line2d_41">
      <g>
       <use xlink:href="#m2554087195" x="465.282925" y="336.24" style="stroke: #000000; stroke-width: 0.5"/>
      </g>
     </g>
     <g id="line2d_42">
      <g>
       <use xlink:href="#m0a666e017b" x="465.282925" y="3.6" style="stroke: #000000; stroke-width: 0.5"/>
      </g>
     </g>
    </g>
    <g id="xtick_22">
     <g id="line2d_43">
      <g>
       <use xlink:href="#m2554087195" x="509.70958" y="336.24" style="stroke: #000000; stroke-width: 0.5"/>
      </g>
     </g>
     <g id="line2d_44">
      <g>
       <use xlink:href="#m0a666e017b" x="509.70958" y="3.6" style="stroke: #000000; stroke-width: 0.5"/>
      </g>
     </g>
    </g>
    <g id="xtick_23">
     <g id="line2d_45">
      <g>
       <use xlink:href="#m2554087195" x="531.922907" y="336.24" style="stroke: #000000; stroke-width: 0.5"/>
      </g>
     </g>
     <g id="line2d_46">
      <g>
       <use xlink:href="#m0a666e017b" x="531.922907" y="3.6" style="stroke: #000000; stroke-width: 0.5"/>
      </g>
     </g>
    </g>
    <g id="xtick_24">
     <g id="line2d_47">
      <g>
       <use xlink:href="#m2554087195" x="554.136235" y="336.24" style="stroke: #000000; stroke-width: 0.5"/>
      </g>
     </g>
     <g id="line2d_48">
      <g>
       <use xlink:href="#m0a666e017b" x="554.136235" y="3.6" style="stroke: #000000; stroke-width: 0.5"/>
      </g>
     </g>
    </g>
    <g id="xtick_25">
     <g id="line2d_49">
      <g>
       <use xlink:href="#m2554087195" x="598.562889" y="336.24" style="stroke: #000000; stroke-width: 0.5"/>
      </g>
     </g>
     <g id="line2d_50">
      <g>
       <use xlink:href="#m0a666e017b" x="598.562889" y="3.6" style="stroke: #000000; stroke-width: 0.5"/>
      </g>
     </g>
    </g>
   </g>
   <g id="matplotlib.axis_2">
    <g id="ytick_1">
     <g id="line2d_51">
      <defs>
       <path id="m6b84b99bd2" d="M 0 0 
L 3 0 
" style="stroke: #000000; stroke-width: 0.5"/>
      </defs>
      <g>
       <use xlink:href="#m6b84b99bd2" x="43.652382" y="289.582394" style="stroke: #000000; stroke-width: 0.5"/>
      </g>
     </g>
     <g id="line2d_52">
      <defs>
       <path id="m79d98ebcd0" d="M 0 0 
L -3 0 
" style="stroke: #000000; stroke-width: 0.5"/>
      </defs>
      <g>
       <use xlink:href="#m79d98ebcd0" x="601.652382" y="289.582394" style="stroke: #000000; stroke-width: 0.5"/>
      </g>
     </g>
     <g id="text_7">
      <!-- $\mathdefault{1000}$ -->
      <g transform="translate(3.6 296.500893) scale(0.2 -0.2)">
       <use xlink:href="#CMR17-31" transform="scale(0.996264)"/>
       <use xlink:href="#CMR17-30" transform="translate(45.690477 0) scale(0.996264)"/>
       <use xlink:href="#CMR17-30" transform="translate(91.380954 0) scale(0.996264)"/>
       <use xlink:href="#CMR17-30" transform="translate(137.071431 0) scale(0.996264)"/>
      </g>
     </g>
    </g>
    <g id="ytick_2">
     <g id="line2d_53">
      <g>
       <use xlink:href="#m6b84b99bd2" x="43.652382" y="217.315232" style="stroke: #000000; stroke-width: 0.5"/>
      </g>
     </g>
     <g id="line2d_54">
      <g>
       <use xlink:href="#m79d98ebcd0" x="601.652382" y="217.315232" style="stroke: #000000; stroke-width: 0.5"/>
      </g>
     </g>
     <g id="text_8">
      <!-- $\mathdefault{2000}$ -->
      <g transform="translate(3.6 224.23373) scale(0.2 -0.2)">
       <use xlink:href="#CMR17-32" transform="scale(0.996264)"/>
       <use xlink:href="#CMR17-30" transform="translate(45.690477 0) scale(0.996264)"/>
       <use xlink:href="#CMR17-30" transform="translate(91.380954 0) scale(0.996264)"/>
       <use xlink:href="#CMR17-30" transform="translate(137.071431 0) scale(0.996264)"/>
      </g>
     </g>
    </g>
    <g id="ytick_3">
     <g id="line2d_55">
      <g>
       <use xlink:href="#m6b84b99bd2" x="43.652382" y="145.04807" style="stroke: #000000; stroke-width: 0.5"/>
      </g>
     </g>
     <g id="line2d_56">
      <g>
       <use xlink:href="#m79d98ebcd0" x="601.652382" y="145.04807" style="stroke: #000000; stroke-width: 0.5"/>
      </g>
     </g>
     <g id="text_9">
      <!-- $\mathdefault{3000}$ -->
      <g transform="translate(3.6 151.966568) scale(0.2 -0.2)">
       <defs>
        <path id="CMR17-33" d="M 1414 2176 
C 1984 2176 2234 1673 2234 1094 
C 2234 322 1824 25 1453 25 
C 1114 25 563 193 390 691 
C 422 678 454 678 486 678 
C 640 678 755 780 755 947 
C 755 1132 614 1216 486 1216 
C 378 1216 211 1164 211 927 
C 211 335 787 -128 1466 -128 
C 2176 -128 2720 432 2720 1087 
C 2720 1718 2208 2176 1600 2246 
C 2086 2347 2554 2776 2554 3353 
C 2554 3856 2048 4224 1472 4224 
C 890 4224 378 3862 378 3347 
C 378 3123 544 3084 627 3084 
C 762 3084 877 3167 877 3334 
C 877 3500 762 3584 627 3584 
C 602 3584 570 3584 544 3571 
C 730 3999 1235 4076 1459 4076 
C 1683 4076 2106 3966 2106 3347 
C 2106 3167 2080 2851 1862 2574 
C 1670 2329 1453 2316 1242 2297 
C 1210 2297 1062 2284 1037 2284 
C 992 2278 966 2272 966 2227 
C 966 2182 973 2176 1101 2176 
L 1414 2176 
z
" transform="scale(0.015625)"/>
       </defs>
       <use xlink:href="#CMR17-33" transform="scale(0.996264)"/>
       <use xlink:href="#CMR17-30" transform="translate(45.690477 0) scale(0.996264)"/>
       <use xlink:href="#CMR17-30" transform="translate(91.380954 0) scale(0.996264)"/>
       <use xlink:href="#CMR17-30" transform="translate(137.071431 0) scale(0.996264)"/>
      </g>
     </g>
    </g>
    <g id="ytick_4">
     <g id="line2d_57">
      <g>
       <use xlink:href="#m6b84b99bd2" x="43.652382" y="72.780907" style="stroke: #000000; stroke-width: 0.5"/>
      </g>
     </g>
     <g id="line2d_58">
      <g>
       <use xlink:href="#m79d98ebcd0" x="601.652382" y="72.780907" style="stroke: #000000; stroke-width: 0.5"/>
      </g>
     </g>
     <g id="text_10">
      <!-- $\mathdefault{4000}$ -->
      <g transform="translate(3.6 79.699406) scale(0.2 -0.2)">
       <use xlink:href="#CMR17-34" transform="scale(0.996264)"/>
       <use xlink:href="#CMR17-30" transform="translate(45.690477 0) scale(0.996264)"/>
       <use xlink:href="#CMR17-30" transform="translate(91.380954 0) scale(0.996264)"/>
       <use xlink:href="#CMR17-30" transform="translate(137.071431 0) scale(0.996264)"/>
      </g>
     </g>
    </g>
    <g id="ytick_5">
     <g id="line2d_59">
      <defs>
       <path id="me7192094a4" d="M 0 0 
L 1.5 0 
" style="stroke: #000000; stroke-width: 0.5"/>
      </defs>
      <g>
       <use xlink:href="#me7192094a4" x="43.652382" y="332.942692" style="stroke: #000000; stroke-width: 0.5"/>
      </g>
     </g>
     <g id="line2d_60">
      <defs>
       <path id="mad0b8dd6cc" d="M 0 0 
L -1.5 0 
" style="stroke: #000000; stroke-width: 0.5"/>
      </defs>
      <g>
       <use xlink:href="#mad0b8dd6cc" x="601.652382" y="332.942692" style="stroke: #000000; stroke-width: 0.5"/>
      </g>
     </g>
    </g>
    <g id="ytick_6">
     <g id="line2d_61">
      <g>
       <use xlink:href="#me7192094a4" x="43.652382" y="318.489259" style="stroke: #000000; stroke-width: 0.5"/>
      </g>
     </g>
     <g id="line2d_62">
      <g>
       <use xlink:href="#mad0b8dd6cc" x="601.652382" y="318.489259" style="stroke: #000000; stroke-width: 0.5"/>
      </g>
     </g>
    </g>
    <g id="ytick_7">
     <g id="line2d_63">
      <g>
       <use xlink:href="#me7192094a4" x="43.652382" y="304.035827" style="stroke: #000000; stroke-width: 0.5"/>
      </g>
     </g>
     <g id="line2d_64">
      <g>
       <use xlink:href="#mad0b8dd6cc" x="601.652382" y="304.035827" style="stroke: #000000; stroke-width: 0.5"/>
      </g>
     </g>
    </g>
    <g id="ytick_8">
     <g id="line2d_65">
      <g>
       <use xlink:href="#me7192094a4" x="43.652382" y="275.128962" style="stroke: #000000; stroke-width: 0.5"/>
      </g>
     </g>
     <g id="line2d_66">
      <g>
       <use xlink:href="#mad0b8dd6cc" x="601.652382" y="275.128962" style="stroke: #000000; stroke-width: 0.5"/>
      </g>
     </g>
    </g>
    <g id="ytick_9">
     <g id="line2d_67">
      <g>
       <use xlink:href="#me7192094a4" x="43.652382" y="260.675529" style="stroke: #000000; stroke-width: 0.5"/>
      </g>
     </g>
     <g id="line2d_68">
      <g>
       <use xlink:href="#mad0b8dd6cc" x="601.652382" y="260.675529" style="stroke: #000000; stroke-width: 0.5"/>
      </g>
     </g>
    </g>
    <g id="ytick_10">
     <g id="line2d_69">
      <g>
       <use xlink:href="#me7192094a4" x="43.652382" y="246.222097" style="stroke: #000000; stroke-width: 0.5"/>
      </g>
     </g>
     <g id="line2d_70">
      <g>
       <use xlink:href="#mad0b8dd6cc" x="601.652382" y="246.222097" style="stroke: #000000; stroke-width: 0.5"/>
      </g>
     </g>
    </g>
    <g id="ytick_11">
     <g id="line2d_71">
      <g>
       <use xlink:href="#me7192094a4" x="43.652382" y="231.768664" style="stroke: #000000; stroke-width: 0.5"/>
      </g>
     </g>
     <g id="line2d_72">
      <g>
       <use xlink:href="#mad0b8dd6cc" x="601.652382" y="231.768664" style="stroke: #000000; stroke-width: 0.5"/>
      </g>
     </g>
    </g>
    <g id="ytick_12">
     <g id="line2d_73">
      <g>
       <use xlink:href="#me7192094a4" x="43.652382" y="202.861799" style="stroke: #000000; stroke-width: 0.5"/>
      </g>
     </g>
     <g id="line2d_74">
      <g>
       <use xlink:href="#mad0b8dd6cc" x="601.652382" y="202.861799" style="stroke: #000000; stroke-width: 0.5"/>
      </g>
     </g>
    </g>
    <g id="ytick_13">
     <g id="line2d_75">
      <g>
       <use xlink:href="#me7192094a4" x="43.652382" y="188.408367" style="stroke: #000000; stroke-width: 0.5"/>
      </g>
     </g>
     <g id="line2d_76">
      <g>
       <use xlink:href="#mad0b8dd6cc" x="601.652382" y="188.408367" style="stroke: #000000; stroke-width: 0.5"/>
      </g>
     </g>
    </g>
    <g id="ytick_14">
     <g id="line2d_77">
      <g>
       <use xlink:href="#me7192094a4" x="43.652382" y="173.954934" style="stroke: #000000; stroke-width: 0.5"/>
      </g>
     </g>
     <g id="line2d_78">
      <g>
       <use xlink:href="#mad0b8dd6cc" x="601.652382" y="173.954934" style="stroke: #000000; stroke-width: 0.5"/>
      </g>
     </g>
    </g>
    <g id="ytick_15">
     <g id="line2d_79">
      <g>
       <use xlink:href="#me7192094a4" x="43.652382" y="159.501502" style="stroke: #000000; stroke-width: 0.5"/>
      </g>
     </g>
     <g id="line2d_80">
      <g>
       <use xlink:href="#mad0b8dd6cc" x="601.652382" y="159.501502" style="stroke: #000000; stroke-width: 0.5"/>
      </g>
     </g>
    </g>
    <g id="ytick_16">
     <g id="line2d_81">
      <g>
       <use xlink:href="#me7192094a4" x="43.652382" y="130.594637" style="stroke: #000000; stroke-width: 0.5"/>
      </g>
     </g>
     <g id="line2d_82">
      <g>
       <use xlink:href="#mad0b8dd6cc" x="601.652382" y="130.594637" style="stroke: #000000; stroke-width: 0.5"/>
      </g>
     </g>
    </g>
    <g id="ytick_17">
     <g id="line2d_83">
      <g>
       <use xlink:href="#me7192094a4" x="43.652382" y="116.141205" style="stroke: #000000; stroke-width: 0.5"/>
      </g>
     </g>
     <g id="line2d_84">
      <g>
       <use xlink:href="#mad0b8dd6cc" x="601.652382" y="116.141205" style="stroke: #000000; stroke-width: 0.5"/>
      </g>
     </g>
    </g>
    <g id="ytick_18">
     <g id="line2d_85">
      <g>
       <use xlink:href="#me7192094a4" x="43.652382" y="101.687772" style="stroke: #000000; stroke-width: 0.5"/>
      </g>
     </g>
     <g id="line2d_86">
      <g>
       <use xlink:href="#mad0b8dd6cc" x="601.652382" y="101.687772" style="stroke: #000000; stroke-width: 0.5"/>
      </g>
     </g>
    </g>
    <g id="ytick_19">
     <g id="line2d_87">
      <g>
       <use xlink:href="#me7192094a4" x="43.652382" y="87.23434" style="stroke: #000000; stroke-width: 0.5"/>
      </g>
     </g>
     <g id="line2d_88">
      <g>
       <use xlink:href="#mad0b8dd6cc" x="601.652382" y="87.23434" style="stroke: #000000; stroke-width: 0.5"/>
      </g>
     </g>
    </g>
    <g id="ytick_20">
     <g id="line2d_89">
      <g>
       <use xlink:href="#me7192094a4" x="43.652382" y="58.327475" style="stroke: #000000; stroke-width: 0.5"/>
      </g>
     </g>
     <g id="line2d_90">
      <g>
       <use xlink:href="#mad0b8dd6cc" x="601.652382" y="58.327475" style="stroke: #000000; stroke-width: 0.5"/>
      </g>
     </g>
    </g>
    <g id="ytick_21">
     <g id="line2d_91">
      <g>
       <use xlink:href="#me7192094a4" x="43.652382" y="43.874042" style="stroke: #000000; stroke-width: 0.5"/>
      </g>
     </g>
     <g id="line2d_92">
      <g>
       <use xlink:href="#mad0b8dd6cc" x="601.652382" y="43.874042" style="stroke: #000000; stroke-width: 0.5"/>
      </g>
     </g>
    </g>
    <g id="ytick_22">
     <g id="line2d_93">
      <g>
       <use xlink:href="#me7192094a4" x="43.652382" y="29.42061" style="stroke: #000000; stroke-width: 0.5"/>
      </g>
     </g>
     <g id="line2d_94">
      <g>
       <use xlink:href="#mad0b8dd6cc" x="601.652382" y="29.42061" style="stroke: #000000; stroke-width: 0.5"/>
      </g>
     </g>
    </g>
    <g id="ytick_23">
     <g id="line2d_95">
      <g>
       <use xlink:href="#me7192094a4" x="43.652382" y="14.967177" style="stroke: #000000; stroke-width: 0.5"/>
      </g>
     </g>
     <g id="line2d_96">
      <g>
       <use xlink:href="#mad0b8dd6cc" x="601.652382" y="14.967177" style="stroke: #000000; stroke-width: 0.5"/>
      </g>
     </g>
    </g>
   </g>
   <g id="line2d_97">
    <path d="M 69.016018 267.486709 
L 70.901338 276.151542 
L 72.725841 275.863196 
L 74.611161 270.043522 
L 78.320985 274.807373 
L 80.206305 276.682706 
L 82.030808 286.356388 
L 83.916128 284.047452 
L 85.740631 280.210789 
L 87.625951 279.108714 
L 89.511272 279.449815 
L 91.214141 282.307259 
L 93.099461 278.468427 
L 94.923965 281.493531 
L 96.809285 283.855222 
L 98.633788 288.569209 
L 100.519108 296.549671 
L 102.404428 295.902158 
L 104.228931 299.13539 
L 106.114251 300.087872 
L 107.938755 296.091498 
L 109.824075 296.86837 
L 111.709395 297.109742 
L 113.412264 301.359774 
L 115.297584 300.666009 
L 119.007408 294.210383 
L 120.831911 290.4496 
L 122.717231 290.121507 
L 124.602551 290.339031 
L 126.427054 288.177521 
L 128.312375 286.783487 
L 130.136878 285.976263 
L 132.022198 283.75477 
L 133.907518 280.00555 
L 135.671204 279.222174 
L 137.556524 280.622711 
L 139.381028 279.944846 
L 141.266348 282.154775 
L 143.090851 279.988206 
L 144.976171 281.932915 
L 146.861491 283.154953 
L 148.685994 281.07944 
L 150.571314 281.11196 
L 152.395818 277.37358 
L 154.281138 275.186053 
L 156.166458 276.472408 
L 157.869328 275.155701 
L 159.754648 275.497524 
L 161.579151 277.699505 
L 163.464471 276.698605 
L 165.288974 274.966361 
L 167.174294 273.52174 
L 170.884118 273.255797 
L 172.769438 275.70999 
L 174.593941 272.428338 
L 176.479261 270.643339 
L 178.364581 269.439368 
L 180.067451 269.589684 
L 181.952771 268.354638 
L 183.777274 267.745426 
L 185.662594 268.624195 
L 187.487097 271.286517 
L 189.372417 270.775588 
L 191.257737 268.830879 
L 193.082241 266.620226 
L 194.967561 263.321953 
L 198.677384 259.488903 
L 200.562704 258.929555 
L 202.265574 257.43796 
L 204.150894 260.173273 
L 205.975397 256.076447 
L 207.860717 252.643757 
L 209.685221 252.423342 
L 211.570541 251.95216 
L 213.455861 256.728297 
L 217.165684 250.582697 
L 218.990187 256.094514 
L 220.875507 254.950525 
L 222.760827 262.210484 
L 224.524514 263.936946 
L 226.409834 266.67804 
L 228.234337 262.809579 
L 230.119657 260.442829 
L 231.944161 264.921225 
L 233.829481 270.985885 
L 235.714801 269.241356 
L 237.539304 273.904033 
L 239.424624 291.83713 
L 241.249127 298.034762 
L 243.134447 298.430786 
L 245.019767 299.296546 
L 246.722637 303.657869 
L 248.607957 307.13392 
L 250.43246 300.556163 
L 252.31778 296.634947 
L 254.142284 294.921492 
L 256.027604 294.220501 
L 257.912924 288.879235 
L 259.737427 286.362892 
L 263.44725 283.217825 
L 265.33257 281.605545 
L 267.217891 280.651618 
L 268.92076 283.139054 
L 270.80608 278.594172 
L 272.630584 275.322638 
L 274.515904 280.544663 
L 276.340407 283.558204 
L 278.225727 283.815475 
L 280.111047 283.274916 
L 281.93555 280.760019 
L 283.82087 277.182795 
L 285.645374 275.209178 
L 291.118883 266.375963 
L 293.004203 267.577766 
L 294.828707 265.625107 
L 296.714027 265.133691 
L 298.53853 268.820761 
L 300.42385 266.081836 
L 302.30917 276.190566 
L 304.133673 277.01658 
L 306.018994 274.607193 
L 307.843497 273.219663 
L 309.728817 271.998348 
L 313.377823 264.108942 
L 315.263143 261.453124 
L 317.087647 261.656195 
L 318.972967 264.91978 
L 320.79747 266.205413 
L 322.68279 263.582115 
L 326.392613 257.537689 
L 328.277933 257.942385 
L 330.102437 261.072276 
L 331.987757 259.064694 
L 333.873077 254.865249 
L 335.575947 252.559204 
L 337.461267 249.775473 
L 339.28577 248.339525 
L 341.17109 243.342973 
L 342.995593 244.865642 
L 344.880913 241.258788 
L 346.766233 241.156891 
L 348.590737 239.922568 
L 350.476057 237.547869 
L 352.30056 232.958182 
L 354.18588 231.206426 
L 356.0712 230.152771 
L 357.77407 230.537232 
L 359.65939 227.178254 
L 361.483893 227.124777 
L 363.369213 225.281241 
L 365.193716 221.138887 
L 367.079036 219.259219 
L 368.964356 220.09535 
L 370.78886 217.804481 
L 372.67418 221.848551 
L 374.498683 214.094284 
L 376.384003 213.393293 
L 378.269323 215.278743 
L 379.972193 211.374871 
L 381.857513 211.534582 
L 385.567336 209.225646 
L 387.39184 210.139825 
L 389.27716 210.512001 
L 391.16248 214.43394 
L 392.986983 221.332563 
L 394.872303 215.522284 
L 396.696806 211.489053 
L 398.582126 213.407024 
L 400.467446 223.197779 
L 402.231133 224.222527 
L 404.116453 215.728968 
L 405.940956 211.85617 
L 407.826276 212.578119 
L 409.65078 211.25274 
L 411.5361 206.554651 
L 413.42142 204.96116 
L 417.131243 206.979582 
L 418.955746 205.391873 
L 420.841066 199.491982 
L 422.726386 197.43309 
L 424.429256 193.473572 
L 426.314576 190.806191 
L 428.139079 191.348918 
L 430.024399 188.744409 
L 431.848903 185.952006 
L 433.734223 184.498713 
L 435.619543 184.345507 
L 437.444046 181.699084 
L 439.329366 177.062422 
L 441.153869 174.416722 
L 443.039189 169.305265 
L 444.92451 160.238627 
L 446.627379 166.35532 
L 448.512699 166.528038 
L 450.337203 170.079247 
L 452.222523 166.62054 
L 454.047026 162.800498 
L 455.932346 159.961121 
L 457.817666 155.323015 
L 459.642169 152.166385 
L 461.527489 160.552267 
L 463.351993 165.049452 
L 465.237313 176.317348 
L 467.122633 173.42088 
L 468.825502 162.763642 
L 470.710822 159.213879 
L 472.535326 152.000171 
L 474.420646 155.547766 
L 476.245149 152.985172 
L 478.130469 145.328926 
L 480.015789 152.455585 
L 481.840292 146.337605 
L 483.725613 146.661073 
L 485.550116 137.466919 
L 487.435436 132.274883 
L 489.320756 124.943138 
L 491.084442 125.007358 
L 492.969762 170.168595 
L 494.794266 162.249444 
L 496.679586 150.857265 
L 498.504089 137.484523 
L 500.389409 130.044027 
L 502.274729 116.740299 
L 504.099232 118.633217 
L 505.984552 114.78971 
L 507.809056 105.373939 
L 509.694376 94.799989 
L 513.282566 81.204938 
L 515.167886 79.248221 
L 516.992389 62.578504 
L 518.877709 60.6509 
L 520.702212 55.545944 
L 522.587532 46.496411 
L 524.472852 39.956702 
L 526.297356 40.582755 
L 528.182676 39.486909 
L 530.007179 24.550767 
L 531.892499 24.016997 
L 533.777819 31.312889 
L 535.480689 41.273832 
L 537.366009 44.50528 
L 539.190512 44.503056 
L 541.075832 69.864204 
L 542.900335 80.083745 
L 544.785655 79.159966 
L 546.670975 61.322006 
L 548.495479 83.583368 
L 550.380799 92.578427 
L 552.205302 78.743774 
L 554.090622 79.112887 
L 555.975942 75.62415 
L 557.678812 67.022317 
L 559.564132 75.05305 
L 561.388635 64.002805 
L 563.273955 62.217386 
L 565.098459 47.821791 
L 566.983779 36.063733 
L 570.693602 43.216772 
L 572.578922 53.312068 
L 574.403425 39.533436 
L 576.288745 23.274179 
L 576.288745 23.274179 
" clip-path="url(#pbb53b4f472)" style="fill: none; stroke-dasharray: 3.7,1.6; stroke-dashoffset: 0; stroke: #000000"/>
   </g>
   <g id="line2d_98">
    <path d="M 69.016018 264.27359 
L 70.901338 266.54392 
L 72.725841 275.190225 
L 74.611161 274.927893 
L 76.435665 266.052274 
L 80.206305 274.677289 
L 82.030808 276.723427 
L 83.916128 285.796444 
L 85.740631 283.126898 
L 87.625951 279.246132 
L 89.511272 278.402294 
L 91.214141 278.959874 
L 93.099461 281.799804 
L 94.923965 277.73189 
L 96.809285 281.061643 
L 98.633788 283.457989 
L 100.519108 287.96776 
L 102.404428 296.133537 
L 104.228931 295.209117 
L 106.114251 298.605 
L 107.938755 299.973349 
L 109.824075 295.210189 
L 111.709395 296.615054 
L 113.412264 296.81345 
L 115.297584 300.996971 
L 117.122088 300.159012 
L 119.007408 297.149371 
L 120.831911 293.584902 
L 122.717231 289.596494 
L 124.602551 289.604753 
L 126.427054 290.031064 
L 128.312375 287.371553 
L 130.136878 286.259322 
L 132.022198 285.374485 
L 133.907518 283.047545 
L 135.671204 278.717116 
L 137.556524 278.493787 
L 139.381028 279.736136 
L 141.266348 279.41944 
L 143.090851 281.964759 
L 144.976171 279.190997 
L 146.861491 281.141174 
L 148.685994 282.351294 
L 150.571314 279.909746 
L 152.395818 280.604572 
L 154.281138 276.324611 
L 156.166458 274.290134 
L 157.869328 276.087533 
L 159.754648 274.319481 
L 161.579151 275.274618 
L 163.464471 276.991546 
L 165.288974 275.669753 
L 167.174294 273.872826 
L 169.059614 273.158966 
L 170.884118 273.043819 
L 172.769438 272.561015 
L 174.593941 275.699769 
L 176.479261 271.527646 
L 178.364581 269.680325 
L 180.067451 268.602858 
L 181.952771 269.358902 
L 183.777274 267.844244 
L 185.662594 267.370464 
L 187.487097 268.011209 
L 189.372417 270.61468 
L 191.257737 270.085329 
L 193.082241 267.511105 
L 194.967561 265.286214 
L 196.792064 262.339126 
L 198.677384 260.251642 
L 200.562704 258.434924 
L 202.265574 258.532666 
L 204.150894 256.422756 
L 205.975397 259.400471 
L 207.860717 255.179091 
L 209.685221 251.634172 
L 211.570541 251.860085 
L 213.455861 251.137 
L 215.280364 255.842257 
L 217.165684 253.078934 
L 218.990187 250.926212 
L 220.875507 255.642545 
L 222.760827 255.308487 
L 224.524514 260.554921 
L 226.409834 263.177503 
L 228.234337 266.111618 
L 230.119657 263.450291 
L 231.944161 260.454154 
L 233.829481 262.939382 
L 235.714801 269.501912 
L 237.539304 269.347436 
L 239.424624 273.005638 
L 241.249127 281.642007 
L 243.134447 321.12 
L 245.019767 297.950958 
L 246.722637 298.803755 
L 248.607957 303.216962 
L 250.43246 306.73561 
L 252.31778 300.103766 
L 254.142284 296.138821 
L 256.027604 294.396548 
L 257.912924 293.690553 
L 259.737427 288.295267 
L 261.622747 285.736683 
L 263.44725 283.917433 
L 267.217891 280.76302 
L 268.92076 279.805131 
L 270.80608 282.623334 
L 272.630584 277.620721 
L 274.515904 274.707466 
L 276.340407 279.707284 
L 278.225727 282.795674 
L 280.111047 282.855166 
L 281.93555 282.227342 
L 283.82087 279.949452 
L 285.645374 275.717921 
L 287.530694 274.919809 
L 291.118883 268.178924 
L 293.004203 265.875067 
L 294.828707 266.662671 
L 296.714027 264.61416 
L 298.53853 263.578216 
L 300.42385 267.965041 
L 302.30917 264.821287 
L 304.133673 275.379305 
L 306.018994 276.239631 
L 307.843497 273.860711 
L 309.728817 272.144288 
L 311.614137 270.878737 
L 313.377823 266.397515 
L 315.263143 262.789637 
L 317.087647 261.084003 
L 318.972967 260.581866 
L 320.79747 263.61314 
L 322.68279 265.119857 
L 324.56811 262.114496 
L 326.392613 259.823831 
L 328.277933 256.581723 
L 330.102437 257.612487 
L 331.987757 260.082633 
L 333.873077 258.159649 
L 335.575947 254.258136 
L 337.461267 251.628201 
L 339.28577 248.522667 
L 341.17109 246.360006 
L 342.995593 242.10437 
L 344.880913 243.755339 
L 346.766233 239.688164 
L 348.590737 240.081801 
L 350.476057 239.146884 
L 354.18588 231.7432 
L 356.0712 230.759803 
L 357.77407 228.918298 
L 359.65939 228.627609 
L 361.483893 225.453993 
L 363.369213 226.153741 
L 367.079036 219.546588 
L 368.964356 217.488611 
L 370.78886 218.093311 
L 372.67418 216.717415 
L 374.498683 220.015031 
L 376.384003 212.042672 
L 378.269323 211.176129 
L 379.972193 213.152641 
L 381.857513 209.826705 
L 383.682016 211.004922 
L 385.567336 208.37944 
L 387.39184 208.351912 
L 389.27716 208.629026 
L 391.16248 209.459552 
L 392.986983 212.491131 
L 394.872303 220.587507 
L 396.696806 213.211549 
L 398.582126 210.66863 
L 400.467446 212.589074 
L 402.231133 221.888546 
L 404.116453 222.442878 
L 405.940956 214.449883 
L 407.826276 209.912201 
L 409.65078 211.475656 
L 411.5361 208.550638 
L 413.42142 203.813561 
L 415.245923 203.846754 
L 417.131243 205.696294 
L 418.955746 206.647817 
L 420.841066 203.832596 
L 422.726386 197.660937 
L 424.429256 195.70417 
L 426.314576 191.417099 
L 428.139079 189.754195 
L 430.024399 188.717973 
L 431.848903 186.805055 
L 433.734223 182.963563 
L 435.619543 183.776509 
L 437.444046 182.352501 
L 439.329366 179.555651 
L 441.153869 176.415037 
L 443.039189 172.800525 
L 444.92451 167.60855 
L 446.627379 158.771238 
L 448.512699 165.261176 
L 450.337203 164.840705 
L 452.222523 169.271609 
L 454.047026 165.269079 
L 455.932346 160.345374 
L 457.817666 157.64231 
L 459.642169 152.903164 
L 461.527489 151.126088 
L 463.351993 160.794131 
L 465.237313 163.971119 
L 467.122633 174.112044 
L 468.825502 170.745759 
L 470.710822 159.058679 
L 472.535326 156.079035 
L 474.420646 148.511463 
L 476.245149 152.861902 
L 478.130469 149.450087 
L 480.015789 142.782757 
L 481.840292 150.396219 
L 483.725613 144.55755 
L 485.550116 145.483122 
L 487.435436 135.843816 
L 489.320756 130.541179 
L 491.084442 121.521542 
L 492.969762 121.756338 
L 494.794266 168.193216 
L 496.679586 160.124702 
L 498.504089 148.513898 
L 500.389409 135.510283 
L 502.274729 127.083776 
L 504.099232 113.881757 
L 505.984552 118.167713 
L 507.809056 112.760612 
L 511.579696 91.777129 
L 513.282566 84.517087 
L 515.167886 77.743613 
L 516.992389 75.962938 
L 518.877709 58.875526 
L 520.702212 57.456367 
L 522.587532 50.678673 
L 524.472852 41.262552 
L 526.297356 36.049713 
L 528.182676 39.908165 
L 530.007179 35.939517 
L 531.892499 20.065928 
L 533.777819 18.72 
L 535.480689 28.480213 
L 537.366009 37.437374 
L 539.190512 41.715369 
L 541.075832 40.352354 
L 542.900335 66.665473 
L 544.785655 78.740873 
L 546.670975 76.074941 
L 548.495479 56.56782 
L 550.380799 81.357136 
L 552.205302 89.892118 
L 554.090622 75.794003 
L 555.975942 74.84923 
L 557.678812 71.574565 
L 559.564132 65.387048 
L 561.388635 73.247397 
L 563.273955 57.71656 
L 565.098459 60.738911 
L 566.983779 44.819045 
L 568.869099 32.937461 
L 570.693602 39.452503 
L 572.578922 42.218836 
L 574.403425 52.95497 
L 576.288745 35.359307 
L 576.288745 35.359307 
" clip-path="url(#pbb53b4f472)" style="fill: none; stroke: #ff0000; stroke-linecap: square"/>
   </g>
   <g id="patch_3">
    <path d="M 43.652382 336.24 
L 43.652382 3.6 
" style="fill: none; stroke: #000000; stroke-width: 0.5; stroke-linejoin: miter; stroke-linecap: square"/>
   </g>
   <g id="patch_4">
    <path d="M 601.652382 336.24 
L 601.652382 3.6 
" style="fill: none; stroke: #000000; stroke-width: 0.5; stroke-linejoin: miter; stroke-linecap: square"/>
   </g>
   <g id="patch_5">
    <path d="M 43.652382 336.24 
L 601.652382 336.24 
" style="fill: none; stroke: #000000; stroke-width: 0.5; stroke-linejoin: miter; stroke-linecap: square"/>
   </g>
   <g id="patch_6">
    <path d="M 43.652382 3.6 
L 601.652382 3.6 
" style="fill: none; stroke: #000000; stroke-width: 0.5; stroke-linejoin: miter; stroke-linecap: square"/>
   </g>
   <g id="legend_1">
    <g id="line2d_99">
     <path d="M 56.252382 21.1 
L 70.252382 21.1 
L 84.252382 21.1 
" style="fill: none; stroke-dasharray: 3.7,1.6; stroke-dashoffset: 0; stroke: #000000"/>
    </g>
    <g id="text_11">
     <!-- SP 500 -->
     <g transform="translate(95.452382 26) scale(0.14 -0.14)">
      <defs>
       <path id="CMR17-53" d="M 2803 4351 
C 2803 4467 2797 4473 2758 4473 
C 2720 4473 2707 4447 2682 4390 
L 2490 3965 
C 2246 4320 1875 4480 1472 4480 
C 819 4480 294 3958 294 3301 
C 294 3101 339 2817 557 2546 
C 794 2250 1018 2198 1530 2063 
C 1722 2011 2042 1927 2106 1901 
C 2470 1747 2662 1360 2662 999 
C 2662 534 2336 38 1779 38 
C 1094 38 454 425 410 1328 
C 403 1431 397 1437 352 1437 
C 301 1437 294 1431 294 1302 
L 294 0 
C 294 -116 301 -122 339 -122 
C 384 -122 397 -90 486 109 
C 493 128 493 141 614 386 
C 934 -39 1472 -128 1779 -128 
C 2477 -128 2970 457 2970 1141 
C 2970 1476 2848 1734 2778 1850 
C 2509 2263 2221 2340 1914 2417 
C 1869 2437 1856 2437 1498 2527 
C 1152 2617 1005 2662 845 2836 
C 666 3036 602 3243 602 3449 
C 602 3868 934 4326 1478 4326 
C 2157 4326 2579 3842 2675 3036 
C 2694 2920 2701 2914 2746 2914 
C 2803 2914 2803 2933 2803 3043 
L 2803 4351 
z
" transform="scale(0.015625)"/>
       <path id="CMR17-50" d="M 1267 2048 
L 2291 2048 
C 3117 2048 3718 2583 3718 3187 
C 3718 3791 3130 4352 2291 4352 
L 333 4352 
L 333 4185 
C 774 4185 845 4185 845 3899 
L 845 453 
C 845 166 774 166 333 166 
L 333 0 
C 518 12 858 12 1056 12 
C 1254 12 1594 12 1779 0 
L 1779 166 
C 1338 166 1267 166 1267 453 
L 1267 2048 
z
M 1254 2182 
L 1254 3937 
C 1254 4153 1267 4185 1523 4185 
L 2170 4185 
C 2995 4185 3232 3715 3232 3187 
C 3232 2608 2950 2182 2170 2182 
L 1254 2182 
z
" transform="scale(0.015625)"/>
       <path id="CMR17-35" d="M 730 3750 
C 794 3724 1056 3641 1325 3641 
C 1920 3641 2246 3961 2432 4140 
C 2432 4191 2432 4224 2394 4224 
C 2387 4224 2374 4224 2323 4198 
C 2099 4102 1837 4032 1517 4032 
C 1325 4032 1037 4055 723 4191 
C 653 4224 640 4224 634 4224 
C 602 4224 595 4217 595 4090 
L 595 2231 
C 595 2113 595 2080 659 2080 
C 691 2080 704 2093 736 2139 
C 941 2435 1222 2560 1542 2560 
C 1766 2560 2246 2415 2246 1293 
C 2246 1087 2246 716 2054 422 
C 1894 159 1645 25 1370 25 
C 947 25 518 319 403 812 
C 429 806 480 793 506 793 
C 589 793 749 838 749 1036 
C 749 1209 627 1280 506 1280 
C 358 1280 262 1190 262 1011 
C 262 454 704 -128 1382 -128 
C 2042 -128 2669 441 2669 1267 
C 2669 2054 2170 2662 1549 2662 
C 1222 2662 947 2540 730 2304 
L 730 3750 
z
" transform="scale(0.015625)"/>
      </defs>
      <use xlink:href="#CMR17-53" transform="scale(0.996264)"/>
      <use xlink:href="#CMR17-50" transform="translate(50.89537 0) scale(0.996264)"/>
      <use xlink:href="#CMR17-35" transform="translate(143.557637 0) scale(0.996264)"/>
      <use xlink:href="#CMR17-30" transform="translate(189.248114 0) scale(0.996264)"/>
      <use xlink:href="#CMR17-30" transform="translate(234.938591 0) scale(0.996264)"/>
     </g>
    </g>
    <g id="line2d_100">
     <path d="M 56.252382 40.612028 
L 70.252382 40.612028 
L 84.252382 40.612028 
" style="fill: none; stroke: #ff0000; stroke-linecap: square"/>
    </g>
    <g id="text_12">
     <!-- SVR forecast -->
     <g transform="translate(95.452382 45.512028) scale(0.14 -0.14)">
      <defs>
       <path id="CMR17-56" d="M 3776 3762 
C 3834 3903 3936 4179 4365 4185 
L 4365 4352 
C 4218 4339 4051 4339 3891 4339 
C 3738 4339 3475 4339 3328 4352 
L 3328 4185 
C 3648 4166 3661 3942 3661 3903 
C 3661 3833 3642 3788 3622 3737 
L 2362 448 
L 1043 3903 
C 1024 3948 1011 3980 1011 4012 
C 1011 4185 1267 4185 1402 4185 
L 1402 4352 
C 1197 4339 896 4339 685 4339 
C 518 4339 218 4339 64 4352 
L 64 4185 
C 435 4185 506 4160 582 3955 
L 2106 -26 
C 2138 -116 2144 -128 2214 -128 
C 2285 -128 2291 -116 2323 -26 
L 3776 3762 
z
" transform="scale(0.015625)"/>
       <path id="CMR17-52" d="M 2509 2156 
C 3117 2278 3629 2689 3629 3203 
C 3629 3806 2950 4352 2054 4352 
L 333 4352 
L 333 4185 
C 774 4185 845 4185 845 3896 
L 845 428 
C 845 140 774 140 333 140 
L 333 -26 
C 518 -13 851 -13 1050 -13 
C 1248 -13 1581 -13 1766 -26 
L 1766 140 
C 1325 140 1254 140 1254 428 
L 1254 2112 
L 2003 2112 
C 2368 2112 2573 1964 2662 1881 
C 2918 1632 2918 1459 2918 1024 
C 2918 595 2918 377 3110 160 
C 3354 -103 3680 -128 3821 -128 
C 4294 -128 4365 403 4365 512 
C 4365 550 4365 595 4307 595 
C 4256 595 4250 556 4250 531 
C 4218 115 4032 -26 3834 -26 
C 3482 -26 3443 377 3405 768 
C 3386 902 3373 998 3360 1139 
C 3322 1459 3270 1926 2509 2156 
z
M 1984 2214 
L 1254 2214 
L 1254 3935 
C 1254 4153 1267 4185 1523 4185 
L 1990 4185 
C 2522 4185 3142 3999 3142 3203 
C 3142 2374 2464 2214 1984 2214 
z
" transform="scale(0.015625)"/>
       <path id="CMR17-66" d="M 979 2585 
L 1709 2585 
L 1709 2752 
L 966 2752 
L 966 3539 
C 966 4076 1235 4377 1510 4377 
C 1594 4377 1690 4363 1754 4339 
C 1702 4326 1568 4281 1568 4121 
C 1568 3955 1696 3904 1786 3904 
C 1875 3904 2003 3955 2003 4121 
C 2003 4353 1773 4480 1517 4480 
C 1152 4480 653 4211 653 3526 
L 653 2752 
L 141 2752 
L 141 2585 
L 653 2585 
L 653 441 
C 653 198 627 166 218 166 
L 218 0 
C 371 12 666 12 832 12 
C 1018 12 1344 12 1517 0 
L 1517 166 
C 1056 166 979 166 979 454 
L 979 2585 
z
" transform="scale(0.015625)"/>
       <path id="CMR17-6f" d="M 2758 1356 
C 2758 2176 2163 2816 1466 2816 
C 768 2816 173 2176 173 1356 
C 173 550 768 -64 1466 -64 
C 2163 -64 2758 550 2758 1356 
z
M 1466 51 
C 1165 51 909 230 762 480 
C 602 768 582 1126 582 1408 
C 582 1676 595 2009 762 2297 
C 890 2508 1139 2713 1466 2713 
C 1754 2713 1997 2553 2150 2329 
C 2349 2028 2349 1606 2349 1408 
C 2349 1158 2336 774 2163 467 
C 1984 172 1709 51 1466 51 
z
" transform="scale(0.015625)"/>
       <path id="CMR17-72" d="M 960 1517 
C 960 2134 1222 2713 1702 2713 
C 1747 2713 1792 2707 1837 2687 
C 1837 2687 1696 2642 1696 2475 
C 1696 2321 1818 2257 1914 2257 
C 1990 2257 2131 2302 2131 2482 
C 2131 2687 1926 2816 1709 2816 
C 1222 2816 1011 2340 947 2115 
L 941 2115 
L 941 2816 
L 198 2745 
L 198 2578 
C 576 2578 634 2540 634 2231 
L 634 443 
C 634 198 608 166 198 166 
L 198 0 
C 352 12 646 12 813 12 
C 998 12 1325 12 1498 0 
L 1498 166 
C 1037 166 960 166 960 455 
L 960 1517 
z
" transform="scale(0.015625)"/>
       <path id="CMR17-65" d="M 2438 1503 
C 2464 1529 2464 1542 2464 1606 
C 2464 2251 2118 2816 1389 2816 
C 710 2816 173 2175 173 1394 
C 173 554 781 -64 1459 -64 
C 2176 -64 2458 619 2458 755 
C 2458 800 2419 800 2406 800 
C 2362 800 2355 787 2330 709 
C 2189 270 1837 51 1504 51 
C 1229 51 954 206 781 490 
C 582 819 582 1200 582 1503 
L 2438 1503 
z
M 589 1600 
C 634 2511 1126 2713 1382 2713 
C 1818 2713 2112 2308 2118 1600 
L 589 1600 
z
" transform="scale(0.015625)"/>
       <path id="CMR17-63" d="M 2234 2240 
C 2112 2240 1933 2240 1933 2015 
C 1933 1836 2080 1785 2163 1785 
C 2208 1785 2394 1804 2394 2028 
C 2394 2476 1958 2816 1466 2816 
C 787 2816 211 2201 211 1379 
C 211 521 813 -64 1466 -64 
C 2259 -64 2458 676 2458 747 
C 2458 773 2451 792 2406 792 
C 2362 792 2355 786 2330 702 
C 2163 180 1798 51 1523 51 
C 1114 51 621 431 621 1385 
C 621 2358 1094 2700 1472 2700 
C 1722 2700 2093 2582 2234 2240 
z
" transform="scale(0.015625)"/>
       <path id="CMR17-61" d="M 2304 1656 
C 2304 2048 2304 2275 2035 2534 
C 1798 2751 1523 2816 1306 2816 
C 800 2816 435 2408 435 1977 
C 435 1740 627 1728 666 1728 
C 749 1728 896 1779 896 1958 
C 896 2118 774 2188 666 2188 
C 640 2188 608 2182 589 2176 
C 723 2594 1069 2713 1293 2713 
C 1613 2713 1965 2421 1965 1875 
L 1965 1632 
C 1587 1619 1133 1568 774 1373 
C 371 1147 256 822 256 576 
C 256 77 832 -64 1171 -64 
C 1523 -64 1850 135 1990 505 
C 2003 219 2182 -39 2464 -39 
C 2598 -39 2938 51 2938 563 
L 2938 926 
L 2822 926 
L 2822 557 
C 2822 161 2650 109 2566 109 
C 2304 109 2304 446 2304 732 
L 2304 1656 
z
M 1965 887 
C 1965 323 1568 38 1216 38 
C 896 38 646 278 646 576 
C 646 771 730 1114 1101 1322 
C 1408 1497 1760 1523 1965 1536 
L 1965 887 
z
" transform="scale(0.015625)"/>
       <path id="CMR17-73" d="M 1978 2688 
C 1978 2803 1971 2809 1933 2809 
C 1907 2809 1901 2803 1824 2707 
C 1805 2681 1747 2617 1728 2592 
C 1523 2809 1235 2816 1126 2816 
C 416 2816 160 2444 160 2073 
C 160 1497 813 1363 998 1324 
C 1402 1241 1542 1216 1677 1100 
C 1760 1024 1901 883 1901 652 
C 1901 384 1747 38 1158 38 
C 602 38 403 460 288 1024 
C 269 1113 269 1120 218 1120 
C 166 1120 160 1113 160 985 
L 160 64 
C 160 -52 166 -58 205 -58 
C 237 -58 243 -52 275 0 
C 314 57 410 211 448 275 
C 576 102 800 -64 1158 -64 
C 1792 -64 2131 281 2131 780 
C 2131 1107 1958 1280 1875 1356 
C 1683 1555 1459 1600 1190 1651 
C 838 1728 390 1817 390 2208 
C 390 2374 480 2726 1126 2726 
C 1811 2726 1850 2086 1862 1881 
C 1869 1849 1901 1843 1920 1843 
C 1978 1843 1978 1862 1978 1971 
L 1978 2688 
z
" transform="scale(0.015625)"/>
       <path id="CMR17-74" d="M 966 2585 
L 1862 2585 
L 1862 2752 
L 966 2752 
L 966 3968 
L 851 3968 
C 838 3292 614 2700 70 2687 
L 70 2585 
L 627 2585 
L 627 778 
C 627 655 627 -64 1370 -64 
C 1747 -64 1965 308 1965 784 
L 1965 1151 
L 1850 1151 
L 1850 790 
C 1850 347 1677 51 1408 51 
C 1222 51 966 179 966 765 
L 966 2585 
z
" transform="scale(0.015625)"/>
      </defs>
      <use xlink:href="#CMR17-53" transform="scale(0.996264)"/>
      <use xlink:href="#CMR17-56" transform="translate(50.89537 0) scale(0.996264)"/>
      <use xlink:href="#CMR17-52" transform="translate(119.9678 0) scale(0.996264)"/>
      <use xlink:href="#CMR17-66" transform="translate(217.834868 0) scale(0.996264)"/>
      <use xlink:href="#CMR17-6f" transform="translate(245.30838 0) scale(0.996264)"/>
      <use xlink:href="#CMR17-72" transform="translate(290.998857 0) scale(0.996264)"/>
      <use xlink:href="#CMR17-65" transform="translate(326.279625 0) scale(0.996264)"/>
      <use xlink:href="#CMR17-63" transform="translate(366.765286 0) scale(0.996264)"/>
      <use xlink:href="#CMR17-61" transform="translate(407.250946 0) scale(0.996264)"/>
      <use xlink:href="#CMR17-73" transform="translate(452.941423 0) scale(0.996264)"/>
      <use xlink:href="#CMR17-74" transform="translate(488.742761 0) scale(0.996264)"/>
     </g>
    </g>
   </g>
  </g>
 </g>
 <defs>
  <clipPath id="pbb53b4f472">
   <rect x="43.652382" y="3.6" width="558" height="332.64"/>
  </clipPath>
 </defs>
</svg>
