<?xml version="1.0" encoding="utf-8" standalone="no"?>
<!DOCTYPE svg PUBLIC "-//W3C//DTD SVG 1.1//EN"
  "http://www.w3.org/Graphics/SVG/1.1/DTD/svg11.dtd">
<svg xmlns:xlink="http://www.w3.org/1999/xlink" width="599.096314pt" height="359.281364pt" viewBox="0 0 599.096314 359.281364" xmlns="http://www.w3.org/2000/svg" version="1.1">
 <metadata>
  <rdf:RDF xmlns:dc="http://purl.org/dc/elements/1.1/" xmlns:cc="http://creativecommons.org/ns#" xmlns:rdf="http://www.w3.org/1999/02/22-rdf-syntax-ns#">
   <cc:Work>
    <dc:type rdf:resource="http://purl.org/dc/dcmitype/StillImage"/>
    <dc:date>2025-03-20T12:36:42.398395</dc:date>
    <dc:format>image/svg+xml</dc:format>
    <dc:creator>
     <cc:Agent>
      <dc:title>Matplotlib v3.9.2, https://matplotlib.org/</dc:title>
     </cc:Agent>
    </dc:creator>
   </cc:Work>
  </rdf:RDF>
 </metadata>
 <defs>
  <style type="text/css">*{stroke-linejoin: round; stroke-linecap: butt}</style>
 </defs>
 <g id="figure_1">
  <g id="patch_1">
   <path d="M 0 359.281364 
L 599.096314 359.281364 
L 599.096314 0 
L 0 0 
z
" style="fill: #ffffff"/>
  </g>
  <g id="axes_1">
   <g id="patch_2">
    <path d="M 37.496314 336.24 
L 595.496314 336.24 
L 595.496314 3.6 
L 37.496314 3.6 
z
" style="fill: #ffffff"/>
   </g>
   <g id="PolyCollection_1">
    <defs>
     <path id="m61c098bfae" d="M 62.85995 -301.426155 
L 62.85995 -176.413809 
L 64.74527 -173.694531 
L 66.569773 -163.683817 
L 68.455093 -168.468676 
L 70.279597 -184.131886 
L 72.164917 -174.016565 
L 74.050237 -169.678198 
L 75.87474 -176.337122 
L 77.76006 -140.871959 
L 79.584563 -175.047521 
L 81.469883 -172.584624 
L 83.355203 -163.506008 
L 85.058073 -162.272081 
L 86.943393 -158.701428 
L 88.767896 -167.96475 
L 90.653216 -160.131903 
L 92.47772 -160.902093 
L 94.36304 -164.872884 
L 96.24836 -152.472284 
L 98.072863 -175.612525 
L 99.958183 -166.50101 
L 101.782686 -168.612538 
L 103.668006 -179.531959 
L 105.553327 -169.922797 
L 107.256196 -169.233669 
L 109.141516 -159.972846 
L 110.96602 -171.787584 
L 112.85134 -171.460889 
L 114.675843 -180.76835 
L 116.561163 -182.293775 
L 118.446483 -154.091255 
L 120.270986 -163.82884 
L 122.156306 -175.226042 
L 123.98081 -171.989566 
L 125.86613 -167.780258 
L 127.75145 -171.389077 
L 129.515136 -181.061307 
L 131.400456 -171.19096 
L 133.22496 -172.423143 
L 135.11028 -158.128754 
L 136.934783 -163.439581 
L 138.820103 -173.58972 
L 140.705423 -170.281573 
L 142.529926 -171.929487 
L 144.415246 -175.979845 
L 146.23975 -169.770214 
L 148.12507 -175.395916 
L 150.01039 -173.803303 
L 151.713259 -169.134048 
L 153.598579 -172.839101 
L 155.423083 -165.957052 
L 157.308403 -169.429403 
L 159.132906 -174.280204 
L 161.018226 -175.132912 
L 162.903546 -169.928291 
L 164.728049 -169.850485 
L 166.613369 -171.252059 
L 168.437873 -167.593754 
L 170.323193 -174.252074 
L 172.208513 -174.408787 
L 173.911383 -172.787584 
L 175.796703 -167.185164 
L 177.621206 -169.581502 
L 179.506526 -165.923505 
L 181.331029 -167.423034 
L 183.216349 -165.721433 
L 185.101669 -170.950891 
L 186.926173 -177.907633 
L 188.811493 -177.683027 
L 190.635996 -177.73612 
L 192.521316 -176.363456 
L 194.406636 -175.122642 
L 196.109506 -167.969711 
L 197.994826 -173.037644 
L 199.819329 -170.593139 
L 201.704649 -174.070896 
L 203.529152 -175.160779 
L 205.414472 -167.163079 
L 207.299792 -173.613458 
L 209.124296 -172.236851 
L 211.009616 -178.323483 
L 212.834119 -176.329735 
L 214.719439 -174.458952 
L 216.604759 -172.438428 
L 218.368446 -171.376685 
L 220.253766 -168.157265 
L 222.078269 -173.635937 
L 223.963589 -171.823019 
L 225.788092 -170.637162 
L 227.673412 -161.024445 
L 229.558732 -164.761929 
L 231.383236 -176.126095 
L 233.268556 -170.186691 
L 235.093059 -107.537574 
L 236.978379 -124.984512 
L 238.863699 -174.777697 
L 240.566569 -121.285779 
L 242.451889 -98.011008 
L 244.276392 -150.185334 
L 246.161712 -189.421973 
L 247.986216 -125.90171 
L 249.871536 -180.942737 
L 251.756856 -168.558836 
L 253.581359 -169.58506 
L 255.466679 -168.496653 
L 257.291182 -181.900638 
L 259.176502 -210.906641 
L 261.061822 -186.209731 
L 262.764692 -182.3007 
L 264.650012 -164.957664 
L 266.474515 -175.764314 
L 268.359835 -170.605623 
L 270.184339 -161.077057 
L 272.069659 -165.217105 
L 273.954979 -167.455923 
L 275.779482 -177.137605 
L 277.664802 -169.185631 
L 279.489305 -176.394246 
L 281.374625 -158.30516 
L 283.259946 -152.934442 
L 284.962815 -177.168133 
L 286.848135 -164.14782 
L 288.672639 -168.280094 
L 290.557959 -167.649473 
L 292.382462 -173.148897 
L 294.267782 -164.436085 
L 296.153102 -171.230388 
L 297.977605 -162.445124 
L 299.862925 -177.119238 
L 301.687429 -157.03459 
L 303.572749 -177.29393 
L 305.458069 -169.091087 
L 307.221755 -176.980554 
L 309.107075 -173.202965 
L 310.931579 -155.84669 
L 312.816899 -173.576042 
L 314.641402 -172.816302 
L 316.526722 -175.539225 
L 318.412042 -175.361173 
L 320.236545 -158.927248 
L 322.121865 -176.007112 
L 323.946369 -163.018425 
L 325.831689 -162.791463 
L 327.717009 -166.740016 
L 329.419878 -160.996528 
L 331.305198 -172.430896 
L 333.129702 -171.083056 
L 335.015022 -175.057097 
L 336.839525 -164.026347 
L 338.724845 -147.533735 
L 340.610165 -175.950904 
L 342.434668 -168.205704 
L 344.319988 -168.033544 
L 346.144492 -172.589517 
L 348.029812 -164.63256 
L 349.915132 -162.721652 
L 351.618002 -167.979059 
L 353.503322 -169.915266 
L 355.327825 -169.842739 
L 357.213145 -166.594883 
L 359.037648 -171.836547 
L 360.922968 -168.833449 
L 362.808288 -172.017428 
L 364.632792 -168.81039 
L 366.518112 -165.617562 
L 368.342615 -168.535979 
L 370.227935 -174.689627 
L 372.113255 -175.016288 
L 373.816125 -179.105216 
L 375.701445 -163.847896 
L 377.525948 -167.571696 
L 379.411268 -171.787297 
L 381.235771 -158.262685 
L 383.121091 -169.991281 
L 385.006411 -171.634926 
L 386.830915 -168.753104 
L 388.716235 -158.882677 
L 390.540738 -179.097012 
L 392.426058 -162.288534 
L 394.311378 -169.747656 
L 396.075065 -156.9353 
L 397.960385 -180.955761 
L 399.784888 -173.514762 
L 401.670208 -176.898693 
L 403.494711 -167.690235 
L 405.380031 -172.820812 
L 407.265351 -178.764892 
L 409.089855 -165.478399 
L 410.975175 -165.914202 
L 412.799678 -166.399301 
L 414.684998 -164.843628 
L 416.570318 -173.786294 
L 418.273188 -172.146291 
L 420.158508 -169.568212 
L 421.983011 -166.772193 
L 423.868331 -170.040824 
L 425.692835 -170.646556 
L 427.578155 -173.498694 
L 429.463475 -166.524075 
L 431.287978 -171.173115 
L 433.173298 -170.996918 
L 434.997801 -169.12874 
L 436.883121 -171.255232 
L 438.768441 -172.11733 
L 440.471311 -171.7703 
L 442.356631 -162.751567 
L 444.181134 -170.665914 
L 446.066454 -167.880792 
L 447.890958 -171.791962 
L 449.776278 -173.409368 
L 451.661598 -171.021486 
L 453.486101 -172.091497 
L 455.371421 -169.617224 
L 457.195924 -163.798811 
L 459.081244 -167.502326 
L 460.966565 -164.314502 
L 462.669434 -175.032255 
L 464.554754 -180.214625 
L 466.379258 -175.24787 
L 468.264578 -175.815382 
L 470.089081 -170.671274 
L 471.974401 -179.484659 
L 473.859721 -187.327035 
L 475.684224 -166.930586 
L 477.569544 -173.518919 
L 479.394048 -168.272935 
L 481.279368 -172.489736 
L 483.164688 -172.230673 
L 484.928374 -169.887269 
L 486.813694 -164.924105 
L 488.638198 -127.753055 
L 490.523518 -173.262252 
L 492.348021 -163.213197 
L 494.233341 -175.079008 
L 496.118661 -182.26707 
L 497.943164 -177.270789 
L 499.828484 -165.369246 
L 501.652988 -166.312416 
L 503.538308 -175.002481 
L 505.423628 -178.884711 
L 507.126497 -165.932587 
L 509.011817 -174.574942 
L 510.836321 -168.914925 
L 512.721641 -177.359637 
L 514.546144 -169.583472 
L 516.431464 -169.696182 
L 518.316784 -178.317935 
L 520.141287 -172.844966 
L 522.026607 -163.903779 
L 523.851111 -168.779798 
L 525.736431 -175.661962 
L 527.621751 -165.675146 
L 529.324621 -166.604558 
L 531.209941 -164.643233 
L 533.034444 -165.033498 
L 534.919764 -162.660843 
L 536.744267 -161.03897 
L 538.629587 -165.78748 
L 540.514907 -167.893215 
L 542.339411 -181.508266 
L 544.224731 -145.024399 
L 546.049234 -159.28365 
L 547.934554 -181.583711 
L 549.819874 -166.599765 
L 551.522744 -172.320749 
L 553.408064 -165.630213 
L 555.232567 -165.202845 
L 557.117887 -176.100942 
L 558.94239 -161.583048 
L 560.82771 -172.369303 
L 562.71303 -172.698888 
L 564.537534 -158.852681 
L 566.422854 -163.299558 
L 568.247357 -160.817 
L 570.132677 -178.637461 
L 570.132677 -312.005437 
L 570.132677 -312.005437 
L 568.247357 -294.098709 
L 566.422854 -296.596528 
L 564.537534 -292.227374 
L 562.71303 -306.111014 
L 560.82771 -305.809632 
L 558.94239 -294.926897 
L 557.117887 -309.505524 
L 555.232567 -298.597142 
L 553.408064 -299.050002 
L 551.522744 -305.785294 
L 549.819874 -300.134366 
L 547.934554 -315.170199 
L 546.049234 -292.766457 
L 544.224731 -278.571908 
L 542.339411 -314.519349 
L 540.514907 -300.807755 
L 538.629587 -298.787982 
L 536.744267 -294.038565 
L 534.919764 -295.309268 
L 533.034444 -297.755852 
L 531.209941 -297.415892 
L 529.324621 -299.388998 
L 527.621751 -298.489389 
L 525.736431 -308.533238 
L 523.851111 -301.640109 
L 522.026607 -296.826609 
L 520.141287 -305.824704 
L 518.316784 -311.365645 
L 516.431464 -302.775439 
L 514.546144 -302.729523 
L 512.721641 -310.572777 
L 510.836321 -302.088676 
L 509.011817 -307.82023 
L 507.126497 -299.204641 
L 505.423628 -312.222706 
L 503.538308 -306.864762 
L 501.652988 -298.202766 
L 499.828484 -297.32895 
L 497.943164 -309.27176 
L 496.118661 -315.753377 
L 494.233341 -308.623785 
L 492.348021 -294.887914 
L 490.523518 -304.750533 
L 488.638198 -258.891468 
L 486.813694 -293.974145 
L 484.928374 -298.972846 
L 483.164688 -301.355385 
L 481.279368 -301.651737 
L 479.394048 -297.415011 
L 477.569544 -302.727532 
L 475.684224 -296.148219 
L 473.859721 -316.414466 
L 471.974401 -308.611554 
L 470.089081 -299.865284 
L 468.264578 -305.012589 
L 466.379258 -304.483398 
L 464.554754 -309.536675 
L 462.669434 -304.342445 
L 460.966565 -293.668512 
L 459.081244 -296.68192 
L 457.195924 -293.032064 
L 455.371421 -298.76181 
L 453.486101 -301.295865 
L 451.661598 -300.289892 
L 449.776278 -302.738426 
L 447.890958 -301.193159 
L 446.066454 -297.33543 
L 444.181134 -300.165724 
L 442.356631 -292.333747 
L 440.471311 -301.319136 
L 438.768441 -301.613007 
L 436.883121 -300.81493 
L 434.997801 -298.753057 
L 433.173298 -300.696963 
L 431.287978 -300.939779 
L 429.463475 -296.355833 
L 427.578155 -303.402768 
L 425.692835 -300.620695 
L 423.868331 -301.37849 
L 421.983011 -298.191602 
L 420.158508 -301.050844 
L 418.273188 -303.681962 
L 416.570318 -305.378494 
L 414.684998 -295.169872 
L 412.799678 -296.790244 
L 410.975175 -296.377384 
L 409.089855 -296.023165 
L 407.265351 -309.390454 
L 405.380031 -303.507967 
L 403.494711 -298.436125 
L 401.670208 -307.692698 
L 399.784888 -304.336417 
L 397.960385 -313.018663 
L 396.075065 -289.077356 
L 394.311378 -300.285875 
L 392.426058 -294.209426 
L 390.540738 -311.099616 
L 388.716235 -290.789494 
L 386.830915 -300.531075 
L 385.006411 -303.41347 
L 383.121091 -301.840502 
L 381.235771 -290.199361 
L 379.411268 -303.801813 
L 377.525948 -299.663401 
L 375.701445 -296.02328 
L 373.816125 -311.351182 
L 372.113255 -307.289026 
L 370.227935 -307.041172 
L 368.342615 -300.836256 
L 366.518112 -297.951301 
L 364.632792 -301.211177 
L 362.808288 -304.475461 
L 360.922968 -301.359081 
L 359.037648 -304.419045 
L 357.213145 -299.245523 
L 355.327825 -302.571674 
L 353.503322 -302.707603 
L 351.618002 -300.847933 
L 349.915132 -295.664852 
L 348.029812 -297.63479 
L 346.144492 -305.639094 
L 344.319988 -301.152252 
L 342.434668 -301.401278 
L 340.610165 -309.196085 
L 338.724845 -280.690815 
L 336.839525 -297.261917 
L 335.015022 -308.339184 
L 333.129702 -304.446685 
L 331.305198 -305.85834 
L 329.419878 -294.485618 
L 327.717009 -300.192259 
L 325.831689 -296.298304 
L 323.946369 -296.547651 
L 322.121865 -309.590145 
L 320.236545 -292.537416 
L 318.412042 -309.029788 
L 316.526722 -309.300353 
L 314.641402 -306.583914 
L 312.816899 -307.284443 
L 310.931579 -289.64213 
L 309.107075 -307.073872 
L 307.221755 -310.892475 
L 305.458069 -302.993902 
L 303.572749 -311.273655 
L 301.687429 -291.056062 
L 299.862925 -311.218207 
L 297.977605 -296.625384 
L 296.153102 -304.427344 
L 294.267782 -297.661817 
L 292.382462 -306.253488 
L 290.557959 -300.83754 
L 288.672639 -301.531784 
L 286.848135 -297.447531 
L 284.962815 -310.546613 
L 283.259946 -286.272758 
L 281.374625 -291.60165 
L 279.489305 -309.785582 
L 277.664802 -302.563434 
L 275.779482 -310.573892 
L 273.954979 -300.98115 
L 272.069659 -298.828497 
L 270.184339 -294.676413 
L 268.359835 -303.931867 
L 266.474515 -309.117907 
L 264.650012 -298.178646 
L 262.764692 -310.195376 
L 261.061822 -315.910177 
L 259.176502 -340.561364 
L 257.291182 -311.601381 
L 255.466679 -298.345015 
L 253.581359 -299.387942 
L 251.756856 -298.172275 
L 249.871536 -310.627899 
L 247.986216 -255.609079 
L 246.161712 -319.154994 
L 244.276392 -270.344074 
L 242.451889 -223.291914 
L 240.566569 -246.4708 
L 238.863699 -305.541569 
L 236.978379 -255.718211 
L 235.093059 -240.504298 
L 233.268556 -297.781122 
L 231.383236 -303.462583 
L 229.558732 -292.140912 
L 227.673412 -288.191973 
L 225.788092 -297.71393 
L 223.963589 -298.939512 
L 222.078269 -300.754844 
L 220.253766 -295.271646 
L 218.368446 -298.535334 
L 216.604759 -299.219812 
L 214.719439 -301.334241 
L 212.834119 -302.94261 
L 211.009616 -305.021111 
L 209.124296 -298.966064 
L 207.299792 -300.184454 
L 205.414472 -293.841069 
L 203.529152 -301.892819 
L 201.704649 -300.841546 
L 199.819329 -297.306632 
L 197.994826 -299.720885 
L 196.109506 -294.724684 
L 194.406636 -303.619035 
L 192.521316 -304.938451 
L 190.635996 -306.390059 
L 188.811493 -306.386419 
L 186.926173 -306.687926 
L 185.101669 -299.805051 
L 183.216349 -294.658106 
L 181.331029 -296.368779 
L 179.506526 -294.940896 
L 177.621206 -298.685404 
L 175.796703 -296.350917 
L 173.911383 -300.151296 
L 172.208513 -301.885562 
L 170.323193 -301.831288 
L 168.437873 -291.021938 
L 166.613369 -298.852411 
L 164.728049 -297.556818 
L 162.903546 -297.720188 
L 161.018226 -303.120098 
L 159.132906 -302.366428 
L 157.308403 -297.586614 
L 155.423083 -294.149386 
L 153.598579 -301.11337 
L 151.713259 -297.479349 
L 150.01039 -302.174093 
L 148.12507 -303.856252 
L 146.23975 -298.211396 
L 144.415246 -304.499648 
L 142.529926 -300.506756 
L 140.705423 -298.908426 
L 138.820103 -302.221738 
L 136.934783 -292.12056 
L 135.11028 -288.424793 
L 133.22496 -301.211886 
L 131.400456 -300.011268 
L 129.515136 -311.573041 
L 127.75145 -301.862045 
L 125.86613 -298.285945 
L 123.98081 -301.015712 
L 122.156306 -304.324881 
L 120.270986 -292.935219 
L 118.446483 -283.302236 
L 116.561163 -311.557321 
L 114.675843 -310.009448 
L 112.85134 -300.613446 
L 110.96602 -300.896642 
L 109.141516 -289.11257 
L 107.256196 -298.019548 
L 105.553327 -298.78317 
L 103.668006 -308.425334 
L 101.782686 -297.362514 
L 99.958183 -295.336161 
L 98.072863 -304.181909 
L 96.24836 -281.040934 
L 94.36304 -292.738014 
L 92.47772 -289.843928 
L 90.653216 -289.120186 
L 88.767896 -296.915524 
L 86.943393 -286.257335 
L 85.058073 -289.784647 
L 83.355203 -291.074579 
L 81.469883 -300.20327 
L 79.584563 -302.603707 
L 77.76006 -268.28194 
L 75.87474 -302.454283 
L 74.050237 -295.825636 
L 72.164917 -300.187654 
L 70.279597 -310.249695 
L 68.455093 -294.291724 
L 66.569773 -289.594656 
L 64.74527 -298.711995 
L 62.85995 -301.426155 
z
" style="stroke: #808080; stroke-opacity: 0.3"/>
    </defs>
    <g clip-path="url(#p755a82c722)">
     <use xlink:href="#m61c098bfae" x="0" y="359.281364" style="fill: #808080; fill-opacity: 0.3; stroke: #808080; stroke-opacity: 0.3"/>
    </g>
   </g>
   <g id="matplotlib.axis_1">
    <g id="xtick_1">
     <g id="line2d_1">
      <defs>
       <path id="mc39280da52" d="M 0 0 
L 0 -3 
" style="stroke: #000000; stroke-width: 0.5"/>
      </defs>
      <g>
       <use xlink:href="#mc39280da52" x="125.926946" y="336.24" style="stroke: #000000; stroke-width: 0.5"/>
      </g>
     </g>
     <g id="line2d_2">
      <defs>
       <path id="m7d1f02d371" d="M 0 0 
L 0 3 
" style="stroke: #000000; stroke-width: 0.5"/>
      </defs>
      <g>
       <use xlink:href="#m7d1f02d371" x="125.926946" y="3.6" style="stroke: #000000; stroke-width: 0.5"/>
      </g>
     </g>
     <g id="text_1">
      <!-- $\mathdefault{2004}$ -->
      <g transform="translate(109.478375 352.1933) scale(0.18 -0.18)">
       <defs>
        <path id="CMR17-32" d="M 2669 990 
L 2554 990 
C 2490 537 2438 460 2413 422 
C 2381 371 1920 371 1830 371 
L 602 371 
C 832 620 1280 1073 1824 1596 
C 2214 1966 2669 2400 2669 3033 
C 2669 3788 2067 4224 1395 4224 
C 691 4224 262 3603 262 3027 
C 262 2777 448 2745 525 2745 
C 589 2745 781 2783 781 3007 
C 781 3206 614 3264 525 3264 
C 486 3264 448 3257 422 3244 
C 544 3788 915 4057 1306 4057 
C 1862 4057 2227 3616 2227 3033 
C 2227 2477 1901 1998 1536 1583 
L 262 147 
L 262 0 
L 2515 0 
L 2669 990 
z
" transform="scale(0.015625)"/>
        <path id="CMR17-30" d="M 2688 2038 
C 2688 2430 2682 3099 2413 3613 
C 2176 4063 1798 4224 1466 4224 
C 1158 4224 768 4082 525 3620 
C 269 3137 243 2539 243 2038 
C 243 1671 250 1112 448 623 
C 723 -39 1216 -128 1466 -128 
C 1760 -128 2208 -7 2470 604 
C 2662 1048 2688 1568 2688 2038 
z
M 1466 -26 
C 1056 -26 813 328 723 816 
C 653 1196 653 1749 653 2109 
C 653 2604 653 3015 736 3407 
C 858 3954 1216 4121 1466 4121 
C 1728 4121 2067 3947 2189 3420 
C 2272 3054 2278 2623 2278 2109 
C 2278 1691 2278 1176 2202 797 
C 2067 96 1690 -26 1466 -26 
z
" transform="scale(0.015625)"/>
        <path id="CMR17-34" d="M 2150 4147 
C 2150 4281 2144 4288 2029 4288 
L 128 1254 
L 128 1088 
L 1779 1088 
L 1779 460 
C 1779 230 1766 166 1318 166 
L 1197 166 
L 1197 0 
C 1402 12 1747 12 1965 12 
C 2182 12 2528 12 2733 0 
L 2733 166 
L 2611 166 
C 2163 166 2150 230 2150 460 
L 2150 1088 
L 2803 1088 
L 2803 1254 
L 2150 1254 
L 2150 4147 
z
M 1798 3723 
L 1798 1254 
L 256 1254 
L 1798 3723 
z
" transform="scale(0.015625)"/>
       </defs>
       <use xlink:href="#CMR17-32" transform="scale(0.996264)"/>
       <use xlink:href="#CMR17-30" transform="translate(45.690477 0) scale(0.996264)"/>
       <use xlink:href="#CMR17-30" transform="translate(91.380954 0) scale(0.996264)"/>
       <use xlink:href="#CMR17-34" transform="translate(137.071431 0) scale(0.996264)"/>
      </g>
     </g>
    </g>
    <g id="xtick_2">
     <g id="line2d_3">
      <g>
       <use xlink:href="#mc39280da52" x="214.780256" y="336.24" style="stroke: #000000; stroke-width: 0.5"/>
      </g>
     </g>
     <g id="line2d_4">
      <g>
       <use xlink:href="#m7d1f02d371" x="214.780256" y="3.6" style="stroke: #000000; stroke-width: 0.5"/>
      </g>
     </g>
     <g id="text_2">
      <!-- $\mathdefault{2008}$ -->
      <g transform="translate(198.331684 352.1933) scale(0.18 -0.18)">
       <defs>
        <path id="CMR17-38" d="M 1741 2289 
C 2144 2494 2554 2803 2554 3298 
C 2554 3884 1990 4224 1472 4224 
C 890 4224 378 3800 378 3215 
C 378 3054 416 2777 666 2533 
C 730 2469 998 2276 1171 2154 
C 883 2006 211 1652 211 945 
C 211 282 838 -128 1459 -128 
C 2144 -128 2720 366 2720 1022 
C 2720 1607 2330 1877 2074 2051 
L 1741 2289 
z
M 902 2855 
C 851 2887 595 3086 595 3388 
C 595 3781 998 4076 1459 4076 
C 1965 4076 2336 3716 2336 3298 
C 2336 2700 1670 2359 1638 2359 
C 1632 2359 1626 2359 1574 2398 
L 902 2855 
z
M 2080 1536 
C 2176 1466 2483 1253 2483 861 
C 2483 385 2010 25 1472 25 
C 890 25 448 443 448 951 
C 448 1459 838 1884 1280 2083 
L 2080 1536 
z
" transform="scale(0.015625)"/>
       </defs>
       <use xlink:href="#CMR17-32" transform="scale(0.996264)"/>
       <use xlink:href="#CMR17-30" transform="translate(45.690477 0) scale(0.996264)"/>
       <use xlink:href="#CMR17-30" transform="translate(91.380954 0) scale(0.996264)"/>
       <use xlink:href="#CMR17-38" transform="translate(137.071431 0) scale(0.996264)"/>
      </g>
     </g>
    </g>
    <g id="xtick_3">
     <g id="line2d_5">
      <g>
       <use xlink:href="#mc39280da52" x="303.633565" y="336.24" style="stroke: #000000; stroke-width: 0.5"/>
      </g>
     </g>
     <g id="line2d_6">
      <g>
       <use xlink:href="#m7d1f02d371" x="303.633565" y="3.6" style="stroke: #000000; stroke-width: 0.5"/>
      </g>
     </g>
     <g id="text_3">
      <!-- $\mathdefault{2012}$ -->
      <g transform="translate(287.184994 352.1933) scale(0.18 -0.18)">
       <defs>
        <path id="CMR17-31" d="M 1702 4083 
C 1702 4217 1696 4224 1606 4224 
C 1357 3927 979 3833 621 3820 
C 602 3820 570 3820 563 3808 
C 557 3795 557 3782 557 3648 
C 755 3648 1088 3686 1344 3839 
L 1344 467 
C 1344 243 1331 166 781 166 
L 589 166 
L 589 0 
C 896 6 1216 12 1523 12 
C 1830 12 2150 6 2458 0 
L 2458 166 
L 2266 166 
C 1715 166 1702 236 1702 467 
L 1702 4083 
z
" transform="scale(0.015625)"/>
       </defs>
       <use xlink:href="#CMR17-32" transform="scale(0.996264)"/>
       <use xlink:href="#CMR17-30" transform="translate(45.690477 0) scale(0.996264)"/>
       <use xlink:href="#CMR17-31" transform="translate(91.380954 0) scale(0.996264)"/>
       <use xlink:href="#CMR17-32" transform="translate(137.071431 0) scale(0.996264)"/>
      </g>
     </g>
    </g>
    <g id="xtick_4">
     <g id="line2d_7">
      <g>
       <use xlink:href="#mc39280da52" x="392.486875" y="336.24" style="stroke: #000000; stroke-width: 0.5"/>
      </g>
     </g>
     <g id="line2d_8">
      <g>
       <use xlink:href="#m7d1f02d371" x="392.486875" y="3.6" style="stroke: #000000; stroke-width: 0.5"/>
      </g>
     </g>
     <g id="text_4">
      <!-- $\mathdefault{2016}$ -->
      <g transform="translate(376.038303 352.1933) scale(0.18 -0.18)">
       <defs>
        <path id="CMR17-36" d="M 678 2198 
C 678 3712 1395 4076 1811 4076 
C 1946 4076 2272 4049 2400 3782 
C 2298 3782 2106 3782 2106 3558 
C 2106 3385 2246 3328 2336 3328 
C 2394 3328 2566 3353 2566 3571 
C 2566 3987 2246 4224 1805 4224 
C 1043 4224 243 3411 243 2011 
C 243 257 966 -128 1478 -128 
C 2099 -128 2688 431 2688 1295 
C 2688 2101 2170 2688 1517 2688 
C 1126 2688 838 2430 678 1979 
L 678 2198 
z
M 1478 25 
C 691 25 691 1212 691 1450 
C 691 1914 909 2585 1504 2585 
C 1613 2585 1926 2585 2138 2140 
C 2253 1889 2253 1624 2253 1302 
C 2253 954 2253 696 2118 438 
C 1978 173 1773 25 1478 25 
z
" transform="scale(0.015625)"/>
       </defs>
       <use xlink:href="#CMR17-32" transform="scale(0.996264)"/>
       <use xlink:href="#CMR17-30" transform="translate(45.690477 0) scale(0.996264)"/>
       <use xlink:href="#CMR17-31" transform="translate(91.380954 0) scale(0.996264)"/>
       <use xlink:href="#CMR17-36" transform="translate(137.071431 0) scale(0.996264)"/>
      </g>
     </g>
    </g>
    <g id="xtick_5">
     <g id="line2d_9">
      <g>
       <use xlink:href="#mc39280da52" x="481.340184" y="336.24" style="stroke: #000000; stroke-width: 0.5"/>
      </g>
     </g>
     <g id="line2d_10">
      <g>
       <use xlink:href="#m7d1f02d371" x="481.340184" y="3.6" style="stroke: #000000; stroke-width: 0.5"/>
      </g>
     </g>
     <g id="text_5">
      <!-- $\mathdefault{2020}$ -->
      <g transform="translate(464.891613 352.1933) scale(0.18 -0.18)">
       <use xlink:href="#CMR17-32" transform="scale(0.996264)"/>
       <use xlink:href="#CMR17-30" transform="translate(45.690477 0) scale(0.996264)"/>
       <use xlink:href="#CMR17-32" transform="translate(91.380954 0) scale(0.996264)"/>
       <use xlink:href="#CMR17-30" transform="translate(137.071431 0) scale(0.996264)"/>
      </g>
     </g>
    </g>
    <g id="xtick_6">
     <g id="line2d_11">
      <g>
       <use xlink:href="#mc39280da52" x="570.193494" y="336.24" style="stroke: #000000; stroke-width: 0.5"/>
      </g>
     </g>
     <g id="line2d_12">
      <g>
       <use xlink:href="#m7d1f02d371" x="570.193494" y="3.6" style="stroke: #000000; stroke-width: 0.5"/>
      </g>
     </g>
     <g id="text_6">
      <!-- $\mathdefault{2024}$ -->
      <g transform="translate(553.744922 352.1933) scale(0.18 -0.18)">
       <use xlink:href="#CMR17-32" transform="scale(0.996264)"/>
       <use xlink:href="#CMR17-30" transform="translate(45.690477 0) scale(0.996264)"/>
       <use xlink:href="#CMR17-32" transform="translate(91.380954 0) scale(0.996264)"/>
       <use xlink:href="#CMR17-34" transform="translate(137.071431 0) scale(0.996264)"/>
      </g>
     </g>
    </g>
    <g id="xtick_7">
     <g id="line2d_13">
      <defs>
       <path id="m4f9e3823c9" d="M 0 0 
L 0 -1.5 
" style="stroke: #000000; stroke-width: 0.5"/>
      </defs>
      <g>
       <use xlink:href="#m4f9e3823c9" x="59.286964" y="336.24" style="stroke: #000000; stroke-width: 0.5"/>
      </g>
     </g>
     <g id="line2d_14">
      <defs>
       <path id="ma9c3c479db" d="M 0 0 
L 0 1.5 
" style="stroke: #000000; stroke-width: 0.5"/>
      </defs>
      <g>
       <use xlink:href="#ma9c3c479db" x="59.286964" y="3.6" style="stroke: #000000; stroke-width: 0.5"/>
      </g>
     </g>
    </g>
    <g id="xtick_8">
     <g id="line2d_15">
      <g>
       <use xlink:href="#m4f9e3823c9" x="81.500292" y="336.24" style="stroke: #000000; stroke-width: 0.5"/>
      </g>
     </g>
     <g id="line2d_16">
      <g>
       <use xlink:href="#ma9c3c479db" x="81.500292" y="3.6" style="stroke: #000000; stroke-width: 0.5"/>
      </g>
     </g>
    </g>
    <g id="xtick_9">
     <g id="line2d_17">
      <g>
       <use xlink:href="#m4f9e3823c9" x="103.713619" y="336.24" style="stroke: #000000; stroke-width: 0.5"/>
      </g>
     </g>
     <g id="line2d_18">
      <g>
       <use xlink:href="#ma9c3c479db" x="103.713619" y="3.6" style="stroke: #000000; stroke-width: 0.5"/>
      </g>
     </g>
    </g>
    <g id="xtick_10">
     <g id="line2d_19">
      <g>
       <use xlink:href="#m4f9e3823c9" x="148.140274" y="336.24" style="stroke: #000000; stroke-width: 0.5"/>
      </g>
     </g>
     <g id="line2d_20">
      <g>
       <use xlink:href="#ma9c3c479db" x="148.140274" y="3.6" style="stroke: #000000; stroke-width: 0.5"/>
      </g>
     </g>
    </g>
    <g id="xtick_11">
     <g id="line2d_21">
      <g>
       <use xlink:href="#m4f9e3823c9" x="170.353601" y="336.24" style="stroke: #000000; stroke-width: 0.5"/>
      </g>
     </g>
     <g id="line2d_22">
      <g>
       <use xlink:href="#ma9c3c479db" x="170.353601" y="3.6" style="stroke: #000000; stroke-width: 0.5"/>
      </g>
     </g>
    </g>
    <g id="xtick_12">
     <g id="line2d_23">
      <g>
       <use xlink:href="#m4f9e3823c9" x="192.566929" y="336.24" style="stroke: #000000; stroke-width: 0.5"/>
      </g>
     </g>
     <g id="line2d_24">
      <g>
       <use xlink:href="#ma9c3c479db" x="192.566929" y="3.6" style="stroke: #000000; stroke-width: 0.5"/>
      </g>
     </g>
    </g>
    <g id="xtick_13">
     <g id="line2d_25">
      <g>
       <use xlink:href="#m4f9e3823c9" x="236.993583" y="336.24" style="stroke: #000000; stroke-width: 0.5"/>
      </g>
     </g>
     <g id="line2d_26">
      <g>
       <use xlink:href="#ma9c3c479db" x="236.993583" y="3.6" style="stroke: #000000; stroke-width: 0.5"/>
      </g>
     </g>
    </g>
    <g id="xtick_14">
     <g id="line2d_27">
      <g>
       <use xlink:href="#m4f9e3823c9" x="259.206911" y="336.24" style="stroke: #000000; stroke-width: 0.5"/>
      </g>
     </g>
     <g id="line2d_28">
      <g>
       <use xlink:href="#ma9c3c479db" x="259.206911" y="3.6" style="stroke: #000000; stroke-width: 0.5"/>
      </g>
     </g>
    </g>
    <g id="xtick_15">
     <g id="line2d_29">
      <g>
       <use xlink:href="#m4f9e3823c9" x="281.420238" y="336.24" style="stroke: #000000; stroke-width: 0.5"/>
      </g>
     </g>
     <g id="line2d_30">
      <g>
       <use xlink:href="#ma9c3c479db" x="281.420238" y="3.6" style="stroke: #000000; stroke-width: 0.5"/>
      </g>
     </g>
    </g>
    <g id="xtick_16">
     <g id="line2d_31">
      <g>
       <use xlink:href="#m4f9e3823c9" x="325.846893" y="336.24" style="stroke: #000000; stroke-width: 0.5"/>
      </g>
     </g>
     <g id="line2d_32">
      <g>
       <use xlink:href="#ma9c3c479db" x="325.846893" y="3.6" style="stroke: #000000; stroke-width: 0.5"/>
      </g>
     </g>
    </g>
    <g id="xtick_17">
     <g id="line2d_33">
      <g>
       <use xlink:href="#m4f9e3823c9" x="348.06022" y="336.24" style="stroke: #000000; stroke-width: 0.5"/>
      </g>
     </g>
     <g id="line2d_34">
      <g>
       <use xlink:href="#ma9c3c479db" x="348.06022" y="3.6" style="stroke: #000000; stroke-width: 0.5"/>
      </g>
     </g>
    </g>
    <g id="xtick_18">
     <g id="line2d_35">
      <g>
       <use xlink:href="#m4f9e3823c9" x="370.273548" y="336.24" style="stroke: #000000; stroke-width: 0.5"/>
      </g>
     </g>
     <g id="line2d_36">
      <g>
       <use xlink:href="#ma9c3c479db" x="370.273548" y="3.6" style="stroke: #000000; stroke-width: 0.5"/>
      </g>
     </g>
    </g>
    <g id="xtick_19">
     <g id="line2d_37">
      <g>
       <use xlink:href="#m4f9e3823c9" x="414.700202" y="336.24" style="stroke: #000000; stroke-width: 0.5"/>
      </g>
     </g>
     <g id="line2d_38">
      <g>
       <use xlink:href="#ma9c3c479db" x="414.700202" y="3.6" style="stroke: #000000; stroke-width: 0.5"/>
      </g>
     </g>
    </g>
    <g id="xtick_20">
     <g id="line2d_39">
      <g>
       <use xlink:href="#m4f9e3823c9" x="436.91353" y="336.24" style="stroke: #000000; stroke-width: 0.5"/>
      </g>
     </g>
     <g id="line2d_40">
      <g>
       <use xlink:href="#ma9c3c479db" x="436.91353" y="3.6" style="stroke: #000000; stroke-width: 0.5"/>
      </g>
     </g>
    </g>
    <g id="xtick_21">
     <g id="line2d_41">
      <g>
       <use xlink:href="#m4f9e3823c9" x="459.126857" y="336.24" style="stroke: #000000; stroke-width: 0.5"/>
      </g>
     </g>
     <g id="line2d_42">
      <g>
       <use xlink:href="#ma9c3c479db" x="459.126857" y="3.6" style="stroke: #000000; stroke-width: 0.5"/>
      </g>
     </g>
    </g>
    <g id="xtick_22">
     <g id="line2d_43">
      <g>
       <use xlink:href="#m4f9e3823c9" x="503.553512" y="336.24" style="stroke: #000000; stroke-width: 0.5"/>
      </g>
     </g>
     <g id="line2d_44">
      <g>
       <use xlink:href="#ma9c3c479db" x="503.553512" y="3.6" style="stroke: #000000; stroke-width: 0.5"/>
      </g>
     </g>
    </g>
    <g id="xtick_23">
     <g id="line2d_45">
      <g>
       <use xlink:href="#m4f9e3823c9" x="525.766839" y="336.24" style="stroke: #000000; stroke-width: 0.5"/>
      </g>
     </g>
     <g id="line2d_46">
      <g>
       <use xlink:href="#ma9c3c479db" x="525.766839" y="3.6" style="stroke: #000000; stroke-width: 0.5"/>
      </g>
     </g>
    </g>
    <g id="xtick_24">
     <g id="line2d_47">
      <g>
       <use xlink:href="#m4f9e3823c9" x="547.980167" y="336.24" style="stroke: #000000; stroke-width: 0.5"/>
      </g>
     </g>
     <g id="line2d_48">
      <g>
       <use xlink:href="#ma9c3c479db" x="547.980167" y="3.6" style="stroke: #000000; stroke-width: 0.5"/>
      </g>
     </g>
    </g>
    <g id="xtick_25">
     <g id="line2d_49">
      <g>
       <use xlink:href="#m4f9e3823c9" x="592.406821" y="336.24" style="stroke: #000000; stroke-width: 0.5"/>
      </g>
     </g>
     <g id="line2d_50">
      <g>
       <use xlink:href="#ma9c3c479db" x="592.406821" y="3.6" style="stroke: #000000; stroke-width: 0.5"/>
      </g>
     </g>
    </g>
   </g>
   <g id="matplotlib.axis_2">
    <g id="ytick_1">
     <g id="line2d_51">
      <defs>
       <path id="me3ff1099da" d="M 0 0 
L 3 0 
" style="stroke: #000000; stroke-width: 0.5"/>
      </defs>
      <g>
       <use xlink:href="#me3ff1099da" x="37.496314" y="297.492917" style="stroke: #000000; stroke-width: 0.5"/>
      </g>
     </g>
     <g id="line2d_52">
      <defs>
       <path id="md8b60871fa" d="M 0 0 
L -3 0 
" style="stroke: #000000; stroke-width: 0.5"/>
      </defs>
      <g>
       <use xlink:href="#md8b60871fa" x="595.496314" y="297.492917" style="stroke: #000000; stroke-width: 0.5"/>
      </g>
     </g>
     <g id="text_7">
      <!-- $\mathdefault{−20}$ -->
      <g transform="translate(3.6 303.719567) scale(0.18 -0.18)">
       <defs>
        <path id="CMSY10-0" d="M 4218 1472 
C 4326 1472 4442 1472 4442 1600 
C 4442 1728 4326 1728 4218 1728 
L 755 1728 
C 646 1728 531 1728 531 1600 
C 531 1472 646 1472 755 1472 
L 4218 1472 
z
" transform="scale(0.015625)"/>
       </defs>
       <use xlink:href="#CMSY10-0" transform="scale(0.996264)"/>
       <use xlink:href="#CMR17-32" transform="translate(77.487468 0) scale(0.996264)"/>
       <use xlink:href="#CMR17-30" transform="translate(123.177945 0) scale(0.996264)"/>
      </g>
     </g>
    </g>
    <g id="ytick_2">
     <g id="line2d_53">
      <g>
       <use xlink:href="#me3ff1099da" x="37.496314" y="255.369119" style="stroke: #000000; stroke-width: 0.5"/>
      </g>
     </g>
     <g id="line2d_54">
      <g>
       <use xlink:href="#md8b60871fa" x="595.496314" y="255.369119" style="stroke: #000000; stroke-width: 0.5"/>
      </g>
     </g>
     <g id="text_8">
      <!-- $\mathdefault{−15}$ -->
      <g transform="translate(3.6 261.59577) scale(0.18 -0.18)">
       <defs>
        <path id="CMR17-35" d="M 730 3750 
C 794 3724 1056 3641 1325 3641 
C 1920 3641 2246 3961 2432 4140 
C 2432 4191 2432 4224 2394 4224 
C 2387 4224 2374 4224 2323 4198 
C 2099 4102 1837 4032 1517 4032 
C 1325 4032 1037 4055 723 4191 
C 653 4224 640 4224 634 4224 
C 602 4224 595 4217 595 4090 
L 595 2231 
C 595 2113 595 2080 659 2080 
C 691 2080 704 2093 736 2139 
C 941 2435 1222 2560 1542 2560 
C 1766 2560 2246 2415 2246 1293 
C 2246 1087 2246 716 2054 422 
C 1894 159 1645 25 1370 25 
C 947 25 518 319 403 812 
C 429 806 480 793 506 793 
C 589 793 749 838 749 1036 
C 749 1209 627 1280 506 1280 
C 358 1280 262 1190 262 1011 
C 262 454 704 -128 1382 -128 
C 2042 -128 2669 441 2669 1267 
C 2669 2054 2170 2662 1549 2662 
C 1222 2662 947 2540 730 2304 
L 730 3750 
z
" transform="scale(0.015625)"/>
       </defs>
       <use xlink:href="#CMSY10-0" transform="scale(0.996264)"/>
       <use xlink:href="#CMR17-31" transform="translate(77.487468 0) scale(0.996264)"/>
       <use xlink:href="#CMR17-35" transform="translate(123.177945 0) scale(0.996264)"/>
      </g>
     </g>
    </g>
    <g id="ytick_3">
     <g id="line2d_55">
      <g>
       <use xlink:href="#me3ff1099da" x="37.496314" y="213.245322" style="stroke: #000000; stroke-width: 0.5"/>
      </g>
     </g>
     <g id="line2d_56">
      <g>
       <use xlink:href="#md8b60871fa" x="595.496314" y="213.245322" style="stroke: #000000; stroke-width: 0.5"/>
      </g>
     </g>
     <g id="text_9">
      <!-- $\mathdefault{−10}$ -->
      <g transform="translate(3.6 219.471972) scale(0.18 -0.18)">
       <use xlink:href="#CMSY10-0" transform="scale(0.996264)"/>
       <use xlink:href="#CMR17-31" transform="translate(77.487468 0) scale(0.996264)"/>
       <use xlink:href="#CMR17-30" transform="translate(123.177945 0) scale(0.996264)"/>
      </g>
     </g>
    </g>
    <g id="ytick_4">
     <g id="line2d_57">
      <g>
       <use xlink:href="#me3ff1099da" x="37.496314" y="171.121524" style="stroke: #000000; stroke-width: 0.5"/>
      </g>
     </g>
     <g id="line2d_58">
      <g>
       <use xlink:href="#md8b60871fa" x="595.496314" y="171.121524" style="stroke: #000000; stroke-width: 0.5"/>
      </g>
     </g>
     <g id="text_10">
      <!-- $\mathdefault{−5}$ -->
      <g transform="translate(11.824286 177.348174) scale(0.18 -0.18)">
       <use xlink:href="#CMSY10-0" transform="scale(0.996264)"/>
       <use xlink:href="#CMR17-35" transform="translate(77.487468 0) scale(0.996264)"/>
      </g>
     </g>
    </g>
    <g id="ytick_5">
     <g id="line2d_59">
      <g>
       <use xlink:href="#me3ff1099da" x="37.496314" y="128.997726" style="stroke: #000000; stroke-width: 0.5"/>
      </g>
     </g>
     <g id="line2d_60">
      <g>
       <use xlink:href="#md8b60871fa" x="595.496314" y="128.997726" style="stroke: #000000; stroke-width: 0.5"/>
      </g>
     </g>
     <g id="text_11">
      <!-- $\mathdefault{0}$ -->
      <g transform="translate(25.772028 135.224376) scale(0.18 -0.18)">
       <use xlink:href="#CMR17-30" transform="scale(0.996264)"/>
      </g>
     </g>
    </g>
    <g id="ytick_6">
     <g id="line2d_61">
      <g>
       <use xlink:href="#me3ff1099da" x="37.496314" y="86.873928" style="stroke: #000000; stroke-width: 0.5"/>
      </g>
     </g>
     <g id="line2d_62">
      <g>
       <use xlink:href="#md8b60871fa" x="595.496314" y="86.873928" style="stroke: #000000; stroke-width: 0.5"/>
      </g>
     </g>
     <g id="text_12">
      <!-- $\mathdefault{5}$ -->
      <g transform="translate(25.772028 93.100578) scale(0.18 -0.18)">
       <use xlink:href="#CMR17-35" transform="scale(0.996264)"/>
      </g>
     </g>
    </g>
    <g id="ytick_7">
     <g id="line2d_63">
      <g>
       <use xlink:href="#me3ff1099da" x="37.496314" y="44.75013" style="stroke: #000000; stroke-width: 0.5"/>
      </g>
     </g>
     <g id="line2d_64">
      <g>
       <use xlink:href="#md8b60871fa" x="595.496314" y="44.75013" style="stroke: #000000; stroke-width: 0.5"/>
      </g>
     </g>
     <g id="text_13">
      <!-- $\mathdefault{10}$ -->
      <g transform="translate(17.547742 50.97678) scale(0.18 -0.18)">
       <use xlink:href="#CMR17-31" transform="scale(0.996264)"/>
       <use xlink:href="#CMR17-30" transform="translate(45.690477 0) scale(0.996264)"/>
      </g>
     </g>
    </g>
    <g id="ytick_8">
     <g id="line2d_65">
      <defs>
       <path id="m16c54a8413" d="M 0 0 
L 1.5 0 
" style="stroke: #000000; stroke-width: 0.5"/>
      </defs>
      <g>
       <use xlink:href="#m16c54a8413" x="37.496314" y="331.191956" style="stroke: #000000; stroke-width: 0.5"/>
      </g>
     </g>
     <g id="line2d_66">
      <defs>
       <path id="m0ea4396fea" d="M 0 0 
L -1.5 0 
" style="stroke: #000000; stroke-width: 0.5"/>
      </defs>
      <g>
       <use xlink:href="#m0ea4396fea" x="595.496314" y="331.191956" style="stroke: #000000; stroke-width: 0.5"/>
      </g>
     </g>
    </g>
    <g id="ytick_9">
     <g id="line2d_67">
      <g>
       <use xlink:href="#m16c54a8413" x="37.496314" y="322.767196" style="stroke: #000000; stroke-width: 0.5"/>
      </g>
     </g>
     <g id="line2d_68">
      <g>
       <use xlink:href="#m0ea4396fea" x="595.496314" y="322.767196" style="stroke: #000000; stroke-width: 0.5"/>
      </g>
     </g>
    </g>
    <g id="ytick_10">
     <g id="line2d_69">
      <g>
       <use xlink:href="#m16c54a8413" x="37.496314" y="314.342437" style="stroke: #000000; stroke-width: 0.5"/>
      </g>
     </g>
     <g id="line2d_70">
      <g>
       <use xlink:href="#m0ea4396fea" x="595.496314" y="314.342437" style="stroke: #000000; stroke-width: 0.5"/>
      </g>
     </g>
    </g>
    <g id="ytick_11">
     <g id="line2d_71">
      <g>
       <use xlink:href="#m16c54a8413" x="37.496314" y="305.917677" style="stroke: #000000; stroke-width: 0.5"/>
      </g>
     </g>
     <g id="line2d_72">
      <g>
       <use xlink:href="#m0ea4396fea" x="595.496314" y="305.917677" style="stroke: #000000; stroke-width: 0.5"/>
      </g>
     </g>
    </g>
    <g id="ytick_12">
     <g id="line2d_73">
      <g>
       <use xlink:href="#m16c54a8413" x="37.496314" y="289.068158" style="stroke: #000000; stroke-width: 0.5"/>
      </g>
     </g>
     <g id="line2d_74">
      <g>
       <use xlink:href="#m0ea4396fea" x="595.496314" y="289.068158" style="stroke: #000000; stroke-width: 0.5"/>
      </g>
     </g>
    </g>
    <g id="ytick_13">
     <g id="line2d_75">
      <g>
       <use xlink:href="#m16c54a8413" x="37.496314" y="280.643398" style="stroke: #000000; stroke-width: 0.5"/>
      </g>
     </g>
     <g id="line2d_76">
      <g>
       <use xlink:href="#m0ea4396fea" x="595.496314" y="280.643398" style="stroke: #000000; stroke-width: 0.5"/>
      </g>
     </g>
    </g>
    <g id="ytick_14">
     <g id="line2d_77">
      <g>
       <use xlink:href="#m16c54a8413" x="37.496314" y="272.218639" style="stroke: #000000; stroke-width: 0.5"/>
      </g>
     </g>
     <g id="line2d_78">
      <g>
       <use xlink:href="#m0ea4396fea" x="595.496314" y="272.218639" style="stroke: #000000; stroke-width: 0.5"/>
      </g>
     </g>
    </g>
    <g id="ytick_15">
     <g id="line2d_79">
      <g>
       <use xlink:href="#m16c54a8413" x="37.496314" y="263.793879" style="stroke: #000000; stroke-width: 0.5"/>
      </g>
     </g>
     <g id="line2d_80">
      <g>
       <use xlink:href="#m0ea4396fea" x="595.496314" y="263.793879" style="stroke: #000000; stroke-width: 0.5"/>
      </g>
     </g>
    </g>
    <g id="ytick_16">
     <g id="line2d_81">
      <g>
       <use xlink:href="#m16c54a8413" x="37.496314" y="246.94436" style="stroke: #000000; stroke-width: 0.5"/>
      </g>
     </g>
     <g id="line2d_82">
      <g>
       <use xlink:href="#m0ea4396fea" x="595.496314" y="246.94436" style="stroke: #000000; stroke-width: 0.5"/>
      </g>
     </g>
    </g>
    <g id="ytick_17">
     <g id="line2d_83">
      <g>
       <use xlink:href="#m16c54a8413" x="37.496314" y="238.5196" style="stroke: #000000; stroke-width: 0.5"/>
      </g>
     </g>
     <g id="line2d_84">
      <g>
       <use xlink:href="#m0ea4396fea" x="595.496314" y="238.5196" style="stroke: #000000; stroke-width: 0.5"/>
      </g>
     </g>
    </g>
    <g id="ytick_18">
     <g id="line2d_85">
      <g>
       <use xlink:href="#m16c54a8413" x="37.496314" y="230.094841" style="stroke: #000000; stroke-width: 0.5"/>
      </g>
     </g>
     <g id="line2d_86">
      <g>
       <use xlink:href="#m0ea4396fea" x="595.496314" y="230.094841" style="stroke: #000000; stroke-width: 0.5"/>
      </g>
     </g>
    </g>
    <g id="ytick_19">
     <g id="line2d_87">
      <g>
       <use xlink:href="#m16c54a8413" x="37.496314" y="221.670081" style="stroke: #000000; stroke-width: 0.5"/>
      </g>
     </g>
     <g id="line2d_88">
      <g>
       <use xlink:href="#m0ea4396fea" x="595.496314" y="221.670081" style="stroke: #000000; stroke-width: 0.5"/>
      </g>
     </g>
    </g>
    <g id="ytick_20">
     <g id="line2d_89">
      <g>
       <use xlink:href="#m16c54a8413" x="37.496314" y="204.820562" style="stroke: #000000; stroke-width: 0.5"/>
      </g>
     </g>
     <g id="line2d_90">
      <g>
       <use xlink:href="#m0ea4396fea" x="595.496314" y="204.820562" style="stroke: #000000; stroke-width: 0.5"/>
      </g>
     </g>
    </g>
    <g id="ytick_21">
     <g id="line2d_91">
      <g>
       <use xlink:href="#m16c54a8413" x="37.496314" y="196.395802" style="stroke: #000000; stroke-width: 0.5"/>
      </g>
     </g>
     <g id="line2d_92">
      <g>
       <use xlink:href="#m0ea4396fea" x="595.496314" y="196.395802" style="stroke: #000000; stroke-width: 0.5"/>
      </g>
     </g>
    </g>
    <g id="ytick_22">
     <g id="line2d_93">
      <g>
       <use xlink:href="#m16c54a8413" x="37.496314" y="187.971043" style="stroke: #000000; stroke-width: 0.5"/>
      </g>
     </g>
     <g id="line2d_94">
      <g>
       <use xlink:href="#m0ea4396fea" x="595.496314" y="187.971043" style="stroke: #000000; stroke-width: 0.5"/>
      </g>
     </g>
    </g>
    <g id="ytick_23">
     <g id="line2d_95">
      <g>
       <use xlink:href="#m16c54a8413" x="37.496314" y="179.546283" style="stroke: #000000; stroke-width: 0.5"/>
      </g>
     </g>
     <g id="line2d_96">
      <g>
       <use xlink:href="#m0ea4396fea" x="595.496314" y="179.546283" style="stroke: #000000; stroke-width: 0.5"/>
      </g>
     </g>
    </g>
    <g id="ytick_24">
     <g id="line2d_97">
      <g>
       <use xlink:href="#m16c54a8413" x="37.496314" y="162.696764" style="stroke: #000000; stroke-width: 0.5"/>
      </g>
     </g>
     <g id="line2d_98">
      <g>
       <use xlink:href="#m0ea4396fea" x="595.496314" y="162.696764" style="stroke: #000000; stroke-width: 0.5"/>
      </g>
     </g>
    </g>
    <g id="ytick_25">
     <g id="line2d_99">
      <g>
       <use xlink:href="#m16c54a8413" x="37.496314" y="154.272004" style="stroke: #000000; stroke-width: 0.5"/>
      </g>
     </g>
     <g id="line2d_100">
      <g>
       <use xlink:href="#m0ea4396fea" x="595.496314" y="154.272004" style="stroke: #000000; stroke-width: 0.5"/>
      </g>
     </g>
    </g>
    <g id="ytick_26">
     <g id="line2d_101">
      <g>
       <use xlink:href="#m16c54a8413" x="37.496314" y="145.847245" style="stroke: #000000; stroke-width: 0.5"/>
      </g>
     </g>
     <g id="line2d_102">
      <g>
       <use xlink:href="#m0ea4396fea" x="595.496314" y="145.847245" style="stroke: #000000; stroke-width: 0.5"/>
      </g>
     </g>
    </g>
    <g id="ytick_27">
     <g id="line2d_103">
      <g>
       <use xlink:href="#m16c54a8413" x="37.496314" y="137.422485" style="stroke: #000000; stroke-width: 0.5"/>
      </g>
     </g>
     <g id="line2d_104">
      <g>
       <use xlink:href="#m0ea4396fea" x="595.496314" y="137.422485" style="stroke: #000000; stroke-width: 0.5"/>
      </g>
     </g>
    </g>
    <g id="ytick_28">
     <g id="line2d_105">
      <g>
       <use xlink:href="#m16c54a8413" x="37.496314" y="120.572966" style="stroke: #000000; stroke-width: 0.5"/>
      </g>
     </g>
     <g id="line2d_106">
      <g>
       <use xlink:href="#m0ea4396fea" x="595.496314" y="120.572966" style="stroke: #000000; stroke-width: 0.5"/>
      </g>
     </g>
    </g>
    <g id="ytick_29">
     <g id="line2d_107">
      <g>
       <use xlink:href="#m16c54a8413" x="37.496314" y="112.148207" style="stroke: #000000; stroke-width: 0.5"/>
      </g>
     </g>
     <g id="line2d_108">
      <g>
       <use xlink:href="#m0ea4396fea" x="595.496314" y="112.148207" style="stroke: #000000; stroke-width: 0.5"/>
      </g>
     </g>
    </g>
    <g id="ytick_30">
     <g id="line2d_109">
      <g>
       <use xlink:href="#m16c54a8413" x="37.496314" y="103.723447" style="stroke: #000000; stroke-width: 0.5"/>
      </g>
     </g>
     <g id="line2d_110">
      <g>
       <use xlink:href="#m0ea4396fea" x="595.496314" y="103.723447" style="stroke: #000000; stroke-width: 0.5"/>
      </g>
     </g>
    </g>
    <g id="ytick_31">
     <g id="line2d_111">
      <g>
       <use xlink:href="#m16c54a8413" x="37.496314" y="95.298687" style="stroke: #000000; stroke-width: 0.5"/>
      </g>
     </g>
     <g id="line2d_112">
      <g>
       <use xlink:href="#m0ea4396fea" x="595.496314" y="95.298687" style="stroke: #000000; stroke-width: 0.5"/>
      </g>
     </g>
    </g>
    <g id="ytick_32">
     <g id="line2d_113">
      <g>
       <use xlink:href="#m16c54a8413" x="37.496314" y="78.449168" style="stroke: #000000; stroke-width: 0.5"/>
      </g>
     </g>
     <g id="line2d_114">
      <g>
       <use xlink:href="#m0ea4396fea" x="595.496314" y="78.449168" style="stroke: #000000; stroke-width: 0.5"/>
      </g>
     </g>
    </g>
    <g id="ytick_33">
     <g id="line2d_115">
      <g>
       <use xlink:href="#m16c54a8413" x="37.496314" y="70.024409" style="stroke: #000000; stroke-width: 0.5"/>
      </g>
     </g>
     <g id="line2d_116">
      <g>
       <use xlink:href="#m0ea4396fea" x="595.496314" y="70.024409" style="stroke: #000000; stroke-width: 0.5"/>
      </g>
     </g>
    </g>
    <g id="ytick_34">
     <g id="line2d_117">
      <g>
       <use xlink:href="#m16c54a8413" x="37.496314" y="61.599649" style="stroke: #000000; stroke-width: 0.5"/>
      </g>
     </g>
     <g id="line2d_118">
      <g>
       <use xlink:href="#m0ea4396fea" x="595.496314" y="61.599649" style="stroke: #000000; stroke-width: 0.5"/>
      </g>
     </g>
    </g>
    <g id="ytick_35">
     <g id="line2d_119">
      <g>
       <use xlink:href="#m16c54a8413" x="37.496314" y="53.174889" style="stroke: #000000; stroke-width: 0.5"/>
      </g>
     </g>
     <g id="line2d_120">
      <g>
       <use xlink:href="#m0ea4396fea" x="595.496314" y="53.174889" style="stroke: #000000; stroke-width: 0.5"/>
      </g>
     </g>
    </g>
    <g id="ytick_36">
     <g id="line2d_121">
      <g>
       <use xlink:href="#m16c54a8413" x="37.496314" y="36.32537" style="stroke: #000000; stroke-width: 0.5"/>
      </g>
     </g>
     <g id="line2d_122">
      <g>
       <use xlink:href="#m0ea4396fea" x="595.496314" y="36.32537" style="stroke: #000000; stroke-width: 0.5"/>
      </g>
     </g>
    </g>
    <g id="ytick_37">
     <g id="line2d_123">
      <g>
       <use xlink:href="#m16c54a8413" x="37.496314" y="27.900611" style="stroke: #000000; stroke-width: 0.5"/>
      </g>
     </g>
     <g id="line2d_124">
      <g>
       <use xlink:href="#m0ea4396fea" x="595.496314" y="27.900611" style="stroke: #000000; stroke-width: 0.5"/>
      </g>
     </g>
    </g>
    <g id="ytick_38">
     <g id="line2d_125">
      <g>
       <use xlink:href="#m16c54a8413" x="37.496314" y="19.475851" style="stroke: #000000; stroke-width: 0.5"/>
      </g>
     </g>
     <g id="line2d_126">
      <g>
       <use xlink:href="#m0ea4396fea" x="595.496314" y="19.475851" style="stroke: #000000; stroke-width: 0.5"/>
      </g>
     </g>
    </g>
    <g id="ytick_39">
     <g id="line2d_127">
      <g>
       <use xlink:href="#m16c54a8413" x="37.496314" y="11.051092" style="stroke: #000000; stroke-width: 0.5"/>
      </g>
     </g>
     <g id="line2d_128">
      <g>
       <use xlink:href="#m0ea4396fea" x="595.496314" y="11.051092" style="stroke: #000000; stroke-width: 0.5"/>
      </g>
     </g>
    </g>
   </g>
   <g id="line2d_129">
    <path d="M 62.85995 148.059167 
L 64.74527 210.143132 
L 66.569773 126.167826 
L 68.455093 73.824521 
L 70.279597 150.259865 
L 72.164917 152.627057 
L 74.050237 147.347347 
L 75.87474 230.575149 
L 77.76006 103.617034 
L 79.584563 88.444498 
L 81.469883 117.700887 
L 83.355203 132.478031 
L 85.058073 158.731542 
L 86.943393 89.28923 
L 88.767896 160.131367 
L 90.653216 154.129532 
L 92.47772 181.520817 
L 94.36304 226.137049 
L 96.24836 120.68488 
L 98.072863 171.349061 
L 99.958183 141.891121 
L 101.782686 76.175286 
L 103.668006 139.010078 
L 105.553327 132.132925 
L 107.256196 186.203455 
L 109.141516 119.390255 
L 110.96602 86.881167 
L 112.85134 86.606382 
L 114.675843 83.411388 
L 116.561163 125.135297 
L 118.446483 131.55652 
L 120.270986 103.909926 
L 122.156306 113.205214 
L 123.98081 119.986511 
L 127.75145 89.492528 
L 129.515136 120.972251 
L 131.400456 143.400137 
L 133.22496 121.996149 
L 135.11028 152.041472 
L 136.934783 106.400104 
L 138.820103 149.253259 
L 140.705423 141.979879 
L 142.529926 107.065997 
L 144.415246 129.336998 
L 146.23975 90.864863 
L 148.12507 107.459279 
L 150.01039 141.59642 
L 151.713259 116.104022 
L 153.598579 132.326075 
L 155.423083 150.759556 
L 157.308403 119.036247 
L 159.132906 112.031058 
L 161.018226 115.104927 
L 162.903546 127.599631 
L 164.728049 127.86305 
L 166.613369 152.665042 
L 168.437873 97.498267 
L 170.323193 112.346129 
L 172.208513 117.949355 
L 173.911383 130.369225 
L 175.796703 117.794658 
L 177.621206 123.525966 
L 179.506526 136.901947 
L 181.331029 153.407312 
L 183.216349 124.258093 
L 185.101669 111.197647 
L 186.926173 109.209923 
L 188.811493 100.312462 
L 190.635996 113.531602 
L 192.521316 112.310206 
L 194.406636 124.406565 
L 196.109506 116.87556 
L 197.994826 151.362651 
L 199.819329 95.718036 
L 201.704649 102.090856 
L 203.529152 127.299033 
L 205.414472 125.377869 
L 207.299792 166.431151 
L 209.124296 104.735628 
L 211.009616 105.392939 
L 212.834119 171.800518 
L 214.719439 119.933308 
L 216.604759 188.249378 
L 218.368446 143.723393 
L 220.253766 152.919532 
L 222.078269 95.431055 
L 223.963589 109.101941 
L 225.788092 167.050327 
L 227.673412 183.431437 
L 229.558732 112.975997 
L 231.383236 172.520142 
L 233.268556 321.12 
L 235.093059 207.084878 
L 236.978379 134.242282 
L 238.863699 140.578001 
L 240.566569 189.885023 
L 242.451889 180.888332 
L 244.276392 33.357717 
L 246.161712 76.754565 
L 247.986216 107.148235 
L 249.871536 120.219687 
L 251.756856 64.956834 
L 253.581359 100.435093 
L 255.466679 110.561684 
L 257.291182 113.044477 
L 259.176502 111.898147 
L 261.061822 119.041583 
L 262.764692 155.209899 
L 264.650012 81.704321 
L 266.474515 96.526376 
L 268.359835 181.441313 
L 270.184339 160.817238 
L 272.069659 131.770722 
L 273.954979 123.18184 
L 275.779482 102.45557 
L 277.664802 92.628747 
L 279.489305 109.584667 
L 281.374625 99.554572 
L 283.259946 101.566396 
L 284.962815 104.081499 
L 286.848135 139.66996 
L 288.672639 111.725724 
L 290.557959 124.706164 
L 292.382462 161.74341 
L 294.267782 104.551928 
L 296.153102 222.977184 
L 297.977605 137.161185 
L 299.862925 105.403602 
L 301.687429 115.704162 
L 303.572749 117.467714 
L 305.458069 91.065163 
L 307.221755 96.025728 
L 309.107075 106.411369 
L 312.816899 156.896462 
L 314.641402 140.246713 
L 316.526722 106.201766 
L 318.412042 102.366581 
L 320.236545 105.339479 
L 322.121865 132.272615 
L 323.946369 154.764835 
L 325.831689 112.379761 
L 327.717009 95.261557 
L 329.419878 111.031116 
L 331.305198 107.80778 
L 333.129702 118.272073 
L 335.015022 92.706139 
L 336.839525 139.892688 
L 338.724845 103.414854 
L 340.610165 128.286152 
L 344.319988 112.747069 
L 346.144492 98.450878 
L 348.029812 117.624789 
L 349.915132 122.230292 
L 351.618002 131.460755 
L 353.503322 107.718157 
L 355.327825 128.663247 
L 357.213145 117.547688 
L 359.037648 103.823852 
L 360.922968 117.818104 
L 362.808288 133.952436 
L 364.632792 115.49144 
L 366.518112 152.988638 
L 368.342615 83.581757 
L 370.227935 125.01024 
L 372.113255 139.766013 
L 373.816125 106.852244 
L 375.701445 129.892386 
L 377.525948 122.996231 
L 379.411268 122.156626 
L 381.235771 134.059122 
L 383.121091 131.067036 
L 386.830915 169.375485 
L 388.716235 94.862892 
L 390.540738 106.090756 
L 392.426058 139.81332 
L 394.311378 186.481803 
L 397.960385 78.546144 
L 399.784888 106.959424 
L 401.670208 133.062526 
L 403.494711 121.550403 
L 405.380031 103.11708 
L 407.265351 120.397077 
L 409.089855 134.159285 
L 410.975175 134.745228 
L 412.799678 120.404729 
L 414.684998 97.812995 
L 416.570318 118.38128 
L 418.273188 108.949458 
L 420.158508 115.75599 
L 421.983011 131.675181 
L 423.868331 116.22566 
L 425.692835 115.51598 
L 429.463475 128.270258 
L 431.287978 116.52989 
L 433.173298 107.588665 
L 434.997801 117.021061 
L 436.883121 106.330367 
L 438.768441 90.232427 
L 440.471311 154.95344 
L 442.356631 129.742379 
L 444.181134 144.45603 
L 446.066454 113.938503 
L 447.890958 112.67222 
L 449.776278 117.064959 
L 451.661598 109.861987 
L 453.486101 116.21842 
L 455.371421 163.383226 
L 457.195924 148.032926 
L 459.081244 178.670123 
L 460.966565 115.946878 
L 462.669434 82.647307 
L 464.554754 114.10847 
L 466.379258 99.52759 
L 468.264578 143.361909 
L 470.089081 118.597308 
L 471.974401 98.668026 
L 473.859721 157.193985 
L 475.684224 104.735378 
L 477.569544 130.263171 
L 479.394048 93.749809 
L 481.279368 109.725622 
L 483.164688 102.512934 
L 484.928374 129.226133 
L 486.813694 307.23342 
L 488.638198 94.891267 
L 490.523518 82.235534 
L 492.348021 77.225267 
L 494.233341 101.512416 
L 496.118661 81.983125 
L 497.943164 135.529211 
L 501.652988 97.486598 
L 503.538308 94.961118 
L 505.423628 106.848939 
L 507.126497 109.313472 
L 509.011817 123.144178 
L 510.836321 80.713326 
L 512.721641 123.58874 
L 514.546144 114.838425 
L 516.431464 104.467942 
L 518.316784 111.705374 
L 520.141287 130.637861 
L 522.026607 126.128919 
L 523.851111 90.840297 
L 525.736431 127.665575 
L 527.621751 147.391326 
L 529.324621 154.776714 
L 531.209941 137.533094 
L 533.034444 128.99182 
L 534.919764 199.168056 
L 536.744267 159.012925 
L 538.629587 126.240157 
L 540.514907 77.446631 
L 542.339411 193.835741 
L 544.224731 156.680964 
L 546.049234 86.788138 
L 547.934554 130.096862 
L 549.819874 118.665882 
L 551.522744 104.052079 
L 553.408064 152.264069 
L 555.232567 97.146938 
L 557.117887 123.962646 
L 558.94239 89.463881 
L 560.82771 98.029341 
L 562.71303 138.529477 
L 564.537534 138.169691 
L 566.422854 156.122029 
L 568.247357 92.190413 
L 570.132677 87.536163 
L 570.132677 87.536163 
" clip-path="url(#p755a82c722)" style="fill: none; stroke-dasharray: 3.7,1.6; stroke-dashoffset: 0; stroke: #000000"/>
   </g>
   <g id="line2d_130">
    <path d="M 62.85995 120.361382 
L 64.74527 123.078102 
L 66.569773 132.642128 
L 68.455093 127.901164 
L 70.279597 112.090574 
L 72.164917 122.179255 
L 74.050237 126.529447 
L 75.87474 119.885662 
L 77.76006 154.704415 
L 79.584563 120.455751 
L 81.469883 122.887417 
L 83.355203 131.991071 
L 85.058073 133.253 
L 86.943393 136.801983 
L 88.767896 126.841227 
L 90.653216 134.65532 
L 92.47772 133.908354 
L 94.36304 130.475915 
L 96.24836 142.524755 
L 98.072863 119.384148 
L 99.958183 128.362779 
L 101.782686 126.293838 
L 103.668006 115.302718 
L 105.553327 124.928381 
L 107.256196 125.654756 
L 109.141516 134.738656 
L 110.96602 122.939251 
L 112.85134 123.244196 
L 114.675843 113.892465 
L 116.561163 112.355816 
L 118.446483 140.584619 
L 120.270986 130.899335 
L 122.156306 119.505903 
L 125.86613 126.248263 
L 127.75145 122.655803 
L 129.515136 112.96419 
L 131.400456 123.680251 
L 133.22496 122.46385 
L 135.11028 136.004591 
L 136.934783 131.501294 
L 138.820103 121.375636 
L 140.705423 124.686365 
L 142.529926 123.063243 
L 144.415246 119.041618 
L 146.23975 125.29056 
L 148.12507 119.65528 
L 150.01039 121.292666 
L 151.713259 125.974665 
L 153.598579 122.305129 
L 155.423083 129.228145 
L 157.308403 125.773356 
L 159.132906 120.958048 
L 161.018226 120.154859 
L 162.903546 125.457124 
L 164.728049 125.577713 
L 166.613369 124.229129 
L 168.437873 129.973518 
L 170.323193 121.239684 
L 172.208513 121.13419 
L 173.911383 122.811924 
L 175.796703 127.513324 
L 177.621206 125.147911 
L 179.506526 128.849164 
L 181.331029 127.385458 
L 183.216349 129.091595 
L 185.101669 123.903393 
L 186.926173 116.983585 
L 188.811493 117.246641 
L 190.635996 117.218275 
L 194.406636 119.910526 
L 196.109506 127.934167 
L 197.994826 122.9021 
L 199.819329 125.331479 
L 201.704649 121.825143 
L 203.529152 120.754566 
L 205.414472 128.77929 
L 207.299792 122.382408 
L 209.124296 123.679907 
L 211.009616 117.609067 
L 212.834119 119.645192 
L 214.719439 121.384768 
L 216.604759 123.452244 
L 218.368446 124.325355 
L 220.253766 127.566909 
L 222.078269 122.085973 
L 223.963589 123.900099 
L 225.788092 125.105818 
L 227.673412 134.673155 
L 229.558732 130.829943 
L 231.383236 119.487025 
L 233.268556 125.297458 
L 235.093059 185.260429 
L 236.978379 168.930003 
L 238.863699 119.121731 
L 240.566569 175.403075 
L 242.451889 198.629903 
L 244.276392 149.01666 
L 246.161712 104.992881 
L 247.986216 168.52597 
L 249.871536 113.496046 
L 251.756856 125.915809 
L 253.581359 124.794863 
L 255.466679 125.860531 
L 257.291182 112.530355 
L 259.176502 83.547362 
L 261.061822 108.22141 
L 262.764692 113.033326 
L 264.650012 127.713209 
L 266.474515 116.840254 
L 268.359835 122.012619 
L 270.184339 131.404629 
L 272.069659 127.258564 
L 273.954979 125.062828 
L 275.779482 115.425616 
L 277.664802 123.406832 
L 279.489305 116.19145 
L 281.374625 134.32796 
L 283.259946 139.677764 
L 284.962815 115.423991 
L 286.848135 128.483689 
L 288.672639 124.375425 
L 290.557959 125.037858 
L 292.382462 119.580172 
L 294.267782 128.232413 
L 296.153102 121.452499 
L 297.977605 129.74611 
L 299.862925 115.112642 
L 301.687429 135.236038 
L 303.572749 114.997572 
L 305.458069 123.23887 
L 307.221755 115.34485 
L 309.107075 119.142946 
L 310.931579 136.536954 
L 312.816899 118.851122 
L 314.641402 119.581256 
L 316.526722 116.861576 
L 318.412042 117.085884 
L 320.236545 133.549032 
L 322.121865 116.482736 
L 323.946369 129.498326 
L 325.831689 129.736481 
L 327.717009 125.815227 
L 329.419878 131.540292 
L 331.305198 120.136746 
L 333.129702 121.516494 
L 335.015022 117.583224 
L 336.839525 128.637232 
L 338.724845 145.169089 
L 340.610165 116.70787 
L 342.434668 124.477873 
L 344.319988 124.688466 
L 346.144492 120.167059 
L 348.029812 128.147689 
L 349.915132 130.088112 
L 351.618002 124.867868 
L 353.503322 122.96993 
L 355.327825 123.074158 
L 357.213145 126.361161 
L 359.037648 121.153568 
L 360.922968 124.185099 
L 362.808288 121.03492 
L 366.518112 127.496933 
L 368.342615 124.595247 
L 370.227935 118.415965 
L 372.113255 118.128707 
L 373.816125 114.053166 
L 375.701445 129.345776 
L 377.525948 125.663816 
L 379.411268 121.486809 
L 381.235771 135.050341 
L 383.121091 123.365473 
L 385.006411 121.757167 
L 386.830915 124.639275 
L 388.716235 134.445279 
L 390.540738 114.18305 
L 392.426058 131.032384 
L 394.311378 124.264599 
L 396.075065 136.275036 
L 397.960385 112.294153 
L 399.784888 120.355775 
L 401.670208 116.985669 
L 403.494711 126.218184 
L 405.380031 121.116975 
L 407.265351 115.203691 
L 409.089855 128.530582 
L 412.799678 127.686592 
L 414.684998 129.274614 
L 416.570318 119.69897 
L 418.273188 121.367238 
L 420.158508 123.971836 
L 421.983011 126.799467 
L 423.868331 123.571707 
L 425.692835 123.647739 
L 427.578155 120.830633 
L 429.463475 127.841411 
L 431.287978 123.224917 
L 433.173298 123.434424 
L 434.997801 125.340465 
L 436.883121 123.246283 
L 438.768441 122.416196 
L 440.471311 122.736646 
L 442.356631 131.738708 
L 444.181134 123.865546 
L 446.066454 126.673253 
L 447.890958 122.788804 
L 449.776278 121.207468 
L 451.661598 123.625676 
L 453.486101 122.587683 
L 455.371421 125.091847 
L 457.195924 130.865927 
L 459.081244 127.189241 
L 460.966565 130.289857 
L 462.669434 119.594014 
L 464.554754 114.405714 
L 466.379258 119.41573 
L 468.264578 118.867379 
L 470.089081 124.013085 
L 471.974401 115.233257 
L 473.859721 107.410614 
L 475.684224 127.741962 
L 477.569544 121.158139 
L 479.394048 126.437392 
L 481.279368 122.210628 
L 483.164688 122.488335 
L 484.928374 124.851307 
L 486.813694 129.832239 
L 488.638198 165.959102 
L 490.523518 120.274972 
L 492.348021 130.230809 
L 494.233341 117.429967 
L 496.118661 110.271141 
L 497.943164 116.01009 
L 499.828484 127.932266 
L 501.652988 127.023773 
L 503.538308 118.347743 
L 505.423628 113.727655 
L 507.126497 126.71275 
L 509.011817 118.083779 
L 510.836321 123.779564 
L 512.721641 115.315157 
L 514.546144 123.124867 
L 516.431464 123.045554 
L 518.316784 114.439574 
L 520.141287 119.946529 
L 522.026607 128.91617 
L 523.851111 124.071411 
L 525.736431 117.183764 
L 527.621751 127.199097 
L 529.324621 126.284586 
L 531.209941 128.251802 
L 533.034444 127.886689 
L 534.919764 130.296309 
L 536.744267 131.742597 
L 538.629587 126.993633 
L 540.514907 124.930879 
L 542.339411 111.267557 
L 544.224731 147.483211 
L 546.049234 133.256311 
L 547.934554 110.90441 
L 549.819874 125.914299 
L 551.522744 120.228343 
L 553.408064 126.941257 
L 555.232567 127.381371 
L 557.117887 116.478131 
L 558.94239 131.026392 
L 560.82771 120.191897 
L 562.71303 119.876413 
L 564.537534 133.741337 
L 566.422854 129.333321 
L 568.247357 131.82351 
L 570.132677 113.959915 
L 570.132677 113.959915 
" clip-path="url(#p755a82c722)" style="fill: none; stroke: #ff0000; stroke-linecap: square"/>
   </g>
   <g id="patch_3">
    <path d="M 37.496314 336.24 
L 37.496314 3.6 
" style="fill: none; stroke: #000000; stroke-width: 0.5; stroke-linejoin: miter; stroke-linecap: square"/>
   </g>
   <g id="patch_4">
    <path d="M 595.496314 336.24 
L 595.496314 3.6 
" style="fill: none; stroke: #000000; stroke-width: 0.5; stroke-linejoin: miter; stroke-linecap: square"/>
   </g>
   <g id="patch_5">
    <path d="M 37.496314 336.24 
L 595.496314 336.24 
" style="fill: none; stroke: #000000; stroke-width: 0.5; stroke-linejoin: miter; stroke-linecap: square"/>
   </g>
   <g id="patch_6">
    <path d="M 37.496314 3.6 
L 595.496314 3.6 
" style="fill: none; stroke: #000000; stroke-width: 0.5; stroke-linejoin: miter; stroke-linecap: square"/>
   </g>
   <g id="legend_1">
    <g id="line2d_131">
     <path d="M 48.296314 284.23564 
L 60.296314 284.23564 
L 72.296314 284.23564 
" style="fill: none; stroke-dasharray: 3.7,1.6; stroke-dashoffset: 0; stroke: #000000"/>
    </g>
    <g id="text_14">
     <!-- rendimenti SP 500 -->
     <g transform="translate(81.896314 288.43564) scale(0.12 -0.12)">
      <defs>
       <path id="CMR17-72" d="M 960 1517 
C 960 2134 1222 2713 1702 2713 
C 1747 2713 1792 2707 1837 2687 
C 1837 2687 1696 2642 1696 2475 
C 1696 2321 1818 2257 1914 2257 
C 1990 2257 2131 2302 2131 2482 
C 2131 2687 1926 2816 1709 2816 
C 1222 2816 1011 2340 947 2115 
L 941 2115 
L 941 2816 
L 198 2745 
L 198 2578 
C 576 2578 634 2540 634 2231 
L 634 443 
C 634 198 608 166 198 166 
L 198 0 
C 352 12 646 12 813 12 
C 998 12 1325 12 1498 0 
L 1498 166 
C 1037 166 960 166 960 455 
L 960 1517 
z
" transform="scale(0.015625)"/>
       <path id="CMR17-65" d="M 2438 1503 
C 2464 1529 2464 1542 2464 1606 
C 2464 2251 2118 2816 1389 2816 
C 710 2816 173 2175 173 1394 
C 173 554 781 -64 1459 -64 
C 2176 -64 2458 619 2458 755 
C 2458 800 2419 800 2406 800 
C 2362 800 2355 787 2330 709 
C 2189 270 1837 51 1504 51 
C 1229 51 954 206 781 490 
C 582 819 582 1200 582 1503 
L 2438 1503 
z
M 589 1600 
C 634 2511 1126 2713 1382 2713 
C 1818 2713 2112 2308 2118 1600 
L 589 1600 
z
" transform="scale(0.015625)"/>
       <path id="CMR17-6e" d="M 2656 1954 
C 2656 2282 2592 2816 1837 2816 
C 1331 2816 1069 2424 973 2166 
L 966 2166 
L 966 2816 
L 211 2745 
L 211 2578 
C 589 2578 646 2540 646 2231 
L 646 443 
C 646 198 621 166 211 166 
L 211 0 
C 365 12 646 12 813 12 
C 979 12 1267 12 1421 0 
L 1421 166 
C 1011 166 986 192 986 443 
L 986 1678 
C 986 2269 1344 2713 1792 2713 
C 2266 2713 2317 2289 2317 1980 
L 2317 443 
C 2317 198 2291 166 1882 166 
L 1882 0 
C 2035 12 2317 12 2483 12 
C 2650 12 2938 12 3091 0 
L 3091 166 
C 2682 166 2656 192 2656 443 
L 2656 1954 
z
" transform="scale(0.015625)"/>
       <path id="CMR17-64" d="M 1869 4345 
L 1869 4179 
C 2246 4179 2304 4141 2304 3843 
L 2304 2371 
C 2278 2403 2016 2816 1498 2816 
C 845 2816 211 2228 211 1376 
C 211 529 806 -64 1434 -64 
C 1978 -64 2259 361 2291 406 
L 2291 -64 
L 3066 -13 
L 3066 154 
C 2688 154 2630 193 2630 503 
L 2630 4416 
L 1869 4345 
z
M 2291 762 
C 2291 568 2176 393 2029 264 
C 1811 70 1594 38 1472 38 
C 1286 38 621 135 621 1369 
C 621 2636 1363 2713 1530 2713 
C 1824 2713 2061 2545 2208 2313 
C 2291 2177 2291 2157 2291 2041 
L 2291 762 
z
" transform="scale(0.015625)"/>
       <path id="CMR17-69" d="M 992 3961 
C 992 4102 877 4224 730 4224 
C 589 4224 467 4108 467 3961 
C 467 3820 582 3699 730 3699 
C 870 3699 992 3814 992 3961 
z
M 243 2745 
L 243 2579 
C 602 2579 653 2540 653 2231 
L 653 443 
C 653 198 627 166 218 166 
L 218 0 
C 371 12 646 12 806 12 
C 960 12 1222 12 1370 0 
L 1370 166 
C 992 166 979 205 979 436 
L 979 2816 
L 243 2745 
z
" transform="scale(0.015625)"/>
       <path id="CMR17-6d" d="M 4326 1954 
C 4326 2276 4269 2816 3507 2816 
C 3072 2816 2771 2520 2656 2173 
L 2650 2173 
C 2573 2700 2195 2816 1837 2816 
C 1331 2816 1069 2424 973 2166 
L 966 2166 
L 966 2816 
L 211 2745 
L 211 2578 
C 589 2578 646 2540 646 2231 
L 646 443 
C 646 198 621 166 211 166 
L 211 0 
C 365 12 646 12 813 12 
C 979 12 1267 12 1421 0 
L 1421 166 
C 1011 166 986 192 986 443 
L 986 1678 
C 986 2269 1344 2713 1792 2713 
C 2266 2713 2317 2289 2317 1980 
L 2317 443 
C 2317 198 2291 166 1882 166 
L 1882 0 
C 2035 12 2317 12 2483 12 
C 2650 12 2938 12 3091 0 
L 3091 166 
C 2682 166 2656 192 2656 443 
L 2656 1678 
C 2656 2269 3014 2713 3462 2713 
C 3936 2713 3987 2289 3987 1980 
L 3987 443 
C 3987 198 3962 166 3552 166 
L 3552 0 
C 3706 12 3987 12 4154 12 
C 4320 12 4608 12 4762 0 
L 4762 166 
C 4352 166 4326 192 4326 443 
L 4326 1954 
z
" transform="scale(0.015625)"/>
       <path id="CMR17-74" d="M 966 2585 
L 1862 2585 
L 1862 2752 
L 966 2752 
L 966 3968 
L 851 3968 
C 838 3292 614 2700 70 2687 
L 70 2585 
L 627 2585 
L 627 778 
C 627 655 627 -64 1370 -64 
C 1747 -64 1965 308 1965 784 
L 1965 1151 
L 1850 1151 
L 1850 790 
C 1850 347 1677 51 1408 51 
C 1222 51 966 179 966 765 
L 966 2585 
z
" transform="scale(0.015625)"/>
       <path id="CMR17-53" d="M 2803 4351 
C 2803 4467 2797 4473 2758 4473 
C 2720 4473 2707 4447 2682 4390 
L 2490 3965 
C 2246 4320 1875 4480 1472 4480 
C 819 4480 294 3958 294 3301 
C 294 3101 339 2817 557 2546 
C 794 2250 1018 2198 1530 2063 
C 1722 2011 2042 1927 2106 1901 
C 2470 1747 2662 1360 2662 999 
C 2662 534 2336 38 1779 38 
C 1094 38 454 425 410 1328 
C 403 1431 397 1437 352 1437 
C 301 1437 294 1431 294 1302 
L 294 0 
C 294 -116 301 -122 339 -122 
C 384 -122 397 -90 486 109 
C 493 128 493 141 614 386 
C 934 -39 1472 -128 1779 -128 
C 2477 -128 2970 457 2970 1141 
C 2970 1476 2848 1734 2778 1850 
C 2509 2263 2221 2340 1914 2417 
C 1869 2437 1856 2437 1498 2527 
C 1152 2617 1005 2662 845 2836 
C 666 3036 602 3243 602 3449 
C 602 3868 934 4326 1478 4326 
C 2157 4326 2579 3842 2675 3036 
C 2694 2920 2701 2914 2746 2914 
C 2803 2914 2803 2933 2803 3043 
L 2803 4351 
z
" transform="scale(0.015625)"/>
       <path id="CMR17-50" d="M 1267 2048 
L 2291 2048 
C 3117 2048 3718 2583 3718 3187 
C 3718 3791 3130 4352 2291 4352 
L 333 4352 
L 333 4185 
C 774 4185 845 4185 845 3899 
L 845 453 
C 845 166 774 166 333 166 
L 333 0 
C 518 12 858 12 1056 12 
C 1254 12 1594 12 1779 0 
L 1779 166 
C 1338 166 1267 166 1267 453 
L 1267 2048 
z
M 1254 2182 
L 1254 3937 
C 1254 4153 1267 4185 1523 4185 
L 2170 4185 
C 2995 4185 3232 3715 3232 3187 
C 3232 2608 2950 2182 2170 2182 
L 1254 2182 
z
" transform="scale(0.015625)"/>
      </defs>
      <use xlink:href="#CMR17-72" transform="scale(0.996264)"/>
      <use xlink:href="#CMR17-65" transform="translate(35.280768 0) scale(0.996264)"/>
      <use xlink:href="#CMR17-6e" transform="translate(75.766428 0) scale(0.996264)"/>
      <use xlink:href="#CMR17-64" transform="translate(126.661798 0) scale(0.996264)"/>
      <use xlink:href="#CMR17-69" transform="translate(177.557168 0) scale(0.996264)"/>
      <use xlink:href="#CMR17-6d" transform="translate(202.428226 0) scale(0.996264)"/>
      <use xlink:href="#CMR17-65" transform="translate(279.347816 0) scale(0.996264)"/>
      <use xlink:href="#CMR17-6e" transform="translate(319.833477 0) scale(0.996264)"/>
      <use xlink:href="#CMR17-74" transform="translate(368.126392 0) scale(0.996264)"/>
      <use xlink:href="#CMR17-69" transform="translate(403.40716 0) scale(0.996264)"/>
      <use xlink:href="#CMR17-53" transform="translate(458.354185 0) scale(0.996264)"/>
      <use xlink:href="#CMR17-50" transform="translate(509.249555 0) scale(0.996264)"/>
      <use xlink:href="#CMR17-35" transform="translate(601.911822 0) scale(0.996264)"/>
      <use xlink:href="#CMR17-30" transform="translate(647.602299 0) scale(0.996264)"/>
      <use xlink:href="#CMR17-30" transform="translate(693.292776 0) scale(0.996264)"/>
     </g>
    </g>
    <g id="line2d_132">
     <path d="M 48.296314 301.526612 
L 60.296314 301.526612 
L 72.296314 301.526612 
" style="fill: none; stroke: #ff0000; stroke-linecap: square"/>
    </g>
    <g id="text_15">
     <!-- combined forecast (BIC) -->
     <g transform="translate(81.896314 305.726612) scale(0.12 -0.12)">
      <defs>
       <path id="CMR17-63" d="M 2234 2240 
C 2112 2240 1933 2240 1933 2015 
C 1933 1836 2080 1785 2163 1785 
C 2208 1785 2394 1804 2394 2028 
C 2394 2476 1958 2816 1466 2816 
C 787 2816 211 2201 211 1379 
C 211 521 813 -64 1466 -64 
C 2259 -64 2458 676 2458 747 
C 2458 773 2451 792 2406 792 
C 2362 792 2355 786 2330 702 
C 2163 180 1798 51 1523 51 
C 1114 51 621 431 621 1385 
C 621 2358 1094 2700 1472 2700 
C 1722 2700 2093 2582 2234 2240 
z
" transform="scale(0.015625)"/>
       <path id="CMR17-6f" d="M 2758 1356 
C 2758 2176 2163 2816 1466 2816 
C 768 2816 173 2176 173 1356 
C 173 550 768 -64 1466 -64 
C 2163 -64 2758 550 2758 1356 
z
M 1466 51 
C 1165 51 909 230 762 480 
C 602 768 582 1126 582 1408 
C 582 1676 595 2009 762 2297 
C 890 2508 1139 2713 1466 2713 
C 1754 2713 1997 2553 2150 2329 
C 2349 2028 2349 1606 2349 1408 
C 2349 1158 2336 774 2163 467 
C 1984 172 1709 51 1466 51 
z
" transform="scale(0.015625)"/>
       <path id="CMR17-62" d="M 960 4416 
L 198 4345 
L 198 4179 
C 576 4179 634 4141 634 3843 
L 634 -13 
L 749 -13 
L 934 445 
C 1120 141 1395 -64 1766 -64 
C 2406 -64 3053 503 3053 1382 
C 3053 2209 2477 2816 1830 2816 
C 1434 2816 1152 2603 960 2351 
L 960 4416 
z
M 973 2022 
C 973 2138 973 2157 1062 2293 
C 1312 2681 1670 2713 1792 2713 
C 1984 2713 2643 2610 2643 1388 
C 2643 109 1888 38 1734 38 
C 1536 38 1248 115 1043 490 
C 973 613 973 626 973 742 
L 973 2022 
z
" transform="scale(0.015625)"/>
       <path id="CMR17-66" d="M 979 2585 
L 1709 2585 
L 1709 2752 
L 966 2752 
L 966 3539 
C 966 4076 1235 4377 1510 4377 
C 1594 4377 1690 4363 1754 4339 
C 1702 4326 1568 4281 1568 4121 
C 1568 3955 1696 3904 1786 3904 
C 1875 3904 2003 3955 2003 4121 
C 2003 4353 1773 4480 1517 4480 
C 1152 4480 653 4211 653 3526 
L 653 2752 
L 141 2752 
L 141 2585 
L 653 2585 
L 653 441 
C 653 198 627 166 218 166 
L 218 0 
C 371 12 666 12 832 12 
C 1018 12 1344 12 1517 0 
L 1517 166 
C 1056 166 979 166 979 454 
L 979 2585 
z
" transform="scale(0.015625)"/>
       <path id="CMR17-61" d="M 2304 1656 
C 2304 2048 2304 2275 2035 2534 
C 1798 2751 1523 2816 1306 2816 
C 800 2816 435 2408 435 1977 
C 435 1740 627 1728 666 1728 
C 749 1728 896 1779 896 1958 
C 896 2118 774 2188 666 2188 
C 640 2188 608 2182 589 2176 
C 723 2594 1069 2713 1293 2713 
C 1613 2713 1965 2421 1965 1875 
L 1965 1632 
C 1587 1619 1133 1568 774 1373 
C 371 1147 256 822 256 576 
C 256 77 832 -64 1171 -64 
C 1523 -64 1850 135 1990 505 
C 2003 219 2182 -39 2464 -39 
C 2598 -39 2938 51 2938 563 
L 2938 926 
L 2822 926 
L 2822 557 
C 2822 161 2650 109 2566 109 
C 2304 109 2304 446 2304 732 
L 2304 1656 
z
M 1965 887 
C 1965 323 1568 38 1216 38 
C 896 38 646 278 646 576 
C 646 771 730 1114 1101 1322 
C 1408 1497 1760 1523 1965 1536 
L 1965 887 
z
" transform="scale(0.015625)"/>
       <path id="CMR17-73" d="M 1978 2688 
C 1978 2803 1971 2809 1933 2809 
C 1907 2809 1901 2803 1824 2707 
C 1805 2681 1747 2617 1728 2592 
C 1523 2809 1235 2816 1126 2816 
C 416 2816 160 2444 160 2073 
C 160 1497 813 1363 998 1324 
C 1402 1241 1542 1216 1677 1100 
C 1760 1024 1901 883 1901 652 
C 1901 384 1747 38 1158 38 
C 602 38 403 460 288 1024 
C 269 1113 269 1120 218 1120 
C 166 1120 160 1113 160 985 
L 160 64 
C 160 -52 166 -58 205 -58 
C 237 -58 243 -52 275 0 
C 314 57 410 211 448 275 
C 576 102 800 -64 1158 -64 
C 1792 -64 2131 281 2131 780 
C 2131 1107 1958 1280 1875 1356 
C 1683 1555 1459 1600 1190 1651 
C 838 1728 390 1817 390 2208 
C 390 2374 480 2726 1126 2726 
C 1811 2726 1850 2086 1862 1881 
C 1869 1849 1901 1843 1920 1843 
C 1978 1843 1978 1862 1978 1971 
L 1978 2688 
z
" transform="scale(0.015625)"/>
       <path id="CMR17-28" d="M 1958 -1562 
C 1958 -1556 1958 -1543 1939 -1524 
C 1645 -1223 858 -403 858 1596 
C 858 3595 1632 4408 1946 4729 
C 1946 4735 1958 4748 1958 4767 
C 1958 4787 1939 4800 1914 4800 
C 1843 4800 1299 4325 986 3620 
C 666 2909 576 2218 576 1603 
C 576 1141 621 360 1005 -467 
C 1312 -1133 1837 -1600 1914 -1600 
C 1946 -1600 1958 -1588 1958 -1562 
z
" transform="scale(0.015625)"/>
       <path id="CMR17-42" d="M 333 4352 
L 333 4185 
C 774 4185 845 4185 845 3897 
L 845 451 
C 845 166 774 166 333 166 
L 333 0 
L 2534 0 
C 3354 0 3885 578 3885 1155 
C 3885 1726 3360 2214 2675 2259 
C 3290 2380 3718 2790 3718 3276 
C 3718 3808 3194 4352 2368 4352 
L 333 4352 
z
M 1248 2304 
L 1248 3936 
C 1248 4153 1261 4185 1517 4185 
L 2336 4185 
C 2970 4185 3251 3673 3251 3276 
C 3251 2790 2861 2304 2170 2304 
L 1248 2304 
z
M 1517 166 
C 1261 166 1248 198 1248 413 
L 1248 2201 
L 2432 2201 
C 3091 2201 3411 1624 3411 1161 
C 3411 698 3046 166 2349 166 
L 1517 166 
z
" transform="scale(0.015625)"/>
       <path id="CMR17-49" d="M 1261 3898 
C 1261 4185 1338 4185 1798 4185 
L 1798 4352 
C 1594 4339 1267 4339 1050 4339 
C 832 4339 506 4339 301 4352 
L 301 4185 
C 762 4185 838 4185 838 3898 
L 838 453 
C 838 166 762 166 301 166 
L 301 0 
C 506 12 832 12 1050 12 
C 1267 12 1594 12 1798 0 
L 1798 166 
C 1338 166 1261 166 1261 453 
L 1261 3898 
z
" transform="scale(0.015625)"/>
       <path id="CMR17-43" d="M 3974 4351 
C 3974 4467 3968 4473 3930 4473 
C 3904 4473 3898 4467 3853 4390 
L 3571 3849 
C 3258 4249 2874 4480 2381 4480 
C 1286 4480 294 3507 294 2179 
C 294 837 1286 -128 2387 -128 
C 3366 -128 3974 741 3974 1482 
C 3974 1547 3974 1573 3917 1573 
C 3866 1573 3866 1553 3859 1495 
C 3808 592 3168 38 2477 38 
C 1824 38 781 502 781 2179 
C 781 3862 1843 4313 2464 4313 
C 3187 4313 3712 3681 3834 2785 
C 3846 2707 3846 2695 3904 2695 
C 3974 2695 3974 2707 3974 2824 
L 3974 4351 
z
" transform="scale(0.015625)"/>
       <path id="CMR17-29" d="M 1683 1596 
C 1683 2057 1638 2839 1254 3665 
C 947 4332 422 4800 346 4800 
C 326 4800 301 4793 301 4761 
C 301 4748 307 4742 314 4729 
C 621 4408 1402 3595 1402 1603 
C 1402 -396 627 -1210 314 -1530 
C 307 -1543 301 -1549 301 -1562 
C 301 -1594 326 -1600 346 -1600 
C 416 -1600 960 -1127 1274 -422 
C 1594 289 1683 981 1683 1596 
z
" transform="scale(0.015625)"/>
      </defs>
      <use xlink:href="#CMR17-63" transform="scale(0.996264)"/>
      <use xlink:href="#CMR17-6f" transform="translate(40.48566 0) scale(0.996264)"/>
      <use xlink:href="#CMR17-6d" transform="translate(86.176138 0) scale(0.996264)"/>
      <use xlink:href="#CMR17-62" transform="translate(160.493274 0) scale(0.996264)"/>
      <use xlink:href="#CMR17-69" transform="translate(211.388643 0) scale(0.996264)"/>
      <use xlink:href="#CMR17-6e" transform="translate(236.259702 0) scale(0.996264)"/>
      <use xlink:href="#CMR17-65" transform="translate(287.155072 0) scale(0.996264)"/>
      <use xlink:href="#CMR17-64" transform="translate(327.640732 0) scale(0.996264)"/>
      <use xlink:href="#CMR17-66" transform="translate(408.612068 0) scale(0.996264)"/>
      <use xlink:href="#CMR17-6f" transform="translate(436.085581 0) scale(0.996264)"/>
      <use xlink:href="#CMR17-72" transform="translate(481.776058 0) scale(0.996264)"/>
      <use xlink:href="#CMR17-65" transform="translate(517.056825 0) scale(0.996264)"/>
      <use xlink:href="#CMR17-63" transform="translate(557.542486 0) scale(0.996264)"/>
      <use xlink:href="#CMR17-61" transform="translate(598.028146 0) scale(0.996264)"/>
      <use xlink:href="#CMR17-73" transform="translate(643.718624 0) scale(0.996264)"/>
      <use xlink:href="#CMR17-74" transform="translate(679.519961 0) scale(0.996264)"/>
      <use xlink:href="#CMR17-28" transform="translate(744.876695 0) scale(0.996264)"/>
      <use xlink:href="#CMR17-42" transform="translate(780.157463 0) scale(0.996264)"/>
      <use xlink:href="#CMR17-49" transform="translate(845.346218 0) scale(0.996264)"/>
      <use xlink:href="#CMR17-43" transform="translate(877.984627 0) scale(0.996264)"/>
      <use xlink:href="#CMR17-29" transform="translate(944.494507 0) scale(0.996264)"/>
     </g>
    </g>
    <g id="patch_7">
     <path d="M 48.296314 323.115404 
L 72.296314 323.115404 
L 72.296314 314.715404 
L 48.296314 314.715404 
z
" style="fill: #808080; fill-opacity: 0.3; stroke: #808080; stroke-opacity: 0.3; stroke-linejoin: miter"/>
    </g>
    <g id="text_16">
     <!-- 99 perc. CI -->
     <g transform="translate(81.896314 323.115404) scale(0.12 -0.12)">
      <defs>
       <path id="CMR17-39" d="M 2253 1871 
C 2253 448 1670 25 1190 25 
C 1043 25 685 43 538 281 
C 704 256 826 345 826 505 
C 826 678 685 736 595 736 
C 538 736 365 710 365 492 
C 365 68 742 -128 1203 -128 
C 1939 -128 2688 665 2688 2090 
C 2688 3857 1971 4224 1485 4224 
C 851 4224 243 3664 243 2800 
C 243 2000 762 1408 1414 1408 
C 1952 1408 2189 1910 2253 2122 
L 2253 1871 
z
M 1427 1510 
C 1254 1510 1011 1542 813 1929 
C 678 2181 678 2477 678 2793 
C 678 3174 678 3438 858 3722 
C 947 3857 1114 4076 1485 4076 
C 2240 4076 2240 2909 2240 2651 
C 2240 2193 2035 1510 1427 1510 
z
" transform="scale(0.015625)"/>
       <path id="CMR17-70" d="M 1408 -1114 
C 998 -1114 973 -1088 973 -834 
L 973 380 
C 1158 109 1427 -64 1766 -64 
C 2406 -64 3053 503 3053 1382 
C 3053 2196 2496 2816 1837 2816 
C 1453 2816 1139 2603 960 2345 
L 960 2816 
L 198 2745 
L 198 2577 
C 576 2577 634 2539 634 2228 
L 634 -834 
C 634 -1081 608 -1114 198 -1114 
L 198 -1280 
C 352 -1268 634 -1268 800 -1268 
C 966 -1268 1254 -1268 1408 -1280 
L 1408 -1114 
z
M 973 2015 
C 973 2106 973 2241 1222 2481 
C 1254 2506 1472 2700 1792 2700 
C 2259 2700 2643 2112 2643 1376 
C 2643 639 2234 38 1728 38 
C 1498 38 1248 148 1056 451 
C 973 594 973 632 973 736 
L 973 2015 
z
" transform="scale(0.015625)"/>
       <path id="CMR17-2e" d="M 1062 262 
C 1062 422 934 524 800 524 
C 672 524 538 422 538 262 
C 538 102 666 0 800 0 
C 928 0 1062 102 1062 262 
z
" transform="scale(0.015625)"/>
      </defs>
      <use xlink:href="#CMR17-39" transform="scale(0.996264)"/>
      <use xlink:href="#CMR17-39" transform="translate(45.690477 0) scale(0.996264)"/>
      <use xlink:href="#CMR17-70" transform="translate(121.456921 0) scale(0.996264)"/>
      <use xlink:href="#CMR17-65" transform="translate(174.954729 0) scale(0.996264)"/>
      <use xlink:href="#CMR17-72" transform="translate(215.44039 0) scale(0.996264)"/>
      <use xlink:href="#CMR17-63" transform="translate(250.721157 0) scale(0.996264)"/>
      <use xlink:href="#CMR17-2e" transform="translate(291.206818 0) scale(0.996264)"/>
      <use xlink:href="#CMR17-43" transform="translate(356.563537 0) scale(0.996264)"/>
      <use xlink:href="#CMR17-49" transform="translate(423.073417 0) scale(0.996264)"/>
     </g>
    </g>
   </g>
  </g>
 </g>
 <defs>
  <clipPath id="p755a82c722">
   <rect x="37.496314" y="3.6" width="558" height="332.64"/>
  </clipPath>
 </defs>
</svg>
