<?xml version="1.0" encoding="utf-8" standalone="no"?>
<!DOCTYPE svg PUBLIC "-//W3C//DTD SVG 1.1//EN"
  "http://www.w3.org/Graphics/SVG/1.1/DTD/svg11.dtd">
<svg xmlns:xlink="http://www.w3.org/1999/xlink" width="599.096314pt" height="359.281364pt" viewBox="0 0 599.096314 359.281364" xmlns="http://www.w3.org/2000/svg" version="1.1">
 <metadata>
  <rdf:RDF xmlns:dc="http://purl.org/dc/elements/1.1/" xmlns:cc="http://creativecommons.org/ns#" xmlns:rdf="http://www.w3.org/1999/02/22-rdf-syntax-ns#">
   <cc:Work>
    <dc:type rdf:resource="http://purl.org/dc/dcmitype/StillImage"/>
    <dc:date>2025-04-07T20:52:07.220367</dc:date>
    <dc:format>image/svg+xml</dc:format>
    <dc:creator>
     <cc:Agent>
      <dc:title>Matplotlib v3.9.2, https://matplotlib.org/</dc:title>
     </cc:Agent>
    </dc:creator>
   </cc:Work>
  </rdf:RDF>
 </metadata>
 <defs>
  <style type="text/css">*{stroke-linejoin: round; stroke-linecap: butt}</style>
 </defs>
 <g id="figure_1">
  <g id="patch_1">
   <path d="M 0 359.281364 
L 599.096314 359.281364 
L 599.096314 0 
L 0 0 
z
" style="fill: #ffffff"/>
  </g>
  <g id="axes_1">
   <g id="patch_2">
    <path d="M 37.496314 336.24 
L 595.496314 336.24 
L 595.496314 3.6 
L 37.496314 3.6 
z
" style="fill: #ffffff"/>
   </g>
   <g id="PolyCollection_1">
    <defs>
     <path id="maeca150b58" d="M 62.85995 -281.18939 
L 62.85995 -136.476558 
L 64.74527 -136.134236 
L 66.569773 -133.220046 
L 68.455093 -135.538379 
L 70.279597 -144.259211 
L 72.164917 -135.100866 
L 74.050237 -134.944088 
L 75.87474 -134.92926 
L 77.76006 -117.711391 
L 79.584563 -141.696076 
L 81.469883 -143.120323 
L 83.355203 -137.834587 
L 85.058073 -135.986874 
L 86.943393 -134.901657 
L 88.767896 -143.86244 
L 90.653216 -135.021082 
L 92.47772 -135.129215 
L 94.36304 -134.524514 
L 96.24836 -121.578545 
L 98.072863 -136.298143 
L 99.958183 -133.78009 
L 101.782686 -135.31664 
L 103.668006 -144.762422 
L 105.553327 -135.344182 
L 107.256196 -135.460501 
L 109.141516 -133.326605 
L 110.96602 -137.928478 
L 112.85134 -144.588078 
L 114.675843 -144.846518 
L 116.561163 -145.105845 
L 118.446483 -135.721297 
L 120.270986 -135.251894 
L 122.156306 -143.091336 
L 123.98081 -141.483439 
L 125.86613 -136.855796 
L 127.75145 -143.152997 
L 129.515136 -143.936939 
L 131.400456 -135.752095 
L 133.22496 -135.211334 
L 135.11028 -135.625287 
L 136.934783 -134.53588 
L 138.820103 -143.410356 
L 140.705423 -134.573304 
L 142.529926 -135.479037 
L 144.415246 -143.311847 
L 146.23975 -135.565143 
L 148.12507 -143.895286 
L 150.01039 -143.272435 
L 151.713259 -135.843378 
L 153.598579 -139.650085 
L 155.423083 -135.880079 
L 157.308403 -134.830316 
L 159.132906 -138.673395 
L 161.018226 -142.577528 
L 162.903546 -139.956512 
L 164.728049 -136.014918 
L 166.613369 -136.038005 
L 168.437873 -134.937789 
L 170.323193 -143.480961 
L 172.208513 -142.204563 
L 173.911383 -139.078972 
L 175.796703 -136.087677 
L 177.621206 -139.14492 
L 179.506526 -136.258159 
L 181.331029 -136.167248 
L 183.216349 -134.921175 
L 185.101669 -136.232257 
L 186.926173 -143.371191 
L 188.811493 -143.659696 
L 190.635996 -147.795343 
L 192.521316 -146.178325 
L 194.406636 -146.326906 
L 196.109506 -138.759661 
L 197.994826 -143.261954 
L 199.819329 -137.727969 
L 201.704649 -148.106782 
L 203.529152 -147.950107 
L 205.414472 -138.609525 
L 207.299792 -138.86888 
L 209.124296 -136.835412 
L 211.009616 -147.916116 
L 212.834119 -147.850965 
L 214.719439 -131.066029 
L 216.604759 -135.980654 
L 218.368446 -130.355971 
L 220.253766 -132.807119 
L 222.078269 -131.871823 
L 223.963589 -143.465308 
L 225.788092 -143.607454 
L 227.673412 -135.014072 
L 229.558732 -130.122855 
L 231.383236 -142.025349 
L 233.268556 -134.764172 
L 235.093059 -102.134799 
L 236.978379 -122.552696 
L 238.863699 -116.940452 
L 240.566569 -127.043699 
L 242.451889 -123.233286 
L 244.276392 -124.83586 
L 246.161712 -180.968954 
L 247.986216 -149.029284 
L 249.871536 -141.34401 
L 251.756856 -141.899006 
L 253.581359 -153.422559 
L 255.466679 -151.983703 
L 257.291182 -150.147271 
L 259.176502 -151.669003 
L 261.061822 -152.7731 
L 262.764692 -141.501153 
L 264.650012 -136.412481 
L 266.474515 -149.09451 
L 268.359835 -147.094953 
L 270.184339 -135.93445 
L 272.069659 -136.738735 
L 273.954979 -138.036608 
L 275.779482 -138.377621 
L 277.664802 -146.836391 
L 279.489305 -147.512897 
L 281.374625 -146.758624 
L 283.259946 -146.712615 
L 284.962815 -147.079665 
L 286.848135 -147.119138 
L 288.672639 -138.1321 
L 290.557959 -146.029208 
L 292.382462 -138.351304 
L 294.267782 -136.916226 
L 296.153102 -147.185779 
L 297.977605 -103.439324 
L 299.862925 -138.286832 
L 301.687429 -146.405491 
L 303.572749 -142.152202 
L 305.458069 -142.022741 
L 307.221755 -147.965554 
L 309.107075 -146.877195 
L 310.931579 -146.55555 
L 312.816899 -138.265644 
L 314.641402 -137.182351 
L 316.526722 -138.213111 
L 318.412042 -146.703951 
L 320.236545 -146.723481 
L 322.121865 -146.72893 
L 323.946369 -138.082174 
L 325.831689 -137.199895 
L 327.717009 -145.147936 
L 329.419878 -147.051019 
L 331.305198 -146.526237 
L 333.129702 -146.955306 
L 335.015022 -141.943965 
L 336.839525 -147.762857 
L 338.724845 -138.102135 
L 340.610165 -146.924485 
L 342.434668 -138.295818 
L 344.319988 -138.677885 
L 346.144492 -145.681133 
L 348.029812 -147.017226 
L 349.915132 -142.598065 
L 351.618002 -139.005531 
L 353.503322 -138.682258 
L 355.327825 -147.031057 
L 357.213145 -138.565696 
L 359.037648 -142.257114 
L 360.922968 -147.070218 
L 362.808288 -143.096746 
L 364.632792 -138.899541 
L 366.518112 -143.796424 
L 368.342615 -137.974372 
L 370.227935 -149.641332 
L 372.113255 -139.063769 
L 373.816125 -139.049704 
L 375.701445 -147.180421 
L 377.525948 -138.760864 
L 379.411268 -139.396783 
L 381.235771 -139.11504 
L 383.121091 -138.731534 
L 385.006411 -139.052284 
L 386.830915 -138.652033 
L 388.716235 -137.216974 
L 390.540738 -147.72878 
L 392.426058 -147.337599 
L 394.311378 -138.679084 
L 396.075065 -137.185742 
L 397.960385 -139.053976 
L 399.784888 -149.748468 
L 401.670208 -147.38668 
L 403.494711 -139.148182 
L 405.380031 -139.490425 
L 407.265351 -147.45365 
L 409.089855 -139.58658 
L 410.975175 -139.157068 
L 412.799678 -139.096473 
L 414.684998 -139.351223 
L 416.570318 -147.474832 
L 418.273188 -143.235513 
L 420.158508 -147.459771 
L 421.983011 -143.882453 
L 423.868331 -139.623394 
L 425.692835 -143.937613 
L 427.578155 -144.28637 
L 429.463475 -140.074276 
L 431.287978 -139.81523 
L 433.173298 -144.104064 
L 434.997801 -147.466671 
L 436.883121 -144.255934 
L 438.768441 -147.541731 
L 440.471311 -148.987888 
L 442.356631 -137.632611 
L 444.181134 -139.580144 
L 446.066454 -139.281945 
L 447.890958 -146.659105 
L 449.776278 -146.866553 
L 451.661598 -144.645423 
L 453.486101 -147.94439 
L 455.371421 -144.834875 
L 457.195924 -138.351132 
L 459.081244 -139.153374 
L 460.966565 -138.004223 
L 462.669434 -144.586112 
L 464.554754 -150.215806 
L 466.379258 -147.032528 
L 468.264578 -148.218921 
L 470.089081 -139.682167 
L 471.974401 -144.259284 
L 473.859721 -148.112583 
L 475.684224 -138.036257 
L 477.569544 -147.879094 
L 479.394048 -139.695891 
L 481.279368 -148.041239 
L 483.164688 -147.840541 
L 484.928374 -145.00861 
L 486.813694 -130.407367 
L 488.638198 -103.731006 
L 490.523518 -202.09775 
L 492.348021 -142.662513 
L 494.233341 -145.130333 
L 496.118661 -145.365462 
L 497.943164 -149.555272 
L 499.828484 -138.775659 
L 501.652988 -144.494321 
L 503.538308 -147.435349 
L 505.423628 -147.7266 
L 507.126497 -147.447495 
L 509.011817 -147.600528 
L 510.836321 -139.24986 
L 512.721641 -149.495119 
L 514.546144 -139.774261 
L 516.431464 -145.40276 
L 518.316784 -147.682377 
L 520.141287 -147.225206 
L 522.026607 -139.105864 
L 523.851111 -139.165433 
L 525.736431 -148.448359 
L 527.621751 -139.553753 
L 529.324621 -138.802624 
L 531.209941 -138.189869 
L 533.034444 -139.087422 
L 534.919764 -139.158386 
L 536.744267 -136.246334 
L 538.629587 -137.860088 
L 540.514907 -139.154624 
L 542.339411 -149.704155 
L 544.224731 -132.708891 
L 546.049234 -137.228505 
L 547.934554 -149.196617 
L 549.819874 -137.511438 
L 551.522744 -143.246116 
L 553.408064 -147.569547 
L 555.232567 -138.615669 
L 557.117887 -147.568635 
L 558.94239 -140.168241 
L 560.82771 -147.922973 
L 562.71303 -147.467474 
L 564.537534 -139.188183 
L 566.422854 -139.103909 
L 568.247357 -138.080178 
L 570.132677 -147.920399 
L 570.132677 -286.260249 
L 570.132677 -286.260249 
L 568.247357 -276.428796 
L 566.422854 -277.462273 
L 564.537534 -277.555633 
L 562.71303 -285.884939 
L 560.82771 -286.368935 
L 558.94239 -278.61873 
L 557.117887 -286.06501 
L 555.232567 -277.139715 
L 553.408064 -286.13677 
L 551.522744 -281.826164 
L 549.819874 -276.125235 
L 547.934554 -287.835956 
L 546.049234 -275.860253 
L 544.224731 -271.36564 
L 542.339411 -288.070799 
L 540.514907 -277.449078 
L 538.629587 -276.196851 
L 536.744267 -274.601039 
L 534.919764 -277.316122 
L 533.034444 -277.300192 
L 531.209941 -276.44444 
L 529.324621 -277.06486 
L 527.621751 -277.859684 
L 525.736431 -286.800016 
L 523.851111 -277.511554 
L 522.026607 -277.493618 
L 520.141287 -285.652969 
L 518.316784 -286.155656 
L 516.431464 -283.910015 
L 514.546144 -278.312716 
L 512.721641 -288.077033 
L 510.836321 -277.783827 
L 509.011817 -286.165263 
L 507.126497 -286.068206 
L 505.423628 -286.387201 
L 503.538308 -286.120197 
L 501.652988 -283.15496 
L 499.828484 -277.48568 
L 497.943164 -288.298812 
L 496.118661 -284.064673 
L 494.233341 -283.840042 
L 492.348021 -281.316995 
L 490.523518 -340.561364 
L 488.638198 -241.985552 
L 486.813694 -267.654515 
L 484.928374 -282.341236 
L 483.164688 -285.154304 
L 481.279368 -285.407187 
L 479.394048 -277.033476 
L 477.569544 -285.272744 
L 475.684224 -275.470641 
L 473.859721 -285.563307 
L 471.974401 -281.705076 
L 470.089081 -277.178377 
L 468.264578 -285.729667 
L 466.379258 -284.567219 
L 464.554754 -287.79719 
L 462.669434 -282.117613 
L 460.966565 -275.595713 
L 459.081244 -276.688028 
L 457.195924 -275.877538 
L 455.371421 -282.372798 
L 453.486101 -285.530733 
L 451.661598 -282.254148 
L 449.776278 -284.503485 
L 447.890958 -284.331998 
L 446.066454 -277.019562 
L 444.181134 -277.3421 
L 442.356631 -275.450312 
L 440.471311 -286.796874 
L 438.768441 -285.327131 
L 436.883121 -282.073736 
L 434.997801 -285.325731 
L 433.173298 -282.000584 
L 431.287978 -277.760135 
L 429.463475 -278.072882 
L 427.578155 -282.32161 
L 425.692835 -282.021572 
L 423.868331 -277.749395 
L 421.983011 -282.054115 
L 420.158508 -285.684832 
L 418.273188 -281.50014 
L 416.570318 -285.788028 
L 414.684998 -277.650535 
L 412.799678 -277.438058 
L 410.975175 -277.559673 
L 409.089855 -278.055139 
L 407.265351 -285.977778 
L 405.380031 -278.038314 
L 403.494711 -277.722927 
L 401.670208 -285.998832 
L 399.784888 -288.389325 
L 397.960385 -277.687555 
L 396.075065 -275.868847 
L 394.311378 -277.234 
L 392.426058 -285.957922 
L 390.540738 -286.385932 
L 388.716235 -275.894699 
L 386.830915 -277.309366 
L 385.006411 -277.716927 
L 383.121091 -277.447802 
L 381.235771 -277.875377 
L 379.411268 -278.177672 
L 377.525948 -277.61779 
L 375.701445 -286.055144 
L 373.816125 -277.971391 
L 372.113255 -278.047754 
L 370.227935 -288.64193 
L 368.342615 -276.962757 
L 366.518112 -282.797913 
L 364.632792 -277.936349 
L 362.808288 -282.195267 
L 360.922968 -286.206745 
L 359.037648 -281.432152 
L 357.213145 -277.771464 
L 355.327825 -286.273916 
L 353.503322 -277.968311 
L 351.618002 -278.32617 
L 349.915132 -281.971034 
L 348.029812 -286.445296 
L 346.144492 -285.146946 
L 344.319988 -278.180588 
L 342.434668 -277.836344 
L 340.610165 -286.510942 
L 338.724845 -277.720009 
L 336.839525 -287.407503 
L 335.015022 -281.600073 
L 333.129702 -286.661601 
L 331.305198 -286.283456 
L 329.419878 -286.850184 
L 327.717009 -284.958044 
L 325.831689 -277.04233 
L 323.946369 -277.981294 
L 322.121865 -286.6621 
L 320.236545 -286.718814 
L 318.412042 -286.692992 
L 316.526722 -278.239631 
L 314.641402 -277.265624 
L 312.816899 -278.345426 
L 310.931579 -286.676768 
L 309.107075 -287.043958 
L 307.221755 -288.150493 
L 305.458069 -282.225114 
L 303.572749 -282.402471 
L 301.687429 -286.68628 
L 299.862925 -278.599503 
L 297.977605 -243.791716 
L 296.153102 -287.175826 
L 294.267782 -276.961333 
L 292.382462 -278.374581 
L 290.557959 -286.099264 
L 288.672639 -278.221584 
L 286.848135 -287.238722 
L 284.962815 -287.2514 
L 283.259946 -286.907677 
L 281.374625 -286.973067 
L 279.489305 -287.781602 
L 277.664802 -287.111682 
L 275.779482 -278.654414 
L 273.954979 -278.377629 
L 272.069659 -277.123868 
L 270.184339 -276.337964 
L 268.359835 -287.393147 
L 266.474515 -289.42356 
L 264.650012 -276.717145 
L 262.764692 -281.806539 
L 261.061822 -281.504946 
L 259.176502 -280.433095 
L 257.291182 -278.974904 
L 255.466679 -280.852376 
L 253.581359 -282.309993 
L 251.756856 -265.548106 
L 249.871536 -265.015283 
L 247.986216 -277.862246 
L 246.161712 -309.692994 
L 244.276392 -264.811214 
L 242.451889 -256.609334 
L 240.566569 -260.462344 
L 238.863699 -250.395344 
L 236.978379 -262.600611 
L 235.093059 -243.124296 
L 233.268556 -278.426352 
L 231.383236 -285.630888 
L 229.558732 -269.808541 
L 227.673412 -278.586942 
L 225.788092 -287.137944 
L 223.963589 -287.040497 
L 222.078269 -271.524583 
L 220.253766 -271.389113 
L 218.368446 -268.995415 
L 216.604759 -274.632758 
L 214.719439 -269.727459 
L 212.834119 -286.449875 
L 211.009616 -286.510871 
L 209.124296 -275.502974 
L 207.299792 -277.469836 
L 205.414472 -277.271452 
L 203.529152 -286.645281 
L 201.704649 -286.848675 
L 199.819329 -276.510973 
L 197.994826 -282.068335 
L 196.109506 -277.587338 
L 194.406636 -285.226031 
L 192.521316 -285.109209 
L 190.635996 -286.785141 
L 188.811493 -287.890026 
L 186.926173 -287.648062 
L 185.101669 -280.549654 
L 183.216349 -279.29641 
L 181.331029 -280.573208 
L 179.506526 -280.717766 
L 177.621206 -283.662995 
L 175.796703 -280.653152 
L 173.911383 -283.701365 
L 172.208513 -286.879868 
L 170.323193 -288.20887 
L 168.437873 -279.678229 
L 166.613369 -280.80725 
L 164.728049 -280.843382 
L 162.903546 -284.83542 
L 161.018226 -287.517923 
L 159.132906 -283.659685 
L 157.308403 -279.86499 
L 155.423083 -280.949335 
L 153.598579 -284.772715 
L 151.713259 -281.018678 
L 150.01039 -288.482592 
L 148.12507 -289.156451 
L 146.23975 -280.823941 
L 144.415246 -288.619855 
L 142.529926 -280.819202 
L 140.705423 -279.964942 
L 138.820103 -288.814525 
L 136.934783 -279.972156 
L 135.11028 -281.096833 
L 133.22496 -280.737969 
L 131.400456 -281.325482 
L 129.515136 -289.570317 
L 127.75145 -288.801899 
L 125.86613 -282.537841 
L 123.98081 -287.22209 
L 122.156306 -288.890535 
L 120.270986 -280.834465 
L 118.446483 -281.365199 
L 116.561163 -290.802709 
L 114.675843 -290.545924 
L 112.85134 -290.306179 
L 110.96602 -283.637752 
L 109.141516 -279.083454 
L 107.256196 -281.119912 
L 105.553327 -281.062112 
L 103.668006 -290.510228 
L 101.782686 -280.992178 
L 99.958183 -279.50646 
L 98.072863 -282.000489 
L 96.24836 -267.266317 
L 94.36304 -279.855574 
L 92.47772 -280.397652 
L 90.653216 -280.325403 
L 88.767896 -289.13675 
L 86.943393 -280.142956 
L 85.058073 -281.242542 
L 83.355203 -283.147638 
L 81.469883 -288.490975 
L 79.584563 -287.074866 
L 77.76006 -262.983442 
L 75.87474 -279.796168 
L 74.050237 -279.857817 
L 72.164917 -280.053737 
L 70.279597 -289.203463 
L 68.455093 -280.389846 
L 66.569773 -278.12487 
L 64.74527 -280.804418 
L 62.85995 -281.18939 
z
" style="stroke: #808080; stroke-opacity: 0.3"/>
    </defs>
    <g clip-path="url(#pb3ac417164)">
     <use xlink:href="#maeca150b58" x="0" y="359.281364" style="fill: #808080; fill-opacity: 0.3; stroke: #808080; stroke-opacity: 0.3"/>
    </g>
   </g>
   <g id="matplotlib.axis_1">
    <g id="xtick_1">
     <g id="line2d_1">
      <defs>
       <path id="ma4d9995cd3" d="M 0 0 
L 0 -3 
" style="stroke: #000000; stroke-width: 0.5"/>
      </defs>
      <g>
       <use xlink:href="#ma4d9995cd3" x="125.926946" y="336.24" style="stroke: #000000; stroke-width: 0.5"/>
      </g>
     </g>
     <g id="line2d_2">
      <defs>
       <path id="m47bb3ee804" d="M 0 0 
L 0 3 
" style="stroke: #000000; stroke-width: 0.5"/>
      </defs>
      <g>
       <use xlink:href="#m47bb3ee804" x="125.926946" y="3.6" style="stroke: #000000; stroke-width: 0.5"/>
      </g>
     </g>
     <g id="text_1">
      <!-- $\mathdefault{2004}$ -->
      <g transform="translate(109.478375 352.1933) scale(0.18 -0.18)">
       <defs>
        <path id="CMR17-32" d="M 2669 990 
L 2554 990 
C 2490 537 2438 460 2413 422 
C 2381 371 1920 371 1830 371 
L 602 371 
C 832 620 1280 1073 1824 1596 
C 2214 1966 2669 2400 2669 3033 
C 2669 3788 2067 4224 1395 4224 
C 691 4224 262 3603 262 3027 
C 262 2777 448 2745 525 2745 
C 589 2745 781 2783 781 3007 
C 781 3206 614 3264 525 3264 
C 486 3264 448 3257 422 3244 
C 544 3788 915 4057 1306 4057 
C 1862 4057 2227 3616 2227 3033 
C 2227 2477 1901 1998 1536 1583 
L 262 147 
L 262 0 
L 2515 0 
L 2669 990 
z
" transform="scale(0.015625)"/>
        <path id="CMR17-30" d="M 2688 2038 
C 2688 2430 2682 3099 2413 3613 
C 2176 4063 1798 4224 1466 4224 
C 1158 4224 768 4082 525 3620 
C 269 3137 243 2539 243 2038 
C 243 1671 250 1112 448 623 
C 723 -39 1216 -128 1466 -128 
C 1760 -128 2208 -7 2470 604 
C 2662 1048 2688 1568 2688 2038 
z
M 1466 -26 
C 1056 -26 813 328 723 816 
C 653 1196 653 1749 653 2109 
C 653 2604 653 3015 736 3407 
C 858 3954 1216 4121 1466 4121 
C 1728 4121 2067 3947 2189 3420 
C 2272 3054 2278 2623 2278 2109 
C 2278 1691 2278 1176 2202 797 
C 2067 96 1690 -26 1466 -26 
z
" transform="scale(0.015625)"/>
        <path id="CMR17-34" d="M 2150 4147 
C 2150 4281 2144 4288 2029 4288 
L 128 1254 
L 128 1088 
L 1779 1088 
L 1779 460 
C 1779 230 1766 166 1318 166 
L 1197 166 
L 1197 0 
C 1402 12 1747 12 1965 12 
C 2182 12 2528 12 2733 0 
L 2733 166 
L 2611 166 
C 2163 166 2150 230 2150 460 
L 2150 1088 
L 2803 1088 
L 2803 1254 
L 2150 1254 
L 2150 4147 
z
M 1798 3723 
L 1798 1254 
L 256 1254 
L 1798 3723 
z
" transform="scale(0.015625)"/>
       </defs>
       <use xlink:href="#CMR17-32" transform="scale(0.996264)"/>
       <use xlink:href="#CMR17-30" transform="translate(45.690477 0) scale(0.996264)"/>
       <use xlink:href="#CMR17-30" transform="translate(91.380954 0) scale(0.996264)"/>
       <use xlink:href="#CMR17-34" transform="translate(137.071431 0) scale(0.996264)"/>
      </g>
     </g>
    </g>
    <g id="xtick_2">
     <g id="line2d_3">
      <g>
       <use xlink:href="#ma4d9995cd3" x="214.780256" y="336.24" style="stroke: #000000; stroke-width: 0.5"/>
      </g>
     </g>
     <g id="line2d_4">
      <g>
       <use xlink:href="#m47bb3ee804" x="214.780256" y="3.6" style="stroke: #000000; stroke-width: 0.5"/>
      </g>
     </g>
     <g id="text_2">
      <!-- $\mathdefault{2008}$ -->
      <g transform="translate(198.331684 352.1933) scale(0.18 -0.18)">
       <defs>
        <path id="CMR17-38" d="M 1741 2289 
C 2144 2494 2554 2803 2554 3298 
C 2554 3884 1990 4224 1472 4224 
C 890 4224 378 3800 378 3215 
C 378 3054 416 2777 666 2533 
C 730 2469 998 2276 1171 2154 
C 883 2006 211 1652 211 945 
C 211 282 838 -128 1459 -128 
C 2144 -128 2720 366 2720 1022 
C 2720 1607 2330 1877 2074 2051 
L 1741 2289 
z
M 902 2855 
C 851 2887 595 3086 595 3388 
C 595 3781 998 4076 1459 4076 
C 1965 4076 2336 3716 2336 3298 
C 2336 2700 1670 2359 1638 2359 
C 1632 2359 1626 2359 1574 2398 
L 902 2855 
z
M 2080 1536 
C 2176 1466 2483 1253 2483 861 
C 2483 385 2010 25 1472 25 
C 890 25 448 443 448 951 
C 448 1459 838 1884 1280 2083 
L 2080 1536 
z
" transform="scale(0.015625)"/>
       </defs>
       <use xlink:href="#CMR17-32" transform="scale(0.996264)"/>
       <use xlink:href="#CMR17-30" transform="translate(45.690477 0) scale(0.996264)"/>
       <use xlink:href="#CMR17-30" transform="translate(91.380954 0) scale(0.996264)"/>
       <use xlink:href="#CMR17-38" transform="translate(137.071431 0) scale(0.996264)"/>
      </g>
     </g>
    </g>
    <g id="xtick_3">
     <g id="line2d_5">
      <g>
       <use xlink:href="#ma4d9995cd3" x="303.633565" y="336.24" style="stroke: #000000; stroke-width: 0.5"/>
      </g>
     </g>
     <g id="line2d_6">
      <g>
       <use xlink:href="#m47bb3ee804" x="303.633565" y="3.6" style="stroke: #000000; stroke-width: 0.5"/>
      </g>
     </g>
     <g id="text_3">
      <!-- $\mathdefault{2012}$ -->
      <g transform="translate(287.184994 352.1933) scale(0.18 -0.18)">
       <defs>
        <path id="CMR17-31" d="M 1702 4083 
C 1702 4217 1696 4224 1606 4224 
C 1357 3927 979 3833 621 3820 
C 602 3820 570 3820 563 3808 
C 557 3795 557 3782 557 3648 
C 755 3648 1088 3686 1344 3839 
L 1344 467 
C 1344 243 1331 166 781 166 
L 589 166 
L 589 0 
C 896 6 1216 12 1523 12 
C 1830 12 2150 6 2458 0 
L 2458 166 
L 2266 166 
C 1715 166 1702 236 1702 467 
L 1702 4083 
z
" transform="scale(0.015625)"/>
       </defs>
       <use xlink:href="#CMR17-32" transform="scale(0.996264)"/>
       <use xlink:href="#CMR17-30" transform="translate(45.690477 0) scale(0.996264)"/>
       <use xlink:href="#CMR17-31" transform="translate(91.380954 0) scale(0.996264)"/>
       <use xlink:href="#CMR17-32" transform="translate(137.071431 0) scale(0.996264)"/>
      </g>
     </g>
    </g>
    <g id="xtick_4">
     <g id="line2d_7">
      <g>
       <use xlink:href="#ma4d9995cd3" x="392.486875" y="336.24" style="stroke: #000000; stroke-width: 0.5"/>
      </g>
     </g>
     <g id="line2d_8">
      <g>
       <use xlink:href="#m47bb3ee804" x="392.486875" y="3.6" style="stroke: #000000; stroke-width: 0.5"/>
      </g>
     </g>
     <g id="text_4">
      <!-- $\mathdefault{2016}$ -->
      <g transform="translate(376.038303 352.1933) scale(0.18 -0.18)">
       <defs>
        <path id="CMR17-36" d="M 678 2198 
C 678 3712 1395 4076 1811 4076 
C 1946 4076 2272 4049 2400 3782 
C 2298 3782 2106 3782 2106 3558 
C 2106 3385 2246 3328 2336 3328 
C 2394 3328 2566 3353 2566 3571 
C 2566 3987 2246 4224 1805 4224 
C 1043 4224 243 3411 243 2011 
C 243 257 966 -128 1478 -128 
C 2099 -128 2688 431 2688 1295 
C 2688 2101 2170 2688 1517 2688 
C 1126 2688 838 2430 678 1979 
L 678 2198 
z
M 1478 25 
C 691 25 691 1212 691 1450 
C 691 1914 909 2585 1504 2585 
C 1613 2585 1926 2585 2138 2140 
C 2253 1889 2253 1624 2253 1302 
C 2253 954 2253 696 2118 438 
C 1978 173 1773 25 1478 25 
z
" transform="scale(0.015625)"/>
       </defs>
       <use xlink:href="#CMR17-32" transform="scale(0.996264)"/>
       <use xlink:href="#CMR17-30" transform="translate(45.690477 0) scale(0.996264)"/>
       <use xlink:href="#CMR17-31" transform="translate(91.380954 0) scale(0.996264)"/>
       <use xlink:href="#CMR17-36" transform="translate(137.071431 0) scale(0.996264)"/>
      </g>
     </g>
    </g>
    <g id="xtick_5">
     <g id="line2d_9">
      <g>
       <use xlink:href="#ma4d9995cd3" x="481.340184" y="336.24" style="stroke: #000000; stroke-width: 0.5"/>
      </g>
     </g>
     <g id="line2d_10">
      <g>
       <use xlink:href="#m47bb3ee804" x="481.340184" y="3.6" style="stroke: #000000; stroke-width: 0.5"/>
      </g>
     </g>
     <g id="text_5">
      <!-- $\mathdefault{2020}$ -->
      <g transform="translate(464.891613 352.1933) scale(0.18 -0.18)">
       <use xlink:href="#CMR17-32" transform="scale(0.996264)"/>
       <use xlink:href="#CMR17-30" transform="translate(45.690477 0) scale(0.996264)"/>
       <use xlink:href="#CMR17-32" transform="translate(91.380954 0) scale(0.996264)"/>
       <use xlink:href="#CMR17-30" transform="translate(137.071431 0) scale(0.996264)"/>
      </g>
     </g>
    </g>
    <g id="xtick_6">
     <g id="line2d_11">
      <g>
       <use xlink:href="#ma4d9995cd3" x="570.193494" y="336.24" style="stroke: #000000; stroke-width: 0.5"/>
      </g>
     </g>
     <g id="line2d_12">
      <g>
       <use xlink:href="#m47bb3ee804" x="570.193494" y="3.6" style="stroke: #000000; stroke-width: 0.5"/>
      </g>
     </g>
     <g id="text_6">
      <!-- $\mathdefault{2024}$ -->
      <g transform="translate(553.744922 352.1933) scale(0.18 -0.18)">
       <use xlink:href="#CMR17-32" transform="scale(0.996264)"/>
       <use xlink:href="#CMR17-30" transform="translate(45.690477 0) scale(0.996264)"/>
       <use xlink:href="#CMR17-32" transform="translate(91.380954 0) scale(0.996264)"/>
       <use xlink:href="#CMR17-34" transform="translate(137.071431 0) scale(0.996264)"/>
      </g>
     </g>
    </g>
    <g id="xtick_7">
     <g id="line2d_13">
      <defs>
       <path id="m74aa35441b" d="M 0 0 
L 0 -1.5 
" style="stroke: #000000; stroke-width: 0.5"/>
      </defs>
      <g>
       <use xlink:href="#m74aa35441b" x="59.286964" y="336.24" style="stroke: #000000; stroke-width: 0.5"/>
      </g>
     </g>
     <g id="line2d_14">
      <defs>
       <path id="mb20c444168" d="M 0 0 
L 0 1.5 
" style="stroke: #000000; stroke-width: 0.5"/>
      </defs>
      <g>
       <use xlink:href="#mb20c444168" x="59.286964" y="3.6" style="stroke: #000000; stroke-width: 0.5"/>
      </g>
     </g>
    </g>
    <g id="xtick_8">
     <g id="line2d_15">
      <g>
       <use xlink:href="#m74aa35441b" x="81.500292" y="336.24" style="stroke: #000000; stroke-width: 0.5"/>
      </g>
     </g>
     <g id="line2d_16">
      <g>
       <use xlink:href="#mb20c444168" x="81.500292" y="3.6" style="stroke: #000000; stroke-width: 0.5"/>
      </g>
     </g>
    </g>
    <g id="xtick_9">
     <g id="line2d_17">
      <g>
       <use xlink:href="#m74aa35441b" x="103.713619" y="336.24" style="stroke: #000000; stroke-width: 0.5"/>
      </g>
     </g>
     <g id="line2d_18">
      <g>
       <use xlink:href="#mb20c444168" x="103.713619" y="3.6" style="stroke: #000000; stroke-width: 0.5"/>
      </g>
     </g>
    </g>
    <g id="xtick_10">
     <g id="line2d_19">
      <g>
       <use xlink:href="#m74aa35441b" x="148.140274" y="336.24" style="stroke: #000000; stroke-width: 0.5"/>
      </g>
     </g>
     <g id="line2d_20">
      <g>
       <use xlink:href="#mb20c444168" x="148.140274" y="3.6" style="stroke: #000000; stroke-width: 0.5"/>
      </g>
     </g>
    </g>
    <g id="xtick_11">
     <g id="line2d_21">
      <g>
       <use xlink:href="#m74aa35441b" x="170.353601" y="336.24" style="stroke: #000000; stroke-width: 0.5"/>
      </g>
     </g>
     <g id="line2d_22">
      <g>
       <use xlink:href="#mb20c444168" x="170.353601" y="3.6" style="stroke: #000000; stroke-width: 0.5"/>
      </g>
     </g>
    </g>
    <g id="xtick_12">
     <g id="line2d_23">
      <g>
       <use xlink:href="#m74aa35441b" x="192.566929" y="336.24" style="stroke: #000000; stroke-width: 0.5"/>
      </g>
     </g>
     <g id="line2d_24">
      <g>
       <use xlink:href="#mb20c444168" x="192.566929" y="3.6" style="stroke: #000000; stroke-width: 0.5"/>
      </g>
     </g>
    </g>
    <g id="xtick_13">
     <g id="line2d_25">
      <g>
       <use xlink:href="#m74aa35441b" x="236.993583" y="336.24" style="stroke: #000000; stroke-width: 0.5"/>
      </g>
     </g>
     <g id="line2d_26">
      <g>
       <use xlink:href="#mb20c444168" x="236.993583" y="3.6" style="stroke: #000000; stroke-width: 0.5"/>
      </g>
     </g>
    </g>
    <g id="xtick_14">
     <g id="line2d_27">
      <g>
       <use xlink:href="#m74aa35441b" x="259.206911" y="336.24" style="stroke: #000000; stroke-width: 0.5"/>
      </g>
     </g>
     <g id="line2d_28">
      <g>
       <use xlink:href="#mb20c444168" x="259.206911" y="3.6" style="stroke: #000000; stroke-width: 0.5"/>
      </g>
     </g>
    </g>
    <g id="xtick_15">
     <g id="line2d_29">
      <g>
       <use xlink:href="#m74aa35441b" x="281.420238" y="336.24" style="stroke: #000000; stroke-width: 0.5"/>
      </g>
     </g>
     <g id="line2d_30">
      <g>
       <use xlink:href="#mb20c444168" x="281.420238" y="3.6" style="stroke: #000000; stroke-width: 0.5"/>
      </g>
     </g>
    </g>
    <g id="xtick_16">
     <g id="line2d_31">
      <g>
       <use xlink:href="#m74aa35441b" x="325.846893" y="336.24" style="stroke: #000000; stroke-width: 0.5"/>
      </g>
     </g>
     <g id="line2d_32">
      <g>
       <use xlink:href="#mb20c444168" x="325.846893" y="3.6" style="stroke: #000000; stroke-width: 0.5"/>
      </g>
     </g>
    </g>
    <g id="xtick_17">
     <g id="line2d_33">
      <g>
       <use xlink:href="#m74aa35441b" x="348.06022" y="336.24" style="stroke: #000000; stroke-width: 0.5"/>
      </g>
     </g>
     <g id="line2d_34">
      <g>
       <use xlink:href="#mb20c444168" x="348.06022" y="3.6" style="stroke: #000000; stroke-width: 0.5"/>
      </g>
     </g>
    </g>
    <g id="xtick_18">
     <g id="line2d_35">
      <g>
       <use xlink:href="#m74aa35441b" x="370.273548" y="336.24" style="stroke: #000000; stroke-width: 0.5"/>
      </g>
     </g>
     <g id="line2d_36">
      <g>
       <use xlink:href="#mb20c444168" x="370.273548" y="3.6" style="stroke: #000000; stroke-width: 0.5"/>
      </g>
     </g>
    </g>
    <g id="xtick_19">
     <g id="line2d_37">
      <g>
       <use xlink:href="#m74aa35441b" x="414.700202" y="336.24" style="stroke: #000000; stroke-width: 0.5"/>
      </g>
     </g>
     <g id="line2d_38">
      <g>
       <use xlink:href="#mb20c444168" x="414.700202" y="3.6" style="stroke: #000000; stroke-width: 0.5"/>
      </g>
     </g>
    </g>
    <g id="xtick_20">
     <g id="line2d_39">
      <g>
       <use xlink:href="#m74aa35441b" x="436.91353" y="336.24" style="stroke: #000000; stroke-width: 0.5"/>
      </g>
     </g>
     <g id="line2d_40">
      <g>
       <use xlink:href="#mb20c444168" x="436.91353" y="3.6" style="stroke: #000000; stroke-width: 0.5"/>
      </g>
     </g>
    </g>
    <g id="xtick_21">
     <g id="line2d_41">
      <g>
       <use xlink:href="#m74aa35441b" x="459.126857" y="336.24" style="stroke: #000000; stroke-width: 0.5"/>
      </g>
     </g>
     <g id="line2d_42">
      <g>
       <use xlink:href="#mb20c444168" x="459.126857" y="3.6" style="stroke: #000000; stroke-width: 0.5"/>
      </g>
     </g>
    </g>
    <g id="xtick_22">
     <g id="line2d_43">
      <g>
       <use xlink:href="#m74aa35441b" x="503.553512" y="336.24" style="stroke: #000000; stroke-width: 0.5"/>
      </g>
     </g>
     <g id="line2d_44">
      <g>
       <use xlink:href="#mb20c444168" x="503.553512" y="3.6" style="stroke: #000000; stroke-width: 0.5"/>
      </g>
     </g>
    </g>
    <g id="xtick_23">
     <g id="line2d_45">
      <g>
       <use xlink:href="#m74aa35441b" x="525.766839" y="336.24" style="stroke: #000000; stroke-width: 0.5"/>
      </g>
     </g>
     <g id="line2d_46">
      <g>
       <use xlink:href="#mb20c444168" x="525.766839" y="3.6" style="stroke: #000000; stroke-width: 0.5"/>
      </g>
     </g>
    </g>
    <g id="xtick_24">
     <g id="line2d_47">
      <g>
       <use xlink:href="#m74aa35441b" x="547.980167" y="336.24" style="stroke: #000000; stroke-width: 0.5"/>
      </g>
     </g>
     <g id="line2d_48">
      <g>
       <use xlink:href="#mb20c444168" x="547.980167" y="3.6" style="stroke: #000000; stroke-width: 0.5"/>
      </g>
     </g>
    </g>
    <g id="xtick_25">
     <g id="line2d_49">
      <g>
       <use xlink:href="#m74aa35441b" x="592.406821" y="336.24" style="stroke: #000000; stroke-width: 0.5"/>
      </g>
     </g>
     <g id="line2d_50">
      <g>
       <use xlink:href="#mb20c444168" x="592.406821" y="3.6" style="stroke: #000000; stroke-width: 0.5"/>
      </g>
     </g>
    </g>
   </g>
   <g id="matplotlib.axis_2">
    <g id="ytick_1">
     <g id="line2d_51">
      <defs>
       <path id="mb854f4f1a9" d="M 0 0 
L 3 0 
" style="stroke: #000000; stroke-width: 0.5"/>
      </defs>
      <g>
       <use xlink:href="#mb854f4f1a9" x="37.496314" y="300.236245" style="stroke: #000000; stroke-width: 0.5"/>
      </g>
     </g>
     <g id="line2d_52">
      <defs>
       <path id="m6f6c146d6c" d="M 0 0 
L -3 0 
" style="stroke: #000000; stroke-width: 0.5"/>
      </defs>
      <g>
       <use xlink:href="#m6f6c146d6c" x="595.496314" y="300.236245" style="stroke: #000000; stroke-width: 0.5"/>
      </g>
     </g>
     <g id="text_7">
      <!-- $\mathdefault{−20}$ -->
      <g transform="translate(3.6 306.462895) scale(0.18 -0.18)">
       <defs>
        <path id="CMSY10-0" d="M 4218 1472 
C 4326 1472 4442 1472 4442 1600 
C 4442 1728 4326 1728 4218 1728 
L 755 1728 
C 646 1728 531 1728 531 1600 
C 531 1472 646 1472 755 1472 
L 4218 1472 
z
" transform="scale(0.015625)"/>
       </defs>
       <use xlink:href="#CMSY10-0" transform="scale(0.996264)"/>
       <use xlink:href="#CMR17-32" transform="translate(77.487468 0) scale(0.996264)"/>
       <use xlink:href="#CMR17-30" transform="translate(123.177945 0) scale(0.996264)"/>
      </g>
     </g>
    </g>
    <g id="ytick_2">
     <g id="line2d_53">
      <g>
       <use xlink:href="#mb854f4f1a9" x="37.496314" y="263.003418" style="stroke: #000000; stroke-width: 0.5"/>
      </g>
     </g>
     <g id="line2d_54">
      <g>
       <use xlink:href="#m6f6c146d6c" x="595.496314" y="263.003418" style="stroke: #000000; stroke-width: 0.5"/>
      </g>
     </g>
     <g id="text_8">
      <!-- $\mathdefault{−15}$ -->
      <g transform="translate(3.6 269.230068) scale(0.18 -0.18)">
       <defs>
        <path id="CMR17-35" d="M 730 3750 
C 794 3724 1056 3641 1325 3641 
C 1920 3641 2246 3961 2432 4140 
C 2432 4191 2432 4224 2394 4224 
C 2387 4224 2374 4224 2323 4198 
C 2099 4102 1837 4032 1517 4032 
C 1325 4032 1037 4055 723 4191 
C 653 4224 640 4224 634 4224 
C 602 4224 595 4217 595 4090 
L 595 2231 
C 595 2113 595 2080 659 2080 
C 691 2080 704 2093 736 2139 
C 941 2435 1222 2560 1542 2560 
C 1766 2560 2246 2415 2246 1293 
C 2246 1087 2246 716 2054 422 
C 1894 159 1645 25 1370 25 
C 947 25 518 319 403 812 
C 429 806 480 793 506 793 
C 589 793 749 838 749 1036 
C 749 1209 627 1280 506 1280 
C 358 1280 262 1190 262 1011 
C 262 454 704 -128 1382 -128 
C 2042 -128 2669 441 2669 1267 
C 2669 2054 2170 2662 1549 2662 
C 1222 2662 947 2540 730 2304 
L 730 3750 
z
" transform="scale(0.015625)"/>
       </defs>
       <use xlink:href="#CMSY10-0" transform="scale(0.996264)"/>
       <use xlink:href="#CMR17-31" transform="translate(77.487468 0) scale(0.996264)"/>
       <use xlink:href="#CMR17-35" transform="translate(123.177945 0) scale(0.996264)"/>
      </g>
     </g>
    </g>
    <g id="ytick_3">
     <g id="line2d_55">
      <g>
       <use xlink:href="#mb854f4f1a9" x="37.496314" y="225.770592" style="stroke: #000000; stroke-width: 0.5"/>
      </g>
     </g>
     <g id="line2d_56">
      <g>
       <use xlink:href="#m6f6c146d6c" x="595.496314" y="225.770592" style="stroke: #000000; stroke-width: 0.5"/>
      </g>
     </g>
     <g id="text_9">
      <!-- $\mathdefault{−10}$ -->
      <g transform="translate(3.6 231.997242) scale(0.18 -0.18)">
       <use xlink:href="#CMSY10-0" transform="scale(0.996264)"/>
       <use xlink:href="#CMR17-31" transform="translate(77.487468 0) scale(0.996264)"/>
       <use xlink:href="#CMR17-30" transform="translate(123.177945 0) scale(0.996264)"/>
      </g>
     </g>
    </g>
    <g id="ytick_4">
     <g id="line2d_57">
      <g>
       <use xlink:href="#mb854f4f1a9" x="37.496314" y="188.537765" style="stroke: #000000; stroke-width: 0.5"/>
      </g>
     </g>
     <g id="line2d_58">
      <g>
       <use xlink:href="#m6f6c146d6c" x="595.496314" y="188.537765" style="stroke: #000000; stroke-width: 0.5"/>
      </g>
     </g>
     <g id="text_10">
      <!-- $\mathdefault{−5}$ -->
      <g transform="translate(11.824286 194.764415) scale(0.18 -0.18)">
       <use xlink:href="#CMSY10-0" transform="scale(0.996264)"/>
       <use xlink:href="#CMR17-35" transform="translate(77.487468 0) scale(0.996264)"/>
      </g>
     </g>
    </g>
    <g id="ytick_5">
     <g id="line2d_59">
      <g>
       <use xlink:href="#mb854f4f1a9" x="37.496314" y="151.304938" style="stroke: #000000; stroke-width: 0.5"/>
      </g>
     </g>
     <g id="line2d_60">
      <g>
       <use xlink:href="#m6f6c146d6c" x="595.496314" y="151.304938" style="stroke: #000000; stroke-width: 0.5"/>
      </g>
     </g>
     <g id="text_11">
      <!-- $\mathdefault{0}$ -->
      <g transform="translate(25.772028 157.531588) scale(0.18 -0.18)">
       <use xlink:href="#CMR17-30" transform="scale(0.996264)"/>
      </g>
     </g>
    </g>
    <g id="ytick_6">
     <g id="line2d_61">
      <g>
       <use xlink:href="#mb854f4f1a9" x="37.496314" y="114.072112" style="stroke: #000000; stroke-width: 0.5"/>
      </g>
     </g>
     <g id="line2d_62">
      <g>
       <use xlink:href="#m6f6c146d6c" x="595.496314" y="114.072112" style="stroke: #000000; stroke-width: 0.5"/>
      </g>
     </g>
     <g id="text_12">
      <!-- $\mathdefault{5}$ -->
      <g transform="translate(25.772028 120.298762) scale(0.18 -0.18)">
       <use xlink:href="#CMR17-35" transform="scale(0.996264)"/>
      </g>
     </g>
    </g>
    <g id="ytick_7">
     <g id="line2d_63">
      <g>
       <use xlink:href="#mb854f4f1a9" x="37.496314" y="76.839285" style="stroke: #000000; stroke-width: 0.5"/>
      </g>
     </g>
     <g id="line2d_64">
      <g>
       <use xlink:href="#m6f6c146d6c" x="595.496314" y="76.839285" style="stroke: #000000; stroke-width: 0.5"/>
      </g>
     </g>
     <g id="text_13">
      <!-- $\mathdefault{10}$ -->
      <g transform="translate(17.547742 83.065935) scale(0.18 -0.18)">
       <use xlink:href="#CMR17-31" transform="scale(0.996264)"/>
       <use xlink:href="#CMR17-30" transform="translate(45.690477 0) scale(0.996264)"/>
      </g>
     </g>
    </g>
    <g id="ytick_8">
     <g id="line2d_65">
      <g>
       <use xlink:href="#mb854f4f1a9" x="37.496314" y="39.606458" style="stroke: #000000; stroke-width: 0.5"/>
      </g>
     </g>
     <g id="line2d_66">
      <g>
       <use xlink:href="#m6f6c146d6c" x="595.496314" y="39.606458" style="stroke: #000000; stroke-width: 0.5"/>
      </g>
     </g>
     <g id="text_14">
      <!-- $\mathdefault{15}$ -->
      <g transform="translate(17.547742 45.833108) scale(0.18 -0.18)">
       <use xlink:href="#CMR17-31" transform="scale(0.996264)"/>
       <use xlink:href="#CMR17-35" transform="translate(45.690477 0) scale(0.996264)"/>
      </g>
     </g>
    </g>
    <g id="ytick_9">
     <g id="line2d_67">
      <defs>
       <path id="m5667406696" d="M 0 0 
L 1.5 0 
" style="stroke: #000000; stroke-width: 0.5"/>
      </defs>
      <g>
       <use xlink:href="#m5667406696" x="37.496314" y="330.022506" style="stroke: #000000; stroke-width: 0.5"/>
      </g>
     </g>
     <g id="line2d_68">
      <defs>
       <path id="mf12db885a2" d="M 0 0 
L -1.5 0 
" style="stroke: #000000; stroke-width: 0.5"/>
      </defs>
      <g>
       <use xlink:href="#mf12db885a2" x="595.496314" y="330.022506" style="stroke: #000000; stroke-width: 0.5"/>
      </g>
     </g>
    </g>
    <g id="ytick_10">
     <g id="line2d_69">
      <g>
       <use xlink:href="#m5667406696" x="37.496314" y="322.575941" style="stroke: #000000; stroke-width: 0.5"/>
      </g>
     </g>
     <g id="line2d_70">
      <g>
       <use xlink:href="#mf12db885a2" x="595.496314" y="322.575941" style="stroke: #000000; stroke-width: 0.5"/>
      </g>
     </g>
    </g>
    <g id="ytick_11">
     <g id="line2d_71">
      <g>
       <use xlink:href="#m5667406696" x="37.496314" y="315.129376" style="stroke: #000000; stroke-width: 0.5"/>
      </g>
     </g>
     <g id="line2d_72">
      <g>
       <use xlink:href="#mf12db885a2" x="595.496314" y="315.129376" style="stroke: #000000; stroke-width: 0.5"/>
      </g>
     </g>
    </g>
    <g id="ytick_12">
     <g id="line2d_73">
      <g>
       <use xlink:href="#m5667406696" x="37.496314" y="307.68281" style="stroke: #000000; stroke-width: 0.5"/>
      </g>
     </g>
     <g id="line2d_74">
      <g>
       <use xlink:href="#mf12db885a2" x="595.496314" y="307.68281" style="stroke: #000000; stroke-width: 0.5"/>
      </g>
     </g>
    </g>
    <g id="ytick_13">
     <g id="line2d_75">
      <g>
       <use xlink:href="#m5667406696" x="37.496314" y="292.78968" style="stroke: #000000; stroke-width: 0.5"/>
      </g>
     </g>
     <g id="line2d_76">
      <g>
       <use xlink:href="#mf12db885a2" x="595.496314" y="292.78968" style="stroke: #000000; stroke-width: 0.5"/>
      </g>
     </g>
    </g>
    <g id="ytick_14">
     <g id="line2d_77">
      <g>
       <use xlink:href="#m5667406696" x="37.496314" y="285.343114" style="stroke: #000000; stroke-width: 0.5"/>
      </g>
     </g>
     <g id="line2d_78">
      <g>
       <use xlink:href="#mf12db885a2" x="595.496314" y="285.343114" style="stroke: #000000; stroke-width: 0.5"/>
      </g>
     </g>
    </g>
    <g id="ytick_15">
     <g id="line2d_79">
      <g>
       <use xlink:href="#m5667406696" x="37.496314" y="277.896549" style="stroke: #000000; stroke-width: 0.5"/>
      </g>
     </g>
     <g id="line2d_80">
      <g>
       <use xlink:href="#mf12db885a2" x="595.496314" y="277.896549" style="stroke: #000000; stroke-width: 0.5"/>
      </g>
     </g>
    </g>
    <g id="ytick_16">
     <g id="line2d_81">
      <g>
       <use xlink:href="#m5667406696" x="37.496314" y="270.449984" style="stroke: #000000; stroke-width: 0.5"/>
      </g>
     </g>
     <g id="line2d_82">
      <g>
       <use xlink:href="#mf12db885a2" x="595.496314" y="270.449984" style="stroke: #000000; stroke-width: 0.5"/>
      </g>
     </g>
    </g>
    <g id="ytick_17">
     <g id="line2d_83">
      <g>
       <use xlink:href="#m5667406696" x="37.496314" y="255.556853" style="stroke: #000000; stroke-width: 0.5"/>
      </g>
     </g>
     <g id="line2d_84">
      <g>
       <use xlink:href="#mf12db885a2" x="595.496314" y="255.556853" style="stroke: #000000; stroke-width: 0.5"/>
      </g>
     </g>
    </g>
    <g id="ytick_18">
     <g id="line2d_85">
      <g>
       <use xlink:href="#m5667406696" x="37.496314" y="248.110288" style="stroke: #000000; stroke-width: 0.5"/>
      </g>
     </g>
     <g id="line2d_86">
      <g>
       <use xlink:href="#mf12db885a2" x="595.496314" y="248.110288" style="stroke: #000000; stroke-width: 0.5"/>
      </g>
     </g>
    </g>
    <g id="ytick_19">
     <g id="line2d_87">
      <g>
       <use xlink:href="#m5667406696" x="37.496314" y="240.663722" style="stroke: #000000; stroke-width: 0.5"/>
      </g>
     </g>
     <g id="line2d_88">
      <g>
       <use xlink:href="#mf12db885a2" x="595.496314" y="240.663722" style="stroke: #000000; stroke-width: 0.5"/>
      </g>
     </g>
    </g>
    <g id="ytick_20">
     <g id="line2d_89">
      <g>
       <use xlink:href="#m5667406696" x="37.496314" y="233.217157" style="stroke: #000000; stroke-width: 0.5"/>
      </g>
     </g>
     <g id="line2d_90">
      <g>
       <use xlink:href="#mf12db885a2" x="595.496314" y="233.217157" style="stroke: #000000; stroke-width: 0.5"/>
      </g>
     </g>
    </g>
    <g id="ytick_21">
     <g id="line2d_91">
      <g>
       <use xlink:href="#m5667406696" x="37.496314" y="218.324026" style="stroke: #000000; stroke-width: 0.5"/>
      </g>
     </g>
     <g id="line2d_92">
      <g>
       <use xlink:href="#mf12db885a2" x="595.496314" y="218.324026" style="stroke: #000000; stroke-width: 0.5"/>
      </g>
     </g>
    </g>
    <g id="ytick_22">
     <g id="line2d_93">
      <g>
       <use xlink:href="#m5667406696" x="37.496314" y="210.877461" style="stroke: #000000; stroke-width: 0.5"/>
      </g>
     </g>
     <g id="line2d_94">
      <g>
       <use xlink:href="#mf12db885a2" x="595.496314" y="210.877461" style="stroke: #000000; stroke-width: 0.5"/>
      </g>
     </g>
    </g>
    <g id="ytick_23">
     <g id="line2d_95">
      <g>
       <use xlink:href="#m5667406696" x="37.496314" y="203.430896" style="stroke: #000000; stroke-width: 0.5"/>
      </g>
     </g>
     <g id="line2d_96">
      <g>
       <use xlink:href="#mf12db885a2" x="595.496314" y="203.430896" style="stroke: #000000; stroke-width: 0.5"/>
      </g>
     </g>
    </g>
    <g id="ytick_24">
     <g id="line2d_97">
      <g>
       <use xlink:href="#m5667406696" x="37.496314" y="195.98433" style="stroke: #000000; stroke-width: 0.5"/>
      </g>
     </g>
     <g id="line2d_98">
      <g>
       <use xlink:href="#mf12db885a2" x="595.496314" y="195.98433" style="stroke: #000000; stroke-width: 0.5"/>
      </g>
     </g>
    </g>
    <g id="ytick_25">
     <g id="line2d_99">
      <g>
       <use xlink:href="#m5667406696" x="37.496314" y="181.0912" style="stroke: #000000; stroke-width: 0.5"/>
      </g>
     </g>
     <g id="line2d_100">
      <g>
       <use xlink:href="#mf12db885a2" x="595.496314" y="181.0912" style="stroke: #000000; stroke-width: 0.5"/>
      </g>
     </g>
    </g>
    <g id="ytick_26">
     <g id="line2d_101">
      <g>
       <use xlink:href="#m5667406696" x="37.496314" y="173.644634" style="stroke: #000000; stroke-width: 0.5"/>
      </g>
     </g>
     <g id="line2d_102">
      <g>
       <use xlink:href="#mf12db885a2" x="595.496314" y="173.644634" style="stroke: #000000; stroke-width: 0.5"/>
      </g>
     </g>
    </g>
    <g id="ytick_27">
     <g id="line2d_103">
      <g>
       <use xlink:href="#m5667406696" x="37.496314" y="166.198069" style="stroke: #000000; stroke-width: 0.5"/>
      </g>
     </g>
     <g id="line2d_104">
      <g>
       <use xlink:href="#mf12db885a2" x="595.496314" y="166.198069" style="stroke: #000000; stroke-width: 0.5"/>
      </g>
     </g>
    </g>
    <g id="ytick_28">
     <g id="line2d_105">
      <g>
       <use xlink:href="#m5667406696" x="37.496314" y="158.751504" style="stroke: #000000; stroke-width: 0.5"/>
      </g>
     </g>
     <g id="line2d_106">
      <g>
       <use xlink:href="#mf12db885a2" x="595.496314" y="158.751504" style="stroke: #000000; stroke-width: 0.5"/>
      </g>
     </g>
    </g>
    <g id="ytick_29">
     <g id="line2d_107">
      <g>
       <use xlink:href="#m5667406696" x="37.496314" y="143.858373" style="stroke: #000000; stroke-width: 0.5"/>
      </g>
     </g>
     <g id="line2d_108">
      <g>
       <use xlink:href="#mf12db885a2" x="595.496314" y="143.858373" style="stroke: #000000; stroke-width: 0.5"/>
      </g>
     </g>
    </g>
    <g id="ytick_30">
     <g id="line2d_109">
      <g>
       <use xlink:href="#m5667406696" x="37.496314" y="136.411808" style="stroke: #000000; stroke-width: 0.5"/>
      </g>
     </g>
     <g id="line2d_110">
      <g>
       <use xlink:href="#mf12db885a2" x="595.496314" y="136.411808" style="stroke: #000000; stroke-width: 0.5"/>
      </g>
     </g>
    </g>
    <g id="ytick_31">
     <g id="line2d_111">
      <g>
       <use xlink:href="#m5667406696" x="37.496314" y="128.965242" style="stroke: #000000; stroke-width: 0.5"/>
      </g>
     </g>
     <g id="line2d_112">
      <g>
       <use xlink:href="#mf12db885a2" x="595.496314" y="128.965242" style="stroke: #000000; stroke-width: 0.5"/>
      </g>
     </g>
    </g>
    <g id="ytick_32">
     <g id="line2d_113">
      <g>
       <use xlink:href="#m5667406696" x="37.496314" y="121.518677" style="stroke: #000000; stroke-width: 0.5"/>
      </g>
     </g>
     <g id="line2d_114">
      <g>
       <use xlink:href="#mf12db885a2" x="595.496314" y="121.518677" style="stroke: #000000; stroke-width: 0.5"/>
      </g>
     </g>
    </g>
    <g id="ytick_33">
     <g id="line2d_115">
      <g>
       <use xlink:href="#m5667406696" x="37.496314" y="106.625546" style="stroke: #000000; stroke-width: 0.5"/>
      </g>
     </g>
     <g id="line2d_116">
      <g>
       <use xlink:href="#mf12db885a2" x="595.496314" y="106.625546" style="stroke: #000000; stroke-width: 0.5"/>
      </g>
     </g>
    </g>
    <g id="ytick_34">
     <g id="line2d_117">
      <g>
       <use xlink:href="#m5667406696" x="37.496314" y="99.178981" style="stroke: #000000; stroke-width: 0.5"/>
      </g>
     </g>
     <g id="line2d_118">
      <g>
       <use xlink:href="#mf12db885a2" x="595.496314" y="99.178981" style="stroke: #000000; stroke-width: 0.5"/>
      </g>
     </g>
    </g>
    <g id="ytick_35">
     <g id="line2d_119">
      <g>
       <use xlink:href="#m5667406696" x="37.496314" y="91.732416" style="stroke: #000000; stroke-width: 0.5"/>
      </g>
     </g>
     <g id="line2d_120">
      <g>
       <use xlink:href="#mf12db885a2" x="595.496314" y="91.732416" style="stroke: #000000; stroke-width: 0.5"/>
      </g>
     </g>
    </g>
    <g id="ytick_36">
     <g id="line2d_121">
      <g>
       <use xlink:href="#m5667406696" x="37.496314" y="84.28585" style="stroke: #000000; stroke-width: 0.5"/>
      </g>
     </g>
     <g id="line2d_122">
      <g>
       <use xlink:href="#mf12db885a2" x="595.496314" y="84.28585" style="stroke: #000000; stroke-width: 0.5"/>
      </g>
     </g>
    </g>
    <g id="ytick_37">
     <g id="line2d_123">
      <g>
       <use xlink:href="#m5667406696" x="37.496314" y="69.39272" style="stroke: #000000; stroke-width: 0.5"/>
      </g>
     </g>
     <g id="line2d_124">
      <g>
       <use xlink:href="#mf12db885a2" x="595.496314" y="69.39272" style="stroke: #000000; stroke-width: 0.5"/>
      </g>
     </g>
    </g>
    <g id="ytick_38">
     <g id="line2d_125">
      <g>
       <use xlink:href="#m5667406696" x="37.496314" y="61.946154" style="stroke: #000000; stroke-width: 0.5"/>
      </g>
     </g>
     <g id="line2d_126">
      <g>
       <use xlink:href="#mf12db885a2" x="595.496314" y="61.946154" style="stroke: #000000; stroke-width: 0.5"/>
      </g>
     </g>
    </g>
    <g id="ytick_39">
     <g id="line2d_127">
      <g>
       <use xlink:href="#m5667406696" x="37.496314" y="54.499589" style="stroke: #000000; stroke-width: 0.5"/>
      </g>
     </g>
     <g id="line2d_128">
      <g>
       <use xlink:href="#mf12db885a2" x="595.496314" y="54.499589" style="stroke: #000000; stroke-width: 0.5"/>
      </g>
     </g>
    </g>
    <g id="ytick_40">
     <g id="line2d_129">
      <g>
       <use xlink:href="#m5667406696" x="37.496314" y="47.053024" style="stroke: #000000; stroke-width: 0.5"/>
      </g>
     </g>
     <g id="line2d_130">
      <g>
       <use xlink:href="#mf12db885a2" x="595.496314" y="47.053024" style="stroke: #000000; stroke-width: 0.5"/>
      </g>
     </g>
    </g>
    <g id="ytick_41">
     <g id="line2d_131">
      <g>
       <use xlink:href="#m5667406696" x="37.496314" y="32.159893" style="stroke: #000000; stroke-width: 0.5"/>
      </g>
     </g>
     <g id="line2d_132">
      <g>
       <use xlink:href="#mf12db885a2" x="595.496314" y="32.159893" style="stroke: #000000; stroke-width: 0.5"/>
      </g>
     </g>
    </g>
    <g id="ytick_42">
     <g id="line2d_133">
      <g>
       <use xlink:href="#m5667406696" x="37.496314" y="24.713328" style="stroke: #000000; stroke-width: 0.5"/>
      </g>
     </g>
     <g id="line2d_134">
      <g>
       <use xlink:href="#mf12db885a2" x="595.496314" y="24.713328" style="stroke: #000000; stroke-width: 0.5"/>
      </g>
     </g>
    </g>
    <g id="ytick_43">
     <g id="line2d_135">
      <g>
       <use xlink:href="#m5667406696" x="37.496314" y="17.266762" style="stroke: #000000; stroke-width: 0.5"/>
      </g>
     </g>
     <g id="line2d_136">
      <g>
       <use xlink:href="#mf12db885a2" x="595.496314" y="17.266762" style="stroke: #000000; stroke-width: 0.5"/>
      </g>
     </g>
    </g>
    <g id="ytick_44">
     <g id="line2d_137">
      <g>
       <use xlink:href="#m5667406696" x="37.496314" y="9.820197" style="stroke: #000000; stroke-width: 0.5"/>
      </g>
     </g>
     <g id="line2d_138">
      <g>
       <use xlink:href="#mf12db885a2" x="595.496314" y="9.820197" style="stroke: #000000; stroke-width: 0.5"/>
      </g>
     </g>
    </g>
   </g>
   <g id="line2d_139">
    <path d="M 62.85995 168.153167 
L 64.74527 223.028596 
L 66.569773 148.803617 
L 68.455093 102.537864 
L 70.279597 170.098343 
L 72.164917 172.190681 
L 74.050237 167.523995 
L 75.87474 241.088262 
L 77.76006 128.871185 
L 79.584563 115.460324 
L 81.469883 141.31977 
L 83.355203 154.381147 
L 85.058073 177.586377 
L 86.943393 116.206975 
L 88.767896 178.82367 
L 90.653216 173.518705 
L 92.47772 197.729602 
L 94.36304 237.165468 
L 96.24836 143.957293 
L 98.072863 188.738883 
L 99.958183 162.701289 
L 101.782686 104.615684 
L 103.668006 160.154762 
L 105.553327 154.076112 
L 107.256196 201.868542 
L 109.141516 142.812986 
L 110.96602 114.078511 
L 112.85134 113.835631 
L 114.675843 111.011605 
L 116.561163 147.890974 
L 118.446483 153.566632 
L 120.270986 129.13007 
L 122.156306 137.346086 
L 123.98081 143.340011 
L 127.75145 116.386668 
L 129.515136 144.211297 
L 131.400456 164.035094 
L 133.22496 145.116311 
L 135.11028 171.673088 
L 136.934783 131.331114 
L 138.820103 169.208613 
L 140.705423 162.779741 
L 142.529926 131.919691 
L 144.415246 151.604818 
L 146.23975 117.599662 
L 148.12507 132.267309 
L 150.01039 162.440805 
L 151.713259 139.908316 
L 153.598579 154.246835 
L 155.423083 170.540015 
L 157.308403 142.500082 
L 159.132906 136.308261 
L 161.018226 139.025225 
L 162.903546 150.069176 
L 164.728049 150.302009 
L 166.613369 172.224255 
L 168.437873 123.462865 
L 170.323193 136.586749 
L 172.208513 141.539388 
L 173.911383 152.517193 
L 175.796703 141.402653 
L 177.621206 146.468502 
L 179.506526 158.291405 
L 181.331029 172.880341 
L 183.216349 147.115621 
L 185.101669 135.571617 
L 186.926173 133.814687 
L 188.811493 125.950305 
L 190.635996 137.634578 
L 192.521316 136.554997 
L 194.406636 147.246855 
L 196.109506 140.590271 
L 197.994826 171.073084 
L 199.819329 121.889335 
L 201.704649 127.52221 
L 203.529152 149.80348 
L 205.414472 148.105381 
L 207.299792 184.391989 
L 209.124296 129.859899 
L 211.009616 130.440891 
L 212.834119 189.137922 
L 214.719439 143.292985 
L 216.604759 203.676913 
L 218.368446 164.320817 
L 220.253766 172.449196 
L 222.078269 121.635675 
L 223.963589 133.719242 
L 225.788092 184.939272 
L 227.673412 199.418381 
L 229.558732 137.143484 
L 231.383236 189.77399 
L 233.268556 321.12 
L 235.093059 220.325434 
L 236.978379 155.940552 
L 238.863699 161.540635 
L 240.566569 205.122645 
L 242.451889 197.170555 
L 244.276392 66.769639 
L 246.161712 105.127703 
L 247.986216 131.99238 
L 249.871536 143.546113 
L 251.756856 94.6998 
L 253.581359 126.058697 
L 255.466679 135.009495 
L 257.291182 137.204013 
L 259.176502 136.190783 
L 261.061822 142.504798 
L 262.764692 174.47363 
L 264.650012 109.502745 
L 266.474515 122.603819 
L 268.359835 197.65933 
L 270.184339 179.429904 
L 272.069659 153.755963 
L 273.954979 146.164332 
L 275.779482 127.844578 
L 277.664802 119.158742 
L 279.489305 134.14592 
L 281.374625 125.280413 
L 283.259946 127.058645 
L 284.962815 129.281721 
L 286.848135 160.738025 
L 288.672639 136.03838 
L 290.557959 147.511667 
L 292.382462 180.248539 
L 294.267782 129.697529 
L 296.153102 234.372493 
L 297.977605 158.520543 
L 299.862925 130.450315 
L 301.687429 139.554883 
L 303.572749 141.11367 
L 305.458069 117.776705 
L 307.221755 122.161301 
L 309.107075 131.341071 
L 312.816899 175.964367 
L 314.641402 161.247812 
L 316.526722 131.155805 
L 318.412042 127.765922 
L 320.236545 130.393638 
L 322.121865 154.199582 
L 323.946369 174.080242 
L 325.831689 136.616477 
L 327.717009 121.485858 
L 329.419878 135.424422 
L 331.305198 132.575346 
L 333.129702 141.824635 
L 335.015022 119.227148 
L 336.839525 160.934892 
L 338.724845 128.69248 
L 340.610165 150.675985 
L 344.319988 136.941137 
L 346.144492 124.304868 
L 348.029812 141.252507 
L 349.915132 145.323268 
L 351.618002 153.481987 
L 353.503322 132.496129 
L 355.327825 151.009296 
L 357.213145 141.184358 
L 359.037648 129.053989 
L 360.922968 141.423376 
L 362.808288 155.68436 
L 364.632792 139.36686 
L 366.518112 172.510279 
L 368.342615 111.162193 
L 370.227935 147.780438 
L 372.113255 160.822926 
L 373.816125 131.730757 
L 375.701445 152.09572 
L 377.525948 146.000274 
L 379.411268 145.258155 
L 381.235771 155.778659 
L 383.121091 153.133982 
L 386.830915 186.994458 
L 388.716235 121.133481 
L 390.540738 131.057685 
L 392.426058 160.86474 
L 394.311378 202.114571 
L 397.960385 106.711262 
L 399.784888 131.825492 
L 401.670208 154.897777 
L 403.494711 144.72232 
L 405.380031 128.42928 
L 407.265351 143.702906 
L 409.089855 155.867192 
L 410.975175 156.385101 
L 412.799678 143.70967 
L 414.684998 123.74105 
L 416.570318 141.921162 
L 418.273188 133.584465 
L 420.158508 139.600694 
L 421.983011 153.671515 
L 423.868331 140.01583 
L 425.692835 139.388551 
L 429.463475 150.661937 
L 431.287978 140.284737 
L 433.173298 132.381672 
L 434.997801 140.718878 
L 436.883121 131.269474 
L 438.768441 117.040658 
L 440.471311 174.246949 
L 442.356631 151.963131 
L 444.181134 164.968387 
L 446.066454 137.994234 
L 447.890958 136.874979 
L 449.776278 140.757679 
L 451.661598 134.39104 
L 453.486101 140.009431 
L 455.371421 181.697957 
L 457.195924 168.129972 
L 459.081244 195.209901 
L 460.966565 139.769417 
L 462.669434 110.336242 
L 464.554754 138.144466 
L 466.379258 125.256564 
L 468.264578 164.001304 
L 470.089081 142.112107 
L 471.974401 124.496804 
L 473.859721 176.227346 
L 475.684224 129.859679 
L 477.569544 152.423454 
L 479.394048 120.149638 
L 481.279368 134.270508 
L 483.164688 127.895282 
L 484.928374 151.506825 
L 486.813694 308.845783 
L 488.638198 121.158562 
L 490.523518 109.97228 
L 492.348021 105.543752 
L 494.233341 127.010933 
L 496.118661 109.749177 
L 497.943164 157.078057 
L 501.652988 123.45255 
L 503.538308 121.220302 
L 505.423628 131.727835 
L 507.126497 133.906213 
L 509.011817 146.131043 
L 510.836321 108.626814 
L 512.721641 146.523987 
L 514.546144 138.789666 
L 516.431464 129.623294 
L 518.316784 136.020392 
L 520.141287 152.754639 
L 522.026607 148.769227 
L 523.851111 117.577948 
L 525.736431 150.127463 
L 527.621751 167.562867 
L 529.324621 174.090742 
L 531.209941 158.849269 
L 533.034444 151.299718 
L 534.919764 213.32783 
L 536.744267 177.835089 
L 538.629587 148.867549 
L 540.514907 105.739413 
L 542.339411 208.614647 
L 544.224731 175.773891 
L 546.049234 113.996283 
L 547.934554 152.276455 
L 549.819874 142.172719 
L 551.522744 129.255718 
L 553.408064 171.869839 
L 555.232567 123.152328 
L 557.117887 146.854479 
L 558.94239 116.361347 
L 560.82771 123.932276 
L 562.71303 159.729963 
L 564.537534 159.411952 
L 566.422854 175.279854 
L 568.247357 118.771303 
L 570.132677 114.657455 
L 570.132677 114.657455 
" clip-path="url(#pb3ac417164)" style="fill: none; stroke-dasharray: 3.7,1.6; stroke-dashoffset: 0; stroke: #000000"/>
   </g>
   <g id="line2d_140">
    <path d="M 62.85995 150.44839 
L 64.74527 150.812037 
L 66.569773 153.608906 
L 68.455093 151.317252 
L 70.279597 142.550027 
L 72.164917 151.704063 
L 74.050237 151.880412 
L 75.87474 151.91865 
L 77.76006 168.933948 
L 79.584563 144.895893 
L 81.469883 143.475715 
L 83.355203 148.790252 
L 85.058073 150.666656 
L 86.943393 151.759058 
L 88.767896 142.781769 
L 90.653216 151.608122 
L 92.47772 151.517931 
L 94.36304 152.09132 
L 96.24836 164.858933 
L 98.072863 150.132048 
L 99.958183 152.638089 
L 101.782686 151.126955 
L 103.668006 141.645039 
L 105.553327 151.078217 
L 107.256196 150.991158 
L 109.141516 153.076335 
L 110.96602 148.498249 
L 112.85134 141.834236 
L 116.561163 141.327087 
L 118.446483 150.738116 
L 120.270986 151.238185 
L 122.156306 143.290429 
L 123.98081 144.9286 
L 125.86613 149.584546 
L 127.75145 143.303916 
L 129.515136 142.527737 
L 131.400456 150.742576 
L 133.22496 151.306713 
L 135.11028 150.920304 
L 136.934783 152.027346 
L 138.820103 143.168924 
L 140.705423 152.012241 
L 142.529926 151.132245 
L 144.415246 143.315514 
L 146.23975 151.086822 
L 148.12507 142.755496 
L 150.01039 143.403851 
L 151.713259 150.850336 
L 153.598579 147.069964 
L 155.423083 150.866658 
L 157.308403 151.933711 
L 161.018226 144.233639 
L 162.903546 146.885398 
L 164.728049 150.852214 
L 166.613369 150.858737 
L 168.437873 151.973355 
L 170.323193 143.436448 
L 172.208513 144.739149 
L 173.911383 147.891195 
L 175.796703 150.910949 
L 177.621206 147.877407 
L 179.506526 150.793402 
L 181.331029 150.911136 
L 183.216349 152.172572 
L 185.101669 150.890409 
L 186.926173 143.771738 
L 188.811493 143.506503 
L 190.635996 141.991122 
L 192.521316 143.637597 
L 194.406636 143.504895 
L 196.109506 151.107865 
L 197.994826 146.61622 
L 199.819329 152.161893 
L 201.704649 141.803636 
L 203.529152 141.98367 
L 205.414472 151.340876 
L 207.299792 151.112006 
L 209.124296 153.112171 
L 211.009616 142.067871 
L 212.834119 142.130944 
L 214.719439 158.88462 
L 216.604759 153.974658 
L 218.368446 159.605671 
L 220.253766 157.183248 
L 222.078269 157.583161 
L 223.963589 144.028462 
L 225.788092 143.908666 
L 227.673412 152.480857 
L 229.558732 159.315666 
L 231.383236 145.453246 
L 233.268556 152.686102 
L 235.093059 186.651817 
L 236.978379 166.704711 
L 238.863699 175.613466 
L 240.566569 165.528343 
L 242.451889 169.360054 
L 244.276392 164.457827 
L 246.161712 113.95039 
L 247.986216 145.835599 
L 249.871536 156.101718 
L 251.756856 155.557809 
L 253.581359 141.415088 
L 255.466679 142.863325 
L 257.291182 144.720277 
L 259.176502 143.230315 
L 261.061822 142.142341 
L 262.764692 147.627518 
L 264.650012 152.716551 
L 266.474515 140.022329 
L 268.359835 142.037314 
L 270.184339 153.145158 
L 272.069659 152.350063 
L 273.954979 151.074246 
L 275.779482 150.765347 
L 277.664802 142.307327 
L 279.489305 141.634115 
L 281.374625 142.415519 
L 283.259946 142.471218 
L 284.962815 142.115832 
L 286.848135 142.102434 
L 288.672639 151.104522 
L 290.557959 143.217128 
L 292.382462 150.918422 
L 294.267782 152.342585 
L 296.153102 142.100562 
L 297.977605 185.665844 
L 299.862925 150.838197 
L 301.687429 142.735479 
L 303.572749 147.004028 
L 305.458069 147.157437 
L 307.221755 141.223341 
L 309.107075 142.320787 
L 310.931579 142.665205 
L 312.816899 150.975829 
L 314.641402 152.057377 
L 316.526722 151.054993 
L 318.412042 142.582893 
L 322.121865 142.585849 
L 323.946369 151.24963 
L 325.831689 152.160252 
L 327.717009 144.228374 
L 329.419878 142.330762 
L 331.305198 142.876518 
L 333.129702 142.472911 
L 335.015022 147.509345 
L 336.839525 141.696184 
L 338.724845 151.370292 
L 340.610165 142.563651 
L 342.434668 151.215283 
L 344.319988 150.852128 
L 346.144492 143.867325 
L 348.029812 142.550103 
L 349.915132 146.996815 
L 351.618002 150.615514 
L 353.503322 150.95608 
L 355.327825 142.628878 
L 357.213145 151.112784 
L 359.037648 147.436732 
L 360.922968 142.642883 
L 362.808288 146.635358 
L 364.632792 150.863419 
L 366.518112 145.984196 
L 368.342615 151.8128 
L 370.227935 140.139733 
L 372.113255 150.725603 
L 373.816125 150.770817 
L 375.701445 142.663582 
L 377.525948 151.092038 
L 379.411268 150.494137 
L 383.121091 151.191696 
L 385.006411 150.896759 
L 386.830915 151.300665 
L 388.716235 152.725528 
L 390.540738 142.224008 
L 392.426058 142.633604 
L 394.311378 151.324822 
L 396.075065 152.75407 
L 397.960385 150.910599 
L 399.784888 140.212467 
L 401.670208 142.588608 
L 403.494711 150.84581 
L 405.380031 150.516995 
L 407.265351 142.56565 
L 409.089855 150.460505 
L 410.975175 150.922994 
L 412.799678 151.014099 
L 414.684998 150.780485 
L 416.570318 142.649934 
L 418.273188 146.913538 
L 420.158508 142.709063 
L 421.983011 146.31308 
L 423.868331 150.59497 
L 425.692835 146.301772 
L 427.578155 145.977375 
L 429.463475 150.207786 
L 431.287978 150.493682 
L 433.173298 146.22904 
L 434.997801 142.885164 
L 436.883121 146.116529 
L 438.768441 142.846933 
L 440.471311 141.388983 
L 442.356631 152.739903 
L 444.181134 150.820242 
L 446.066454 151.13061 
L 447.890958 143.785813 
L 449.776278 143.596345 
L 451.661598 145.831579 
L 453.486101 142.543803 
L 455.371421 145.677528 
L 457.195924 152.167029 
L 459.081244 151.360663 
L 460.966565 152.481396 
L 462.669434 145.929502 
L 464.554754 140.274866 
L 466.379258 143.481491 
L 468.264578 142.30707 
L 470.089081 150.851092 
L 471.974401 146.299184 
L 473.859721 142.443419 
L 475.684224 152.527915 
L 477.569544 142.705445 
L 479.394048 150.916681 
L 481.279368 142.557151 
L 483.164688 142.783942 
L 484.928374 145.606441 
L 486.813694 160.250424 
L 488.638198 186.423085 
L 490.523518 87.951807 
L 492.348021 147.29161 
L 494.233341 144.796177 
L 496.118661 144.566297 
L 497.943164 140.354322 
L 499.828484 151.150694 
L 501.652988 145.456724 
L 503.538308 142.503591 
L 505.423628 142.224464 
L 507.126497 142.523514 
L 509.011817 142.398469 
L 510.836321 150.764521 
L 512.721641 140.495288 
L 514.546144 150.237876 
L 516.431464 144.624977 
L 518.316784 142.362348 
L 520.141287 142.842276 
L 522.026607 150.981623 
L 523.851111 150.94287 
L 525.736431 141.657177 
L 527.621751 150.574646 
L 529.324621 151.347622 
L 531.209941 151.96421 
L 533.034444 151.087557 
L 534.919764 151.04411 
L 536.744267 153.857678 
L 538.629587 152.252895 
L 540.514907 150.979513 
L 542.339411 140.393887 
L 544.224731 157.244099 
L 546.049234 152.736985 
L 547.934554 140.765078 
L 549.819874 152.463028 
L 551.522744 146.745224 
L 553.408064 142.428206 
L 555.232567 151.403672 
L 557.117887 142.464542 
L 558.94239 149.887879 
L 560.82771 142.135411 
L 562.71303 142.605158 
L 564.537534 150.909456 
L 566.422854 150.998273 
L 568.247357 152.026878 
L 570.132677 142.19104 
L 570.132677 142.19104 
" clip-path="url(#pb3ac417164)" style="fill: none; stroke: #008000; stroke-linecap: square"/>
   </g>
   <g id="patch_3">
    <path d="M 37.496314 336.24 
L 37.496314 3.6 
" style="fill: none; stroke: #000000; stroke-width: 0.5; stroke-linejoin: miter; stroke-linecap: square"/>
   </g>
   <g id="patch_4">
    <path d="M 595.496314 336.24 
L 595.496314 3.6 
" style="fill: none; stroke: #000000; stroke-width: 0.5; stroke-linejoin: miter; stroke-linecap: square"/>
   </g>
   <g id="patch_5">
    <path d="M 37.496314 336.24 
L 595.496314 336.24 
" style="fill: none; stroke: #000000; stroke-width: 0.5; stroke-linejoin: miter; stroke-linecap: square"/>
   </g>
   <g id="patch_6">
    <path d="M 37.496314 3.6 
L 595.496314 3.6 
" style="fill: none; stroke: #000000; stroke-width: 0.5; stroke-linejoin: miter; stroke-linecap: square"/>
   </g>
   <g id="legend_1">
    <g id="line2d_141">
     <path d="M 48.296314 285.466213 
L 60.296314 285.466213 
L 72.296314 285.466213 
" style="fill: none; stroke-dasharray: 3.7,1.6; stroke-dashoffset: 0; stroke: #000000"/>
    </g>
    <g id="text_15">
     <!-- rendimenti SP 500 -->
     <g transform="translate(81.896314 289.666213) scale(0.12 -0.12)">
      <defs>
       <path id="CMR17-72" d="M 960 1517 
C 960 2134 1222 2713 1702 2713 
C 1747 2713 1792 2707 1837 2687 
C 1837 2687 1696 2642 1696 2475 
C 1696 2321 1818 2257 1914 2257 
C 1990 2257 2131 2302 2131 2482 
C 2131 2687 1926 2816 1709 2816 
C 1222 2816 1011 2340 947 2115 
L 941 2115 
L 941 2816 
L 198 2745 
L 198 2578 
C 576 2578 634 2540 634 2231 
L 634 443 
C 634 198 608 166 198 166 
L 198 0 
C 352 12 646 12 813 12 
C 998 12 1325 12 1498 0 
L 1498 166 
C 1037 166 960 166 960 455 
L 960 1517 
z
" transform="scale(0.015625)"/>
       <path id="CMR17-65" d="M 2438 1503 
C 2464 1529 2464 1542 2464 1606 
C 2464 2251 2118 2816 1389 2816 
C 710 2816 173 2175 173 1394 
C 173 554 781 -64 1459 -64 
C 2176 -64 2458 619 2458 755 
C 2458 800 2419 800 2406 800 
C 2362 800 2355 787 2330 709 
C 2189 270 1837 51 1504 51 
C 1229 51 954 206 781 490 
C 582 819 582 1200 582 1503 
L 2438 1503 
z
M 589 1600 
C 634 2511 1126 2713 1382 2713 
C 1818 2713 2112 2308 2118 1600 
L 589 1600 
z
" transform="scale(0.015625)"/>
       <path id="CMR17-6e" d="M 2656 1954 
C 2656 2282 2592 2816 1837 2816 
C 1331 2816 1069 2424 973 2166 
L 966 2166 
L 966 2816 
L 211 2745 
L 211 2578 
C 589 2578 646 2540 646 2231 
L 646 443 
C 646 198 621 166 211 166 
L 211 0 
C 365 12 646 12 813 12 
C 979 12 1267 12 1421 0 
L 1421 166 
C 1011 166 986 192 986 443 
L 986 1678 
C 986 2269 1344 2713 1792 2713 
C 2266 2713 2317 2289 2317 1980 
L 2317 443 
C 2317 198 2291 166 1882 166 
L 1882 0 
C 2035 12 2317 12 2483 12 
C 2650 12 2938 12 3091 0 
L 3091 166 
C 2682 166 2656 192 2656 443 
L 2656 1954 
z
" transform="scale(0.015625)"/>
       <path id="CMR17-64" d="M 1869 4345 
L 1869 4179 
C 2246 4179 2304 4141 2304 3843 
L 2304 2371 
C 2278 2403 2016 2816 1498 2816 
C 845 2816 211 2228 211 1376 
C 211 529 806 -64 1434 -64 
C 1978 -64 2259 361 2291 406 
L 2291 -64 
L 3066 -13 
L 3066 154 
C 2688 154 2630 193 2630 503 
L 2630 4416 
L 1869 4345 
z
M 2291 762 
C 2291 568 2176 393 2029 264 
C 1811 70 1594 38 1472 38 
C 1286 38 621 135 621 1369 
C 621 2636 1363 2713 1530 2713 
C 1824 2713 2061 2545 2208 2313 
C 2291 2177 2291 2157 2291 2041 
L 2291 762 
z
" transform="scale(0.015625)"/>
       <path id="CMR17-69" d="M 992 3961 
C 992 4102 877 4224 730 4224 
C 589 4224 467 4108 467 3961 
C 467 3820 582 3699 730 3699 
C 870 3699 992 3814 992 3961 
z
M 243 2745 
L 243 2579 
C 602 2579 653 2540 653 2231 
L 653 443 
C 653 198 627 166 218 166 
L 218 0 
C 371 12 646 12 806 12 
C 960 12 1222 12 1370 0 
L 1370 166 
C 992 166 979 205 979 436 
L 979 2816 
L 243 2745 
z
" transform="scale(0.015625)"/>
       <path id="CMR17-6d" d="M 4326 1954 
C 4326 2276 4269 2816 3507 2816 
C 3072 2816 2771 2520 2656 2173 
L 2650 2173 
C 2573 2700 2195 2816 1837 2816 
C 1331 2816 1069 2424 973 2166 
L 966 2166 
L 966 2816 
L 211 2745 
L 211 2578 
C 589 2578 646 2540 646 2231 
L 646 443 
C 646 198 621 166 211 166 
L 211 0 
C 365 12 646 12 813 12 
C 979 12 1267 12 1421 0 
L 1421 166 
C 1011 166 986 192 986 443 
L 986 1678 
C 986 2269 1344 2713 1792 2713 
C 2266 2713 2317 2289 2317 1980 
L 2317 443 
C 2317 198 2291 166 1882 166 
L 1882 0 
C 2035 12 2317 12 2483 12 
C 2650 12 2938 12 3091 0 
L 3091 166 
C 2682 166 2656 192 2656 443 
L 2656 1678 
C 2656 2269 3014 2713 3462 2713 
C 3936 2713 3987 2289 3987 1980 
L 3987 443 
C 3987 198 3962 166 3552 166 
L 3552 0 
C 3706 12 3987 12 4154 12 
C 4320 12 4608 12 4762 0 
L 4762 166 
C 4352 166 4326 192 4326 443 
L 4326 1954 
z
" transform="scale(0.015625)"/>
       <path id="CMR17-74" d="M 966 2585 
L 1862 2585 
L 1862 2752 
L 966 2752 
L 966 3968 
L 851 3968 
C 838 3292 614 2700 70 2687 
L 70 2585 
L 627 2585 
L 627 778 
C 627 655 627 -64 1370 -64 
C 1747 -64 1965 308 1965 784 
L 1965 1151 
L 1850 1151 
L 1850 790 
C 1850 347 1677 51 1408 51 
C 1222 51 966 179 966 765 
L 966 2585 
z
" transform="scale(0.015625)"/>
       <path id="CMR17-53" d="M 2803 4351 
C 2803 4467 2797 4473 2758 4473 
C 2720 4473 2707 4447 2682 4390 
L 2490 3965 
C 2246 4320 1875 4480 1472 4480 
C 819 4480 294 3958 294 3301 
C 294 3101 339 2817 557 2546 
C 794 2250 1018 2198 1530 2063 
C 1722 2011 2042 1927 2106 1901 
C 2470 1747 2662 1360 2662 999 
C 2662 534 2336 38 1779 38 
C 1094 38 454 425 410 1328 
C 403 1431 397 1437 352 1437 
C 301 1437 294 1431 294 1302 
L 294 0 
C 294 -116 301 -122 339 -122 
C 384 -122 397 -90 486 109 
C 493 128 493 141 614 386 
C 934 -39 1472 -128 1779 -128 
C 2477 -128 2970 457 2970 1141 
C 2970 1476 2848 1734 2778 1850 
C 2509 2263 2221 2340 1914 2417 
C 1869 2437 1856 2437 1498 2527 
C 1152 2617 1005 2662 845 2836 
C 666 3036 602 3243 602 3449 
C 602 3868 934 4326 1478 4326 
C 2157 4326 2579 3842 2675 3036 
C 2694 2920 2701 2914 2746 2914 
C 2803 2914 2803 2933 2803 3043 
L 2803 4351 
z
" transform="scale(0.015625)"/>
       <path id="CMR17-50" d="M 1267 2048 
L 2291 2048 
C 3117 2048 3718 2583 3718 3187 
C 3718 3791 3130 4352 2291 4352 
L 333 4352 
L 333 4185 
C 774 4185 845 4185 845 3899 
L 845 453 
C 845 166 774 166 333 166 
L 333 0 
C 518 12 858 12 1056 12 
C 1254 12 1594 12 1779 0 
L 1779 166 
C 1338 166 1267 166 1267 453 
L 1267 2048 
z
M 1254 2182 
L 1254 3937 
C 1254 4153 1267 4185 1523 4185 
L 2170 4185 
C 2995 4185 3232 3715 3232 3187 
C 3232 2608 2950 2182 2170 2182 
L 1254 2182 
z
" transform="scale(0.015625)"/>
      </defs>
      <use xlink:href="#CMR17-72" transform="scale(0.996264)"/>
      <use xlink:href="#CMR17-65" transform="translate(35.280768 0) scale(0.996264)"/>
      <use xlink:href="#CMR17-6e" transform="translate(75.766428 0) scale(0.996264)"/>
      <use xlink:href="#CMR17-64" transform="translate(126.661798 0) scale(0.996264)"/>
      <use xlink:href="#CMR17-69" transform="translate(177.557168 0) scale(0.996264)"/>
      <use xlink:href="#CMR17-6d" transform="translate(202.428226 0) scale(0.996264)"/>
      <use xlink:href="#CMR17-65" transform="translate(279.347816 0) scale(0.996264)"/>
      <use xlink:href="#CMR17-6e" transform="translate(319.833477 0) scale(0.996264)"/>
      <use xlink:href="#CMR17-74" transform="translate(368.126392 0) scale(0.996264)"/>
      <use xlink:href="#CMR17-69" transform="translate(403.40716 0) scale(0.996264)"/>
      <use xlink:href="#CMR17-53" transform="translate(458.354185 0) scale(0.996264)"/>
      <use xlink:href="#CMR17-50" transform="translate(509.249555 0) scale(0.996264)"/>
      <use xlink:href="#CMR17-35" transform="translate(601.911822 0) scale(0.996264)"/>
      <use xlink:href="#CMR17-30" transform="translate(647.602299 0) scale(0.996264)"/>
      <use xlink:href="#CMR17-30" transform="translate(693.292776 0) scale(0.996264)"/>
     </g>
    </g>
    <g id="line2d_142">
     <path d="M 48.296314 302.190808 
L 60.296314 302.190808 
L 72.296314 302.190808 
" style="fill: none; stroke: #008000; stroke-linecap: square"/>
    </g>
    <g id="text_16">
     <!-- forecast RF -->
     <g transform="translate(81.896314 306.390808) scale(0.12 -0.12)">
      <defs>
       <path id="CMR17-66" d="M 979 2585 
L 1709 2585 
L 1709 2752 
L 966 2752 
L 966 3539 
C 966 4076 1235 4377 1510 4377 
C 1594 4377 1690 4363 1754 4339 
C 1702 4326 1568 4281 1568 4121 
C 1568 3955 1696 3904 1786 3904 
C 1875 3904 2003 3955 2003 4121 
C 2003 4353 1773 4480 1517 4480 
C 1152 4480 653 4211 653 3526 
L 653 2752 
L 141 2752 
L 141 2585 
L 653 2585 
L 653 441 
C 653 198 627 166 218 166 
L 218 0 
C 371 12 666 12 832 12 
C 1018 12 1344 12 1517 0 
L 1517 166 
C 1056 166 979 166 979 454 
L 979 2585 
z
" transform="scale(0.015625)"/>
       <path id="CMR17-6f" d="M 2758 1356 
C 2758 2176 2163 2816 1466 2816 
C 768 2816 173 2176 173 1356 
C 173 550 768 -64 1466 -64 
C 2163 -64 2758 550 2758 1356 
z
M 1466 51 
C 1165 51 909 230 762 480 
C 602 768 582 1126 582 1408 
C 582 1676 595 2009 762 2297 
C 890 2508 1139 2713 1466 2713 
C 1754 2713 1997 2553 2150 2329 
C 2349 2028 2349 1606 2349 1408 
C 2349 1158 2336 774 2163 467 
C 1984 172 1709 51 1466 51 
z
" transform="scale(0.015625)"/>
       <path id="CMR17-63" d="M 2234 2240 
C 2112 2240 1933 2240 1933 2015 
C 1933 1836 2080 1785 2163 1785 
C 2208 1785 2394 1804 2394 2028 
C 2394 2476 1958 2816 1466 2816 
C 787 2816 211 2201 211 1379 
C 211 521 813 -64 1466 -64 
C 2259 -64 2458 676 2458 747 
C 2458 773 2451 792 2406 792 
C 2362 792 2355 786 2330 702 
C 2163 180 1798 51 1523 51 
C 1114 51 621 431 621 1385 
C 621 2358 1094 2700 1472 2700 
C 1722 2700 2093 2582 2234 2240 
z
" transform="scale(0.015625)"/>
       <path id="CMR17-61" d="M 2304 1656 
C 2304 2048 2304 2275 2035 2534 
C 1798 2751 1523 2816 1306 2816 
C 800 2816 435 2408 435 1977 
C 435 1740 627 1728 666 1728 
C 749 1728 896 1779 896 1958 
C 896 2118 774 2188 666 2188 
C 640 2188 608 2182 589 2176 
C 723 2594 1069 2713 1293 2713 
C 1613 2713 1965 2421 1965 1875 
L 1965 1632 
C 1587 1619 1133 1568 774 1373 
C 371 1147 256 822 256 576 
C 256 77 832 -64 1171 -64 
C 1523 -64 1850 135 1990 505 
C 2003 219 2182 -39 2464 -39 
C 2598 -39 2938 51 2938 563 
L 2938 926 
L 2822 926 
L 2822 557 
C 2822 161 2650 109 2566 109 
C 2304 109 2304 446 2304 732 
L 2304 1656 
z
M 1965 887 
C 1965 323 1568 38 1216 38 
C 896 38 646 278 646 576 
C 646 771 730 1114 1101 1322 
C 1408 1497 1760 1523 1965 1536 
L 1965 887 
z
" transform="scale(0.015625)"/>
       <path id="CMR17-73" d="M 1978 2688 
C 1978 2803 1971 2809 1933 2809 
C 1907 2809 1901 2803 1824 2707 
C 1805 2681 1747 2617 1728 2592 
C 1523 2809 1235 2816 1126 2816 
C 416 2816 160 2444 160 2073 
C 160 1497 813 1363 998 1324 
C 1402 1241 1542 1216 1677 1100 
C 1760 1024 1901 883 1901 652 
C 1901 384 1747 38 1158 38 
C 602 38 403 460 288 1024 
C 269 1113 269 1120 218 1120 
C 166 1120 160 1113 160 985 
L 160 64 
C 160 -52 166 -58 205 -58 
C 237 -58 243 -52 275 0 
C 314 57 410 211 448 275 
C 576 102 800 -64 1158 -64 
C 1792 -64 2131 281 2131 780 
C 2131 1107 1958 1280 1875 1356 
C 1683 1555 1459 1600 1190 1651 
C 838 1728 390 1817 390 2208 
C 390 2374 480 2726 1126 2726 
C 1811 2726 1850 2086 1862 1881 
C 1869 1849 1901 1843 1920 1843 
C 1978 1843 1978 1862 1978 1971 
L 1978 2688 
z
" transform="scale(0.015625)"/>
       <path id="CMR17-52" d="M 2509 2156 
C 3117 2278 3629 2689 3629 3203 
C 3629 3806 2950 4352 2054 4352 
L 333 4352 
L 333 4185 
C 774 4185 845 4185 845 3896 
L 845 428 
C 845 140 774 140 333 140 
L 333 -26 
C 518 -13 851 -13 1050 -13 
C 1248 -13 1581 -13 1766 -26 
L 1766 140 
C 1325 140 1254 140 1254 428 
L 1254 2112 
L 2003 2112 
C 2368 2112 2573 1964 2662 1881 
C 2918 1632 2918 1459 2918 1024 
C 2918 595 2918 377 3110 160 
C 3354 -103 3680 -128 3821 -128 
C 4294 -128 4365 403 4365 512 
C 4365 550 4365 595 4307 595 
C 4256 595 4250 556 4250 531 
C 4218 115 4032 -26 3834 -26 
C 3482 -26 3443 377 3405 768 
C 3386 902 3373 998 3360 1139 
C 3322 1459 3270 1926 2509 2156 
z
M 1984 2214 
L 1254 2214 
L 1254 3935 
C 1254 4153 1267 4185 1523 4185 
L 1990 4185 
C 2522 4185 3142 3999 3142 3203 
C 3142 2374 2464 2214 1984 2214 
z
" transform="scale(0.015625)"/>
       <path id="CMR17-46" d="M 3482 4339 
L 326 4339 
L 326 4172 
C 768 4172 838 4172 838 3883 
L 838 450 
C 838 166 768 166 326 166 
L 326 0 
C 512 12 870 12 1069 12 
C 1331 12 1638 12 1901 0 
L 1901 166 
L 1760 166 
C 1274 166 1261 229 1261 456 
L 1261 2073 
L 1837 2073 
C 2432 2073 2490 1865 2490 1334 
L 2605 1334 
L 2605 2991 
L 2490 2991 
C 2490 2451 2432 2240 1837 2240 
L 1261 2240 
L 1261 3922 
C 1261 4140 1274 4172 1530 4172 
L 2355 4172 
C 3322 4172 3430 3774 3520 2920 
L 3635 2920 
L 3482 4339 
z
" transform="scale(0.015625)"/>
      </defs>
      <use xlink:href="#CMR17-66" transform="scale(0.996264)"/>
      <use xlink:href="#CMR17-6f" transform="translate(27.473512 0) scale(0.996264)"/>
      <use xlink:href="#CMR17-72" transform="translate(73.16399 0) scale(0.996264)"/>
      <use xlink:href="#CMR17-65" transform="translate(108.444757 0) scale(0.996264)"/>
      <use xlink:href="#CMR17-63" transform="translate(148.930418 0) scale(0.996264)"/>
      <use xlink:href="#CMR17-61" transform="translate(189.416078 0) scale(0.996264)"/>
      <use xlink:href="#CMR17-73" transform="translate(235.106555 0) scale(0.996264)"/>
      <use xlink:href="#CMR17-74" transform="translate(270.907893 0) scale(0.996264)"/>
      <use xlink:href="#CMR17-52" transform="translate(336.264627 0) scale(0.996264)"/>
      <use xlink:href="#CMR17-46" transform="translate(404.055729 0) scale(0.996264)"/>
     </g>
    </g>
    <g id="patch_7">
     <path d="M 48.296314 323.115404 
L 72.296314 323.115404 
L 72.296314 314.715404 
L 48.296314 314.715404 
z
" style="fill: #808080; fill-opacity: 0.3; stroke: #808080; stroke-opacity: 0.3; stroke-linejoin: miter"/>
    </g>
    <g id="text_17">
     <!-- 99 perc. CI -->
     <g transform="translate(81.896314 323.115404) scale(0.12 -0.12)">
      <defs>
       <path id="CMR17-39" d="M 2253 1871 
C 2253 448 1670 25 1190 25 
C 1043 25 685 43 538 281 
C 704 256 826 345 826 505 
C 826 678 685 736 595 736 
C 538 736 365 710 365 492 
C 365 68 742 -128 1203 -128 
C 1939 -128 2688 665 2688 2090 
C 2688 3857 1971 4224 1485 4224 
C 851 4224 243 3664 243 2800 
C 243 2000 762 1408 1414 1408 
C 1952 1408 2189 1910 2253 2122 
L 2253 1871 
z
M 1427 1510 
C 1254 1510 1011 1542 813 1929 
C 678 2181 678 2477 678 2793 
C 678 3174 678 3438 858 3722 
C 947 3857 1114 4076 1485 4076 
C 2240 4076 2240 2909 2240 2651 
C 2240 2193 2035 1510 1427 1510 
z
" transform="scale(0.015625)"/>
       <path id="CMR17-70" d="M 1408 -1114 
C 998 -1114 973 -1088 973 -834 
L 973 380 
C 1158 109 1427 -64 1766 -64 
C 2406 -64 3053 503 3053 1382 
C 3053 2196 2496 2816 1837 2816 
C 1453 2816 1139 2603 960 2345 
L 960 2816 
L 198 2745 
L 198 2577 
C 576 2577 634 2539 634 2228 
L 634 -834 
C 634 -1081 608 -1114 198 -1114 
L 198 -1280 
C 352 -1268 634 -1268 800 -1268 
C 966 -1268 1254 -1268 1408 -1280 
L 1408 -1114 
z
M 973 2015 
C 973 2106 973 2241 1222 2481 
C 1254 2506 1472 2700 1792 2700 
C 2259 2700 2643 2112 2643 1376 
C 2643 639 2234 38 1728 38 
C 1498 38 1248 148 1056 451 
C 973 594 973 632 973 736 
L 973 2015 
z
" transform="scale(0.015625)"/>
       <path id="CMR17-2e" d="M 1062 262 
C 1062 422 934 524 800 524 
C 672 524 538 422 538 262 
C 538 102 666 0 800 0 
C 928 0 1062 102 1062 262 
z
" transform="scale(0.015625)"/>
       <path id="CMR17-43" d="M 3974 4351 
C 3974 4467 3968 4473 3930 4473 
C 3904 4473 3898 4467 3853 4390 
L 3571 3849 
C 3258 4249 2874 4480 2381 4480 
C 1286 4480 294 3507 294 2179 
C 294 837 1286 -128 2387 -128 
C 3366 -128 3974 741 3974 1482 
C 3974 1547 3974 1573 3917 1573 
C 3866 1573 3866 1553 3859 1495 
C 3808 592 3168 38 2477 38 
C 1824 38 781 502 781 2179 
C 781 3862 1843 4313 2464 4313 
C 3187 4313 3712 3681 3834 2785 
C 3846 2707 3846 2695 3904 2695 
C 3974 2695 3974 2707 3974 2824 
L 3974 4351 
z
" transform="scale(0.015625)"/>
       <path id="CMR17-49" d="M 1261 3898 
C 1261 4185 1338 4185 1798 4185 
L 1798 4352 
C 1594 4339 1267 4339 1050 4339 
C 832 4339 506 4339 301 4352 
L 301 4185 
C 762 4185 838 4185 838 3898 
L 838 453 
C 838 166 762 166 301 166 
L 301 0 
C 506 12 832 12 1050 12 
C 1267 12 1594 12 1798 0 
L 1798 166 
C 1338 166 1261 166 1261 453 
L 1261 3898 
z
" transform="scale(0.015625)"/>
      </defs>
      <use xlink:href="#CMR17-39" transform="scale(0.996264)"/>
      <use xlink:href="#CMR17-39" transform="translate(45.690477 0) scale(0.996264)"/>
      <use xlink:href="#CMR17-70" transform="translate(121.456921 0) scale(0.996264)"/>
      <use xlink:href="#CMR17-65" transform="translate(174.954729 0) scale(0.996264)"/>
      <use xlink:href="#CMR17-72" transform="translate(215.44039 0) scale(0.996264)"/>
      <use xlink:href="#CMR17-63" transform="translate(250.721157 0) scale(0.996264)"/>
      <use xlink:href="#CMR17-2e" transform="translate(291.206818 0) scale(0.996264)"/>
      <use xlink:href="#CMR17-43" transform="translate(356.563537 0) scale(0.996264)"/>
      <use xlink:href="#CMR17-49" transform="translate(423.073417 0) scale(0.996264)"/>
     </g>
    </g>
   </g>
  </g>
 </g>
 <defs>
  <clipPath id="pb3ac417164">
   <rect x="37.496314" y="3.6" width="558" height="332.64"/>
  </clipPath>
 </defs>
</svg>
