<?xml version="1.0" encoding="utf-8" standalone="no"?>
<!DOCTYPE svg PUBLIC "-//W3C//DTD SVG 1.1//EN"
  "http://www.w3.org/Graphics/SVG/1.1/DTD/svg11.dtd">
<svg xmlns:xlink="http://www.w3.org/1999/xlink" width="599.096314pt" height="362.800027pt" viewBox="0 0 599.096314 362.800027" xmlns="http://www.w3.org/2000/svg" version="1.1">
 <metadata>
  <rdf:RDF xmlns:dc="http://purl.org/dc/elements/1.1/" xmlns:cc="http://creativecommons.org/ns#" xmlns:rdf="http://www.w3.org/1999/02/22-rdf-syntax-ns#">
   <cc:Work>
    <dc:type rdf:resource="http://purl.org/dc/dcmitype/StillImage"/>
    <dc:date>2025-04-07T18:30:44.864755</dc:date>
    <dc:format>image/svg+xml</dc:format>
    <dc:creator>
     <cc:Agent>
      <dc:title>Matplotlib v3.9.2, https://matplotlib.org/</dc:title>
     </cc:Agent>
    </dc:creator>
   </cc:Work>
  </rdf:RDF>
 </metadata>
 <defs>
  <style type="text/css">*{stroke-linejoin: round; stroke-linecap: butt}</style>
 </defs>
 <g id="figure_1">
  <g id="patch_1">
   <path d="M 0 362.800027 
L 599.096314 362.800027 
L 599.096314 0 
L 0 0 
z
" style="fill: #ffffff"/>
  </g>
  <g id="axes_1">
   <g id="patch_2">
    <path d="M 37.496314 339.758663 
L 595.496314 339.758663 
L 595.496314 7.118663 
L 37.496314 7.118663 
z
" style="fill: #ffffff"/>
   </g>
   <g id="matplotlib.axis_1">
    <g id="xtick_1">
     <g id="line2d_1">
      <defs>
       <path id="m3e2ca5d0e6" d="M 0 0 
L 0 -3 
" style="stroke: #000000; stroke-width: 0.5"/>
      </defs>
      <g>
       <use xlink:href="#m3e2ca5d0e6" x="125.926946" y="339.758663" style="stroke: #000000; stroke-width: 0.5"/>
      </g>
     </g>
     <g id="line2d_2">
      <defs>
       <path id="me73317db9d" d="M 0 0 
L 0 3 
" style="stroke: #000000; stroke-width: 0.5"/>
      </defs>
      <g>
       <use xlink:href="#me73317db9d" x="125.926946" y="7.118663" style="stroke: #000000; stroke-width: 0.5"/>
      </g>
     </g>
     <g id="text_1">
      <!-- $\mathdefault{2004}$ -->
      <g transform="translate(109.478375 355.711963) scale(0.18 -0.18)">
       <defs>
        <path id="CMR17-32" d="M 2669 990 
L 2554 990 
C 2490 537 2438 460 2413 422 
C 2381 371 1920 371 1830 371 
L 602 371 
C 832 620 1280 1073 1824 1596 
C 2214 1966 2669 2400 2669 3033 
C 2669 3788 2067 4224 1395 4224 
C 691 4224 262 3603 262 3027 
C 262 2777 448 2745 525 2745 
C 589 2745 781 2783 781 3007 
C 781 3206 614 3264 525 3264 
C 486 3264 448 3257 422 3244 
C 544 3788 915 4057 1306 4057 
C 1862 4057 2227 3616 2227 3033 
C 2227 2477 1901 1998 1536 1583 
L 262 147 
L 262 0 
L 2515 0 
L 2669 990 
z
" transform="scale(0.015625)"/>
        <path id="CMR17-30" d="M 2688 2038 
C 2688 2430 2682 3099 2413 3613 
C 2176 4063 1798 4224 1466 4224 
C 1158 4224 768 4082 525 3620 
C 269 3137 243 2539 243 2038 
C 243 1671 250 1112 448 623 
C 723 -39 1216 -128 1466 -128 
C 1760 -128 2208 -7 2470 604 
C 2662 1048 2688 1568 2688 2038 
z
M 1466 -26 
C 1056 -26 813 328 723 816 
C 653 1196 653 1749 653 2109 
C 653 2604 653 3015 736 3407 
C 858 3954 1216 4121 1466 4121 
C 1728 4121 2067 3947 2189 3420 
C 2272 3054 2278 2623 2278 2109 
C 2278 1691 2278 1176 2202 797 
C 2067 96 1690 -26 1466 -26 
z
" transform="scale(0.015625)"/>
        <path id="CMR17-34" d="M 2150 4147 
C 2150 4281 2144 4288 2029 4288 
L 128 1254 
L 128 1088 
L 1779 1088 
L 1779 460 
C 1779 230 1766 166 1318 166 
L 1197 166 
L 1197 0 
C 1402 12 1747 12 1965 12 
C 2182 12 2528 12 2733 0 
L 2733 166 
L 2611 166 
C 2163 166 2150 230 2150 460 
L 2150 1088 
L 2803 1088 
L 2803 1254 
L 2150 1254 
L 2150 4147 
z
M 1798 3723 
L 1798 1254 
L 256 1254 
L 1798 3723 
z
" transform="scale(0.015625)"/>
       </defs>
       <use xlink:href="#CMR17-32" transform="scale(0.996264)"/>
       <use xlink:href="#CMR17-30" transform="translate(45.690477 0) scale(0.996264)"/>
       <use xlink:href="#CMR17-30" transform="translate(91.380954 0) scale(0.996264)"/>
       <use xlink:href="#CMR17-34" transform="translate(137.071431 0) scale(0.996264)"/>
      </g>
     </g>
    </g>
    <g id="xtick_2">
     <g id="line2d_3">
      <g>
       <use xlink:href="#m3e2ca5d0e6" x="214.780256" y="339.758663" style="stroke: #000000; stroke-width: 0.5"/>
      </g>
     </g>
     <g id="line2d_4">
      <g>
       <use xlink:href="#me73317db9d" x="214.780256" y="7.118663" style="stroke: #000000; stroke-width: 0.5"/>
      </g>
     </g>
     <g id="text_2">
      <!-- $\mathdefault{2008}$ -->
      <g transform="translate(198.331684 355.711963) scale(0.18 -0.18)">
       <defs>
        <path id="CMR17-38" d="M 1741 2289 
C 2144 2494 2554 2803 2554 3298 
C 2554 3884 1990 4224 1472 4224 
C 890 4224 378 3800 378 3215 
C 378 3054 416 2777 666 2533 
C 730 2469 998 2276 1171 2154 
C 883 2006 211 1652 211 945 
C 211 282 838 -128 1459 -128 
C 2144 -128 2720 366 2720 1022 
C 2720 1607 2330 1877 2074 2051 
L 1741 2289 
z
M 902 2855 
C 851 2887 595 3086 595 3388 
C 595 3781 998 4076 1459 4076 
C 1965 4076 2336 3716 2336 3298 
C 2336 2700 1670 2359 1638 2359 
C 1632 2359 1626 2359 1574 2398 
L 902 2855 
z
M 2080 1536 
C 2176 1466 2483 1253 2483 861 
C 2483 385 2010 25 1472 25 
C 890 25 448 443 448 951 
C 448 1459 838 1884 1280 2083 
L 2080 1536 
z
" transform="scale(0.015625)"/>
       </defs>
       <use xlink:href="#CMR17-32" transform="scale(0.996264)"/>
       <use xlink:href="#CMR17-30" transform="translate(45.690477 0) scale(0.996264)"/>
       <use xlink:href="#CMR17-30" transform="translate(91.380954 0) scale(0.996264)"/>
       <use xlink:href="#CMR17-38" transform="translate(137.071431 0) scale(0.996264)"/>
      </g>
     </g>
    </g>
    <g id="xtick_3">
     <g id="line2d_5">
      <g>
       <use xlink:href="#m3e2ca5d0e6" x="303.633565" y="339.758663" style="stroke: #000000; stroke-width: 0.5"/>
      </g>
     </g>
     <g id="line2d_6">
      <g>
       <use xlink:href="#me73317db9d" x="303.633565" y="7.118663" style="stroke: #000000; stroke-width: 0.5"/>
      </g>
     </g>
     <g id="text_3">
      <!-- $\mathdefault{2012}$ -->
      <g transform="translate(287.184994 355.711963) scale(0.18 -0.18)">
       <defs>
        <path id="CMR17-31" d="M 1702 4083 
C 1702 4217 1696 4224 1606 4224 
C 1357 3927 979 3833 621 3820 
C 602 3820 570 3820 563 3808 
C 557 3795 557 3782 557 3648 
C 755 3648 1088 3686 1344 3839 
L 1344 467 
C 1344 243 1331 166 781 166 
L 589 166 
L 589 0 
C 896 6 1216 12 1523 12 
C 1830 12 2150 6 2458 0 
L 2458 166 
L 2266 166 
C 1715 166 1702 236 1702 467 
L 1702 4083 
z
" transform="scale(0.015625)"/>
       </defs>
       <use xlink:href="#CMR17-32" transform="scale(0.996264)"/>
       <use xlink:href="#CMR17-30" transform="translate(45.690477 0) scale(0.996264)"/>
       <use xlink:href="#CMR17-31" transform="translate(91.380954 0) scale(0.996264)"/>
       <use xlink:href="#CMR17-32" transform="translate(137.071431 0) scale(0.996264)"/>
      </g>
     </g>
    </g>
    <g id="xtick_4">
     <g id="line2d_7">
      <g>
       <use xlink:href="#m3e2ca5d0e6" x="392.486875" y="339.758663" style="stroke: #000000; stroke-width: 0.5"/>
      </g>
     </g>
     <g id="line2d_8">
      <g>
       <use xlink:href="#me73317db9d" x="392.486875" y="7.118663" style="stroke: #000000; stroke-width: 0.5"/>
      </g>
     </g>
     <g id="text_4">
      <!-- $\mathdefault{2016}$ -->
      <g transform="translate(376.038303 355.711963) scale(0.18 -0.18)">
       <defs>
        <path id="CMR17-36" d="M 678 2198 
C 678 3712 1395 4076 1811 4076 
C 1946 4076 2272 4049 2400 3782 
C 2298 3782 2106 3782 2106 3558 
C 2106 3385 2246 3328 2336 3328 
C 2394 3328 2566 3353 2566 3571 
C 2566 3987 2246 4224 1805 4224 
C 1043 4224 243 3411 243 2011 
C 243 257 966 -128 1478 -128 
C 2099 -128 2688 431 2688 1295 
C 2688 2101 2170 2688 1517 2688 
C 1126 2688 838 2430 678 1979 
L 678 2198 
z
M 1478 25 
C 691 25 691 1212 691 1450 
C 691 1914 909 2585 1504 2585 
C 1613 2585 1926 2585 2138 2140 
C 2253 1889 2253 1624 2253 1302 
C 2253 954 2253 696 2118 438 
C 1978 173 1773 25 1478 25 
z
" transform="scale(0.015625)"/>
       </defs>
       <use xlink:href="#CMR17-32" transform="scale(0.996264)"/>
       <use xlink:href="#CMR17-30" transform="translate(45.690477 0) scale(0.996264)"/>
       <use xlink:href="#CMR17-31" transform="translate(91.380954 0) scale(0.996264)"/>
       <use xlink:href="#CMR17-36" transform="translate(137.071431 0) scale(0.996264)"/>
      </g>
     </g>
    </g>
    <g id="xtick_5">
     <g id="line2d_9">
      <g>
       <use xlink:href="#m3e2ca5d0e6" x="481.340184" y="339.758663" style="stroke: #000000; stroke-width: 0.5"/>
      </g>
     </g>
     <g id="line2d_10">
      <g>
       <use xlink:href="#me73317db9d" x="481.340184" y="7.118663" style="stroke: #000000; stroke-width: 0.5"/>
      </g>
     </g>
     <g id="text_5">
      <!-- $\mathdefault{2020}$ -->
      <g transform="translate(464.891613 355.711963) scale(0.18 -0.18)">
       <use xlink:href="#CMR17-32" transform="scale(0.996264)"/>
       <use xlink:href="#CMR17-30" transform="translate(45.690477 0) scale(0.996264)"/>
       <use xlink:href="#CMR17-32" transform="translate(91.380954 0) scale(0.996264)"/>
       <use xlink:href="#CMR17-30" transform="translate(137.071431 0) scale(0.996264)"/>
      </g>
     </g>
    </g>
    <g id="xtick_6">
     <g id="line2d_11">
      <g>
       <use xlink:href="#m3e2ca5d0e6" x="570.193494" y="339.758663" style="stroke: #000000; stroke-width: 0.5"/>
      </g>
     </g>
     <g id="line2d_12">
      <g>
       <use xlink:href="#me73317db9d" x="570.193494" y="7.118663" style="stroke: #000000; stroke-width: 0.5"/>
      </g>
     </g>
     <g id="text_6">
      <!-- $\mathdefault{2024}$ -->
      <g transform="translate(553.744922 355.711963) scale(0.18 -0.18)">
       <use xlink:href="#CMR17-32" transform="scale(0.996264)"/>
       <use xlink:href="#CMR17-30" transform="translate(45.690477 0) scale(0.996264)"/>
       <use xlink:href="#CMR17-32" transform="translate(91.380954 0) scale(0.996264)"/>
       <use xlink:href="#CMR17-34" transform="translate(137.071431 0) scale(0.996264)"/>
      </g>
     </g>
    </g>
    <g id="xtick_7">
     <g id="line2d_13">
      <defs>
       <path id="ma43b392efb" d="M 0 0 
L 0 -1.5 
" style="stroke: #000000; stroke-width: 0.5"/>
      </defs>
      <g>
       <use xlink:href="#ma43b392efb" x="59.286964" y="339.758663" style="stroke: #000000; stroke-width: 0.5"/>
      </g>
     </g>
     <g id="line2d_14">
      <defs>
       <path id="m23621582be" d="M 0 0 
L 0 1.5 
" style="stroke: #000000; stroke-width: 0.5"/>
      </defs>
      <g>
       <use xlink:href="#m23621582be" x="59.286964" y="7.118663" style="stroke: #000000; stroke-width: 0.5"/>
      </g>
     </g>
    </g>
    <g id="xtick_8">
     <g id="line2d_15">
      <g>
       <use xlink:href="#ma43b392efb" x="81.500292" y="339.758663" style="stroke: #000000; stroke-width: 0.5"/>
      </g>
     </g>
     <g id="line2d_16">
      <g>
       <use xlink:href="#m23621582be" x="81.500292" y="7.118663" style="stroke: #000000; stroke-width: 0.5"/>
      </g>
     </g>
    </g>
    <g id="xtick_9">
     <g id="line2d_17">
      <g>
       <use xlink:href="#ma43b392efb" x="103.713619" y="339.758663" style="stroke: #000000; stroke-width: 0.5"/>
      </g>
     </g>
     <g id="line2d_18">
      <g>
       <use xlink:href="#m23621582be" x="103.713619" y="7.118663" style="stroke: #000000; stroke-width: 0.5"/>
      </g>
     </g>
    </g>
    <g id="xtick_10">
     <g id="line2d_19">
      <g>
       <use xlink:href="#ma43b392efb" x="148.140274" y="339.758663" style="stroke: #000000; stroke-width: 0.5"/>
      </g>
     </g>
     <g id="line2d_20">
      <g>
       <use xlink:href="#m23621582be" x="148.140274" y="7.118663" style="stroke: #000000; stroke-width: 0.5"/>
      </g>
     </g>
    </g>
    <g id="xtick_11">
     <g id="line2d_21">
      <g>
       <use xlink:href="#ma43b392efb" x="170.353601" y="339.758663" style="stroke: #000000; stroke-width: 0.5"/>
      </g>
     </g>
     <g id="line2d_22">
      <g>
       <use xlink:href="#m23621582be" x="170.353601" y="7.118663" style="stroke: #000000; stroke-width: 0.5"/>
      </g>
     </g>
    </g>
    <g id="xtick_12">
     <g id="line2d_23">
      <g>
       <use xlink:href="#ma43b392efb" x="192.566929" y="339.758663" style="stroke: #000000; stroke-width: 0.5"/>
      </g>
     </g>
     <g id="line2d_24">
      <g>
       <use xlink:href="#m23621582be" x="192.566929" y="7.118663" style="stroke: #000000; stroke-width: 0.5"/>
      </g>
     </g>
    </g>
    <g id="xtick_13">
     <g id="line2d_25">
      <g>
       <use xlink:href="#ma43b392efb" x="236.993583" y="339.758663" style="stroke: #000000; stroke-width: 0.5"/>
      </g>
     </g>
     <g id="line2d_26">
      <g>
       <use xlink:href="#m23621582be" x="236.993583" y="7.118663" style="stroke: #000000; stroke-width: 0.5"/>
      </g>
     </g>
    </g>
    <g id="xtick_14">
     <g id="line2d_27">
      <g>
       <use xlink:href="#ma43b392efb" x="259.206911" y="339.758663" style="stroke: #000000; stroke-width: 0.5"/>
      </g>
     </g>
     <g id="line2d_28">
      <g>
       <use xlink:href="#m23621582be" x="259.206911" y="7.118663" style="stroke: #000000; stroke-width: 0.5"/>
      </g>
     </g>
    </g>
    <g id="xtick_15">
     <g id="line2d_29">
      <g>
       <use xlink:href="#ma43b392efb" x="281.420238" y="339.758663" style="stroke: #000000; stroke-width: 0.5"/>
      </g>
     </g>
     <g id="line2d_30">
      <g>
       <use xlink:href="#m23621582be" x="281.420238" y="7.118663" style="stroke: #000000; stroke-width: 0.5"/>
      </g>
     </g>
    </g>
    <g id="xtick_16">
     <g id="line2d_31">
      <g>
       <use xlink:href="#ma43b392efb" x="325.846893" y="339.758663" style="stroke: #000000; stroke-width: 0.5"/>
      </g>
     </g>
     <g id="line2d_32">
      <g>
       <use xlink:href="#m23621582be" x="325.846893" y="7.118663" style="stroke: #000000; stroke-width: 0.5"/>
      </g>
     </g>
    </g>
    <g id="xtick_17">
     <g id="line2d_33">
      <g>
       <use xlink:href="#ma43b392efb" x="348.06022" y="339.758663" style="stroke: #000000; stroke-width: 0.5"/>
      </g>
     </g>
     <g id="line2d_34">
      <g>
       <use xlink:href="#m23621582be" x="348.06022" y="7.118663" style="stroke: #000000; stroke-width: 0.5"/>
      </g>
     </g>
    </g>
    <g id="xtick_18">
     <g id="line2d_35">
      <g>
       <use xlink:href="#ma43b392efb" x="370.273548" y="339.758663" style="stroke: #000000; stroke-width: 0.5"/>
      </g>
     </g>
     <g id="line2d_36">
      <g>
       <use xlink:href="#m23621582be" x="370.273548" y="7.118663" style="stroke: #000000; stroke-width: 0.5"/>
      </g>
     </g>
    </g>
    <g id="xtick_19">
     <g id="line2d_37">
      <g>
       <use xlink:href="#ma43b392efb" x="414.700202" y="339.758663" style="stroke: #000000; stroke-width: 0.5"/>
      </g>
     </g>
     <g id="line2d_38">
      <g>
       <use xlink:href="#m23621582be" x="414.700202" y="7.118663" style="stroke: #000000; stroke-width: 0.5"/>
      </g>
     </g>
    </g>
    <g id="xtick_20">
     <g id="line2d_39">
      <g>
       <use xlink:href="#ma43b392efb" x="436.91353" y="339.758663" style="stroke: #000000; stroke-width: 0.5"/>
      </g>
     </g>
     <g id="line2d_40">
      <g>
       <use xlink:href="#m23621582be" x="436.91353" y="7.118663" style="stroke: #000000; stroke-width: 0.5"/>
      </g>
     </g>
    </g>
    <g id="xtick_21">
     <g id="line2d_41">
      <g>
       <use xlink:href="#ma43b392efb" x="459.126857" y="339.758663" style="stroke: #000000; stroke-width: 0.5"/>
      </g>
     </g>
     <g id="line2d_42">
      <g>
       <use xlink:href="#m23621582be" x="459.126857" y="7.118663" style="stroke: #000000; stroke-width: 0.5"/>
      </g>
     </g>
    </g>
    <g id="xtick_22">
     <g id="line2d_43">
      <g>
       <use xlink:href="#ma43b392efb" x="503.553512" y="339.758663" style="stroke: #000000; stroke-width: 0.5"/>
      </g>
     </g>
     <g id="line2d_44">
      <g>
       <use xlink:href="#m23621582be" x="503.553512" y="7.118663" style="stroke: #000000; stroke-width: 0.5"/>
      </g>
     </g>
    </g>
    <g id="xtick_23">
     <g id="line2d_45">
      <g>
       <use xlink:href="#ma43b392efb" x="525.766839" y="339.758663" style="stroke: #000000; stroke-width: 0.5"/>
      </g>
     </g>
     <g id="line2d_46">
      <g>
       <use xlink:href="#m23621582be" x="525.766839" y="7.118663" style="stroke: #000000; stroke-width: 0.5"/>
      </g>
     </g>
    </g>
    <g id="xtick_24">
     <g id="line2d_47">
      <g>
       <use xlink:href="#ma43b392efb" x="547.980167" y="339.758663" style="stroke: #000000; stroke-width: 0.5"/>
      </g>
     </g>
     <g id="line2d_48">
      <g>
       <use xlink:href="#m23621582be" x="547.980167" y="7.118663" style="stroke: #000000; stroke-width: 0.5"/>
      </g>
     </g>
    </g>
    <g id="xtick_25">
     <g id="line2d_49">
      <g>
       <use xlink:href="#ma43b392efb" x="592.406821" y="339.758663" style="stroke: #000000; stroke-width: 0.5"/>
      </g>
     </g>
     <g id="line2d_50">
      <g>
       <use xlink:href="#m23621582be" x="592.406821" y="7.118663" style="stroke: #000000; stroke-width: 0.5"/>
      </g>
     </g>
    </g>
   </g>
   <g id="matplotlib.axis_2">
    <g id="ytick_1">
     <g id="line2d_51">
      <defs>
       <path id="m16aeb1cb55" d="M 0 0 
L 3 0 
" style="stroke: #000000; stroke-width: 0.5"/>
      </defs>
      <g>
       <use xlink:href="#m16aeb1cb55" x="37.496314" y="301.284699" style="stroke: #000000; stroke-width: 0.5"/>
      </g>
     </g>
     <g id="line2d_52">
      <defs>
       <path id="m48a14d17ac" d="M 0 0 
L -3 0 
" style="stroke: #000000; stroke-width: 0.5"/>
      </defs>
      <g>
       <use xlink:href="#m48a14d17ac" x="595.496314" y="301.284699" style="stroke: #000000; stroke-width: 0.5"/>
      </g>
     </g>
     <g id="text_7">
      <!-- $\mathdefault{−20}$ -->
      <g transform="translate(3.6 307.511349) scale(0.18 -0.18)">
       <defs>
        <path id="CMSY10-0" d="M 4218 1472 
C 4326 1472 4442 1472 4442 1600 
C 4442 1728 4326 1728 4218 1728 
L 755 1728 
C 646 1728 531 1728 531 1600 
C 531 1472 646 1472 755 1472 
L 4218 1472 
z
" transform="scale(0.015625)"/>
       </defs>
       <use xlink:href="#CMSY10-0" transform="scale(0.996264)"/>
       <use xlink:href="#CMR17-32" transform="translate(77.487468 0) scale(0.996264)"/>
       <use xlink:href="#CMR17-30" transform="translate(123.177945 0) scale(0.996264)"/>
      </g>
     </g>
    </g>
    <g id="ytick_2">
     <g id="line2d_53">
      <g>
       <use xlink:href="#m16aeb1cb55" x="37.496314" y="259.647835" style="stroke: #000000; stroke-width: 0.5"/>
      </g>
     </g>
     <g id="line2d_54">
      <g>
       <use xlink:href="#m48a14d17ac" x="595.496314" y="259.647835" style="stroke: #000000; stroke-width: 0.5"/>
      </g>
     </g>
     <g id="text_8">
      <!-- $\mathdefault{−15}$ -->
      <g transform="translate(3.6 265.874485) scale(0.18 -0.18)">
       <defs>
        <path id="CMR17-35" d="M 730 3750 
C 794 3724 1056 3641 1325 3641 
C 1920 3641 2246 3961 2432 4140 
C 2432 4191 2432 4224 2394 4224 
C 2387 4224 2374 4224 2323 4198 
C 2099 4102 1837 4032 1517 4032 
C 1325 4032 1037 4055 723 4191 
C 653 4224 640 4224 634 4224 
C 602 4224 595 4217 595 4090 
L 595 2231 
C 595 2113 595 2080 659 2080 
C 691 2080 704 2093 736 2139 
C 941 2435 1222 2560 1542 2560 
C 1766 2560 2246 2415 2246 1293 
C 2246 1087 2246 716 2054 422 
C 1894 159 1645 25 1370 25 
C 947 25 518 319 403 812 
C 429 806 480 793 506 793 
C 589 793 749 838 749 1036 
C 749 1209 627 1280 506 1280 
C 358 1280 262 1190 262 1011 
C 262 454 704 -128 1382 -128 
C 2042 -128 2669 441 2669 1267 
C 2669 2054 2170 2662 1549 2662 
C 1222 2662 947 2540 730 2304 
L 730 3750 
z
" transform="scale(0.015625)"/>
       </defs>
       <use xlink:href="#CMSY10-0" transform="scale(0.996264)"/>
       <use xlink:href="#CMR17-31" transform="translate(77.487468 0) scale(0.996264)"/>
       <use xlink:href="#CMR17-35" transform="translate(123.177945 0) scale(0.996264)"/>
      </g>
     </g>
    </g>
    <g id="ytick_3">
     <g id="line2d_55">
      <g>
       <use xlink:href="#m16aeb1cb55" x="37.496314" y="218.010971" style="stroke: #000000; stroke-width: 0.5"/>
      </g>
     </g>
     <g id="line2d_56">
      <g>
       <use xlink:href="#m48a14d17ac" x="595.496314" y="218.010971" style="stroke: #000000; stroke-width: 0.5"/>
      </g>
     </g>
     <g id="text_9">
      <!-- $\mathdefault{−10}$ -->
      <g transform="translate(3.6 224.237621) scale(0.18 -0.18)">
       <use xlink:href="#CMSY10-0" transform="scale(0.996264)"/>
       <use xlink:href="#CMR17-31" transform="translate(77.487468 0) scale(0.996264)"/>
       <use xlink:href="#CMR17-30" transform="translate(123.177945 0) scale(0.996264)"/>
      </g>
     </g>
    </g>
    <g id="ytick_4">
     <g id="line2d_57">
      <g>
       <use xlink:href="#m16aeb1cb55" x="37.496314" y="176.374107" style="stroke: #000000; stroke-width: 0.5"/>
      </g>
     </g>
     <g id="line2d_58">
      <g>
       <use xlink:href="#m48a14d17ac" x="595.496314" y="176.374107" style="stroke: #000000; stroke-width: 0.5"/>
      </g>
     </g>
     <g id="text_10">
      <!-- $\mathdefault{−5}$ -->
      <g transform="translate(11.824286 182.600757) scale(0.18 -0.18)">
       <use xlink:href="#CMSY10-0" transform="scale(0.996264)"/>
       <use xlink:href="#CMR17-35" transform="translate(77.487468 0) scale(0.996264)"/>
      </g>
     </g>
    </g>
    <g id="ytick_5">
     <g id="line2d_59">
      <g>
       <use xlink:href="#m16aeb1cb55" x="37.496314" y="134.737243" style="stroke: #000000; stroke-width: 0.5"/>
      </g>
     </g>
     <g id="line2d_60">
      <g>
       <use xlink:href="#m48a14d17ac" x="595.496314" y="134.737243" style="stroke: #000000; stroke-width: 0.5"/>
      </g>
     </g>
     <g id="text_11">
      <!-- $\mathdefault{0}$ -->
      <g transform="translate(25.772028 140.963893) scale(0.18 -0.18)">
       <use xlink:href="#CMR17-30" transform="scale(0.996264)"/>
      </g>
     </g>
    </g>
    <g id="ytick_6">
     <g id="line2d_61">
      <g>
       <use xlink:href="#m16aeb1cb55" x="37.496314" y="93.100378" style="stroke: #000000; stroke-width: 0.5"/>
      </g>
     </g>
     <g id="line2d_62">
      <g>
       <use xlink:href="#m48a14d17ac" x="595.496314" y="93.100378" style="stroke: #000000; stroke-width: 0.5"/>
      </g>
     </g>
     <g id="text_12">
      <!-- $\mathdefault{5}$ -->
      <g transform="translate(25.772028 99.327028) scale(0.18 -0.18)">
       <use xlink:href="#CMR17-35" transform="scale(0.996264)"/>
      </g>
     </g>
    </g>
    <g id="ytick_7">
     <g id="line2d_63">
      <g>
       <use xlink:href="#m16aeb1cb55" x="37.496314" y="51.463514" style="stroke: #000000; stroke-width: 0.5"/>
      </g>
     </g>
     <g id="line2d_64">
      <g>
       <use xlink:href="#m48a14d17ac" x="595.496314" y="51.463514" style="stroke: #000000; stroke-width: 0.5"/>
      </g>
     </g>
     <g id="text_13">
      <!-- $\mathdefault{10}$ -->
      <g transform="translate(17.547742 57.690164) scale(0.18 -0.18)">
       <use xlink:href="#CMR17-31" transform="scale(0.996264)"/>
       <use xlink:href="#CMR17-30" transform="translate(45.690477 0) scale(0.996264)"/>
      </g>
     </g>
    </g>
    <g id="ytick_8">
     <g id="line2d_65">
      <g>
       <use xlink:href="#m16aeb1cb55" x="37.496314" y="9.82665" style="stroke: #000000; stroke-width: 0.5"/>
      </g>
     </g>
     <g id="line2d_66">
      <g>
       <use xlink:href="#m48a14d17ac" x="595.496314" y="9.82665" style="stroke: #000000; stroke-width: 0.5"/>
      </g>
     </g>
     <g id="text_14">
      <!-- $\mathdefault{15}$ -->
      <g transform="translate(17.547742 16.0533) scale(0.18 -0.18)">
       <use xlink:href="#CMR17-31" transform="scale(0.996264)"/>
       <use xlink:href="#CMR17-35" transform="translate(45.690477 0) scale(0.996264)"/>
      </g>
     </g>
    </g>
    <g id="ytick_9">
     <g id="line2d_67">
      <defs>
       <path id="m07fbfa9311" d="M 0 0 
L 1.5 0 
" style="stroke: #000000; stroke-width: 0.5"/>
      </defs>
      <g>
       <use xlink:href="#m07fbfa9311" x="37.496314" y="334.594191" style="stroke: #000000; stroke-width: 0.5"/>
      </g>
     </g>
     <g id="line2d_68">
      <defs>
       <path id="mf6af5d577e" d="M 0 0 
L -1.5 0 
" style="stroke: #000000; stroke-width: 0.5"/>
      </defs>
      <g>
       <use xlink:href="#mf6af5d577e" x="595.496314" y="334.594191" style="stroke: #000000; stroke-width: 0.5"/>
      </g>
     </g>
    </g>
    <g id="ytick_10">
     <g id="line2d_69">
      <g>
       <use xlink:href="#m07fbfa9311" x="37.496314" y="326.266818" style="stroke: #000000; stroke-width: 0.5"/>
      </g>
     </g>
     <g id="line2d_70">
      <g>
       <use xlink:href="#mf6af5d577e" x="595.496314" y="326.266818" style="stroke: #000000; stroke-width: 0.5"/>
      </g>
     </g>
    </g>
    <g id="ytick_11">
     <g id="line2d_71">
      <g>
       <use xlink:href="#m07fbfa9311" x="37.496314" y="317.939445" style="stroke: #000000; stroke-width: 0.5"/>
      </g>
     </g>
     <g id="line2d_72">
      <g>
       <use xlink:href="#mf6af5d577e" x="595.496314" y="317.939445" style="stroke: #000000; stroke-width: 0.5"/>
      </g>
     </g>
    </g>
    <g id="ytick_12">
     <g id="line2d_73">
      <g>
       <use xlink:href="#m07fbfa9311" x="37.496314" y="309.612072" style="stroke: #000000; stroke-width: 0.5"/>
      </g>
     </g>
     <g id="line2d_74">
      <g>
       <use xlink:href="#mf6af5d577e" x="595.496314" y="309.612072" style="stroke: #000000; stroke-width: 0.5"/>
      </g>
     </g>
    </g>
    <g id="ytick_13">
     <g id="line2d_75">
      <g>
       <use xlink:href="#m07fbfa9311" x="37.496314" y="292.957326" style="stroke: #000000; stroke-width: 0.5"/>
      </g>
     </g>
     <g id="line2d_76">
      <g>
       <use xlink:href="#mf6af5d577e" x="595.496314" y="292.957326" style="stroke: #000000; stroke-width: 0.5"/>
      </g>
     </g>
    </g>
    <g id="ytick_14">
     <g id="line2d_77">
      <g>
       <use xlink:href="#m07fbfa9311" x="37.496314" y="284.629954" style="stroke: #000000; stroke-width: 0.5"/>
      </g>
     </g>
     <g id="line2d_78">
      <g>
       <use xlink:href="#mf6af5d577e" x="595.496314" y="284.629954" style="stroke: #000000; stroke-width: 0.5"/>
      </g>
     </g>
    </g>
    <g id="ytick_15">
     <g id="line2d_79">
      <g>
       <use xlink:href="#m07fbfa9311" x="37.496314" y="276.302581" style="stroke: #000000; stroke-width: 0.5"/>
      </g>
     </g>
     <g id="line2d_80">
      <g>
       <use xlink:href="#mf6af5d577e" x="595.496314" y="276.302581" style="stroke: #000000; stroke-width: 0.5"/>
      </g>
     </g>
    </g>
    <g id="ytick_16">
     <g id="line2d_81">
      <g>
       <use xlink:href="#m07fbfa9311" x="37.496314" y="267.975208" style="stroke: #000000; stroke-width: 0.5"/>
      </g>
     </g>
     <g id="line2d_82">
      <g>
       <use xlink:href="#mf6af5d577e" x="595.496314" y="267.975208" style="stroke: #000000; stroke-width: 0.5"/>
      </g>
     </g>
    </g>
    <g id="ytick_17">
     <g id="line2d_83">
      <g>
       <use xlink:href="#m07fbfa9311" x="37.496314" y="251.320462" style="stroke: #000000; stroke-width: 0.5"/>
      </g>
     </g>
     <g id="line2d_84">
      <g>
       <use xlink:href="#mf6af5d577e" x="595.496314" y="251.320462" style="stroke: #000000; stroke-width: 0.5"/>
      </g>
     </g>
    </g>
    <g id="ytick_18">
     <g id="line2d_85">
      <g>
       <use xlink:href="#m07fbfa9311" x="37.496314" y="242.993089" style="stroke: #000000; stroke-width: 0.5"/>
      </g>
     </g>
     <g id="line2d_86">
      <g>
       <use xlink:href="#mf6af5d577e" x="595.496314" y="242.993089" style="stroke: #000000; stroke-width: 0.5"/>
      </g>
     </g>
    </g>
    <g id="ytick_19">
     <g id="line2d_87">
      <g>
       <use xlink:href="#m07fbfa9311" x="37.496314" y="234.665717" style="stroke: #000000; stroke-width: 0.5"/>
      </g>
     </g>
     <g id="line2d_88">
      <g>
       <use xlink:href="#mf6af5d577e" x="595.496314" y="234.665717" style="stroke: #000000; stroke-width: 0.5"/>
      </g>
     </g>
    </g>
    <g id="ytick_20">
     <g id="line2d_89">
      <g>
       <use xlink:href="#m07fbfa9311" x="37.496314" y="226.338344" style="stroke: #000000; stroke-width: 0.5"/>
      </g>
     </g>
     <g id="line2d_90">
      <g>
       <use xlink:href="#mf6af5d577e" x="595.496314" y="226.338344" style="stroke: #000000; stroke-width: 0.5"/>
      </g>
     </g>
    </g>
    <g id="ytick_21">
     <g id="line2d_91">
      <g>
       <use xlink:href="#m07fbfa9311" x="37.496314" y="209.683598" style="stroke: #000000; stroke-width: 0.5"/>
      </g>
     </g>
     <g id="line2d_92">
      <g>
       <use xlink:href="#mf6af5d577e" x="595.496314" y="209.683598" style="stroke: #000000; stroke-width: 0.5"/>
      </g>
     </g>
    </g>
    <g id="ytick_22">
     <g id="line2d_93">
      <g>
       <use xlink:href="#m07fbfa9311" x="37.496314" y="201.356225" style="stroke: #000000; stroke-width: 0.5"/>
      </g>
     </g>
     <g id="line2d_94">
      <g>
       <use xlink:href="#mf6af5d577e" x="595.496314" y="201.356225" style="stroke: #000000; stroke-width: 0.5"/>
      </g>
     </g>
    </g>
    <g id="ytick_23">
     <g id="line2d_95">
      <g>
       <use xlink:href="#m07fbfa9311" x="37.496314" y="193.028852" style="stroke: #000000; stroke-width: 0.5"/>
      </g>
     </g>
     <g id="line2d_96">
      <g>
       <use xlink:href="#mf6af5d577e" x="595.496314" y="193.028852" style="stroke: #000000; stroke-width: 0.5"/>
      </g>
     </g>
    </g>
    <g id="ytick_24">
     <g id="line2d_97">
      <g>
       <use xlink:href="#m07fbfa9311" x="37.496314" y="184.70148" style="stroke: #000000; stroke-width: 0.5"/>
      </g>
     </g>
     <g id="line2d_98">
      <g>
       <use xlink:href="#mf6af5d577e" x="595.496314" y="184.70148" style="stroke: #000000; stroke-width: 0.5"/>
      </g>
     </g>
    </g>
    <g id="ytick_25">
     <g id="line2d_99">
      <g>
       <use xlink:href="#m07fbfa9311" x="37.496314" y="168.046734" style="stroke: #000000; stroke-width: 0.5"/>
      </g>
     </g>
     <g id="line2d_100">
      <g>
       <use xlink:href="#mf6af5d577e" x="595.496314" y="168.046734" style="stroke: #000000; stroke-width: 0.5"/>
      </g>
     </g>
    </g>
    <g id="ytick_26">
     <g id="line2d_101">
      <g>
       <use xlink:href="#m07fbfa9311" x="37.496314" y="159.719361" style="stroke: #000000; stroke-width: 0.5"/>
      </g>
     </g>
     <g id="line2d_102">
      <g>
       <use xlink:href="#mf6af5d577e" x="595.496314" y="159.719361" style="stroke: #000000; stroke-width: 0.5"/>
      </g>
     </g>
    </g>
    <g id="ytick_27">
     <g id="line2d_103">
      <g>
       <use xlink:href="#m07fbfa9311" x="37.496314" y="151.391988" style="stroke: #000000; stroke-width: 0.5"/>
      </g>
     </g>
     <g id="line2d_104">
      <g>
       <use xlink:href="#mf6af5d577e" x="595.496314" y="151.391988" style="stroke: #000000; stroke-width: 0.5"/>
      </g>
     </g>
    </g>
    <g id="ytick_28">
     <g id="line2d_105">
      <g>
       <use xlink:href="#m07fbfa9311" x="37.496314" y="143.064615" style="stroke: #000000; stroke-width: 0.5"/>
      </g>
     </g>
     <g id="line2d_106">
      <g>
       <use xlink:href="#mf6af5d577e" x="595.496314" y="143.064615" style="stroke: #000000; stroke-width: 0.5"/>
      </g>
     </g>
    </g>
    <g id="ytick_29">
     <g id="line2d_107">
      <g>
       <use xlink:href="#m07fbfa9311" x="37.496314" y="126.40987" style="stroke: #000000; stroke-width: 0.5"/>
      </g>
     </g>
     <g id="line2d_108">
      <g>
       <use xlink:href="#mf6af5d577e" x="595.496314" y="126.40987" style="stroke: #000000; stroke-width: 0.5"/>
      </g>
     </g>
    </g>
    <g id="ytick_30">
     <g id="line2d_109">
      <g>
       <use xlink:href="#m07fbfa9311" x="37.496314" y="118.082497" style="stroke: #000000; stroke-width: 0.5"/>
      </g>
     </g>
     <g id="line2d_110">
      <g>
       <use xlink:href="#mf6af5d577e" x="595.496314" y="118.082497" style="stroke: #000000; stroke-width: 0.5"/>
      </g>
     </g>
    </g>
    <g id="ytick_31">
     <g id="line2d_111">
      <g>
       <use xlink:href="#m07fbfa9311" x="37.496314" y="109.755124" style="stroke: #000000; stroke-width: 0.5"/>
      </g>
     </g>
     <g id="line2d_112">
      <g>
       <use xlink:href="#mf6af5d577e" x="595.496314" y="109.755124" style="stroke: #000000; stroke-width: 0.5"/>
      </g>
     </g>
    </g>
    <g id="ytick_32">
     <g id="line2d_113">
      <g>
       <use xlink:href="#m07fbfa9311" x="37.496314" y="101.427751" style="stroke: #000000; stroke-width: 0.5"/>
      </g>
     </g>
     <g id="line2d_114">
      <g>
       <use xlink:href="#mf6af5d577e" x="595.496314" y="101.427751" style="stroke: #000000; stroke-width: 0.5"/>
      </g>
     </g>
    </g>
    <g id="ytick_33">
     <g id="line2d_115">
      <g>
       <use xlink:href="#m07fbfa9311" x="37.496314" y="84.773006" style="stroke: #000000; stroke-width: 0.5"/>
      </g>
     </g>
     <g id="line2d_116">
      <g>
       <use xlink:href="#mf6af5d577e" x="595.496314" y="84.773006" style="stroke: #000000; stroke-width: 0.5"/>
      </g>
     </g>
    </g>
    <g id="ytick_34">
     <g id="line2d_117">
      <g>
       <use xlink:href="#m07fbfa9311" x="37.496314" y="76.445633" style="stroke: #000000; stroke-width: 0.5"/>
      </g>
     </g>
     <g id="line2d_118">
      <g>
       <use xlink:href="#mf6af5d577e" x="595.496314" y="76.445633" style="stroke: #000000; stroke-width: 0.5"/>
      </g>
     </g>
    </g>
    <g id="ytick_35">
     <g id="line2d_119">
      <g>
       <use xlink:href="#m07fbfa9311" x="37.496314" y="68.11826" style="stroke: #000000; stroke-width: 0.5"/>
      </g>
     </g>
     <g id="line2d_120">
      <g>
       <use xlink:href="#mf6af5d577e" x="595.496314" y="68.11826" style="stroke: #000000; stroke-width: 0.5"/>
      </g>
     </g>
    </g>
    <g id="ytick_36">
     <g id="line2d_121">
      <g>
       <use xlink:href="#m07fbfa9311" x="37.496314" y="59.790887" style="stroke: #000000; stroke-width: 0.5"/>
      </g>
     </g>
     <g id="line2d_122">
      <g>
       <use xlink:href="#mf6af5d577e" x="595.496314" y="59.790887" style="stroke: #000000; stroke-width: 0.5"/>
      </g>
     </g>
    </g>
    <g id="ytick_37">
     <g id="line2d_123">
      <g>
       <use xlink:href="#m07fbfa9311" x="37.496314" y="43.136141" style="stroke: #000000; stroke-width: 0.5"/>
      </g>
     </g>
     <g id="line2d_124">
      <g>
       <use xlink:href="#mf6af5d577e" x="595.496314" y="43.136141" style="stroke: #000000; stroke-width: 0.5"/>
      </g>
     </g>
    </g>
    <g id="ytick_38">
     <g id="line2d_125">
      <g>
       <use xlink:href="#m07fbfa9311" x="37.496314" y="34.808769" style="stroke: #000000; stroke-width: 0.5"/>
      </g>
     </g>
     <g id="line2d_126">
      <g>
       <use xlink:href="#mf6af5d577e" x="595.496314" y="34.808769" style="stroke: #000000; stroke-width: 0.5"/>
      </g>
     </g>
    </g>
    <g id="ytick_39">
     <g id="line2d_127">
      <g>
       <use xlink:href="#m07fbfa9311" x="37.496314" y="26.481396" style="stroke: #000000; stroke-width: 0.5"/>
      </g>
     </g>
     <g id="line2d_128">
      <g>
       <use xlink:href="#mf6af5d577e" x="595.496314" y="26.481396" style="stroke: #000000; stroke-width: 0.5"/>
      </g>
     </g>
    </g>
    <g id="ytick_40">
     <g id="line2d_129">
      <g>
       <use xlink:href="#m07fbfa9311" x="37.496314" y="18.154023" style="stroke: #000000; stroke-width: 0.5"/>
      </g>
     </g>
     <g id="line2d_130">
      <g>
       <use xlink:href="#mf6af5d577e" x="595.496314" y="18.154023" style="stroke: #000000; stroke-width: 0.5"/>
      </g>
     </g>
    </g>
   </g>
   <g id="line2d_131">
    <path d="M 62.85995 153.578342 
L 64.74527 214.944642 
L 66.569773 131.940055 
L 68.455093 80.201817 
L 70.279597 155.753601 
L 72.164917 158.093428 
L 74.050237 152.87475 
L 75.87474 235.140473 
L 77.76006 109.649941 
L 79.584563 94.652794 
L 81.469883 123.570991 
L 83.355203 138.177317 
L 85.058073 164.127348 
L 86.943393 95.487761 
L 88.767896 165.510992 
L 90.653216 159.578536 
L 92.47772 186.653188 
L 94.36304 230.753675 
L 96.24836 126.52049 
L 98.072863 176.599014 
L 99.958183 147.481595 
L 101.782686 82.525409 
L 103.668006 144.633856 
L 105.553327 137.836201 
L 107.256196 191.281698 
L 109.141516 125.240831 
L 110.96602 93.107534 
L 112.85134 92.835926 
L 114.675843 89.677864 
L 116.561163 130.919462 
L 118.446483 137.266458 
L 120.270986 109.939448 
L 122.156306 119.127286 
L 123.98081 125.830194 
L 127.75145 95.688709 
L 129.515136 126.804539 
L 131.400456 148.973168 
L 133.22496 127.816601 
L 135.11028 157.514612 
L 136.934783 112.40084 
L 138.820103 154.758631 
L 140.705423 147.569328 
L 142.529926 113.059036 
L 144.415246 135.072593 
L 146.23975 97.04518 
L 148.12507 113.447771 
L 150.01039 147.190301 
L 151.713259 121.992585 
L 153.598579 138.027118 
L 155.423083 156.247515 
L 157.308403 124.890914 
L 159.132906 117.966702 
L 161.018226 121.005039 
L 162.903546 133.355309 
L 164.728049 133.615683 
L 166.613369 158.130974 
L 168.437873 103.601905 
L 170.323193 118.278131 
L 172.208513 123.816586 
L 173.911383 136.092887 
L 175.796703 123.663678 
L 177.621206 129.328735 
L 179.506526 142.550095 
L 181.331029 158.864664 
L 183.216349 130.052398 
L 185.101669 117.142925 
L 186.926173 115.178179 
L 188.811493 106.383569 
L 190.635996 119.449901 
L 192.521316 118.242624 
L 194.406636 130.199154 
L 196.109506 122.755204 
L 197.994826 156.843638 
L 199.819329 101.842252 
L 201.704649 108.141405 
L 203.529152 133.058186 
L 205.414472 131.15923 
L 207.299792 171.737953 
L 209.124296 110.755604 
L 211.009616 111.405318 
L 212.834119 177.045252 
L 214.719439 125.777606 
L 216.604759 193.30397 
L 218.368446 149.292687 
L 220.253766 158.382522 
L 222.078269 101.558588 
L 223.963589 115.071445 
L 225.788092 172.349971 
L 227.673412 188.541722 
L 229.558732 118.900718 
L 231.383236 177.756557 
L 233.268556 324.638663 
L 235.093059 211.92174 
L 236.978379 139.921174 
L 238.863699 146.183655 
L 240.566569 194.920708 
L 242.451889 186.028015 
L 244.276392 40.202793 
L 246.161712 83.097992 
L 247.986216 113.140323 
L 249.871536 126.060674 
L 251.756856 71.436637 
L 253.581359 106.504782 
L 255.466679 116.514313 
L 257.291182 118.968407 
L 259.176502 117.835328 
L 261.061822 124.896189 
L 262.764692 160.646414 
L 264.650012 87.99053 
L 266.474515 102.641248 
L 268.359835 186.574604 
L 270.184339 166.188934 
L 272.069659 137.478184 
L 273.954979 128.988586 
L 275.779482 108.501903 
L 277.664802 98.788674 
L 279.489305 115.548591 
L 281.374625 105.634439 
L 283.259946 107.623008 
L 284.962815 110.109037 
L 286.848135 145.28611 
L 288.672639 117.664898 
L 290.557959 130.495289 
L 292.382462 167.1044 
L 294.267782 110.574028 
L 296.153102 227.630337 
L 297.977605 142.806335 
L 299.862925 111.415857 
L 301.687429 121.597347 
L 303.572749 123.340513 
L 305.458069 97.243165 
L 307.221755 102.146388 
L 309.107075 112.411975 
L 312.816899 162.313481 
L 314.641402 145.856197 
L 316.526722 112.204795 
L 318.412042 108.413943 
L 320.236545 111.352475 
L 322.121865 137.974276 
L 323.946369 160.206495 
L 325.831689 118.311375 
L 327.717009 101.39105 
L 329.419878 116.978319 
L 331.305198 113.792244 
L 333.129702 124.135574 
L 335.015022 98.865172 
L 336.839525 145.506263 
L 338.724845 109.450098 
L 340.610165 134.033894 
L 344.319988 118.674437 
L 346.144492 104.543504 
L 348.029812 123.495772 
L 349.915132 128.048038 
L 351.618002 137.171801 
L 353.503322 113.703657 
L 355.327825 134.40663 
L 357.213145 123.419563 
L 359.037648 109.854368 
L 360.922968 123.686852 
L 362.808288 139.634678 
L 364.632792 121.387084 
L 366.518112 158.45083 
L 368.342615 89.846264 
L 370.227935 130.795851 
L 372.113255 145.381053 
L 373.816125 112.847754 
L 375.701445 135.62156 
L 377.525948 128.805122 
L 379.411268 127.975223 
L 381.235771 139.740132 
L 383.121091 136.782632 
L 386.830915 174.648251 
L 388.716235 100.996993 
L 390.540738 112.095068 
L 392.426058 145.427813 
L 394.311378 191.556827 
L 397.960385 84.86886 
L 399.784888 112.953694 
L 401.670208 138.755055 
L 403.494711 127.376008 
L 405.380031 109.155766 
L 407.265351 126.236014 
L 409.089855 139.839136 
L 410.975175 140.418306 
L 412.799678 126.243578 
L 414.684998 103.912995 
L 416.570318 124.243518 
L 418.273188 114.920725 
L 420.158508 121.648576 
L 421.983011 137.383747 
L 423.868331 122.112817 
L 425.692835 121.411341 
L 429.463475 134.018184 
L 431.287978 122.41353 
L 433.173298 113.575661 
L 434.997801 122.899023 
L 436.883121 112.331909 
L 438.768441 96.420055 
L 440.471311 160.392919 
L 442.356631 135.473288 
L 444.181134 150.016855 
L 446.066454 119.852098 
L 447.890958 118.600453 
L 449.776278 122.942414 
L 451.661598 115.822705 
L 453.486101 122.10566 
L 455.371421 168.72526 
L 457.195924 153.552404 
L 459.081244 183.835448 
L 460.966565 121.837257 
L 462.669434 88.922616 
L 464.554754 120.0201 
L 466.379258 105.60777 
L 468.264578 148.935382 
L 470.089081 124.457049 
L 471.974401 104.758142 
L 473.859721 162.607565 
L 475.684224 110.755358 
L 477.569544 135.98806 
L 479.394048 99.896777 
L 481.279368 115.687916 
L 483.164688 108.558605 
L 484.928374 134.963009 
L 486.813694 310.912606 
L 488.638198 101.025041 
L 490.523518 88.515603 
L 492.348021 83.563252 
L 494.233341 107.569651 
L 496.118661 88.266111 
L 497.943164 141.193227 
L 501.652988 103.59037 
L 503.538308 101.094084 
L 505.423628 112.844486 
L 507.126497 115.280531 
L 509.011817 128.951359 
L 510.836321 87.01099 
L 512.721641 129.390783 
L 514.546144 120.741618 
L 516.431464 110.491013 
L 518.316784 117.644783 
L 520.141287 136.358419 
L 522.026607 131.901598 
L 523.851111 97.020898 
L 525.736431 133.420491 
L 527.621751 152.91822 
L 529.324621 160.218236 
L 531.209941 143.173945 
L 533.034444 134.731405 
L 534.919764 204.096433 
L 536.744267 164.405478 
L 538.629587 132.01155 
L 540.514907 83.782058 
L 542.339411 198.825757 
L 544.224731 162.100474 
L 546.049234 93.01558 
L 547.934554 135.823673 
L 549.819874 124.52483 
L 551.522744 110.079958 
L 553.408064 157.734636 
L 555.232567 103.254637 
L 557.117887 129.760366 
L 558.94239 95.660393 
L 560.82771 104.126839 
L 562.71303 144.158811 
L 564.537534 143.803184 
L 566.422854 161.548 
L 568.247357 98.355408 
L 570.132677 93.754958 
L 570.132677 93.754958 
" clip-path="url(#p3c65f8d4fa)" style="fill: none; stroke-dasharray: 3.7,1.6; stroke-dashoffset: 0; stroke: #000000"/>
   </g>
   <g id="line2d_132">
    <path d="M 62.85995 113.93405 
L 64.74527 135.715148 
L 66.569773 197.048806 
L 68.455093 114.051588 
L 70.279597 62.306007 
L 72.164917 137.861702 
L 74.050237 140.204756 
L 75.87474 134.990745 
L 77.76006 217.202731 
L 79.584563 91.71693 
L 81.469883 76.719603 
L 83.355203 105.644814 
L 85.058073 120.258194 
L 86.943393 146.209444 
L 88.767896 77.570006 
L 90.653216 147.59393 
L 92.47772 141.664261 
L 94.36304 168.728997 
L 96.24836 212.781465 
L 98.072863 108.555457 
L 99.958183 158.629866 
L 101.782686 129.518298 
L 103.668006 64.556104 
L 105.553327 126.670854 
L 107.256196 119.88024 
L 109.141516 173.313073 
L 110.96602 107.279258 
L 112.85134 75.14508 
L 114.675843 74.872488 
L 116.561163 71.712057 
L 118.446483 112.960894 
L 120.270986 119.314926 
L 122.156306 91.992611 
L 123.98081 101.186843 
L 125.86613 107.896793 
L 129.515136 77.760371 
L 131.400456 108.883276 
L 133.22496 131.05735 
L 135.11028 109.907885 
L 136.934783 139.609262 
L 138.820103 94.500681 
L 140.705423 136.862582 
L 142.529926 129.678959 
L 144.415246 95.173969 
L 146.23975 117.194568 
L 148.12507 79.167837 
L 150.01039 95.575796 
L 151.713259 129.324031 
L 153.598579 104.132936 
L 155.423083 120.1743 
L 157.308403 138.398354 
L 159.132906 107.048597 
L 161.018226 100.130477 
L 162.903546 103.17529 
L 164.728049 115.532579 
L 166.613369 115.799958 
L 168.437873 140.318333 
L 170.323193 85.792106 
L 172.208513 100.474427 
L 173.911383 106.019587 
L 175.796703 118.302757 
L 177.621206 105.880223 
L 179.506526 111.552241 
L 181.331029 124.779877 
L 183.216349 141.097262 
L 185.101669 112.291946 
L 186.926173 99.38834 
L 188.811493 97.429133 
L 190.635996 88.638104 
L 192.521316 101.710613 
L 194.406636 100.509343 
L 196.109506 112.47278 
L 197.994826 105.035348 
L 199.819329 139.127116 
L 201.704649 84.12795 
L 203.529152 90.431113 
L 205.414472 115.354752 
L 207.299792 113.462664 
L 209.124296 154.039361 
L 211.009616 93.061612 
L 212.834119 93.716063 
L 214.719439 159.351498 
L 216.604759 108.090531 
L 218.368446 175.602977 
L 220.253766 131.596776 
L 222.078269 140.689484 
L 223.963589 83.867622 
L 225.788092 97.385882 
L 227.673412 154.662155 
L 229.558732 170.843147 
L 231.383236 101.208114 
L 233.268556 160.059213 
L 235.093059 306.749591 
L 236.978379 194.005396 
L 238.863699 122.011323 
L 240.566569 128.279532 
L 242.451889 177.002318 
L 244.276392 168.10092 
L 246.161712 22.238663 
L 247.986216 65.128399 
L 249.871536 95.175804 
L 251.756856 108.10284 
L 253.581359 53.466764 
L 255.466679 88.538483 
L 257.291182 98.553673 
L 259.176502 101.013772 
L 261.061822 99.886538 
L 262.764692 106.95398 
L 264.650012 142.706563 
L 266.474515 70.047637 
L 268.359835 84.700833 
L 270.184339 168.625169 
L 272.069659 148.240021 
L 273.954979 119.535858 
L 275.779482 111.052995 
L 277.664802 90.570335 
L 279.489305 80.858329 
L 281.374625 97.623686 
L 283.259946 87.712832 
L 284.962815 89.705209 
L 286.848135 92.195625 
L 288.672639 127.37842 
L 290.557959 99.762949 
L 292.382462 112.600042 
L 294.267782 149.209269 
L 296.153102 92.683354 
L 297.977605 209.698697 
L 299.862925 124.880731 
L 301.687429 93.494878 
L 303.572749 103.682553 
L 305.458069 105.432058 
L 307.221755 79.335384 
L 309.107075 84.240881 
L 310.931579 94.511281 
L 312.816899 118.529143 
L 314.641402 144.421057 
L 316.526722 127.969343 
L 318.412042 94.322686 
L 320.236545 90.535759 
L 322.121865 93.47886 
L 323.946369 120.10705 
L 325.831689 142.341633 
L 327.717009 100.452239 
L 329.419878 83.533921 
L 331.305198 99.126721 
L 333.129702 95.945655 
L 335.015022 106.295293 
L 336.839525 81.026094 
L 338.724845 127.672721 
L 340.610165 91.620678 
L 342.434668 116.210983 
L 346.144492 100.863659 
L 348.029812 86.735621 
L 349.915132 105.694102 
L 351.618002 110.252827 
L 353.503322 119.382919 
L 355.327825 95.919711 
L 357.213145 116.629125 
L 359.037648 105.648231 
L 360.922968 92.087198 
L 362.808288 105.925865 
L 364.632792 121.879799 
L 366.518112 103.638171 
L 368.342615 140.704628 
L 370.227935 72.097857 
L 372.113255 113.053884 
L 373.816125 127.64451 
L 375.701445 95.115935 
L 377.525948 117.896065 
L 379.411268 111.086012 
L 381.235771 110.262467 
L 383.121091 122.033411 
L 385.006411 119.082149 
L 386.830915 138.905 
L 388.716235 156.94784 
L 390.540738 83.298356 
L 392.426058 94.400962 
L 394.311378 127.739064 
L 396.075065 173.856221 
L 397.960385 123.219989 
L 399.784888 67.169718 
L 403.494711 121.066648 
L 405.380031 109.693862 
L 407.265351 91.477512 
L 409.089855 108.563958 
L 410.975175 122.173029 
L 412.799678 122.758089 
L 414.684998 108.58954 
L 416.570318 86.261531 
L 418.273188 106.598103 
L 420.158508 97.280272 
L 421.983011 104.013947 
L 423.868331 119.7552 
L 425.692835 104.490124 
L 427.578155 103.79443 
L 431.287978 116.413679 
L 433.173298 104.814881 
L 434.997801 95.981705 
L 436.883121 105.310954 
L 438.768441 94.7483 
L 440.471311 78.83668 
L 442.356631 142.811514 
L 444.181134 117.897996 
L 446.066454 132.446001 
L 447.890958 102.286803 
L 449.776278 101.040564 
L 451.661598 105.388371 
L 453.486101 98.273675 
L 455.371421 104.562395 
L 457.195924 151.181181 
L 459.081244 136.012008 
L 460.966565 166.287535 
L 462.669434 104.295062 
L 464.554754 71.377765 
L 466.379258 102.480777 
L 468.264578 88.071369 
L 470.089081 131.403555 
L 471.974401 106.931124 
L 473.859721 87.234911 
L 475.684224 145.085586 
L 477.569544 93.237443 
L 479.394048 118.476131 
L 481.279368 82.386156 
L 483.164688 98.182217 
L 484.928374 91.056498 
L 486.813694 117.466908 
L 488.638198 293.265143 
L 490.523518 83.379278 
L 492.348021 70.867131 
L 494.233341 65.909924 
L 496.118661 89.919746 
L 497.943164 70.613434 
L 499.828484 123.546159 
L 501.652988 104.03913 
L 503.538308 85.951406 
L 505.423628 83.456868 
L 507.126497 95.211751 
L 509.011817 97.65267 
L 510.836321 111.329545 
L 512.721641 69.385911 
L 514.546144 111.771749 
L 516.431464 103.128129 
L 518.316784 92.881549 
L 520.141287 100.040505 
L 522.026607 118.760035 
L 523.851111 114.309238 
L 525.736431 79.429028 
L 527.621751 115.83461 
L 529.324621 135.336038 
L 531.209941 142.637962 
L 533.034444 125.598962 
L 534.919764 117.16235 
L 536.744267 186.507823 
L 538.629587 146.817547 
L 540.514907 114.429602 
L 542.339411 66.195422 
L 544.224731 181.223212 
L 546.049234 144.499333 
L 547.934554 75.413513 
L 549.819874 118.227472 
L 551.522744 106.93439 
L 553.408064 92.493382 
L 555.232567 140.15064 
L 557.117887 85.672914 
L 558.94239 112.18458 
L 560.82771 78.084603 
L 562.71303 86.553552 
L 564.537534 126.590637 
L 566.422854 126.240163 
L 568.247357 143.986495 
L 570.132677 80.794758 
L 570.132677 80.794758 
" clip-path="url(#p3c65f8d4fa)" style="fill: none; stroke: #bf00bf; stroke-linecap: square"/>
   </g>
   <g id="patch_3">
    <path d="M 37.496314 339.758663 
L 37.496314 7.118663 
" style="fill: none; stroke: #000000; stroke-width: 0.5; stroke-linejoin: miter; stroke-linecap: square"/>
   </g>
   <g id="patch_4">
    <path d="M 595.496314 339.758663 
L 595.496314 7.118663 
" style="fill: none; stroke: #000000; stroke-width: 0.5; stroke-linejoin: miter; stroke-linecap: square"/>
   </g>
   <g id="patch_5">
    <path d="M 37.496314 339.758663 
L 595.496314 339.758663 
" style="fill: none; stroke: #000000; stroke-width: 0.5; stroke-linejoin: miter; stroke-linecap: square"/>
   </g>
   <g id="patch_6">
    <path d="M 37.496314 7.118663 
L 595.496314 7.118663 
" style="fill: none; stroke: #000000; stroke-width: 0.5; stroke-linejoin: miter; stroke-linecap: square"/>
   </g>
   <g id="legend_1">
    <g id="line2d_133">
     <path d="M 48.296314 305.709471 
L 60.296314 305.709471 
L 72.296314 305.709471 
" style="fill: none; stroke-dasharray: 3.7,1.6; stroke-dashoffset: 0; stroke: #000000"/>
    </g>
    <g id="text_15">
     <!-- rendimenti SP 500 -->
     <g transform="translate(81.896314 309.909471) scale(0.12 -0.12)">
      <defs>
       <path id="CMR17-72" d="M 960 1517 
C 960 2134 1222 2713 1702 2713 
C 1747 2713 1792 2707 1837 2687 
C 1837 2687 1696 2642 1696 2475 
C 1696 2321 1818 2257 1914 2257 
C 1990 2257 2131 2302 2131 2482 
C 2131 2687 1926 2816 1709 2816 
C 1222 2816 1011 2340 947 2115 
L 941 2115 
L 941 2816 
L 198 2745 
L 198 2578 
C 576 2578 634 2540 634 2231 
L 634 443 
C 634 198 608 166 198 166 
L 198 0 
C 352 12 646 12 813 12 
C 998 12 1325 12 1498 0 
L 1498 166 
C 1037 166 960 166 960 455 
L 960 1517 
z
" transform="scale(0.015625)"/>
       <path id="CMR17-65" d="M 2438 1503 
C 2464 1529 2464 1542 2464 1606 
C 2464 2251 2118 2816 1389 2816 
C 710 2816 173 2175 173 1394 
C 173 554 781 -64 1459 -64 
C 2176 -64 2458 619 2458 755 
C 2458 800 2419 800 2406 800 
C 2362 800 2355 787 2330 709 
C 2189 270 1837 51 1504 51 
C 1229 51 954 206 781 490 
C 582 819 582 1200 582 1503 
L 2438 1503 
z
M 589 1600 
C 634 2511 1126 2713 1382 2713 
C 1818 2713 2112 2308 2118 1600 
L 589 1600 
z
" transform="scale(0.015625)"/>
       <path id="CMR17-6e" d="M 2656 1954 
C 2656 2282 2592 2816 1837 2816 
C 1331 2816 1069 2424 973 2166 
L 966 2166 
L 966 2816 
L 211 2745 
L 211 2578 
C 589 2578 646 2540 646 2231 
L 646 443 
C 646 198 621 166 211 166 
L 211 0 
C 365 12 646 12 813 12 
C 979 12 1267 12 1421 0 
L 1421 166 
C 1011 166 986 192 986 443 
L 986 1678 
C 986 2269 1344 2713 1792 2713 
C 2266 2713 2317 2289 2317 1980 
L 2317 443 
C 2317 198 2291 166 1882 166 
L 1882 0 
C 2035 12 2317 12 2483 12 
C 2650 12 2938 12 3091 0 
L 3091 166 
C 2682 166 2656 192 2656 443 
L 2656 1954 
z
" transform="scale(0.015625)"/>
       <path id="CMR17-64" d="M 1869 4345 
L 1869 4179 
C 2246 4179 2304 4141 2304 3843 
L 2304 2371 
C 2278 2403 2016 2816 1498 2816 
C 845 2816 211 2228 211 1376 
C 211 529 806 -64 1434 -64 
C 1978 -64 2259 361 2291 406 
L 2291 -64 
L 3066 -13 
L 3066 154 
C 2688 154 2630 193 2630 503 
L 2630 4416 
L 1869 4345 
z
M 2291 762 
C 2291 568 2176 393 2029 264 
C 1811 70 1594 38 1472 38 
C 1286 38 621 135 621 1369 
C 621 2636 1363 2713 1530 2713 
C 1824 2713 2061 2545 2208 2313 
C 2291 2177 2291 2157 2291 2041 
L 2291 762 
z
" transform="scale(0.015625)"/>
       <path id="CMR17-69" d="M 992 3961 
C 992 4102 877 4224 730 4224 
C 589 4224 467 4108 467 3961 
C 467 3820 582 3699 730 3699 
C 870 3699 992 3814 992 3961 
z
M 243 2745 
L 243 2579 
C 602 2579 653 2540 653 2231 
L 653 443 
C 653 198 627 166 218 166 
L 218 0 
C 371 12 646 12 806 12 
C 960 12 1222 12 1370 0 
L 1370 166 
C 992 166 979 205 979 436 
L 979 2816 
L 243 2745 
z
" transform="scale(0.015625)"/>
       <path id="CMR17-6d" d="M 4326 1954 
C 4326 2276 4269 2816 3507 2816 
C 3072 2816 2771 2520 2656 2173 
L 2650 2173 
C 2573 2700 2195 2816 1837 2816 
C 1331 2816 1069 2424 973 2166 
L 966 2166 
L 966 2816 
L 211 2745 
L 211 2578 
C 589 2578 646 2540 646 2231 
L 646 443 
C 646 198 621 166 211 166 
L 211 0 
C 365 12 646 12 813 12 
C 979 12 1267 12 1421 0 
L 1421 166 
C 1011 166 986 192 986 443 
L 986 1678 
C 986 2269 1344 2713 1792 2713 
C 2266 2713 2317 2289 2317 1980 
L 2317 443 
C 2317 198 2291 166 1882 166 
L 1882 0 
C 2035 12 2317 12 2483 12 
C 2650 12 2938 12 3091 0 
L 3091 166 
C 2682 166 2656 192 2656 443 
L 2656 1678 
C 2656 2269 3014 2713 3462 2713 
C 3936 2713 3987 2289 3987 1980 
L 3987 443 
C 3987 198 3962 166 3552 166 
L 3552 0 
C 3706 12 3987 12 4154 12 
C 4320 12 4608 12 4762 0 
L 4762 166 
C 4352 166 4326 192 4326 443 
L 4326 1954 
z
" transform="scale(0.015625)"/>
       <path id="CMR17-74" d="M 966 2585 
L 1862 2585 
L 1862 2752 
L 966 2752 
L 966 3968 
L 851 3968 
C 838 3292 614 2700 70 2687 
L 70 2585 
L 627 2585 
L 627 778 
C 627 655 627 -64 1370 -64 
C 1747 -64 1965 308 1965 784 
L 1965 1151 
L 1850 1151 
L 1850 790 
C 1850 347 1677 51 1408 51 
C 1222 51 966 179 966 765 
L 966 2585 
z
" transform="scale(0.015625)"/>
       <path id="CMR17-53" d="M 2803 4351 
C 2803 4467 2797 4473 2758 4473 
C 2720 4473 2707 4447 2682 4390 
L 2490 3965 
C 2246 4320 1875 4480 1472 4480 
C 819 4480 294 3958 294 3301 
C 294 3101 339 2817 557 2546 
C 794 2250 1018 2198 1530 2063 
C 1722 2011 2042 1927 2106 1901 
C 2470 1747 2662 1360 2662 999 
C 2662 534 2336 38 1779 38 
C 1094 38 454 425 410 1328 
C 403 1431 397 1437 352 1437 
C 301 1437 294 1431 294 1302 
L 294 0 
C 294 -116 301 -122 339 -122 
C 384 -122 397 -90 486 109 
C 493 128 493 141 614 386 
C 934 -39 1472 -128 1779 -128 
C 2477 -128 2970 457 2970 1141 
C 2970 1476 2848 1734 2778 1850 
C 2509 2263 2221 2340 1914 2417 
C 1869 2437 1856 2437 1498 2527 
C 1152 2617 1005 2662 845 2836 
C 666 3036 602 3243 602 3449 
C 602 3868 934 4326 1478 4326 
C 2157 4326 2579 3842 2675 3036 
C 2694 2920 2701 2914 2746 2914 
C 2803 2914 2803 2933 2803 3043 
L 2803 4351 
z
" transform="scale(0.015625)"/>
       <path id="CMR17-50" d="M 1267 2048 
L 2291 2048 
C 3117 2048 3718 2583 3718 3187 
C 3718 3791 3130 4352 2291 4352 
L 333 4352 
L 333 4185 
C 774 4185 845 4185 845 3899 
L 845 453 
C 845 166 774 166 333 166 
L 333 0 
C 518 12 858 12 1056 12 
C 1254 12 1594 12 1779 0 
L 1779 166 
C 1338 166 1267 166 1267 453 
L 1267 2048 
z
M 1254 2182 
L 1254 3937 
C 1254 4153 1267 4185 1523 4185 
L 2170 4185 
C 2995 4185 3232 3715 3232 3187 
C 3232 2608 2950 2182 2170 2182 
L 1254 2182 
z
" transform="scale(0.015625)"/>
      </defs>
      <use xlink:href="#CMR17-72" transform="scale(0.996264)"/>
      <use xlink:href="#CMR17-65" transform="translate(35.280768 0) scale(0.996264)"/>
      <use xlink:href="#CMR17-6e" transform="translate(75.766428 0) scale(0.996264)"/>
      <use xlink:href="#CMR17-64" transform="translate(126.661798 0) scale(0.996264)"/>
      <use xlink:href="#CMR17-69" transform="translate(177.557168 0) scale(0.996264)"/>
      <use xlink:href="#CMR17-6d" transform="translate(202.428226 0) scale(0.996264)"/>
      <use xlink:href="#CMR17-65" transform="translate(279.347816 0) scale(0.996264)"/>
      <use xlink:href="#CMR17-6e" transform="translate(319.833477 0) scale(0.996264)"/>
      <use xlink:href="#CMR17-74" transform="translate(368.126392 0) scale(0.996264)"/>
      <use xlink:href="#CMR17-69" transform="translate(403.40716 0) scale(0.996264)"/>
      <use xlink:href="#CMR17-53" transform="translate(458.354185 0) scale(0.996264)"/>
      <use xlink:href="#CMR17-50" transform="translate(509.249555 0) scale(0.996264)"/>
      <use xlink:href="#CMR17-35" transform="translate(601.911822 0) scale(0.996264)"/>
      <use xlink:href="#CMR17-30" transform="translate(647.602299 0) scale(0.996264)"/>
      <use xlink:href="#CMR17-30" transform="translate(693.292776 0) scale(0.996264)"/>
     </g>
    </g>
    <g id="line2d_134">
     <path d="M 48.296314 322.434067 
L 60.296314 322.434067 
L 72.296314 322.434067 
" style="fill: none; stroke: #bf00bf; stroke-linecap: square"/>
    </g>
    <g id="text_16">
     <!-- Random Walk -->
     <g transform="translate(81.896314 326.634067) scale(0.12 -0.12)">
      <defs>
       <path id="CMR17-52" d="M 2509 2156 
C 3117 2278 3629 2689 3629 3203 
C 3629 3806 2950 4352 2054 4352 
L 333 4352 
L 333 4185 
C 774 4185 845 4185 845 3896 
L 845 428 
C 845 140 774 140 333 140 
L 333 -26 
C 518 -13 851 -13 1050 -13 
C 1248 -13 1581 -13 1766 -26 
L 1766 140 
C 1325 140 1254 140 1254 428 
L 1254 2112 
L 2003 2112 
C 2368 2112 2573 1964 2662 1881 
C 2918 1632 2918 1459 2918 1024 
C 2918 595 2918 377 3110 160 
C 3354 -103 3680 -128 3821 -128 
C 4294 -128 4365 403 4365 512 
C 4365 550 4365 595 4307 595 
C 4256 595 4250 556 4250 531 
C 4218 115 4032 -26 3834 -26 
C 3482 -26 3443 377 3405 768 
C 3386 902 3373 998 3360 1139 
C 3322 1459 3270 1926 2509 2156 
z
M 1984 2214 
L 1254 2214 
L 1254 3935 
C 1254 4153 1267 4185 1523 4185 
L 1990 4185 
C 2522 4185 3142 3999 3142 3203 
C 3142 2374 2464 2214 1984 2214 
z
" transform="scale(0.015625)"/>
       <path id="CMR17-61" d="M 2304 1656 
C 2304 2048 2304 2275 2035 2534 
C 1798 2751 1523 2816 1306 2816 
C 800 2816 435 2408 435 1977 
C 435 1740 627 1728 666 1728 
C 749 1728 896 1779 896 1958 
C 896 2118 774 2188 666 2188 
C 640 2188 608 2182 589 2176 
C 723 2594 1069 2713 1293 2713 
C 1613 2713 1965 2421 1965 1875 
L 1965 1632 
C 1587 1619 1133 1568 774 1373 
C 371 1147 256 822 256 576 
C 256 77 832 -64 1171 -64 
C 1523 -64 1850 135 1990 505 
C 2003 219 2182 -39 2464 -39 
C 2598 -39 2938 51 2938 563 
L 2938 926 
L 2822 926 
L 2822 557 
C 2822 161 2650 109 2566 109 
C 2304 109 2304 446 2304 732 
L 2304 1656 
z
M 1965 887 
C 1965 323 1568 38 1216 38 
C 896 38 646 278 646 576 
C 646 771 730 1114 1101 1322 
C 1408 1497 1760 1523 1965 1536 
L 1965 887 
z
" transform="scale(0.015625)"/>
       <path id="CMR17-6f" d="M 2758 1356 
C 2758 2176 2163 2816 1466 2816 
C 768 2816 173 2176 173 1356 
C 173 550 768 -64 1466 -64 
C 2163 -64 2758 550 2758 1356 
z
M 1466 51 
C 1165 51 909 230 762 480 
C 602 768 582 1126 582 1408 
C 582 1676 595 2009 762 2297 
C 890 2508 1139 2713 1466 2713 
C 1754 2713 1997 2553 2150 2329 
C 2349 2028 2349 1606 2349 1408 
C 2349 1158 2336 774 2163 467 
C 1984 172 1709 51 1466 51 
z
" transform="scale(0.015625)"/>
       <path id="CMR17-57" d="M 5523 3775 
C 5581 3948 5677 4173 6048 4185 
L 6048 4352 
C 5939 4345 5715 4339 5600 4339 
C 5440 4339 5158 4339 5005 4352 
L 5005 4185 
C 5293 4179 5414 4019 5414 3865 
C 5414 3820 5408 3794 5382 3724 
L 4390 557 
L 3347 3890 
C 3328 3955 3322 3980 3322 4006 
C 3322 4185 3603 4185 3725 4185 
L 3725 4352 
C 3539 4339 3219 4339 3021 4339 
C 2861 4339 2573 4339 2426 4352 
L 2426 4185 
C 2720 4185 2797 4166 2861 4051 
C 2886 3993 2989 3660 2989 3640 
C 2989 3615 2976 3576 2970 3557 
L 2029 564 
L 986 3890 
C 954 3980 954 3993 954 4006 
C 954 4185 1235 4185 1363 4185 
L 1363 4352 
C 1178 4339 858 4339 659 4339 
C 493 4339 211 4339 58 4352 
L 58 4185 
C 442 4185 467 4147 531 3942 
L 1779 -20 
C 1811 -116 1811 -128 1869 -128 
C 1920 -128 1939 -116 1965 -26 
L 3053 3448 
L 4141 -26 
C 4166 -116 4186 -128 4237 -128 
C 4294 -128 4294 -116 4326 -20 
L 5523 3775 
z
" transform="scale(0.015625)"/>
       <path id="CMR17-6c" d="M 979 4416 
L 218 4345 
L 218 4179 
C 595 4179 653 4141 653 3835 
L 653 439 
C 653 198 627 166 218 166 
L 218 0 
C 371 12 653 12 813 12 
C 979 12 1261 12 1414 0 
L 1414 166 
C 1005 166 979 191 979 439 
L 979 4416 
z
" transform="scale(0.015625)"/>
       <path id="CMR17-6b" d="M 1670 1679 
C 1664 1692 1632 1730 1632 1749 
C 1632 1762 2086 2175 2144 2226 
C 2509 2532 2739 2563 2906 2570 
L 2906 2735 
C 2867 2735 2854 2735 2848 2729 
L 2534 2722 
C 2355 2722 2080 2722 1907 2735 
L 1907 2570 
C 1997 2563 2061 2513 2061 2423 
C 2061 2296 1933 2175 1926 2175 
L 960 1298 
L 960 4416 
L 198 4345 
L 198 4179 
C 576 4179 634 4141 634 3835 
L 634 439 
C 634 198 608 166 198 166 
L 198 0 
C 352 12 634 12 794 12 
C 954 12 1235 12 1389 0 
L 1389 166 
C 979 166 954 191 954 439 
L 954 1139 
L 1395 1540 
L 2042 586 
C 2118 471 2182 382 2182 299 
C 2182 185 2067 166 1990 166 
L 1990 0 
C 2144 12 2419 12 2579 12 
C 2694 12 2931 6 3040 0 
L 3040 166 
C 2739 166 2669 223 2477 503 
L 1670 1679 
z
" transform="scale(0.015625)"/>
      </defs>
      <use xlink:href="#CMR17-52" transform="scale(0.996264)"/>
      <use xlink:href="#CMR17-61" transform="translate(67.791102 0) scale(0.996264)"/>
      <use xlink:href="#CMR17-6e" transform="translate(113.481579 0) scale(0.996264)"/>
      <use xlink:href="#CMR17-64" transform="translate(164.376949 0) scale(0.996264)"/>
      <use xlink:href="#CMR17-6f" transform="translate(215.272319 0) scale(0.996264)"/>
      <use xlink:href="#CMR17-6d" transform="translate(260.962796 0) scale(0.996264)"/>
      <use xlink:href="#CMR17-57" transform="translate(367.958352 0) scale(0.996264)"/>
      <use xlink:href="#CMR17-61" transform="translate(455.247746 0) scale(0.996264)"/>
      <use xlink:href="#CMR17-6c" transform="translate(500.938224 0) scale(0.996264)"/>
      <use xlink:href="#CMR17-6b" transform="translate(525.809282 0) scale(0.996264)"/>
     </g>
    </g>
   </g>
  </g>
 </g>
 <defs>
  <clipPath id="p3c65f8d4fa">
   <rect x="37.496314" y="7.118663" width="558" height="332.64"/>
  </clipPath>
 </defs>
</svg>
