<?xml version="1.0" encoding="utf-8" standalone="no"?>
<!DOCTYPE svg PUBLIC "-//W3C//DTD SVG 1.1//EN"
  "http://www.w3.org/Graphics/SVG/1.1/DTD/svg11.dtd">
<svg xmlns:xlink="http://www.w3.org/1999/xlink" width="599.096314pt" height="359.281364pt" viewBox="0 0 599.096314 359.281364" xmlns="http://www.w3.org/2000/svg" version="1.1">
 <metadata>
  <rdf:RDF xmlns:dc="http://purl.org/dc/elements/1.1/" xmlns:cc="http://creativecommons.org/ns#" xmlns:rdf="http://www.w3.org/1999/02/22-rdf-syntax-ns#">
   <cc:Work>
    <dc:type rdf:resource="http://purl.org/dc/dcmitype/StillImage"/>
    <dc:date>2025-03-28T01:13:13.172861</dc:date>
    <dc:format>image/svg+xml</dc:format>
    <dc:creator>
     <cc:Agent>
      <dc:title>Matplotlib v3.9.2, https://matplotlib.org/</dc:title>
     </cc:Agent>
    </dc:creator>
   </cc:Work>
  </rdf:RDF>
 </metadata>
 <defs>
  <style type="text/css">*{stroke-linejoin: round; stroke-linecap: butt}</style>
 </defs>
 <g id="figure_1">
  <g id="patch_1">
   <path d="M 0 359.281364 
L 599.096314 359.281364 
L 599.096314 0 
L 0 0 
z
" style="fill: #ffffff"/>
  </g>
  <g id="axes_1">
   <g id="patch_2">
    <path d="M 37.496314 336.24 
L 595.496314 336.24 
L 595.496314 3.6 
L 37.496314 3.6 
z
" style="fill: #ffffff"/>
   </g>
   <g id="PolyCollection_1">
    <defs>
     <path id="m1ef59cbce2" d="M 62.85995 -303.624771 
L 62.85995 -147.299111 
L 64.74527 -143.217852 
L 66.569773 -134.944904 
L 68.455093 -139.749603 
L 70.279597 -159.175178 
L 72.164917 -143.251552 
L 74.050237 -139.939982 
L 75.87474 -146.401265 
L 77.76006 -108.081105 
L 79.584563 -152.177684 
L 81.469883 -149.874771 
L 83.355203 -139.756523 
L 85.058073 -144.101614 
L 86.943393 -141.63565 
L 88.767896 -146.885042 
L 90.653216 -141.034043 
L 92.47772 -141.461535 
L 94.36304 -141.208571 
L 96.24836 -132.61153 
L 98.072863 -152.758115 
L 99.958183 -145.083726 
L 101.782686 -138.78754 
L 103.668006 -153.289407 
L 105.553327 -141.164385 
L 107.256196 -144.556087 
L 109.141516 -139.400272 
L 110.96602 -148.946448 
L 112.85134 -152.047978 
L 114.675843 -159.971657 
L 116.561163 -159.487321 
L 118.446483 -135.949091 
L 120.270986 -139.349325 
L 122.156306 -155.284376 
L 123.98081 -149.274676 
L 125.86613 -151.109121 
L 127.75145 -155.089898 
L 129.515136 -157.145884 
L 131.400456 -147.454323 
L 133.22496 -147.789692 
L 135.11028 -143.133773 
L 136.934783 -140.390897 
L 138.820103 -155.38407 
L 140.705423 -146.127156 
L 142.529926 -148.355972 
L 144.415246 -155.522116 
L 146.23975 -145.905485 
L 148.12507 -155.293983 
L 150.01039 -149.958314 
L 151.713259 -143.534338 
L 153.598579 -151.362763 
L 155.423083 -140.674944 
L 157.308403 -145.384202 
L 159.132906 -152.887907 
L 161.018226 -154.249783 
L 162.903546 -146.115654 
L 164.728049 -146.270812 
L 166.613369 -148.233545 
L 168.437873 -140.162471 
L 170.323193 -155.410142 
L 172.208513 -151.953395 
L 173.911383 -150.240423 
L 175.796703 -144.174401 
L 177.621206 -147.987978 
L 179.506526 -143.291848 
L 181.331029 -144.798557 
L 183.216349 -142.889259 
L 185.101669 -149.240573 
L 186.926173 -155.219999 
L 188.811493 -154.960036 
L 190.635996 -154.866808 
L 192.521316 -154.122453 
L 194.406636 -153.419935 
L 196.109506 -144.657882 
L 197.994826 -152.257557 
L 199.819329 -146.43611 
L 201.704649 -155.985902 
L 203.529152 -153.22502 
L 205.414472 -141.391317 
L 207.299792 -150.59335 
L 209.124296 -146.155356 
L 211.009616 -157.1908 
L 212.834119 -153.134298 
L 214.719439 -143.107441 
L 216.604759 -150.060605 
L 218.368446 -141.709289 
L 220.253766 -146.230385 
L 222.078269 -147.346249 
L 223.963589 -148.379828 
L 225.788092 -146.127418 
L 227.673412 -135.171087 
L 229.558732 -136.567918 
L 231.383236 -151.962877 
L 233.268556 -143.838471 
L 235.093059 -97.807562 
L 236.978379 -130.801779 
L 238.863699 -149.110253 
L 240.566569 -111.932117 
L 242.451889 -104.900408 
L 244.276392 -126.302986 
L 246.161712 -158.844025 
L 247.986216 -128.126018 
L 249.871536 -152.82191 
L 251.756856 -148.577048 
L 253.581359 -157.931041 
L 255.466679 -157.648347 
L 257.291182 -163.805506 
L 259.176502 -181.788524 
L 261.061822 -178.117825 
L 262.764692 -154.659029 
L 264.650012 -145.787159 
L 266.474515 -159.963393 
L 268.359835 -152.506698 
L 270.184339 -144.861174 
L 272.069659 -147.150159 
L 273.954979 -150.365339 
L 275.779482 -154.722435 
L 277.664802 -153.208031 
L 279.489305 -158.165433 
L 281.374625 -145.237 
L 283.259946 -143.57895 
L 284.962815 -155.582685 
L 286.848135 -148.852995 
L 288.672639 -148.269812 
L 290.557959 -152.107604 
L 292.382462 -153.182734 
L 294.267782 -145.045637 
L 296.153102 -155.369431 
L 297.977605 -136.398154 
L 299.862925 -154.288467 
L 301.687429 -147.186002 
L 303.572749 -154.21639 
L 305.458069 -150.83312 
L 307.221755 -158.125836 
L 309.107075 -154.640617 
L 310.931579 -144.527027 
L 312.816899 -150.509259 
L 314.641402 -151.29663 
L 316.526722 -152.331666 
L 318.412042 -156.924212 
L 320.236545 -147.267775 
L 322.121865 -153.754538 
L 323.946369 -143.811091 
L 325.831689 -146.098663 
L 327.717009 -151.289242 
L 329.419878 -148.001809 
L 331.305198 -151.969371 
L 333.129702 -153.887802 
L 335.015022 -156.000972 
L 336.839525 -150.670357 
L 338.724845 -137.302863 
L 340.610165 -154.380025 
L 342.434668 -146.931999 
L 344.319988 -148.72846 
L 346.144492 -156.043762 
L 348.029812 -151.735615 
L 349.915132 -145.761245 
L 351.618002 -149.676156 
L 353.503322 -151.018041 
L 355.327825 -153.852086 
L 357.213145 -147.051356 
L 359.037648 -154.509283 
L 360.922968 -153.066275 
L 362.808288 -151.97742 
L 364.632792 -150.374732 
L 366.518112 -149.676877 
L 368.342615 -148.928245 
L 370.227935 -157.546205 
L 372.113255 -151.271757 
L 373.816125 -155.201513 
L 375.701445 -149.934073 
L 377.525948 -145.103399 
L 379.411268 -151.895456 
L 381.235771 -142.41572 
L 383.121091 -147.250788 
L 385.006411 -149.341136 
L 386.830915 -148.868694 
L 388.716235 -141.496423 
L 390.540738 -159.206883 
L 392.426058 -146.924996 
L 394.311378 -146.854499 
L 396.075065 -141.906428 
L 397.960385 -156.480897 
L 399.784888 -153.772745 
L 401.670208 -154.979927 
L 403.494711 -146.355353 
L 405.380031 -155.11158 
L 407.265351 -160.094573 
L 409.089855 -145.657423 
L 410.975175 -144.244965 
L 412.799678 -144.293781 
L 414.684998 -143.332827 
L 416.570318 -152.283763 
L 418.273188 -152.856176 
L 420.158508 -153.82616 
L 421.983011 -149.584301 
L 423.868331 -151.777242 
L 425.692835 -151.970363 
L 427.578155 -155.059866 
L 429.463475 -145.809382 
L 431.287978 -150.817648 
L 433.173298 -152.436872 
L 434.997801 -149.231842 
L 436.883121 -151.772795 
L 438.768441 -153.412104 
L 440.471311 -152.473726 
L 442.356631 -139.55671 
L 444.181134 -151.793321 
L 446.066454 -145.893087 
L 447.890958 -152.987018 
L 449.776278 -154.289635 
L 451.661598 -151.858548 
L 453.486101 -154.065302 
L 455.371421 -149.265326 
L 457.195924 -140.57979 
L 459.081244 -146.787521 
L 460.966565 -145.973448 
L 462.669434 -155.514893 
L 464.554754 -160.989536 
L 466.379258 -154.406085 
L 468.264578 -157.434591 
L 470.089081 -148.735125 
L 471.974401 -160.409252 
L 473.859721 -166.62138 
L 475.684224 -144.14747 
L 477.569544 -154.936968 
L 479.394048 -146.75685 
L 481.279368 -155.147494 
L 483.164688 -152.334858 
L 484.928374 -155.649101 
L 486.813694 -151.258465 
L 488.638198 -135.064568 
L 490.523518 -187.34756 
L 492.348021 -154.558834 
L 494.233341 -151.614685 
L 496.118661 -158.660143 
L 497.943164 -154.963758 
L 499.828484 -141.674408 
L 501.652988 -145.870771 
L 503.538308 -153.922077 
L 505.423628 -153.68255 
L 507.126497 -148.113535 
L 509.011817 -153.508088 
L 510.836321 -146.63426 
L 512.721641 -160.767007 
L 514.546144 -150.851561 
L 516.431464 -155.280725 
L 518.316784 -159.524363 
L 520.141287 -153.767721 
L 522.026607 -145.567915 
L 523.851111 -148.475549 
L 525.736431 -159.135344 
L 527.621751 -150.632567 
L 529.324621 -144.175447 
L 531.209941 -145.949815 
L 533.034444 -146.900782 
L 534.919764 -144.14553 
L 536.744267 -139.960489 
L 538.629587 -144.989114 
L 540.514907 -151.89584 
L 542.339411 -159.891999 
L 544.224731 -131.222179 
L 546.049234 -143.900883 
L 547.934554 -160.071459 
L 549.819874 -148.886309 
L 551.522744 -152.942134 
L 553.408064 -150.686812 
L 555.232567 -145.453004 
L 557.117887 -159.34509 
L 558.94239 -145.143271 
L 560.82771 -155.540963 
L 562.71303 -152.830782 
L 564.537534 -141.979766 
L 566.422854 -145.489532 
L 568.247357 -142.334081 
L 570.132677 -160.341342 
L 570.132677 -312.979534 
L 570.132677 -312.979534 
L 568.247357 -294.956085 
L 566.422854 -298.130071 
L 564.537534 -294.661768 
L 562.71303 -305.556808 
L 560.82771 -308.300955 
L 558.94239 -297.884909 
L 557.117887 -312.132413 
L 555.232567 -298.252267 
L 553.408064 -303.513126 
L 551.522744 -305.801003 
L 549.819874 -301.791416 
L 547.934554 -313.013455 
L 546.049234 -296.815946 
L 544.224731 -284.174225 
L 542.339411 -312.59327 
L 540.514907 -304.556213 
L 538.629587 -297.699323 
L 536.744267 -292.697286 
L 534.919764 -296.719604 
L 533.034444 -299.529263 
L 531.209941 -298.623944 
L 529.324621 -296.874521 
L 527.621751 -303.361647 
L 525.736431 -311.909923 
L 523.851111 -301.24893 
L 522.026607 -298.391725 
L 520.141287 -306.638847 
L 518.316784 -312.446712 
L 516.431464 -308.245876 
L 514.546144 -303.863078 
L 512.721641 -313.825168 
L 510.836321 -299.652564 
L 509.011817 -306.574562 
L 507.126497 -301.225302 
L 505.423628 -306.837703 
L 503.538308 -307.104198 
L 501.652988 -299.051829 
L 499.828484 -294.897992 
L 497.943164 -308.229288 
L 496.118661 -311.920257 
L 494.233341 -304.90105 
L 492.348021 -307.810432 
L 490.523518 -340.561364 
L 488.638198 -288.212376 
L 486.813694 -303.011382 
L 484.928374 -307.459614 
L 483.164688 -304.164955 
L 481.279368 -307.029909 
L 479.394048 -298.630358 
L 477.569544 -306.862174 
L 475.684224 -296.095044 
L 473.859721 -318.520467 
L 471.974401 -312.340913 
L 470.089081 -300.718011 
L 468.264578 -309.436517 
L 466.379258 -306.439499 
L 464.554754 -313.075799 
L 462.669434 -307.582201 
L 460.966565 -298.09031 
L 459.081244 -298.84573 
L 457.195924 -292.672685 
L 455.371421 -301.356544 
L 453.486101 -306.209179 
L 451.661598 -304.044053 
L 449.776278 -306.522778 
L 447.890958 -305.267295 
L 446.066454 -298.222719 
L 444.181134 -304.152108 
L 442.356631 -291.967785 
L 440.471311 -304.855442 
L 438.768441 -305.793452 
L 436.883121 -304.194004 
L 434.997801 -301.702552 
L 433.173298 -304.951593 
L 431.287978 -303.386564 
L 429.463475 -298.431615 
L 427.578155 -307.731811 
L 425.692835 -304.695396 
L 423.868331 -304.553753 
L 421.983011 -302.411407 
L 420.158508 -306.709876 
L 418.273188 -305.817273 
L 416.570318 -305.297468 
L 414.684998 -296.342973 
L 412.799678 -297.353119 
L 410.975175 -297.33069 
L 409.089855 -298.800501 
L 407.265351 -313.290664 
L 405.380031 -308.350234 
L 403.494711 -299.641835 
L 401.670208 -308.311457 
L 399.784888 -307.146339 
L 397.960385 -309.849825 
L 396.075065 -295.329444 
L 394.311378 -300.162512 
L 392.426058 -300.289835 
L 390.540738 -312.625371 
L 388.716235 -294.903949 
L 386.830915 -302.241892 
L 385.006411 -302.742369 
L 383.121091 -300.70579 
L 381.235771 -295.916467 
L 379.411268 -305.442885 
L 377.525948 -298.711497 
L 375.701445 -303.591864 
L 373.816125 -308.908836 
L 372.113255 -305.02987 
L 370.227935 -311.348738 
L 368.342615 -302.711703 
L 366.518112 -303.478659 
L 364.632792 -304.226631 
L 362.808288 -305.88397 
L 360.922968 -307.025274 
L 359.037648 -308.513702 
L 357.213145 -301.103405 
L 355.327825 -307.952466 
L 353.503322 -305.166818 
L 351.618002 -303.873684 
L 349.915132 -300.013906 
L 348.029812 -306.046361 
L 346.144492 -310.396218 
L 344.319988 -303.130065 
L 342.434668 -301.385548 
L 340.610165 -308.884431 
L 338.724845 -291.806108 
L 336.839525 -305.217927 
L 335.015022 -310.579138 
L 333.129702 -308.52208 
L 331.305198 -306.652365 
L 329.419878 -302.729506 
L 327.717009 -306.034644 
L 325.831689 -300.888603 
L 323.946369 -298.639398 
L 322.121865 -308.652647 
L 320.236545 -302.208777 
L 318.412042 -311.873697 
L 316.526722 -307.328107 
L 314.641402 -306.338562 
L 312.816899 -305.55071 
L 310.931579 -299.646539 
L 309.107075 -309.810222 
L 307.221755 -313.337114 
L 305.458069 -306.05561 
L 303.572749 -309.494774 
L 301.687429 -302.512067 
L 299.862925 -309.658677 
L 297.977605 -291.818861 
L 296.153102 -310.344533 
L 294.267782 -300.054078 
L 292.382462 -308.16021 
L 290.557959 -307.140241 
L 288.672639 -303.348223 
L 286.848135 -303.97676 
L 284.962815 -310.757757 
L 283.259946 -298.768642 
L 281.374625 -300.438583 
L 279.489305 -313.424898 
L 277.664802 -308.481907 
L 275.779482 -310.034153 
L 273.954979 -305.738889 
L 272.069659 -302.579013 
L 270.184339 -300.301402 
L 268.359835 -307.837547 
L 266.474515 -315.338606 
L 264.650012 -301.125197 
L 262.764692 -309.999481 
L 261.061822 -329.158085 
L 259.176502 -332.844033 
L 257.291182 -314.881683 
L 255.466679 -308.776906 
L 253.581359 -309.094538 
L 251.756856 -298.237234 
L 249.871536 -302.531984 
L 247.986216 -279.214622 
L 246.161712 -309.864866 
L 244.276392 -281.264863 
L 242.451889 -257.713942 
L 240.566569 -264.734036 
L 238.863699 -301.955329 
L 236.978379 -285.849285 
L 235.093059 -253.306371 
L 233.268556 -298.766728 
L 231.383236 -306.825104 
L 229.558732 -290.381628 
L 227.673412 -290.018421 
L 225.788092 -300.962218 
L 223.963589 -303.257672 
L 222.078269 -301.177311 
L 220.253766 -299.613375 
L 218.368446 -295.146314 
L 216.604759 -303.376488 
L 214.719439 -296.466918 
L 212.834119 -306.427574 
L 211.009616 -310.526211 
L 209.124296 -299.535891 
L 207.299792 -303.929042 
L 205.414472 -294.784399 
L 203.529152 -306.670152 
L 201.704649 -309.481307 
L 199.819329 -299.945449 
L 197.994826 -305.782518 
L 196.109506 -298.227074 
L 194.406636 -307.052525 
L 192.521316 -307.806828 
L 190.635996 -308.610566 
L 188.811493 -310.15485 
L 186.926173 -310.471809 
L 185.101669 -304.542613 
L 183.216349 -298.251629 
L 181.331029 -300.18886 
L 179.506526 -298.741147 
L 177.621206 -303.498761 
L 175.796703 -299.738283 
L 173.911383 -305.862357 
L 172.208513 -307.636411 
L 170.323193 -311.150714 
L 168.437873 -295.883639 
L 166.613369 -303.976914 
L 164.728049 -302.075743 
L 162.903546 -301.995748 
L 161.018226 -310.191791 
L 159.132906 -308.887407 
L 157.308403 -301.443163 
L 155.423083 -296.780794 
L 153.598579 -307.524276 
L 151.713259 -299.748355 
L 150.01039 -306.216883 
L 148.12507 -311.611158 
L 146.23975 -302.218706 
L 144.415246 -311.887367 
L 142.529926 -304.765965 
L 140.705423 -302.587565 
L 138.820103 -311.854335 
L 136.934783 -296.893496 
L 135.11028 -299.678599 
L 133.22496 -304.396524 
L 131.400456 -304.10785 
L 129.515136 -313.860233 
L 127.75145 -311.823837 
L 125.86613 -307.87145 
L 123.98081 -306.095804 
L 122.156306 -312.167617 
L 120.270986 -296.452598 
L 118.446483 -293.118049 
L 116.561163 -316.712756 
L 114.675843 -317.209711 
L 112.85134 -309.287086 
L 110.96602 -306.177191 
L 109.141516 -296.677688 
L 107.256196 -301.727486 
L 105.553327 -298.404246 
L 103.668006 -310.572291 
L 101.782686 -295.95389 
L 99.958183 -302.308549 
L 98.072863 -309.917656 
L 96.24836 -289.792054 
L 94.36304 -298.008895 
L 92.47772 -298.200753 
L 90.653216 -297.813153 
L 88.767896 -303.665933 
L 86.943393 -298.384555 
L 85.058073 -300.870106 
L 83.355203 -296.587287 
L 81.469883 -306.768647 
L 79.584563 -309.082995 
L 77.76006 -265.082048 
L 75.87474 -302.933916 
L 74.050237 -295.625465 
L 72.164917 -298.977806 
L 70.279597 -315.803996 
L 68.455093 -295.369349 
L 66.569773 -290.617132 
L 64.74527 -299.505008 
L 62.85995 -303.624771 
z
" style="stroke: #808080; stroke-opacity: 0.3"/>
    </defs>
    <g clip-path="url(#pe4ef632281)">
     <use xlink:href="#m1ef59cbce2" x="0" y="359.281364" style="fill: #808080; fill-opacity: 0.3; stroke: #808080; stroke-opacity: 0.3"/>
    </g>
   </g>
   <g id="matplotlib.axis_1">
    <g id="xtick_1">
     <g id="line2d_1">
      <defs>
       <path id="mb90ff34a50" d="M 0 0 
L 0 -3 
" style="stroke: #000000; stroke-width: 0.5"/>
      </defs>
      <g>
       <use xlink:href="#mb90ff34a50" x="125.926946" y="336.24" style="stroke: #000000; stroke-width: 0.5"/>
      </g>
     </g>
     <g id="line2d_2">
      <defs>
       <path id="m095182db92" d="M 0 0 
L 0 3 
" style="stroke: #000000; stroke-width: 0.5"/>
      </defs>
      <g>
       <use xlink:href="#m095182db92" x="125.926946" y="3.6" style="stroke: #000000; stroke-width: 0.5"/>
      </g>
     </g>
     <g id="text_1">
      <!-- $\mathdefault{2004}$ -->
      <g transform="translate(109.478375 352.1933) scale(0.18 -0.18)">
       <defs>
        <path id="CMR17-32" d="M 2669 990 
L 2554 990 
C 2490 537 2438 460 2413 422 
C 2381 371 1920 371 1830 371 
L 602 371 
C 832 620 1280 1073 1824 1596 
C 2214 1966 2669 2400 2669 3033 
C 2669 3788 2067 4224 1395 4224 
C 691 4224 262 3603 262 3027 
C 262 2777 448 2745 525 2745 
C 589 2745 781 2783 781 3007 
C 781 3206 614 3264 525 3264 
C 486 3264 448 3257 422 3244 
C 544 3788 915 4057 1306 4057 
C 1862 4057 2227 3616 2227 3033 
C 2227 2477 1901 1998 1536 1583 
L 262 147 
L 262 0 
L 2515 0 
L 2669 990 
z
" transform="scale(0.015625)"/>
        <path id="CMR17-30" d="M 2688 2038 
C 2688 2430 2682 3099 2413 3613 
C 2176 4063 1798 4224 1466 4224 
C 1158 4224 768 4082 525 3620 
C 269 3137 243 2539 243 2038 
C 243 1671 250 1112 448 623 
C 723 -39 1216 -128 1466 -128 
C 1760 -128 2208 -7 2470 604 
C 2662 1048 2688 1568 2688 2038 
z
M 1466 -26 
C 1056 -26 813 328 723 816 
C 653 1196 653 1749 653 2109 
C 653 2604 653 3015 736 3407 
C 858 3954 1216 4121 1466 4121 
C 1728 4121 2067 3947 2189 3420 
C 2272 3054 2278 2623 2278 2109 
C 2278 1691 2278 1176 2202 797 
C 2067 96 1690 -26 1466 -26 
z
" transform="scale(0.015625)"/>
        <path id="CMR17-34" d="M 2150 4147 
C 2150 4281 2144 4288 2029 4288 
L 128 1254 
L 128 1088 
L 1779 1088 
L 1779 460 
C 1779 230 1766 166 1318 166 
L 1197 166 
L 1197 0 
C 1402 12 1747 12 1965 12 
C 2182 12 2528 12 2733 0 
L 2733 166 
L 2611 166 
C 2163 166 2150 230 2150 460 
L 2150 1088 
L 2803 1088 
L 2803 1254 
L 2150 1254 
L 2150 4147 
z
M 1798 3723 
L 1798 1254 
L 256 1254 
L 1798 3723 
z
" transform="scale(0.015625)"/>
       </defs>
       <use xlink:href="#CMR17-32" transform="scale(0.996264)"/>
       <use xlink:href="#CMR17-30" transform="translate(45.690477 0) scale(0.996264)"/>
       <use xlink:href="#CMR17-30" transform="translate(91.380954 0) scale(0.996264)"/>
       <use xlink:href="#CMR17-34" transform="translate(137.071431 0) scale(0.996264)"/>
      </g>
     </g>
    </g>
    <g id="xtick_2">
     <g id="line2d_3">
      <g>
       <use xlink:href="#mb90ff34a50" x="214.780256" y="336.24" style="stroke: #000000; stroke-width: 0.5"/>
      </g>
     </g>
     <g id="line2d_4">
      <g>
       <use xlink:href="#m095182db92" x="214.780256" y="3.6" style="stroke: #000000; stroke-width: 0.5"/>
      </g>
     </g>
     <g id="text_2">
      <!-- $\mathdefault{2008}$ -->
      <g transform="translate(198.331684 352.1933) scale(0.18 -0.18)">
       <defs>
        <path id="CMR17-38" d="M 1741 2289 
C 2144 2494 2554 2803 2554 3298 
C 2554 3884 1990 4224 1472 4224 
C 890 4224 378 3800 378 3215 
C 378 3054 416 2777 666 2533 
C 730 2469 998 2276 1171 2154 
C 883 2006 211 1652 211 945 
C 211 282 838 -128 1459 -128 
C 2144 -128 2720 366 2720 1022 
C 2720 1607 2330 1877 2074 2051 
L 1741 2289 
z
M 902 2855 
C 851 2887 595 3086 595 3388 
C 595 3781 998 4076 1459 4076 
C 1965 4076 2336 3716 2336 3298 
C 2336 2700 1670 2359 1638 2359 
C 1632 2359 1626 2359 1574 2398 
L 902 2855 
z
M 2080 1536 
C 2176 1466 2483 1253 2483 861 
C 2483 385 2010 25 1472 25 
C 890 25 448 443 448 951 
C 448 1459 838 1884 1280 2083 
L 2080 1536 
z
" transform="scale(0.015625)"/>
       </defs>
       <use xlink:href="#CMR17-32" transform="scale(0.996264)"/>
       <use xlink:href="#CMR17-30" transform="translate(45.690477 0) scale(0.996264)"/>
       <use xlink:href="#CMR17-30" transform="translate(91.380954 0) scale(0.996264)"/>
       <use xlink:href="#CMR17-38" transform="translate(137.071431 0) scale(0.996264)"/>
      </g>
     </g>
    </g>
    <g id="xtick_3">
     <g id="line2d_5">
      <g>
       <use xlink:href="#mb90ff34a50" x="303.633565" y="336.24" style="stroke: #000000; stroke-width: 0.5"/>
      </g>
     </g>
     <g id="line2d_6">
      <g>
       <use xlink:href="#m095182db92" x="303.633565" y="3.6" style="stroke: #000000; stroke-width: 0.5"/>
      </g>
     </g>
     <g id="text_3">
      <!-- $\mathdefault{2012}$ -->
      <g transform="translate(287.184994 352.1933) scale(0.18 -0.18)">
       <defs>
        <path id="CMR17-31" d="M 1702 4083 
C 1702 4217 1696 4224 1606 4224 
C 1357 3927 979 3833 621 3820 
C 602 3820 570 3820 563 3808 
C 557 3795 557 3782 557 3648 
C 755 3648 1088 3686 1344 3839 
L 1344 467 
C 1344 243 1331 166 781 166 
L 589 166 
L 589 0 
C 896 6 1216 12 1523 12 
C 1830 12 2150 6 2458 0 
L 2458 166 
L 2266 166 
C 1715 166 1702 236 1702 467 
L 1702 4083 
z
" transform="scale(0.015625)"/>
       </defs>
       <use xlink:href="#CMR17-32" transform="scale(0.996264)"/>
       <use xlink:href="#CMR17-30" transform="translate(45.690477 0) scale(0.996264)"/>
       <use xlink:href="#CMR17-31" transform="translate(91.380954 0) scale(0.996264)"/>
       <use xlink:href="#CMR17-32" transform="translate(137.071431 0) scale(0.996264)"/>
      </g>
     </g>
    </g>
    <g id="xtick_4">
     <g id="line2d_7">
      <g>
       <use xlink:href="#mb90ff34a50" x="392.486875" y="336.24" style="stroke: #000000; stroke-width: 0.5"/>
      </g>
     </g>
     <g id="line2d_8">
      <g>
       <use xlink:href="#m095182db92" x="392.486875" y="3.6" style="stroke: #000000; stroke-width: 0.5"/>
      </g>
     </g>
     <g id="text_4">
      <!-- $\mathdefault{2016}$ -->
      <g transform="translate(376.038303 352.1933) scale(0.18 -0.18)">
       <defs>
        <path id="CMR17-36" d="M 678 2198 
C 678 3712 1395 4076 1811 4076 
C 1946 4076 2272 4049 2400 3782 
C 2298 3782 2106 3782 2106 3558 
C 2106 3385 2246 3328 2336 3328 
C 2394 3328 2566 3353 2566 3571 
C 2566 3987 2246 4224 1805 4224 
C 1043 4224 243 3411 243 2011 
C 243 257 966 -128 1478 -128 
C 2099 -128 2688 431 2688 1295 
C 2688 2101 2170 2688 1517 2688 
C 1126 2688 838 2430 678 1979 
L 678 2198 
z
M 1478 25 
C 691 25 691 1212 691 1450 
C 691 1914 909 2585 1504 2585 
C 1613 2585 1926 2585 2138 2140 
C 2253 1889 2253 1624 2253 1302 
C 2253 954 2253 696 2118 438 
C 1978 173 1773 25 1478 25 
z
" transform="scale(0.015625)"/>
       </defs>
       <use xlink:href="#CMR17-32" transform="scale(0.996264)"/>
       <use xlink:href="#CMR17-30" transform="translate(45.690477 0) scale(0.996264)"/>
       <use xlink:href="#CMR17-31" transform="translate(91.380954 0) scale(0.996264)"/>
       <use xlink:href="#CMR17-36" transform="translate(137.071431 0) scale(0.996264)"/>
      </g>
     </g>
    </g>
    <g id="xtick_5">
     <g id="line2d_9">
      <g>
       <use xlink:href="#mb90ff34a50" x="481.340184" y="336.24" style="stroke: #000000; stroke-width: 0.5"/>
      </g>
     </g>
     <g id="line2d_10">
      <g>
       <use xlink:href="#m095182db92" x="481.340184" y="3.6" style="stroke: #000000; stroke-width: 0.5"/>
      </g>
     </g>
     <g id="text_5">
      <!-- $\mathdefault{2020}$ -->
      <g transform="translate(464.891613 352.1933) scale(0.18 -0.18)">
       <use xlink:href="#CMR17-32" transform="scale(0.996264)"/>
       <use xlink:href="#CMR17-30" transform="translate(45.690477 0) scale(0.996264)"/>
       <use xlink:href="#CMR17-32" transform="translate(91.380954 0) scale(0.996264)"/>
       <use xlink:href="#CMR17-30" transform="translate(137.071431 0) scale(0.996264)"/>
      </g>
     </g>
    </g>
    <g id="xtick_6">
     <g id="line2d_11">
      <g>
       <use xlink:href="#mb90ff34a50" x="570.193494" y="336.24" style="stroke: #000000; stroke-width: 0.5"/>
      </g>
     </g>
     <g id="line2d_12">
      <g>
       <use xlink:href="#m095182db92" x="570.193494" y="3.6" style="stroke: #000000; stroke-width: 0.5"/>
      </g>
     </g>
     <g id="text_6">
      <!-- $\mathdefault{2024}$ -->
      <g transform="translate(553.744922 352.1933) scale(0.18 -0.18)">
       <use xlink:href="#CMR17-32" transform="scale(0.996264)"/>
       <use xlink:href="#CMR17-30" transform="translate(45.690477 0) scale(0.996264)"/>
       <use xlink:href="#CMR17-32" transform="translate(91.380954 0) scale(0.996264)"/>
       <use xlink:href="#CMR17-34" transform="translate(137.071431 0) scale(0.996264)"/>
      </g>
     </g>
    </g>
    <g id="xtick_7">
     <g id="line2d_13">
      <defs>
       <path id="m5e68263c28" d="M 0 0 
L 0 -1.5 
" style="stroke: #000000; stroke-width: 0.5"/>
      </defs>
      <g>
       <use xlink:href="#m5e68263c28" x="59.286964" y="336.24" style="stroke: #000000; stroke-width: 0.5"/>
      </g>
     </g>
     <g id="line2d_14">
      <defs>
       <path id="m7a272f2b53" d="M 0 0 
L 0 1.5 
" style="stroke: #000000; stroke-width: 0.5"/>
      </defs>
      <g>
       <use xlink:href="#m7a272f2b53" x="59.286964" y="3.6" style="stroke: #000000; stroke-width: 0.5"/>
      </g>
     </g>
    </g>
    <g id="xtick_8">
     <g id="line2d_15">
      <g>
       <use xlink:href="#m5e68263c28" x="81.500292" y="336.24" style="stroke: #000000; stroke-width: 0.5"/>
      </g>
     </g>
     <g id="line2d_16">
      <g>
       <use xlink:href="#m7a272f2b53" x="81.500292" y="3.6" style="stroke: #000000; stroke-width: 0.5"/>
      </g>
     </g>
    </g>
    <g id="xtick_9">
     <g id="line2d_17">
      <g>
       <use xlink:href="#m5e68263c28" x="103.713619" y="336.24" style="stroke: #000000; stroke-width: 0.5"/>
      </g>
     </g>
     <g id="line2d_18">
      <g>
       <use xlink:href="#m7a272f2b53" x="103.713619" y="3.6" style="stroke: #000000; stroke-width: 0.5"/>
      </g>
     </g>
    </g>
    <g id="xtick_10">
     <g id="line2d_19">
      <g>
       <use xlink:href="#m5e68263c28" x="148.140274" y="336.24" style="stroke: #000000; stroke-width: 0.5"/>
      </g>
     </g>
     <g id="line2d_20">
      <g>
       <use xlink:href="#m7a272f2b53" x="148.140274" y="3.6" style="stroke: #000000; stroke-width: 0.5"/>
      </g>
     </g>
    </g>
    <g id="xtick_11">
     <g id="line2d_21">
      <g>
       <use xlink:href="#m5e68263c28" x="170.353601" y="336.24" style="stroke: #000000; stroke-width: 0.5"/>
      </g>
     </g>
     <g id="line2d_22">
      <g>
       <use xlink:href="#m7a272f2b53" x="170.353601" y="3.6" style="stroke: #000000; stroke-width: 0.5"/>
      </g>
     </g>
    </g>
    <g id="xtick_12">
     <g id="line2d_23">
      <g>
       <use xlink:href="#m5e68263c28" x="192.566929" y="336.24" style="stroke: #000000; stroke-width: 0.5"/>
      </g>
     </g>
     <g id="line2d_24">
      <g>
       <use xlink:href="#m7a272f2b53" x="192.566929" y="3.6" style="stroke: #000000; stroke-width: 0.5"/>
      </g>
     </g>
    </g>
    <g id="xtick_13">
     <g id="line2d_25">
      <g>
       <use xlink:href="#m5e68263c28" x="236.993583" y="336.24" style="stroke: #000000; stroke-width: 0.5"/>
      </g>
     </g>
     <g id="line2d_26">
      <g>
       <use xlink:href="#m7a272f2b53" x="236.993583" y="3.6" style="stroke: #000000; stroke-width: 0.5"/>
      </g>
     </g>
    </g>
    <g id="xtick_14">
     <g id="line2d_27">
      <g>
       <use xlink:href="#m5e68263c28" x="259.206911" y="336.24" style="stroke: #000000; stroke-width: 0.5"/>
      </g>
     </g>
     <g id="line2d_28">
      <g>
       <use xlink:href="#m7a272f2b53" x="259.206911" y="3.6" style="stroke: #000000; stroke-width: 0.5"/>
      </g>
     </g>
    </g>
    <g id="xtick_15">
     <g id="line2d_29">
      <g>
       <use xlink:href="#m5e68263c28" x="281.420238" y="336.24" style="stroke: #000000; stroke-width: 0.5"/>
      </g>
     </g>
     <g id="line2d_30">
      <g>
       <use xlink:href="#m7a272f2b53" x="281.420238" y="3.6" style="stroke: #000000; stroke-width: 0.5"/>
      </g>
     </g>
    </g>
    <g id="xtick_16">
     <g id="line2d_31">
      <g>
       <use xlink:href="#m5e68263c28" x="325.846893" y="336.24" style="stroke: #000000; stroke-width: 0.5"/>
      </g>
     </g>
     <g id="line2d_32">
      <g>
       <use xlink:href="#m7a272f2b53" x="325.846893" y="3.6" style="stroke: #000000; stroke-width: 0.5"/>
      </g>
     </g>
    </g>
    <g id="xtick_17">
     <g id="line2d_33">
      <g>
       <use xlink:href="#m5e68263c28" x="348.06022" y="336.24" style="stroke: #000000; stroke-width: 0.5"/>
      </g>
     </g>
     <g id="line2d_34">
      <g>
       <use xlink:href="#m7a272f2b53" x="348.06022" y="3.6" style="stroke: #000000; stroke-width: 0.5"/>
      </g>
     </g>
    </g>
    <g id="xtick_18">
     <g id="line2d_35">
      <g>
       <use xlink:href="#m5e68263c28" x="370.273548" y="336.24" style="stroke: #000000; stroke-width: 0.5"/>
      </g>
     </g>
     <g id="line2d_36">
      <g>
       <use xlink:href="#m7a272f2b53" x="370.273548" y="3.6" style="stroke: #000000; stroke-width: 0.5"/>
      </g>
     </g>
    </g>
    <g id="xtick_19">
     <g id="line2d_37">
      <g>
       <use xlink:href="#m5e68263c28" x="414.700202" y="336.24" style="stroke: #000000; stroke-width: 0.5"/>
      </g>
     </g>
     <g id="line2d_38">
      <g>
       <use xlink:href="#m7a272f2b53" x="414.700202" y="3.6" style="stroke: #000000; stroke-width: 0.5"/>
      </g>
     </g>
    </g>
    <g id="xtick_20">
     <g id="line2d_39">
      <g>
       <use xlink:href="#m5e68263c28" x="436.91353" y="336.24" style="stroke: #000000; stroke-width: 0.5"/>
      </g>
     </g>
     <g id="line2d_40">
      <g>
       <use xlink:href="#m7a272f2b53" x="436.91353" y="3.6" style="stroke: #000000; stroke-width: 0.5"/>
      </g>
     </g>
    </g>
    <g id="xtick_21">
     <g id="line2d_41">
      <g>
       <use xlink:href="#m5e68263c28" x="459.126857" y="336.24" style="stroke: #000000; stroke-width: 0.5"/>
      </g>
     </g>
     <g id="line2d_42">
      <g>
       <use xlink:href="#m7a272f2b53" x="459.126857" y="3.6" style="stroke: #000000; stroke-width: 0.5"/>
      </g>
     </g>
    </g>
    <g id="xtick_22">
     <g id="line2d_43">
      <g>
       <use xlink:href="#m5e68263c28" x="503.553512" y="336.24" style="stroke: #000000; stroke-width: 0.5"/>
      </g>
     </g>
     <g id="line2d_44">
      <g>
       <use xlink:href="#m7a272f2b53" x="503.553512" y="3.6" style="stroke: #000000; stroke-width: 0.5"/>
      </g>
     </g>
    </g>
    <g id="xtick_23">
     <g id="line2d_45">
      <g>
       <use xlink:href="#m5e68263c28" x="525.766839" y="336.24" style="stroke: #000000; stroke-width: 0.5"/>
      </g>
     </g>
     <g id="line2d_46">
      <g>
       <use xlink:href="#m7a272f2b53" x="525.766839" y="3.6" style="stroke: #000000; stroke-width: 0.5"/>
      </g>
     </g>
    </g>
    <g id="xtick_24">
     <g id="line2d_47">
      <g>
       <use xlink:href="#m5e68263c28" x="547.980167" y="336.24" style="stroke: #000000; stroke-width: 0.5"/>
      </g>
     </g>
     <g id="line2d_48">
      <g>
       <use xlink:href="#m7a272f2b53" x="547.980167" y="3.6" style="stroke: #000000; stroke-width: 0.5"/>
      </g>
     </g>
    </g>
    <g id="xtick_25">
     <g id="line2d_49">
      <g>
       <use xlink:href="#m5e68263c28" x="592.406821" y="336.24" style="stroke: #000000; stroke-width: 0.5"/>
      </g>
     </g>
     <g id="line2d_50">
      <g>
       <use xlink:href="#m7a272f2b53" x="592.406821" y="3.6" style="stroke: #000000; stroke-width: 0.5"/>
      </g>
     </g>
    </g>
   </g>
   <g id="matplotlib.axis_2">
    <g id="ytick_1">
     <g id="line2d_51">
      <defs>
       <path id="m1a5eeaf1c6" d="M 0 0 
L 3 0 
" style="stroke: #000000; stroke-width: 0.5"/>
      </defs>
      <g>
       <use xlink:href="#m1a5eeaf1c6" x="37.496314" y="298.499588" style="stroke: #000000; stroke-width: 0.5"/>
      </g>
     </g>
     <g id="line2d_52">
      <defs>
       <path id="m24247855eb" d="M 0 0 
L -3 0 
" style="stroke: #000000; stroke-width: 0.5"/>
      </defs>
      <g>
       <use xlink:href="#m24247855eb" x="595.496314" y="298.499588" style="stroke: #000000; stroke-width: 0.5"/>
      </g>
     </g>
     <g id="text_7">
      <!-- $\mathdefault{−20}$ -->
      <g transform="translate(3.6 304.726238) scale(0.18 -0.18)">
       <defs>
        <path id="CMSY10-0" d="M 4218 1472 
C 4326 1472 4442 1472 4442 1600 
C 4442 1728 4326 1728 4218 1728 
L 755 1728 
C 646 1728 531 1728 531 1600 
C 531 1472 646 1472 755 1472 
L 4218 1472 
z
" transform="scale(0.015625)"/>
       </defs>
       <use xlink:href="#CMSY10-0" transform="scale(0.996264)"/>
       <use xlink:href="#CMR17-32" transform="translate(77.487468 0) scale(0.996264)"/>
       <use xlink:href="#CMR17-30" transform="translate(123.177945 0) scale(0.996264)"/>
      </g>
     </g>
    </g>
    <g id="ytick_2">
     <g id="line2d_53">
      <g>
       <use xlink:href="#m1a5eeaf1c6" x="37.496314" y="258.170543" style="stroke: #000000; stroke-width: 0.5"/>
      </g>
     </g>
     <g id="line2d_54">
      <g>
       <use xlink:href="#m24247855eb" x="595.496314" y="258.170543" style="stroke: #000000; stroke-width: 0.5"/>
      </g>
     </g>
     <g id="text_8">
      <!-- $\mathdefault{−15}$ -->
      <g transform="translate(3.6 264.397193) scale(0.18 -0.18)">
       <defs>
        <path id="CMR17-35" d="M 730 3750 
C 794 3724 1056 3641 1325 3641 
C 1920 3641 2246 3961 2432 4140 
C 2432 4191 2432 4224 2394 4224 
C 2387 4224 2374 4224 2323 4198 
C 2099 4102 1837 4032 1517 4032 
C 1325 4032 1037 4055 723 4191 
C 653 4224 640 4224 634 4224 
C 602 4224 595 4217 595 4090 
L 595 2231 
C 595 2113 595 2080 659 2080 
C 691 2080 704 2093 736 2139 
C 941 2435 1222 2560 1542 2560 
C 1766 2560 2246 2415 2246 1293 
C 2246 1087 2246 716 2054 422 
C 1894 159 1645 25 1370 25 
C 947 25 518 319 403 812 
C 429 806 480 793 506 793 
C 589 793 749 838 749 1036 
C 749 1209 627 1280 506 1280 
C 358 1280 262 1190 262 1011 
C 262 454 704 -128 1382 -128 
C 2042 -128 2669 441 2669 1267 
C 2669 2054 2170 2662 1549 2662 
C 1222 2662 947 2540 730 2304 
L 730 3750 
z
" transform="scale(0.015625)"/>
       </defs>
       <use xlink:href="#CMSY10-0" transform="scale(0.996264)"/>
       <use xlink:href="#CMR17-31" transform="translate(77.487468 0) scale(0.996264)"/>
       <use xlink:href="#CMR17-35" transform="translate(123.177945 0) scale(0.996264)"/>
      </g>
     </g>
    </g>
    <g id="ytick_3">
     <g id="line2d_55">
      <g>
       <use xlink:href="#m1a5eeaf1c6" x="37.496314" y="217.841498" style="stroke: #000000; stroke-width: 0.5"/>
      </g>
     </g>
     <g id="line2d_56">
      <g>
       <use xlink:href="#m24247855eb" x="595.496314" y="217.841498" style="stroke: #000000; stroke-width: 0.5"/>
      </g>
     </g>
     <g id="text_9">
      <!-- $\mathdefault{−10}$ -->
      <g transform="translate(3.6 224.068148) scale(0.18 -0.18)">
       <use xlink:href="#CMSY10-0" transform="scale(0.996264)"/>
       <use xlink:href="#CMR17-31" transform="translate(77.487468 0) scale(0.996264)"/>
       <use xlink:href="#CMR17-30" transform="translate(123.177945 0) scale(0.996264)"/>
      </g>
     </g>
    </g>
    <g id="ytick_4">
     <g id="line2d_57">
      <g>
       <use xlink:href="#m1a5eeaf1c6" x="37.496314" y="177.512453" style="stroke: #000000; stroke-width: 0.5"/>
      </g>
     </g>
     <g id="line2d_58">
      <g>
       <use xlink:href="#m24247855eb" x="595.496314" y="177.512453" style="stroke: #000000; stroke-width: 0.5"/>
      </g>
     </g>
     <g id="text_10">
      <!-- $\mathdefault{−5}$ -->
      <g transform="translate(11.824286 183.739103) scale(0.18 -0.18)">
       <use xlink:href="#CMSY10-0" transform="scale(0.996264)"/>
       <use xlink:href="#CMR17-35" transform="translate(77.487468 0) scale(0.996264)"/>
      </g>
     </g>
    </g>
    <g id="ytick_5">
     <g id="line2d_59">
      <g>
       <use xlink:href="#m1a5eeaf1c6" x="37.496314" y="137.183408" style="stroke: #000000; stroke-width: 0.5"/>
      </g>
     </g>
     <g id="line2d_60">
      <g>
       <use xlink:href="#m24247855eb" x="595.496314" y="137.183408" style="stroke: #000000; stroke-width: 0.5"/>
      </g>
     </g>
     <g id="text_11">
      <!-- $\mathdefault{0}$ -->
      <g transform="translate(25.772028 143.410058) scale(0.18 -0.18)">
       <use xlink:href="#CMR17-30" transform="scale(0.996264)"/>
      </g>
     </g>
    </g>
    <g id="ytick_6">
     <g id="line2d_61">
      <g>
       <use xlink:href="#m1a5eeaf1c6" x="37.496314" y="96.854363" style="stroke: #000000; stroke-width: 0.5"/>
      </g>
     </g>
     <g id="line2d_62">
      <g>
       <use xlink:href="#m24247855eb" x="595.496314" y="96.854363" style="stroke: #000000; stroke-width: 0.5"/>
      </g>
     </g>
     <g id="text_12">
      <!-- $\mathdefault{5}$ -->
      <g transform="translate(25.772028 103.081013) scale(0.18 -0.18)">
       <use xlink:href="#CMR17-35" transform="scale(0.996264)"/>
      </g>
     </g>
    </g>
    <g id="ytick_7">
     <g id="line2d_63">
      <g>
       <use xlink:href="#m1a5eeaf1c6" x="37.496314" y="56.525318" style="stroke: #000000; stroke-width: 0.5"/>
      </g>
     </g>
     <g id="line2d_64">
      <g>
       <use xlink:href="#m24247855eb" x="595.496314" y="56.525318" style="stroke: #000000; stroke-width: 0.5"/>
      </g>
     </g>
     <g id="text_13">
      <!-- $\mathdefault{10}$ -->
      <g transform="translate(17.547742 62.751968) scale(0.18 -0.18)">
       <use xlink:href="#CMR17-31" transform="scale(0.996264)"/>
       <use xlink:href="#CMR17-30" transform="translate(45.690477 0) scale(0.996264)"/>
      </g>
     </g>
    </g>
    <g id="ytick_8">
     <g id="line2d_65">
      <g>
       <use xlink:href="#m1a5eeaf1c6" x="37.496314" y="16.196274" style="stroke: #000000; stroke-width: 0.5"/>
      </g>
     </g>
     <g id="line2d_66">
      <g>
       <use xlink:href="#m24247855eb" x="595.496314" y="16.196274" style="stroke: #000000; stroke-width: 0.5"/>
      </g>
     </g>
     <g id="text_14">
      <!-- $\mathdefault{15}$ -->
      <g transform="translate(17.547742 22.422924) scale(0.18 -0.18)">
       <use xlink:href="#CMR17-31" transform="scale(0.996264)"/>
       <use xlink:href="#CMR17-35" transform="translate(45.690477 0) scale(0.996264)"/>
      </g>
     </g>
    </g>
    <g id="ytick_9">
     <g id="line2d_67">
      <defs>
       <path id="m5d9368db6f" d="M 0 0 
L 1.5 0 
" style="stroke: #000000; stroke-width: 0.5"/>
      </defs>
      <g>
       <use xlink:href="#m5d9368db6f" x="37.496314" y="330.762824" style="stroke: #000000; stroke-width: 0.5"/>
      </g>
     </g>
     <g id="line2d_68">
      <defs>
       <path id="mdba627c8e6" d="M 0 0 
L -1.5 0 
" style="stroke: #000000; stroke-width: 0.5"/>
      </defs>
      <g>
       <use xlink:href="#mdba627c8e6" x="595.496314" y="330.762824" style="stroke: #000000; stroke-width: 0.5"/>
      </g>
     </g>
    </g>
    <g id="ytick_10">
     <g id="line2d_69">
      <g>
       <use xlink:href="#m5d9368db6f" x="37.496314" y="322.697015" style="stroke: #000000; stroke-width: 0.5"/>
      </g>
     </g>
     <g id="line2d_70">
      <g>
       <use xlink:href="#mdba627c8e6" x="595.496314" y="322.697015" style="stroke: #000000; stroke-width: 0.5"/>
      </g>
     </g>
    </g>
    <g id="ytick_11">
     <g id="line2d_71">
      <g>
       <use xlink:href="#m5d9368db6f" x="37.496314" y="314.631206" style="stroke: #000000; stroke-width: 0.5"/>
      </g>
     </g>
     <g id="line2d_72">
      <g>
       <use xlink:href="#mdba627c8e6" x="595.496314" y="314.631206" style="stroke: #000000; stroke-width: 0.5"/>
      </g>
     </g>
    </g>
    <g id="ytick_12">
     <g id="line2d_73">
      <g>
       <use xlink:href="#m5d9368db6f" x="37.496314" y="306.565397" style="stroke: #000000; stroke-width: 0.5"/>
      </g>
     </g>
     <g id="line2d_74">
      <g>
       <use xlink:href="#mdba627c8e6" x="595.496314" y="306.565397" style="stroke: #000000; stroke-width: 0.5"/>
      </g>
     </g>
    </g>
    <g id="ytick_13">
     <g id="line2d_75">
      <g>
       <use xlink:href="#m5d9368db6f" x="37.496314" y="290.433779" style="stroke: #000000; stroke-width: 0.5"/>
      </g>
     </g>
     <g id="line2d_76">
      <g>
       <use xlink:href="#mdba627c8e6" x="595.496314" y="290.433779" style="stroke: #000000; stroke-width: 0.5"/>
      </g>
     </g>
    </g>
    <g id="ytick_14">
     <g id="line2d_77">
      <g>
       <use xlink:href="#m5d9368db6f" x="37.496314" y="282.36797" style="stroke: #000000; stroke-width: 0.5"/>
      </g>
     </g>
     <g id="line2d_78">
      <g>
       <use xlink:href="#mdba627c8e6" x="595.496314" y="282.36797" style="stroke: #000000; stroke-width: 0.5"/>
      </g>
     </g>
    </g>
    <g id="ytick_15">
     <g id="line2d_79">
      <g>
       <use xlink:href="#m5d9368db6f" x="37.496314" y="274.302161" style="stroke: #000000; stroke-width: 0.5"/>
      </g>
     </g>
     <g id="line2d_80">
      <g>
       <use xlink:href="#mdba627c8e6" x="595.496314" y="274.302161" style="stroke: #000000; stroke-width: 0.5"/>
      </g>
     </g>
    </g>
    <g id="ytick_16">
     <g id="line2d_81">
      <g>
       <use xlink:href="#m5d9368db6f" x="37.496314" y="266.236352" style="stroke: #000000; stroke-width: 0.5"/>
      </g>
     </g>
     <g id="line2d_82">
      <g>
       <use xlink:href="#mdba627c8e6" x="595.496314" y="266.236352" style="stroke: #000000; stroke-width: 0.5"/>
      </g>
     </g>
    </g>
    <g id="ytick_17">
     <g id="line2d_83">
      <g>
       <use xlink:href="#m5d9368db6f" x="37.496314" y="250.104734" style="stroke: #000000; stroke-width: 0.5"/>
      </g>
     </g>
     <g id="line2d_84">
      <g>
       <use xlink:href="#mdba627c8e6" x="595.496314" y="250.104734" style="stroke: #000000; stroke-width: 0.5"/>
      </g>
     </g>
    </g>
    <g id="ytick_18">
     <g id="line2d_85">
      <g>
       <use xlink:href="#m5d9368db6f" x="37.496314" y="242.038925" style="stroke: #000000; stroke-width: 0.5"/>
      </g>
     </g>
     <g id="line2d_86">
      <g>
       <use xlink:href="#mdba627c8e6" x="595.496314" y="242.038925" style="stroke: #000000; stroke-width: 0.5"/>
      </g>
     </g>
    </g>
    <g id="ytick_19">
     <g id="line2d_87">
      <g>
       <use xlink:href="#m5d9368db6f" x="37.496314" y="233.973116" style="stroke: #000000; stroke-width: 0.5"/>
      </g>
     </g>
     <g id="line2d_88">
      <g>
       <use xlink:href="#mdba627c8e6" x="595.496314" y="233.973116" style="stroke: #000000; stroke-width: 0.5"/>
      </g>
     </g>
    </g>
    <g id="ytick_20">
     <g id="line2d_89">
      <g>
       <use xlink:href="#m5d9368db6f" x="37.496314" y="225.907307" style="stroke: #000000; stroke-width: 0.5"/>
      </g>
     </g>
     <g id="line2d_90">
      <g>
       <use xlink:href="#mdba627c8e6" x="595.496314" y="225.907307" style="stroke: #000000; stroke-width: 0.5"/>
      </g>
     </g>
    </g>
    <g id="ytick_21">
     <g id="line2d_91">
      <g>
       <use xlink:href="#m5d9368db6f" x="37.496314" y="209.775689" style="stroke: #000000; stroke-width: 0.5"/>
      </g>
     </g>
     <g id="line2d_92">
      <g>
       <use xlink:href="#mdba627c8e6" x="595.496314" y="209.775689" style="stroke: #000000; stroke-width: 0.5"/>
      </g>
     </g>
    </g>
    <g id="ytick_22">
     <g id="line2d_93">
      <g>
       <use xlink:href="#m5d9368db6f" x="37.496314" y="201.70988" style="stroke: #000000; stroke-width: 0.5"/>
      </g>
     </g>
     <g id="line2d_94">
      <g>
       <use xlink:href="#mdba627c8e6" x="595.496314" y="201.70988" style="stroke: #000000; stroke-width: 0.5"/>
      </g>
     </g>
    </g>
    <g id="ytick_23">
     <g id="line2d_95">
      <g>
       <use xlink:href="#m5d9368db6f" x="37.496314" y="193.644071" style="stroke: #000000; stroke-width: 0.5"/>
      </g>
     </g>
     <g id="line2d_96">
      <g>
       <use xlink:href="#mdba627c8e6" x="595.496314" y="193.644071" style="stroke: #000000; stroke-width: 0.5"/>
      </g>
     </g>
    </g>
    <g id="ytick_24">
     <g id="line2d_97">
      <g>
       <use xlink:href="#m5d9368db6f" x="37.496314" y="185.578262" style="stroke: #000000; stroke-width: 0.5"/>
      </g>
     </g>
     <g id="line2d_98">
      <g>
       <use xlink:href="#mdba627c8e6" x="595.496314" y="185.578262" style="stroke: #000000; stroke-width: 0.5"/>
      </g>
     </g>
    </g>
    <g id="ytick_25">
     <g id="line2d_99">
      <g>
       <use xlink:href="#m5d9368db6f" x="37.496314" y="169.446644" style="stroke: #000000; stroke-width: 0.5"/>
      </g>
     </g>
     <g id="line2d_100">
      <g>
       <use xlink:href="#mdba627c8e6" x="595.496314" y="169.446644" style="stroke: #000000; stroke-width: 0.5"/>
      </g>
     </g>
    </g>
    <g id="ytick_26">
     <g id="line2d_101">
      <g>
       <use xlink:href="#m5d9368db6f" x="37.496314" y="161.380835" style="stroke: #000000; stroke-width: 0.5"/>
      </g>
     </g>
     <g id="line2d_102">
      <g>
       <use xlink:href="#mdba627c8e6" x="595.496314" y="161.380835" style="stroke: #000000; stroke-width: 0.5"/>
      </g>
     </g>
    </g>
    <g id="ytick_27">
     <g id="line2d_103">
      <g>
       <use xlink:href="#m5d9368db6f" x="37.496314" y="153.315026" style="stroke: #000000; stroke-width: 0.5"/>
      </g>
     </g>
     <g id="line2d_104">
      <g>
       <use xlink:href="#mdba627c8e6" x="595.496314" y="153.315026" style="stroke: #000000; stroke-width: 0.5"/>
      </g>
     </g>
    </g>
    <g id="ytick_28">
     <g id="line2d_105">
      <g>
       <use xlink:href="#m5d9368db6f" x="37.496314" y="145.249217" style="stroke: #000000; stroke-width: 0.5"/>
      </g>
     </g>
     <g id="line2d_106">
      <g>
       <use xlink:href="#mdba627c8e6" x="595.496314" y="145.249217" style="stroke: #000000; stroke-width: 0.5"/>
      </g>
     </g>
    </g>
    <g id="ytick_29">
     <g id="line2d_107">
      <g>
       <use xlink:href="#m5d9368db6f" x="37.496314" y="129.117599" style="stroke: #000000; stroke-width: 0.5"/>
      </g>
     </g>
     <g id="line2d_108">
      <g>
       <use xlink:href="#mdba627c8e6" x="595.496314" y="129.117599" style="stroke: #000000; stroke-width: 0.5"/>
      </g>
     </g>
    </g>
    <g id="ytick_30">
     <g id="line2d_109">
      <g>
       <use xlink:href="#m5d9368db6f" x="37.496314" y="121.05179" style="stroke: #000000; stroke-width: 0.5"/>
      </g>
     </g>
     <g id="line2d_110">
      <g>
       <use xlink:href="#mdba627c8e6" x="595.496314" y="121.05179" style="stroke: #000000; stroke-width: 0.5"/>
      </g>
     </g>
    </g>
    <g id="ytick_31">
     <g id="line2d_111">
      <g>
       <use xlink:href="#m5d9368db6f" x="37.496314" y="112.985981" style="stroke: #000000; stroke-width: 0.5"/>
      </g>
     </g>
     <g id="line2d_112">
      <g>
       <use xlink:href="#mdba627c8e6" x="595.496314" y="112.985981" style="stroke: #000000; stroke-width: 0.5"/>
      </g>
     </g>
    </g>
    <g id="ytick_32">
     <g id="line2d_113">
      <g>
       <use xlink:href="#m5d9368db6f" x="37.496314" y="104.920172" style="stroke: #000000; stroke-width: 0.5"/>
      </g>
     </g>
     <g id="line2d_114">
      <g>
       <use xlink:href="#mdba627c8e6" x="595.496314" y="104.920172" style="stroke: #000000; stroke-width: 0.5"/>
      </g>
     </g>
    </g>
    <g id="ytick_33">
     <g id="line2d_115">
      <g>
       <use xlink:href="#m5d9368db6f" x="37.496314" y="88.788554" style="stroke: #000000; stroke-width: 0.5"/>
      </g>
     </g>
     <g id="line2d_116">
      <g>
       <use xlink:href="#mdba627c8e6" x="595.496314" y="88.788554" style="stroke: #000000; stroke-width: 0.5"/>
      </g>
     </g>
    </g>
    <g id="ytick_34">
     <g id="line2d_117">
      <g>
       <use xlink:href="#m5d9368db6f" x="37.496314" y="80.722745" style="stroke: #000000; stroke-width: 0.5"/>
      </g>
     </g>
     <g id="line2d_118">
      <g>
       <use xlink:href="#mdba627c8e6" x="595.496314" y="80.722745" style="stroke: #000000; stroke-width: 0.5"/>
      </g>
     </g>
    </g>
    <g id="ytick_35">
     <g id="line2d_119">
      <g>
       <use xlink:href="#m5d9368db6f" x="37.496314" y="72.656936" style="stroke: #000000; stroke-width: 0.5"/>
      </g>
     </g>
     <g id="line2d_120">
      <g>
       <use xlink:href="#mdba627c8e6" x="595.496314" y="72.656936" style="stroke: #000000; stroke-width: 0.5"/>
      </g>
     </g>
    </g>
    <g id="ytick_36">
     <g id="line2d_121">
      <g>
       <use xlink:href="#m5d9368db6f" x="37.496314" y="64.591127" style="stroke: #000000; stroke-width: 0.5"/>
      </g>
     </g>
     <g id="line2d_122">
      <g>
       <use xlink:href="#mdba627c8e6" x="595.496314" y="64.591127" style="stroke: #000000; stroke-width: 0.5"/>
      </g>
     </g>
    </g>
    <g id="ytick_37">
     <g id="line2d_123">
      <g>
       <use xlink:href="#m5d9368db6f" x="37.496314" y="48.459509" style="stroke: #000000; stroke-width: 0.5"/>
      </g>
     </g>
     <g id="line2d_124">
      <g>
       <use xlink:href="#mdba627c8e6" x="595.496314" y="48.459509" style="stroke: #000000; stroke-width: 0.5"/>
      </g>
     </g>
    </g>
    <g id="ytick_38">
     <g id="line2d_125">
      <g>
       <use xlink:href="#m5d9368db6f" x="37.496314" y="40.3937" style="stroke: #000000; stroke-width: 0.5"/>
      </g>
     </g>
     <g id="line2d_126">
      <g>
       <use xlink:href="#mdba627c8e6" x="595.496314" y="40.3937" style="stroke: #000000; stroke-width: 0.5"/>
      </g>
     </g>
    </g>
    <g id="ytick_39">
     <g id="line2d_127">
      <g>
       <use xlink:href="#m5d9368db6f" x="37.496314" y="32.327892" style="stroke: #000000; stroke-width: 0.5"/>
      </g>
     </g>
     <g id="line2d_128">
      <g>
       <use xlink:href="#mdba627c8e6" x="595.496314" y="32.327892" style="stroke: #000000; stroke-width: 0.5"/>
      </g>
     </g>
    </g>
    <g id="ytick_40">
     <g id="line2d_129">
      <g>
       <use xlink:href="#m5d9368db6f" x="37.496314" y="24.262083" style="stroke: #000000; stroke-width: 0.5"/>
      </g>
     </g>
     <g id="line2d_130">
      <g>
       <use xlink:href="#mdba627c8e6" x="595.496314" y="24.262083" style="stroke: #000000; stroke-width: 0.5"/>
      </g>
     </g>
    </g>
    <g id="ytick_41">
     <g id="line2d_131">
      <g>
       <use xlink:href="#m5d9368db6f" x="37.496314" y="8.130465" style="stroke: #000000; stroke-width: 0.5"/>
      </g>
     </g>
     <g id="line2d_132">
      <g>
       <use xlink:href="#mdba627c8e6" x="595.496314" y="8.130465" style="stroke: #000000; stroke-width: 0.5"/>
      </g>
     </g>
    </g>
   </g>
   <g id="line2d_133">
    <path d="M 62.85995 155.432706 
L 64.74527 214.871483 
L 66.569773 134.474081 
L 68.455093 84.360948 
L 70.279597 157.53964 
L 72.164917 159.805973 
L 74.050237 154.751214 
L 75.87474 234.43296 
L 77.76006 112.884102 
L 79.584563 98.358017 
L 81.469883 126.36789 
L 83.355203 140.515429 
L 85.058073 165.650367 
L 86.943393 99.166758 
L 88.767896 166.99055 
L 90.653216 161.244433 
L 92.47772 187.468667 
L 94.36304 230.183952 
L 96.24836 129.224745 
L 98.072863 177.730296 
L 99.958183 149.527459 
L 101.782686 86.611555 
L 103.668006 146.769168 
L 105.553327 140.185027 
L 107.256196 191.951795 
L 109.141516 127.98528 
L 110.96602 96.861295 
L 112.85134 96.598217 
L 114.675843 93.53935 
L 116.561163 133.485544 
L 118.446483 139.633181 
L 120.270986 113.164516 
L 122.156306 122.063762 
L 123.98081 128.556131 
L 127.75145 99.361394 
L 129.515136 129.499872 
L 131.400456 150.972181 
L 133.22496 130.480145 
L 135.11028 159.245338 
L 136.934783 115.548595 
L 138.820103 156.575922 
L 140.705423 149.612436 
L 142.529926 116.186117 
L 144.415246 137.508225 
L 146.23975 100.675259 
L 148.12507 116.562642 
L 150.01039 149.245314 
L 151.713259 124.839062 
L 153.598579 140.369948 
L 155.423083 158.01804 
L 157.308403 127.646354 
L 159.132906 120.939633 
L 161.018226 123.882535 
L 162.903546 135.844881 
L 164.728049 136.097077 
L 166.613369 159.84234 
L 168.437873 107.026035 
L 170.323193 121.24128 
L 172.208513 126.605771 
L 173.911383 138.496472 
L 175.796703 126.457666 
L 177.621206 131.944782 
L 179.506526 144.750858 
L 181.331029 160.552984 
L 183.216349 132.645715 
L 185.101669 120.141731 
L 186.926173 118.238697 
L 188.811493 109.720327 
L 190.635996 122.376244 
L 192.521316 121.206887 
L 194.406636 132.787861 
L 196.109506 125.577727 
L 197.994826 158.595439 
L 199.819329 105.321654 
L 201.704649 111.422949 
L 203.529152 135.557091 
L 205.414472 133.717781 
L 207.299792 173.021921 
L 209.124296 113.955036 
L 211.009616 114.584342 
L 212.834119 178.162518 
L 214.719439 128.505195 
L 216.604759 193.910547 
L 218.368446 151.281665 
L 220.253766 160.085987 
L 222.078269 105.0469 
L 223.963589 118.135316 
L 225.788092 173.614716 
L 227.673412 189.297882 
L 229.558732 121.844311 
L 231.383236 178.851481 
L 233.268556 321.12 
L 235.093059 211.94353 
L 236.978379 142.204512 
L 238.863699 148.270287 
L 240.566569 195.476503 
L 242.451889 186.863131 
L 244.276392 45.618298 
L 246.161712 87.166153 
L 247.986216 116.264851 
L 249.871536 128.779372 
L 251.756856 75.871083 
L 253.581359 109.837733 
L 255.466679 119.532864 
L 257.291182 121.909874 
L 259.176502 120.812385 
L 261.061822 127.651463 
L 262.764692 162.278769 
L 264.650012 91.905016 
L 266.474515 106.095553 
L 268.359835 187.392551 
L 270.184339 167.647198 
L 272.069659 139.838256 
L 273.954979 131.615317 
L 275.779482 111.772124 
L 277.664802 102.363989 
L 279.489305 118.597475 
L 281.374625 108.994728 
L 283.259946 110.920835 
L 284.962815 113.328778 
L 286.848135 147.400935 
L 288.672639 120.647309 
L 290.557959 133.074695 
L 292.382462 168.533909 
L 294.267782 113.779163 
L 296.153102 227.158719 
L 297.977605 144.99905 
L 299.862925 114.59455 
L 301.687429 124.456239 
L 303.572749 126.144651 
L 305.458069 100.867024 
L 307.221755 105.616236 
L 309.107075 115.55938 
L 312.816899 163.893473 
L 314.641402 147.953114 
L 316.526722 115.358708 
L 318.412042 111.686927 
L 320.236545 114.533159 
L 322.121865 140.318766 
L 323.946369 161.852668 
L 325.831689 121.273479 
L 327.717009 104.884624 
L 329.419878 119.982295 
L 331.305198 116.896295 
L 333.129702 126.914739 
L 335.015022 102.438084 
L 336.839525 147.614172 
L 338.724845 112.690536 
L 340.610165 136.502152 
L 344.319988 121.625137 
L 346.144492 107.938059 
L 348.029812 126.295034 
L 349.915132 130.704312 
L 351.618002 139.541497 
L 353.503322 116.81049 
L 355.327825 136.86318 
L 357.213145 126.221218 
L 359.037648 113.082108 
L 360.922968 126.480112 
L 362.808288 141.927015 
L 364.632792 124.252579 
L 366.518112 160.152149 
L 368.342615 93.702461 
L 370.227935 133.365816 
L 372.113255 147.492895 
L 373.816125 115.981471 
L 375.701445 138.03995 
L 377.525948 131.437617 
L 379.411268 130.633785 
L 381.235771 142.029156 
L 383.121091 139.164552 
L 386.830915 175.840807 
L 388.716235 104.502944 
L 390.540738 115.252427 
L 392.426058 147.538187 
L 394.311378 192.218283 
L 397.960385 88.881398 
L 399.784888 116.084084 
L 401.670208 141.075021 
L 403.494711 130.053391 
L 405.380031 112.40545 
L 407.265351 128.949204 
L 409.089855 142.125051 
L 410.975175 142.686029 
L 412.799678 128.95653 
L 414.684998 107.327354 
L 416.570318 127.019293 
L 418.273188 117.98933 
L 420.158508 124.505859 
L 421.983011 139.746786 
L 423.868331 124.955517 
L 425.692835 124.276075 
L 429.463475 136.486936 
L 431.287978 125.246785 
L 433.173298 116.686515 
L 434.997801 125.717029 
L 436.883121 115.481829 
L 438.768441 100.069769 
L 440.471311 162.033237 
L 442.356631 137.896335 
L 444.181134 151.983086 
L 446.066454 122.765808 
L 447.890958 121.553478 
L 449.776278 125.759057 
L 451.661598 118.862979 
L 453.486101 124.948586 
L 455.371421 170.103858 
L 457.195924 155.407583 
L 459.081244 184.739432 
L 460.966565 124.688613 
L 462.669434 92.807825 
L 464.554754 122.928533 
L 466.379258 108.968896 
L 468.264578 150.935582 
L 470.089081 127.226117 
L 471.974401 108.145955 
L 473.859721 164.17832 
L 475.684224 113.954798 
L 477.569544 138.394937 
L 479.394048 103.437286 
L 481.279368 118.732424 
L 483.164688 111.827045 
L 484.928374 137.402084 
L 486.813694 307.82508 
L 488.638198 104.530111 
L 490.523518 92.413596 
L 492.348021 87.616799 
L 494.233341 110.869155 
L 496.118661 92.171941 
L 497.943164 143.436609 
L 501.652988 107.014863 
L 503.538308 104.596985 
L 505.423628 115.978306 
L 507.126497 118.337834 
L 509.011817 131.57926 
L 510.836321 90.956244 
L 512.721641 132.004881 
L 514.546144 123.627388 
L 516.431464 113.698756 
L 518.316784 120.627825 
L 520.141287 138.753663 
L 522.026607 134.436831 
L 523.851111 100.651739 
L 525.736431 135.908016 
L 527.621751 154.793319 
L 529.324621 161.86404 
L 531.209941 145.355113 
L 533.034444 137.177754 
L 534.919764 204.364018 
L 536.744267 165.919761 
L 538.629587 134.54333 
L 540.514907 87.828732 
L 542.339411 199.258894 
L 544.224731 163.687157 
L 546.049234 96.772228 
L 547.934554 138.235714 
L 549.819874 127.291769 
L 551.522744 113.300612 
L 553.408064 159.458451 
L 555.232567 106.689675 
L 557.117887 132.362856 
L 558.94239 99.333967 
L 560.82771 107.534482 
L 562.71303 146.309044 
L 564.537534 145.964587 
L 566.422854 163.152037 
L 568.247357 101.944331 
L 570.132677 97.488383 
L 570.132677 97.488383 
" clip-path="url(#pe4ef632281)" style="fill: none; stroke-dasharray: 3.7,1.6; stroke-dashoffset: 0; stroke: #000000"/>
   </g>
   <g id="line2d_134">
    <path d="M 62.85995 133.819423 
L 64.74527 137.919934 
L 66.569773 146.500346 
L 68.455093 141.721888 
L 70.279597 121.791777 
L 72.164917 138.166685 
L 74.050237 141.498641 
L 75.87474 134.613773 
L 77.76006 172.699788 
L 79.584563 128.651025 
L 81.469883 130.959655 
L 83.355203 141.109459 
L 85.058073 136.795504 
L 86.943393 139.271262 
L 88.767896 134.005877 
L 90.653216 139.857766 
L 92.47772 139.45022 
L 94.36304 139.672631 
L 96.24836 148.079572 
L 98.072863 127.943479 
L 99.958183 135.585227 
L 101.782686 141.910649 
L 103.668006 127.350515 
L 105.553327 139.497049 
L 107.256196 136.139578 
L 109.141516 141.242384 
L 110.96602 131.719545 
L 112.85134 128.613832 
L 114.675843 120.690681 
L 116.561163 121.181326 
L 118.446483 144.747795 
L 120.270986 141.380403 
L 122.156306 125.555368 
L 123.98081 131.596124 
L 125.86613 129.791079 
L 127.75145 125.824497 
L 129.515136 123.778306 
L 131.400456 133.500278 
L 133.22496 133.188256 
L 135.11028 137.875178 
L 136.934783 140.639168 
L 138.820103 125.662162 
L 140.705423 134.924003 
L 142.529926 132.720396 
L 144.415246 125.576623 
L 146.23975 135.219269 
L 148.12507 125.828794 
L 150.01039 131.193766 
L 151.713259 137.640017 
L 153.598579 129.837845 
L 155.423083 140.553495 
L 157.308403 135.867682 
L 159.132906 128.393707 
L 161.018226 127.060577 
L 162.903546 135.225663 
L 164.728049 135.108087 
L 166.613369 133.176135 
L 168.437873 141.258309 
L 170.323193 126.000936 
L 172.208513 129.486462 
L 173.911383 131.229974 
L 175.796703 137.325022 
L 177.621206 133.537995 
L 179.506526 138.264867 
L 181.331029 136.787656 
L 183.216349 138.71092 
L 186.926173 126.43546 
L 188.811493 126.723921 
L 192.521316 128.316724 
L 194.406636 129.045134 
L 196.109506 137.838887 
L 197.994826 130.261327 
L 199.819329 136.090585 
L 201.704649 126.54776 
L 203.529152 129.333778 
L 205.414472 141.193506 
L 207.299792 132.020168 
L 209.124296 136.435741 
L 211.009616 125.422859 
L 212.834119 129.500429 
L 214.719439 139.494185 
L 216.604759 132.562818 
L 218.368446 140.853563 
L 220.253766 136.359485 
L 222.078269 135.019584 
L 223.963589 133.462614 
L 225.788092 135.736546 
L 227.673412 146.68661 
L 229.558732 145.806592 
L 231.383236 129.887374 
L 233.268556 137.978765 
L 235.093059 183.724398 
L 236.978379 150.955832 
L 238.863699 133.748573 
L 240.566569 170.948288 
L 242.451889 177.974189 
L 244.276392 155.49744 
L 246.161712 124.926919 
L 247.986216 155.611044 
L 249.871536 131.604417 
L 251.756856 135.874223 
L 253.581359 125.768575 
L 255.466679 126.068738 
L 257.291182 119.93777 
L 259.176502 101.965086 
L 261.061822 105.643409 
L 262.764692 126.952109 
L 264.650012 135.825186 
L 266.474515 121.630365 
L 270.184339 136.700077 
L 272.069659 134.416778 
L 273.954979 131.22925 
L 275.779482 126.90307 
L 277.664802 128.436396 
L 279.489305 123.486199 
L 281.374625 136.443573 
L 283.259946 138.107568 
L 284.962815 126.111144 
L 286.848135 132.866487 
L 288.672639 133.472347 
L 290.557959 129.657442 
L 292.382462 128.609892 
L 294.267782 136.731507 
L 296.153102 126.424383 
L 297.977605 145.172857 
L 299.862925 127.307793 
L 301.687429 134.43233 
L 303.572749 127.425782 
L 305.458069 130.836999 
L 307.221755 123.549889 
L 309.107075 127.055945 
L 310.931579 137.194581 
L 312.816899 131.251379 
L 314.641402 130.463768 
L 316.526722 129.451478 
L 318.412042 124.88241 
L 320.236545 134.543088 
L 322.121865 128.077772 
L 323.946369 138.05612 
L 325.831689 135.787731 
L 327.717009 130.619421 
L 329.419878 133.915707 
L 331.305198 129.970496 
L 335.015022 125.991309 
L 336.839525 131.337222 
L 338.724845 144.726879 
L 340.610165 127.649136 
L 342.434668 135.12259 
L 344.319988 133.352102 
L 346.144492 126.061374 
L 348.029812 130.390376 
L 349.915132 136.393789 
L 351.618002 132.506444 
L 353.503322 131.188935 
L 355.327825 128.379088 
L 357.213145 135.203984 
L 359.037648 127.769872 
L 360.922968 129.23559 
L 362.808288 130.350669 
L 364.632792 131.980683 
L 368.342615 133.461391 
L 370.227935 124.833893 
L 372.113255 131.130551 
L 373.816125 127.226189 
L 377.525948 137.373916 
L 379.411268 130.612194 
L 381.235771 140.115271 
L 383.121091 135.303075 
L 385.006411 133.239612 
L 386.830915 133.726071 
L 388.716235 141.081178 
L 390.540738 123.365237 
L 392.426058 135.673949 
L 394.311378 135.772859 
L 396.075065 140.663428 
L 397.960385 126.116003 
L 399.784888 128.821822 
L 401.670208 127.635672 
L 403.494711 136.28277 
L 405.380031 127.550458 
L 407.265351 122.588746 
L 409.089855 137.052403 
L 410.975175 138.493537 
L 412.799678 138.457914 
L 414.684998 139.443464 
L 416.570318 130.490749 
L 418.273188 129.94464 
L 420.158508 129.013346 
L 421.983011 133.28351 
L 423.868331 131.115867 
L 425.692835 130.948485 
L 427.578155 127.885526 
L 429.463475 137.160866 
L 431.287978 132.179258 
L 433.173298 130.587132 
L 434.997801 133.814167 
L 436.883121 131.297965 
L 438.768441 129.678586 
L 440.471311 130.61678 
L 442.356631 143.519117 
L 444.181134 131.30865 
L 446.066454 137.223461 
L 447.890958 130.154208 
L 449.776278 128.875158 
L 451.661598 131.330064 
L 453.486101 129.144124 
L 455.371421 133.970429 
L 457.195924 142.655127 
L 459.081244 136.464739 
L 460.966565 137.249486 
L 462.669434 127.732817 
L 464.554754 122.248696 
L 466.379258 128.858572 
L 468.264578 125.84581 
L 470.089081 134.554797 
L 471.974401 122.906282 
L 473.859721 116.710441 
L 475.684224 139.160107 
L 477.569544 128.381794 
L 479.394048 136.58776 
L 481.279368 128.192663 
L 483.164688 131.031458 
L 484.928374 127.727007 
L 486.813694 132.146441 
L 488.638198 147.642892 
L 490.523518 95.326902 
L 492.348021 128.096731 
L 494.233341 131.023497 
L 496.118661 123.991164 
L 497.943164 127.684841 
L 499.828484 140.995164 
L 501.652988 136.820064 
L 503.538308 128.768227 
L 505.423628 129.021238 
L 507.126497 134.611946 
L 509.011817 129.24004 
L 510.836321 136.137952 
L 512.721641 121.985277 
L 514.546144 131.924045 
L 518.316784 123.295827 
L 520.141287 129.07808 
L 522.026607 137.301544 
L 523.851111 134.419124 
L 525.736431 123.758731 
L 527.621751 132.284257 
L 529.324621 138.75638 
L 531.209941 136.994485 
L 533.034444 136.066342 
L 534.919764 138.848797 
L 536.744267 142.952477 
L 538.629587 137.937146 
L 540.514907 131.055338 
L 542.339411 123.03873 
L 544.224731 151.583162 
L 546.049234 138.92295 
L 547.934554 122.738907 
L 549.819874 133.942502 
L 551.522744 129.909796 
L 553.408064 132.181395 
L 555.232567 137.428729 
L 557.117887 123.542613 
L 558.94239 137.767274 
L 560.82771 127.360405 
L 562.71303 130.087569 
L 564.537534 140.960598 
L 566.422854 137.471563 
L 568.247357 140.636281 
L 570.132677 122.620926 
L 570.132677 122.620926 
" clip-path="url(#pe4ef632281)" style="fill: none; stroke: #00ffff; stroke-linecap: square"/>
   </g>
   <g id="patch_3">
    <path d="M 37.496314 336.24 
L 37.496314 3.6 
" style="fill: none; stroke: #000000; stroke-width: 0.5; stroke-linejoin: miter; stroke-linecap: square"/>
   </g>
   <g id="patch_4">
    <path d="M 595.496314 336.24 
L 595.496314 3.6 
" style="fill: none; stroke: #000000; stroke-width: 0.5; stroke-linejoin: miter; stroke-linecap: square"/>
   </g>
   <g id="patch_5">
    <path d="M 37.496314 336.24 
L 595.496314 336.24 
" style="fill: none; stroke: #000000; stroke-width: 0.5; stroke-linejoin: miter; stroke-linecap: square"/>
   </g>
   <g id="patch_6">
    <path d="M 37.496314 3.6 
L 595.496314 3.6 
" style="fill: none; stroke: #000000; stroke-width: 0.5; stroke-linejoin: miter; stroke-linecap: square"/>
   </g>
   <g id="legend_1">
    <g id="line2d_135">
     <path d="M 48.296314 285.466213 
L 60.296314 285.466213 
L 72.296314 285.466213 
" style="fill: none; stroke-dasharray: 3.7,1.6; stroke-dashoffset: 0; stroke: #000000"/>
    </g>
    <g id="text_15">
     <!-- rendimenti SP 500 -->
     <g transform="translate(81.896314 289.666213) scale(0.12 -0.12)">
      <defs>
       <path id="CMR17-72" d="M 960 1517 
C 960 2134 1222 2713 1702 2713 
C 1747 2713 1792 2707 1837 2687 
C 1837 2687 1696 2642 1696 2475 
C 1696 2321 1818 2257 1914 2257 
C 1990 2257 2131 2302 2131 2482 
C 2131 2687 1926 2816 1709 2816 
C 1222 2816 1011 2340 947 2115 
L 941 2115 
L 941 2816 
L 198 2745 
L 198 2578 
C 576 2578 634 2540 634 2231 
L 634 443 
C 634 198 608 166 198 166 
L 198 0 
C 352 12 646 12 813 12 
C 998 12 1325 12 1498 0 
L 1498 166 
C 1037 166 960 166 960 455 
L 960 1517 
z
" transform="scale(0.015625)"/>
       <path id="CMR17-65" d="M 2438 1503 
C 2464 1529 2464 1542 2464 1606 
C 2464 2251 2118 2816 1389 2816 
C 710 2816 173 2175 173 1394 
C 173 554 781 -64 1459 -64 
C 2176 -64 2458 619 2458 755 
C 2458 800 2419 800 2406 800 
C 2362 800 2355 787 2330 709 
C 2189 270 1837 51 1504 51 
C 1229 51 954 206 781 490 
C 582 819 582 1200 582 1503 
L 2438 1503 
z
M 589 1600 
C 634 2511 1126 2713 1382 2713 
C 1818 2713 2112 2308 2118 1600 
L 589 1600 
z
" transform="scale(0.015625)"/>
       <path id="CMR17-6e" d="M 2656 1954 
C 2656 2282 2592 2816 1837 2816 
C 1331 2816 1069 2424 973 2166 
L 966 2166 
L 966 2816 
L 211 2745 
L 211 2578 
C 589 2578 646 2540 646 2231 
L 646 443 
C 646 198 621 166 211 166 
L 211 0 
C 365 12 646 12 813 12 
C 979 12 1267 12 1421 0 
L 1421 166 
C 1011 166 986 192 986 443 
L 986 1678 
C 986 2269 1344 2713 1792 2713 
C 2266 2713 2317 2289 2317 1980 
L 2317 443 
C 2317 198 2291 166 1882 166 
L 1882 0 
C 2035 12 2317 12 2483 12 
C 2650 12 2938 12 3091 0 
L 3091 166 
C 2682 166 2656 192 2656 443 
L 2656 1954 
z
" transform="scale(0.015625)"/>
       <path id="CMR17-64" d="M 1869 4345 
L 1869 4179 
C 2246 4179 2304 4141 2304 3843 
L 2304 2371 
C 2278 2403 2016 2816 1498 2816 
C 845 2816 211 2228 211 1376 
C 211 529 806 -64 1434 -64 
C 1978 -64 2259 361 2291 406 
L 2291 -64 
L 3066 -13 
L 3066 154 
C 2688 154 2630 193 2630 503 
L 2630 4416 
L 1869 4345 
z
M 2291 762 
C 2291 568 2176 393 2029 264 
C 1811 70 1594 38 1472 38 
C 1286 38 621 135 621 1369 
C 621 2636 1363 2713 1530 2713 
C 1824 2713 2061 2545 2208 2313 
C 2291 2177 2291 2157 2291 2041 
L 2291 762 
z
" transform="scale(0.015625)"/>
       <path id="CMR17-69" d="M 992 3961 
C 992 4102 877 4224 730 4224 
C 589 4224 467 4108 467 3961 
C 467 3820 582 3699 730 3699 
C 870 3699 992 3814 992 3961 
z
M 243 2745 
L 243 2579 
C 602 2579 653 2540 653 2231 
L 653 443 
C 653 198 627 166 218 166 
L 218 0 
C 371 12 646 12 806 12 
C 960 12 1222 12 1370 0 
L 1370 166 
C 992 166 979 205 979 436 
L 979 2816 
L 243 2745 
z
" transform="scale(0.015625)"/>
       <path id="CMR17-6d" d="M 4326 1954 
C 4326 2276 4269 2816 3507 2816 
C 3072 2816 2771 2520 2656 2173 
L 2650 2173 
C 2573 2700 2195 2816 1837 2816 
C 1331 2816 1069 2424 973 2166 
L 966 2166 
L 966 2816 
L 211 2745 
L 211 2578 
C 589 2578 646 2540 646 2231 
L 646 443 
C 646 198 621 166 211 166 
L 211 0 
C 365 12 646 12 813 12 
C 979 12 1267 12 1421 0 
L 1421 166 
C 1011 166 986 192 986 443 
L 986 1678 
C 986 2269 1344 2713 1792 2713 
C 2266 2713 2317 2289 2317 1980 
L 2317 443 
C 2317 198 2291 166 1882 166 
L 1882 0 
C 2035 12 2317 12 2483 12 
C 2650 12 2938 12 3091 0 
L 3091 166 
C 2682 166 2656 192 2656 443 
L 2656 1678 
C 2656 2269 3014 2713 3462 2713 
C 3936 2713 3987 2289 3987 1980 
L 3987 443 
C 3987 198 3962 166 3552 166 
L 3552 0 
C 3706 12 3987 12 4154 12 
C 4320 12 4608 12 4762 0 
L 4762 166 
C 4352 166 4326 192 4326 443 
L 4326 1954 
z
" transform="scale(0.015625)"/>
       <path id="CMR17-74" d="M 966 2585 
L 1862 2585 
L 1862 2752 
L 966 2752 
L 966 3968 
L 851 3968 
C 838 3292 614 2700 70 2687 
L 70 2585 
L 627 2585 
L 627 778 
C 627 655 627 -64 1370 -64 
C 1747 -64 1965 308 1965 784 
L 1965 1151 
L 1850 1151 
L 1850 790 
C 1850 347 1677 51 1408 51 
C 1222 51 966 179 966 765 
L 966 2585 
z
" transform="scale(0.015625)"/>
       <path id="CMR17-53" d="M 2803 4351 
C 2803 4467 2797 4473 2758 4473 
C 2720 4473 2707 4447 2682 4390 
L 2490 3965 
C 2246 4320 1875 4480 1472 4480 
C 819 4480 294 3958 294 3301 
C 294 3101 339 2817 557 2546 
C 794 2250 1018 2198 1530 2063 
C 1722 2011 2042 1927 2106 1901 
C 2470 1747 2662 1360 2662 999 
C 2662 534 2336 38 1779 38 
C 1094 38 454 425 410 1328 
C 403 1431 397 1437 352 1437 
C 301 1437 294 1431 294 1302 
L 294 0 
C 294 -116 301 -122 339 -122 
C 384 -122 397 -90 486 109 
C 493 128 493 141 614 386 
C 934 -39 1472 -128 1779 -128 
C 2477 -128 2970 457 2970 1141 
C 2970 1476 2848 1734 2778 1850 
C 2509 2263 2221 2340 1914 2417 
C 1869 2437 1856 2437 1498 2527 
C 1152 2617 1005 2662 845 2836 
C 666 3036 602 3243 602 3449 
C 602 3868 934 4326 1478 4326 
C 2157 4326 2579 3842 2675 3036 
C 2694 2920 2701 2914 2746 2914 
C 2803 2914 2803 2933 2803 3043 
L 2803 4351 
z
" transform="scale(0.015625)"/>
       <path id="CMR17-50" d="M 1267 2048 
L 2291 2048 
C 3117 2048 3718 2583 3718 3187 
C 3718 3791 3130 4352 2291 4352 
L 333 4352 
L 333 4185 
C 774 4185 845 4185 845 3899 
L 845 453 
C 845 166 774 166 333 166 
L 333 0 
C 518 12 858 12 1056 12 
C 1254 12 1594 12 1779 0 
L 1779 166 
C 1338 166 1267 166 1267 453 
L 1267 2048 
z
M 1254 2182 
L 1254 3937 
C 1254 4153 1267 4185 1523 4185 
L 2170 4185 
C 2995 4185 3232 3715 3232 3187 
C 3232 2608 2950 2182 2170 2182 
L 1254 2182 
z
" transform="scale(0.015625)"/>
      </defs>
      <use xlink:href="#CMR17-72" transform="scale(0.996264)"/>
      <use xlink:href="#CMR17-65" transform="translate(35.280768 0) scale(0.996264)"/>
      <use xlink:href="#CMR17-6e" transform="translate(75.766428 0) scale(0.996264)"/>
      <use xlink:href="#CMR17-64" transform="translate(126.661798 0) scale(0.996264)"/>
      <use xlink:href="#CMR17-69" transform="translate(177.557168 0) scale(0.996264)"/>
      <use xlink:href="#CMR17-6d" transform="translate(202.428226 0) scale(0.996264)"/>
      <use xlink:href="#CMR17-65" transform="translate(279.347816 0) scale(0.996264)"/>
      <use xlink:href="#CMR17-6e" transform="translate(319.833477 0) scale(0.996264)"/>
      <use xlink:href="#CMR17-74" transform="translate(368.126392 0) scale(0.996264)"/>
      <use xlink:href="#CMR17-69" transform="translate(403.40716 0) scale(0.996264)"/>
      <use xlink:href="#CMR17-53" transform="translate(458.354185 0) scale(0.996264)"/>
      <use xlink:href="#CMR17-50" transform="translate(509.249555 0) scale(0.996264)"/>
      <use xlink:href="#CMR17-35" transform="translate(601.911822 0) scale(0.996264)"/>
      <use xlink:href="#CMR17-30" transform="translate(647.602299 0) scale(0.996264)"/>
      <use xlink:href="#CMR17-30" transform="translate(693.292776 0) scale(0.996264)"/>
     </g>
    </g>
    <g id="line2d_136">
     <path d="M 48.296314 302.190808 
L 60.296314 302.190808 
L 72.296314 302.190808 
" style="fill: none; stroke: #00ffff; stroke-linecap: square"/>
    </g>
    <g id="text_16">
     <!-- forecast media semplice -->
     <g transform="translate(81.896314 306.390808) scale(0.12 -0.12)">
      <defs>
       <path id="CMR17-66" d="M 979 2585 
L 1709 2585 
L 1709 2752 
L 966 2752 
L 966 3539 
C 966 4076 1235 4377 1510 4377 
C 1594 4377 1690 4363 1754 4339 
C 1702 4326 1568 4281 1568 4121 
C 1568 3955 1696 3904 1786 3904 
C 1875 3904 2003 3955 2003 4121 
C 2003 4353 1773 4480 1517 4480 
C 1152 4480 653 4211 653 3526 
L 653 2752 
L 141 2752 
L 141 2585 
L 653 2585 
L 653 441 
C 653 198 627 166 218 166 
L 218 0 
C 371 12 666 12 832 12 
C 1018 12 1344 12 1517 0 
L 1517 166 
C 1056 166 979 166 979 454 
L 979 2585 
z
" transform="scale(0.015625)"/>
       <path id="CMR17-6f" d="M 2758 1356 
C 2758 2176 2163 2816 1466 2816 
C 768 2816 173 2176 173 1356 
C 173 550 768 -64 1466 -64 
C 2163 -64 2758 550 2758 1356 
z
M 1466 51 
C 1165 51 909 230 762 480 
C 602 768 582 1126 582 1408 
C 582 1676 595 2009 762 2297 
C 890 2508 1139 2713 1466 2713 
C 1754 2713 1997 2553 2150 2329 
C 2349 2028 2349 1606 2349 1408 
C 2349 1158 2336 774 2163 467 
C 1984 172 1709 51 1466 51 
z
" transform="scale(0.015625)"/>
       <path id="CMR17-63" d="M 2234 2240 
C 2112 2240 1933 2240 1933 2015 
C 1933 1836 2080 1785 2163 1785 
C 2208 1785 2394 1804 2394 2028 
C 2394 2476 1958 2816 1466 2816 
C 787 2816 211 2201 211 1379 
C 211 521 813 -64 1466 -64 
C 2259 -64 2458 676 2458 747 
C 2458 773 2451 792 2406 792 
C 2362 792 2355 786 2330 702 
C 2163 180 1798 51 1523 51 
C 1114 51 621 431 621 1385 
C 621 2358 1094 2700 1472 2700 
C 1722 2700 2093 2582 2234 2240 
z
" transform="scale(0.015625)"/>
       <path id="CMR17-61" d="M 2304 1656 
C 2304 2048 2304 2275 2035 2534 
C 1798 2751 1523 2816 1306 2816 
C 800 2816 435 2408 435 1977 
C 435 1740 627 1728 666 1728 
C 749 1728 896 1779 896 1958 
C 896 2118 774 2188 666 2188 
C 640 2188 608 2182 589 2176 
C 723 2594 1069 2713 1293 2713 
C 1613 2713 1965 2421 1965 1875 
L 1965 1632 
C 1587 1619 1133 1568 774 1373 
C 371 1147 256 822 256 576 
C 256 77 832 -64 1171 -64 
C 1523 -64 1850 135 1990 505 
C 2003 219 2182 -39 2464 -39 
C 2598 -39 2938 51 2938 563 
L 2938 926 
L 2822 926 
L 2822 557 
C 2822 161 2650 109 2566 109 
C 2304 109 2304 446 2304 732 
L 2304 1656 
z
M 1965 887 
C 1965 323 1568 38 1216 38 
C 896 38 646 278 646 576 
C 646 771 730 1114 1101 1322 
C 1408 1497 1760 1523 1965 1536 
L 1965 887 
z
" transform="scale(0.015625)"/>
       <path id="CMR17-73" d="M 1978 2688 
C 1978 2803 1971 2809 1933 2809 
C 1907 2809 1901 2803 1824 2707 
C 1805 2681 1747 2617 1728 2592 
C 1523 2809 1235 2816 1126 2816 
C 416 2816 160 2444 160 2073 
C 160 1497 813 1363 998 1324 
C 1402 1241 1542 1216 1677 1100 
C 1760 1024 1901 883 1901 652 
C 1901 384 1747 38 1158 38 
C 602 38 403 460 288 1024 
C 269 1113 269 1120 218 1120 
C 166 1120 160 1113 160 985 
L 160 64 
C 160 -52 166 -58 205 -58 
C 237 -58 243 -52 275 0 
C 314 57 410 211 448 275 
C 576 102 800 -64 1158 -64 
C 1792 -64 2131 281 2131 780 
C 2131 1107 1958 1280 1875 1356 
C 1683 1555 1459 1600 1190 1651 
C 838 1728 390 1817 390 2208 
C 390 2374 480 2726 1126 2726 
C 1811 2726 1850 2086 1862 1881 
C 1869 1849 1901 1843 1920 1843 
C 1978 1843 1978 1862 1978 1971 
L 1978 2688 
z
" transform="scale(0.015625)"/>
       <path id="CMR17-70" d="M 1408 -1114 
C 998 -1114 973 -1088 973 -834 
L 973 380 
C 1158 109 1427 -64 1766 -64 
C 2406 -64 3053 503 3053 1382 
C 3053 2196 2496 2816 1837 2816 
C 1453 2816 1139 2603 960 2345 
L 960 2816 
L 198 2745 
L 198 2577 
C 576 2577 634 2539 634 2228 
L 634 -834 
C 634 -1081 608 -1114 198 -1114 
L 198 -1280 
C 352 -1268 634 -1268 800 -1268 
C 966 -1268 1254 -1268 1408 -1280 
L 1408 -1114 
z
M 973 2015 
C 973 2106 973 2241 1222 2481 
C 1254 2506 1472 2700 1792 2700 
C 2259 2700 2643 2112 2643 1376 
C 2643 639 2234 38 1728 38 
C 1498 38 1248 148 1056 451 
C 973 594 973 632 973 736 
L 973 2015 
z
" transform="scale(0.015625)"/>
       <path id="CMR17-6c" d="M 979 4416 
L 218 4345 
L 218 4179 
C 595 4179 653 4141 653 3835 
L 653 439 
C 653 198 627 166 218 166 
L 218 0 
C 371 12 653 12 813 12 
C 979 12 1261 12 1414 0 
L 1414 166 
C 1005 166 979 191 979 439 
L 979 4416 
z
" transform="scale(0.015625)"/>
      </defs>
      <use xlink:href="#CMR17-66" transform="scale(0.996264)"/>
      <use xlink:href="#CMR17-6f" transform="translate(27.473512 0) scale(0.996264)"/>
      <use xlink:href="#CMR17-72" transform="translate(73.16399 0) scale(0.996264)"/>
      <use xlink:href="#CMR17-65" transform="translate(108.444757 0) scale(0.996264)"/>
      <use xlink:href="#CMR17-63" transform="translate(148.930418 0) scale(0.996264)"/>
      <use xlink:href="#CMR17-61" transform="translate(189.416078 0) scale(0.996264)"/>
      <use xlink:href="#CMR17-73" transform="translate(235.106555 0) scale(0.996264)"/>
      <use xlink:href="#CMR17-74" transform="translate(270.907893 0) scale(0.996264)"/>
      <use xlink:href="#CMR17-6d" transform="translate(336.264627 0) scale(0.996264)"/>
      <use xlink:href="#CMR17-65" transform="translate(413.184217 0) scale(0.996264)"/>
      <use xlink:href="#CMR17-64" transform="translate(453.669877 0) scale(0.996264)"/>
      <use xlink:href="#CMR17-69" transform="translate(504.565247 0) scale(0.996264)"/>
      <use xlink:href="#CMR17-61" transform="translate(529.436306 0) scale(0.996264)"/>
      <use xlink:href="#CMR17-73" transform="translate(605.202749 0) scale(0.996264)"/>
      <use xlink:href="#CMR17-65" transform="translate(641.004087 0) scale(0.996264)"/>
      <use xlink:href="#CMR17-6d" transform="translate(681.489747 0) scale(0.996264)"/>
      <use xlink:href="#CMR17-70" transform="translate(758.409337 0) scale(0.996264)"/>
      <use xlink:href="#CMR17-6c" transform="translate(809.304707 0) scale(0.996264)"/>
      <use xlink:href="#CMR17-69" transform="translate(834.175765 0) scale(0.996264)"/>
      <use xlink:href="#CMR17-63" transform="translate(859.046824 0) scale(0.996264)"/>
      <use xlink:href="#CMR17-65" transform="translate(899.532484 0) scale(0.996264)"/>
     </g>
    </g>
    <g id="patch_7">
     <path d="M 48.296314 323.115404 
L 72.296314 323.115404 
L 72.296314 314.715404 
L 48.296314 314.715404 
z
" style="fill: #808080; fill-opacity: 0.3; stroke: #808080; stroke-opacity: 0.3; stroke-linejoin: miter"/>
    </g>
    <g id="text_17">
     <!-- 99 perc. CI -->
     <g transform="translate(81.896314 323.115404) scale(0.12 -0.12)">
      <defs>
       <path id="CMR17-39" d="M 2253 1871 
C 2253 448 1670 25 1190 25 
C 1043 25 685 43 538 281 
C 704 256 826 345 826 505 
C 826 678 685 736 595 736 
C 538 736 365 710 365 492 
C 365 68 742 -128 1203 -128 
C 1939 -128 2688 665 2688 2090 
C 2688 3857 1971 4224 1485 4224 
C 851 4224 243 3664 243 2800 
C 243 2000 762 1408 1414 1408 
C 1952 1408 2189 1910 2253 2122 
L 2253 1871 
z
M 1427 1510 
C 1254 1510 1011 1542 813 1929 
C 678 2181 678 2477 678 2793 
C 678 3174 678 3438 858 3722 
C 947 3857 1114 4076 1485 4076 
C 2240 4076 2240 2909 2240 2651 
C 2240 2193 2035 1510 1427 1510 
z
" transform="scale(0.015625)"/>
       <path id="CMR17-2e" d="M 1062 262 
C 1062 422 934 524 800 524 
C 672 524 538 422 538 262 
C 538 102 666 0 800 0 
C 928 0 1062 102 1062 262 
z
" transform="scale(0.015625)"/>
       <path id="CMR17-43" d="M 3974 4351 
C 3974 4467 3968 4473 3930 4473 
C 3904 4473 3898 4467 3853 4390 
L 3571 3849 
C 3258 4249 2874 4480 2381 4480 
C 1286 4480 294 3507 294 2179 
C 294 837 1286 -128 2387 -128 
C 3366 -128 3974 741 3974 1482 
C 3974 1547 3974 1573 3917 1573 
C 3866 1573 3866 1553 3859 1495 
C 3808 592 3168 38 2477 38 
C 1824 38 781 502 781 2179 
C 781 3862 1843 4313 2464 4313 
C 3187 4313 3712 3681 3834 2785 
C 3846 2707 3846 2695 3904 2695 
C 3974 2695 3974 2707 3974 2824 
L 3974 4351 
z
" transform="scale(0.015625)"/>
       <path id="CMR17-49" d="M 1261 3898 
C 1261 4185 1338 4185 1798 4185 
L 1798 4352 
C 1594 4339 1267 4339 1050 4339 
C 832 4339 506 4339 301 4352 
L 301 4185 
C 762 4185 838 4185 838 3898 
L 838 453 
C 838 166 762 166 301 166 
L 301 0 
C 506 12 832 12 1050 12 
C 1267 12 1594 12 1798 0 
L 1798 166 
C 1338 166 1261 166 1261 453 
L 1261 3898 
z
" transform="scale(0.015625)"/>
      </defs>
      <use xlink:href="#CMR17-39" transform="scale(0.996264)"/>
      <use xlink:href="#CMR17-39" transform="translate(45.690477 0) scale(0.996264)"/>
      <use xlink:href="#CMR17-70" transform="translate(121.456921 0) scale(0.996264)"/>
      <use xlink:href="#CMR17-65" transform="translate(174.954729 0) scale(0.996264)"/>
      <use xlink:href="#CMR17-72" transform="translate(215.44039 0) scale(0.996264)"/>
      <use xlink:href="#CMR17-63" transform="translate(250.721157 0) scale(0.996264)"/>
      <use xlink:href="#CMR17-2e" transform="translate(291.206818 0) scale(0.996264)"/>
      <use xlink:href="#CMR17-43" transform="translate(356.563537 0) scale(0.996264)"/>
      <use xlink:href="#CMR17-49" transform="translate(423.073417 0) scale(0.996264)"/>
     </g>
    </g>
   </g>
  </g>
 </g>
 <defs>
  <clipPath id="pe4ef632281">
   <rect x="37.496314" y="3.6" width="558" height="332.64"/>
  </clipPath>
 </defs>
</svg>
