<?xml version="1.0" encoding="utf-8" standalone="no"?>
<!DOCTYPE svg PUBLIC "-//W3C//DTD SVG 1.1//EN"
  "http://www.w3.org/Graphics/SVG/1.1/DTD/svg11.dtd">
<svg xmlns:xlink="http://www.w3.org/1999/xlink" width="599.096314pt" height="359.281364pt" viewBox="0 0 599.096314 359.281364" xmlns="http://www.w3.org/2000/svg" version="1.1">
 <metadata>
  <rdf:RDF xmlns:dc="http://purl.org/dc/elements/1.1/" xmlns:cc="http://creativecommons.org/ns#" xmlns:rdf="http://www.w3.org/1999/02/22-rdf-syntax-ns#">
   <cc:Work>
    <dc:type rdf:resource="http://purl.org/dc/dcmitype/StillImage"/>
    <dc:date>2025-04-08T14:00:22.008057</dc:date>
    <dc:format>image/svg+xml</dc:format>
    <dc:creator>
     <cc:Agent>
      <dc:title>Matplotlib v3.9.2, https://matplotlib.org/</dc:title>
     </cc:Agent>
    </dc:creator>
   </cc:Work>
  </rdf:RDF>
 </metadata>
 <defs>
  <style type="text/css">*{stroke-linejoin: round; stroke-linecap: butt}</style>
 </defs>
 <g id="figure_1">
  <g id="patch_1">
   <path d="M 0 359.281364 
L 599.096314 359.281364 
L 599.096314 0 
L 0 0 
z
" style="fill: #ffffff"/>
  </g>
  <g id="axes_1">
   <g id="patch_2">
    <path d="M 37.496314 336.24 
L 595.496314 336.24 
L 595.496314 3.6 
L 37.496314 3.6 
z
" style="fill: #ffffff"/>
   </g>
   <g id="matplotlib.axis_1">
    <g id="xtick_1">
     <g id="line2d_1">
      <defs>
       <path id="m1cb2127f67" d="M 0 0 
L 0 -3 
" style="stroke: #000000; stroke-width: 0.5"/>
      </defs>
      <g>
       <use xlink:href="#m1cb2127f67" x="125.926946" y="336.24" style="stroke: #000000; stroke-width: 0.5"/>
      </g>
     </g>
     <g id="line2d_2">
      <defs>
       <path id="m687c6933bf" d="M 0 0 
L 0 3 
" style="stroke: #000000; stroke-width: 0.5"/>
      </defs>
      <g>
       <use xlink:href="#m687c6933bf" x="125.926946" y="3.6" style="stroke: #000000; stroke-width: 0.5"/>
      </g>
     </g>
     <g id="text_1">
      <!-- $\mathdefault{2004}$ -->
      <g transform="translate(109.478375 352.1933) scale(0.18 -0.18)">
       <defs>
        <path id="CMR17-32" d="M 2669 990 
L 2554 990 
C 2490 537 2438 460 2413 422 
C 2381 371 1920 371 1830 371 
L 602 371 
C 832 620 1280 1073 1824 1596 
C 2214 1966 2669 2400 2669 3033 
C 2669 3788 2067 4224 1395 4224 
C 691 4224 262 3603 262 3027 
C 262 2777 448 2745 525 2745 
C 589 2745 781 2783 781 3007 
C 781 3206 614 3264 525 3264 
C 486 3264 448 3257 422 3244 
C 544 3788 915 4057 1306 4057 
C 1862 4057 2227 3616 2227 3033 
C 2227 2477 1901 1998 1536 1583 
L 262 147 
L 262 0 
L 2515 0 
L 2669 990 
z
" transform="scale(0.015625)"/>
        <path id="CMR17-30" d="M 2688 2038 
C 2688 2430 2682 3099 2413 3613 
C 2176 4063 1798 4224 1466 4224 
C 1158 4224 768 4082 525 3620 
C 269 3137 243 2539 243 2038 
C 243 1671 250 1112 448 623 
C 723 -39 1216 -128 1466 -128 
C 1760 -128 2208 -7 2470 604 
C 2662 1048 2688 1568 2688 2038 
z
M 1466 -26 
C 1056 -26 813 328 723 816 
C 653 1196 653 1749 653 2109 
C 653 2604 653 3015 736 3407 
C 858 3954 1216 4121 1466 4121 
C 1728 4121 2067 3947 2189 3420 
C 2272 3054 2278 2623 2278 2109 
C 2278 1691 2278 1176 2202 797 
C 2067 96 1690 -26 1466 -26 
z
" transform="scale(0.015625)"/>
        <path id="CMR17-34" d="M 2150 4147 
C 2150 4281 2144 4288 2029 4288 
L 128 1254 
L 128 1088 
L 1779 1088 
L 1779 460 
C 1779 230 1766 166 1318 166 
L 1197 166 
L 1197 0 
C 1402 12 1747 12 1965 12 
C 2182 12 2528 12 2733 0 
L 2733 166 
L 2611 166 
C 2163 166 2150 230 2150 460 
L 2150 1088 
L 2803 1088 
L 2803 1254 
L 2150 1254 
L 2150 4147 
z
M 1798 3723 
L 1798 1254 
L 256 1254 
L 1798 3723 
z
" transform="scale(0.015625)"/>
       </defs>
       <use xlink:href="#CMR17-32" transform="scale(0.996264)"/>
       <use xlink:href="#CMR17-30" transform="translate(45.690477 0) scale(0.996264)"/>
       <use xlink:href="#CMR17-30" transform="translate(91.380954 0) scale(0.996264)"/>
       <use xlink:href="#CMR17-34" transform="translate(137.071431 0) scale(0.996264)"/>
      </g>
     </g>
    </g>
    <g id="xtick_2">
     <g id="line2d_3">
      <g>
       <use xlink:href="#m1cb2127f67" x="214.780256" y="336.24" style="stroke: #000000; stroke-width: 0.5"/>
      </g>
     </g>
     <g id="line2d_4">
      <g>
       <use xlink:href="#m687c6933bf" x="214.780256" y="3.6" style="stroke: #000000; stroke-width: 0.5"/>
      </g>
     </g>
     <g id="text_2">
      <!-- $\mathdefault{2008}$ -->
      <g transform="translate(198.331684 352.1933) scale(0.18 -0.18)">
       <defs>
        <path id="CMR17-38" d="M 1741 2289 
C 2144 2494 2554 2803 2554 3298 
C 2554 3884 1990 4224 1472 4224 
C 890 4224 378 3800 378 3215 
C 378 3054 416 2777 666 2533 
C 730 2469 998 2276 1171 2154 
C 883 2006 211 1652 211 945 
C 211 282 838 -128 1459 -128 
C 2144 -128 2720 366 2720 1022 
C 2720 1607 2330 1877 2074 2051 
L 1741 2289 
z
M 902 2855 
C 851 2887 595 3086 595 3388 
C 595 3781 998 4076 1459 4076 
C 1965 4076 2336 3716 2336 3298 
C 2336 2700 1670 2359 1638 2359 
C 1632 2359 1626 2359 1574 2398 
L 902 2855 
z
M 2080 1536 
C 2176 1466 2483 1253 2483 861 
C 2483 385 2010 25 1472 25 
C 890 25 448 443 448 951 
C 448 1459 838 1884 1280 2083 
L 2080 1536 
z
" transform="scale(0.015625)"/>
       </defs>
       <use xlink:href="#CMR17-32" transform="scale(0.996264)"/>
       <use xlink:href="#CMR17-30" transform="translate(45.690477 0) scale(0.996264)"/>
       <use xlink:href="#CMR17-30" transform="translate(91.380954 0) scale(0.996264)"/>
       <use xlink:href="#CMR17-38" transform="translate(137.071431 0) scale(0.996264)"/>
      </g>
     </g>
    </g>
    <g id="xtick_3">
     <g id="line2d_5">
      <g>
       <use xlink:href="#m1cb2127f67" x="303.633565" y="336.24" style="stroke: #000000; stroke-width: 0.5"/>
      </g>
     </g>
     <g id="line2d_6">
      <g>
       <use xlink:href="#m687c6933bf" x="303.633565" y="3.6" style="stroke: #000000; stroke-width: 0.5"/>
      </g>
     </g>
     <g id="text_3">
      <!-- $\mathdefault{2012}$ -->
      <g transform="translate(287.184994 352.1933) scale(0.18 -0.18)">
       <defs>
        <path id="CMR17-31" d="M 1702 4083 
C 1702 4217 1696 4224 1606 4224 
C 1357 3927 979 3833 621 3820 
C 602 3820 570 3820 563 3808 
C 557 3795 557 3782 557 3648 
C 755 3648 1088 3686 1344 3839 
L 1344 467 
C 1344 243 1331 166 781 166 
L 589 166 
L 589 0 
C 896 6 1216 12 1523 12 
C 1830 12 2150 6 2458 0 
L 2458 166 
L 2266 166 
C 1715 166 1702 236 1702 467 
L 1702 4083 
z
" transform="scale(0.015625)"/>
       </defs>
       <use xlink:href="#CMR17-32" transform="scale(0.996264)"/>
       <use xlink:href="#CMR17-30" transform="translate(45.690477 0) scale(0.996264)"/>
       <use xlink:href="#CMR17-31" transform="translate(91.380954 0) scale(0.996264)"/>
       <use xlink:href="#CMR17-32" transform="translate(137.071431 0) scale(0.996264)"/>
      </g>
     </g>
    </g>
    <g id="xtick_4">
     <g id="line2d_7">
      <g>
       <use xlink:href="#m1cb2127f67" x="392.486875" y="336.24" style="stroke: #000000; stroke-width: 0.5"/>
      </g>
     </g>
     <g id="line2d_8">
      <g>
       <use xlink:href="#m687c6933bf" x="392.486875" y="3.6" style="stroke: #000000; stroke-width: 0.5"/>
      </g>
     </g>
     <g id="text_4">
      <!-- $\mathdefault{2016}$ -->
      <g transform="translate(376.038303 352.1933) scale(0.18 -0.18)">
       <defs>
        <path id="CMR17-36" d="M 678 2198 
C 678 3712 1395 4076 1811 4076 
C 1946 4076 2272 4049 2400 3782 
C 2298 3782 2106 3782 2106 3558 
C 2106 3385 2246 3328 2336 3328 
C 2394 3328 2566 3353 2566 3571 
C 2566 3987 2246 4224 1805 4224 
C 1043 4224 243 3411 243 2011 
C 243 257 966 -128 1478 -128 
C 2099 -128 2688 431 2688 1295 
C 2688 2101 2170 2688 1517 2688 
C 1126 2688 838 2430 678 1979 
L 678 2198 
z
M 1478 25 
C 691 25 691 1212 691 1450 
C 691 1914 909 2585 1504 2585 
C 1613 2585 1926 2585 2138 2140 
C 2253 1889 2253 1624 2253 1302 
C 2253 954 2253 696 2118 438 
C 1978 173 1773 25 1478 25 
z
" transform="scale(0.015625)"/>
       </defs>
       <use xlink:href="#CMR17-32" transform="scale(0.996264)"/>
       <use xlink:href="#CMR17-30" transform="translate(45.690477 0) scale(0.996264)"/>
       <use xlink:href="#CMR17-31" transform="translate(91.380954 0) scale(0.996264)"/>
       <use xlink:href="#CMR17-36" transform="translate(137.071431 0) scale(0.996264)"/>
      </g>
     </g>
    </g>
    <g id="xtick_5">
     <g id="line2d_9">
      <g>
       <use xlink:href="#m1cb2127f67" x="481.340184" y="336.24" style="stroke: #000000; stroke-width: 0.5"/>
      </g>
     </g>
     <g id="line2d_10">
      <g>
       <use xlink:href="#m687c6933bf" x="481.340184" y="3.6" style="stroke: #000000; stroke-width: 0.5"/>
      </g>
     </g>
     <g id="text_5">
      <!-- $\mathdefault{2020}$ -->
      <g transform="translate(464.891613 352.1933) scale(0.18 -0.18)">
       <use xlink:href="#CMR17-32" transform="scale(0.996264)"/>
       <use xlink:href="#CMR17-30" transform="translate(45.690477 0) scale(0.996264)"/>
       <use xlink:href="#CMR17-32" transform="translate(91.380954 0) scale(0.996264)"/>
       <use xlink:href="#CMR17-30" transform="translate(137.071431 0) scale(0.996264)"/>
      </g>
     </g>
    </g>
    <g id="xtick_6">
     <g id="line2d_11">
      <g>
       <use xlink:href="#m1cb2127f67" x="570.193494" y="336.24" style="stroke: #000000; stroke-width: 0.5"/>
      </g>
     </g>
     <g id="line2d_12">
      <g>
       <use xlink:href="#m687c6933bf" x="570.193494" y="3.6" style="stroke: #000000; stroke-width: 0.5"/>
      </g>
     </g>
     <g id="text_6">
      <!-- $\mathdefault{2024}$ -->
      <g transform="translate(553.744922 352.1933) scale(0.18 -0.18)">
       <use xlink:href="#CMR17-32" transform="scale(0.996264)"/>
       <use xlink:href="#CMR17-30" transform="translate(45.690477 0) scale(0.996264)"/>
       <use xlink:href="#CMR17-32" transform="translate(91.380954 0) scale(0.996264)"/>
       <use xlink:href="#CMR17-34" transform="translate(137.071431 0) scale(0.996264)"/>
      </g>
     </g>
    </g>
    <g id="xtick_7">
     <g id="line2d_13">
      <defs>
       <path id="m9ef556ed6b" d="M 0 0 
L 0 -1.5 
" style="stroke: #000000; stroke-width: 0.5"/>
      </defs>
      <g>
       <use xlink:href="#m9ef556ed6b" x="59.286964" y="336.24" style="stroke: #000000; stroke-width: 0.5"/>
      </g>
     </g>
     <g id="line2d_14">
      <defs>
       <path id="m6a061a1c24" d="M 0 0 
L 0 1.5 
" style="stroke: #000000; stroke-width: 0.5"/>
      </defs>
      <g>
       <use xlink:href="#m6a061a1c24" x="59.286964" y="3.6" style="stroke: #000000; stroke-width: 0.5"/>
      </g>
     </g>
    </g>
    <g id="xtick_8">
     <g id="line2d_15">
      <g>
       <use xlink:href="#m9ef556ed6b" x="81.500292" y="336.24" style="stroke: #000000; stroke-width: 0.5"/>
      </g>
     </g>
     <g id="line2d_16">
      <g>
       <use xlink:href="#m6a061a1c24" x="81.500292" y="3.6" style="stroke: #000000; stroke-width: 0.5"/>
      </g>
     </g>
    </g>
    <g id="xtick_9">
     <g id="line2d_17">
      <g>
       <use xlink:href="#m9ef556ed6b" x="103.713619" y="336.24" style="stroke: #000000; stroke-width: 0.5"/>
      </g>
     </g>
     <g id="line2d_18">
      <g>
       <use xlink:href="#m6a061a1c24" x="103.713619" y="3.6" style="stroke: #000000; stroke-width: 0.5"/>
      </g>
     </g>
    </g>
    <g id="xtick_10">
     <g id="line2d_19">
      <g>
       <use xlink:href="#m9ef556ed6b" x="148.140274" y="336.24" style="stroke: #000000; stroke-width: 0.5"/>
      </g>
     </g>
     <g id="line2d_20">
      <g>
       <use xlink:href="#m6a061a1c24" x="148.140274" y="3.6" style="stroke: #000000; stroke-width: 0.5"/>
      </g>
     </g>
    </g>
    <g id="xtick_11">
     <g id="line2d_21">
      <g>
       <use xlink:href="#m9ef556ed6b" x="170.353601" y="336.24" style="stroke: #000000; stroke-width: 0.5"/>
      </g>
     </g>
     <g id="line2d_22">
      <g>
       <use xlink:href="#m6a061a1c24" x="170.353601" y="3.6" style="stroke: #000000; stroke-width: 0.5"/>
      </g>
     </g>
    </g>
    <g id="xtick_12">
     <g id="line2d_23">
      <g>
       <use xlink:href="#m9ef556ed6b" x="192.566929" y="336.24" style="stroke: #000000; stroke-width: 0.5"/>
      </g>
     </g>
     <g id="line2d_24">
      <g>
       <use xlink:href="#m6a061a1c24" x="192.566929" y="3.6" style="stroke: #000000; stroke-width: 0.5"/>
      </g>
     </g>
    </g>
    <g id="xtick_13">
     <g id="line2d_25">
      <g>
       <use xlink:href="#m9ef556ed6b" x="236.993583" y="336.24" style="stroke: #000000; stroke-width: 0.5"/>
      </g>
     </g>
     <g id="line2d_26">
      <g>
       <use xlink:href="#m6a061a1c24" x="236.993583" y="3.6" style="stroke: #000000; stroke-width: 0.5"/>
      </g>
     </g>
    </g>
    <g id="xtick_14">
     <g id="line2d_27">
      <g>
       <use xlink:href="#m9ef556ed6b" x="259.206911" y="336.24" style="stroke: #000000; stroke-width: 0.5"/>
      </g>
     </g>
     <g id="line2d_28">
      <g>
       <use xlink:href="#m6a061a1c24" x="259.206911" y="3.6" style="stroke: #000000; stroke-width: 0.5"/>
      </g>
     </g>
    </g>
    <g id="xtick_15">
     <g id="line2d_29">
      <g>
       <use xlink:href="#m9ef556ed6b" x="281.420238" y="336.24" style="stroke: #000000; stroke-width: 0.5"/>
      </g>
     </g>
     <g id="line2d_30">
      <g>
       <use xlink:href="#m6a061a1c24" x="281.420238" y="3.6" style="stroke: #000000; stroke-width: 0.5"/>
      </g>
     </g>
    </g>
    <g id="xtick_16">
     <g id="line2d_31">
      <g>
       <use xlink:href="#m9ef556ed6b" x="325.846893" y="336.24" style="stroke: #000000; stroke-width: 0.5"/>
      </g>
     </g>
     <g id="line2d_32">
      <g>
       <use xlink:href="#m6a061a1c24" x="325.846893" y="3.6" style="stroke: #000000; stroke-width: 0.5"/>
      </g>
     </g>
    </g>
    <g id="xtick_17">
     <g id="line2d_33">
      <g>
       <use xlink:href="#m9ef556ed6b" x="348.06022" y="336.24" style="stroke: #000000; stroke-width: 0.5"/>
      </g>
     </g>
     <g id="line2d_34">
      <g>
       <use xlink:href="#m6a061a1c24" x="348.06022" y="3.6" style="stroke: #000000; stroke-width: 0.5"/>
      </g>
     </g>
    </g>
    <g id="xtick_18">
     <g id="line2d_35">
      <g>
       <use xlink:href="#m9ef556ed6b" x="370.273548" y="336.24" style="stroke: #000000; stroke-width: 0.5"/>
      </g>
     </g>
     <g id="line2d_36">
      <g>
       <use xlink:href="#m6a061a1c24" x="370.273548" y="3.6" style="stroke: #000000; stroke-width: 0.5"/>
      </g>
     </g>
    </g>
    <g id="xtick_19">
     <g id="line2d_37">
      <g>
       <use xlink:href="#m9ef556ed6b" x="414.700202" y="336.24" style="stroke: #000000; stroke-width: 0.5"/>
      </g>
     </g>
     <g id="line2d_38">
      <g>
       <use xlink:href="#m6a061a1c24" x="414.700202" y="3.6" style="stroke: #000000; stroke-width: 0.5"/>
      </g>
     </g>
    </g>
    <g id="xtick_20">
     <g id="line2d_39">
      <g>
       <use xlink:href="#m9ef556ed6b" x="436.91353" y="336.24" style="stroke: #000000; stroke-width: 0.5"/>
      </g>
     </g>
     <g id="line2d_40">
      <g>
       <use xlink:href="#m6a061a1c24" x="436.91353" y="3.6" style="stroke: #000000; stroke-width: 0.5"/>
      </g>
     </g>
    </g>
    <g id="xtick_21">
     <g id="line2d_41">
      <g>
       <use xlink:href="#m9ef556ed6b" x="459.126857" y="336.24" style="stroke: #000000; stroke-width: 0.5"/>
      </g>
     </g>
     <g id="line2d_42">
      <g>
       <use xlink:href="#m6a061a1c24" x="459.126857" y="3.6" style="stroke: #000000; stroke-width: 0.5"/>
      </g>
     </g>
    </g>
    <g id="xtick_22">
     <g id="line2d_43">
      <g>
       <use xlink:href="#m9ef556ed6b" x="503.553512" y="336.24" style="stroke: #000000; stroke-width: 0.5"/>
      </g>
     </g>
     <g id="line2d_44">
      <g>
       <use xlink:href="#m6a061a1c24" x="503.553512" y="3.6" style="stroke: #000000; stroke-width: 0.5"/>
      </g>
     </g>
    </g>
    <g id="xtick_23">
     <g id="line2d_45">
      <g>
       <use xlink:href="#m9ef556ed6b" x="525.766839" y="336.24" style="stroke: #000000; stroke-width: 0.5"/>
      </g>
     </g>
     <g id="line2d_46">
      <g>
       <use xlink:href="#m6a061a1c24" x="525.766839" y="3.6" style="stroke: #000000; stroke-width: 0.5"/>
      </g>
     </g>
    </g>
    <g id="xtick_24">
     <g id="line2d_47">
      <g>
       <use xlink:href="#m9ef556ed6b" x="547.980167" y="336.24" style="stroke: #000000; stroke-width: 0.5"/>
      </g>
     </g>
     <g id="line2d_48">
      <g>
       <use xlink:href="#m6a061a1c24" x="547.980167" y="3.6" style="stroke: #000000; stroke-width: 0.5"/>
      </g>
     </g>
    </g>
    <g id="xtick_25">
     <g id="line2d_49">
      <g>
       <use xlink:href="#m9ef556ed6b" x="592.406821" y="336.24" style="stroke: #000000; stroke-width: 0.5"/>
      </g>
     </g>
     <g id="line2d_50">
      <g>
       <use xlink:href="#m6a061a1c24" x="592.406821" y="3.6" style="stroke: #000000; stroke-width: 0.5"/>
      </g>
     </g>
    </g>
   </g>
   <g id="matplotlib.axis_2">
    <g id="ytick_1">
     <g id="line2d_51">
      <defs>
       <path id="m0833761d07" d="M 0 0 
L 3 0 
" style="stroke: #000000; stroke-width: 0.5"/>
      </defs>
      <g>
       <use xlink:href="#m0833761d07" x="37.496314" y="297.514494" style="stroke: #000000; stroke-width: 0.5"/>
      </g>
     </g>
     <g id="line2d_52">
      <defs>
       <path id="m795cb700d9" d="M 0 0 
L -3 0 
" style="stroke: #000000; stroke-width: 0.5"/>
      </defs>
      <g>
       <use xlink:href="#m795cb700d9" x="595.496314" y="297.514494" style="stroke: #000000; stroke-width: 0.5"/>
      </g>
     </g>
     <g id="text_7">
      <!-- $\mathdefault{−20}$ -->
      <g transform="translate(3.6 303.741144) scale(0.18 -0.18)">
       <defs>
        <path id="CMSY10-0" d="M 4218 1472 
C 4326 1472 4442 1472 4442 1600 
C 4442 1728 4326 1728 4218 1728 
L 755 1728 
C 646 1728 531 1728 531 1600 
C 531 1472 646 1472 755 1472 
L 4218 1472 
z
" transform="scale(0.015625)"/>
       </defs>
       <use xlink:href="#CMSY10-0" transform="scale(0.996264)"/>
       <use xlink:href="#CMR17-32" transform="translate(77.487468 0) scale(0.996264)"/>
       <use xlink:href="#CMR17-30" transform="translate(123.177945 0) scale(0.996264)"/>
      </g>
     </g>
    </g>
    <g id="ytick_2">
     <g id="line2d_53">
      <g>
       <use xlink:href="#m0833761d07" x="37.496314" y="255.429164" style="stroke: #000000; stroke-width: 0.5"/>
      </g>
     </g>
     <g id="line2d_54">
      <g>
       <use xlink:href="#m795cb700d9" x="595.496314" y="255.429164" style="stroke: #000000; stroke-width: 0.5"/>
      </g>
     </g>
     <g id="text_8">
      <!-- $\mathdefault{−15}$ -->
      <g transform="translate(3.6 261.655814) scale(0.18 -0.18)">
       <defs>
        <path id="CMR17-35" d="M 730 3750 
C 794 3724 1056 3641 1325 3641 
C 1920 3641 2246 3961 2432 4140 
C 2432 4191 2432 4224 2394 4224 
C 2387 4224 2374 4224 2323 4198 
C 2099 4102 1837 4032 1517 4032 
C 1325 4032 1037 4055 723 4191 
C 653 4224 640 4224 634 4224 
C 602 4224 595 4217 595 4090 
L 595 2231 
C 595 2113 595 2080 659 2080 
C 691 2080 704 2093 736 2139 
C 941 2435 1222 2560 1542 2560 
C 1766 2560 2246 2415 2246 1293 
C 2246 1087 2246 716 2054 422 
C 1894 159 1645 25 1370 25 
C 947 25 518 319 403 812 
C 429 806 480 793 506 793 
C 589 793 749 838 749 1036 
C 749 1209 627 1280 506 1280 
C 358 1280 262 1190 262 1011 
C 262 454 704 -128 1382 -128 
C 2042 -128 2669 441 2669 1267 
C 2669 2054 2170 2662 1549 2662 
C 1222 2662 947 2540 730 2304 
L 730 3750 
z
" transform="scale(0.015625)"/>
       </defs>
       <use xlink:href="#CMSY10-0" transform="scale(0.996264)"/>
       <use xlink:href="#CMR17-31" transform="translate(77.487468 0) scale(0.996264)"/>
       <use xlink:href="#CMR17-35" transform="translate(123.177945 0) scale(0.996264)"/>
      </g>
     </g>
    </g>
    <g id="ytick_3">
     <g id="line2d_55">
      <g>
       <use xlink:href="#m0833761d07" x="37.496314" y="213.343835" style="stroke: #000000; stroke-width: 0.5"/>
      </g>
     </g>
     <g id="line2d_56">
      <g>
       <use xlink:href="#m795cb700d9" x="595.496314" y="213.343835" style="stroke: #000000; stroke-width: 0.5"/>
      </g>
     </g>
     <g id="text_9">
      <!-- $\mathdefault{−10}$ -->
      <g transform="translate(3.6 219.570485) scale(0.18 -0.18)">
       <use xlink:href="#CMSY10-0" transform="scale(0.996264)"/>
       <use xlink:href="#CMR17-31" transform="translate(77.487468 0) scale(0.996264)"/>
       <use xlink:href="#CMR17-30" transform="translate(123.177945 0) scale(0.996264)"/>
      </g>
     </g>
    </g>
    <g id="ytick_4">
     <g id="line2d_57">
      <g>
       <use xlink:href="#m0833761d07" x="37.496314" y="171.258505" style="stroke: #000000; stroke-width: 0.5"/>
      </g>
     </g>
     <g id="line2d_58">
      <g>
       <use xlink:href="#m795cb700d9" x="595.496314" y="171.258505" style="stroke: #000000; stroke-width: 0.5"/>
      </g>
     </g>
     <g id="text_10">
      <!-- $\mathdefault{−5}$ -->
      <g transform="translate(11.824286 177.485155) scale(0.18 -0.18)">
       <use xlink:href="#CMSY10-0" transform="scale(0.996264)"/>
       <use xlink:href="#CMR17-35" transform="translate(77.487468 0) scale(0.996264)"/>
      </g>
     </g>
    </g>
    <g id="ytick_5">
     <g id="line2d_59">
      <g>
       <use xlink:href="#m0833761d07" x="37.496314" y="129.173175" style="stroke: #000000; stroke-width: 0.5"/>
      </g>
     </g>
     <g id="line2d_60">
      <g>
       <use xlink:href="#m795cb700d9" x="595.496314" y="129.173175" style="stroke: #000000; stroke-width: 0.5"/>
      </g>
     </g>
     <g id="text_11">
      <!-- $\mathdefault{0}$ -->
      <g transform="translate(25.772028 135.399825) scale(0.18 -0.18)">
       <use xlink:href="#CMR17-30" transform="scale(0.996264)"/>
      </g>
     </g>
    </g>
    <g id="ytick_6">
     <g id="line2d_61">
      <g>
       <use xlink:href="#m0833761d07" x="37.496314" y="87.087846" style="stroke: #000000; stroke-width: 0.5"/>
      </g>
     </g>
     <g id="line2d_62">
      <g>
       <use xlink:href="#m795cb700d9" x="595.496314" y="87.087846" style="stroke: #000000; stroke-width: 0.5"/>
      </g>
     </g>
     <g id="text_12">
      <!-- $\mathdefault{5}$ -->
      <g transform="translate(25.772028 93.314496) scale(0.18 -0.18)">
       <use xlink:href="#CMR17-35" transform="scale(0.996264)"/>
      </g>
     </g>
    </g>
    <g id="ytick_7">
     <g id="line2d_63">
      <g>
       <use xlink:href="#m0833761d07" x="37.496314" y="45.002516" style="stroke: #000000; stroke-width: 0.5"/>
      </g>
     </g>
     <g id="line2d_64">
      <g>
       <use xlink:href="#m795cb700d9" x="595.496314" y="45.002516" style="stroke: #000000; stroke-width: 0.5"/>
      </g>
     </g>
     <g id="text_13">
      <!-- $\mathdefault{10}$ -->
      <g transform="translate(17.547742 51.229166) scale(0.18 -0.18)">
       <use xlink:href="#CMR17-31" transform="scale(0.996264)"/>
       <use xlink:href="#CMR17-30" transform="translate(45.690477 0) scale(0.996264)"/>
      </g>
     </g>
    </g>
    <g id="ytick_8">
     <g id="line2d_65">
      <defs>
       <path id="mfbcc63d893" d="M 0 0 
L 1.5 0 
" style="stroke: #000000; stroke-width: 0.5"/>
      </defs>
      <g>
       <use xlink:href="#mfbcc63d893" x="37.496314" y="331.182758" style="stroke: #000000; stroke-width: 0.5"/>
      </g>
     </g>
     <g id="line2d_66">
      <defs>
       <path id="m023fcd2806" d="M 0 0 
L -1.5 0 
" style="stroke: #000000; stroke-width: 0.5"/>
      </defs>
      <g>
       <use xlink:href="#m023fcd2806" x="595.496314" y="331.182758" style="stroke: #000000; stroke-width: 0.5"/>
      </g>
     </g>
    </g>
    <g id="ytick_9">
     <g id="line2d_67">
      <g>
       <use xlink:href="#mfbcc63d893" x="37.496314" y="322.765692" style="stroke: #000000; stroke-width: 0.5"/>
      </g>
     </g>
     <g id="line2d_68">
      <g>
       <use xlink:href="#m023fcd2806" x="595.496314" y="322.765692" style="stroke: #000000; stroke-width: 0.5"/>
      </g>
     </g>
    </g>
    <g id="ytick_10">
     <g id="line2d_69">
      <g>
       <use xlink:href="#mfbcc63d893" x="37.496314" y="314.348626" style="stroke: #000000; stroke-width: 0.5"/>
      </g>
     </g>
     <g id="line2d_70">
      <g>
       <use xlink:href="#m023fcd2806" x="595.496314" y="314.348626" style="stroke: #000000; stroke-width: 0.5"/>
      </g>
     </g>
    </g>
    <g id="ytick_11">
     <g id="line2d_71">
      <g>
       <use xlink:href="#mfbcc63d893" x="37.496314" y="305.93156" style="stroke: #000000; stroke-width: 0.5"/>
      </g>
     </g>
     <g id="line2d_72">
      <g>
       <use xlink:href="#m023fcd2806" x="595.496314" y="305.93156" style="stroke: #000000; stroke-width: 0.5"/>
      </g>
     </g>
    </g>
    <g id="ytick_12">
     <g id="line2d_73">
      <g>
       <use xlink:href="#mfbcc63d893" x="37.496314" y="289.097428" style="stroke: #000000; stroke-width: 0.5"/>
      </g>
     </g>
     <g id="line2d_74">
      <g>
       <use xlink:href="#m023fcd2806" x="595.496314" y="289.097428" style="stroke: #000000; stroke-width: 0.5"/>
      </g>
     </g>
    </g>
    <g id="ytick_13">
     <g id="line2d_75">
      <g>
       <use xlink:href="#mfbcc63d893" x="37.496314" y="280.680362" style="stroke: #000000; stroke-width: 0.5"/>
      </g>
     </g>
     <g id="line2d_76">
      <g>
       <use xlink:href="#m023fcd2806" x="595.496314" y="280.680362" style="stroke: #000000; stroke-width: 0.5"/>
      </g>
     </g>
    </g>
    <g id="ytick_14">
     <g id="line2d_77">
      <g>
       <use xlink:href="#mfbcc63d893" x="37.496314" y="272.263296" style="stroke: #000000; stroke-width: 0.5"/>
      </g>
     </g>
     <g id="line2d_78">
      <g>
       <use xlink:href="#m023fcd2806" x="595.496314" y="272.263296" style="stroke: #000000; stroke-width: 0.5"/>
      </g>
     </g>
    </g>
    <g id="ytick_15">
     <g id="line2d_79">
      <g>
       <use xlink:href="#mfbcc63d893" x="37.496314" y="263.84623" style="stroke: #000000; stroke-width: 0.5"/>
      </g>
     </g>
     <g id="line2d_80">
      <g>
       <use xlink:href="#m023fcd2806" x="595.496314" y="263.84623" style="stroke: #000000; stroke-width: 0.5"/>
      </g>
     </g>
    </g>
    <g id="ytick_16">
     <g id="line2d_81">
      <g>
       <use xlink:href="#mfbcc63d893" x="37.496314" y="247.012098" style="stroke: #000000; stroke-width: 0.5"/>
      </g>
     </g>
     <g id="line2d_82">
      <g>
       <use xlink:href="#m023fcd2806" x="595.496314" y="247.012098" style="stroke: #000000; stroke-width: 0.5"/>
      </g>
     </g>
    </g>
    <g id="ytick_17">
     <g id="line2d_83">
      <g>
       <use xlink:href="#mfbcc63d893" x="37.496314" y="238.595033" style="stroke: #000000; stroke-width: 0.5"/>
      </g>
     </g>
     <g id="line2d_84">
      <g>
       <use xlink:href="#m023fcd2806" x="595.496314" y="238.595033" style="stroke: #000000; stroke-width: 0.5"/>
      </g>
     </g>
    </g>
    <g id="ytick_18">
     <g id="line2d_85">
      <g>
       <use xlink:href="#mfbcc63d893" x="37.496314" y="230.177967" style="stroke: #000000; stroke-width: 0.5"/>
      </g>
     </g>
     <g id="line2d_86">
      <g>
       <use xlink:href="#m023fcd2806" x="595.496314" y="230.177967" style="stroke: #000000; stroke-width: 0.5"/>
      </g>
     </g>
    </g>
    <g id="ytick_19">
     <g id="line2d_87">
      <g>
       <use xlink:href="#mfbcc63d893" x="37.496314" y="221.760901" style="stroke: #000000; stroke-width: 0.5"/>
      </g>
     </g>
     <g id="line2d_88">
      <g>
       <use xlink:href="#m023fcd2806" x="595.496314" y="221.760901" style="stroke: #000000; stroke-width: 0.5"/>
      </g>
     </g>
    </g>
    <g id="ytick_20">
     <g id="line2d_89">
      <g>
       <use xlink:href="#mfbcc63d893" x="37.496314" y="204.926769" style="stroke: #000000; stroke-width: 0.5"/>
      </g>
     </g>
     <g id="line2d_90">
      <g>
       <use xlink:href="#m023fcd2806" x="595.496314" y="204.926769" style="stroke: #000000; stroke-width: 0.5"/>
      </g>
     </g>
    </g>
    <g id="ytick_21">
     <g id="line2d_91">
      <g>
       <use xlink:href="#mfbcc63d893" x="37.496314" y="196.509703" style="stroke: #000000; stroke-width: 0.5"/>
      </g>
     </g>
     <g id="line2d_92">
      <g>
       <use xlink:href="#m023fcd2806" x="595.496314" y="196.509703" style="stroke: #000000; stroke-width: 0.5"/>
      </g>
     </g>
    </g>
    <g id="ytick_22">
     <g id="line2d_93">
      <g>
       <use xlink:href="#mfbcc63d893" x="37.496314" y="188.092637" style="stroke: #000000; stroke-width: 0.5"/>
      </g>
     </g>
     <g id="line2d_94">
      <g>
       <use xlink:href="#m023fcd2806" x="595.496314" y="188.092637" style="stroke: #000000; stroke-width: 0.5"/>
      </g>
     </g>
    </g>
    <g id="ytick_23">
     <g id="line2d_95">
      <g>
       <use xlink:href="#mfbcc63d893" x="37.496314" y="179.675571" style="stroke: #000000; stroke-width: 0.5"/>
      </g>
     </g>
     <g id="line2d_96">
      <g>
       <use xlink:href="#m023fcd2806" x="595.496314" y="179.675571" style="stroke: #000000; stroke-width: 0.5"/>
      </g>
     </g>
    </g>
    <g id="ytick_24">
     <g id="line2d_97">
      <g>
       <use xlink:href="#mfbcc63d893" x="37.496314" y="162.841439" style="stroke: #000000; stroke-width: 0.5"/>
      </g>
     </g>
     <g id="line2d_98">
      <g>
       <use xlink:href="#m023fcd2806" x="595.496314" y="162.841439" style="stroke: #000000; stroke-width: 0.5"/>
      </g>
     </g>
    </g>
    <g id="ytick_25">
     <g id="line2d_99">
      <g>
       <use xlink:href="#mfbcc63d893" x="37.496314" y="154.424373" style="stroke: #000000; stroke-width: 0.5"/>
      </g>
     </g>
     <g id="line2d_100">
      <g>
       <use xlink:href="#m023fcd2806" x="595.496314" y="154.424373" style="stroke: #000000; stroke-width: 0.5"/>
      </g>
     </g>
    </g>
    <g id="ytick_26">
     <g id="line2d_101">
      <g>
       <use xlink:href="#mfbcc63d893" x="37.496314" y="146.007307" style="stroke: #000000; stroke-width: 0.5"/>
      </g>
     </g>
     <g id="line2d_102">
      <g>
       <use xlink:href="#m023fcd2806" x="595.496314" y="146.007307" style="stroke: #000000; stroke-width: 0.5"/>
      </g>
     </g>
    </g>
    <g id="ytick_27">
     <g id="line2d_103">
      <g>
       <use xlink:href="#mfbcc63d893" x="37.496314" y="137.590241" style="stroke: #000000; stroke-width: 0.5"/>
      </g>
     </g>
     <g id="line2d_104">
      <g>
       <use xlink:href="#m023fcd2806" x="595.496314" y="137.590241" style="stroke: #000000; stroke-width: 0.5"/>
      </g>
     </g>
    </g>
    <g id="ytick_28">
     <g id="line2d_105">
      <g>
       <use xlink:href="#mfbcc63d893" x="37.496314" y="120.756109" style="stroke: #000000; stroke-width: 0.5"/>
      </g>
     </g>
     <g id="line2d_106">
      <g>
       <use xlink:href="#m023fcd2806" x="595.496314" y="120.756109" style="stroke: #000000; stroke-width: 0.5"/>
      </g>
     </g>
    </g>
    <g id="ytick_29">
     <g id="line2d_107">
      <g>
       <use xlink:href="#mfbcc63d893" x="37.496314" y="112.339043" style="stroke: #000000; stroke-width: 0.5"/>
      </g>
     </g>
     <g id="line2d_108">
      <g>
       <use xlink:href="#m023fcd2806" x="595.496314" y="112.339043" style="stroke: #000000; stroke-width: 0.5"/>
      </g>
     </g>
    </g>
    <g id="ytick_30">
     <g id="line2d_109">
      <g>
       <use xlink:href="#mfbcc63d893" x="37.496314" y="103.921978" style="stroke: #000000; stroke-width: 0.5"/>
      </g>
     </g>
     <g id="line2d_110">
      <g>
       <use xlink:href="#m023fcd2806" x="595.496314" y="103.921978" style="stroke: #000000; stroke-width: 0.5"/>
      </g>
     </g>
    </g>
    <g id="ytick_31">
     <g id="line2d_111">
      <g>
       <use xlink:href="#mfbcc63d893" x="37.496314" y="95.504912" style="stroke: #000000; stroke-width: 0.5"/>
      </g>
     </g>
     <g id="line2d_112">
      <g>
       <use xlink:href="#m023fcd2806" x="595.496314" y="95.504912" style="stroke: #000000; stroke-width: 0.5"/>
      </g>
     </g>
    </g>
    <g id="ytick_32">
     <g id="line2d_113">
      <g>
       <use xlink:href="#mfbcc63d893" x="37.496314" y="78.67078" style="stroke: #000000; stroke-width: 0.5"/>
      </g>
     </g>
     <g id="line2d_114">
      <g>
       <use xlink:href="#m023fcd2806" x="595.496314" y="78.67078" style="stroke: #000000; stroke-width: 0.5"/>
      </g>
     </g>
    </g>
    <g id="ytick_33">
     <g id="line2d_115">
      <g>
       <use xlink:href="#mfbcc63d893" x="37.496314" y="70.253714" style="stroke: #000000; stroke-width: 0.5"/>
      </g>
     </g>
     <g id="line2d_116">
      <g>
       <use xlink:href="#m023fcd2806" x="595.496314" y="70.253714" style="stroke: #000000; stroke-width: 0.5"/>
      </g>
     </g>
    </g>
    <g id="ytick_34">
     <g id="line2d_117">
      <g>
       <use xlink:href="#mfbcc63d893" x="37.496314" y="61.836648" style="stroke: #000000; stroke-width: 0.5"/>
      </g>
     </g>
     <g id="line2d_118">
      <g>
       <use xlink:href="#m023fcd2806" x="595.496314" y="61.836648" style="stroke: #000000; stroke-width: 0.5"/>
      </g>
     </g>
    </g>
    <g id="ytick_35">
     <g id="line2d_119">
      <g>
       <use xlink:href="#mfbcc63d893" x="37.496314" y="53.419582" style="stroke: #000000; stroke-width: 0.5"/>
      </g>
     </g>
     <g id="line2d_120">
      <g>
       <use xlink:href="#m023fcd2806" x="595.496314" y="53.419582" style="stroke: #000000; stroke-width: 0.5"/>
      </g>
     </g>
    </g>
    <g id="ytick_36">
     <g id="line2d_121">
      <g>
       <use xlink:href="#mfbcc63d893" x="37.496314" y="36.58545" style="stroke: #000000; stroke-width: 0.5"/>
      </g>
     </g>
     <g id="line2d_122">
      <g>
       <use xlink:href="#m023fcd2806" x="595.496314" y="36.58545" style="stroke: #000000; stroke-width: 0.5"/>
      </g>
     </g>
    </g>
    <g id="ytick_37">
     <g id="line2d_123">
      <g>
       <use xlink:href="#mfbcc63d893" x="37.496314" y="28.168384" style="stroke: #000000; stroke-width: 0.5"/>
      </g>
     </g>
     <g id="line2d_124">
      <g>
       <use xlink:href="#m023fcd2806" x="595.496314" y="28.168384" style="stroke: #000000; stroke-width: 0.5"/>
      </g>
     </g>
    </g>
    <g id="ytick_38">
     <g id="line2d_125">
      <g>
       <use xlink:href="#mfbcc63d893" x="37.496314" y="19.751318" style="stroke: #000000; stroke-width: 0.5"/>
      </g>
     </g>
     <g id="line2d_126">
      <g>
       <use xlink:href="#m023fcd2806" x="595.496314" y="19.751318" style="stroke: #000000; stroke-width: 0.5"/>
      </g>
     </g>
    </g>
    <g id="ytick_39">
     <g id="line2d_127">
      <g>
       <use xlink:href="#mfbcc63d893" x="37.496314" y="11.334252" style="stroke: #000000; stroke-width: 0.5"/>
      </g>
     </g>
     <g id="line2d_128">
      <g>
       <use xlink:href="#m023fcd2806" x="595.496314" y="11.334252" style="stroke: #000000; stroke-width: 0.5"/>
      </g>
     </g>
    </g>
   </g>
   <g id="line2d_129">
    <path d="M 62.85995 148.21721 
L 64.74527 210.244479 
L 66.569773 126.34586 
L 68.455093 74.050356 
L 70.279597 150.415898 
L 72.164917 152.780928 
L 74.050237 147.50604 
L 75.87474 230.657836 
L 77.76006 103.815661 
L 79.584563 88.656982 
L 81.469883 117.886653 
L 83.355203 132.650302 
L 85.058073 158.879838 
L 86.943393 89.500942 
L 88.767896 160.278385 
L 90.653216 154.282031 
L 92.47772 181.648301 
L 94.36304 226.223789 
L 96.24836 120.867921 
L 98.072863 171.485835 
L 99.958183 142.054796 
L 101.782686 76.398974 
L 103.668006 139.176384 
L 105.553327 132.305512 
L 107.256196 186.326664 
L 109.141516 119.574479 
L 110.96602 87.095079 
L 112.85134 86.820544 
L 114.675843 83.628468 
L 116.561163 125.314274 
L 118.446483 131.729633 
L 120.270986 104.108287 
L 122.156306 113.395085 
L 123.98081 120.17019 
L 127.75145 89.704055 
L 129.515136 121.15503 
L 131.400456 143.562434 
L 133.22496 122.177992 
L 135.11028 152.195877 
L 136.934783 106.59619 
L 138.820103 149.410211 
L 140.705423 142.143473 
L 142.529926 107.261475 
L 144.415246 129.512137 
L 146.23975 91.075137 
L 148.12507 107.654398 
L 150.01039 141.760364 
L 151.713259 116.291247 
L 153.598579 132.498485 
L 155.423083 150.915133 
L 157.308403 119.220794 
L 159.132906 112.222001 
L 161.018226 115.293064 
L 162.903546 127.776357 
L 164.728049 128.039536 
L 166.613369 152.818878 
L 168.437873 97.702483 
L 170.323193 112.536785 
L 172.208513 118.134894 
L 173.911383 130.543422 
L 175.796703 117.980339 
L 177.621206 123.706413 
L 179.506526 137.070179 
L 181.331029 153.56047 
L 183.216349 124.43787 
L 185.101669 111.389352 
L 186.926173 109.403443 
L 188.811493 100.514107 
L 190.635996 113.721176 
L 192.521316 112.500895 
L 194.406636 124.586207 
L 196.109506 117.06208 
L 197.994826 151.517676 
L 199.819329 95.923877 
L 201.704649 102.290877 
L 203.529152 127.476034 
L 205.414472 125.556624 
L 207.299792 166.572415 
L 209.124296 104.933234 
L 211.009616 105.589945 
L 212.834119 171.936879 
L 214.719439 120.117035 
L 216.604759 188.370718 
L 218.368446 143.885395 
L 220.253766 153.073135 
L 222.078269 95.637158 
L 223.963589 109.29556 
L 225.788092 167.191026 
L 227.673412 183.557177 
L 229.558732 113.166078 
L 231.383236 172.655846 
L 233.268556 321.12 
L 235.093059 207.189017 
L 236.978379 134.412942 
L 238.863699 140.742876 
L 240.566569 190.004869 
L 242.451889 181.016394 
L 244.276392 33.620507 
L 246.161712 76.977725 
L 247.986216 107.343638 
L 249.871536 120.403153 
L 251.756856 65.190767 
L 253.581359 100.636626 
L 255.466679 110.753969 
L 257.291182 113.234496 
L 259.176502 112.089213 
L 261.061822 119.226125 
L 262.764692 155.361411 
L 264.650012 81.92296 
L 266.474515 96.731479 
L 268.359835 181.568871 
L 270.184339 160.963629 
L 272.069659 131.943639 
L 273.954979 123.3626 
L 275.779482 102.655259 
L 277.664802 92.837409 
L 279.489305 109.777845 
L 281.374625 99.756909 
L 283.259946 101.766896 
L 284.962815 104.279702 
L 286.848135 139.835664 
L 288.672639 111.916947 
L 290.557959 124.885533 
L 292.382462 161.888956 
L 294.267782 104.749702 
L 296.153102 223.06681 
L 297.977605 137.329179 
L 299.862925 105.600598 
L 301.687429 115.891752 
L 303.572749 117.653693 
L 305.458069 91.275254 
L 307.221755 96.231288 
L 309.107075 106.607445 
L 312.816899 157.046434 
L 314.641402 140.41189 
L 316.526722 106.398034 
L 318.412042 102.566351 
L 320.236545 105.536533 
L 322.121865 132.445074 
L 323.946369 154.916753 
L 325.831689 112.570387 
L 327.717009 95.467815 
L 329.419878 111.222973 
L 331.305198 108.002581 
L 333.129702 118.457317 
L 335.015022 92.914731 
L 336.839525 140.058188 
L 338.724845 103.613666 
L 340.610165 128.462251 
L 344.319988 112.937359 
L 346.144492 98.654223 
L 348.029812 117.810625 
L 349.915132 122.411922 
L 351.618002 131.633956 
L 353.503322 107.91304 
L 355.327825 128.839002 
L 357.213145 117.733594 
L 359.037648 104.022291 
L 360.922968 118.003763 
L 362.808288 134.12336 
L 364.632792 115.679223 
L 366.518112 153.142179 
L 368.342615 83.798681 
L 370.227935 125.189332 
L 372.113255 139.931629 
L 373.816125 107.047918 
L 375.701445 130.067018 
L 377.525948 123.177161 
L 379.411268 122.338323 
L 381.235771 134.22995 
L 383.121091 131.240596 
L 386.830915 169.514061 
L 388.716235 95.069514 
L 390.540738 106.287125 
L 392.426058 139.978893 
L 394.311378 186.604757 
L 397.960385 78.767667 
L 399.784888 107.154999 
L 401.670208 133.234263 
L 403.494711 121.732653 
L 405.380031 103.316164 
L 407.265351 120.580381 
L 409.089855 134.330021 
L 410.975175 134.915429 
L 412.799678 120.588026 
L 414.684998 98.016923 
L 416.570318 118.566424 
L 418.273188 109.143217 
L 420.158508 115.943533 
L 421.983011 131.848185 
L 423.868331 116.412773 
L 425.692835 115.703742 
L 429.463475 128.446372 
L 431.287978 116.716726 
L 433.173298 107.783665 
L 434.997801 117.207448 
L 436.883121 106.526517 
L 438.768441 90.443278 
L 440.471311 155.105186 
L 442.356631 129.917149 
L 444.181134 144.617363 
L 446.066454 114.127705 
L 447.890958 112.862579 
L 449.776278 117.251306 
L 451.661598 110.054911 
L 453.486101 116.40554 
L 455.371421 163.527274 
L 457.195924 148.190992 
L 459.081244 178.800211 
L 460.966565 116.134246 
L 462.669434 82.865085 
L 464.554754 114.297516 
L 466.379258 99.729952 
L 468.264578 143.524241 
L 470.089081 118.782255 
L 471.974401 98.871174 
L 473.859721 157.343686 
L 475.684224 104.932985 
L 477.569544 130.437465 
L 479.394048 93.957447 
L 481.279368 109.918671 
L 483.164688 102.71257 
L 484.928374 129.401374 
L 486.813694 307.246102 
L 488.638198 95.097864 
L 490.523518 82.453688 
L 492.348021 77.447996 
L 494.233341 101.712965 
L 496.118661 82.201509 
L 497.943164 135.698696 
L 501.652988 97.690824 
L 503.538308 95.16765 
L 505.423628 107.044615 
L 507.126497 109.506898 
L 509.011817 123.324973 
L 510.836321 80.93287 
L 512.721641 123.76913 
L 514.546144 115.026805 
L 516.431464 104.665793 
L 518.316784 111.896615 
L 520.141287 130.811813 
L 522.026607 126.306988 
L 523.851111 91.050593 
L 525.736431 127.842242 
L 527.621751 147.549978 
L 529.324621 154.928621 
L 531.209941 137.700749 
L 533.034444 129.167275 
L 534.919764 199.279425 
L 536.744267 159.160964 
L 538.629587 126.418125 
L 540.514907 77.669158 
L 542.339411 193.951979 
L 544.224731 156.831133 
L 546.049234 87.002134 
L 547.934554 130.271308 
L 549.819874 118.850766 
L 551.522744 104.25031 
L 553.408064 152.418271 
L 555.232567 97.351474 
L 557.117887 124.142693 
L 558.94239 89.675434 
L 560.82771 98.233071 
L 562.71303 138.696222 
L 564.537534 138.336765 
L 566.422854 156.272709 
L 568.247357 92.399476 
L 570.132677 87.749476 
L 570.132677 87.749476 
" clip-path="url(#pc45f61bf98)" style="fill: none; stroke-dasharray: 3.7,1.6; stroke-dashoffset: 0; stroke: #000000"/>
   </g>
   <g id="line2d_130">
    <path d="M 62.85995 112.107196 
L 64.74527 134.120862 
L 66.569773 196.061069 
L 68.455093 112.172877 
L 70.279597 59.856291 
L 72.164917 136.223041 
L 74.050237 138.587602 
L 75.87474 133.315864 
L 77.76006 216.332314 
L 79.584563 89.495629 
L 81.469883 74.331899 
L 83.355203 103.571649 
L 85.058073 118.344771 
L 86.943393 144.569197 
L 88.767896 75.185995 
L 90.653216 145.957102 
L 92.47772 139.959514 
L 94.36304 167.294411 
L 96.24836 211.750391 
L 98.072863 106.40489 
L 99.958183 157.005532 
L 101.782686 127.580998 
L 103.668006 61.907645 
L 105.553327 124.6927 
L 107.256196 117.831425 
L 109.141516 171.815671 
L 110.96602 105.07364 
L 112.85134 72.587889 
L 114.675843 72.306825 
L 116.561163 69.105282 
L 118.446483 110.80143 
L 120.270986 117.226411 
L 122.156306 89.610586 
L 123.98081 98.906326 
L 125.86613 105.691534 
L 129.515136 75.227371 
L 131.400456 106.688482 
L 133.22496 129.101447 
L 135.11028 107.727156 
L 136.934783 137.745622 
L 138.820103 92.152471 
L 140.705423 134.968863 
L 142.529926 127.708297 
L 144.415246 92.833049 
L 146.23975 115.093425 
L 148.12507 76.653572 
L 150.01039 93.239721 
L 151.713259 127.351929 
L 153.598579 101.892126 
L 155.423083 118.108482 
L 157.308403 136.52647 
L 159.132906 104.841817 
L 161.018226 97.851322 
L 162.903546 100.93141 
L 164.728049 113.424424 
L 166.613369 113.69728 
L 168.437873 138.476646 
L 170.323193 83.361939 
L 172.208513 98.20453 
L 173.911383 103.812048 
L 175.796703 116.22985 
L 177.621206 103.676115 
L 179.506526 109.411936 
L 181.331029 122.783407 
L 183.216349 139.273137 
L 185.101669 110.160231 
L 186.926173 97.119529 
L 188.811493 95.140794 
L 190.635996 86.254678 
L 192.521316 99.470156 
L 194.406636 98.257962 
L 196.109506 110.352857 
L 197.994826 102.837754 
L 199.819329 137.294025 
L 201.704649 81.700652 
L 203.529152 88.071762 
L 205.414472 113.266276 
L 207.299792 111.356322 
L 209.124296 152.360492 
L 211.009616 90.726609 
L 212.834119 91.3889 
L 214.719439 157.718664 
L 216.604759 105.908084 
L 218.368446 174.123548 
L 220.253766 129.643135 
L 222.078269 138.830656 
L 223.963589 81.394837 
L 225.788092 95.060142 
L 227.673412 152.943765 
L 229.558732 169.27912 
L 231.383236 98.896023 
L 233.268556 158.368529 
L 235.093059 306.410652 
L 236.978379 192.414513 
L 238.863699 119.647031 
L 240.566569 125.983754 
L 242.451889 175.208924 
L 244.276392 166.195745 
L 246.161712 18.72 
L 247.986216 62.062513 
L 249.871536 92.434906 
L 251.756856 105.503882 
L 253.581359 50.263487 
L 255.466679 85.71292 
L 257.291182 95.837883 
L 259.176502 98.326676 
L 261.061822 97.18936 
L 262.764692 104.335553 
L 264.650012 140.470217 
L 266.474515 67.022151 
L 268.359835 81.832111 
L 270.184339 166.644463 
L 272.069659 146.034682 
L 273.954979 117.023616 
L 275.779482 108.452059 
L 277.664802 87.74919 
L 279.489305 77.930316 
L 281.374625 94.877958 
L 283.259946 84.8601 
L 284.962815 86.874166 
L 286.848135 89.392174 
L 288.672639 124.955008 
L 290.557959 97.044058 
L 292.382462 110.021997 
L 294.267782 147.020053 
L 296.153102 89.88613 
L 297.977605 208.111576 
L 299.862925 122.381598 
L 301.687429 90.658689 
L 303.572749 100.958419 
L 305.458069 102.729198 
L 307.221755 76.34875 
L 309.107075 81.305927 
L 310.931579 91.688125 
L 312.816899 115.966909 
L 314.641402 142.134219 
L 316.526722 125.506277 
L 318.412042 91.498322 
L 320.236545 87.67098 
L 322.121865 90.646736 
L 323.946369 117.563776 
L 325.831689 140.035086 
L 327.717009 97.696445 
L 329.419878 80.594512 
L 331.305198 96.357042 
L 333.129702 93.143051 
L 335.015022 103.606528 
L 336.839525 78.06304 
L 338.724845 125.213024 
L 340.610165 88.773233 
L 342.434668 113.630667 
L 346.144492 98.122363 
L 348.029812 83.841613 
L 349.915132 103.006573 
L 351.618002 107.616792 
L 353.503322 116.847204 
L 355.327825 93.132543 
L 357.213145 114.067193 
L 359.037648 102.970259 
L 360.922968 89.263755 
L 362.808288 103.25371 
L 364.632792 119.381154 
L 366.518112 100.945128 
L 368.342615 138.408484 
L 370.227935 69.057499 
L 372.113255 110.456936 
L 373.816125 125.205526 
L 375.701445 92.327668 
L 377.525948 115.355172 
L 379.411268 108.474044 
L 381.235771 107.643898 
L 383.121091 119.543219 
L 385.006411 116.562057 
L 386.830915 136.59661 
L 388.716235 154.825204 
L 390.540738 80.380901 
L 392.426058 91.603991 
L 394.311378 125.301935 
L 396.075065 171.898037 
L 397.960385 120.717859 
L 399.784888 64.056616 
L 403.494711 118.53677 
L 405.380031 107.043686 
L 407.265351 88.631489 
L 409.089855 105.904138 
L 410.975175 119.661319 
L 412.799678 120.254136 
L 414.684998 105.935121 
L 416.570318 83.365823 
L 418.273188 103.923507 
L 420.158508 94.506573 
L 421.983011 101.314694 
L 423.868331 117.227219 
L 425.692835 101.799658 
L 427.578155 101.098353 
L 431.287978 113.857566 
L 433.173298 102.135761 
L 434.997801 93.208472 
L 436.883121 102.640142 
L 438.768441 91.964554 
L 440.471311 75.878689 
L 442.356631 140.539596 
L 444.181134 115.359537 
L 446.066454 130.06398 
L 447.890958 99.581641 
L 449.776278 98.323565 
L 451.661598 102.720096 
L 453.486101 95.530048 
L 455.371421 101.88834 
L 457.195924 149.003329 
L 459.081244 133.669691 
L 460.966565 164.258494 
L 462.669434 101.600108 
L 464.554754 68.322833 
L 466.379258 99.762523 
L 468.264578 85.197455 
L 470.089081 128.996309 
L 471.974401 104.262198 
L 473.859721 84.35319 
L 475.684224 142.823321 
L 477.569544 90.417241 
L 479.394048 115.929443 
L 481.279368 79.448904 
L 483.164688 95.416312 
L 484.928374 88.213971 
L 486.813694 114.910559 
L 488.638198 292.449771 
L 490.523518 80.301891 
L 492.348021 67.649828 
L 494.233341 62.632231 
L 496.118661 86.900774 
L 497.943164 67.381382 
L 499.828484 120.885496 
L 501.652988 101.170192 
L 503.538308 82.886968 
L 505.423628 80.364314 
L 507.126497 92.246781 
L 509.011817 94.715268 
L 510.836321 108.541443 
L 512.721641 66.140552 
L 514.546144 108.984897 
L 516.431464 100.249928 
L 518.316784 89.89361 
L 520.141287 97.131176 
L 522.026607 116.053971 
L 523.851111 111.557115 
L 525.736431 76.298955 
L 527.621751 113.098461 
L 529.324621 132.809094 
L 531.209941 140.186984 
L 533.034444 122.96536 
L 534.919764 114.439596 
L 536.744267 184.508493 
L 538.629587 144.386878 
L 540.514907 111.651941 
L 542.339411 62.891621 
L 544.224731 179.138582 
L 546.049234 142.016101 
L 547.934554 72.182772 
L 549.819874 115.459538 
L 551.522744 104.046677 
L 553.408064 89.450638 
L 555.232567 137.619341 
L 557.117887 82.554094 
L 558.94239 109.353195 
L 560.82771 74.883331 
L 562.71303 83.442947 
L 564.537534 123.912034 
L 566.422854 123.5586 
L 568.247357 141.493177 
L 570.132677 77.618928 
L 570.132677 77.618928 
" clip-path="url(#pc45f61bf98)" style="fill: none; stroke: #bf00bf; stroke-linecap: square"/>
   </g>
   <g id="patch_3">
    <path d="M 37.496314 336.24 
L 37.496314 3.6 
" style="fill: none; stroke: #000000; stroke-width: 0.5; stroke-linejoin: miter; stroke-linecap: square"/>
   </g>
   <g id="patch_4">
    <path d="M 595.496314 336.24 
L 595.496314 3.6 
" style="fill: none; stroke: #000000; stroke-width: 0.5; stroke-linejoin: miter; stroke-linecap: square"/>
   </g>
   <g id="patch_5">
    <path d="M 37.496314 336.24 
L 595.496314 336.24 
" style="fill: none; stroke: #000000; stroke-width: 0.5; stroke-linejoin: miter; stroke-linecap: square"/>
   </g>
   <g id="patch_6">
    <path d="M 37.496314 3.6 
L 595.496314 3.6 
" style="fill: none; stroke: #000000; stroke-width: 0.5; stroke-linejoin: miter; stroke-linecap: square"/>
   </g>
   <g id="legend_1">
    <g id="line2d_131">
     <path d="M 48.296314 302.190808 
L 60.296314 302.190808 
L 72.296314 302.190808 
" style="fill: none; stroke-dasharray: 3.7,1.6; stroke-dashoffset: 0; stroke: #000000"/>
    </g>
    <g id="text_14">
     <!-- rendimenti SP 500 -->
     <g transform="translate(81.896314 306.390808) scale(0.12 -0.12)">
      <defs>
       <path id="CMR17-72" d="M 960 1517 
C 960 2134 1222 2713 1702 2713 
C 1747 2713 1792 2707 1837 2687 
C 1837 2687 1696 2642 1696 2475 
C 1696 2321 1818 2257 1914 2257 
C 1990 2257 2131 2302 2131 2482 
C 2131 2687 1926 2816 1709 2816 
C 1222 2816 1011 2340 947 2115 
L 941 2115 
L 941 2816 
L 198 2745 
L 198 2578 
C 576 2578 634 2540 634 2231 
L 634 443 
C 634 198 608 166 198 166 
L 198 0 
C 352 12 646 12 813 12 
C 998 12 1325 12 1498 0 
L 1498 166 
C 1037 166 960 166 960 455 
L 960 1517 
z
" transform="scale(0.015625)"/>
       <path id="CMR17-65" d="M 2438 1503 
C 2464 1529 2464 1542 2464 1606 
C 2464 2251 2118 2816 1389 2816 
C 710 2816 173 2175 173 1394 
C 173 554 781 -64 1459 -64 
C 2176 -64 2458 619 2458 755 
C 2458 800 2419 800 2406 800 
C 2362 800 2355 787 2330 709 
C 2189 270 1837 51 1504 51 
C 1229 51 954 206 781 490 
C 582 819 582 1200 582 1503 
L 2438 1503 
z
M 589 1600 
C 634 2511 1126 2713 1382 2713 
C 1818 2713 2112 2308 2118 1600 
L 589 1600 
z
" transform="scale(0.015625)"/>
       <path id="CMR17-6e" d="M 2656 1954 
C 2656 2282 2592 2816 1837 2816 
C 1331 2816 1069 2424 973 2166 
L 966 2166 
L 966 2816 
L 211 2745 
L 211 2578 
C 589 2578 646 2540 646 2231 
L 646 443 
C 646 198 621 166 211 166 
L 211 0 
C 365 12 646 12 813 12 
C 979 12 1267 12 1421 0 
L 1421 166 
C 1011 166 986 192 986 443 
L 986 1678 
C 986 2269 1344 2713 1792 2713 
C 2266 2713 2317 2289 2317 1980 
L 2317 443 
C 2317 198 2291 166 1882 166 
L 1882 0 
C 2035 12 2317 12 2483 12 
C 2650 12 2938 12 3091 0 
L 3091 166 
C 2682 166 2656 192 2656 443 
L 2656 1954 
z
" transform="scale(0.015625)"/>
       <path id="CMR17-64" d="M 1869 4345 
L 1869 4179 
C 2246 4179 2304 4141 2304 3843 
L 2304 2371 
C 2278 2403 2016 2816 1498 2816 
C 845 2816 211 2228 211 1376 
C 211 529 806 -64 1434 -64 
C 1978 -64 2259 361 2291 406 
L 2291 -64 
L 3066 -13 
L 3066 154 
C 2688 154 2630 193 2630 503 
L 2630 4416 
L 1869 4345 
z
M 2291 762 
C 2291 568 2176 393 2029 264 
C 1811 70 1594 38 1472 38 
C 1286 38 621 135 621 1369 
C 621 2636 1363 2713 1530 2713 
C 1824 2713 2061 2545 2208 2313 
C 2291 2177 2291 2157 2291 2041 
L 2291 762 
z
" transform="scale(0.015625)"/>
       <path id="CMR17-69" d="M 992 3961 
C 992 4102 877 4224 730 4224 
C 589 4224 467 4108 467 3961 
C 467 3820 582 3699 730 3699 
C 870 3699 992 3814 992 3961 
z
M 243 2745 
L 243 2579 
C 602 2579 653 2540 653 2231 
L 653 443 
C 653 198 627 166 218 166 
L 218 0 
C 371 12 646 12 806 12 
C 960 12 1222 12 1370 0 
L 1370 166 
C 992 166 979 205 979 436 
L 979 2816 
L 243 2745 
z
" transform="scale(0.015625)"/>
       <path id="CMR17-6d" d="M 4326 1954 
C 4326 2276 4269 2816 3507 2816 
C 3072 2816 2771 2520 2656 2173 
L 2650 2173 
C 2573 2700 2195 2816 1837 2816 
C 1331 2816 1069 2424 973 2166 
L 966 2166 
L 966 2816 
L 211 2745 
L 211 2578 
C 589 2578 646 2540 646 2231 
L 646 443 
C 646 198 621 166 211 166 
L 211 0 
C 365 12 646 12 813 12 
C 979 12 1267 12 1421 0 
L 1421 166 
C 1011 166 986 192 986 443 
L 986 1678 
C 986 2269 1344 2713 1792 2713 
C 2266 2713 2317 2289 2317 1980 
L 2317 443 
C 2317 198 2291 166 1882 166 
L 1882 0 
C 2035 12 2317 12 2483 12 
C 2650 12 2938 12 3091 0 
L 3091 166 
C 2682 166 2656 192 2656 443 
L 2656 1678 
C 2656 2269 3014 2713 3462 2713 
C 3936 2713 3987 2289 3987 1980 
L 3987 443 
C 3987 198 3962 166 3552 166 
L 3552 0 
C 3706 12 3987 12 4154 12 
C 4320 12 4608 12 4762 0 
L 4762 166 
C 4352 166 4326 192 4326 443 
L 4326 1954 
z
" transform="scale(0.015625)"/>
       <path id="CMR17-74" d="M 966 2585 
L 1862 2585 
L 1862 2752 
L 966 2752 
L 966 3968 
L 851 3968 
C 838 3292 614 2700 70 2687 
L 70 2585 
L 627 2585 
L 627 778 
C 627 655 627 -64 1370 -64 
C 1747 -64 1965 308 1965 784 
L 1965 1151 
L 1850 1151 
L 1850 790 
C 1850 347 1677 51 1408 51 
C 1222 51 966 179 966 765 
L 966 2585 
z
" transform="scale(0.015625)"/>
       <path id="CMR17-53" d="M 2803 4351 
C 2803 4467 2797 4473 2758 4473 
C 2720 4473 2707 4447 2682 4390 
L 2490 3965 
C 2246 4320 1875 4480 1472 4480 
C 819 4480 294 3958 294 3301 
C 294 3101 339 2817 557 2546 
C 794 2250 1018 2198 1530 2063 
C 1722 2011 2042 1927 2106 1901 
C 2470 1747 2662 1360 2662 999 
C 2662 534 2336 38 1779 38 
C 1094 38 454 425 410 1328 
C 403 1431 397 1437 352 1437 
C 301 1437 294 1431 294 1302 
L 294 0 
C 294 -116 301 -122 339 -122 
C 384 -122 397 -90 486 109 
C 493 128 493 141 614 386 
C 934 -39 1472 -128 1779 -128 
C 2477 -128 2970 457 2970 1141 
C 2970 1476 2848 1734 2778 1850 
C 2509 2263 2221 2340 1914 2417 
C 1869 2437 1856 2437 1498 2527 
C 1152 2617 1005 2662 845 2836 
C 666 3036 602 3243 602 3449 
C 602 3868 934 4326 1478 4326 
C 2157 4326 2579 3842 2675 3036 
C 2694 2920 2701 2914 2746 2914 
C 2803 2914 2803 2933 2803 3043 
L 2803 4351 
z
" transform="scale(0.015625)"/>
       <path id="CMR17-50" d="M 1267 2048 
L 2291 2048 
C 3117 2048 3718 2583 3718 3187 
C 3718 3791 3130 4352 2291 4352 
L 333 4352 
L 333 4185 
C 774 4185 845 4185 845 3899 
L 845 453 
C 845 166 774 166 333 166 
L 333 0 
C 518 12 858 12 1056 12 
C 1254 12 1594 12 1779 0 
L 1779 166 
C 1338 166 1267 166 1267 453 
L 1267 2048 
z
M 1254 2182 
L 1254 3937 
C 1254 4153 1267 4185 1523 4185 
L 2170 4185 
C 2995 4185 3232 3715 3232 3187 
C 3232 2608 2950 2182 2170 2182 
L 1254 2182 
z
" transform="scale(0.015625)"/>
      </defs>
      <use xlink:href="#CMR17-72" transform="scale(0.996264)"/>
      <use xlink:href="#CMR17-65" transform="translate(35.280768 0) scale(0.996264)"/>
      <use xlink:href="#CMR17-6e" transform="translate(75.766428 0) scale(0.996264)"/>
      <use xlink:href="#CMR17-64" transform="translate(126.661798 0) scale(0.996264)"/>
      <use xlink:href="#CMR17-69" transform="translate(177.557168 0) scale(0.996264)"/>
      <use xlink:href="#CMR17-6d" transform="translate(202.428226 0) scale(0.996264)"/>
      <use xlink:href="#CMR17-65" transform="translate(279.347816 0) scale(0.996264)"/>
      <use xlink:href="#CMR17-6e" transform="translate(319.833477 0) scale(0.996264)"/>
      <use xlink:href="#CMR17-74" transform="translate(368.126392 0) scale(0.996264)"/>
      <use xlink:href="#CMR17-69" transform="translate(403.40716 0) scale(0.996264)"/>
      <use xlink:href="#CMR17-53" transform="translate(458.354185 0) scale(0.996264)"/>
      <use xlink:href="#CMR17-50" transform="translate(509.249555 0) scale(0.996264)"/>
      <use xlink:href="#CMR17-35" transform="translate(601.911822 0) scale(0.996264)"/>
      <use xlink:href="#CMR17-30" transform="translate(647.602299 0) scale(0.996264)"/>
      <use xlink:href="#CMR17-30" transform="translate(693.292776 0) scale(0.996264)"/>
     </g>
    </g>
    <g id="line2d_132">
     <path d="M 48.296314 318.915404 
L 60.296314 318.915404 
L 72.296314 318.915404 
" style="fill: none; stroke: #bf00bf; stroke-linecap: square"/>
    </g>
    <g id="text_15">
     <!-- Random Walk -->
     <g transform="translate(81.896314 323.115404) scale(0.12 -0.12)">
      <defs>
       <path id="CMR17-52" d="M 2509 2156 
C 3117 2278 3629 2689 3629 3203 
C 3629 3806 2950 4352 2054 4352 
L 333 4352 
L 333 4185 
C 774 4185 845 4185 845 3896 
L 845 428 
C 845 140 774 140 333 140 
L 333 -26 
C 518 -13 851 -13 1050 -13 
C 1248 -13 1581 -13 1766 -26 
L 1766 140 
C 1325 140 1254 140 1254 428 
L 1254 2112 
L 2003 2112 
C 2368 2112 2573 1964 2662 1881 
C 2918 1632 2918 1459 2918 1024 
C 2918 595 2918 377 3110 160 
C 3354 -103 3680 -128 3821 -128 
C 4294 -128 4365 403 4365 512 
C 4365 550 4365 595 4307 595 
C 4256 595 4250 556 4250 531 
C 4218 115 4032 -26 3834 -26 
C 3482 -26 3443 377 3405 768 
C 3386 902 3373 998 3360 1139 
C 3322 1459 3270 1926 2509 2156 
z
M 1984 2214 
L 1254 2214 
L 1254 3935 
C 1254 4153 1267 4185 1523 4185 
L 1990 4185 
C 2522 4185 3142 3999 3142 3203 
C 3142 2374 2464 2214 1984 2214 
z
" transform="scale(0.015625)"/>
       <path id="CMR17-61" d="M 2304 1656 
C 2304 2048 2304 2275 2035 2534 
C 1798 2751 1523 2816 1306 2816 
C 800 2816 435 2408 435 1977 
C 435 1740 627 1728 666 1728 
C 749 1728 896 1779 896 1958 
C 896 2118 774 2188 666 2188 
C 640 2188 608 2182 589 2176 
C 723 2594 1069 2713 1293 2713 
C 1613 2713 1965 2421 1965 1875 
L 1965 1632 
C 1587 1619 1133 1568 774 1373 
C 371 1147 256 822 256 576 
C 256 77 832 -64 1171 -64 
C 1523 -64 1850 135 1990 505 
C 2003 219 2182 -39 2464 -39 
C 2598 -39 2938 51 2938 563 
L 2938 926 
L 2822 926 
L 2822 557 
C 2822 161 2650 109 2566 109 
C 2304 109 2304 446 2304 732 
L 2304 1656 
z
M 1965 887 
C 1965 323 1568 38 1216 38 
C 896 38 646 278 646 576 
C 646 771 730 1114 1101 1322 
C 1408 1497 1760 1523 1965 1536 
L 1965 887 
z
" transform="scale(0.015625)"/>
       <path id="CMR17-6f" d="M 2758 1356 
C 2758 2176 2163 2816 1466 2816 
C 768 2816 173 2176 173 1356 
C 173 550 768 -64 1466 -64 
C 2163 -64 2758 550 2758 1356 
z
M 1466 51 
C 1165 51 909 230 762 480 
C 602 768 582 1126 582 1408 
C 582 1676 595 2009 762 2297 
C 890 2508 1139 2713 1466 2713 
C 1754 2713 1997 2553 2150 2329 
C 2349 2028 2349 1606 2349 1408 
C 2349 1158 2336 774 2163 467 
C 1984 172 1709 51 1466 51 
z
" transform="scale(0.015625)"/>
       <path id="CMR17-57" d="M 5523 3775 
C 5581 3948 5677 4173 6048 4185 
L 6048 4352 
C 5939 4345 5715 4339 5600 4339 
C 5440 4339 5158 4339 5005 4352 
L 5005 4185 
C 5293 4179 5414 4019 5414 3865 
C 5414 3820 5408 3794 5382 3724 
L 4390 557 
L 3347 3890 
C 3328 3955 3322 3980 3322 4006 
C 3322 4185 3603 4185 3725 4185 
L 3725 4352 
C 3539 4339 3219 4339 3021 4339 
C 2861 4339 2573 4339 2426 4352 
L 2426 4185 
C 2720 4185 2797 4166 2861 4051 
C 2886 3993 2989 3660 2989 3640 
C 2989 3615 2976 3576 2970 3557 
L 2029 564 
L 986 3890 
C 954 3980 954 3993 954 4006 
C 954 4185 1235 4185 1363 4185 
L 1363 4352 
C 1178 4339 858 4339 659 4339 
C 493 4339 211 4339 58 4352 
L 58 4185 
C 442 4185 467 4147 531 3942 
L 1779 -20 
C 1811 -116 1811 -128 1869 -128 
C 1920 -128 1939 -116 1965 -26 
L 3053 3448 
L 4141 -26 
C 4166 -116 4186 -128 4237 -128 
C 4294 -128 4294 -116 4326 -20 
L 5523 3775 
z
" transform="scale(0.015625)"/>
       <path id="CMR17-6c" d="M 979 4416 
L 218 4345 
L 218 4179 
C 595 4179 653 4141 653 3835 
L 653 439 
C 653 198 627 166 218 166 
L 218 0 
C 371 12 653 12 813 12 
C 979 12 1261 12 1414 0 
L 1414 166 
C 1005 166 979 191 979 439 
L 979 4416 
z
" transform="scale(0.015625)"/>
       <path id="CMR17-6b" d="M 1670 1679 
C 1664 1692 1632 1730 1632 1749 
C 1632 1762 2086 2175 2144 2226 
C 2509 2532 2739 2563 2906 2570 
L 2906 2735 
C 2867 2735 2854 2735 2848 2729 
L 2534 2722 
C 2355 2722 2080 2722 1907 2735 
L 1907 2570 
C 1997 2563 2061 2513 2061 2423 
C 2061 2296 1933 2175 1926 2175 
L 960 1298 
L 960 4416 
L 198 4345 
L 198 4179 
C 576 4179 634 4141 634 3835 
L 634 439 
C 634 198 608 166 198 166 
L 198 0 
C 352 12 634 12 794 12 
C 954 12 1235 12 1389 0 
L 1389 166 
C 979 166 954 191 954 439 
L 954 1139 
L 1395 1540 
L 2042 586 
C 2118 471 2182 382 2182 299 
C 2182 185 2067 166 1990 166 
L 1990 0 
C 2144 12 2419 12 2579 12 
C 2694 12 2931 6 3040 0 
L 3040 166 
C 2739 166 2669 223 2477 503 
L 1670 1679 
z
" transform="scale(0.015625)"/>
      </defs>
      <use xlink:href="#CMR17-52" transform="scale(0.996264)"/>
      <use xlink:href="#CMR17-61" transform="translate(67.791102 0) scale(0.996264)"/>
      <use xlink:href="#CMR17-6e" transform="translate(113.481579 0) scale(0.996264)"/>
      <use xlink:href="#CMR17-64" transform="translate(164.376949 0) scale(0.996264)"/>
      <use xlink:href="#CMR17-6f" transform="translate(215.272319 0) scale(0.996264)"/>
      <use xlink:href="#CMR17-6d" transform="translate(260.962796 0) scale(0.996264)"/>
      <use xlink:href="#CMR17-57" transform="translate(367.958352 0) scale(0.996264)"/>
      <use xlink:href="#CMR17-61" transform="translate(455.247746 0) scale(0.996264)"/>
      <use xlink:href="#CMR17-6c" transform="translate(500.938224 0) scale(0.996264)"/>
      <use xlink:href="#CMR17-6b" transform="translate(525.809282 0) scale(0.996264)"/>
     </g>
    </g>
   </g>
  </g>
 </g>
 <defs>
  <clipPath id="pc45f61bf98">
   <rect x="37.496314" y="3.6" width="558" height="332.64"/>
  </clipPath>
 </defs>
</svg>
