<?xml version="1.0" encoding="utf-8" standalone="no"?>
<!DOCTYPE svg PUBLIC "-//W3C//DTD SVG 1.1//EN"
  "http://www.w3.org/Graphics/SVG/1.1/DTD/svg11.dtd">
<svg xmlns:xlink="http://www.w3.org/1999/xlink" width="599.096314pt" height="359.281364pt" viewBox="0 0 599.096314 359.281364" xmlns="http://www.w3.org/2000/svg" version="1.1">
 <metadata>
  <rdf:RDF xmlns:dc="http://purl.org/dc/elements/1.1/" xmlns:cc="http://creativecommons.org/ns#" xmlns:rdf="http://www.w3.org/1999/02/22-rdf-syntax-ns#">
   <cc:Work>
    <dc:type rdf:resource="http://purl.org/dc/dcmitype/StillImage"/>
    <dc:date>2025-04-07T20:52:11.473181</dc:date>
    <dc:format>image/svg+xml</dc:format>
    <dc:creator>
     <cc:Agent>
      <dc:title>Matplotlib v3.9.2, https://matplotlib.org/</dc:title>
     </cc:Agent>
    </dc:creator>
   </cc:Work>
  </rdf:RDF>
 </metadata>
 <defs>
  <style type="text/css">*{stroke-linejoin: round; stroke-linecap: butt}</style>
 </defs>
 <g id="figure_1">
  <g id="patch_1">
   <path d="M 0 359.281364 
L 599.096314 359.281364 
L 599.096314 0 
L 0 0 
z
" style="fill: #ffffff"/>
  </g>
  <g id="axes_1">
   <g id="patch_2">
    <path d="M 37.496314 336.24 
L 595.496314 336.24 
L 595.496314 3.6 
L 37.496314 3.6 
z
" style="fill: #ffffff"/>
   </g>
   <g id="PolyCollection_1">
    <defs>
     <path id="m7b14e107a5" d="M 62.85995 -305.080527 
L 62.85995 -148.046063 
L 64.74527 -146.987594 
L 66.569773 -142.655184 
L 68.455093 -147.137448 
L 70.279597 -183.22465 
L 72.164917 -152.254426 
L 74.050237 -148.139281 
L 75.87474 -150.345529 
L 77.76006 -76.525495 
L 79.584563 -150.19427 
L 81.469883 -149.857005 
L 83.355203 -147.175611 
L 85.058073 -144.240107 
L 86.943393 -144.673432 
L 88.767896 -147.887247 
L 90.653216 -144.379296 
L 92.47772 -143.728126 
L 94.36304 -147.299598 
L 96.24836 -145.757552 
L 98.072863 -149.762682 
L 99.958183 -148.110641 
L 101.782686 -138.095777 
L 103.668006 -152.250193 
L 105.553327 -140.443333 
L 107.256196 -144.233347 
L 109.141516 -145.522996 
L 110.96602 -149.102517 
L 112.85134 -148.825186 
L 114.675843 -148.378904 
L 116.561163 -151.188045 
L 118.446483 -146.355836 
L 120.270986 -144.27431 
L 122.156306 -147.27586 
L 123.98081 -147.147074 
L 125.86613 -148.908856 
L 127.75145 -150.566069 
L 129.515136 -152.583009 
L 131.400456 -148.800021 
L 133.22496 -148.830445 
L 135.11028 -145.908377 
L 136.934783 -147.20437 
L 138.820103 -149.129482 
L 140.705423 -147.606777 
L 142.529926 -147.896202 
L 144.415246 -152.804324 
L 146.23975 -146.46385 
L 148.12507 -152.555354 
L 150.01039 -148.460486 
L 151.713259 -142.539511 
L 153.598579 -151.138766 
L 155.423083 -141.0157 
L 157.308403 -146.519343 
L 159.132906 -151.350252 
L 161.018226 -152.375551 
L 162.903546 -145.344867 
L 164.728049 -145.371484 
L 166.613369 -148.093257 
L 168.437873 -140.254389 
L 170.323193 -149.807764 
L 172.208513 -150.966228 
L 173.911383 -150.473513 
L 175.796703 -142.755806 
L 177.621206 -146.154245 
L 179.506526 -143.073588 
L 181.331029 -144.230209 
L 183.216349 -141.914601 
L 185.101669 -148.806252 
L 186.926173 -154.543764 
L 188.811493 -153.409592 
L 190.635996 -153.17899 
L 192.521316 -152.897692 
L 194.406636 -152.092303 
L 196.109506 -143.153897 
L 197.994826 -149.792465 
L 199.819329 -146.37963 
L 201.704649 -151.182989 
L 203.529152 -149.951307 
L 205.414472 -141.482281 
L 207.299792 -147.639474 
L 209.124296 -147.799913 
L 211.009616 -150.944826 
L 212.834119 -149.327144 
L 214.719439 -147.283075 
L 216.604759 -148.658222 
L 218.368446 -147.630953 
L 220.253766 -147.566668 
L 222.078269 -150.741415 
L 223.963589 -148.492606 
L 225.788092 -147.933633 
L 227.673412 -143.622657 
L 229.558732 -142.77352 
L 231.383236 -150.157969 
L 233.268556 -148.610447 
L 235.093059 -146.464199 
L 236.978379 -146.418747 
L 238.863699 -146.984637 
L 240.566569 -146.806953 
L 242.451889 -146.577125 
L 244.276392 -145.668219 
L 246.161712 -147.342228 
L 247.986216 -147.458098 
L 249.871536 -147.597804 
L 251.756856 -147.63142 
L 253.581359 -147.69964 
L 255.466679 -147.969518 
L 257.291182 -148.027563 
L 259.176502 -148.209611 
L 261.061822 -148.389065 
L 262.764692 -147.052362 
L 264.650012 -146.336551 
L 266.474515 -153.441294 
L 268.359835 -148.265255 
L 270.184339 -148.037411 
L 272.069659 -146.907607 
L 273.954979 -149.061369 
L 275.779482 -150.446208 
L 277.664802 -148.882977 
L 279.489305 -156.181975 
L 281.374625 -144.45697 
L 283.259946 -146.614666 
L 284.962815 -148.415401 
L 286.848135 -145.671258 
L 288.672639 -148.427397 
L 290.557959 -149.970533 
L 292.382462 -152.92599 
L 294.267782 -146.736222 
L 296.153102 -151.91332 
L 297.977605 -147.205291 
L 299.862925 -147.097802 
L 301.687429 -146.816117 
L 303.572749 -150.019898 
L 305.458069 -150.066656 
L 307.221755 -155.106917 
L 309.107075 -152.452659 
L 310.931579 -143.781762 
L 312.816899 -148.751809 
L 314.641402 -151.489071 
L 316.526722 -149.724066 
L 318.412042 -152.985577 
L 320.236545 -146.485075 
L 322.121865 -147.776161 
L 323.946369 -141.803986 
L 325.831689 -147.291224 
L 327.717009 -148.975766 
L 329.419878 -146.322214 
L 331.305198 -148.20733 
L 333.129702 -150.736123 
L 335.015022 -154.709141 
L 336.839525 -150.01003 
L 338.724845 -149.070021 
L 340.610165 -151.348109 
L 342.434668 -148.788013 
L 344.319988 -145.996732 
L 346.144492 -154.843399 
L 348.029812 -151.044577 
L 349.915132 -144.735271 
L 351.618002 -148.463913 
L 353.503322 -152.881681 
L 355.327825 -153.278548 
L 357.213145 -146.66489 
L 359.037648 -155.593586 
L 360.922968 -152.765712 
L 362.808288 -151.707114 
L 364.632792 -152.904575 
L 366.518112 -148.65796 
L 368.342615 -150.999224 
L 370.227935 -153.032865 
L 372.113255 -152.43224 
L 373.816125 -152.611301 
L 375.701445 -149.490839 
L 377.525948 -142.384397 
L 379.411268 -151.569911 
L 381.235771 -146.701358 
L 383.121091 -149.956985 
L 385.006411 -145.75842 
L 386.830915 -151.417563 
L 388.716235 -145.350618 
L 390.540738 -154.674558 
L 392.426058 -147.052631 
L 394.311378 -144.599877 
L 396.075065 -147.837759 
L 397.960385 -151.927305 
L 399.784888 -148.856183 
L 401.670208 -152.230306 
L 403.494711 -147.810948 
L 405.380031 -156.195274 
L 407.265351 -156.037637 
L 409.089855 -148.592347 
L 410.975175 -142.56031 
L 412.799678 -143.287035 
L 414.684998 -149.367085 
L 416.570318 -149.843613 
L 418.273188 -149.183778 
L 420.158508 -153.956856 
L 421.983011 -148.444107 
L 423.868331 -154.211284 
L 425.692835 -151.94107 
L 427.578155 -156.525004 
L 429.463475 -146.473899 
L 431.287978 -150.51106 
L 433.173298 -152.904125 
L 434.997801 -146.541859 
L 436.883121 -149.078363 
L 438.768441 -151.027084 
L 440.471311 -149.942402 
L 442.356631 -146.104609 
L 444.181134 -149.416448 
L 446.066454 -144.271526 
L 447.890958 -148.797445 
L 449.776278 -152.581506 
L 451.661598 -151.778254 
L 453.486101 -152.82917 
L 455.371421 -147.041174 
L 457.195924 -140.068933 
L 459.081244 -145.676936 
L 460.966565 -149.948701 
L 462.669434 -152.315336 
L 464.554754 -158.4018 
L 466.379258 -154.15942 
L 468.264578 -156.388 
L 470.089081 -151.038702 
L 471.974401 -154.572205 
L 473.859721 -150.438202 
L 475.684224 -149.353275 
L 477.569544 -149.44114 
L 479.394048 -145.614297 
L 481.279368 -150.114001 
L 483.164688 -148.566366 
L 484.928374 -153.333892 
L 486.813694 -151.891174 
L 488.638198 -149.078343 
L 490.523518 -149.298057 
L 492.348021 -149.620627 
L 494.233341 -147.755436 
L 496.118661 -150.365427 
L 497.943164 -150.043759 
L 499.828484 -142.055222 
L 501.652988 -148.121675 
L 503.538308 -151.201965 
L 505.423628 -150.37649 
L 507.126497 -150.215919 
L 509.011817 -150.795632 
L 510.836321 -150.581688 
L 512.721641 -150.825667 
L 514.546144 -151.455007 
L 516.431464 -154.749602 
L 518.316784 -153.55675 
L 520.141287 -151.134414 
L 522.026607 -144.490944 
L 523.851111 -150.832704 
L 525.736431 -152.775641 
L 527.621751 -154.381772 
L 529.324621 -148.682742 
L 531.209941 -151.5139 
L 533.034444 -148.815473 
L 534.919764 -151.662881 
L 536.744267 -149.928022 
L 538.629587 -145.108235 
L 540.514907 -150.85709 
L 542.339411 -154.640496 
L 544.224731 -148.441712 
L 546.049234 -149.341198 
L 547.934554 -150.09229 
L 549.819874 -152.149417 
L 551.522744 -151.834644 
L 553.408064 -147.221436 
L 555.232567 -145.650838 
L 557.117887 -158.318438 
L 558.94239 -146.216108 
L 560.82771 -150.891213 
L 562.71303 -149.812477 
L 564.537534 -142.025464 
L 566.422854 -144.29148 
L 568.247357 -142.972756 
L 570.132677 -152.775283 
L 570.132677 -306.99835 
L 570.132677 -306.99835 
L 568.247357 -297.182908 
L 566.422854 -298.522262 
L 564.537534 -296.308482 
L 562.71303 -304.13755 
L 560.82771 -305.250441 
L 558.94239 -300.5641 
L 557.117887 -312.704618 
L 555.232567 -300.047536 
L 553.408064 -301.636794 
L 551.522744 -306.285909 
L 549.819874 -306.652812 
L 547.934554 -304.651957 
L 546.049234 -303.891275 
L 544.224731 -303.010178 
L 542.339411 -309.017836 
L 540.514907 -305.19458 
L 538.629587 -299.498111 
L 536.744267 -304.326082 
L 534.919764 -305.867146 
L 533.034444 -303.073586 
L 531.209941 -305.813665 
L 529.324621 -303.003277 
L 527.621751 -308.715006 
L 525.736431 -307.159887 
L 523.851111 -305.227252 
L 522.026607 -298.937867 
L 520.141287 -305.629502 
L 518.316784 -308.106577 
L 516.431464 -309.35233 
L 514.546144 -306.110118 
L 512.721641 -305.534511 
L 510.836321 -305.265253 
L 509.011817 -305.532555 
L 507.126497 -304.994596 
L 505.423628 -305.199494 
L 503.538308 -306.050115 
L 501.652988 -302.986927 
L 499.828484 -296.964752 
L 497.943164 -305.001283 
L 496.118661 -305.303343 
L 494.233341 -302.716837 
L 492.348021 -304.537137 
L 490.523518 -304.191146 
L 488.638198 -303.982126 
L 486.813694 -305.369937 
L 484.928374 -306.860046 
L 483.164688 -302.124707 
L 481.279368 -303.72737 
L 479.394048 -299.223955 
L 477.569544 -303.098618 
L 475.684224 -303.042499 
L 473.859721 -304.141621 
L 471.974401 -308.311459 
L 470.089081 -304.83093 
L 468.264578 -310.198833 
L 466.379258 -308.006867 
L 464.554754 -312.303163 
L 462.669434 -306.200515 
L 460.966565 -303.883046 
L 459.081244 -299.557919 
L 457.195924 -294.001284 
L 455.371421 -300.968801 
L 453.486101 -306.809952 
L 451.661598 -305.813398 
L 449.776278 -306.670312 
L 447.890958 -302.934108 
L 446.066454 -298.450581 
L 444.181134 -303.631032 
L 442.356631 -300.37361 
L 440.471311 -304.090245 
L 438.768441 -305.183492 
L 436.883121 -303.274567 
L 434.997801 -300.79303 
L 433.173298 -307.206109 
L 431.287978 -304.870436 
L 429.463475 -300.87962 
L 427.578155 -310.982382 
L 425.692835 -306.454206 
L 423.868331 -308.77872 
L 421.983011 -303.057259 
L 420.158508 -308.632398 
L 418.273188 -304.026212 
L 416.570318 -304.741233 
L 414.684998 -304.289446 
L 412.799678 -298.261221 
L 410.975175 -297.465856 
L 409.089855 -303.549932 
L 407.265351 -311.044524 
L 405.380031 -311.248677 
L 403.494711 -302.921686 
L 401.670208 -307.392633 
L 399.784888 -304.059622 
L 397.960385 -307.104809 
L 396.075065 -303.065481 
L 394.311378 -299.746325 
L 392.426058 -302.248044 
L 390.540738 -309.938206 
L 388.716235 -300.61037 
L 386.830915 -306.628748 
L 385.006411 -301.043207 
L 383.121091 -305.296225 
L 381.235771 -302.066029 
L 379.411268 -306.987431 
L 377.525948 -297.853117 
L 375.701445 -305.029639 
L 373.816125 -308.189921 
L 372.113255 -308.065341 
L 370.227935 -308.723401 
L 368.342615 -306.668993 
L 366.518112 -304.34393 
L 364.632792 -308.648402 
L 362.808288 -307.502248 
L 360.922968 -308.617297 
L 359.037648 -311.495706 
L 357.213145 -302.619382 
L 355.327825 -309.278993 
L 353.503322 -308.934652 
L 351.618002 -304.569738 
L 349.915132 -300.89613 
L 348.029812 -307.269171 
L 346.144492 -311.109165 
L 344.319988 -302.313492 
L 342.434668 -305.16091 
L 340.610165 -307.782862 
L 338.724845 -305.5372 
L 336.839525 -306.527416 
L 335.015022 -311.259084 
L 333.129702 -307.342972 
L 331.305198 -304.857356 
L 329.419878 -303.014723 
L 327.717009 -305.688557 
L 325.831689 -304.05356 
L 323.946369 -298.600921 
L 322.121865 -304.726358 
L 320.236545 -303.477657 
L 318.412042 -309.918019 
L 316.526722 -306.701568 
L 314.641402 -308.50956 
L 312.816899 -305.787379 
L 310.931579 -300.973553 
L 309.107075 -309.700167 
L 307.221755 -312.406326 
L 305.458069 -307.378201 
L 303.572749 -307.389045 
L 301.687429 -304.235616 
L 299.862925 -304.557118 
L 297.977605 -304.722078 
L 296.153102 -309.00357 
L 294.267782 -303.857556 
L 292.382462 -310.025701 
L 290.557959 -307.126328 
L 288.672639 -305.640883 
L 286.848135 -302.934664 
L 284.962815 -305.720066 
L 283.259946 -303.945151 
L 281.374625 -301.807204 
L 279.489305 -313.589774 
L 277.664802 -306.305299 
L 275.779482 -307.91153 
L 273.954979 -306.586348 
L 272.069659 -304.491766 
L 270.184339 -305.626562 
L 268.359835 -305.764349 
L 266.474515 -310.988436 
L 264.650012 -303.850694 
L 262.764692 -304.595101 
L 261.061822 -305.542158 
L 259.176502 -305.411767 
L 257.291182 -305.283837 
L 255.466679 -305.275931 
L 253.581359 -305.03786 
L 251.756856 -304.861996 
L 249.871536 -304.887802 
L 247.986216 -304.793774 
L 246.161712 -304.629725 
L 244.276392 -303.033171 
L 242.451889 -303.529349 
L 240.566569 -303.646759 
L 238.863699 -303.908491 
L 236.978379 -303.777559 
L 235.093059 -303.35023 
L 233.268556 -303.676973 
L 231.383236 -305.168744 
L 229.558732 -297.79919 
L 227.673412 -298.566872 
L 225.788092 -302.866244 
L 223.963589 -303.467172 
L 222.078269 -305.743792 
L 220.253766 -302.98891 
L 218.368446 -303.098595 
L 216.604759 -303.995669 
L 214.719439 -302.678574 
L 212.834119 -304.674436 
L 211.009616 -306.350705 
L 209.124296 -303.241024 
L 207.299792 -303.063125 
L 205.414472 -296.962589 
L 203.529152 -305.485511 
L 201.704649 -306.76961 
L 199.819329 -301.968702 
L 197.994826 -305.399441 
L 196.109506 -298.81419 
L 194.406636 -307.810259 
L 192.521316 -308.671436 
L 190.635996 -309.011907 
L 188.811493 -309.287335 
L 186.926173 -310.48472 
L 185.101669 -304.800462 
L 183.216349 -297.972248 
L 181.331029 -300.314633 
L 179.506526 -299.216812 
L 177.621206 -302.358377 
L 175.796703 -299.01389 
L 173.911383 -306.786435 
L 172.208513 -307.340145 
L 170.323193 -306.237076 
L 168.437873 -296.62337 
L 166.613369 -304.483095 
L 164.728049 -301.820552 
L 162.903546 -301.918332 
L 161.018226 -309.010276 
L 159.132906 -308.046957 
L 157.308403 -303.277693 
L 155.423083 -297.822241 
L 153.598579 -308.000056 
L 151.713259 -299.452863 
L 150.01039 -305.422466 
L 148.12507 -309.577493 
L 146.23975 -303.489155 
L 144.415246 -309.882488 
L 142.529926 -305.02632 
L 140.705423 -304.781552 
L 138.820103 -306.333564 
L 136.934783 -304.456997 
L 135.11028 -303.198395 
L 133.22496 -306.183629 
L 131.400456 -306.19793 
L 129.515136 -310.044602 
L 127.75145 -308.046865 
L 125.86613 -306.368248 
L 123.98081 -304.668022 
L 122.156306 -304.855246 
L 120.270986 -301.618493 
L 118.446483 -303.79731 
L 116.561163 -308.703416 
L 114.675843 -305.869437 
L 112.85134 -306.294124 
L 110.96602 -306.56284 
L 109.141516 -303.02804 
L 107.256196 -301.63262 
L 105.553327 -297.924409 
L 103.668006 -309.780732 
L 101.782686 -295.496985 
L 99.958183 -305.580534 
L 98.072863 -307.184282 
L 96.24836 -303.215686 
L 94.36304 -304.328051 
L 92.47772 -300.680439 
L 90.653216 -301.358459 
L 88.767896 -304.872436 
L 86.943393 -301.649913 
L 85.058073 -301.235192 
L 83.355203 -304.237943 
L 81.469883 -306.98381 
L 79.584563 -307.331788 
L 77.76006 -234.303783 
L 75.87474 -307.657437 
L 74.050237 -301.928673 
L 72.164917 -306.064146 
L 70.279597 -340.561364 
L 68.455093 -300.909103 
L 66.569773 -296.49188 
L 64.74527 -303.99417 
L 62.85995 -305.080527 
z
" style="stroke: #808080; stroke-opacity: 0.3"/>
    </defs>
    <g clip-path="url(#pe841dd182c)">
     <use xlink:href="#m7b14e107a5" x="0" y="359.281364" style="fill: #808080; fill-opacity: 0.3; stroke: #808080; stroke-opacity: 0.3"/>
    </g>
   </g>
   <g id="matplotlib.axis_1">
    <g id="xtick_1">
     <g id="line2d_1">
      <defs>
       <path id="ma819b19810" d="M 0 0 
L 0 -3 
" style="stroke: #000000; stroke-width: 0.5"/>
      </defs>
      <g>
       <use xlink:href="#ma819b19810" x="125.926946" y="336.24" style="stroke: #000000; stroke-width: 0.5"/>
      </g>
     </g>
     <g id="line2d_2">
      <defs>
       <path id="m5ced9db132" d="M 0 0 
L 0 3 
" style="stroke: #000000; stroke-width: 0.5"/>
      </defs>
      <g>
       <use xlink:href="#m5ced9db132" x="125.926946" y="3.6" style="stroke: #000000; stroke-width: 0.5"/>
      </g>
     </g>
     <g id="text_1">
      <!-- $\mathdefault{2004}$ -->
      <g transform="translate(109.478375 352.1933) scale(0.18 -0.18)">
       <defs>
        <path id="CMR17-32" d="M 2669 990 
L 2554 990 
C 2490 537 2438 460 2413 422 
C 2381 371 1920 371 1830 371 
L 602 371 
C 832 620 1280 1073 1824 1596 
C 2214 1966 2669 2400 2669 3033 
C 2669 3788 2067 4224 1395 4224 
C 691 4224 262 3603 262 3027 
C 262 2777 448 2745 525 2745 
C 589 2745 781 2783 781 3007 
C 781 3206 614 3264 525 3264 
C 486 3264 448 3257 422 3244 
C 544 3788 915 4057 1306 4057 
C 1862 4057 2227 3616 2227 3033 
C 2227 2477 1901 1998 1536 1583 
L 262 147 
L 262 0 
L 2515 0 
L 2669 990 
z
" transform="scale(0.015625)"/>
        <path id="CMR17-30" d="M 2688 2038 
C 2688 2430 2682 3099 2413 3613 
C 2176 4063 1798 4224 1466 4224 
C 1158 4224 768 4082 525 3620 
C 269 3137 243 2539 243 2038 
C 243 1671 250 1112 448 623 
C 723 -39 1216 -128 1466 -128 
C 1760 -128 2208 -7 2470 604 
C 2662 1048 2688 1568 2688 2038 
z
M 1466 -26 
C 1056 -26 813 328 723 816 
C 653 1196 653 1749 653 2109 
C 653 2604 653 3015 736 3407 
C 858 3954 1216 4121 1466 4121 
C 1728 4121 2067 3947 2189 3420 
C 2272 3054 2278 2623 2278 2109 
C 2278 1691 2278 1176 2202 797 
C 2067 96 1690 -26 1466 -26 
z
" transform="scale(0.015625)"/>
        <path id="CMR17-34" d="M 2150 4147 
C 2150 4281 2144 4288 2029 4288 
L 128 1254 
L 128 1088 
L 1779 1088 
L 1779 460 
C 1779 230 1766 166 1318 166 
L 1197 166 
L 1197 0 
C 1402 12 1747 12 1965 12 
C 2182 12 2528 12 2733 0 
L 2733 166 
L 2611 166 
C 2163 166 2150 230 2150 460 
L 2150 1088 
L 2803 1088 
L 2803 1254 
L 2150 1254 
L 2150 4147 
z
M 1798 3723 
L 1798 1254 
L 256 1254 
L 1798 3723 
z
" transform="scale(0.015625)"/>
       </defs>
       <use xlink:href="#CMR17-32" transform="scale(0.996264)"/>
       <use xlink:href="#CMR17-30" transform="translate(45.690477 0) scale(0.996264)"/>
       <use xlink:href="#CMR17-30" transform="translate(91.380954 0) scale(0.996264)"/>
       <use xlink:href="#CMR17-34" transform="translate(137.071431 0) scale(0.996264)"/>
      </g>
     </g>
    </g>
    <g id="xtick_2">
     <g id="line2d_3">
      <g>
       <use xlink:href="#ma819b19810" x="214.780256" y="336.24" style="stroke: #000000; stroke-width: 0.5"/>
      </g>
     </g>
     <g id="line2d_4">
      <g>
       <use xlink:href="#m5ced9db132" x="214.780256" y="3.6" style="stroke: #000000; stroke-width: 0.5"/>
      </g>
     </g>
     <g id="text_2">
      <!-- $\mathdefault{2008}$ -->
      <g transform="translate(198.331684 352.1933) scale(0.18 -0.18)">
       <defs>
        <path id="CMR17-38" d="M 1741 2289 
C 2144 2494 2554 2803 2554 3298 
C 2554 3884 1990 4224 1472 4224 
C 890 4224 378 3800 378 3215 
C 378 3054 416 2777 666 2533 
C 730 2469 998 2276 1171 2154 
C 883 2006 211 1652 211 945 
C 211 282 838 -128 1459 -128 
C 2144 -128 2720 366 2720 1022 
C 2720 1607 2330 1877 2074 2051 
L 1741 2289 
z
M 902 2855 
C 851 2887 595 3086 595 3388 
C 595 3781 998 4076 1459 4076 
C 1965 4076 2336 3716 2336 3298 
C 2336 2700 1670 2359 1638 2359 
C 1632 2359 1626 2359 1574 2398 
L 902 2855 
z
M 2080 1536 
C 2176 1466 2483 1253 2483 861 
C 2483 385 2010 25 1472 25 
C 890 25 448 443 448 951 
C 448 1459 838 1884 1280 2083 
L 2080 1536 
z
" transform="scale(0.015625)"/>
       </defs>
       <use xlink:href="#CMR17-32" transform="scale(0.996264)"/>
       <use xlink:href="#CMR17-30" transform="translate(45.690477 0) scale(0.996264)"/>
       <use xlink:href="#CMR17-30" transform="translate(91.380954 0) scale(0.996264)"/>
       <use xlink:href="#CMR17-38" transform="translate(137.071431 0) scale(0.996264)"/>
      </g>
     </g>
    </g>
    <g id="xtick_3">
     <g id="line2d_5">
      <g>
       <use xlink:href="#ma819b19810" x="303.633565" y="336.24" style="stroke: #000000; stroke-width: 0.5"/>
      </g>
     </g>
     <g id="line2d_6">
      <g>
       <use xlink:href="#m5ced9db132" x="303.633565" y="3.6" style="stroke: #000000; stroke-width: 0.5"/>
      </g>
     </g>
     <g id="text_3">
      <!-- $\mathdefault{2012}$ -->
      <g transform="translate(287.184994 352.1933) scale(0.18 -0.18)">
       <defs>
        <path id="CMR17-31" d="M 1702 4083 
C 1702 4217 1696 4224 1606 4224 
C 1357 3927 979 3833 621 3820 
C 602 3820 570 3820 563 3808 
C 557 3795 557 3782 557 3648 
C 755 3648 1088 3686 1344 3839 
L 1344 467 
C 1344 243 1331 166 781 166 
L 589 166 
L 589 0 
C 896 6 1216 12 1523 12 
C 1830 12 2150 6 2458 0 
L 2458 166 
L 2266 166 
C 1715 166 1702 236 1702 467 
L 1702 4083 
z
" transform="scale(0.015625)"/>
       </defs>
       <use xlink:href="#CMR17-32" transform="scale(0.996264)"/>
       <use xlink:href="#CMR17-30" transform="translate(45.690477 0) scale(0.996264)"/>
       <use xlink:href="#CMR17-31" transform="translate(91.380954 0) scale(0.996264)"/>
       <use xlink:href="#CMR17-32" transform="translate(137.071431 0) scale(0.996264)"/>
      </g>
     </g>
    </g>
    <g id="xtick_4">
     <g id="line2d_7">
      <g>
       <use xlink:href="#ma819b19810" x="392.486875" y="336.24" style="stroke: #000000; stroke-width: 0.5"/>
      </g>
     </g>
     <g id="line2d_8">
      <g>
       <use xlink:href="#m5ced9db132" x="392.486875" y="3.6" style="stroke: #000000; stroke-width: 0.5"/>
      </g>
     </g>
     <g id="text_4">
      <!-- $\mathdefault{2016}$ -->
      <g transform="translate(376.038303 352.1933) scale(0.18 -0.18)">
       <defs>
        <path id="CMR17-36" d="M 678 2198 
C 678 3712 1395 4076 1811 4076 
C 1946 4076 2272 4049 2400 3782 
C 2298 3782 2106 3782 2106 3558 
C 2106 3385 2246 3328 2336 3328 
C 2394 3328 2566 3353 2566 3571 
C 2566 3987 2246 4224 1805 4224 
C 1043 4224 243 3411 243 2011 
C 243 257 966 -128 1478 -128 
C 2099 -128 2688 431 2688 1295 
C 2688 2101 2170 2688 1517 2688 
C 1126 2688 838 2430 678 1979 
L 678 2198 
z
M 1478 25 
C 691 25 691 1212 691 1450 
C 691 1914 909 2585 1504 2585 
C 1613 2585 1926 2585 2138 2140 
C 2253 1889 2253 1624 2253 1302 
C 2253 954 2253 696 2118 438 
C 1978 173 1773 25 1478 25 
z
" transform="scale(0.015625)"/>
       </defs>
       <use xlink:href="#CMR17-32" transform="scale(0.996264)"/>
       <use xlink:href="#CMR17-30" transform="translate(45.690477 0) scale(0.996264)"/>
       <use xlink:href="#CMR17-31" transform="translate(91.380954 0) scale(0.996264)"/>
       <use xlink:href="#CMR17-36" transform="translate(137.071431 0) scale(0.996264)"/>
      </g>
     </g>
    </g>
    <g id="xtick_5">
     <g id="line2d_9">
      <g>
       <use xlink:href="#ma819b19810" x="481.340184" y="336.24" style="stroke: #000000; stroke-width: 0.5"/>
      </g>
     </g>
     <g id="line2d_10">
      <g>
       <use xlink:href="#m5ced9db132" x="481.340184" y="3.6" style="stroke: #000000; stroke-width: 0.5"/>
      </g>
     </g>
     <g id="text_5">
      <!-- $\mathdefault{2020}$ -->
      <g transform="translate(464.891613 352.1933) scale(0.18 -0.18)">
       <use xlink:href="#CMR17-32" transform="scale(0.996264)"/>
       <use xlink:href="#CMR17-30" transform="translate(45.690477 0) scale(0.996264)"/>
       <use xlink:href="#CMR17-32" transform="translate(91.380954 0) scale(0.996264)"/>
       <use xlink:href="#CMR17-30" transform="translate(137.071431 0) scale(0.996264)"/>
      </g>
     </g>
    </g>
    <g id="xtick_6">
     <g id="line2d_11">
      <g>
       <use xlink:href="#ma819b19810" x="570.193494" y="336.24" style="stroke: #000000; stroke-width: 0.5"/>
      </g>
     </g>
     <g id="line2d_12">
      <g>
       <use xlink:href="#m5ced9db132" x="570.193494" y="3.6" style="stroke: #000000; stroke-width: 0.5"/>
      </g>
     </g>
     <g id="text_6">
      <!-- $\mathdefault{2024}$ -->
      <g transform="translate(553.744922 352.1933) scale(0.18 -0.18)">
       <use xlink:href="#CMR17-32" transform="scale(0.996264)"/>
       <use xlink:href="#CMR17-30" transform="translate(45.690477 0) scale(0.996264)"/>
       <use xlink:href="#CMR17-32" transform="translate(91.380954 0) scale(0.996264)"/>
       <use xlink:href="#CMR17-34" transform="translate(137.071431 0) scale(0.996264)"/>
      </g>
     </g>
    </g>
    <g id="xtick_7">
     <g id="line2d_13">
      <defs>
       <path id="m5fece7217c" d="M 0 0 
L 0 -1.5 
" style="stroke: #000000; stroke-width: 0.5"/>
      </defs>
      <g>
       <use xlink:href="#m5fece7217c" x="59.286964" y="336.24" style="stroke: #000000; stroke-width: 0.5"/>
      </g>
     </g>
     <g id="line2d_14">
      <defs>
       <path id="m4349111cf0" d="M 0 0 
L 0 1.5 
" style="stroke: #000000; stroke-width: 0.5"/>
      </defs>
      <g>
       <use xlink:href="#m4349111cf0" x="59.286964" y="3.6" style="stroke: #000000; stroke-width: 0.5"/>
      </g>
     </g>
    </g>
    <g id="xtick_8">
     <g id="line2d_15">
      <g>
       <use xlink:href="#m5fece7217c" x="81.500292" y="336.24" style="stroke: #000000; stroke-width: 0.5"/>
      </g>
     </g>
     <g id="line2d_16">
      <g>
       <use xlink:href="#m4349111cf0" x="81.500292" y="3.6" style="stroke: #000000; stroke-width: 0.5"/>
      </g>
     </g>
    </g>
    <g id="xtick_9">
     <g id="line2d_17">
      <g>
       <use xlink:href="#m5fece7217c" x="103.713619" y="336.24" style="stroke: #000000; stroke-width: 0.5"/>
      </g>
     </g>
     <g id="line2d_18">
      <g>
       <use xlink:href="#m4349111cf0" x="103.713619" y="3.6" style="stroke: #000000; stroke-width: 0.5"/>
      </g>
     </g>
    </g>
    <g id="xtick_10">
     <g id="line2d_19">
      <g>
       <use xlink:href="#m5fece7217c" x="148.140274" y="336.24" style="stroke: #000000; stroke-width: 0.5"/>
      </g>
     </g>
     <g id="line2d_20">
      <g>
       <use xlink:href="#m4349111cf0" x="148.140274" y="3.6" style="stroke: #000000; stroke-width: 0.5"/>
      </g>
     </g>
    </g>
    <g id="xtick_11">
     <g id="line2d_21">
      <g>
       <use xlink:href="#m5fece7217c" x="170.353601" y="336.24" style="stroke: #000000; stroke-width: 0.5"/>
      </g>
     </g>
     <g id="line2d_22">
      <g>
       <use xlink:href="#m4349111cf0" x="170.353601" y="3.6" style="stroke: #000000; stroke-width: 0.5"/>
      </g>
     </g>
    </g>
    <g id="xtick_12">
     <g id="line2d_23">
      <g>
       <use xlink:href="#m5fece7217c" x="192.566929" y="336.24" style="stroke: #000000; stroke-width: 0.5"/>
      </g>
     </g>
     <g id="line2d_24">
      <g>
       <use xlink:href="#m4349111cf0" x="192.566929" y="3.6" style="stroke: #000000; stroke-width: 0.5"/>
      </g>
     </g>
    </g>
    <g id="xtick_13">
     <g id="line2d_25">
      <g>
       <use xlink:href="#m5fece7217c" x="236.993583" y="336.24" style="stroke: #000000; stroke-width: 0.5"/>
      </g>
     </g>
     <g id="line2d_26">
      <g>
       <use xlink:href="#m4349111cf0" x="236.993583" y="3.6" style="stroke: #000000; stroke-width: 0.5"/>
      </g>
     </g>
    </g>
    <g id="xtick_14">
     <g id="line2d_27">
      <g>
       <use xlink:href="#m5fece7217c" x="259.206911" y="336.24" style="stroke: #000000; stroke-width: 0.5"/>
      </g>
     </g>
     <g id="line2d_28">
      <g>
       <use xlink:href="#m4349111cf0" x="259.206911" y="3.6" style="stroke: #000000; stroke-width: 0.5"/>
      </g>
     </g>
    </g>
    <g id="xtick_15">
     <g id="line2d_29">
      <g>
       <use xlink:href="#m5fece7217c" x="281.420238" y="336.24" style="stroke: #000000; stroke-width: 0.5"/>
      </g>
     </g>
     <g id="line2d_30">
      <g>
       <use xlink:href="#m4349111cf0" x="281.420238" y="3.6" style="stroke: #000000; stroke-width: 0.5"/>
      </g>
     </g>
    </g>
    <g id="xtick_16">
     <g id="line2d_31">
      <g>
       <use xlink:href="#m5fece7217c" x="325.846893" y="336.24" style="stroke: #000000; stroke-width: 0.5"/>
      </g>
     </g>
     <g id="line2d_32">
      <g>
       <use xlink:href="#m4349111cf0" x="325.846893" y="3.6" style="stroke: #000000; stroke-width: 0.5"/>
      </g>
     </g>
    </g>
    <g id="xtick_17">
     <g id="line2d_33">
      <g>
       <use xlink:href="#m5fece7217c" x="348.06022" y="336.24" style="stroke: #000000; stroke-width: 0.5"/>
      </g>
     </g>
     <g id="line2d_34">
      <g>
       <use xlink:href="#m4349111cf0" x="348.06022" y="3.6" style="stroke: #000000; stroke-width: 0.5"/>
      </g>
     </g>
    </g>
    <g id="xtick_18">
     <g id="line2d_35">
      <g>
       <use xlink:href="#m5fece7217c" x="370.273548" y="336.24" style="stroke: #000000; stroke-width: 0.5"/>
      </g>
     </g>
     <g id="line2d_36">
      <g>
       <use xlink:href="#m4349111cf0" x="370.273548" y="3.6" style="stroke: #000000; stroke-width: 0.5"/>
      </g>
     </g>
    </g>
    <g id="xtick_19">
     <g id="line2d_37">
      <g>
       <use xlink:href="#m5fece7217c" x="414.700202" y="336.24" style="stroke: #000000; stroke-width: 0.5"/>
      </g>
     </g>
     <g id="line2d_38">
      <g>
       <use xlink:href="#m4349111cf0" x="414.700202" y="3.6" style="stroke: #000000; stroke-width: 0.5"/>
      </g>
     </g>
    </g>
    <g id="xtick_20">
     <g id="line2d_39">
      <g>
       <use xlink:href="#m5fece7217c" x="436.91353" y="336.24" style="stroke: #000000; stroke-width: 0.5"/>
      </g>
     </g>
     <g id="line2d_40">
      <g>
       <use xlink:href="#m4349111cf0" x="436.91353" y="3.6" style="stroke: #000000; stroke-width: 0.5"/>
      </g>
     </g>
    </g>
    <g id="xtick_21">
     <g id="line2d_41">
      <g>
       <use xlink:href="#m5fece7217c" x="459.126857" y="336.24" style="stroke: #000000; stroke-width: 0.5"/>
      </g>
     </g>
     <g id="line2d_42">
      <g>
       <use xlink:href="#m4349111cf0" x="459.126857" y="3.6" style="stroke: #000000; stroke-width: 0.5"/>
      </g>
     </g>
    </g>
    <g id="xtick_22">
     <g id="line2d_43">
      <g>
       <use xlink:href="#m5fece7217c" x="503.553512" y="336.24" style="stroke: #000000; stroke-width: 0.5"/>
      </g>
     </g>
     <g id="line2d_44">
      <g>
       <use xlink:href="#m4349111cf0" x="503.553512" y="3.6" style="stroke: #000000; stroke-width: 0.5"/>
      </g>
     </g>
    </g>
    <g id="xtick_23">
     <g id="line2d_45">
      <g>
       <use xlink:href="#m5fece7217c" x="525.766839" y="336.24" style="stroke: #000000; stroke-width: 0.5"/>
      </g>
     </g>
     <g id="line2d_46">
      <g>
       <use xlink:href="#m4349111cf0" x="525.766839" y="3.6" style="stroke: #000000; stroke-width: 0.5"/>
      </g>
     </g>
    </g>
    <g id="xtick_24">
     <g id="line2d_47">
      <g>
       <use xlink:href="#m5fece7217c" x="547.980167" y="336.24" style="stroke: #000000; stroke-width: 0.5"/>
      </g>
     </g>
     <g id="line2d_48">
      <g>
       <use xlink:href="#m4349111cf0" x="547.980167" y="3.6" style="stroke: #000000; stroke-width: 0.5"/>
      </g>
     </g>
    </g>
    <g id="xtick_25">
     <g id="line2d_49">
      <g>
       <use xlink:href="#m5fece7217c" x="592.406821" y="336.24" style="stroke: #000000; stroke-width: 0.5"/>
      </g>
     </g>
     <g id="line2d_50">
      <g>
       <use xlink:href="#m4349111cf0" x="592.406821" y="3.6" style="stroke: #000000; stroke-width: 0.5"/>
      </g>
     </g>
    </g>
   </g>
   <g id="matplotlib.axis_2">
    <g id="ytick_1">
     <g id="line2d_51">
      <defs>
       <path id="md72e59b86f" d="M 0 0 
L 3 0 
" style="stroke: #000000; stroke-width: 0.5"/>
      </defs>
      <g>
       <use xlink:href="#md72e59b86f" x="37.496314" y="298.755433" style="stroke: #000000; stroke-width: 0.5"/>
      </g>
     </g>
     <g id="line2d_52">
      <defs>
       <path id="me37b9e1bdd" d="M 0 0 
L -3 0 
" style="stroke: #000000; stroke-width: 0.5"/>
      </defs>
      <g>
       <use xlink:href="#me37b9e1bdd" x="595.496314" y="298.755433" style="stroke: #000000; stroke-width: 0.5"/>
      </g>
     </g>
     <g id="text_7">
      <!-- $\mathdefault{−20}$ -->
      <g transform="translate(3.6 304.982083) scale(0.18 -0.18)">
       <defs>
        <path id="CMSY10-0" d="M 4218 1472 
C 4326 1472 4442 1472 4442 1600 
C 4442 1728 4326 1728 4218 1728 
L 755 1728 
C 646 1728 531 1728 531 1600 
C 531 1472 646 1472 755 1472 
L 4218 1472 
z
" transform="scale(0.015625)"/>
       </defs>
       <use xlink:href="#CMSY10-0" transform="scale(0.996264)"/>
       <use xlink:href="#CMR17-32" transform="translate(77.487468 0) scale(0.996264)"/>
       <use xlink:href="#CMR17-30" transform="translate(123.177945 0) scale(0.996264)"/>
      </g>
     </g>
    </g>
    <g id="ytick_2">
     <g id="line2d_53">
      <g>
       <use xlink:href="#md72e59b86f" x="37.496314" y="258.882526" style="stroke: #000000; stroke-width: 0.5"/>
      </g>
     </g>
     <g id="line2d_54">
      <g>
       <use xlink:href="#me37b9e1bdd" x="595.496314" y="258.882526" style="stroke: #000000; stroke-width: 0.5"/>
      </g>
     </g>
     <g id="text_8">
      <!-- $\mathdefault{−15}$ -->
      <g transform="translate(3.6 265.109176) scale(0.18 -0.18)">
       <defs>
        <path id="CMR17-35" d="M 730 3750 
C 794 3724 1056 3641 1325 3641 
C 1920 3641 2246 3961 2432 4140 
C 2432 4191 2432 4224 2394 4224 
C 2387 4224 2374 4224 2323 4198 
C 2099 4102 1837 4032 1517 4032 
C 1325 4032 1037 4055 723 4191 
C 653 4224 640 4224 634 4224 
C 602 4224 595 4217 595 4090 
L 595 2231 
C 595 2113 595 2080 659 2080 
C 691 2080 704 2093 736 2139 
C 941 2435 1222 2560 1542 2560 
C 1766 2560 2246 2415 2246 1293 
C 2246 1087 2246 716 2054 422 
C 1894 159 1645 25 1370 25 
C 947 25 518 319 403 812 
C 429 806 480 793 506 793 
C 589 793 749 838 749 1036 
C 749 1209 627 1280 506 1280 
C 358 1280 262 1190 262 1011 
C 262 454 704 -128 1382 -128 
C 2042 -128 2669 441 2669 1267 
C 2669 2054 2170 2662 1549 2662 
C 1222 2662 947 2540 730 2304 
L 730 3750 
z
" transform="scale(0.015625)"/>
       </defs>
       <use xlink:href="#CMSY10-0" transform="scale(0.996264)"/>
       <use xlink:href="#CMR17-31" transform="translate(77.487468 0) scale(0.996264)"/>
       <use xlink:href="#CMR17-35" transform="translate(123.177945 0) scale(0.996264)"/>
      </g>
     </g>
    </g>
    <g id="ytick_3">
     <g id="line2d_55">
      <g>
       <use xlink:href="#md72e59b86f" x="37.496314" y="219.009618" style="stroke: #000000; stroke-width: 0.5"/>
      </g>
     </g>
     <g id="line2d_56">
      <g>
       <use xlink:href="#me37b9e1bdd" x="595.496314" y="219.009618" style="stroke: #000000; stroke-width: 0.5"/>
      </g>
     </g>
     <g id="text_9">
      <!-- $\mathdefault{−10}$ -->
      <g transform="translate(3.6 225.236268) scale(0.18 -0.18)">
       <use xlink:href="#CMSY10-0" transform="scale(0.996264)"/>
       <use xlink:href="#CMR17-31" transform="translate(77.487468 0) scale(0.996264)"/>
       <use xlink:href="#CMR17-30" transform="translate(123.177945 0) scale(0.996264)"/>
      </g>
     </g>
    </g>
    <g id="ytick_4">
     <g id="line2d_57">
      <g>
       <use xlink:href="#md72e59b86f" x="37.496314" y="179.13671" style="stroke: #000000; stroke-width: 0.5"/>
      </g>
     </g>
     <g id="line2d_58">
      <g>
       <use xlink:href="#me37b9e1bdd" x="595.496314" y="179.13671" style="stroke: #000000; stroke-width: 0.5"/>
      </g>
     </g>
     <g id="text_10">
      <!-- $\mathdefault{−5}$ -->
      <g transform="translate(11.824286 185.363361) scale(0.18 -0.18)">
       <use xlink:href="#CMSY10-0" transform="scale(0.996264)"/>
       <use xlink:href="#CMR17-35" transform="translate(77.487468 0) scale(0.996264)"/>
      </g>
     </g>
    </g>
    <g id="ytick_5">
     <g id="line2d_59">
      <g>
       <use xlink:href="#md72e59b86f" x="37.496314" y="139.263803" style="stroke: #000000; stroke-width: 0.5"/>
      </g>
     </g>
     <g id="line2d_60">
      <g>
       <use xlink:href="#me37b9e1bdd" x="595.496314" y="139.263803" style="stroke: #000000; stroke-width: 0.5"/>
      </g>
     </g>
     <g id="text_11">
      <!-- $\mathdefault{0}$ -->
      <g transform="translate(25.772028 145.490453) scale(0.18 -0.18)">
       <use xlink:href="#CMR17-30" transform="scale(0.996264)"/>
      </g>
     </g>
    </g>
    <g id="ytick_6">
     <g id="line2d_61">
      <g>
       <use xlink:href="#md72e59b86f" x="37.496314" y="99.390895" style="stroke: #000000; stroke-width: 0.5"/>
      </g>
     </g>
     <g id="line2d_62">
      <g>
       <use xlink:href="#me37b9e1bdd" x="595.496314" y="99.390895" style="stroke: #000000; stroke-width: 0.5"/>
      </g>
     </g>
     <g id="text_12">
      <!-- $\mathdefault{5}$ -->
      <g transform="translate(25.772028 105.617545) scale(0.18 -0.18)">
       <use xlink:href="#CMR17-35" transform="scale(0.996264)"/>
      </g>
     </g>
    </g>
    <g id="ytick_7">
     <g id="line2d_63">
      <g>
       <use xlink:href="#md72e59b86f" x="37.496314" y="59.517988" style="stroke: #000000; stroke-width: 0.5"/>
      </g>
     </g>
     <g id="line2d_64">
      <g>
       <use xlink:href="#me37b9e1bdd" x="595.496314" y="59.517988" style="stroke: #000000; stroke-width: 0.5"/>
      </g>
     </g>
     <g id="text_13">
      <!-- $\mathdefault{10}$ -->
      <g transform="translate(17.547742 65.744638) scale(0.18 -0.18)">
       <use xlink:href="#CMR17-31" transform="scale(0.996264)"/>
       <use xlink:href="#CMR17-30" transform="translate(45.690477 0) scale(0.996264)"/>
      </g>
     </g>
    </g>
    <g id="ytick_8">
     <g id="line2d_65">
      <g>
       <use xlink:href="#md72e59b86f" x="37.496314" y="19.64508" style="stroke: #000000; stroke-width: 0.5"/>
      </g>
     </g>
     <g id="line2d_66">
      <g>
       <use xlink:href="#me37b9e1bdd" x="595.496314" y="19.64508" style="stroke: #000000; stroke-width: 0.5"/>
      </g>
     </g>
     <g id="text_14">
      <!-- $\mathdefault{15}$ -->
      <g transform="translate(17.547742 25.87173) scale(0.18 -0.18)">
       <use xlink:href="#CMR17-31" transform="scale(0.996264)"/>
       <use xlink:href="#CMR17-35" transform="translate(45.690477 0) scale(0.996264)"/>
      </g>
     </g>
    </g>
    <g id="ytick_9">
     <g id="line2d_67">
      <defs>
       <path id="mbc10e24cf3" d="M 0 0 
L 1.5 0 
" style="stroke: #000000; stroke-width: 0.5"/>
      </defs>
      <g>
       <use xlink:href="#mbc10e24cf3" x="37.496314" y="330.65376" style="stroke: #000000; stroke-width: 0.5"/>
      </g>
     </g>
     <g id="line2d_68">
      <defs>
       <path id="m69e78ee273" d="M 0 0 
L -1.5 0 
" style="stroke: #000000; stroke-width: 0.5"/>
      </defs>
      <g>
       <use xlink:href="#m69e78ee273" x="595.496314" y="330.65376" style="stroke: #000000; stroke-width: 0.5"/>
      </g>
     </g>
    </g>
    <g id="ytick_10">
     <g id="line2d_69">
      <g>
       <use xlink:href="#mbc10e24cf3" x="37.496314" y="322.679178" style="stroke: #000000; stroke-width: 0.5"/>
      </g>
     </g>
     <g id="line2d_70">
      <g>
       <use xlink:href="#m69e78ee273" x="595.496314" y="322.679178" style="stroke: #000000; stroke-width: 0.5"/>
      </g>
     </g>
    </g>
    <g id="ytick_11">
     <g id="line2d_71">
      <g>
       <use xlink:href="#mbc10e24cf3" x="37.496314" y="314.704596" style="stroke: #000000; stroke-width: 0.5"/>
      </g>
     </g>
     <g id="line2d_72">
      <g>
       <use xlink:href="#m69e78ee273" x="595.496314" y="314.704596" style="stroke: #000000; stroke-width: 0.5"/>
      </g>
     </g>
    </g>
    <g id="ytick_12">
     <g id="line2d_73">
      <g>
       <use xlink:href="#mbc10e24cf3" x="37.496314" y="306.730015" style="stroke: #000000; stroke-width: 0.5"/>
      </g>
     </g>
     <g id="line2d_74">
      <g>
       <use xlink:href="#m69e78ee273" x="595.496314" y="306.730015" style="stroke: #000000; stroke-width: 0.5"/>
      </g>
     </g>
    </g>
    <g id="ytick_13">
     <g id="line2d_75">
      <g>
       <use xlink:href="#mbc10e24cf3" x="37.496314" y="290.780852" style="stroke: #000000; stroke-width: 0.5"/>
      </g>
     </g>
     <g id="line2d_76">
      <g>
       <use xlink:href="#m69e78ee273" x="595.496314" y="290.780852" style="stroke: #000000; stroke-width: 0.5"/>
      </g>
     </g>
    </g>
    <g id="ytick_14">
     <g id="line2d_77">
      <g>
       <use xlink:href="#mbc10e24cf3" x="37.496314" y="282.80627" style="stroke: #000000; stroke-width: 0.5"/>
      </g>
     </g>
     <g id="line2d_78">
      <g>
       <use xlink:href="#m69e78ee273" x="595.496314" y="282.80627" style="stroke: #000000; stroke-width: 0.5"/>
      </g>
     </g>
    </g>
    <g id="ytick_15">
     <g id="line2d_79">
      <g>
       <use xlink:href="#mbc10e24cf3" x="37.496314" y="274.831689" style="stroke: #000000; stroke-width: 0.5"/>
      </g>
     </g>
     <g id="line2d_80">
      <g>
       <use xlink:href="#m69e78ee273" x="595.496314" y="274.831689" style="stroke: #000000; stroke-width: 0.5"/>
      </g>
     </g>
    </g>
    <g id="ytick_16">
     <g id="line2d_81">
      <g>
       <use xlink:href="#mbc10e24cf3" x="37.496314" y="266.857107" style="stroke: #000000; stroke-width: 0.5"/>
      </g>
     </g>
     <g id="line2d_82">
      <g>
       <use xlink:href="#m69e78ee273" x="595.496314" y="266.857107" style="stroke: #000000; stroke-width: 0.5"/>
      </g>
     </g>
    </g>
    <g id="ytick_17">
     <g id="line2d_83">
      <g>
       <use xlink:href="#mbc10e24cf3" x="37.496314" y="250.907944" style="stroke: #000000; stroke-width: 0.5"/>
      </g>
     </g>
     <g id="line2d_84">
      <g>
       <use xlink:href="#m69e78ee273" x="595.496314" y="250.907944" style="stroke: #000000; stroke-width: 0.5"/>
      </g>
     </g>
    </g>
    <g id="ytick_18">
     <g id="line2d_85">
      <g>
       <use xlink:href="#mbc10e24cf3" x="37.496314" y="242.933363" style="stroke: #000000; stroke-width: 0.5"/>
      </g>
     </g>
     <g id="line2d_86">
      <g>
       <use xlink:href="#m69e78ee273" x="595.496314" y="242.933363" style="stroke: #000000; stroke-width: 0.5"/>
      </g>
     </g>
    </g>
    <g id="ytick_19">
     <g id="line2d_87">
      <g>
       <use xlink:href="#mbc10e24cf3" x="37.496314" y="234.958781" style="stroke: #000000; stroke-width: 0.5"/>
      </g>
     </g>
     <g id="line2d_88">
      <g>
       <use xlink:href="#m69e78ee273" x="595.496314" y="234.958781" style="stroke: #000000; stroke-width: 0.5"/>
      </g>
     </g>
    </g>
    <g id="ytick_20">
     <g id="line2d_89">
      <g>
       <use xlink:href="#mbc10e24cf3" x="37.496314" y="226.9842" style="stroke: #000000; stroke-width: 0.5"/>
      </g>
     </g>
     <g id="line2d_90">
      <g>
       <use xlink:href="#m69e78ee273" x="595.496314" y="226.9842" style="stroke: #000000; stroke-width: 0.5"/>
      </g>
     </g>
    </g>
    <g id="ytick_21">
     <g id="line2d_91">
      <g>
       <use xlink:href="#mbc10e24cf3" x="37.496314" y="211.035037" style="stroke: #000000; stroke-width: 0.5"/>
      </g>
     </g>
     <g id="line2d_92">
      <g>
       <use xlink:href="#m69e78ee273" x="595.496314" y="211.035037" style="stroke: #000000; stroke-width: 0.5"/>
      </g>
     </g>
    </g>
    <g id="ytick_22">
     <g id="line2d_93">
      <g>
       <use xlink:href="#mbc10e24cf3" x="37.496314" y="203.060455" style="stroke: #000000; stroke-width: 0.5"/>
      </g>
     </g>
     <g id="line2d_94">
      <g>
       <use xlink:href="#m69e78ee273" x="595.496314" y="203.060455" style="stroke: #000000; stroke-width: 0.5"/>
      </g>
     </g>
    </g>
    <g id="ytick_23">
     <g id="line2d_95">
      <g>
       <use xlink:href="#mbc10e24cf3" x="37.496314" y="195.085874" style="stroke: #000000; stroke-width: 0.5"/>
      </g>
     </g>
     <g id="line2d_96">
      <g>
       <use xlink:href="#m69e78ee273" x="595.496314" y="195.085874" style="stroke: #000000; stroke-width: 0.5"/>
      </g>
     </g>
    </g>
    <g id="ytick_24">
     <g id="line2d_97">
      <g>
       <use xlink:href="#mbc10e24cf3" x="37.496314" y="187.111292" style="stroke: #000000; stroke-width: 0.5"/>
      </g>
     </g>
     <g id="line2d_98">
      <g>
       <use xlink:href="#m69e78ee273" x="595.496314" y="187.111292" style="stroke: #000000; stroke-width: 0.5"/>
      </g>
     </g>
    </g>
    <g id="ytick_25">
     <g id="line2d_99">
      <g>
       <use xlink:href="#mbc10e24cf3" x="37.496314" y="171.162129" style="stroke: #000000; stroke-width: 0.5"/>
      </g>
     </g>
     <g id="line2d_100">
      <g>
       <use xlink:href="#m69e78ee273" x="595.496314" y="171.162129" style="stroke: #000000; stroke-width: 0.5"/>
      </g>
     </g>
    </g>
    <g id="ytick_26">
     <g id="line2d_101">
      <g>
       <use xlink:href="#mbc10e24cf3" x="37.496314" y="163.187547" style="stroke: #000000; stroke-width: 0.5"/>
      </g>
     </g>
     <g id="line2d_102">
      <g>
       <use xlink:href="#m69e78ee273" x="595.496314" y="163.187547" style="stroke: #000000; stroke-width: 0.5"/>
      </g>
     </g>
    </g>
    <g id="ytick_27">
     <g id="line2d_103">
      <g>
       <use xlink:href="#mbc10e24cf3" x="37.496314" y="155.212966" style="stroke: #000000; stroke-width: 0.5"/>
      </g>
     </g>
     <g id="line2d_104">
      <g>
       <use xlink:href="#m69e78ee273" x="595.496314" y="155.212966" style="stroke: #000000; stroke-width: 0.5"/>
      </g>
     </g>
    </g>
    <g id="ytick_28">
     <g id="line2d_105">
      <g>
       <use xlink:href="#mbc10e24cf3" x="37.496314" y="147.238384" style="stroke: #000000; stroke-width: 0.5"/>
      </g>
     </g>
     <g id="line2d_106">
      <g>
       <use xlink:href="#m69e78ee273" x="595.496314" y="147.238384" style="stroke: #000000; stroke-width: 0.5"/>
      </g>
     </g>
    </g>
    <g id="ytick_29">
     <g id="line2d_107">
      <g>
       <use xlink:href="#mbc10e24cf3" x="37.496314" y="131.289221" style="stroke: #000000; stroke-width: 0.5"/>
      </g>
     </g>
     <g id="line2d_108">
      <g>
       <use xlink:href="#m69e78ee273" x="595.496314" y="131.289221" style="stroke: #000000; stroke-width: 0.5"/>
      </g>
     </g>
    </g>
    <g id="ytick_30">
     <g id="line2d_109">
      <g>
       <use xlink:href="#mbc10e24cf3" x="37.496314" y="123.31464" style="stroke: #000000; stroke-width: 0.5"/>
      </g>
     </g>
     <g id="line2d_110">
      <g>
       <use xlink:href="#m69e78ee273" x="595.496314" y="123.31464" style="stroke: #000000; stroke-width: 0.5"/>
      </g>
     </g>
    </g>
    <g id="ytick_31">
     <g id="line2d_111">
      <g>
       <use xlink:href="#mbc10e24cf3" x="37.496314" y="115.340058" style="stroke: #000000; stroke-width: 0.5"/>
      </g>
     </g>
     <g id="line2d_112">
      <g>
       <use xlink:href="#m69e78ee273" x="595.496314" y="115.340058" style="stroke: #000000; stroke-width: 0.5"/>
      </g>
     </g>
    </g>
    <g id="ytick_32">
     <g id="line2d_113">
      <g>
       <use xlink:href="#mbc10e24cf3" x="37.496314" y="107.365477" style="stroke: #000000; stroke-width: 0.5"/>
      </g>
     </g>
     <g id="line2d_114">
      <g>
       <use xlink:href="#m69e78ee273" x="595.496314" y="107.365477" style="stroke: #000000; stroke-width: 0.5"/>
      </g>
     </g>
    </g>
    <g id="ytick_33">
     <g id="line2d_115">
      <g>
       <use xlink:href="#mbc10e24cf3" x="37.496314" y="91.416314" style="stroke: #000000; stroke-width: 0.5"/>
      </g>
     </g>
     <g id="line2d_116">
      <g>
       <use xlink:href="#m69e78ee273" x="595.496314" y="91.416314" style="stroke: #000000; stroke-width: 0.5"/>
      </g>
     </g>
    </g>
    <g id="ytick_34">
     <g id="line2d_117">
      <g>
       <use xlink:href="#mbc10e24cf3" x="37.496314" y="83.441732" style="stroke: #000000; stroke-width: 0.5"/>
      </g>
     </g>
     <g id="line2d_118">
      <g>
       <use xlink:href="#m69e78ee273" x="595.496314" y="83.441732" style="stroke: #000000; stroke-width: 0.5"/>
      </g>
     </g>
    </g>
    <g id="ytick_35">
     <g id="line2d_119">
      <g>
       <use xlink:href="#mbc10e24cf3" x="37.496314" y="75.467151" style="stroke: #000000; stroke-width: 0.5"/>
      </g>
     </g>
     <g id="line2d_120">
      <g>
       <use xlink:href="#m69e78ee273" x="595.496314" y="75.467151" style="stroke: #000000; stroke-width: 0.5"/>
      </g>
     </g>
    </g>
    <g id="ytick_36">
     <g id="line2d_121">
      <g>
       <use xlink:href="#mbc10e24cf3" x="37.496314" y="67.492569" style="stroke: #000000; stroke-width: 0.5"/>
      </g>
     </g>
     <g id="line2d_122">
      <g>
       <use xlink:href="#m69e78ee273" x="595.496314" y="67.492569" style="stroke: #000000; stroke-width: 0.5"/>
      </g>
     </g>
    </g>
    <g id="ytick_37">
     <g id="line2d_123">
      <g>
       <use xlink:href="#mbc10e24cf3" x="37.496314" y="51.543406" style="stroke: #000000; stroke-width: 0.5"/>
      </g>
     </g>
     <g id="line2d_124">
      <g>
       <use xlink:href="#m69e78ee273" x="595.496314" y="51.543406" style="stroke: #000000; stroke-width: 0.5"/>
      </g>
     </g>
    </g>
    <g id="ytick_38">
     <g id="line2d_125">
      <g>
       <use xlink:href="#mbc10e24cf3" x="37.496314" y="43.568824" style="stroke: #000000; stroke-width: 0.5"/>
      </g>
     </g>
     <g id="line2d_126">
      <g>
       <use xlink:href="#m69e78ee273" x="595.496314" y="43.568824" style="stroke: #000000; stroke-width: 0.5"/>
      </g>
     </g>
    </g>
    <g id="ytick_39">
     <g id="line2d_127">
      <g>
       <use xlink:href="#mbc10e24cf3" x="37.496314" y="35.594243" style="stroke: #000000; stroke-width: 0.5"/>
      </g>
     </g>
     <g id="line2d_128">
      <g>
       <use xlink:href="#m69e78ee273" x="595.496314" y="35.594243" style="stroke: #000000; stroke-width: 0.5"/>
      </g>
     </g>
    </g>
    <g id="ytick_40">
     <g id="line2d_129">
      <g>
       <use xlink:href="#mbc10e24cf3" x="37.496314" y="27.619661" style="stroke: #000000; stroke-width: 0.5"/>
      </g>
     </g>
     <g id="line2d_130">
      <g>
       <use xlink:href="#m69e78ee273" x="595.496314" y="27.619661" style="stroke: #000000; stroke-width: 0.5"/>
      </g>
     </g>
    </g>
    <g id="ytick_41">
     <g id="line2d_131">
      <g>
       <use xlink:href="#mbc10e24cf3" x="37.496314" y="11.670498" style="stroke: #000000; stroke-width: 0.5"/>
      </g>
     </g>
     <g id="line2d_132">
      <g>
       <use xlink:href="#m69e78ee273" x="595.496314" y="11.670498" style="stroke: #000000; stroke-width: 0.5"/>
      </g>
     </g>
    </g>
    <g id="ytick_42">
     <g id="line2d_133">
      <g>
       <use xlink:href="#mbc10e24cf3" x="37.496314" y="3.695917" style="stroke: #000000; stroke-width: 0.5"/>
      </g>
     </g>
     <g id="line2d_134">
      <g>
       <use xlink:href="#m69e78ee273" x="595.496314" y="3.695917" style="stroke: #000000; stroke-width: 0.5"/>
      </g>
     </g>
    </g>
   </g>
   <g id="line2d_135">
    <path d="M 62.85995 157.306694 
L 64.74527 216.073195 
L 66.569773 136.585119 
L 68.455093 87.038785 
L 70.279597 159.389797 
L 72.164917 161.630498 
L 74.050237 156.63291 
L 75.87474 235.413424 
L 77.76006 115.239331 
L 79.584563 100.877542 
L 81.469883 128.570612 
L 83.355203 142.558137 
L 85.058073 167.408789 
L 86.943393 101.677136 
L 88.767896 168.733814 
L 90.653216 163.052688 
L 92.47772 188.980316 
L 94.36304 231.212474 
L 96.24836 131.395155 
L 98.072863 179.352089 
L 99.958183 151.468238 
L 101.782686 89.263937 
L 103.668006 148.741144 
L 105.553327 142.231473 
L 107.256196 193.412737 
L 109.141516 130.169709 
L 110.96602 99.397748 
L 112.85134 99.137646 
L 114.675843 96.113376 
L 116.561163 135.607763 
L 118.446483 141.685868 
L 120.270986 115.516573 
L 122.156306 124.315166 
L 123.98081 130.734104 
L 127.75145 101.869571 
L 129.515136 131.667171 
L 131.400456 152.89662 
L 133.22496 132.636356 
L 135.11028 161.076203 
L 136.934783 117.873688 
L 138.820103 158.43698 
L 140.705423 151.552253 
L 142.529926 118.503999 
L 144.415246 139.584946 
L 146.23975 103.168575 
L 148.12507 118.876266 
L 150.01039 151.189284 
L 151.713259 127.059076 
L 153.598579 142.414302 
L 155.423083 159.862787 
L 157.308403 129.834617 
L 159.132906 123.203751 
L 161.018226 126.113367 
L 162.903546 137.940415 
L 164.728049 138.189759 
L 166.613369 161.666453 
L 168.437873 109.447522 
L 170.323193 123.501986 
L 172.208513 128.805803 
L 173.911383 140.562015 
L 175.796703 128.659373 
L 177.621206 134.084428 
L 179.506526 146.745662 
L 181.331029 162.36906 
L 183.216349 134.777433 
L 185.101669 122.414873 
L 186.926173 120.533364 
L 188.811493 112.11134 
L 190.635996 124.624114 
L 192.521316 123.467983 
L 194.406636 134.917971 
L 196.109506 127.789387 
L 197.994826 160.433656 
L 199.819329 107.762417 
L 201.704649 113.794705 
L 203.529152 137.65588 
L 205.414472 135.837374 
L 207.299792 174.696968 
L 209.124296 116.298153 
L 211.009616 116.920341 
L 212.834119 179.779423 
L 214.719439 130.683743 
L 216.604759 195.349336 
L 218.368446 153.202602 
L 220.253766 161.907344 
L 222.078269 107.490771 
L 223.963589 120.431152 
L 225.788092 175.283058 
L 227.673412 190.788842 
L 229.558732 124.098197 
L 231.383236 180.460593 
L 233.268556 321.12 
L 235.093059 213.178359 
L 236.978379 144.228116 
L 238.863699 150.225285 
L 240.566569 196.89758 
L 242.451889 188.381628 
L 244.276392 48.73433 
L 246.161712 89.812262 
L 247.986216 118.581842 
L 249.871536 130.95482 
L 251.756856 78.644944 
L 253.581359 112.227418 
L 255.466679 121.812893 
L 257.291182 124.163018 
L 259.176502 123.077943 
L 261.061822 129.839668 
L 262.764692 164.075325 
L 264.650012 94.497527 
L 266.474515 108.527563 
L 268.359835 188.905061 
L 270.184339 169.383036 
L 272.069659 141.888624 
L 273.954979 133.758689 
L 275.779482 114.139931 
L 277.664802 104.838205 
L 279.489305 120.888083 
L 281.374625 111.393947 
L 283.259946 113.29827 
L 284.962815 115.678977 
L 286.848135 149.365765 
L 288.672639 122.914733 
L 290.557959 135.201561 
L 292.382462 170.259718 
L 294.267782 116.124269 
L 296.153102 228.221457 
L 297.977605 146.991047 
L 299.862925 116.930434 
L 301.687429 126.680582 
L 303.572749 128.349898 
L 305.458069 103.358172 
L 307.221755 108.053668 
L 309.107075 117.884351 
L 312.816899 165.671766 
L 314.641402 149.911699 
L 316.526722 117.685948 
L 318.412042 114.055697 
L 320.236545 116.869737 
L 322.121865 142.363698 
L 323.946369 163.654043 
L 325.831689 123.533821 
L 327.717009 107.33033 
L 329.419878 122.257241 
L 331.305198 119.206145 
L 333.129702 129.111277 
L 335.015022 104.911462 
L 336.839525 149.576591 
L 338.724845 115.047955 
L 340.610165 138.590252 
L 344.319988 123.881502 
L 346.144492 110.34923 
L 348.029812 128.49858 
L 349.915132 132.857988 
L 351.618002 141.59522 
L 353.503322 119.121311 
L 355.327825 138.947197 
L 357.213145 128.425599 
L 359.037648 115.435098 
L 360.922968 128.681565 
L 362.808288 143.953757 
L 364.632792 126.479227 
L 366.518112 161.972758 
L 368.342615 96.274642 
L 370.227935 135.489389 
L 372.113255 149.456685 
L 373.816125 118.301668 
L 375.701445 140.110656 
L 377.525948 133.582999 
L 379.411268 132.788258 
L 381.235771 144.054743 
L 383.121091 141.222539 
L 386.830915 177.483971 
L 388.716235 106.952968 
L 390.540738 117.58087 
L 392.426058 149.501465 
L 394.311378 193.676211 
L 397.960385 91.508107 
L 399.784888 118.40312 
L 401.670208 143.1114 
L 403.494711 132.214429 
L 405.380031 114.766093 
L 407.265351 131.122731 
L 409.089855 144.149554 
L 410.975175 144.704187 
L 412.799678 131.129974 
L 414.684998 109.745432 
L 416.570318 129.214648 
L 418.273188 120.286817 
L 420.158508 126.729641 
L 421.983011 141.798188 
L 423.868331 127.174214 
L 425.692835 126.502456 
L 429.463475 138.575208 
L 431.287978 127.462188 
L 433.173298 118.998738 
L 434.997801 127.927113 
L 436.883121 117.807677 
L 438.768441 102.569933 
L 440.471311 163.83257 
L 442.356631 139.968666 
L 444.181134 153.896091 
L 446.066454 125.009271 
L 447.890958 123.810653 
L 449.776278 127.968665 
L 451.661598 121.150584 
L 453.486101 127.167361 
L 455.371421 171.811909 
L 457.195924 157.281855 
L 459.081244 186.28195 
L 460.966565 126.910328 
L 462.669434 95.390124 
L 464.554754 125.170156 
L 466.379258 111.368408 
L 468.264578 152.860434 
L 470.089081 129.419132 
L 471.974401 110.554775 
L 473.859721 165.953392 
L 475.684224 116.297917 
L 477.569544 140.461629 
L 479.394048 105.899362 
L 481.279368 121.021506 
L 483.164688 114.19423 
L 484.928374 139.480005 
L 486.813694 307.975451 
L 488.638198 106.979827 
L 490.523518 95.000355 
L 492.348021 90.257812 
L 494.233341 113.247174 
L 496.118661 94.761433 
L 497.943164 145.446278 
L 501.652988 109.436476 
L 503.538308 107.045945 
L 505.423628 118.298539 
L 507.126497 120.63138 
L 509.011817 133.72304 
L 510.836321 93.559486 
L 512.721641 134.143847 
L 514.546144 125.861106 
L 516.431464 116.044771 
L 518.316784 122.89547 
L 520.141287 140.816297 
L 522.026607 136.548291 
L 523.851111 103.145321 
L 525.736431 138.002836 
L 527.621751 156.674538 
L 529.324621 163.665287 
L 531.209941 147.343082 
L 533.034444 139.258213 
L 534.919764 205.684573 
L 536.744267 167.675136 
L 538.629587 136.653585 
L 540.514907 90.467347 
L 542.339411 200.637191 
L 544.224731 165.467784 
L 546.049234 99.309689 
L 547.934554 140.304207 
L 549.819874 129.484042 
L 551.522744 115.65113 
L 553.408064 161.286906 
L 555.232567 109.114966 
L 557.117887 134.497773 
L 558.94239 101.842454 
L 560.82771 109.950217 
L 562.71303 148.286224 
L 564.537534 147.945663 
L 566.422854 164.938716 
L 568.247357 104.423294 
L 570.132677 100.017744 
L 570.132677 100.017744 
" clip-path="url(#pe841dd182c)" style="fill: none; stroke-dasharray: 3.7,1.6; stroke-dashoffset: 0; stroke: #000000"/>
   </g>
   <g id="line2d_136">
    <path d="M 62.85995 132.718069 
L 64.74527 133.790482 
L 66.569773 139.707832 
L 68.455093 135.258089 
L 70.279597 97.388357 
L 72.164917 130.122078 
L 74.050237 134.247387 
L 75.87474 130.279881 
L 77.76006 203.866725 
L 79.584563 130.518335 
L 81.469883 130.860957 
L 83.355203 133.574587 
L 85.058073 136.543715 
L 86.943393 136.119692 
L 88.767896 132.901523 
L 90.653216 136.412487 
L 92.47772 137.077082 
L 94.36304 133.46754 
L 96.24836 134.794745 
L 98.072863 130.807882 
L 99.958183 132.435777 
L 101.782686 142.484983 
L 103.668006 128.265902 
L 105.553327 140.097493 
L 107.256196 136.348381 
L 109.141516 135.005847 
L 110.96602 131.448686 
L 112.85134 131.721709 
L 114.675843 132.157194 
L 116.561163 129.335634 
L 118.446483 134.204791 
L 120.270986 136.334962 
L 122.156306 133.215812 
L 123.98081 133.373816 
L 127.75145 129.974897 
L 129.515136 127.967559 
L 131.400456 131.782389 
L 133.22496 131.774327 
L 135.11028 134.727978 
L 136.934783 133.450681 
L 138.820103 131.549841 
L 140.705423 133.0872 
L 142.529926 132.820103 
L 144.415246 127.937958 
L 146.23975 134.304862 
L 148.12507 128.214941 
L 150.01039 132.339888 
L 151.713259 138.285177 
L 153.598579 129.711954 
L 155.423083 139.862394 
L 157.308403 134.382847 
L 159.132906 129.582759 
L 161.018226 128.588451 
L 162.903546 135.649765 
L 164.728049 135.685346 
L 166.613369 132.993188 
L 168.437873 140.842485 
L 170.323193 131.258944 
L 172.208513 130.128178 
L 173.911383 130.65139 
L 175.796703 138.396516 
L 177.621206 135.025053 
L 179.506526 138.136164 
L 181.331029 137.008943 
L 183.216349 139.33794 
L 185.101669 132.478007 
L 186.926173 126.767122 
L 188.811493 127.932901 
L 192.521316 128.4968 
L 194.406636 129.330083 
L 196.109506 138.297321 
L 197.994826 131.685411 
L 199.819329 135.107198 
L 201.704649 130.305065 
L 203.529152 131.562955 
L 205.414472 140.058929 
L 207.299792 133.930065 
L 209.124296 133.760895 
L 211.009616 130.633598 
L 212.834119 132.280574 
L 214.719439 134.30054 
L 216.604759 132.954419 
L 218.368446 133.91659 
L 220.253766 134.003575 
L 222.078269 131.03876 
L 223.963589 133.301475 
L 225.788092 133.881426 
L 227.673412 138.1866 
L 229.558732 138.995009 
L 231.383236 131.618008 
L 233.268556 133.137655 
L 235.093059 134.37415 
L 236.978379 134.183211 
L 238.863699 133.8348 
L 242.451889 134.228128 
L 244.276392 134.930669 
L 246.161712 133.295388 
L 249.871536 133.038561 
L 251.756856 133.034657 
L 253.581359 132.912614 
L 255.466679 132.65864 
L 257.291182 132.625664 
L 261.061822 132.315753 
L 262.764692 133.457632 
L 264.650012 134.187742 
L 266.474515 127.066499 
L 268.359835 132.266562 
L 270.184339 132.449378 
L 272.069659 133.581678 
L 273.954979 131.457506 
L 275.779482 130.102495 
L 277.664802 131.687226 
L 279.489305 124.39549 
L 281.374625 136.149278 
L 284.962815 132.213631 
L 286.848135 134.978404 
L 288.672639 132.247224 
L 290.557959 130.732933 
L 292.382462 127.805519 
L 294.267782 133.984475 
L 296.153102 128.822919 
L 297.977605 133.31768 
L 299.862925 133.453904 
L 301.687429 133.755498 
L 303.572749 130.576893 
L 305.458069 130.558936 
L 307.221755 125.524743 
L 309.107075 128.204951 
L 310.931579 136.903707 
L 312.816899 132.011771 
L 314.641402 129.282049 
L 316.526722 131.068547 
L 318.412042 127.829566 
L 320.236545 134.299998 
L 322.121865 133.030104 
L 323.946369 139.078911 
L 325.831689 133.608973 
L 327.717009 131.949203 
L 329.419878 134.612896 
L 331.305198 132.749021 
L 333.129702 130.241817 
L 335.015022 126.297252 
L 336.839525 131.012641 
L 338.724845 131.977754 
L 340.610165 129.715879 
L 344.319988 135.126252 
L 346.144492 126.305083 
L 348.029812 130.124491 
L 349.915132 136.465664 
L 351.618002 132.764539 
L 353.503322 128.373198 
L 355.327825 128.002594 
L 357.213145 134.639228 
L 359.037648 125.736718 
L 360.922968 128.58986 
L 362.808288 129.676683 
L 364.632792 128.504875 
L 366.518112 132.780419 
L 368.342615 130.447256 
L 370.227935 128.403231 
L 372.113255 129.032574 
L 373.816125 128.880754 
L 375.701445 132.021125 
L 377.525948 139.162607 
L 379.411268 130.002693 
L 381.235771 134.897671 
L 383.121091 131.654759 
L 385.006411 135.880551 
L 386.830915 130.258208 
L 388.716235 136.30087 
L 390.540738 126.974983 
L 392.426058 134.631027 
L 394.311378 137.108263 
L 396.075065 133.829744 
L 397.960385 129.765307 
L 399.784888 132.823462 
L 401.670208 129.469895 
L 403.494711 133.915047 
L 405.380031 125.559389 
L 407.265351 125.740284 
L 409.089855 133.210225 
L 410.975175 139.268281 
L 412.799678 138.507236 
L 414.684998 132.453099 
L 416.570318 131.988941 
L 418.273188 132.676369 
L 420.158508 127.986737 
L 421.983011 133.530681 
L 423.868331 127.786362 
L 425.692835 130.083727 
L 427.578155 125.527671 
L 429.463475 135.604605 
L 431.287978 131.590616 
L 433.173298 129.226247 
L 434.997801 135.61392 
L 436.883121 133.104899 
L 438.768441 131.176077 
L 440.471311 132.265041 
L 442.356631 136.042255 
L 444.181134 132.757624 
L 446.066454 137.920311 
L 447.890958 133.415588 
L 449.776278 129.655456 
L 451.661598 130.485538 
L 453.486101 129.461803 
L 455.371421 135.276377 
L 457.195924 142.246256 
L 459.081244 136.663936 
L 460.966565 132.365491 
L 462.669434 130.023438 
L 464.554754 123.928883 
L 466.379258 128.198221 
L 468.264578 125.987948 
L 470.089081 131.346548 
L 471.974401 127.839532 
L 473.859721 131.991453 
L 475.684224 133.083477 
L 477.569544 133.011485 
L 479.394048 136.862238 
L 481.279368 132.360679 
L 483.164688 133.935828 
L 484.928374 129.184395 
L 486.813694 130.650809 
L 488.638198 132.75113 
L 490.523518 132.536763 
L 492.348021 132.202482 
L 494.233341 134.045228 
L 496.118661 131.446979 
L 497.943164 131.758844 
L 499.828484 139.771377 
L 501.652988 133.727063 
L 503.538308 130.655324 
L 505.423628 131.493372 
L 507.126497 131.676106 
L 509.011817 131.117271 
L 510.836321 131.357894 
L 512.721641 131.101275 
L 514.546144 130.498802 
L 516.431464 127.230398 
L 518.316784 128.449701 
L 520.141287 130.899406 
L 522.026607 137.566959 
L 523.851111 131.251386 
L 525.736431 129.3136 
L 527.621751 127.732975 
L 529.324621 133.438355 
L 531.209941 130.617582 
L 533.034444 133.336835 
L 534.919764 130.516351 
L 536.744267 132.154312 
L 538.629587 136.978192 
L 540.514907 131.255529 
L 542.339411 127.452199 
L 544.224731 133.555419 
L 546.049234 132.665128 
L 547.934554 131.90924 
L 549.819874 129.88025 
L 551.522744 130.221088 
L 553.408064 134.852249 
L 555.232567 136.432177 
L 557.117887 123.769836 
L 558.94239 135.89126 
L 560.82771 131.210537 
L 562.71303 132.306351 
L 564.537534 140.114392 
L 566.422854 137.874493 
L 568.247357 139.203532 
L 570.132677 129.394548 
L 570.132677 129.394548 
" clip-path="url(#pe841dd182c)" style="fill: none; stroke: #ff0000; stroke-linecap: square"/>
   </g>
   <g id="patch_3">
    <path d="M 37.496314 336.24 
L 37.496314 3.6 
" style="fill: none; stroke: #000000; stroke-width: 0.5; stroke-linejoin: miter; stroke-linecap: square"/>
   </g>
   <g id="patch_4">
    <path d="M 595.496314 336.24 
L 595.496314 3.6 
" style="fill: none; stroke: #000000; stroke-width: 0.5; stroke-linejoin: miter; stroke-linecap: square"/>
   </g>
   <g id="patch_5">
    <path d="M 37.496314 336.24 
L 595.496314 336.24 
" style="fill: none; stroke: #000000; stroke-width: 0.5; stroke-linejoin: miter; stroke-linecap: square"/>
   </g>
   <g id="patch_6">
    <path d="M 37.496314 3.6 
L 595.496314 3.6 
" style="fill: none; stroke: #000000; stroke-width: 0.5; stroke-linejoin: miter; stroke-linecap: square"/>
   </g>
   <g id="legend_1">
    <g id="line2d_137">
     <path d="M 48.296314 285.466213 
L 60.296314 285.466213 
L 72.296314 285.466213 
" style="fill: none; stroke-dasharray: 3.7,1.6; stroke-dashoffset: 0; stroke: #000000"/>
    </g>
    <g id="text_15">
     <!-- rendimenti SP 500 -->
     <g transform="translate(81.896314 289.666213) scale(0.12 -0.12)">
      <defs>
       <path id="CMR17-72" d="M 960 1517 
C 960 2134 1222 2713 1702 2713 
C 1747 2713 1792 2707 1837 2687 
C 1837 2687 1696 2642 1696 2475 
C 1696 2321 1818 2257 1914 2257 
C 1990 2257 2131 2302 2131 2482 
C 2131 2687 1926 2816 1709 2816 
C 1222 2816 1011 2340 947 2115 
L 941 2115 
L 941 2816 
L 198 2745 
L 198 2578 
C 576 2578 634 2540 634 2231 
L 634 443 
C 634 198 608 166 198 166 
L 198 0 
C 352 12 646 12 813 12 
C 998 12 1325 12 1498 0 
L 1498 166 
C 1037 166 960 166 960 455 
L 960 1517 
z
" transform="scale(0.015625)"/>
       <path id="CMR17-65" d="M 2438 1503 
C 2464 1529 2464 1542 2464 1606 
C 2464 2251 2118 2816 1389 2816 
C 710 2816 173 2175 173 1394 
C 173 554 781 -64 1459 -64 
C 2176 -64 2458 619 2458 755 
C 2458 800 2419 800 2406 800 
C 2362 800 2355 787 2330 709 
C 2189 270 1837 51 1504 51 
C 1229 51 954 206 781 490 
C 582 819 582 1200 582 1503 
L 2438 1503 
z
M 589 1600 
C 634 2511 1126 2713 1382 2713 
C 1818 2713 2112 2308 2118 1600 
L 589 1600 
z
" transform="scale(0.015625)"/>
       <path id="CMR17-6e" d="M 2656 1954 
C 2656 2282 2592 2816 1837 2816 
C 1331 2816 1069 2424 973 2166 
L 966 2166 
L 966 2816 
L 211 2745 
L 211 2578 
C 589 2578 646 2540 646 2231 
L 646 443 
C 646 198 621 166 211 166 
L 211 0 
C 365 12 646 12 813 12 
C 979 12 1267 12 1421 0 
L 1421 166 
C 1011 166 986 192 986 443 
L 986 1678 
C 986 2269 1344 2713 1792 2713 
C 2266 2713 2317 2289 2317 1980 
L 2317 443 
C 2317 198 2291 166 1882 166 
L 1882 0 
C 2035 12 2317 12 2483 12 
C 2650 12 2938 12 3091 0 
L 3091 166 
C 2682 166 2656 192 2656 443 
L 2656 1954 
z
" transform="scale(0.015625)"/>
       <path id="CMR17-64" d="M 1869 4345 
L 1869 4179 
C 2246 4179 2304 4141 2304 3843 
L 2304 2371 
C 2278 2403 2016 2816 1498 2816 
C 845 2816 211 2228 211 1376 
C 211 529 806 -64 1434 -64 
C 1978 -64 2259 361 2291 406 
L 2291 -64 
L 3066 -13 
L 3066 154 
C 2688 154 2630 193 2630 503 
L 2630 4416 
L 1869 4345 
z
M 2291 762 
C 2291 568 2176 393 2029 264 
C 1811 70 1594 38 1472 38 
C 1286 38 621 135 621 1369 
C 621 2636 1363 2713 1530 2713 
C 1824 2713 2061 2545 2208 2313 
C 2291 2177 2291 2157 2291 2041 
L 2291 762 
z
" transform="scale(0.015625)"/>
       <path id="CMR17-69" d="M 992 3961 
C 992 4102 877 4224 730 4224 
C 589 4224 467 4108 467 3961 
C 467 3820 582 3699 730 3699 
C 870 3699 992 3814 992 3961 
z
M 243 2745 
L 243 2579 
C 602 2579 653 2540 653 2231 
L 653 443 
C 653 198 627 166 218 166 
L 218 0 
C 371 12 646 12 806 12 
C 960 12 1222 12 1370 0 
L 1370 166 
C 992 166 979 205 979 436 
L 979 2816 
L 243 2745 
z
" transform="scale(0.015625)"/>
       <path id="CMR17-6d" d="M 4326 1954 
C 4326 2276 4269 2816 3507 2816 
C 3072 2816 2771 2520 2656 2173 
L 2650 2173 
C 2573 2700 2195 2816 1837 2816 
C 1331 2816 1069 2424 973 2166 
L 966 2166 
L 966 2816 
L 211 2745 
L 211 2578 
C 589 2578 646 2540 646 2231 
L 646 443 
C 646 198 621 166 211 166 
L 211 0 
C 365 12 646 12 813 12 
C 979 12 1267 12 1421 0 
L 1421 166 
C 1011 166 986 192 986 443 
L 986 1678 
C 986 2269 1344 2713 1792 2713 
C 2266 2713 2317 2289 2317 1980 
L 2317 443 
C 2317 198 2291 166 1882 166 
L 1882 0 
C 2035 12 2317 12 2483 12 
C 2650 12 2938 12 3091 0 
L 3091 166 
C 2682 166 2656 192 2656 443 
L 2656 1678 
C 2656 2269 3014 2713 3462 2713 
C 3936 2713 3987 2289 3987 1980 
L 3987 443 
C 3987 198 3962 166 3552 166 
L 3552 0 
C 3706 12 3987 12 4154 12 
C 4320 12 4608 12 4762 0 
L 4762 166 
C 4352 166 4326 192 4326 443 
L 4326 1954 
z
" transform="scale(0.015625)"/>
       <path id="CMR17-74" d="M 966 2585 
L 1862 2585 
L 1862 2752 
L 966 2752 
L 966 3968 
L 851 3968 
C 838 3292 614 2700 70 2687 
L 70 2585 
L 627 2585 
L 627 778 
C 627 655 627 -64 1370 -64 
C 1747 -64 1965 308 1965 784 
L 1965 1151 
L 1850 1151 
L 1850 790 
C 1850 347 1677 51 1408 51 
C 1222 51 966 179 966 765 
L 966 2585 
z
" transform="scale(0.015625)"/>
       <path id="CMR17-53" d="M 2803 4351 
C 2803 4467 2797 4473 2758 4473 
C 2720 4473 2707 4447 2682 4390 
L 2490 3965 
C 2246 4320 1875 4480 1472 4480 
C 819 4480 294 3958 294 3301 
C 294 3101 339 2817 557 2546 
C 794 2250 1018 2198 1530 2063 
C 1722 2011 2042 1927 2106 1901 
C 2470 1747 2662 1360 2662 999 
C 2662 534 2336 38 1779 38 
C 1094 38 454 425 410 1328 
C 403 1431 397 1437 352 1437 
C 301 1437 294 1431 294 1302 
L 294 0 
C 294 -116 301 -122 339 -122 
C 384 -122 397 -90 486 109 
C 493 128 493 141 614 386 
C 934 -39 1472 -128 1779 -128 
C 2477 -128 2970 457 2970 1141 
C 2970 1476 2848 1734 2778 1850 
C 2509 2263 2221 2340 1914 2417 
C 1869 2437 1856 2437 1498 2527 
C 1152 2617 1005 2662 845 2836 
C 666 3036 602 3243 602 3449 
C 602 3868 934 4326 1478 4326 
C 2157 4326 2579 3842 2675 3036 
C 2694 2920 2701 2914 2746 2914 
C 2803 2914 2803 2933 2803 3043 
L 2803 4351 
z
" transform="scale(0.015625)"/>
       <path id="CMR17-50" d="M 1267 2048 
L 2291 2048 
C 3117 2048 3718 2583 3718 3187 
C 3718 3791 3130 4352 2291 4352 
L 333 4352 
L 333 4185 
C 774 4185 845 4185 845 3899 
L 845 453 
C 845 166 774 166 333 166 
L 333 0 
C 518 12 858 12 1056 12 
C 1254 12 1594 12 1779 0 
L 1779 166 
C 1338 166 1267 166 1267 453 
L 1267 2048 
z
M 1254 2182 
L 1254 3937 
C 1254 4153 1267 4185 1523 4185 
L 2170 4185 
C 2995 4185 3232 3715 3232 3187 
C 3232 2608 2950 2182 2170 2182 
L 1254 2182 
z
" transform="scale(0.015625)"/>
      </defs>
      <use xlink:href="#CMR17-72" transform="scale(0.996264)"/>
      <use xlink:href="#CMR17-65" transform="translate(35.280768 0) scale(0.996264)"/>
      <use xlink:href="#CMR17-6e" transform="translate(75.766428 0) scale(0.996264)"/>
      <use xlink:href="#CMR17-64" transform="translate(126.661798 0) scale(0.996264)"/>
      <use xlink:href="#CMR17-69" transform="translate(177.557168 0) scale(0.996264)"/>
      <use xlink:href="#CMR17-6d" transform="translate(202.428226 0) scale(0.996264)"/>
      <use xlink:href="#CMR17-65" transform="translate(279.347816 0) scale(0.996264)"/>
      <use xlink:href="#CMR17-6e" transform="translate(319.833477 0) scale(0.996264)"/>
      <use xlink:href="#CMR17-74" transform="translate(368.126392 0) scale(0.996264)"/>
      <use xlink:href="#CMR17-69" transform="translate(403.40716 0) scale(0.996264)"/>
      <use xlink:href="#CMR17-53" transform="translate(458.354185 0) scale(0.996264)"/>
      <use xlink:href="#CMR17-50" transform="translate(509.249555 0) scale(0.996264)"/>
      <use xlink:href="#CMR17-35" transform="translate(601.911822 0) scale(0.996264)"/>
      <use xlink:href="#CMR17-30" transform="translate(647.602299 0) scale(0.996264)"/>
      <use xlink:href="#CMR17-30" transform="translate(693.292776 0) scale(0.996264)"/>
     </g>
    </g>
    <g id="line2d_138">
     <path d="M 48.296314 302.190808 
L 60.296314 302.190808 
L 72.296314 302.190808 
" style="fill: none; stroke: #ff0000; stroke-linecap: square"/>
    </g>
    <g id="text_16">
     <!-- forecast SVR -->
     <g transform="translate(81.896314 306.390808) scale(0.12 -0.12)">
      <defs>
       <path id="CMR17-66" d="M 979 2585 
L 1709 2585 
L 1709 2752 
L 966 2752 
L 966 3539 
C 966 4076 1235 4377 1510 4377 
C 1594 4377 1690 4363 1754 4339 
C 1702 4326 1568 4281 1568 4121 
C 1568 3955 1696 3904 1786 3904 
C 1875 3904 2003 3955 2003 4121 
C 2003 4353 1773 4480 1517 4480 
C 1152 4480 653 4211 653 3526 
L 653 2752 
L 141 2752 
L 141 2585 
L 653 2585 
L 653 441 
C 653 198 627 166 218 166 
L 218 0 
C 371 12 666 12 832 12 
C 1018 12 1344 12 1517 0 
L 1517 166 
C 1056 166 979 166 979 454 
L 979 2585 
z
" transform="scale(0.015625)"/>
       <path id="CMR17-6f" d="M 2758 1356 
C 2758 2176 2163 2816 1466 2816 
C 768 2816 173 2176 173 1356 
C 173 550 768 -64 1466 -64 
C 2163 -64 2758 550 2758 1356 
z
M 1466 51 
C 1165 51 909 230 762 480 
C 602 768 582 1126 582 1408 
C 582 1676 595 2009 762 2297 
C 890 2508 1139 2713 1466 2713 
C 1754 2713 1997 2553 2150 2329 
C 2349 2028 2349 1606 2349 1408 
C 2349 1158 2336 774 2163 467 
C 1984 172 1709 51 1466 51 
z
" transform="scale(0.015625)"/>
       <path id="CMR17-63" d="M 2234 2240 
C 2112 2240 1933 2240 1933 2015 
C 1933 1836 2080 1785 2163 1785 
C 2208 1785 2394 1804 2394 2028 
C 2394 2476 1958 2816 1466 2816 
C 787 2816 211 2201 211 1379 
C 211 521 813 -64 1466 -64 
C 2259 -64 2458 676 2458 747 
C 2458 773 2451 792 2406 792 
C 2362 792 2355 786 2330 702 
C 2163 180 1798 51 1523 51 
C 1114 51 621 431 621 1385 
C 621 2358 1094 2700 1472 2700 
C 1722 2700 2093 2582 2234 2240 
z
" transform="scale(0.015625)"/>
       <path id="CMR17-61" d="M 2304 1656 
C 2304 2048 2304 2275 2035 2534 
C 1798 2751 1523 2816 1306 2816 
C 800 2816 435 2408 435 1977 
C 435 1740 627 1728 666 1728 
C 749 1728 896 1779 896 1958 
C 896 2118 774 2188 666 2188 
C 640 2188 608 2182 589 2176 
C 723 2594 1069 2713 1293 2713 
C 1613 2713 1965 2421 1965 1875 
L 1965 1632 
C 1587 1619 1133 1568 774 1373 
C 371 1147 256 822 256 576 
C 256 77 832 -64 1171 -64 
C 1523 -64 1850 135 1990 505 
C 2003 219 2182 -39 2464 -39 
C 2598 -39 2938 51 2938 563 
L 2938 926 
L 2822 926 
L 2822 557 
C 2822 161 2650 109 2566 109 
C 2304 109 2304 446 2304 732 
L 2304 1656 
z
M 1965 887 
C 1965 323 1568 38 1216 38 
C 896 38 646 278 646 576 
C 646 771 730 1114 1101 1322 
C 1408 1497 1760 1523 1965 1536 
L 1965 887 
z
" transform="scale(0.015625)"/>
       <path id="CMR17-73" d="M 1978 2688 
C 1978 2803 1971 2809 1933 2809 
C 1907 2809 1901 2803 1824 2707 
C 1805 2681 1747 2617 1728 2592 
C 1523 2809 1235 2816 1126 2816 
C 416 2816 160 2444 160 2073 
C 160 1497 813 1363 998 1324 
C 1402 1241 1542 1216 1677 1100 
C 1760 1024 1901 883 1901 652 
C 1901 384 1747 38 1158 38 
C 602 38 403 460 288 1024 
C 269 1113 269 1120 218 1120 
C 166 1120 160 1113 160 985 
L 160 64 
C 160 -52 166 -58 205 -58 
C 237 -58 243 -52 275 0 
C 314 57 410 211 448 275 
C 576 102 800 -64 1158 -64 
C 1792 -64 2131 281 2131 780 
C 2131 1107 1958 1280 1875 1356 
C 1683 1555 1459 1600 1190 1651 
C 838 1728 390 1817 390 2208 
C 390 2374 480 2726 1126 2726 
C 1811 2726 1850 2086 1862 1881 
C 1869 1849 1901 1843 1920 1843 
C 1978 1843 1978 1862 1978 1971 
L 1978 2688 
z
" transform="scale(0.015625)"/>
       <path id="CMR17-56" d="M 3776 3762 
C 3834 3903 3936 4179 4365 4185 
L 4365 4352 
C 4218 4339 4051 4339 3891 4339 
C 3738 4339 3475 4339 3328 4352 
L 3328 4185 
C 3648 4166 3661 3942 3661 3903 
C 3661 3833 3642 3788 3622 3737 
L 2362 448 
L 1043 3903 
C 1024 3948 1011 3980 1011 4012 
C 1011 4185 1267 4185 1402 4185 
L 1402 4352 
C 1197 4339 896 4339 685 4339 
C 518 4339 218 4339 64 4352 
L 64 4185 
C 435 4185 506 4160 582 3955 
L 2106 -26 
C 2138 -116 2144 -128 2214 -128 
C 2285 -128 2291 -116 2323 -26 
L 3776 3762 
z
" transform="scale(0.015625)"/>
       <path id="CMR17-52" d="M 2509 2156 
C 3117 2278 3629 2689 3629 3203 
C 3629 3806 2950 4352 2054 4352 
L 333 4352 
L 333 4185 
C 774 4185 845 4185 845 3896 
L 845 428 
C 845 140 774 140 333 140 
L 333 -26 
C 518 -13 851 -13 1050 -13 
C 1248 -13 1581 -13 1766 -26 
L 1766 140 
C 1325 140 1254 140 1254 428 
L 1254 2112 
L 2003 2112 
C 2368 2112 2573 1964 2662 1881 
C 2918 1632 2918 1459 2918 1024 
C 2918 595 2918 377 3110 160 
C 3354 -103 3680 -128 3821 -128 
C 4294 -128 4365 403 4365 512 
C 4365 550 4365 595 4307 595 
C 4256 595 4250 556 4250 531 
C 4218 115 4032 -26 3834 -26 
C 3482 -26 3443 377 3405 768 
C 3386 902 3373 998 3360 1139 
C 3322 1459 3270 1926 2509 2156 
z
M 1984 2214 
L 1254 2214 
L 1254 3935 
C 1254 4153 1267 4185 1523 4185 
L 1990 4185 
C 2522 4185 3142 3999 3142 3203 
C 3142 2374 2464 2214 1984 2214 
z
" transform="scale(0.015625)"/>
      </defs>
      <use xlink:href="#CMR17-66" transform="scale(0.996264)"/>
      <use xlink:href="#CMR17-6f" transform="translate(27.473512 0) scale(0.996264)"/>
      <use xlink:href="#CMR17-72" transform="translate(73.16399 0) scale(0.996264)"/>
      <use xlink:href="#CMR17-65" transform="translate(108.444757 0) scale(0.996264)"/>
      <use xlink:href="#CMR17-63" transform="translate(148.930418 0) scale(0.996264)"/>
      <use xlink:href="#CMR17-61" transform="translate(189.416078 0) scale(0.996264)"/>
      <use xlink:href="#CMR17-73" transform="translate(235.106555 0) scale(0.996264)"/>
      <use xlink:href="#CMR17-74" transform="translate(270.907893 0) scale(0.996264)"/>
      <use xlink:href="#CMR17-53" transform="translate(336.264627 0) scale(0.996264)"/>
      <use xlink:href="#CMR17-56" transform="translate(387.159997 0) scale(0.996264)"/>
      <use xlink:href="#CMR17-52" transform="translate(456.232427 0) scale(0.996264)"/>
     </g>
    </g>
    <g id="patch_7">
     <path d="M 48.296314 323.115404 
L 72.296314 323.115404 
L 72.296314 314.715404 
L 48.296314 314.715404 
z
" style="fill: #808080; fill-opacity: 0.3; stroke: #808080; stroke-opacity: 0.3; stroke-linejoin: miter"/>
    </g>
    <g id="text_17">
     <!-- 99 perc. CI -->
     <g transform="translate(81.896314 323.115404) scale(0.12 -0.12)">
      <defs>
       <path id="CMR17-39" d="M 2253 1871 
C 2253 448 1670 25 1190 25 
C 1043 25 685 43 538 281 
C 704 256 826 345 826 505 
C 826 678 685 736 595 736 
C 538 736 365 710 365 492 
C 365 68 742 -128 1203 -128 
C 1939 -128 2688 665 2688 2090 
C 2688 3857 1971 4224 1485 4224 
C 851 4224 243 3664 243 2800 
C 243 2000 762 1408 1414 1408 
C 1952 1408 2189 1910 2253 2122 
L 2253 1871 
z
M 1427 1510 
C 1254 1510 1011 1542 813 1929 
C 678 2181 678 2477 678 2793 
C 678 3174 678 3438 858 3722 
C 947 3857 1114 4076 1485 4076 
C 2240 4076 2240 2909 2240 2651 
C 2240 2193 2035 1510 1427 1510 
z
" transform="scale(0.015625)"/>
       <path id="CMR17-70" d="M 1408 -1114 
C 998 -1114 973 -1088 973 -834 
L 973 380 
C 1158 109 1427 -64 1766 -64 
C 2406 -64 3053 503 3053 1382 
C 3053 2196 2496 2816 1837 2816 
C 1453 2816 1139 2603 960 2345 
L 960 2816 
L 198 2745 
L 198 2577 
C 576 2577 634 2539 634 2228 
L 634 -834 
C 634 -1081 608 -1114 198 -1114 
L 198 -1280 
C 352 -1268 634 -1268 800 -1268 
C 966 -1268 1254 -1268 1408 -1280 
L 1408 -1114 
z
M 973 2015 
C 973 2106 973 2241 1222 2481 
C 1254 2506 1472 2700 1792 2700 
C 2259 2700 2643 2112 2643 1376 
C 2643 639 2234 38 1728 38 
C 1498 38 1248 148 1056 451 
C 973 594 973 632 973 736 
L 973 2015 
z
" transform="scale(0.015625)"/>
       <path id="CMR17-2e" d="M 1062 262 
C 1062 422 934 524 800 524 
C 672 524 538 422 538 262 
C 538 102 666 0 800 0 
C 928 0 1062 102 1062 262 
z
" transform="scale(0.015625)"/>
       <path id="CMR17-43" d="M 3974 4351 
C 3974 4467 3968 4473 3930 4473 
C 3904 4473 3898 4467 3853 4390 
L 3571 3849 
C 3258 4249 2874 4480 2381 4480 
C 1286 4480 294 3507 294 2179 
C 294 837 1286 -128 2387 -128 
C 3366 -128 3974 741 3974 1482 
C 3974 1547 3974 1573 3917 1573 
C 3866 1573 3866 1553 3859 1495 
C 3808 592 3168 38 2477 38 
C 1824 38 781 502 781 2179 
C 781 3862 1843 4313 2464 4313 
C 3187 4313 3712 3681 3834 2785 
C 3846 2707 3846 2695 3904 2695 
C 3974 2695 3974 2707 3974 2824 
L 3974 4351 
z
" transform="scale(0.015625)"/>
       <path id="CMR17-49" d="M 1261 3898 
C 1261 4185 1338 4185 1798 4185 
L 1798 4352 
C 1594 4339 1267 4339 1050 4339 
C 832 4339 506 4339 301 4352 
L 301 4185 
C 762 4185 838 4185 838 3898 
L 838 453 
C 838 166 762 166 301 166 
L 301 0 
C 506 12 832 12 1050 12 
C 1267 12 1594 12 1798 0 
L 1798 166 
C 1338 166 1261 166 1261 453 
L 1261 3898 
z
" transform="scale(0.015625)"/>
      </defs>
      <use xlink:href="#CMR17-39" transform="scale(0.996264)"/>
      <use xlink:href="#CMR17-39" transform="translate(45.690477 0) scale(0.996264)"/>
      <use xlink:href="#CMR17-70" transform="translate(121.456921 0) scale(0.996264)"/>
      <use xlink:href="#CMR17-65" transform="translate(174.954729 0) scale(0.996264)"/>
      <use xlink:href="#CMR17-72" transform="translate(215.44039 0) scale(0.996264)"/>
      <use xlink:href="#CMR17-63" transform="translate(250.721157 0) scale(0.996264)"/>
      <use xlink:href="#CMR17-2e" transform="translate(291.206818 0) scale(0.996264)"/>
      <use xlink:href="#CMR17-43" transform="translate(356.563537 0) scale(0.996264)"/>
      <use xlink:href="#CMR17-49" transform="translate(423.073417 0) scale(0.996264)"/>
     </g>
    </g>
   </g>
  </g>
 </g>
 <defs>
  <clipPath id="pe841dd182c">
   <rect x="37.496314" y="3.6" width="558" height="332.64"/>
  </clipPath>
 </defs>
</svg>
