<?xml version="1.0" encoding="utf-8" standalone="no"?>
<!DOCTYPE svg PUBLIC "-//W3C//DTD SVG 1.1//EN"
  "http://www.w3.org/Graphics/SVG/1.1/DTD/svg11.dtd">
<svg xmlns:xlink="http://www.w3.org/1999/xlink" width="599.096314pt" height="359.281364pt" viewBox="0 0 599.096314 359.281364" xmlns="http://www.w3.org/2000/svg" version="1.1">
 <metadata>
  <rdf:RDF xmlns:dc="http://purl.org/dc/elements/1.1/" xmlns:cc="http://creativecommons.org/ns#" xmlns:rdf="http://www.w3.org/1999/02/22-rdf-syntax-ns#">
   <cc:Work>
    <dc:type rdf:resource="http://purl.org/dc/dcmitype/StillImage"/>
    <dc:date>2025-03-20T12:36:38.602377</dc:date>
    <dc:format>image/svg+xml</dc:format>
    <dc:creator>
     <cc:Agent>
      <dc:title>Matplotlib v3.9.2, https://matplotlib.org/</dc:title>
     </cc:Agent>
    </dc:creator>
   </cc:Work>
  </rdf:RDF>
 </metadata>
 <defs>
  <style type="text/css">*{stroke-linejoin: round; stroke-linecap: butt}</style>
 </defs>
 <g id="figure_1">
  <g id="patch_1">
   <path d="M 0 359.281364 
L 599.096314 359.281364 
L 599.096314 0 
L 0 0 
z
" style="fill: #ffffff"/>
  </g>
  <g id="axes_1">
   <g id="patch_2">
    <path d="M 37.496314 336.24 
L 595.496314 336.24 
L 595.496314 3.6 
L 37.496314 3.6 
z
" style="fill: #ffffff"/>
   </g>
   <g id="PolyCollection_1">
    <defs>
     <path id="m50905e6f93" d="M 62.85995 -315.446013 
L 62.85995 -183.140789 
L 64.74527 -179.658696 
L 66.569773 -172.377732 
L 68.455093 -176.827603 
L 70.279597 -196.808387 
L 72.164917 -183.653514 
L 74.050237 -175.511101 
L 75.87474 -181.266682 
L 77.76006 -158.30086 
L 79.584563 -182.862994 
L 81.469883 -180.924493 
L 83.355203 -170.204584 
L 85.058073 -171.299266 
L 86.943393 -168.783805 
L 88.767896 -174.550056 
L 90.653216 -169.193545 
L 92.47772 -169.605438 
L 94.36304 -170.342134 
L 96.24836 -161.003425 
L 98.072863 -181.709148 
L 99.958183 -173.464738 
L 101.782686 -172.262264 
L 103.668006 -185.050555 
L 105.553327 -174.025456 
L 107.256196 -172.744218 
L 109.141516 -166.682418 
L 110.96602 -176.643121 
L 112.85134 -175.779452 
L 114.675843 -187.009878 
L 116.561163 -187.398573 
L 118.446483 -160.532656 
L 120.270986 -166.763811 
L 122.156306 -181.214802 
L 123.98081 -175.486675 
L 125.86613 -174.596541 
L 127.75145 -177.835987 
L 129.515136 -184.543212 
L 131.400456 -177.851306 
L 133.22496 -179.126057 
L 135.11028 -168.709098 
L 136.934783 -167.636853 
L 138.820103 -179.700104 
L 140.705423 -177.49157 
L 142.529926 -178.937321 
L 144.415246 -183.811366 
L 146.23975 -176.386021 
L 148.12507 -182.542674 
L 150.01039 -180.288592 
L 151.713259 -174.411458 
L 153.598579 -179.554949 
L 155.423083 -170.460856 
L 157.308403 -175.898749 
L 159.132906 -181.940837 
L 161.018226 -182.481919 
L 162.903546 -175.163021 
L 164.728049 -175.158898 
L 166.613369 -177.71511 
L 168.437873 -169.925076 
L 170.323193 -180.989833 
L 172.208513 -181.06292 
L 173.911383 -179.453828 
L 175.796703 -173.6515 
L 177.621206 -175.615489 
L 179.506526 -173.049918 
L 181.331029 -174.468703 
L 183.216349 -173.447625 
L 185.101669 -176.736948 
L 186.926173 -182.797591 
L 188.811493 -182.669581 
L 190.635996 -181.619716 
L 192.521316 -181.59879 
L 194.406636 -180.38441 
L 196.109506 -173.951087 
L 197.994826 -179.945974 
L 199.819329 -176.798843 
L 201.704649 -180.53238 
L 203.529152 -181.258817 
L 205.414472 -172.510508 
L 207.299792 -180.072221 
L 209.124296 -178.919858 
L 211.009616 -183.802914 
L 212.834119 -179.987947 
L 214.719439 -180.005177 
L 216.604759 -177.116707 
L 218.368446 -179.163414 
L 220.253766 -174.194507 
L 222.078269 -178.906065 
L 223.963589 -174.906719 
L 225.788092 -174.257539 
L 227.673412 -169.759773 
L 229.558732 -172.164021 
L 231.383236 -179.148304 
L 233.268556 -175.745954 
L 235.093059 -164.153886 
L 236.978379 -45.378283 
L 238.863699 -172.155512 
L 240.566569 -133.443012 
L 242.451889 -117.05704 
L 244.276392 -154.012304 
L 246.161712 -173.949754 
L 247.986216 -153.026875 
L 249.871536 -186.22972 
L 251.756856 -175.208352 
L 253.581359 -177.014118 
L 255.466679 -177.335331 
L 257.291182 -190.483517 
L 259.176502 -201.210857 
L 261.061822 -192.520827 
L 262.764692 -162.320901 
L 264.650012 -171.509046 
L 266.474515 -181.20625 
L 268.359835 -176.161048 
L 270.184339 -171.297143 
L 272.069659 -171.714085 
L 273.954979 -175.84293 
L 275.779482 -180.95036 
L 277.664802 -176.410871 
L 279.489305 -182.701522 
L 281.374625 -168.806856 
L 283.259946 -168.043443 
L 284.962815 -181.27617 
L 286.848135 -173.300349 
L 288.672639 -175.883717 
L 290.557959 -175.468366 
L 292.382462 -180.435901 
L 294.267782 -170.877338 
L 296.153102 -178.338643 
L 297.977605 -171.595788 
L 299.862925 -177.880389 
L 301.687429 -168.6563 
L 303.572749 -181.59076 
L 305.458069 -175.871558 
L 307.221755 -181.561896 
L 309.107075 -179.26627 
L 310.931579 -168.493975 
L 312.816899 -178.629126 
L 314.641402 -176.994033 
L 316.526722 -177.932847 
L 318.412042 -180.362496 
L 320.236545 -169.903762 
L 322.121865 -179.012186 
L 323.946369 -170.824121 
L 325.831689 -172.357406 
L 327.717009 -174.020616 
L 329.419878 -171.732429 
L 331.305198 -176.97791 
L 333.129702 -178.045853 
L 335.015022 -181.628374 
L 336.839525 -173.102923 
L 338.724845 -163.360584 
L 340.610165 -179.115952 
L 342.434668 -173.836541 
L 344.319988 -174.337454 
L 346.144492 -180.961693 
L 348.029812 -174.281837 
L 349.915132 -171.202046 
L 351.618002 -175.715176 
L 353.503322 -177.144012 
L 355.327825 -177.189097 
L 357.213145 -173.637045 
L 359.037648 -179.866653 
L 360.922968 -176.492671 
L 362.808288 -178.158155 
L 364.632792 -176.517106 
L 366.518112 -173.293823 
L 368.342615 -176.281991 
L 370.227935 -180.347094 
L 372.113255 -179.36938 
L 373.816125 -181.92901 
L 375.701445 -172.488644 
L 377.525948 -172.714265 
L 379.411268 -178.703967 
L 381.235771 -167.476802 
L 383.121091 -174.407905 
L 385.006411 -176.264836 
L 386.830915 -175.533464 
L 388.716235 -166.88807 
L 390.540738 -183.549696 
L 392.426058 -170.879047 
L 394.311378 -174.650256 
L 396.075065 -167.462736 
L 397.960385 -182.671518 
L 399.784888 -177.324253 
L 401.670208 -182.7592 
L 403.494711 -172.903639 
L 405.380031 -181.988305 
L 407.265351 -185.69841 
L 409.089855 -171.02591 
L 410.975175 -170.322668 
L 412.799678 -170.358155 
L 414.684998 -169.411546 
L 416.570318 -177.437056 
L 418.273188 -178.708725 
L 420.158508 -177.476976 
L 421.983011 -174.109736 
L 423.868331 -178.401388 
L 425.692835 -176.715463 
L 427.578155 -181.186166 
L 429.463475 -171.16387 
L 431.287978 -178.385252 
L 433.173298 -177.412315 
L 434.997801 -173.36972 
L 436.883121 -177.524414 
L 438.768441 -177.651994 
L 440.471311 -176.946023 
L 442.356631 -166.839103 
L 444.181134 -177.577376 
L 446.066454 -172.32644 
L 447.890958 -176.858131 
L 449.776278 -180.094856 
L 451.661598 -177.499935 
L 453.486101 -178.632072 
L 455.371421 -174.490595 
L 457.195924 -167.080503 
L 459.081244 -173.448245 
L 460.966565 -172.675093 
L 462.669434 -181.587371 
L 464.554754 -186.664641 
L 466.379258 -181.588489 
L 468.264578 -182.762086 
L 470.089081 -176.963241 
L 471.974401 -187.473349 
L 473.859721 -193.730194 
L 475.684224 -170.600097 
L 477.569544 -178.934781 
L 479.394048 -174.096726 
L 481.279368 -178.220336 
L 483.164688 -177.549096 
L 484.928374 -180.371184 
L 486.813694 -178.048664 
L 488.638198 -156.589472 
L 490.523518 -189.513984 
L 492.348021 -175.467054 
L 494.233341 -175.110415 
L 496.118661 -183.442158 
L 497.943164 -180.429873 
L 499.828484 -168.819077 
L 501.652988 -170.001651 
L 503.538308 -179.41913 
L 505.423628 -179.015672 
L 507.126497 -174.107926 
L 509.011817 -176.868833 
L 510.836321 -171.789769 
L 512.721641 -183.078302 
L 514.546144 -175.437303 
L 516.431464 -179.073496 
L 518.316784 -183.328045 
L 520.141287 -177.982133 
L 522.026607 -170.009145 
L 523.851111 -173.444986 
L 525.736431 -181.969539 
L 527.621751 -175.93195 
L 529.324621 -169.092845 
L 531.209941 -171.629362 
L 533.034444 -171.997203 
L 534.919764 -169.839186 
L 536.744267 -166.813206 
L 538.629587 -169.77776 
L 540.514907 -176.890327 
L 542.339411 -183.539874 
L 544.224731 -156.660607 
L 546.049234 -168.553505 
L 547.934554 -183.191951 
L 549.819874 -175.023195 
L 551.522744 -177.718104 
L 553.408064 -173.234229 
L 555.232567 -171.381026 
L 557.117887 -183.043264 
L 558.94239 -170.247337 
L 560.82771 -177.720873 
L 562.71303 -177.093166 
L 564.537534 -167.380369 
L 566.422854 -170.307263 
L 568.247357 -166.87392 
L 570.132677 -183.231629 
L 570.132677 -324.230633 
L 570.132677 -324.230633 
L 568.247357 -307.804634 
L 566.422854 -311.242496 
L 564.537534 -308.38706 
L 562.71303 -318.147538 
L 560.82771 -318.804167 
L 558.94239 -311.265231 
L 557.117887 -324.125639 
L 555.232567 -312.456897 
L 553.408064 -314.315458 
L 551.522744 -318.848045 
L 549.819874 -316.224487 
L 547.934554 -324.451083 
L 546.049234 -309.721293 
L 544.224731 -297.873997 
L 542.339411 -324.266891 
L 540.514907 -317.517561 
L 538.629587 -310.48554 
L 536.744267 -307.522359 
L 534.919764 -310.184891 
L 533.034444 -312.417213 
L 531.209941 -312.113039 
L 529.324621 -309.599592 
L 527.621751 -316.461376 
L 525.736431 -322.562363 
L 523.851111 -314.001933 
L 522.026607 -310.636008 
L 520.141287 -318.676977 
L 518.316784 -324.095972 
L 516.431464 -319.897496 
L 514.546144 -316.326998 
L 512.721641 -324.036547 
L 510.836321 -312.638683 
L 509.011817 -317.794235 
L 507.126497 -315.087789 
L 505.423628 -320.055262 
L 503.538308 -319.325525 
L 501.652988 -309.902867 
L 499.828484 -308.782342 
L 497.943164 -320.444251 
L 496.118661 -324.580588 
L 494.233341 -316.27406 
L 492.348021 -315.329308 
L 490.523518 -329.319911 
L 488.638198 -296.272799 
L 486.813694 -314.815711 
L 484.928374 -317.190868 
L 483.164688 -314.40742 
L 481.279368 -315.13493 
L 479.394048 -310.986132 
L 477.569544 -315.892114 
L 475.684224 -307.562717 
L 473.859721 -330.525594 
L 471.974401 -324.324773 
L 470.089081 -313.890813 
L 468.264578 -319.69752 
L 466.379258 -318.564347 
L 464.554754 -323.719081 
L 462.669434 -318.60754 
L 460.966565 -309.751791 
L 459.081244 -310.349416 
L 457.195924 -304.042576 
L 455.371421 -311.384379 
L 453.486101 -315.599484 
L 451.661598 -314.531707 
L 449.776278 -317.200731 
L 447.890958 -314.032949 
L 446.066454 -309.554849 
L 444.181134 -314.842065 
L 442.356631 -304.187781 
L 440.471311 -314.272594 
L 438.768441 -314.942097 
L 436.883121 -314.8727 
L 434.997801 -310.783369 
L 433.173298 -314.890791 
L 431.287978 -315.939076 
L 429.463475 -308.795506 
L 427.578155 -318.894156 
L 425.692835 -314.495393 
L 423.868331 -317.360967 
L 421.983011 -313.146956 
L 420.158508 -316.590745 
L 418.273188 -317.886266 
L 416.570318 -316.691258 
L 414.684998 -307.547303 
L 412.799678 -308.563855 
L 410.975175 -308.606712 
L 409.089855 -309.392635 
L 407.265351 -324.141637 
L 405.380031 -320.498687 
L 403.494711 -311.484577 
L 401.670208 -321.393866 
L 399.784888 -316.00179 
L 397.960385 -322.399945 
L 396.075065 -307.271907 
L 394.311378 -313.064634 
L 392.426058 -310.463751 
L 390.540738 -323.213702 
L 388.716235 -306.484249 
L 386.830915 -315.004865 
L 385.006411 -315.742884 
L 383.121091 -313.964615 
L 381.235771 -307.11888 
L 379.411268 -318.42264 
L 377.525948 -312.51417 
L 375.701445 -312.372321 
L 373.816125 -321.882443 
L 372.113255 -319.367481 
L 370.227935 -320.421698 
L 368.342615 -316.291093 
L 366.518112 -313.314809 
L 364.632792 -316.615693 
L 362.808288 -318.318757 
L 360.922968 -316.736132 
L 359.037648 -320.173177 
L 357.213145 -314.020141 
L 355.327825 -317.649826 
L 353.503322 -317.671686 
L 351.618002 -316.31891 
L 349.915132 -311.885539 
L 348.029812 -315.042036 
L 346.144492 -321.776715 
L 344.319988 -315.221102 
L 342.434668 -314.803038 
L 340.610165 -320.155092 
L 338.724845 -304.380356 
L 336.839525 -314.189224 
L 335.015022 -322.746736 
L 333.129702 -319.24893 
L 331.305198 -318.247975 
L 329.419878 -313.07443 
L 327.717009 -315.359586 
L 325.831689 -313.768358 
L 323.946369 -312.238179 
L 322.121865 -320.496048 
L 320.236545 -311.434763 
L 318.412042 -321.956888 
L 316.526722 -319.594968 
L 314.641402 -318.704539 
L 312.816899 -320.284676 
L 310.931579 -310.234572 
L 309.107075 -321.079835 
L 307.221755 -323.421721 
L 305.458069 -317.715391 
L 303.572749 -323.518629 
L 301.687429 -310.653432 
L 299.862925 -319.943656 
L 297.977605 -313.734812 
L 296.153102 -319.445539 
L 294.267782 -312.015054 
L 292.382462 -321.456126 
L 290.557959 -316.576622 
L 288.672639 -317.067557 
L 286.848135 -314.544458 
L 284.962815 -322.59239 
L 283.259946 -309.371409 
L 281.374625 -310.130996 
L 279.489305 -324.11535 
L 277.664802 -317.830784 
L 275.779482 -322.434745 
L 273.954979 -317.413503 
L 272.069659 -313.373682 
L 270.184339 -312.921984 
L 268.359835 -317.492955 
L 266.474515 -322.587199 
L 264.650012 -312.76349 
L 262.764692 -300.784715 
L 261.061822 -331.849817 
L 259.176502 -340.561364 
L 257.291182 -329.891411 
L 255.466679 -317.602216 
L 253.581359 -317.308145 
L 251.756856 -315.244893 
L 249.871536 -326.338496 
L 247.986216 -293.165693 
L 246.161712 -313.969977 
L 244.276392 -288.688748 
L 242.451889 -253.169238 
L 240.566569 -269.440124 
L 238.863699 -311.7039 
L 236.978379 -184.736751 
L 235.093059 -304.7772 
L 233.268556 -311.291822 
L 231.383236 -314.471525 
L 229.558732 -307.570138 
L 227.673412 -304.93764 
L 225.788092 -309.34991 
L 223.963589 -310.037788 
L 222.078269 -314.039715 
L 220.253766 -309.335303 
L 218.368446 -314.334107 
L 216.604759 -311.920883 
L 214.719439 -314.902981 
L 212.834119 -314.65677 
L 211.009616 -318.548717 
L 209.124296 -313.72084 
L 207.299792 -314.709189 
L 205.414472 -307.249925 
L 203.529152 -316.07221 
L 201.704649 -315.39248 
L 199.819329 -311.633146 
L 197.994826 -314.672916 
L 196.109506 -308.759627 
L 194.406636 -316.365386 
L 192.521316 -317.665763 
L 190.635996 -317.762593 
L 188.811493 -318.828377 
L 186.926173 -319.052211 
L 185.101669 -313.146062 
L 183.216349 -309.948336 
L 181.331029 -310.976934 
L 179.506526 -309.558514 
L 177.621206 -312.219187 
L 175.796703 -309.782101 
L 173.911383 -314.630547 
L 172.208513 -316.338255 
L 170.323193 -316.358752 
L 168.437873 -304.074306 
L 166.613369 -313.042098 
L 164.728049 -310.583172 
L 162.903546 -310.680661 
L 161.018226 -318.124423 
L 159.132906 -317.676582 
L 157.308403 -311.71893 
L 155.423083 -306.328684 
L 153.598579 -315.506276 
L 151.713259 -310.441514 
L 150.01039 -316.319719 
L 148.12507 -318.659322 
L 146.23975 -312.470656 
L 144.415246 -319.968209 
L 142.529926 -315.163008 
L 140.705423 -313.766678 
L 138.820103 -315.976424 
L 136.934783 -303.928241 
L 135.11028 -306.105914 
L 133.22496 -315.559281 
L 131.400456 -314.323832 
L 129.515136 -322.201915 
L 127.75145 -315.42809 
L 125.86613 -312.232314 
L 123.98081 -312.151454 
L 122.156306 -317.966135 
L 120.270986 -303.494642 
L 118.446483 -297.354692 
L 116.561163 -324.293208 
L 114.675843 -323.88695 
L 112.85134 -312.565577 
L 110.96602 -313.357962 
L 109.141516 -303.449905 
L 107.256196 -309.183641 
L 105.553327 -310.553902 
L 103.668006 -321.600637 
L 101.782686 -308.596212 
L 99.958183 -309.878294 
L 98.072863 -317.874747 
L 96.24836 -297.19985 
L 94.36304 -305.60265 
L 92.47772 -305.672972 
L 90.653216 -305.300263 
L 88.767896 -310.618039 
L 86.943393 -303.735266 
L 85.058073 -306.221039 
L 83.355203 -305.212636 
L 81.469883 -316.019869 
L 79.584563 -317.933794 
L 77.76006 -293.306251 
L 75.87474 -314.703454 
L 74.050237 -308.995006 
L 72.164917 -317.12202 
L 70.279597 -330.153876 
L 68.455093 -309.937681 
L 66.569773 -305.590927 
L 64.74527 -311.973117 
L 62.85995 -315.446013 
z
" style="stroke: #808080; stroke-opacity: 0.3"/>
    </defs>
    <g clip-path="url(#p6f128af4da)">
     <use xlink:href="#m50905e6f93" x="0" y="359.281364" style="fill: #808080; fill-opacity: 0.3; stroke: #808080; stroke-opacity: 0.3"/>
    </g>
   </g>
   <g id="matplotlib.axis_1">
    <g id="xtick_1">
     <g id="line2d_1">
      <defs>
       <path id="m781550e1e5" d="M 0 0 
L 0 -3 
" style="stroke: #000000; stroke-width: 0.5"/>
      </defs>
      <g>
       <use xlink:href="#m781550e1e5" x="125.926946" y="336.24" style="stroke: #000000; stroke-width: 0.5"/>
      </g>
     </g>
     <g id="line2d_2">
      <defs>
       <path id="mdcf545e6f6" d="M 0 0 
L 0 3 
" style="stroke: #000000; stroke-width: 0.5"/>
      </defs>
      <g>
       <use xlink:href="#mdcf545e6f6" x="125.926946" y="3.6" style="stroke: #000000; stroke-width: 0.5"/>
      </g>
     </g>
     <g id="text_1">
      <!-- $\mathdefault{2004}$ -->
      <g transform="translate(109.478375 352.1933) scale(0.18 -0.18)">
       <defs>
        <path id="CMR17-32" d="M 2669 990 
L 2554 990 
C 2490 537 2438 460 2413 422 
C 2381 371 1920 371 1830 371 
L 602 371 
C 832 620 1280 1073 1824 1596 
C 2214 1966 2669 2400 2669 3033 
C 2669 3788 2067 4224 1395 4224 
C 691 4224 262 3603 262 3027 
C 262 2777 448 2745 525 2745 
C 589 2745 781 2783 781 3007 
C 781 3206 614 3264 525 3264 
C 486 3264 448 3257 422 3244 
C 544 3788 915 4057 1306 4057 
C 1862 4057 2227 3616 2227 3033 
C 2227 2477 1901 1998 1536 1583 
L 262 147 
L 262 0 
L 2515 0 
L 2669 990 
z
" transform="scale(0.015625)"/>
        <path id="CMR17-30" d="M 2688 2038 
C 2688 2430 2682 3099 2413 3613 
C 2176 4063 1798 4224 1466 4224 
C 1158 4224 768 4082 525 3620 
C 269 3137 243 2539 243 2038 
C 243 1671 250 1112 448 623 
C 723 -39 1216 -128 1466 -128 
C 1760 -128 2208 -7 2470 604 
C 2662 1048 2688 1568 2688 2038 
z
M 1466 -26 
C 1056 -26 813 328 723 816 
C 653 1196 653 1749 653 2109 
C 653 2604 653 3015 736 3407 
C 858 3954 1216 4121 1466 4121 
C 1728 4121 2067 3947 2189 3420 
C 2272 3054 2278 2623 2278 2109 
C 2278 1691 2278 1176 2202 797 
C 2067 96 1690 -26 1466 -26 
z
" transform="scale(0.015625)"/>
        <path id="CMR17-34" d="M 2150 4147 
C 2150 4281 2144 4288 2029 4288 
L 128 1254 
L 128 1088 
L 1779 1088 
L 1779 460 
C 1779 230 1766 166 1318 166 
L 1197 166 
L 1197 0 
C 1402 12 1747 12 1965 12 
C 2182 12 2528 12 2733 0 
L 2733 166 
L 2611 166 
C 2163 166 2150 230 2150 460 
L 2150 1088 
L 2803 1088 
L 2803 1254 
L 2150 1254 
L 2150 4147 
z
M 1798 3723 
L 1798 1254 
L 256 1254 
L 1798 3723 
z
" transform="scale(0.015625)"/>
       </defs>
       <use xlink:href="#CMR17-32" transform="scale(0.996264)"/>
       <use xlink:href="#CMR17-30" transform="translate(45.690477 0) scale(0.996264)"/>
       <use xlink:href="#CMR17-30" transform="translate(91.380954 0) scale(0.996264)"/>
       <use xlink:href="#CMR17-34" transform="translate(137.071431 0) scale(0.996264)"/>
      </g>
     </g>
    </g>
    <g id="xtick_2">
     <g id="line2d_3">
      <g>
       <use xlink:href="#m781550e1e5" x="214.780256" y="336.24" style="stroke: #000000; stroke-width: 0.5"/>
      </g>
     </g>
     <g id="line2d_4">
      <g>
       <use xlink:href="#mdcf545e6f6" x="214.780256" y="3.6" style="stroke: #000000; stroke-width: 0.5"/>
      </g>
     </g>
     <g id="text_2">
      <!-- $\mathdefault{2008}$ -->
      <g transform="translate(198.331684 352.1933) scale(0.18 -0.18)">
       <defs>
        <path id="CMR17-38" d="M 1741 2289 
C 2144 2494 2554 2803 2554 3298 
C 2554 3884 1990 4224 1472 4224 
C 890 4224 378 3800 378 3215 
C 378 3054 416 2777 666 2533 
C 730 2469 998 2276 1171 2154 
C 883 2006 211 1652 211 945 
C 211 282 838 -128 1459 -128 
C 2144 -128 2720 366 2720 1022 
C 2720 1607 2330 1877 2074 2051 
L 1741 2289 
z
M 902 2855 
C 851 2887 595 3086 595 3388 
C 595 3781 998 4076 1459 4076 
C 1965 4076 2336 3716 2336 3298 
C 2336 2700 1670 2359 1638 2359 
C 1632 2359 1626 2359 1574 2398 
L 902 2855 
z
M 2080 1536 
C 2176 1466 2483 1253 2483 861 
C 2483 385 2010 25 1472 25 
C 890 25 448 443 448 951 
C 448 1459 838 1884 1280 2083 
L 2080 1536 
z
" transform="scale(0.015625)"/>
       </defs>
       <use xlink:href="#CMR17-32" transform="scale(0.996264)"/>
       <use xlink:href="#CMR17-30" transform="translate(45.690477 0) scale(0.996264)"/>
       <use xlink:href="#CMR17-30" transform="translate(91.380954 0) scale(0.996264)"/>
       <use xlink:href="#CMR17-38" transform="translate(137.071431 0) scale(0.996264)"/>
      </g>
     </g>
    </g>
    <g id="xtick_3">
     <g id="line2d_5">
      <g>
       <use xlink:href="#m781550e1e5" x="303.633565" y="336.24" style="stroke: #000000; stroke-width: 0.5"/>
      </g>
     </g>
     <g id="line2d_6">
      <g>
       <use xlink:href="#mdcf545e6f6" x="303.633565" y="3.6" style="stroke: #000000; stroke-width: 0.5"/>
      </g>
     </g>
     <g id="text_3">
      <!-- $\mathdefault{2012}$ -->
      <g transform="translate(287.184994 352.1933) scale(0.18 -0.18)">
       <defs>
        <path id="CMR17-31" d="M 1702 4083 
C 1702 4217 1696 4224 1606 4224 
C 1357 3927 979 3833 621 3820 
C 602 3820 570 3820 563 3808 
C 557 3795 557 3782 557 3648 
C 755 3648 1088 3686 1344 3839 
L 1344 467 
C 1344 243 1331 166 781 166 
L 589 166 
L 589 0 
C 896 6 1216 12 1523 12 
C 1830 12 2150 6 2458 0 
L 2458 166 
L 2266 166 
C 1715 166 1702 236 1702 467 
L 1702 4083 
z
" transform="scale(0.015625)"/>
       </defs>
       <use xlink:href="#CMR17-32" transform="scale(0.996264)"/>
       <use xlink:href="#CMR17-30" transform="translate(45.690477 0) scale(0.996264)"/>
       <use xlink:href="#CMR17-31" transform="translate(91.380954 0) scale(0.996264)"/>
       <use xlink:href="#CMR17-32" transform="translate(137.071431 0) scale(0.996264)"/>
      </g>
     </g>
    </g>
    <g id="xtick_4">
     <g id="line2d_7">
      <g>
       <use xlink:href="#m781550e1e5" x="392.486875" y="336.24" style="stroke: #000000; stroke-width: 0.5"/>
      </g>
     </g>
     <g id="line2d_8">
      <g>
       <use xlink:href="#mdcf545e6f6" x="392.486875" y="3.6" style="stroke: #000000; stroke-width: 0.5"/>
      </g>
     </g>
     <g id="text_4">
      <!-- $\mathdefault{2016}$ -->
      <g transform="translate(376.038303 352.1933) scale(0.18 -0.18)">
       <defs>
        <path id="CMR17-36" d="M 678 2198 
C 678 3712 1395 4076 1811 4076 
C 1946 4076 2272 4049 2400 3782 
C 2298 3782 2106 3782 2106 3558 
C 2106 3385 2246 3328 2336 3328 
C 2394 3328 2566 3353 2566 3571 
C 2566 3987 2246 4224 1805 4224 
C 1043 4224 243 3411 243 2011 
C 243 257 966 -128 1478 -128 
C 2099 -128 2688 431 2688 1295 
C 2688 2101 2170 2688 1517 2688 
C 1126 2688 838 2430 678 1979 
L 678 2198 
z
M 1478 25 
C 691 25 691 1212 691 1450 
C 691 1914 909 2585 1504 2585 
C 1613 2585 1926 2585 2138 2140 
C 2253 1889 2253 1624 2253 1302 
C 2253 954 2253 696 2118 438 
C 1978 173 1773 25 1478 25 
z
" transform="scale(0.015625)"/>
       </defs>
       <use xlink:href="#CMR17-32" transform="scale(0.996264)"/>
       <use xlink:href="#CMR17-30" transform="translate(45.690477 0) scale(0.996264)"/>
       <use xlink:href="#CMR17-31" transform="translate(91.380954 0) scale(0.996264)"/>
       <use xlink:href="#CMR17-36" transform="translate(137.071431 0) scale(0.996264)"/>
      </g>
     </g>
    </g>
    <g id="xtick_5">
     <g id="line2d_9">
      <g>
       <use xlink:href="#m781550e1e5" x="481.340184" y="336.24" style="stroke: #000000; stroke-width: 0.5"/>
      </g>
     </g>
     <g id="line2d_10">
      <g>
       <use xlink:href="#mdcf545e6f6" x="481.340184" y="3.6" style="stroke: #000000; stroke-width: 0.5"/>
      </g>
     </g>
     <g id="text_5">
      <!-- $\mathdefault{2020}$ -->
      <g transform="translate(464.891613 352.1933) scale(0.18 -0.18)">
       <use xlink:href="#CMR17-32" transform="scale(0.996264)"/>
       <use xlink:href="#CMR17-30" transform="translate(45.690477 0) scale(0.996264)"/>
       <use xlink:href="#CMR17-32" transform="translate(91.380954 0) scale(0.996264)"/>
       <use xlink:href="#CMR17-30" transform="translate(137.071431 0) scale(0.996264)"/>
      </g>
     </g>
    </g>
    <g id="xtick_6">
     <g id="line2d_11">
      <g>
       <use xlink:href="#m781550e1e5" x="570.193494" y="336.24" style="stroke: #000000; stroke-width: 0.5"/>
      </g>
     </g>
     <g id="line2d_12">
      <g>
       <use xlink:href="#mdcf545e6f6" x="570.193494" y="3.6" style="stroke: #000000; stroke-width: 0.5"/>
      </g>
     </g>
     <g id="text_6">
      <!-- $\mathdefault{2024}$ -->
      <g transform="translate(553.744922 352.1933) scale(0.18 -0.18)">
       <use xlink:href="#CMR17-32" transform="scale(0.996264)"/>
       <use xlink:href="#CMR17-30" transform="translate(45.690477 0) scale(0.996264)"/>
       <use xlink:href="#CMR17-32" transform="translate(91.380954 0) scale(0.996264)"/>
       <use xlink:href="#CMR17-34" transform="translate(137.071431 0) scale(0.996264)"/>
      </g>
     </g>
    </g>
    <g id="xtick_7">
     <g id="line2d_13">
      <defs>
       <path id="m1133080971" d="M 0 0 
L 0 -1.5 
" style="stroke: #000000; stroke-width: 0.5"/>
      </defs>
      <g>
       <use xlink:href="#m1133080971" x="59.286964" y="336.24" style="stroke: #000000; stroke-width: 0.5"/>
      </g>
     </g>
     <g id="line2d_14">
      <defs>
       <path id="m57495114bc" d="M 0 0 
L 0 1.5 
" style="stroke: #000000; stroke-width: 0.5"/>
      </defs>
      <g>
       <use xlink:href="#m57495114bc" x="59.286964" y="3.6" style="stroke: #000000; stroke-width: 0.5"/>
      </g>
     </g>
    </g>
    <g id="xtick_8">
     <g id="line2d_15">
      <g>
       <use xlink:href="#m1133080971" x="81.500292" y="336.24" style="stroke: #000000; stroke-width: 0.5"/>
      </g>
     </g>
     <g id="line2d_16">
      <g>
       <use xlink:href="#m57495114bc" x="81.500292" y="3.6" style="stroke: #000000; stroke-width: 0.5"/>
      </g>
     </g>
    </g>
    <g id="xtick_9">
     <g id="line2d_17">
      <g>
       <use xlink:href="#m1133080971" x="103.713619" y="336.24" style="stroke: #000000; stroke-width: 0.5"/>
      </g>
     </g>
     <g id="line2d_18">
      <g>
       <use xlink:href="#m57495114bc" x="103.713619" y="3.6" style="stroke: #000000; stroke-width: 0.5"/>
      </g>
     </g>
    </g>
    <g id="xtick_10">
     <g id="line2d_19">
      <g>
       <use xlink:href="#m1133080971" x="148.140274" y="336.24" style="stroke: #000000; stroke-width: 0.5"/>
      </g>
     </g>
     <g id="line2d_20">
      <g>
       <use xlink:href="#m57495114bc" x="148.140274" y="3.6" style="stroke: #000000; stroke-width: 0.5"/>
      </g>
     </g>
    </g>
    <g id="xtick_11">
     <g id="line2d_21">
      <g>
       <use xlink:href="#m1133080971" x="170.353601" y="336.24" style="stroke: #000000; stroke-width: 0.5"/>
      </g>
     </g>
     <g id="line2d_22">
      <g>
       <use xlink:href="#m57495114bc" x="170.353601" y="3.6" style="stroke: #000000; stroke-width: 0.5"/>
      </g>
     </g>
    </g>
    <g id="xtick_12">
     <g id="line2d_23">
      <g>
       <use xlink:href="#m1133080971" x="192.566929" y="336.24" style="stroke: #000000; stroke-width: 0.5"/>
      </g>
     </g>
     <g id="line2d_24">
      <g>
       <use xlink:href="#m57495114bc" x="192.566929" y="3.6" style="stroke: #000000; stroke-width: 0.5"/>
      </g>
     </g>
    </g>
    <g id="xtick_13">
     <g id="line2d_25">
      <g>
       <use xlink:href="#m1133080971" x="236.993583" y="336.24" style="stroke: #000000; stroke-width: 0.5"/>
      </g>
     </g>
     <g id="line2d_26">
      <g>
       <use xlink:href="#m57495114bc" x="236.993583" y="3.6" style="stroke: #000000; stroke-width: 0.5"/>
      </g>
     </g>
    </g>
    <g id="xtick_14">
     <g id="line2d_27">
      <g>
       <use xlink:href="#m1133080971" x="259.206911" y="336.24" style="stroke: #000000; stroke-width: 0.5"/>
      </g>
     </g>
     <g id="line2d_28">
      <g>
       <use xlink:href="#m57495114bc" x="259.206911" y="3.6" style="stroke: #000000; stroke-width: 0.5"/>
      </g>
     </g>
    </g>
    <g id="xtick_15">
     <g id="line2d_29">
      <g>
       <use xlink:href="#m1133080971" x="281.420238" y="336.24" style="stroke: #000000; stroke-width: 0.5"/>
      </g>
     </g>
     <g id="line2d_30">
      <g>
       <use xlink:href="#m57495114bc" x="281.420238" y="3.6" style="stroke: #000000; stroke-width: 0.5"/>
      </g>
     </g>
    </g>
    <g id="xtick_16">
     <g id="line2d_31">
      <g>
       <use xlink:href="#m1133080971" x="325.846893" y="336.24" style="stroke: #000000; stroke-width: 0.5"/>
      </g>
     </g>
     <g id="line2d_32">
      <g>
       <use xlink:href="#m57495114bc" x="325.846893" y="3.6" style="stroke: #000000; stroke-width: 0.5"/>
      </g>
     </g>
    </g>
    <g id="xtick_17">
     <g id="line2d_33">
      <g>
       <use xlink:href="#m1133080971" x="348.06022" y="336.24" style="stroke: #000000; stroke-width: 0.5"/>
      </g>
     </g>
     <g id="line2d_34">
      <g>
       <use xlink:href="#m57495114bc" x="348.06022" y="3.6" style="stroke: #000000; stroke-width: 0.5"/>
      </g>
     </g>
    </g>
    <g id="xtick_18">
     <g id="line2d_35">
      <g>
       <use xlink:href="#m1133080971" x="370.273548" y="336.24" style="stroke: #000000; stroke-width: 0.5"/>
      </g>
     </g>
     <g id="line2d_36">
      <g>
       <use xlink:href="#m57495114bc" x="370.273548" y="3.6" style="stroke: #000000; stroke-width: 0.5"/>
      </g>
     </g>
    </g>
    <g id="xtick_19">
     <g id="line2d_37">
      <g>
       <use xlink:href="#m1133080971" x="414.700202" y="336.24" style="stroke: #000000; stroke-width: 0.5"/>
      </g>
     </g>
     <g id="line2d_38">
      <g>
       <use xlink:href="#m57495114bc" x="414.700202" y="3.6" style="stroke: #000000; stroke-width: 0.5"/>
      </g>
     </g>
    </g>
    <g id="xtick_20">
     <g id="line2d_39">
      <g>
       <use xlink:href="#m1133080971" x="436.91353" y="336.24" style="stroke: #000000; stroke-width: 0.5"/>
      </g>
     </g>
     <g id="line2d_40">
      <g>
       <use xlink:href="#m57495114bc" x="436.91353" y="3.6" style="stroke: #000000; stroke-width: 0.5"/>
      </g>
     </g>
    </g>
    <g id="xtick_21">
     <g id="line2d_41">
      <g>
       <use xlink:href="#m1133080971" x="459.126857" y="336.24" style="stroke: #000000; stroke-width: 0.5"/>
      </g>
     </g>
     <g id="line2d_42">
      <g>
       <use xlink:href="#m57495114bc" x="459.126857" y="3.6" style="stroke: #000000; stroke-width: 0.5"/>
      </g>
     </g>
    </g>
    <g id="xtick_22">
     <g id="line2d_43">
      <g>
       <use xlink:href="#m1133080971" x="503.553512" y="336.24" style="stroke: #000000; stroke-width: 0.5"/>
      </g>
     </g>
     <g id="line2d_44">
      <g>
       <use xlink:href="#m57495114bc" x="503.553512" y="3.6" style="stroke: #000000; stroke-width: 0.5"/>
      </g>
     </g>
    </g>
    <g id="xtick_23">
     <g id="line2d_45">
      <g>
       <use xlink:href="#m1133080971" x="525.766839" y="336.24" style="stroke: #000000; stroke-width: 0.5"/>
      </g>
     </g>
     <g id="line2d_46">
      <g>
       <use xlink:href="#m57495114bc" x="525.766839" y="3.6" style="stroke: #000000; stroke-width: 0.5"/>
      </g>
     </g>
    </g>
    <g id="xtick_24">
     <g id="line2d_47">
      <g>
       <use xlink:href="#m1133080971" x="547.980167" y="336.24" style="stroke: #000000; stroke-width: 0.5"/>
      </g>
     </g>
     <g id="line2d_48">
      <g>
       <use xlink:href="#m57495114bc" x="547.980167" y="3.6" style="stroke: #000000; stroke-width: 0.5"/>
      </g>
     </g>
    </g>
    <g id="xtick_25">
     <g id="line2d_49">
      <g>
       <use xlink:href="#m1133080971" x="592.406821" y="336.24" style="stroke: #000000; stroke-width: 0.5"/>
      </g>
     </g>
     <g id="line2d_50">
      <g>
       <use xlink:href="#m57495114bc" x="592.406821" y="3.6" style="stroke: #000000; stroke-width: 0.5"/>
      </g>
     </g>
    </g>
   </g>
   <g id="matplotlib.axis_2">
    <g id="ytick_1">
     <g id="line2d_51">
      <defs>
       <path id="m88583356ac" d="M 0 0 
L 3 0 
" style="stroke: #000000; stroke-width: 0.5"/>
      </defs>
      <g>
       <use xlink:href="#m88583356ac" x="37.496314" y="296.408445" style="stroke: #000000; stroke-width: 0.5"/>
      </g>
     </g>
     <g id="line2d_52">
      <defs>
       <path id="m4f299a465d" d="M 0 0 
L -3 0 
" style="stroke: #000000; stroke-width: 0.5"/>
      </defs>
      <g>
       <use xlink:href="#m4f299a465d" x="595.496314" y="296.408445" style="stroke: #000000; stroke-width: 0.5"/>
      </g>
     </g>
     <g id="text_7">
      <!-- $\mathdefault{−20}$ -->
      <g transform="translate(3.6 302.635095) scale(0.18 -0.18)">
       <defs>
        <path id="CMSY10-0" d="M 4218 1472 
C 4326 1472 4442 1472 4442 1600 
C 4442 1728 4326 1728 4218 1728 
L 755 1728 
C 646 1728 531 1728 531 1600 
C 531 1472 646 1472 755 1472 
L 4218 1472 
z
" transform="scale(0.015625)"/>
       </defs>
       <use xlink:href="#CMSY10-0" transform="scale(0.996264)"/>
       <use xlink:href="#CMR17-32" transform="translate(77.487468 0) scale(0.996264)"/>
       <use xlink:href="#CMR17-30" transform="translate(123.177945 0) scale(0.996264)"/>
      </g>
     </g>
    </g>
    <g id="ytick_2">
     <g id="line2d_53">
      <g>
       <use xlink:href="#m88583356ac" x="37.496314" y="252.351185" style="stroke: #000000; stroke-width: 0.5"/>
      </g>
     </g>
     <g id="line2d_54">
      <g>
       <use xlink:href="#m4f299a465d" x="595.496314" y="252.351185" style="stroke: #000000; stroke-width: 0.5"/>
      </g>
     </g>
     <g id="text_8">
      <!-- $\mathdefault{−15}$ -->
      <g transform="translate(3.6 258.577835) scale(0.18 -0.18)">
       <defs>
        <path id="CMR17-35" d="M 730 3750 
C 794 3724 1056 3641 1325 3641 
C 1920 3641 2246 3961 2432 4140 
C 2432 4191 2432 4224 2394 4224 
C 2387 4224 2374 4224 2323 4198 
C 2099 4102 1837 4032 1517 4032 
C 1325 4032 1037 4055 723 4191 
C 653 4224 640 4224 634 4224 
C 602 4224 595 4217 595 4090 
L 595 2231 
C 595 2113 595 2080 659 2080 
C 691 2080 704 2093 736 2139 
C 941 2435 1222 2560 1542 2560 
C 1766 2560 2246 2415 2246 1293 
C 2246 1087 2246 716 2054 422 
C 1894 159 1645 25 1370 25 
C 947 25 518 319 403 812 
C 429 806 480 793 506 793 
C 589 793 749 838 749 1036 
C 749 1209 627 1280 506 1280 
C 358 1280 262 1190 262 1011 
C 262 454 704 -128 1382 -128 
C 2042 -128 2669 441 2669 1267 
C 2669 2054 2170 2662 1549 2662 
C 1222 2662 947 2540 730 2304 
L 730 3750 
z
" transform="scale(0.015625)"/>
       </defs>
       <use xlink:href="#CMSY10-0" transform="scale(0.996264)"/>
       <use xlink:href="#CMR17-31" transform="translate(77.487468 0) scale(0.996264)"/>
       <use xlink:href="#CMR17-35" transform="translate(123.177945 0) scale(0.996264)"/>
      </g>
     </g>
    </g>
    <g id="ytick_3">
     <g id="line2d_55">
      <g>
       <use xlink:href="#m88583356ac" x="37.496314" y="208.293924" style="stroke: #000000; stroke-width: 0.5"/>
      </g>
     </g>
     <g id="line2d_56">
      <g>
       <use xlink:href="#m4f299a465d" x="595.496314" y="208.293924" style="stroke: #000000; stroke-width: 0.5"/>
      </g>
     </g>
     <g id="text_9">
      <!-- $\mathdefault{−10}$ -->
      <g transform="translate(3.6 214.520574) scale(0.18 -0.18)">
       <use xlink:href="#CMSY10-0" transform="scale(0.996264)"/>
       <use xlink:href="#CMR17-31" transform="translate(77.487468 0) scale(0.996264)"/>
       <use xlink:href="#CMR17-30" transform="translate(123.177945 0) scale(0.996264)"/>
      </g>
     </g>
    </g>
    <g id="ytick_4">
     <g id="line2d_57">
      <g>
       <use xlink:href="#m88583356ac" x="37.496314" y="164.236664" style="stroke: #000000; stroke-width: 0.5"/>
      </g>
     </g>
     <g id="line2d_58">
      <g>
       <use xlink:href="#m4f299a465d" x="595.496314" y="164.236664" style="stroke: #000000; stroke-width: 0.5"/>
      </g>
     </g>
     <g id="text_10">
      <!-- $\mathdefault{−5}$ -->
      <g transform="translate(11.824286 170.463314) scale(0.18 -0.18)">
       <use xlink:href="#CMSY10-0" transform="scale(0.996264)"/>
       <use xlink:href="#CMR17-35" transform="translate(77.487468 0) scale(0.996264)"/>
      </g>
     </g>
    </g>
    <g id="ytick_5">
     <g id="line2d_59">
      <g>
       <use xlink:href="#m88583356ac" x="37.496314" y="120.179403" style="stroke: #000000; stroke-width: 0.5"/>
      </g>
     </g>
     <g id="line2d_60">
      <g>
       <use xlink:href="#m4f299a465d" x="595.496314" y="120.179403" style="stroke: #000000; stroke-width: 0.5"/>
      </g>
     </g>
     <g id="text_11">
      <!-- $\mathdefault{0}$ -->
      <g transform="translate(25.772028 126.406053) scale(0.18 -0.18)">
       <use xlink:href="#CMR17-30" transform="scale(0.996264)"/>
      </g>
     </g>
    </g>
    <g id="ytick_6">
     <g id="line2d_61">
      <g>
       <use xlink:href="#m88583356ac" x="37.496314" y="76.122143" style="stroke: #000000; stroke-width: 0.5"/>
      </g>
     </g>
     <g id="line2d_62">
      <g>
       <use xlink:href="#m4f299a465d" x="595.496314" y="76.122143" style="stroke: #000000; stroke-width: 0.5"/>
      </g>
     </g>
     <g id="text_12">
      <!-- $\mathdefault{5}$ -->
      <g transform="translate(25.772028 82.348793) scale(0.18 -0.18)">
       <use xlink:href="#CMR17-35" transform="scale(0.996264)"/>
      </g>
     </g>
    </g>
    <g id="ytick_7">
     <g id="line2d_63">
      <g>
       <use xlink:href="#m88583356ac" x="37.496314" y="32.064882" style="stroke: #000000; stroke-width: 0.5"/>
      </g>
     </g>
     <g id="line2d_64">
      <g>
       <use xlink:href="#m4f299a465d" x="595.496314" y="32.064882" style="stroke: #000000; stroke-width: 0.5"/>
      </g>
     </g>
     <g id="text_13">
      <!-- $\mathdefault{10}$ -->
      <g transform="translate(17.547742 38.291532) scale(0.18 -0.18)">
       <use xlink:href="#CMR17-31" transform="scale(0.996264)"/>
       <use xlink:href="#CMR17-30" transform="translate(45.690477 0) scale(0.996264)"/>
      </g>
     </g>
    </g>
    <g id="ytick_8">
     <g id="line2d_65">
      <defs>
       <path id="m4493b6dec2" d="M 0 0 
L 1.5 0 
" style="stroke: #000000; stroke-width: 0.5"/>
      </defs>
      <g>
       <use xlink:href="#m4493b6dec2" x="37.496314" y="331.654254" style="stroke: #000000; stroke-width: 0.5"/>
      </g>
     </g>
     <g id="line2d_66">
      <defs>
       <path id="m0ab2615e44" d="M 0 0 
L -1.5 0 
" style="stroke: #000000; stroke-width: 0.5"/>
      </defs>
      <g>
       <use xlink:href="#m0ab2615e44" x="595.496314" y="331.654254" style="stroke: #000000; stroke-width: 0.5"/>
      </g>
     </g>
    </g>
    <g id="ytick_9">
     <g id="line2d_67">
      <g>
       <use xlink:href="#m4493b6dec2" x="37.496314" y="322.842802" style="stroke: #000000; stroke-width: 0.5"/>
      </g>
     </g>
     <g id="line2d_68">
      <g>
       <use xlink:href="#m0ab2615e44" x="595.496314" y="322.842802" style="stroke: #000000; stroke-width: 0.5"/>
      </g>
     </g>
    </g>
    <g id="ytick_10">
     <g id="line2d_69">
      <g>
       <use xlink:href="#m4493b6dec2" x="37.496314" y="314.03135" style="stroke: #000000; stroke-width: 0.5"/>
      </g>
     </g>
     <g id="line2d_70">
      <g>
       <use xlink:href="#m0ab2615e44" x="595.496314" y="314.03135" style="stroke: #000000; stroke-width: 0.5"/>
      </g>
     </g>
    </g>
    <g id="ytick_11">
     <g id="line2d_71">
      <g>
       <use xlink:href="#m4493b6dec2" x="37.496314" y="305.219897" style="stroke: #000000; stroke-width: 0.5"/>
      </g>
     </g>
     <g id="line2d_72">
      <g>
       <use xlink:href="#m0ab2615e44" x="595.496314" y="305.219897" style="stroke: #000000; stroke-width: 0.5"/>
      </g>
     </g>
    </g>
    <g id="ytick_12">
     <g id="line2d_73">
      <g>
       <use xlink:href="#m4493b6dec2" x="37.496314" y="287.596993" style="stroke: #000000; stroke-width: 0.5"/>
      </g>
     </g>
     <g id="line2d_74">
      <g>
       <use xlink:href="#m0ab2615e44" x="595.496314" y="287.596993" style="stroke: #000000; stroke-width: 0.5"/>
      </g>
     </g>
    </g>
    <g id="ytick_13">
     <g id="line2d_75">
      <g>
       <use xlink:href="#m4493b6dec2" x="37.496314" y="278.785541" style="stroke: #000000; stroke-width: 0.5"/>
      </g>
     </g>
     <g id="line2d_76">
      <g>
       <use xlink:href="#m0ab2615e44" x="595.496314" y="278.785541" style="stroke: #000000; stroke-width: 0.5"/>
      </g>
     </g>
    </g>
    <g id="ytick_14">
     <g id="line2d_77">
      <g>
       <use xlink:href="#m4493b6dec2" x="37.496314" y="269.974089" style="stroke: #000000; stroke-width: 0.5"/>
      </g>
     </g>
     <g id="line2d_78">
      <g>
       <use xlink:href="#m0ab2615e44" x="595.496314" y="269.974089" style="stroke: #000000; stroke-width: 0.5"/>
      </g>
     </g>
    </g>
    <g id="ytick_15">
     <g id="line2d_79">
      <g>
       <use xlink:href="#m4493b6dec2" x="37.496314" y="261.162637" style="stroke: #000000; stroke-width: 0.5"/>
      </g>
     </g>
     <g id="line2d_80">
      <g>
       <use xlink:href="#m0ab2615e44" x="595.496314" y="261.162637" style="stroke: #000000; stroke-width: 0.5"/>
      </g>
     </g>
    </g>
    <g id="ytick_16">
     <g id="line2d_81">
      <g>
       <use xlink:href="#m4493b6dec2" x="37.496314" y="243.539733" style="stroke: #000000; stroke-width: 0.5"/>
      </g>
     </g>
     <g id="line2d_82">
      <g>
       <use xlink:href="#m0ab2615e44" x="595.496314" y="243.539733" style="stroke: #000000; stroke-width: 0.5"/>
      </g>
     </g>
    </g>
    <g id="ytick_17">
     <g id="line2d_83">
      <g>
       <use xlink:href="#m4493b6dec2" x="37.496314" y="234.728281" style="stroke: #000000; stroke-width: 0.5"/>
      </g>
     </g>
     <g id="line2d_84">
      <g>
       <use xlink:href="#m0ab2615e44" x="595.496314" y="234.728281" style="stroke: #000000; stroke-width: 0.5"/>
      </g>
     </g>
    </g>
    <g id="ytick_18">
     <g id="line2d_85">
      <g>
       <use xlink:href="#m4493b6dec2" x="37.496314" y="225.916828" style="stroke: #000000; stroke-width: 0.5"/>
      </g>
     </g>
     <g id="line2d_86">
      <g>
       <use xlink:href="#m0ab2615e44" x="595.496314" y="225.916828" style="stroke: #000000; stroke-width: 0.5"/>
      </g>
     </g>
    </g>
    <g id="ytick_19">
     <g id="line2d_87">
      <g>
       <use xlink:href="#m4493b6dec2" x="37.496314" y="217.105376" style="stroke: #000000; stroke-width: 0.5"/>
      </g>
     </g>
     <g id="line2d_88">
      <g>
       <use xlink:href="#m0ab2615e44" x="595.496314" y="217.105376" style="stroke: #000000; stroke-width: 0.5"/>
      </g>
     </g>
    </g>
    <g id="ytick_20">
     <g id="line2d_89">
      <g>
       <use xlink:href="#m4493b6dec2" x="37.496314" y="199.482472" style="stroke: #000000; stroke-width: 0.5"/>
      </g>
     </g>
     <g id="line2d_90">
      <g>
       <use xlink:href="#m0ab2615e44" x="595.496314" y="199.482472" style="stroke: #000000; stroke-width: 0.5"/>
      </g>
     </g>
    </g>
    <g id="ytick_21">
     <g id="line2d_91">
      <g>
       <use xlink:href="#m4493b6dec2" x="37.496314" y="190.67102" style="stroke: #000000; stroke-width: 0.5"/>
      </g>
     </g>
     <g id="line2d_92">
      <g>
       <use xlink:href="#m0ab2615e44" x="595.496314" y="190.67102" style="stroke: #000000; stroke-width: 0.5"/>
      </g>
     </g>
    </g>
    <g id="ytick_22">
     <g id="line2d_93">
      <g>
       <use xlink:href="#m4493b6dec2" x="37.496314" y="181.859568" style="stroke: #000000; stroke-width: 0.5"/>
      </g>
     </g>
     <g id="line2d_94">
      <g>
       <use xlink:href="#m0ab2615e44" x="595.496314" y="181.859568" style="stroke: #000000; stroke-width: 0.5"/>
      </g>
     </g>
    </g>
    <g id="ytick_23">
     <g id="line2d_95">
      <g>
       <use xlink:href="#m4493b6dec2" x="37.496314" y="173.048116" style="stroke: #000000; stroke-width: 0.5"/>
      </g>
     </g>
     <g id="line2d_96">
      <g>
       <use xlink:href="#m0ab2615e44" x="595.496314" y="173.048116" style="stroke: #000000; stroke-width: 0.5"/>
      </g>
     </g>
    </g>
    <g id="ytick_24">
     <g id="line2d_97">
      <g>
       <use xlink:href="#m4493b6dec2" x="37.496314" y="155.425212" style="stroke: #000000; stroke-width: 0.5"/>
      </g>
     </g>
     <g id="line2d_98">
      <g>
       <use xlink:href="#m0ab2615e44" x="595.496314" y="155.425212" style="stroke: #000000; stroke-width: 0.5"/>
      </g>
     </g>
    </g>
    <g id="ytick_25">
     <g id="line2d_99">
      <g>
       <use xlink:href="#m4493b6dec2" x="37.496314" y="146.61376" style="stroke: #000000; stroke-width: 0.5"/>
      </g>
     </g>
     <g id="line2d_100">
      <g>
       <use xlink:href="#m0ab2615e44" x="595.496314" y="146.61376" style="stroke: #000000; stroke-width: 0.5"/>
      </g>
     </g>
    </g>
    <g id="ytick_26">
     <g id="line2d_101">
      <g>
       <use xlink:href="#m4493b6dec2" x="37.496314" y="137.802307" style="stroke: #000000; stroke-width: 0.5"/>
      </g>
     </g>
     <g id="line2d_102">
      <g>
       <use xlink:href="#m0ab2615e44" x="595.496314" y="137.802307" style="stroke: #000000; stroke-width: 0.5"/>
      </g>
     </g>
    </g>
    <g id="ytick_27">
     <g id="line2d_103">
      <g>
       <use xlink:href="#m4493b6dec2" x="37.496314" y="128.990855" style="stroke: #000000; stroke-width: 0.5"/>
      </g>
     </g>
     <g id="line2d_104">
      <g>
       <use xlink:href="#m0ab2615e44" x="595.496314" y="128.990855" style="stroke: #000000; stroke-width: 0.5"/>
      </g>
     </g>
    </g>
    <g id="ytick_28">
     <g id="line2d_105">
      <g>
       <use xlink:href="#m4493b6dec2" x="37.496314" y="111.367951" style="stroke: #000000; stroke-width: 0.5"/>
      </g>
     </g>
     <g id="line2d_106">
      <g>
       <use xlink:href="#m0ab2615e44" x="595.496314" y="111.367951" style="stroke: #000000; stroke-width: 0.5"/>
      </g>
     </g>
    </g>
    <g id="ytick_29">
     <g id="line2d_107">
      <g>
       <use xlink:href="#m4493b6dec2" x="37.496314" y="102.556499" style="stroke: #000000; stroke-width: 0.5"/>
      </g>
     </g>
     <g id="line2d_108">
      <g>
       <use xlink:href="#m0ab2615e44" x="595.496314" y="102.556499" style="stroke: #000000; stroke-width: 0.5"/>
      </g>
     </g>
    </g>
    <g id="ytick_30">
     <g id="line2d_109">
      <g>
       <use xlink:href="#m4493b6dec2" x="37.496314" y="93.745047" style="stroke: #000000; stroke-width: 0.5"/>
      </g>
     </g>
     <g id="line2d_110">
      <g>
       <use xlink:href="#m0ab2615e44" x="595.496314" y="93.745047" style="stroke: #000000; stroke-width: 0.5"/>
      </g>
     </g>
    </g>
    <g id="ytick_31">
     <g id="line2d_111">
      <g>
       <use xlink:href="#m4493b6dec2" x="37.496314" y="84.933595" style="stroke: #000000; stroke-width: 0.5"/>
      </g>
     </g>
     <g id="line2d_112">
      <g>
       <use xlink:href="#m0ab2615e44" x="595.496314" y="84.933595" style="stroke: #000000; stroke-width: 0.5"/>
      </g>
     </g>
    </g>
    <g id="ytick_32">
     <g id="line2d_113">
      <g>
       <use xlink:href="#m4493b6dec2" x="37.496314" y="67.310691" style="stroke: #000000; stroke-width: 0.5"/>
      </g>
     </g>
     <g id="line2d_114">
      <g>
       <use xlink:href="#m0ab2615e44" x="595.496314" y="67.310691" style="stroke: #000000; stroke-width: 0.5"/>
      </g>
     </g>
    </g>
    <g id="ytick_33">
     <g id="line2d_115">
      <g>
       <use xlink:href="#m4493b6dec2" x="37.496314" y="58.499238" style="stroke: #000000; stroke-width: 0.5"/>
      </g>
     </g>
     <g id="line2d_116">
      <g>
       <use xlink:href="#m0ab2615e44" x="595.496314" y="58.499238" style="stroke: #000000; stroke-width: 0.5"/>
      </g>
     </g>
    </g>
    <g id="ytick_34">
     <g id="line2d_117">
      <g>
       <use xlink:href="#m4493b6dec2" x="37.496314" y="49.687786" style="stroke: #000000; stroke-width: 0.5"/>
      </g>
     </g>
     <g id="line2d_118">
      <g>
       <use xlink:href="#m0ab2615e44" x="595.496314" y="49.687786" style="stroke: #000000; stroke-width: 0.5"/>
      </g>
     </g>
    </g>
    <g id="ytick_35">
     <g id="line2d_119">
      <g>
       <use xlink:href="#m4493b6dec2" x="37.496314" y="40.876334" style="stroke: #000000; stroke-width: 0.5"/>
      </g>
     </g>
     <g id="line2d_120">
      <g>
       <use xlink:href="#m0ab2615e44" x="595.496314" y="40.876334" style="stroke: #000000; stroke-width: 0.5"/>
      </g>
     </g>
    </g>
    <g id="ytick_36">
     <g id="line2d_121">
      <g>
       <use xlink:href="#m4493b6dec2" x="37.496314" y="23.25343" style="stroke: #000000; stroke-width: 0.5"/>
      </g>
     </g>
     <g id="line2d_122">
      <g>
       <use xlink:href="#m0ab2615e44" x="595.496314" y="23.25343" style="stroke: #000000; stroke-width: 0.5"/>
      </g>
     </g>
    </g>
    <g id="ytick_37">
     <g id="line2d_123">
      <g>
       <use xlink:href="#m4493b6dec2" x="37.496314" y="14.441978" style="stroke: #000000; stroke-width: 0.5"/>
      </g>
     </g>
     <g id="line2d_124">
      <g>
       <use xlink:href="#m0ab2615e44" x="595.496314" y="14.441978" style="stroke: #000000; stroke-width: 0.5"/>
      </g>
     </g>
    </g>
    <g id="ytick_38">
     <g id="line2d_125">
      <g>
       <use xlink:href="#m4493b6dec2" x="37.496314" y="5.630526" style="stroke: #000000; stroke-width: 0.5"/>
      </g>
     </g>
     <g id="line2d_126">
      <g>
       <use xlink:href="#m0ab2615e44" x="595.496314" y="5.630526" style="stroke: #000000; stroke-width: 0.5"/>
      </g>
     </g>
    </g>
   </g>
   <g id="line2d_127">
    <path d="M 62.85995 140.115756 
L 64.74527 205.049346 
L 66.569773 117.219612 
L 68.455093 62.473774 
L 70.279597 142.417465 
L 72.164917 144.89331 
L 74.050237 139.371264 
L 75.87474 226.419183 
L 77.76006 93.633749 
L 79.584563 77.764802 
L 81.469883 108.364045 
L 83.355203 123.819453 
L 85.058073 151.277988 
L 86.943393 78.648306 
L 88.767896 152.742064 
L 90.653216 146.464748 
L 92.47772 175.113279 
L 94.36304 221.777376 
L 96.24836 111.485002 
L 98.072863 164.474645 
L 99.958183 133.664599 
L 101.782686 64.932438 
L 103.668006 130.651318 
L 105.553327 123.458507 
L 107.256196 180.010849 
L 109.141516 110.130954 
L 110.96602 76.129715 
L 112.85134 75.842317 
L 114.675843 72.500674 
L 116.561163 116.139691 
L 118.446483 122.855645 
L 120.270986 93.940086 
L 122.156306 103.662022 
L 123.98081 110.754578 
L 127.75145 78.860936 
L 129.515136 111.785563 
L 131.400456 135.242879 
L 133.22496 112.856457 
L 135.11028 144.280846 
L 136.934783 96.544561 
L 138.820103 141.364656 
L 140.705423 133.757431 
L 142.529926 97.241019 
L 144.415246 120.534247 
L 146.23975 80.29626 
L 148.12507 97.652352 
L 150.01039 133.356371 
L 151.713259 106.693885 
L 153.598579 123.660522 
L 155.423083 142.940092 
L 157.308403 109.760697 
L 159.132906 102.433973 
L 161.018226 105.648931 
L 162.903546 118.717136 
L 164.728049 118.992646 
L 166.613369 144.933038 
L 168.437873 87.234134 
L 170.323193 102.763506 
L 172.208513 108.623917 
L 173.911383 121.613853 
L 175.796703 108.46212 
L 177.621206 114.456493 
L 179.506526 128.446425 
L 181.331029 145.709378 
L 183.216349 115.222223 
L 185.101669 101.562309 
L 186.926173 99.48335 
L 188.811493 90.177499 
L 190.635996 104.003392 
L 192.521316 102.725934 
L 194.406636 115.37751 
L 196.109506 107.500836 
L 197.994826 143.570868 
L 199.819329 85.372191 
L 201.704649 92.03752 
L 203.529152 118.402742 
L 205.414472 116.393397 
L 207.299792 159.331005 
L 209.124296 94.803686 
L 211.009616 95.491168 
L 212.834119 164.946823 
L 214.719439 110.698933 
L 216.604759 182.150678 
L 218.368446 135.580972 
L 220.253766 145.199209 
L 222.078269 85.072038 
L 223.963589 99.370411 
L 225.788092 159.978601 
L 227.673412 177.111596 
L 229.558732 103.422284 
L 231.383236 165.699478 
L 233.268556 321.12 
L 235.093059 201.85072 
L 236.978379 125.664682 
L 238.863699 132.291208 
L 240.566569 183.861399 
L 242.451889 174.451764 
L 244.276392 20.149563 
L 246.161712 65.538306 
L 247.986216 97.327031 
L 249.871536 110.998457 
L 251.756856 53.199064 
L 253.581359 90.305759 
L 255.466679 100.897155 
L 257.291182 103.493908 
L 259.176502 102.294962 
L 261.061822 109.766278 
L 262.764692 147.594703 
L 264.650012 70.715253 
L 266.474515 86.217633 
L 268.359835 175.030127 
L 270.184339 153.459416 
L 272.069659 123.079679 
L 273.954979 114.096571 
L 275.779482 92.418975 
L 277.664802 82.141105 
L 279.489305 99.875294 
L 281.374625 89.384822 
L 283.259946 91.488988 
L 284.962815 94.119533 
L 286.848135 131.341488 
L 288.672639 102.114625 
L 290.557959 115.690861 
L 292.382462 154.428099 
L 294.267782 94.611555 
L 296.153102 218.472475 
L 297.977605 128.717561 
L 299.862925 95.50232 
L 301.687429 106.275671 
L 303.572749 108.120169 
L 305.458069 80.505754 
L 307.221755 85.694006 
L 309.107075 96.556343 
L 312.816899 149.358678 
L 314.641402 131.944714 
L 316.526722 96.33712 
L 318.412042 92.325902 
L 320.236545 95.435254 
L 322.121865 123.604609 
L 323.946369 147.129211 
L 325.831689 102.798682 
L 327.717009 84.89476 
L 329.419878 101.388134 
L 331.305198 98.016849 
L 333.129702 108.961448 
L 335.015022 82.22205 
L 336.839525 131.574439 
L 338.724845 93.422289 
L 340.610165 119.435168 
L 344.319988 103.182849 
L 346.144492 88.230469 
L 348.029812 108.284454 
L 349.915132 113.101348 
L 351.618002 122.755485 
L 353.503322 97.923112 
L 355.327825 119.829572 
L 357.213145 108.203814 
L 359.037648 93.85006 
L 360.922968 108.486642 
L 362.808288 125.361532 
L 364.632792 106.053185 
L 366.518112 145.271487 
L 368.342615 72.678862 
L 370.227935 116.008894 
L 372.113255 131.44195 
L 373.816125 97.017455 
L 375.701445 121.115127 
L 377.525948 113.902442 
L 379.411268 113.024301 
L 381.235771 125.473116 
L 383.121091 122.343694 
L 386.830915 162.410483 
L 388.716235 84.477796 
L 390.540738 96.221014 
L 392.426058 131.491428 
L 394.311378 180.301973 
L 397.960385 67.412117 
L 399.784888 97.129553 
L 401.670208 124.430776 
L 403.494711 112.390252 
L 405.380031 93.110848 
L 407.265351 111.183989 
L 409.089855 125.577876 
L 410.975175 126.190713 
L 412.799678 111.191992 
L 414.684998 87.563308 
L 416.570318 109.075667 
L 418.273188 99.21093 
L 420.158508 106.329878 
L 421.983011 122.979752 
L 423.868331 106.821106 
L 425.692835 106.078852 
L 429.463475 119.418545 
L 431.287978 107.1393 
L 433.173298 97.787676 
L 434.997801 107.653015 
L 436.883121 96.471623 
L 438.768441 79.634796 
L 440.471311 147.326472 
L 442.356631 120.958236 
L 444.181134 136.347236 
L 446.066454 104.428969 
L 447.890958 103.104565 
L 449.776278 107.698929 
L 451.661598 100.165343 
L 453.486101 106.813533 
L 455.371421 156.143181 
L 457.195924 140.08831 
L 459.081244 172.13174 
L 460.966565 106.529527 
L 462.669434 71.701522 
L 464.554754 104.606737 
L 466.379258 89.356602 
L 468.264578 135.202896 
L 470.089081 109.301611 
L 471.974401 88.457585 
L 473.859721 149.669858 
L 475.684224 94.803426 
L 477.569544 121.502932 
L 479.394048 83.313623 
L 481.279368 100.022719 
L 483.164688 92.478972 
L 484.928374 120.418294 
L 486.813694 306.596032 
L 488.638198 84.507474 
L 490.523518 71.270849 
L 492.348021 66.030613 
L 494.233341 91.43253 
L 496.118661 71.006854 
L 497.943164 127.010681 
L 501.652988 87.221929 
L 503.538308 84.580531 
L 505.423628 97.013997 
L 507.126497 99.591651 
L 509.011817 114.05718 
L 510.836321 69.678772 
L 512.721641 114.522148 
L 514.546144 105.370197 
L 516.431464 94.523714 
L 518.316784 102.093341 
L 520.141287 121.89482 
L 522.026607 117.178919 
L 523.851111 80.270566 
L 525.736431 118.786108 
L 527.621751 139.417261 
L 529.324621 147.141635 
L 531.209941 129.10654 
L 533.034444 120.173226 
L 534.919764 193.570519 
L 536.744267 151.572286 
L 538.629587 117.295263 
L 540.514907 66.262138 
L 542.339411 187.993453 
L 544.224731 149.133289 
L 546.049234 76.032415 
L 547.934554 121.328989 
L 549.819874 109.373332 
L 551.522744 94.088763 
L 553.408064 144.513661 
L 555.232567 86.866679 
L 557.117887 114.913215 
L 558.94239 78.830973 
L 560.82771 87.789584 
L 562.71303 130.148657 
L 564.537534 129.772358 
L 566.422854 148.5487 
L 568.247357 81.682653 
L 570.132677 76.814774 
L 570.132677 76.814774 
" clip-path="url(#p6f128af4da)" style="fill: none; stroke-dasharray: 3.7,1.6; stroke-dashoffset: 0; stroke: #000000"/>
   </g>
   <g id="line2d_128">
    <path d="M 62.85995 109.987963 
L 64.74527 113.465458 
L 66.569773 120.297035 
L 68.455093 115.898722 
L 70.279597 95.800233 
L 72.164917 108.893597 
L 74.050237 117.028311 
L 75.87474 111.296296 
L 77.76006 133.477809 
L 79.584563 108.882971 
L 81.469883 110.809184 
L 83.355203 121.572754 
L 85.058073 120.521212 
L 86.943393 123.021829 
L 88.767896 116.697317 
L 90.653216 122.03446 
L 94.36304 121.308972 
L 96.24836 130.179727 
L 98.072863 109.489417 
L 99.958183 117.609848 
L 101.782686 118.852126 
L 103.668006 105.955768 
L 105.553327 116.991686 
L 107.256196 118.317435 
L 109.141516 124.215203 
L 110.96602 114.280823 
L 112.85134 115.10885 
L 114.675843 103.83295 
L 116.561163 103.435474 
L 118.446483 130.33769 
L 120.270986 124.152138 
L 122.156306 109.690896 
L 123.98081 115.4623 
L 125.86613 115.866937 
L 127.75145 112.649326 
L 129.515136 105.908801 
L 131.400456 113.193795 
L 133.22496 111.938695 
L 135.11028 121.873858 
L 136.934783 123.498817 
L 138.820103 111.4431 
L 140.705423 113.65224 
L 142.529926 112.2312 
L 144.415246 107.391577 
L 146.23975 114.853026 
L 148.12507 108.680366 
L 150.01039 110.977209 
L 151.713259 116.854878 
L 153.598579 111.750752 
L 155.423083 120.886594 
L 157.308403 115.472525 
L 159.132906 109.472655 
L 161.018226 108.978193 
L 162.903546 116.359523 
L 164.728049 116.410329 
L 166.613369 113.90276 
L 168.437873 122.281673 
L 170.323193 110.607072 
L 172.208513 110.580777 
L 173.911383 112.239177 
L 175.796703 117.564564 
L 177.621206 115.364026 
L 179.506526 117.977148 
L 181.331029 116.558546 
L 183.216349 117.583384 
L 185.101669 114.33986 
L 186.926173 108.356464 
L 188.811493 108.532385 
L 190.635996 109.590209 
L 192.521316 109.649088 
L 194.406636 110.906466 
L 196.109506 117.926007 
L 197.994826 111.971919 
L 199.819329 115.06537 
L 201.704649 111.318934 
L 203.529152 110.615851 
L 205.414472 119.401148 
L 207.299792 111.890659 
L 209.124296 112.961016 
L 211.009616 108.105549 
L 212.834119 111.959006 
L 214.719439 111.827285 
L 216.604759 114.762569 
L 218.368446 112.532604 
L 220.253766 117.516459 
L 222.078269 112.808475 
L 223.963589 116.809111 
L 225.788092 117.47764 
L 227.673412 121.932658 
L 229.558732 119.414285 
L 231.383236 112.47145 
L 233.268556 115.762476 
L 235.093059 124.815821 
L 236.978379 244.223847 
L 238.863699 117.351659 
L 240.566569 157.839796 
L 242.451889 174.168225 
L 244.276392 137.930838 
L 246.161712 115.321499 
L 247.986216 136.18508 
L 249.871536 102.997256 
L 251.756856 114.054741 
L 253.581359 112.120233 
L 255.466679 111.812591 
L 257.291182 99.0939 
L 259.176502 88.395254 
L 261.061822 97.096043 
L 262.764692 127.728556 
L 266.474515 107.38464 
L 270.184339 117.171801 
L 272.069659 116.737481 
L 273.954979 112.653148 
L 275.779482 107.588811 
L 277.664802 112.160537 
L 279.489305 105.872928 
L 281.374625 119.812439 
L 283.259946 120.573938 
L 284.962815 107.347084 
L 286.848135 115.358961 
L 288.672639 112.805727 
L 290.557959 113.25887 
L 292.382462 108.335351 
L 294.267782 117.835168 
L 296.153102 110.389273 
L 297.977605 116.616064 
L 299.862925 110.369342 
L 301.687429 119.626499 
L 303.572749 106.72667 
L 305.458069 112.48789 
L 307.221755 106.789556 
L 309.107075 109.108312 
L 310.931579 119.917091 
L 312.816899 109.824463 
L 314.641402 111.432078 
L 316.526722 110.517457 
L 318.412042 108.121672 
L 320.236545 118.612102 
L 322.121865 109.527247 
L 323.946369 117.750214 
L 327.717009 114.591263 
L 329.419878 116.877934 
L 331.305198 111.668422 
L 333.129702 110.633973 
L 335.015022 107.093809 
L 336.839525 115.63529 
L 338.724845 125.410895 
L 340.610165 109.645842 
L 342.434668 114.961574 
L 344.319988 114.502086 
L 346.144492 107.91216 
L 348.029812 114.619428 
L 349.915132 117.737572 
L 351.618002 113.264321 
L 353.503322 111.873515 
L 355.327825 111.861903 
L 357.213145 115.452771 
L 359.037648 109.261449 
L 360.922968 112.666963 
L 362.808288 111.042908 
L 364.632792 112.714965 
L 366.518112 115.977048 
L 368.342615 112.994822 
L 370.227935 108.896968 
L 372.113255 109.912934 
L 373.816125 107.375638 
L 375.701445 116.850882 
L 377.525948 116.667147 
L 379.411268 110.718061 
L 381.235771 121.983523 
L 383.121091 115.095105 
L 385.006411 113.277504 
L 386.830915 114.0122 
L 388.716235 122.595204 
L 390.540738 105.899665 
L 392.426058 118.609966 
L 394.311378 115.423919 
L 396.075065 121.914043 
L 397.960385 106.745633 
L 399.784888 112.618343 
L 401.670208 107.204831 
L 403.494711 117.087256 
L 405.380031 108.037869 
L 407.265351 104.361341 
L 409.089855 119.072091 
L 410.975175 119.816674 
L 412.799678 119.820359 
L 414.684998 120.80194 
L 416.570318 112.217207 
L 418.273188 110.983869 
L 420.158508 112.247504 
L 421.983011 115.653018 
L 423.868331 111.400187 
L 425.692835 113.675936 
L 427.578155 109.241203 
L 429.463475 119.301676 
L 431.287978 112.1192 
L 433.173298 113.129811 
L 434.997801 117.20482 
L 436.883121 113.082807 
L 438.768441 112.984319 
L 440.471311 113.672056 
L 442.356631 123.767922 
L 444.181134 113.071644 
L 446.066454 118.34072 
L 447.890958 113.835825 
L 449.776278 110.633571 
L 451.661598 113.265543 
L 453.486101 112.165586 
L 455.371421 116.343878 
L 457.195924 123.719825 
L 459.081244 117.382534 
L 460.966565 118.067922 
L 462.669434 109.183909 
L 464.554754 104.089503 
L 466.379258 109.204946 
L 468.264578 108.051561 
L 470.089081 113.854337 
L 471.974401 103.382303 
L 473.859721 97.15347 
L 475.684224 120.199957 
L 477.569544 111.867917 
L 479.394048 116.739935 
L 481.279368 112.603732 
L 483.164688 113.303106 
L 484.928374 110.500338 
L 486.813694 112.849177 
L 488.638198 132.850229 
L 490.523518 99.864417 
L 492.348021 113.883183 
L 494.233341 113.589127 
L 496.118661 105.269991 
L 497.943164 108.844302 
L 499.828484 120.480654 
L 501.652988 119.329106 
L 503.538308 109.909037 
L 505.423628 109.745898 
L 507.126497 114.683507 
L 509.011817 111.94983 
L 510.836321 117.067138 
L 512.721641 105.72394 
L 514.546144 113.399214 
L 516.431464 109.795868 
L 518.316784 105.569356 
L 520.141287 110.951809 
L 522.026607 118.958788 
L 523.851111 115.557905 
L 525.736431 107.015413 
L 527.621751 113.084701 
L 529.324621 119.935146 
L 531.209941 117.410164 
L 533.034444 117.074156 
L 534.919764 119.269326 
L 536.744267 122.113581 
L 538.629587 119.149714 
L 542.339411 105.377982 
L 544.224731 132.014062 
L 546.049234 120.143965 
L 547.934554 105.459847 
L 549.819874 113.657523 
L 551.522744 110.99829 
L 553.408064 115.506521 
L 555.232567 117.362402 
L 557.117887 105.696913 
L 558.94239 118.52508 
L 560.82771 111.018844 
L 562.71303 111.661012 
L 564.537534 121.397649 
L 566.422854 118.506485 
L 568.247357 121.942087 
L 570.132677 105.550234 
L 570.132677 105.550234 
" clip-path="url(#p6f128af4da)" style="fill: none; stroke: #00ff00; stroke-linecap: square"/>
   </g>
   <g id="patch_3">
    <path d="M 37.496314 336.24 
L 37.496314 3.6 
" style="fill: none; stroke: #000000; stroke-width: 0.5; stroke-linejoin: miter; stroke-linecap: square"/>
   </g>
   <g id="patch_4">
    <path d="M 595.496314 336.24 
L 595.496314 3.6 
" style="fill: none; stroke: #000000; stroke-width: 0.5; stroke-linejoin: miter; stroke-linecap: square"/>
   </g>
   <g id="patch_5">
    <path d="M 37.496314 336.24 
L 595.496314 336.24 
" style="fill: none; stroke: #000000; stroke-width: 0.5; stroke-linejoin: miter; stroke-linecap: square"/>
   </g>
   <g id="patch_6">
    <path d="M 37.496314 3.6 
L 595.496314 3.6 
" style="fill: none; stroke: #000000; stroke-width: 0.5; stroke-linejoin: miter; stroke-linecap: square"/>
   </g>
   <g id="legend_1">
    <g id="line2d_129">
     <path d="M 48.296314 284.23564 
L 60.296314 284.23564 
L 72.296314 284.23564 
" style="fill: none; stroke-dasharray: 3.7,1.6; stroke-dashoffset: 0; stroke: #000000"/>
    </g>
    <g id="text_14">
     <!-- rendimenti SP 500 -->
     <g transform="translate(81.896314 288.43564) scale(0.12 -0.12)">
      <defs>
       <path id="CMR17-72" d="M 960 1517 
C 960 2134 1222 2713 1702 2713 
C 1747 2713 1792 2707 1837 2687 
C 1837 2687 1696 2642 1696 2475 
C 1696 2321 1818 2257 1914 2257 
C 1990 2257 2131 2302 2131 2482 
C 2131 2687 1926 2816 1709 2816 
C 1222 2816 1011 2340 947 2115 
L 941 2115 
L 941 2816 
L 198 2745 
L 198 2578 
C 576 2578 634 2540 634 2231 
L 634 443 
C 634 198 608 166 198 166 
L 198 0 
C 352 12 646 12 813 12 
C 998 12 1325 12 1498 0 
L 1498 166 
C 1037 166 960 166 960 455 
L 960 1517 
z
" transform="scale(0.015625)"/>
       <path id="CMR17-65" d="M 2438 1503 
C 2464 1529 2464 1542 2464 1606 
C 2464 2251 2118 2816 1389 2816 
C 710 2816 173 2175 173 1394 
C 173 554 781 -64 1459 -64 
C 2176 -64 2458 619 2458 755 
C 2458 800 2419 800 2406 800 
C 2362 800 2355 787 2330 709 
C 2189 270 1837 51 1504 51 
C 1229 51 954 206 781 490 
C 582 819 582 1200 582 1503 
L 2438 1503 
z
M 589 1600 
C 634 2511 1126 2713 1382 2713 
C 1818 2713 2112 2308 2118 1600 
L 589 1600 
z
" transform="scale(0.015625)"/>
       <path id="CMR17-6e" d="M 2656 1954 
C 2656 2282 2592 2816 1837 2816 
C 1331 2816 1069 2424 973 2166 
L 966 2166 
L 966 2816 
L 211 2745 
L 211 2578 
C 589 2578 646 2540 646 2231 
L 646 443 
C 646 198 621 166 211 166 
L 211 0 
C 365 12 646 12 813 12 
C 979 12 1267 12 1421 0 
L 1421 166 
C 1011 166 986 192 986 443 
L 986 1678 
C 986 2269 1344 2713 1792 2713 
C 2266 2713 2317 2289 2317 1980 
L 2317 443 
C 2317 198 2291 166 1882 166 
L 1882 0 
C 2035 12 2317 12 2483 12 
C 2650 12 2938 12 3091 0 
L 3091 166 
C 2682 166 2656 192 2656 443 
L 2656 1954 
z
" transform="scale(0.015625)"/>
       <path id="CMR17-64" d="M 1869 4345 
L 1869 4179 
C 2246 4179 2304 4141 2304 3843 
L 2304 2371 
C 2278 2403 2016 2816 1498 2816 
C 845 2816 211 2228 211 1376 
C 211 529 806 -64 1434 -64 
C 1978 -64 2259 361 2291 406 
L 2291 -64 
L 3066 -13 
L 3066 154 
C 2688 154 2630 193 2630 503 
L 2630 4416 
L 1869 4345 
z
M 2291 762 
C 2291 568 2176 393 2029 264 
C 1811 70 1594 38 1472 38 
C 1286 38 621 135 621 1369 
C 621 2636 1363 2713 1530 2713 
C 1824 2713 2061 2545 2208 2313 
C 2291 2177 2291 2157 2291 2041 
L 2291 762 
z
" transform="scale(0.015625)"/>
       <path id="CMR17-69" d="M 992 3961 
C 992 4102 877 4224 730 4224 
C 589 4224 467 4108 467 3961 
C 467 3820 582 3699 730 3699 
C 870 3699 992 3814 992 3961 
z
M 243 2745 
L 243 2579 
C 602 2579 653 2540 653 2231 
L 653 443 
C 653 198 627 166 218 166 
L 218 0 
C 371 12 646 12 806 12 
C 960 12 1222 12 1370 0 
L 1370 166 
C 992 166 979 205 979 436 
L 979 2816 
L 243 2745 
z
" transform="scale(0.015625)"/>
       <path id="CMR17-6d" d="M 4326 1954 
C 4326 2276 4269 2816 3507 2816 
C 3072 2816 2771 2520 2656 2173 
L 2650 2173 
C 2573 2700 2195 2816 1837 2816 
C 1331 2816 1069 2424 973 2166 
L 966 2166 
L 966 2816 
L 211 2745 
L 211 2578 
C 589 2578 646 2540 646 2231 
L 646 443 
C 646 198 621 166 211 166 
L 211 0 
C 365 12 646 12 813 12 
C 979 12 1267 12 1421 0 
L 1421 166 
C 1011 166 986 192 986 443 
L 986 1678 
C 986 2269 1344 2713 1792 2713 
C 2266 2713 2317 2289 2317 1980 
L 2317 443 
C 2317 198 2291 166 1882 166 
L 1882 0 
C 2035 12 2317 12 2483 12 
C 2650 12 2938 12 3091 0 
L 3091 166 
C 2682 166 2656 192 2656 443 
L 2656 1678 
C 2656 2269 3014 2713 3462 2713 
C 3936 2713 3987 2289 3987 1980 
L 3987 443 
C 3987 198 3962 166 3552 166 
L 3552 0 
C 3706 12 3987 12 4154 12 
C 4320 12 4608 12 4762 0 
L 4762 166 
C 4352 166 4326 192 4326 443 
L 4326 1954 
z
" transform="scale(0.015625)"/>
       <path id="CMR17-74" d="M 966 2585 
L 1862 2585 
L 1862 2752 
L 966 2752 
L 966 3968 
L 851 3968 
C 838 3292 614 2700 70 2687 
L 70 2585 
L 627 2585 
L 627 778 
C 627 655 627 -64 1370 -64 
C 1747 -64 1965 308 1965 784 
L 1965 1151 
L 1850 1151 
L 1850 790 
C 1850 347 1677 51 1408 51 
C 1222 51 966 179 966 765 
L 966 2585 
z
" transform="scale(0.015625)"/>
       <path id="CMR17-53" d="M 2803 4351 
C 2803 4467 2797 4473 2758 4473 
C 2720 4473 2707 4447 2682 4390 
L 2490 3965 
C 2246 4320 1875 4480 1472 4480 
C 819 4480 294 3958 294 3301 
C 294 3101 339 2817 557 2546 
C 794 2250 1018 2198 1530 2063 
C 1722 2011 2042 1927 2106 1901 
C 2470 1747 2662 1360 2662 999 
C 2662 534 2336 38 1779 38 
C 1094 38 454 425 410 1328 
C 403 1431 397 1437 352 1437 
C 301 1437 294 1431 294 1302 
L 294 0 
C 294 -116 301 -122 339 -122 
C 384 -122 397 -90 486 109 
C 493 128 493 141 614 386 
C 934 -39 1472 -128 1779 -128 
C 2477 -128 2970 457 2970 1141 
C 2970 1476 2848 1734 2778 1850 
C 2509 2263 2221 2340 1914 2417 
C 1869 2437 1856 2437 1498 2527 
C 1152 2617 1005 2662 845 2836 
C 666 3036 602 3243 602 3449 
C 602 3868 934 4326 1478 4326 
C 2157 4326 2579 3842 2675 3036 
C 2694 2920 2701 2914 2746 2914 
C 2803 2914 2803 2933 2803 3043 
L 2803 4351 
z
" transform="scale(0.015625)"/>
       <path id="CMR17-50" d="M 1267 2048 
L 2291 2048 
C 3117 2048 3718 2583 3718 3187 
C 3718 3791 3130 4352 2291 4352 
L 333 4352 
L 333 4185 
C 774 4185 845 4185 845 3899 
L 845 453 
C 845 166 774 166 333 166 
L 333 0 
C 518 12 858 12 1056 12 
C 1254 12 1594 12 1779 0 
L 1779 166 
C 1338 166 1267 166 1267 453 
L 1267 2048 
z
M 1254 2182 
L 1254 3937 
C 1254 4153 1267 4185 1523 4185 
L 2170 4185 
C 2995 4185 3232 3715 3232 3187 
C 3232 2608 2950 2182 2170 2182 
L 1254 2182 
z
" transform="scale(0.015625)"/>
      </defs>
      <use xlink:href="#CMR17-72" transform="scale(0.996264)"/>
      <use xlink:href="#CMR17-65" transform="translate(35.280768 0) scale(0.996264)"/>
      <use xlink:href="#CMR17-6e" transform="translate(75.766428 0) scale(0.996264)"/>
      <use xlink:href="#CMR17-64" transform="translate(126.661798 0) scale(0.996264)"/>
      <use xlink:href="#CMR17-69" transform="translate(177.557168 0) scale(0.996264)"/>
      <use xlink:href="#CMR17-6d" transform="translate(202.428226 0) scale(0.996264)"/>
      <use xlink:href="#CMR17-65" transform="translate(279.347816 0) scale(0.996264)"/>
      <use xlink:href="#CMR17-6e" transform="translate(319.833477 0) scale(0.996264)"/>
      <use xlink:href="#CMR17-74" transform="translate(368.126392 0) scale(0.996264)"/>
      <use xlink:href="#CMR17-69" transform="translate(403.40716 0) scale(0.996264)"/>
      <use xlink:href="#CMR17-53" transform="translate(458.354185 0) scale(0.996264)"/>
      <use xlink:href="#CMR17-50" transform="translate(509.249555 0) scale(0.996264)"/>
      <use xlink:href="#CMR17-35" transform="translate(601.911822 0) scale(0.996264)"/>
      <use xlink:href="#CMR17-30" transform="translate(647.602299 0) scale(0.996264)"/>
      <use xlink:href="#CMR17-30" transform="translate(693.292776 0) scale(0.996264)"/>
     </g>
    </g>
    <g id="line2d_130">
     <path d="M 48.296314 301.526612 
L 60.296314 301.526612 
L 72.296314 301.526612 
" style="fill: none; stroke: #00ff00; stroke-linecap: square"/>
    </g>
    <g id="text_15">
     <!-- forecast media pesata (training rmse) -->
     <g transform="translate(81.896314 305.726612) scale(0.12 -0.12)">
      <defs>
       <path id="CMR17-66" d="M 979 2585 
L 1709 2585 
L 1709 2752 
L 966 2752 
L 966 3539 
C 966 4076 1235 4377 1510 4377 
C 1594 4377 1690 4363 1754 4339 
C 1702 4326 1568 4281 1568 4121 
C 1568 3955 1696 3904 1786 3904 
C 1875 3904 2003 3955 2003 4121 
C 2003 4353 1773 4480 1517 4480 
C 1152 4480 653 4211 653 3526 
L 653 2752 
L 141 2752 
L 141 2585 
L 653 2585 
L 653 441 
C 653 198 627 166 218 166 
L 218 0 
C 371 12 666 12 832 12 
C 1018 12 1344 12 1517 0 
L 1517 166 
C 1056 166 979 166 979 454 
L 979 2585 
z
" transform="scale(0.015625)"/>
       <path id="CMR17-6f" d="M 2758 1356 
C 2758 2176 2163 2816 1466 2816 
C 768 2816 173 2176 173 1356 
C 173 550 768 -64 1466 -64 
C 2163 -64 2758 550 2758 1356 
z
M 1466 51 
C 1165 51 909 230 762 480 
C 602 768 582 1126 582 1408 
C 582 1676 595 2009 762 2297 
C 890 2508 1139 2713 1466 2713 
C 1754 2713 1997 2553 2150 2329 
C 2349 2028 2349 1606 2349 1408 
C 2349 1158 2336 774 2163 467 
C 1984 172 1709 51 1466 51 
z
" transform="scale(0.015625)"/>
       <path id="CMR17-63" d="M 2234 2240 
C 2112 2240 1933 2240 1933 2015 
C 1933 1836 2080 1785 2163 1785 
C 2208 1785 2394 1804 2394 2028 
C 2394 2476 1958 2816 1466 2816 
C 787 2816 211 2201 211 1379 
C 211 521 813 -64 1466 -64 
C 2259 -64 2458 676 2458 747 
C 2458 773 2451 792 2406 792 
C 2362 792 2355 786 2330 702 
C 2163 180 1798 51 1523 51 
C 1114 51 621 431 621 1385 
C 621 2358 1094 2700 1472 2700 
C 1722 2700 2093 2582 2234 2240 
z
" transform="scale(0.015625)"/>
       <path id="CMR17-61" d="M 2304 1656 
C 2304 2048 2304 2275 2035 2534 
C 1798 2751 1523 2816 1306 2816 
C 800 2816 435 2408 435 1977 
C 435 1740 627 1728 666 1728 
C 749 1728 896 1779 896 1958 
C 896 2118 774 2188 666 2188 
C 640 2188 608 2182 589 2176 
C 723 2594 1069 2713 1293 2713 
C 1613 2713 1965 2421 1965 1875 
L 1965 1632 
C 1587 1619 1133 1568 774 1373 
C 371 1147 256 822 256 576 
C 256 77 832 -64 1171 -64 
C 1523 -64 1850 135 1990 505 
C 2003 219 2182 -39 2464 -39 
C 2598 -39 2938 51 2938 563 
L 2938 926 
L 2822 926 
L 2822 557 
C 2822 161 2650 109 2566 109 
C 2304 109 2304 446 2304 732 
L 2304 1656 
z
M 1965 887 
C 1965 323 1568 38 1216 38 
C 896 38 646 278 646 576 
C 646 771 730 1114 1101 1322 
C 1408 1497 1760 1523 1965 1536 
L 1965 887 
z
" transform="scale(0.015625)"/>
       <path id="CMR17-73" d="M 1978 2688 
C 1978 2803 1971 2809 1933 2809 
C 1907 2809 1901 2803 1824 2707 
C 1805 2681 1747 2617 1728 2592 
C 1523 2809 1235 2816 1126 2816 
C 416 2816 160 2444 160 2073 
C 160 1497 813 1363 998 1324 
C 1402 1241 1542 1216 1677 1100 
C 1760 1024 1901 883 1901 652 
C 1901 384 1747 38 1158 38 
C 602 38 403 460 288 1024 
C 269 1113 269 1120 218 1120 
C 166 1120 160 1113 160 985 
L 160 64 
C 160 -52 166 -58 205 -58 
C 237 -58 243 -52 275 0 
C 314 57 410 211 448 275 
C 576 102 800 -64 1158 -64 
C 1792 -64 2131 281 2131 780 
C 2131 1107 1958 1280 1875 1356 
C 1683 1555 1459 1600 1190 1651 
C 838 1728 390 1817 390 2208 
C 390 2374 480 2726 1126 2726 
C 1811 2726 1850 2086 1862 1881 
C 1869 1849 1901 1843 1920 1843 
C 1978 1843 1978 1862 1978 1971 
L 1978 2688 
z
" transform="scale(0.015625)"/>
       <path id="CMR17-70" d="M 1408 -1114 
C 998 -1114 973 -1088 973 -834 
L 973 380 
C 1158 109 1427 -64 1766 -64 
C 2406 -64 3053 503 3053 1382 
C 3053 2196 2496 2816 1837 2816 
C 1453 2816 1139 2603 960 2345 
L 960 2816 
L 198 2745 
L 198 2577 
C 576 2577 634 2539 634 2228 
L 634 -834 
C 634 -1081 608 -1114 198 -1114 
L 198 -1280 
C 352 -1268 634 -1268 800 -1268 
C 966 -1268 1254 -1268 1408 -1280 
L 1408 -1114 
z
M 973 2015 
C 973 2106 973 2241 1222 2481 
C 1254 2506 1472 2700 1792 2700 
C 2259 2700 2643 2112 2643 1376 
C 2643 639 2234 38 1728 38 
C 1498 38 1248 148 1056 451 
C 973 594 973 632 973 736 
L 973 2015 
z
" transform="scale(0.015625)"/>
       <path id="CMR17-28" d="M 1958 -1562 
C 1958 -1556 1958 -1543 1939 -1524 
C 1645 -1223 858 -403 858 1596 
C 858 3595 1632 4408 1946 4729 
C 1946 4735 1958 4748 1958 4767 
C 1958 4787 1939 4800 1914 4800 
C 1843 4800 1299 4325 986 3620 
C 666 2909 576 2218 576 1603 
C 576 1141 621 360 1005 -467 
C 1312 -1133 1837 -1600 1914 -1600 
C 1946 -1600 1958 -1588 1958 -1562 
z
" transform="scale(0.015625)"/>
       <path id="CMR17-67" d="M 710 1165 
C 832 1068 1043 960 1299 960 
C 1805 960 2240 1359 2240 1895 
C 2240 2063 2189 2321 1997 2521 
C 2176 2713 2438 2777 2586 2777 
C 2611 2777 2650 2777 2682 2758 
C 2656 2751 2598 2726 2598 2623 
C 2598 2540 2656 2483 2739 2483 
C 2835 2483 2886 2547 2886 2630 
C 2886 2751 2790 2880 2586 2880 
C 2330 2880 2106 2758 1926 2591 
C 1734 2764 1504 2828 1299 2828 
C 794 2828 358 2431 358 1895 
C 358 1527 570 1294 634 1230 
C 442 1004 442 742 442 710 
C 442 544 506 300 723 166 
C 390 82 128 -184 128 -517 
C 128 -996 736 -1344 1466 -1344 
C 2170 -1344 2803 -1009 2803 -510 
C 2803 384 1856 384 1363 384 
C 1216 384 954 384 922 390 
C 723 422 589 601 589 825 
C 589 883 589 1024 710 1165 
z
M 1299 1068 
C 736 1068 736 1766 736 1895 
C 736 2024 736 2719 1299 2719 
C 1862 2719 1862 2024 1862 1895 
C 1862 1766 1862 1068 1299 1068 
z
M 1466 -1236 
C 826 -1236 384 -883 384 -517 
C 384 -311 493 -118 634 -11 
C 794 102 858 102 1293 102 
C 1818 102 2547 102 2547 -517 
C 2547 -883 2106 -1236 1466 -1236 
z
" transform="scale(0.015625)"/>
       <path id="CMR17-29" d="M 1683 1596 
C 1683 2057 1638 2839 1254 3665 
C 947 4332 422 4800 346 4800 
C 326 4800 301 4793 301 4761 
C 301 4748 307 4742 314 4729 
C 621 4408 1402 3595 1402 1603 
C 1402 -396 627 -1210 314 -1530 
C 307 -1543 301 -1549 301 -1562 
C 301 -1594 326 -1600 346 -1600 
C 416 -1600 960 -1127 1274 -422 
C 1594 289 1683 981 1683 1596 
z
" transform="scale(0.015625)"/>
      </defs>
      <use xlink:href="#CMR17-66" transform="scale(0.996264)"/>
      <use xlink:href="#CMR17-6f" transform="translate(27.473512 0) scale(0.996264)"/>
      <use xlink:href="#CMR17-72" transform="translate(73.16399 0) scale(0.996264)"/>
      <use xlink:href="#CMR17-65" transform="translate(108.444757 0) scale(0.996264)"/>
      <use xlink:href="#CMR17-63" transform="translate(148.930418 0) scale(0.996264)"/>
      <use xlink:href="#CMR17-61" transform="translate(189.416078 0) scale(0.996264)"/>
      <use xlink:href="#CMR17-73" transform="translate(235.106555 0) scale(0.996264)"/>
      <use xlink:href="#CMR17-74" transform="translate(270.907893 0) scale(0.996264)"/>
      <use xlink:href="#CMR17-6d" transform="translate(336.264627 0) scale(0.996264)"/>
      <use xlink:href="#CMR17-65" transform="translate(413.184217 0) scale(0.996264)"/>
      <use xlink:href="#CMR17-64" transform="translate(453.669877 0) scale(0.996264)"/>
      <use xlink:href="#CMR17-69" transform="translate(504.565247 0) scale(0.996264)"/>
      <use xlink:href="#CMR17-61" transform="translate(529.436306 0) scale(0.996264)"/>
      <use xlink:href="#CMR17-70" transform="translate(605.202749 0) scale(0.996264)"/>
      <use xlink:href="#CMR17-65" transform="translate(658.700558 0) scale(0.996264)"/>
      <use xlink:href="#CMR17-73" transform="translate(699.186218 0) scale(0.996264)"/>
      <use xlink:href="#CMR17-61" transform="translate(734.987556 0) scale(0.996264)"/>
      <use xlink:href="#CMR17-74" transform="translate(780.678033 0) scale(0.996264)"/>
      <use xlink:href="#CMR17-61" transform="translate(815.958801 0) scale(0.996264)"/>
      <use xlink:href="#CMR17-28" transform="translate(891.725244 0) scale(0.996264)"/>
      <use xlink:href="#CMR17-74" transform="translate(927.006012 0) scale(0.996264)"/>
      <use xlink:href="#CMR17-72" transform="translate(962.28678 0) scale(0.996264)"/>
      <use xlink:href="#CMR17-61" transform="translate(997.567548 0) scale(0.996264)"/>
      <use xlink:href="#CMR17-69" transform="translate(1043.258025 0) scale(0.996264)"/>
      <use xlink:href="#CMR17-6e" transform="translate(1068.129083 0) scale(0.996264)"/>
      <use xlink:href="#CMR17-69" transform="translate(1119.024453 0) scale(0.996264)"/>
      <use xlink:href="#CMR17-6e" transform="translate(1143.895511 0) scale(0.996264)"/>
      <use xlink:href="#CMR17-67" transform="translate(1194.790881 0) scale(0.996264)"/>
      <use xlink:href="#CMR17-72" transform="translate(1270.557325 0) scale(0.996264)"/>
      <use xlink:href="#CMR17-6d" transform="translate(1305.838093 0) scale(0.996264)"/>
      <use xlink:href="#CMR17-73" transform="translate(1382.757682 0) scale(0.996264)"/>
      <use xlink:href="#CMR17-65" transform="translate(1418.55902 0) scale(0.996264)"/>
      <use xlink:href="#CMR17-29" transform="translate(1459.04468 0) scale(0.996264)"/>
     </g>
    </g>
    <g id="patch_7">
     <path d="M 48.296314 323.115404 
L 72.296314 323.115404 
L 72.296314 314.715404 
L 48.296314 314.715404 
z
" style="fill: #808080; fill-opacity: 0.3; stroke: #808080; stroke-opacity: 0.3; stroke-linejoin: miter"/>
    </g>
    <g id="text_16">
     <!-- 99 perc. CI -->
     <g transform="translate(81.896314 323.115404) scale(0.12 -0.12)">
      <defs>
       <path id="CMR17-39" d="M 2253 1871 
C 2253 448 1670 25 1190 25 
C 1043 25 685 43 538 281 
C 704 256 826 345 826 505 
C 826 678 685 736 595 736 
C 538 736 365 710 365 492 
C 365 68 742 -128 1203 -128 
C 1939 -128 2688 665 2688 2090 
C 2688 3857 1971 4224 1485 4224 
C 851 4224 243 3664 243 2800 
C 243 2000 762 1408 1414 1408 
C 1952 1408 2189 1910 2253 2122 
L 2253 1871 
z
M 1427 1510 
C 1254 1510 1011 1542 813 1929 
C 678 2181 678 2477 678 2793 
C 678 3174 678 3438 858 3722 
C 947 3857 1114 4076 1485 4076 
C 2240 4076 2240 2909 2240 2651 
C 2240 2193 2035 1510 1427 1510 
z
" transform="scale(0.015625)"/>
       <path id="CMR17-2e" d="M 1062 262 
C 1062 422 934 524 800 524 
C 672 524 538 422 538 262 
C 538 102 666 0 800 0 
C 928 0 1062 102 1062 262 
z
" transform="scale(0.015625)"/>
       <path id="CMR17-43" d="M 3974 4351 
C 3974 4467 3968 4473 3930 4473 
C 3904 4473 3898 4467 3853 4390 
L 3571 3849 
C 3258 4249 2874 4480 2381 4480 
C 1286 4480 294 3507 294 2179 
C 294 837 1286 -128 2387 -128 
C 3366 -128 3974 741 3974 1482 
C 3974 1547 3974 1573 3917 1573 
C 3866 1573 3866 1553 3859 1495 
C 3808 592 3168 38 2477 38 
C 1824 38 781 502 781 2179 
C 781 3862 1843 4313 2464 4313 
C 3187 4313 3712 3681 3834 2785 
C 3846 2707 3846 2695 3904 2695 
C 3974 2695 3974 2707 3974 2824 
L 3974 4351 
z
" transform="scale(0.015625)"/>
       <path id="CMR17-49" d="M 1261 3898 
C 1261 4185 1338 4185 1798 4185 
L 1798 4352 
C 1594 4339 1267 4339 1050 4339 
C 832 4339 506 4339 301 4352 
L 301 4185 
C 762 4185 838 4185 838 3898 
L 838 453 
C 838 166 762 166 301 166 
L 301 0 
C 506 12 832 12 1050 12 
C 1267 12 1594 12 1798 0 
L 1798 166 
C 1338 166 1261 166 1261 453 
L 1261 3898 
z
" transform="scale(0.015625)"/>
      </defs>
      <use xlink:href="#CMR17-39" transform="scale(0.996264)"/>
      <use xlink:href="#CMR17-39" transform="translate(45.690477 0) scale(0.996264)"/>
      <use xlink:href="#CMR17-70" transform="translate(121.456921 0) scale(0.996264)"/>
      <use xlink:href="#CMR17-65" transform="translate(174.954729 0) scale(0.996264)"/>
      <use xlink:href="#CMR17-72" transform="translate(215.44039 0) scale(0.996264)"/>
      <use xlink:href="#CMR17-63" transform="translate(250.721157 0) scale(0.996264)"/>
      <use xlink:href="#CMR17-2e" transform="translate(291.206818 0) scale(0.996264)"/>
      <use xlink:href="#CMR17-43" transform="translate(356.563537 0) scale(0.996264)"/>
      <use xlink:href="#CMR17-49" transform="translate(423.073417 0) scale(0.996264)"/>
     </g>
    </g>
   </g>
  </g>
 </g>
 <defs>
  <clipPath id="p6f128af4da">
   <rect x="37.496314" y="3.6" width="558" height="332.64"/>
  </clipPath>
 </defs>
</svg>
