<?xml version="1.0" encoding="utf-8" standalone="no"?>
<!DOCTYPE svg PUBLIC "-//W3C//DTD SVG 1.1//EN"
  "http://www.w3.org/Graphics/SVG/1.1/DTD/svg11.dtd">
<svg xmlns:xlink="http://www.w3.org/1999/xlink" width="599.096314pt" height="359.281364pt" viewBox="0 0 599.096314 359.281364" xmlns="http://www.w3.org/2000/svg" version="1.1">
 <metadata>
  <rdf:RDF xmlns:dc="http://purl.org/dc/elements/1.1/" xmlns:cc="http://creativecommons.org/ns#" xmlns:rdf="http://www.w3.org/1999/02/22-rdf-syntax-ns#">
   <cc:Work>
    <dc:type rdf:resource="http://purl.org/dc/dcmitype/StillImage"/>
    <dc:date>2025-04-08T14:00:40.374284</dc:date>
    <dc:format>image/svg+xml</dc:format>
    <dc:creator>
     <cc:Agent>
      <dc:title>Matplotlib v3.9.2, https://matplotlib.org/</dc:title>
     </cc:Agent>
    </dc:creator>
   </cc:Work>
  </rdf:RDF>
 </metadata>
 <defs>
  <style type="text/css">*{stroke-linejoin: round; stroke-linecap: butt}</style>
 </defs>
 <g id="figure_1">
  <g id="patch_1">
   <path d="M 0 359.281364 
L 599.096314 359.281364 
L 599.096314 0 
L 0 0 
z
" style="fill: #ffffff"/>
  </g>
  <g id="axes_1">
   <g id="patch_2">
    <path d="M 37.496314 336.24 
L 595.496314 336.24 
L 595.496314 3.6 
L 37.496314 3.6 
z
" style="fill: #ffffff"/>
   </g>
   <g id="PolyCollection_1">
    <defs>
     <path id="m18f439efc1" d="M 62.85995 -287.329137 
L 62.85995 -169.016266 
L 64.74527 -166.63099 
L 66.569773 -157.018848 
L 68.455093 -161.623791 
L 70.279597 -175.777159 
L 72.164917 -166.640402 
L 74.050237 -162.767942 
L 75.87474 -168.642925 
L 77.76006 -134.90566 
L 79.584563 -167.417782 
L 81.469883 -164.960631 
L 83.355203 -156.769506 
L 85.058073 -155.388954 
L 86.943393 -151.96081 
L 88.767896 -160.280136 
L 90.653216 -153.34788 
L 92.47772 -154.136653 
L 94.36304 -158.300063 
L 96.24836 -146.469949 
L 98.072863 -168.234515 
L 99.958183 -159.789902 
L 101.782686 -161.999317 
L 103.668006 -171.841174 
L 105.553327 -163.20644 
L 107.256196 -162.450372 
L 109.141516 -153.682113 
L 110.96602 -164.919711 
L 112.85134 -164.508547 
L 114.675843 -172.954121 
L 116.561163 -174.542926 
L 118.446483 -148.233462 
L 120.270986 -157.489256 
L 122.156306 -167.965745 
L 123.98081 -165.097967 
L 125.86613 -160.77456 
L 127.75145 -164.584368 
L 129.515136 -173.68251 
L 131.400456 -164.245449 
L 133.22496 -165.430397 
L 135.11028 -151.889179 
L 136.934783 -156.99594 
L 138.820103 -166.509299 
L 140.705423 -163.371064 
L 142.529926 -164.923422 
L 144.415246 -168.665995 
L 146.23975 -162.945313 
L 148.12507 -168.042685 
L 150.01039 -166.653946 
L 151.713259 -162.41399 
L 153.598579 -165.791222 
L 155.423083 -159.457382 
L 157.308403 -162.678249 
L 159.132906 -167.088238 
L 161.018226 -167.924816 
L 162.903546 -163.097641 
L 164.728049 -163.008437 
L 166.613369 -164.354257 
L 168.437873 -160.900438 
L 170.323193 -167.036012 
L 172.208513 -167.266262 
L 173.911383 -165.755713 
L 175.796703 -160.73141 
L 177.621206 -162.909309 
L 179.506526 -159.463331 
L 181.331029 -160.777224 
L 183.216349 -159.269384 
L 185.101669 -164.304606 
L 186.926173 -170.91728 
L 188.811493 -170.69079 
L 190.635996 -170.538598 
L 192.521316 -169.459414 
L 194.406636 -168.220101 
L 196.109506 -161.165485 
L 197.994826 -165.924812 
L 199.819329 -163.664927 
L 201.704649 -166.845494 
L 203.529152 -167.890967 
L 205.414472 -160.437795 
L 207.299792 -166.445445 
L 209.124296 -165.080034 
L 211.009616 -170.8415 
L 212.834119 -168.992358 
L 214.719439 -167.069849 
L 216.604759 -165.307849 
L 218.368446 -164.239809 
L 220.253766 -161.429853 
L 222.078269 -166.410729 
L 223.963589 -164.754432 
L 225.788092 -163.704529 
L 227.673412 -154.650738 
L 229.558732 -158.148542 
L 231.383236 -168.787997 
L 233.268556 -163.161509 
L 235.093059 -104.440474 
L 236.978379 -120.463844 
L 238.863699 -170.069459 
L 240.566569 -120.472746 
L 242.451889 -99.542134 
L 244.276392 -143.392222 
L 246.161712 -183.983884 
L 247.986216 -117.83145 
L 249.871536 -174.639551 
L 251.756856 -161.870476 
L 253.581359 -162.475422 
L 255.466679 -161.527733 
L 257.291182 -182.210731 
L 259.176502 -220.739551 
L 261.061822 -186.757694 
L 262.764692 -182.912815 
L 264.650012 -158.504082 
L 266.474515 -170.010897 
L 268.359835 -164.158296 
L 270.184339 -156.612004 
L 272.069659 -158.538912 
L 273.954979 -161.761125 
L 275.779482 -171.684412 
L 277.664802 -162.907635 
L 279.489305 -171.144943 
L 281.374625 -151.371451 
L 283.259946 -146.51322 
L 284.962815 -171.653138 
L 286.848135 -158.105054 
L 288.672639 -162.662177 
L 290.557959 -161.025009 
L 292.382462 -168.263255 
L 294.267782 -157.460124 
L 296.153102 -165.082399 
L 297.977605 -158.566617 
L 299.862925 -170.313718 
L 301.687429 -149.553906 
L 303.572749 -172.338273 
L 305.458069 -162.572728 
L 307.221755 -171.073737 
L 309.107075 -167.260466 
L 310.931579 -149.386368 
L 312.816899 -168.148631 
L 314.641402 -166.803371 
L 316.526722 -168.886046 
L 318.412042 -169.161412 
L 320.236545 -151.983665 
L 322.121865 -169.496552 
L 323.946369 -156.433454 
L 325.831689 -156.799866 
L 327.717009 -159.885214 
L 329.419878 -154.675767 
L 331.305198 -165.745608 
L 333.129702 -165.091333 
L 335.015022 -169.826819 
L 336.839525 -156.805836 
L 338.724845 -139.776468 
L 340.610165 -168.820655 
L 342.434668 -161.211554 
L 344.319988 -161.809126 
L 346.144492 -167.333074 
L 348.029812 -158.234996 
L 349.915132 -155.924656 
L 351.618002 -162.188426 
L 353.503322 -163.693363 
L 355.327825 -163.204774 
L 357.213145 -160.034637 
L 359.037648 -166.110347 
L 360.922968 -162.162195 
L 362.808288 -165.608525 
L 364.632792 -162.383126 
L 366.518112 -158.531752 
L 368.342615 -162.538142 
L 370.227935 -168.028766 
L 372.113255 -168.334746 
L 373.816125 -173.080634 
L 375.701445 -156.10403 
L 377.525948 -160.417428 
L 379.411268 -165.885776 
L 381.235771 -149.964362 
L 383.121091 -162.206541 
L 385.006411 -164.986012 
L 386.830915 -161.763151 
L 388.716235 -151.096005 
L 390.540738 -173.413742 
L 392.426058 -154.568858 
L 394.311378 -162.760462 
L 396.075065 -150.724036 
L 397.960385 -175.122928 
L 399.784888 -166.499178 
L 401.670208 -169.428501 
L 403.494711 -160.884806 
L 405.380031 -165.607989 
L 407.265351 -171.135934 
L 409.089855 -158.865129 
L 410.975175 -159.242255 
L 412.799678 -159.679647 
L 414.684998 -158.26065 
L 416.570318 -166.084125 
L 418.273188 -166.22593 
L 420.158508 -163.105123 
L 421.983011 -159.968492 
L 423.868331 -164.102639 
L 425.692835 -163.662621 
L 427.578155 -166.319017 
L 429.463475 -159.82492 
L 431.287978 -164.132053 
L 433.173298 -163.98686 
L 434.997801 -162.320882 
L 436.883121 -164.221795 
L 438.768441 -165.048799 
L 440.471311 -164.786222 
L 442.356631 -156.32229 
L 444.181134 -163.597937 
L 446.066454 -161.078823 
L 447.890958 -164.732211 
L 449.776278 -166.265556 
L 451.661598 -164.040826 
L 453.486101 -165.046337 
L 455.371421 -162.745497 
L 457.195924 -157.216642 
L 459.081244 -160.719042 
L 460.966565 -157.651171 
L 462.669434 -167.761581 
L 464.554754 -172.600041 
L 466.379258 -167.968818 
L 468.264578 -168.466258 
L 470.089081 -163.684427 
L 471.974401 -171.789456 
L 473.859721 -178.94563 
L 475.684224 -160.147363 
L 477.569544 -166.28389 
L 479.394048 -161.460831 
L 481.279368 -165.369811 
L 483.164688 -165.163724 
L 484.928374 -162.600644 
L 486.813694 -157.780093 
L 488.638198 -121.351529 
L 490.523518 -164.574076 
L 492.348021 -155.816905 
L 494.233341 -169.133471 
L 496.118661 -177.327885 
L 497.943164 -169.88224 
L 499.828484 -158.748993 
L 501.652988 -159.731116 
L 503.538308 -167.610752 
L 505.423628 -170.967809 
L 507.126497 -158.44989 
L 509.011817 -166.338515 
L 510.836321 -160.032816 
L 512.721641 -171.778537 
L 514.546144 -162.870452 
L 516.431464 -163.577241 
L 518.316784 -172.35421 
L 520.141287 -165.674406 
L 522.026607 -156.597508 
L 523.851111 -161.096491 
L 525.736431 -169.968359 
L 527.621751 -159.428471 
L 529.324621 -157.571715 
L 531.209941 -157.206738 
L 533.034444 -157.678804 
L 534.919764 -154.068723 
L 536.744267 -153.068175 
L 538.629587 -157.94005 
L 540.514907 -162.641852 
L 542.339411 -174.632893 
L 544.224731 -135.579975 
L 546.049234 -151.959938 
L 547.934554 -175.683095 
L 549.819874 -160.040308 
L 551.522744 -165.252061 
L 553.408064 -158.68803 
L 555.232567 -158.079765 
L 557.117887 -170.136939 
L 558.94239 -154.601805 
L 560.82771 -165.830026 
L 562.71303 -165.608466 
L 564.537534 -151.48113 
L 566.422854 -156.226636 
L 568.247357 -152.985723 
L 570.132677 -173.21075 
L 570.132677 -299.417831 
L 570.132677 -299.417831 
L 568.247357 -279.119791 
L 566.422854 -282.371346 
L 564.537534 -277.696262 
L 562.71303 -291.85832 
L 560.82771 -292.106357 
L 558.94239 -280.791808 
L 557.117887 -296.385488 
L 555.232567 -284.31927 
L 553.408064 -284.945103 
L 551.522744 -291.551704 
L 549.819874 -286.402654 
L 547.934554 -302.095882 
L 546.049234 -278.275868 
L 544.224731 -261.952729 
L 542.339411 -300.507916 
L 540.514907 -288.418285 
L 538.629587 -283.794455 
L 536.744267 -278.917385 
L 534.919764 -279.575424 
L 533.034444 -283.253266 
L 531.209941 -282.828961 
L 529.324621 -283.198016 
L 527.621751 -285.086134 
L 525.736431 -295.682994 
L 523.851111 -286.801169 
L 522.026607 -282.361332 
L 520.141287 -291.49263 
L 518.316784 -298.234782 
L 516.431464 -289.487954 
L 514.546144 -288.84078 
L 512.721641 -297.813543 
L 510.836321 -286.036302 
L 509.011817 -292.408869 
L 507.126497 -284.549308 
L 505.423628 -297.128807 
L 503.538308 -292.444863 
L 501.652988 -284.594066 
L 499.828484 -283.677874 
L 497.943164 -294.850878 
L 496.118661 -303.622228 
L 494.233341 -295.475893 
L 492.348021 -280.459616 
L 490.523518 -289.029851 
L 488.638198 -245.461114 
L 486.813694 -279.952627 
L 484.928374 -284.807004 
L 483.164688 -287.406975 
L 481.279368 -287.646983 
L 479.394048 -283.719947 
L 477.569544 -288.607012 
L 475.684224 -282.479282 
L 473.859721 -301.164321 
L 471.974401 -294.044322 
L 470.089081 -286.003194 
L 468.264578 -290.78775 
L 466.379258 -290.326878 
L 464.554754 -295.040359 
L 462.669434 -290.191672 
L 460.966565 -280.122418 
L 459.081244 -283.024127 
L 457.195924 -279.572545 
L 455.371421 -285.01565 
L 453.486101 -287.372756 
L 451.661598 -286.428525 
L 449.776278 -288.710281 
L 447.890958 -287.24545 
L 446.066454 -283.642451 
L 444.181134 -286.205455 
L 442.356631 -279.008537 
L 440.471311 -287.440178 
L 438.768441 -287.651593 
L 436.883121 -286.88562 
L 434.997801 -285.045891 
L 433.173298 -286.784378 
L 431.287978 -286.992366 
L 429.463475 -282.747144 
L 427.578155 -289.309331 
L 425.692835 -286.719263 
L 423.868331 -288.38162 
L 421.983011 -284.320996 
L 420.158508 -287.520051 
L 418.273188 -290.692988 
L 416.570318 -290.609031 
L 414.684998 -281.651437 
L 412.799678 -283.131258 
L 410.975175 -282.762113 
L 409.089855 -282.462876 
L 407.265351 -294.811504 
L 405.380031 -289.341782 
L 403.494711 -284.673489 
L 401.670208 -293.263359 
L 399.784888 -290.35963 
L 397.960385 -300.084277 
L 396.075065 -275.758508 
L 394.311378 -286.350535 
L 392.426058 -279.385369 
L 390.540738 -298.304053 
L 388.716235 -275.904412 
L 386.830915 -286.452722 
L 385.006411 -289.676441 
L 383.121091 -286.961176 
L 381.235771 -274.797738 
L 379.411268 -290.791877 
L 377.525948 -285.39676 
L 375.701445 -281.158453 
L 373.816125 -298.200543 
L 372.113255 -293.482865 
L 370.227935 -293.248006 
L 368.342615 -287.702837 
L 366.518112 -283.722309 
L 364.632792 -287.638088 
L 362.808288 -290.917989 
L 360.922968 -287.537721 
L 359.037648 -291.538536 
L 357.213145 -285.527079 
L 355.327825 -288.769888 
L 353.503322 -289.318824 
L 351.618002 -287.885219 
L 349.915132 -281.692271 
L 348.029812 -284.05978 
L 346.144492 -293.200705 
L 344.319988 -287.740917 
L 342.434668 -287.21706 
L 340.610165 -294.873186 
L 338.724845 -265.756018 
L 336.839525 -282.855047 
L 335.015022 -295.914173 
L 333.129702 -291.254603 
L 331.305198 -291.968991 
L 329.419878 -280.955307 
L 327.717009 -286.137556 
L 325.831689 -283.105195 
L 323.946369 -282.75604 
L 322.121865 -295.871225 
L 320.236545 -278.389261 
L 318.412042 -295.619866 
L 316.526722 -295.423308 
L 314.641402 -293.357537 
L 312.816899 -294.646171 
L 310.931579 -275.96406 
L 309.107075 -293.906608 
L 307.221755 -297.758856 
L 305.458069 -289.242437 
L 303.572749 -299.081329 
L 301.687429 -276.340522 
L 299.862925 -297.172272 
L 297.977605 -285.500997 
L 296.153102 -291.09087 
L 294.267782 -283.495508 
L 292.382462 -294.191305 
L 290.557959 -287.032263 
L 288.672639 -288.730242 
L 286.848135 -284.220498 
L 284.962815 -297.84126 
L 283.259946 -272.671652 
L 281.374625 -277.498719 
L 279.489305 -297.355469 
L 277.664802 -289.107459 
L 275.779482 -297.938081 
L 273.954979 -288.096558 
L 272.069659 -284.954811 
L 270.184339 -283.018639 
L 268.359835 -290.300912 
L 266.474515 -296.182625 
L 264.650012 -284.549531 
L 262.764692 -299.832668 
L 261.061822 -306.64016 
L 259.176502 -340.561364 
L 257.291182 -302.072296 
L 255.466679 -283.924699 
L 253.581359 -284.832304 
L 251.756856 -284.015985 
L 249.871536 -296.860731 
L 247.986216 -240.105833 
L 246.161712 -306.28403 
L 244.276392 -256.802551 
L 242.451889 -218.010011 
L 240.566569 -238.819095 
L 238.863699 -293.711011 
L 236.978379 -244.203837 
L 235.093059 -230.374487 
L 233.268556 -283.951409 
L 231.383236 -289.335469 
L 229.558732 -278.737085 
L 227.673412 -275.033185 
L 225.788092 -284.000045 
L 223.963589 -285.085906 
L 222.078269 -286.743106 
L 220.253766 -281.756133 
L 218.368446 -284.609634 
L 216.604759 -285.322154 
L 214.719439 -287.173657 
L 212.834119 -288.847851 
L 211.009616 -290.777184 
L 209.124296 -285.044723 
L 207.299792 -286.26084 
L 205.414472 -280.354752 
L 203.529152 -287.858393 
L 201.704649 -286.848779 
L 199.819329 -283.613863 
L 197.994826 -285.84154 
L 196.109506 -281.150323 
L 194.406636 -289.908724 
L 192.521316 -291.223101 
L 190.635996 -292.37777 
L 188.811493 -292.57848 
L 186.926173 -292.878444 
L 185.101669 -286.335508 
L 183.216349 -281.378797 
L 181.331029 -282.894189 
L 179.506526 -281.648792 
L 177.621206 -285.17672 
L 175.796703 -283.066536 
L 173.911383 -286.27016 
L 172.208513 -287.889088 
L 170.323193 -287.756452 
L 168.437873 -277.599603 
L 166.613369 -285.097818 
L 164.728049 -283.853181 
L 162.903546 -284.022664 
L 161.018226 -289.040185 
L 159.132906 -288.298253 
L 157.308403 -283.955315 
L 155.423083 -280.766948 
L 153.598579 -287.177747 
L 151.713259 -283.868144 
L 150.01039 -288.128073 
L 148.12507 -289.60201 
L 146.23975 -284.489304 
L 144.415246 -290.284268 
L 142.529926 -286.596452 
L 140.705423 -285.090187 
L 138.820103 -288.232931 
L 136.934783 -278.769546 
L 135.11028 -275.280981 
L 133.22496 -287.302366 
L 131.400456 -286.145984 
L 129.515136 -297.274574 
L 127.75145 -288.142174 
L 125.86613 -284.363575 
L 123.98081 -287.196603 
L 122.156306 -290.13217 
L 120.270986 -279.66636 
L 118.446483 -270.513619 
L 116.561163 -296.872419 
L 114.675843 -295.258843 
L 112.85134 -286.729353 
L 110.96602 -287.103265 
L 109.141516 -275.89339 
L 107.256196 -284.324121 
L 105.553327 -285.149695 
L 103.668006 -293.819711 
L 101.782686 -283.849205 
L 99.958183 -281.721379 
L 98.072863 -289.913876 
L 96.24836 -268.147994 
L 94.36304 -279.321441 
L 92.47772 -276.27168 
L 90.653216 -275.528893 
L 88.767896 -282.430711 
L 86.943393 -272.686172 
L 85.058073 -276.072415 
L 83.355203 -277.503467 
L 81.469883 -285.739932 
L 79.584563 -288.131432 
L 77.76006 -255.479461 
L 75.87474 -287.994032 
L 74.050237 -282.147868 
L 72.164917 -286.047618 
L 70.279597 -295.139409 
L 68.455093 -280.704754 
L 66.569773 -276.184988 
L 64.74527 -284.947175 
L 62.85995 -287.329137 
z
" style="stroke: #808080; stroke-opacity: 0.3"/>
    </defs>
    <g clip-path="url(#p63a8c76d9d)">
     <use xlink:href="#m18f439efc1" x="0" y="359.281364" style="fill: #808080; fill-opacity: 0.3; stroke: #808080; stroke-opacity: 0.3"/>
    </g>
   </g>
   <g id="matplotlib.axis_1">
    <g id="xtick_1">
     <g id="line2d_1">
      <defs>
       <path id="m935919bd2b" d="M 0 0 
L 0 -3 
" style="stroke: #000000; stroke-width: 0.5"/>
      </defs>
      <g>
       <use xlink:href="#m935919bd2b" x="125.926946" y="336.24" style="stroke: #000000; stroke-width: 0.5"/>
      </g>
     </g>
     <g id="line2d_2">
      <defs>
       <path id="mfc63ba3c5d" d="M 0 0 
L 0 3 
" style="stroke: #000000; stroke-width: 0.5"/>
      </defs>
      <g>
       <use xlink:href="#mfc63ba3c5d" x="125.926946" y="3.6" style="stroke: #000000; stroke-width: 0.5"/>
      </g>
     </g>
     <g id="text_1">
      <!-- $\mathdefault{2004}$ -->
      <g transform="translate(109.478375 352.1933) scale(0.18 -0.18)">
       <defs>
        <path id="CMR17-32" d="M 2669 990 
L 2554 990 
C 2490 537 2438 460 2413 422 
C 2381 371 1920 371 1830 371 
L 602 371 
C 832 620 1280 1073 1824 1596 
C 2214 1966 2669 2400 2669 3033 
C 2669 3788 2067 4224 1395 4224 
C 691 4224 262 3603 262 3027 
C 262 2777 448 2745 525 2745 
C 589 2745 781 2783 781 3007 
C 781 3206 614 3264 525 3264 
C 486 3264 448 3257 422 3244 
C 544 3788 915 4057 1306 4057 
C 1862 4057 2227 3616 2227 3033 
C 2227 2477 1901 1998 1536 1583 
L 262 147 
L 262 0 
L 2515 0 
L 2669 990 
z
" transform="scale(0.015625)"/>
        <path id="CMR17-30" d="M 2688 2038 
C 2688 2430 2682 3099 2413 3613 
C 2176 4063 1798 4224 1466 4224 
C 1158 4224 768 4082 525 3620 
C 269 3137 243 2539 243 2038 
C 243 1671 250 1112 448 623 
C 723 -39 1216 -128 1466 -128 
C 1760 -128 2208 -7 2470 604 
C 2662 1048 2688 1568 2688 2038 
z
M 1466 -26 
C 1056 -26 813 328 723 816 
C 653 1196 653 1749 653 2109 
C 653 2604 653 3015 736 3407 
C 858 3954 1216 4121 1466 4121 
C 1728 4121 2067 3947 2189 3420 
C 2272 3054 2278 2623 2278 2109 
C 2278 1691 2278 1176 2202 797 
C 2067 96 1690 -26 1466 -26 
z
" transform="scale(0.015625)"/>
        <path id="CMR17-34" d="M 2150 4147 
C 2150 4281 2144 4288 2029 4288 
L 128 1254 
L 128 1088 
L 1779 1088 
L 1779 460 
C 1779 230 1766 166 1318 166 
L 1197 166 
L 1197 0 
C 1402 12 1747 12 1965 12 
C 2182 12 2528 12 2733 0 
L 2733 166 
L 2611 166 
C 2163 166 2150 230 2150 460 
L 2150 1088 
L 2803 1088 
L 2803 1254 
L 2150 1254 
L 2150 4147 
z
M 1798 3723 
L 1798 1254 
L 256 1254 
L 1798 3723 
z
" transform="scale(0.015625)"/>
       </defs>
       <use xlink:href="#CMR17-32" transform="scale(0.996264)"/>
       <use xlink:href="#CMR17-30" transform="translate(45.690477 0) scale(0.996264)"/>
       <use xlink:href="#CMR17-30" transform="translate(91.380954 0) scale(0.996264)"/>
       <use xlink:href="#CMR17-34" transform="translate(137.071431 0) scale(0.996264)"/>
      </g>
     </g>
    </g>
    <g id="xtick_2">
     <g id="line2d_3">
      <g>
       <use xlink:href="#m935919bd2b" x="214.780256" y="336.24" style="stroke: #000000; stroke-width: 0.5"/>
      </g>
     </g>
     <g id="line2d_4">
      <g>
       <use xlink:href="#mfc63ba3c5d" x="214.780256" y="3.6" style="stroke: #000000; stroke-width: 0.5"/>
      </g>
     </g>
     <g id="text_2">
      <!-- $\mathdefault{2008}$ -->
      <g transform="translate(198.331684 352.1933) scale(0.18 -0.18)">
       <defs>
        <path id="CMR17-38" d="M 1741 2289 
C 2144 2494 2554 2803 2554 3298 
C 2554 3884 1990 4224 1472 4224 
C 890 4224 378 3800 378 3215 
C 378 3054 416 2777 666 2533 
C 730 2469 998 2276 1171 2154 
C 883 2006 211 1652 211 945 
C 211 282 838 -128 1459 -128 
C 2144 -128 2720 366 2720 1022 
C 2720 1607 2330 1877 2074 2051 
L 1741 2289 
z
M 902 2855 
C 851 2887 595 3086 595 3388 
C 595 3781 998 4076 1459 4076 
C 1965 4076 2336 3716 2336 3298 
C 2336 2700 1670 2359 1638 2359 
C 1632 2359 1626 2359 1574 2398 
L 902 2855 
z
M 2080 1536 
C 2176 1466 2483 1253 2483 861 
C 2483 385 2010 25 1472 25 
C 890 25 448 443 448 951 
C 448 1459 838 1884 1280 2083 
L 2080 1536 
z
" transform="scale(0.015625)"/>
       </defs>
       <use xlink:href="#CMR17-32" transform="scale(0.996264)"/>
       <use xlink:href="#CMR17-30" transform="translate(45.690477 0) scale(0.996264)"/>
       <use xlink:href="#CMR17-30" transform="translate(91.380954 0) scale(0.996264)"/>
       <use xlink:href="#CMR17-38" transform="translate(137.071431 0) scale(0.996264)"/>
      </g>
     </g>
    </g>
    <g id="xtick_3">
     <g id="line2d_5">
      <g>
       <use xlink:href="#m935919bd2b" x="303.633565" y="336.24" style="stroke: #000000; stroke-width: 0.5"/>
      </g>
     </g>
     <g id="line2d_6">
      <g>
       <use xlink:href="#mfc63ba3c5d" x="303.633565" y="3.6" style="stroke: #000000; stroke-width: 0.5"/>
      </g>
     </g>
     <g id="text_3">
      <!-- $\mathdefault{2012}$ -->
      <g transform="translate(287.184994 352.1933) scale(0.18 -0.18)">
       <defs>
        <path id="CMR17-31" d="M 1702 4083 
C 1702 4217 1696 4224 1606 4224 
C 1357 3927 979 3833 621 3820 
C 602 3820 570 3820 563 3808 
C 557 3795 557 3782 557 3648 
C 755 3648 1088 3686 1344 3839 
L 1344 467 
C 1344 243 1331 166 781 166 
L 589 166 
L 589 0 
C 896 6 1216 12 1523 12 
C 1830 12 2150 6 2458 0 
L 2458 166 
L 2266 166 
C 1715 166 1702 236 1702 467 
L 1702 4083 
z
" transform="scale(0.015625)"/>
       </defs>
       <use xlink:href="#CMR17-32" transform="scale(0.996264)"/>
       <use xlink:href="#CMR17-30" transform="translate(45.690477 0) scale(0.996264)"/>
       <use xlink:href="#CMR17-31" transform="translate(91.380954 0) scale(0.996264)"/>
       <use xlink:href="#CMR17-32" transform="translate(137.071431 0) scale(0.996264)"/>
      </g>
     </g>
    </g>
    <g id="xtick_4">
     <g id="line2d_7">
      <g>
       <use xlink:href="#m935919bd2b" x="392.486875" y="336.24" style="stroke: #000000; stroke-width: 0.5"/>
      </g>
     </g>
     <g id="line2d_8">
      <g>
       <use xlink:href="#mfc63ba3c5d" x="392.486875" y="3.6" style="stroke: #000000; stroke-width: 0.5"/>
      </g>
     </g>
     <g id="text_4">
      <!-- $\mathdefault{2016}$ -->
      <g transform="translate(376.038303 352.1933) scale(0.18 -0.18)">
       <defs>
        <path id="CMR17-36" d="M 678 2198 
C 678 3712 1395 4076 1811 4076 
C 1946 4076 2272 4049 2400 3782 
C 2298 3782 2106 3782 2106 3558 
C 2106 3385 2246 3328 2336 3328 
C 2394 3328 2566 3353 2566 3571 
C 2566 3987 2246 4224 1805 4224 
C 1043 4224 243 3411 243 2011 
C 243 257 966 -128 1478 -128 
C 2099 -128 2688 431 2688 1295 
C 2688 2101 2170 2688 1517 2688 
C 1126 2688 838 2430 678 1979 
L 678 2198 
z
M 1478 25 
C 691 25 691 1212 691 1450 
C 691 1914 909 2585 1504 2585 
C 1613 2585 1926 2585 2138 2140 
C 2253 1889 2253 1624 2253 1302 
C 2253 954 2253 696 2118 438 
C 1978 173 1773 25 1478 25 
z
" transform="scale(0.015625)"/>
       </defs>
       <use xlink:href="#CMR17-32" transform="scale(0.996264)"/>
       <use xlink:href="#CMR17-30" transform="translate(45.690477 0) scale(0.996264)"/>
       <use xlink:href="#CMR17-31" transform="translate(91.380954 0) scale(0.996264)"/>
       <use xlink:href="#CMR17-36" transform="translate(137.071431 0) scale(0.996264)"/>
      </g>
     </g>
    </g>
    <g id="xtick_5">
     <g id="line2d_9">
      <g>
       <use xlink:href="#m935919bd2b" x="481.340184" y="336.24" style="stroke: #000000; stroke-width: 0.5"/>
      </g>
     </g>
     <g id="line2d_10">
      <g>
       <use xlink:href="#mfc63ba3c5d" x="481.340184" y="3.6" style="stroke: #000000; stroke-width: 0.5"/>
      </g>
     </g>
     <g id="text_5">
      <!-- $\mathdefault{2020}$ -->
      <g transform="translate(464.891613 352.1933) scale(0.18 -0.18)">
       <use xlink:href="#CMR17-32" transform="scale(0.996264)"/>
       <use xlink:href="#CMR17-30" transform="translate(45.690477 0) scale(0.996264)"/>
       <use xlink:href="#CMR17-32" transform="translate(91.380954 0) scale(0.996264)"/>
       <use xlink:href="#CMR17-30" transform="translate(137.071431 0) scale(0.996264)"/>
      </g>
     </g>
    </g>
    <g id="xtick_6">
     <g id="line2d_11">
      <g>
       <use xlink:href="#m935919bd2b" x="570.193494" y="336.24" style="stroke: #000000; stroke-width: 0.5"/>
      </g>
     </g>
     <g id="line2d_12">
      <g>
       <use xlink:href="#mfc63ba3c5d" x="570.193494" y="3.6" style="stroke: #000000; stroke-width: 0.5"/>
      </g>
     </g>
     <g id="text_6">
      <!-- $\mathdefault{2024}$ -->
      <g transform="translate(553.744922 352.1933) scale(0.18 -0.18)">
       <use xlink:href="#CMR17-32" transform="scale(0.996264)"/>
       <use xlink:href="#CMR17-30" transform="translate(45.690477 0) scale(0.996264)"/>
       <use xlink:href="#CMR17-32" transform="translate(91.380954 0) scale(0.996264)"/>
       <use xlink:href="#CMR17-34" transform="translate(137.071431 0) scale(0.996264)"/>
      </g>
     </g>
    </g>
    <g id="xtick_7">
     <g id="line2d_13">
      <defs>
       <path id="m3a873f5b15" d="M 0 0 
L 0 -1.5 
" style="stroke: #000000; stroke-width: 0.5"/>
      </defs>
      <g>
       <use xlink:href="#m3a873f5b15" x="59.286964" y="336.24" style="stroke: #000000; stroke-width: 0.5"/>
      </g>
     </g>
     <g id="line2d_14">
      <defs>
       <path id="m9c6ea9e9f1" d="M 0 0 
L 0 1.5 
" style="stroke: #000000; stroke-width: 0.5"/>
      </defs>
      <g>
       <use xlink:href="#m9c6ea9e9f1" x="59.286964" y="3.6" style="stroke: #000000; stroke-width: 0.5"/>
      </g>
     </g>
    </g>
    <g id="xtick_8">
     <g id="line2d_15">
      <g>
       <use xlink:href="#m3a873f5b15" x="81.500292" y="336.24" style="stroke: #000000; stroke-width: 0.5"/>
      </g>
     </g>
     <g id="line2d_16">
      <g>
       <use xlink:href="#m9c6ea9e9f1" x="81.500292" y="3.6" style="stroke: #000000; stroke-width: 0.5"/>
      </g>
     </g>
    </g>
    <g id="xtick_9">
     <g id="line2d_17">
      <g>
       <use xlink:href="#m3a873f5b15" x="103.713619" y="336.24" style="stroke: #000000; stroke-width: 0.5"/>
      </g>
     </g>
     <g id="line2d_18">
      <g>
       <use xlink:href="#m9c6ea9e9f1" x="103.713619" y="3.6" style="stroke: #000000; stroke-width: 0.5"/>
      </g>
     </g>
    </g>
    <g id="xtick_10">
     <g id="line2d_19">
      <g>
       <use xlink:href="#m3a873f5b15" x="148.140274" y="336.24" style="stroke: #000000; stroke-width: 0.5"/>
      </g>
     </g>
     <g id="line2d_20">
      <g>
       <use xlink:href="#m9c6ea9e9f1" x="148.140274" y="3.6" style="stroke: #000000; stroke-width: 0.5"/>
      </g>
     </g>
    </g>
    <g id="xtick_11">
     <g id="line2d_21">
      <g>
       <use xlink:href="#m3a873f5b15" x="170.353601" y="336.24" style="stroke: #000000; stroke-width: 0.5"/>
      </g>
     </g>
     <g id="line2d_22">
      <g>
       <use xlink:href="#m9c6ea9e9f1" x="170.353601" y="3.6" style="stroke: #000000; stroke-width: 0.5"/>
      </g>
     </g>
    </g>
    <g id="xtick_12">
     <g id="line2d_23">
      <g>
       <use xlink:href="#m3a873f5b15" x="192.566929" y="336.24" style="stroke: #000000; stroke-width: 0.5"/>
      </g>
     </g>
     <g id="line2d_24">
      <g>
       <use xlink:href="#m9c6ea9e9f1" x="192.566929" y="3.6" style="stroke: #000000; stroke-width: 0.5"/>
      </g>
     </g>
    </g>
    <g id="xtick_13">
     <g id="line2d_25">
      <g>
       <use xlink:href="#m3a873f5b15" x="236.993583" y="336.24" style="stroke: #000000; stroke-width: 0.5"/>
      </g>
     </g>
     <g id="line2d_26">
      <g>
       <use xlink:href="#m9c6ea9e9f1" x="236.993583" y="3.6" style="stroke: #000000; stroke-width: 0.5"/>
      </g>
     </g>
    </g>
    <g id="xtick_14">
     <g id="line2d_27">
      <g>
       <use xlink:href="#m3a873f5b15" x="259.206911" y="336.24" style="stroke: #000000; stroke-width: 0.5"/>
      </g>
     </g>
     <g id="line2d_28">
      <g>
       <use xlink:href="#m9c6ea9e9f1" x="259.206911" y="3.6" style="stroke: #000000; stroke-width: 0.5"/>
      </g>
     </g>
    </g>
    <g id="xtick_15">
     <g id="line2d_29">
      <g>
       <use xlink:href="#m3a873f5b15" x="281.420238" y="336.24" style="stroke: #000000; stroke-width: 0.5"/>
      </g>
     </g>
     <g id="line2d_30">
      <g>
       <use xlink:href="#m9c6ea9e9f1" x="281.420238" y="3.6" style="stroke: #000000; stroke-width: 0.5"/>
      </g>
     </g>
    </g>
    <g id="xtick_16">
     <g id="line2d_31">
      <g>
       <use xlink:href="#m3a873f5b15" x="325.846893" y="336.24" style="stroke: #000000; stroke-width: 0.5"/>
      </g>
     </g>
     <g id="line2d_32">
      <g>
       <use xlink:href="#m9c6ea9e9f1" x="325.846893" y="3.6" style="stroke: #000000; stroke-width: 0.5"/>
      </g>
     </g>
    </g>
    <g id="xtick_17">
     <g id="line2d_33">
      <g>
       <use xlink:href="#m3a873f5b15" x="348.06022" y="336.24" style="stroke: #000000; stroke-width: 0.5"/>
      </g>
     </g>
     <g id="line2d_34">
      <g>
       <use xlink:href="#m9c6ea9e9f1" x="348.06022" y="3.6" style="stroke: #000000; stroke-width: 0.5"/>
      </g>
     </g>
    </g>
    <g id="xtick_18">
     <g id="line2d_35">
      <g>
       <use xlink:href="#m3a873f5b15" x="370.273548" y="336.24" style="stroke: #000000; stroke-width: 0.5"/>
      </g>
     </g>
     <g id="line2d_36">
      <g>
       <use xlink:href="#m9c6ea9e9f1" x="370.273548" y="3.6" style="stroke: #000000; stroke-width: 0.5"/>
      </g>
     </g>
    </g>
    <g id="xtick_19">
     <g id="line2d_37">
      <g>
       <use xlink:href="#m3a873f5b15" x="414.700202" y="336.24" style="stroke: #000000; stroke-width: 0.5"/>
      </g>
     </g>
     <g id="line2d_38">
      <g>
       <use xlink:href="#m9c6ea9e9f1" x="414.700202" y="3.6" style="stroke: #000000; stroke-width: 0.5"/>
      </g>
     </g>
    </g>
    <g id="xtick_20">
     <g id="line2d_39">
      <g>
       <use xlink:href="#m3a873f5b15" x="436.91353" y="336.24" style="stroke: #000000; stroke-width: 0.5"/>
      </g>
     </g>
     <g id="line2d_40">
      <g>
       <use xlink:href="#m9c6ea9e9f1" x="436.91353" y="3.6" style="stroke: #000000; stroke-width: 0.5"/>
      </g>
     </g>
    </g>
    <g id="xtick_21">
     <g id="line2d_41">
      <g>
       <use xlink:href="#m3a873f5b15" x="459.126857" y="336.24" style="stroke: #000000; stroke-width: 0.5"/>
      </g>
     </g>
     <g id="line2d_42">
      <g>
       <use xlink:href="#m9c6ea9e9f1" x="459.126857" y="3.6" style="stroke: #000000; stroke-width: 0.5"/>
      </g>
     </g>
    </g>
    <g id="xtick_22">
     <g id="line2d_43">
      <g>
       <use xlink:href="#m3a873f5b15" x="503.553512" y="336.24" style="stroke: #000000; stroke-width: 0.5"/>
      </g>
     </g>
     <g id="line2d_44">
      <g>
       <use xlink:href="#m9c6ea9e9f1" x="503.553512" y="3.6" style="stroke: #000000; stroke-width: 0.5"/>
      </g>
     </g>
    </g>
    <g id="xtick_23">
     <g id="line2d_45">
      <g>
       <use xlink:href="#m3a873f5b15" x="525.766839" y="336.24" style="stroke: #000000; stroke-width: 0.5"/>
      </g>
     </g>
     <g id="line2d_46">
      <g>
       <use xlink:href="#m9c6ea9e9f1" x="525.766839" y="3.6" style="stroke: #000000; stroke-width: 0.5"/>
      </g>
     </g>
    </g>
    <g id="xtick_24">
     <g id="line2d_47">
      <g>
       <use xlink:href="#m3a873f5b15" x="547.980167" y="336.24" style="stroke: #000000; stroke-width: 0.5"/>
      </g>
     </g>
     <g id="line2d_48">
      <g>
       <use xlink:href="#m9c6ea9e9f1" x="547.980167" y="3.6" style="stroke: #000000; stroke-width: 0.5"/>
      </g>
     </g>
    </g>
    <g id="xtick_25">
     <g id="line2d_49">
      <g>
       <use xlink:href="#m3a873f5b15" x="592.406821" y="336.24" style="stroke: #000000; stroke-width: 0.5"/>
      </g>
     </g>
     <g id="line2d_50">
      <g>
       <use xlink:href="#m9c6ea9e9f1" x="592.406821" y="3.6" style="stroke: #000000; stroke-width: 0.5"/>
      </g>
     </g>
    </g>
   </g>
   <g id="matplotlib.axis_2">
    <g id="ytick_1">
     <g id="line2d_51">
      <defs>
       <path id="m391ed7ed57" d="M 0 0 
L 3 0 
" style="stroke: #000000; stroke-width: 0.5"/>
      </defs>
      <g>
       <use xlink:href="#m391ed7ed57" x="37.496314" y="298.746434" style="stroke: #000000; stroke-width: 0.5"/>
      </g>
     </g>
     <g id="line2d_52">
      <defs>
       <path id="m9844a7ad2e" d="M 0 0 
L -3 0 
" style="stroke: #000000; stroke-width: 0.5"/>
      </defs>
      <g>
       <use xlink:href="#m9844a7ad2e" x="595.496314" y="298.746434" style="stroke: #000000; stroke-width: 0.5"/>
      </g>
     </g>
     <g id="text_7">
      <!-- $\mathdefault{−20}$ -->
      <g transform="translate(3.6 304.973084) scale(0.18 -0.18)">
       <defs>
        <path id="CMSY10-0" d="M 4218 1472 
C 4326 1472 4442 1472 4442 1600 
C 4442 1728 4326 1728 4218 1728 
L 755 1728 
C 646 1728 531 1728 531 1600 
C 531 1472 646 1472 755 1472 
L 4218 1472 
z
" transform="scale(0.015625)"/>
       </defs>
       <use xlink:href="#CMSY10-0" transform="scale(0.996264)"/>
       <use xlink:href="#CMR17-32" transform="translate(77.487468 0) scale(0.996264)"/>
       <use xlink:href="#CMR17-30" transform="translate(123.177945 0) scale(0.996264)"/>
      </g>
     </g>
    </g>
    <g id="ytick_2">
     <g id="line2d_53">
      <g>
       <use xlink:href="#m391ed7ed57" x="37.496314" y="258.857481" style="stroke: #000000; stroke-width: 0.5"/>
      </g>
     </g>
     <g id="line2d_54">
      <g>
       <use xlink:href="#m9844a7ad2e" x="595.496314" y="258.857481" style="stroke: #000000; stroke-width: 0.5"/>
      </g>
     </g>
     <g id="text_8">
      <!-- $\mathdefault{−15}$ -->
      <g transform="translate(3.6 265.084131) scale(0.18 -0.18)">
       <defs>
        <path id="CMR17-35" d="M 730 3750 
C 794 3724 1056 3641 1325 3641 
C 1920 3641 2246 3961 2432 4140 
C 2432 4191 2432 4224 2394 4224 
C 2387 4224 2374 4224 2323 4198 
C 2099 4102 1837 4032 1517 4032 
C 1325 4032 1037 4055 723 4191 
C 653 4224 640 4224 634 4224 
C 602 4224 595 4217 595 4090 
L 595 2231 
C 595 2113 595 2080 659 2080 
C 691 2080 704 2093 736 2139 
C 941 2435 1222 2560 1542 2560 
C 1766 2560 2246 2415 2246 1293 
C 2246 1087 2246 716 2054 422 
C 1894 159 1645 25 1370 25 
C 947 25 518 319 403 812 
C 429 806 480 793 506 793 
C 589 793 749 838 749 1036 
C 749 1209 627 1280 506 1280 
C 358 1280 262 1190 262 1011 
C 262 454 704 -128 1382 -128 
C 2042 -128 2669 441 2669 1267 
C 2669 2054 2170 2662 1549 2662 
C 1222 2662 947 2540 730 2304 
L 730 3750 
z
" transform="scale(0.015625)"/>
       </defs>
       <use xlink:href="#CMSY10-0" transform="scale(0.996264)"/>
       <use xlink:href="#CMR17-31" transform="translate(77.487468 0) scale(0.996264)"/>
       <use xlink:href="#CMR17-35" transform="translate(123.177945 0) scale(0.996264)"/>
      </g>
     </g>
    </g>
    <g id="ytick_3">
     <g id="line2d_55">
      <g>
       <use xlink:href="#m391ed7ed57" x="37.496314" y="218.968528" style="stroke: #000000; stroke-width: 0.5"/>
      </g>
     </g>
     <g id="line2d_56">
      <g>
       <use xlink:href="#m9844a7ad2e" x="595.496314" y="218.968528" style="stroke: #000000; stroke-width: 0.5"/>
      </g>
     </g>
     <g id="text_9">
      <!-- $\mathdefault{−10}$ -->
      <g transform="translate(3.6 225.195179) scale(0.18 -0.18)">
       <use xlink:href="#CMSY10-0" transform="scale(0.996264)"/>
       <use xlink:href="#CMR17-31" transform="translate(77.487468 0) scale(0.996264)"/>
       <use xlink:href="#CMR17-30" transform="translate(123.177945 0) scale(0.996264)"/>
      </g>
     </g>
    </g>
    <g id="ytick_4">
     <g id="line2d_57">
      <g>
       <use xlink:href="#m391ed7ed57" x="37.496314" y="179.079576" style="stroke: #000000; stroke-width: 0.5"/>
      </g>
     </g>
     <g id="line2d_58">
      <g>
       <use xlink:href="#m9844a7ad2e" x="595.496314" y="179.079576" style="stroke: #000000; stroke-width: 0.5"/>
      </g>
     </g>
     <g id="text_10">
      <!-- $\mathdefault{−5}$ -->
      <g transform="translate(11.824286 185.306226) scale(0.18 -0.18)">
       <use xlink:href="#CMSY10-0" transform="scale(0.996264)"/>
       <use xlink:href="#CMR17-35" transform="translate(77.487468 0) scale(0.996264)"/>
      </g>
     </g>
    </g>
    <g id="ytick_5">
     <g id="line2d_59">
      <g>
       <use xlink:href="#m391ed7ed57" x="37.496314" y="139.190623" style="stroke: #000000; stroke-width: 0.5"/>
      </g>
     </g>
     <g id="line2d_60">
      <g>
       <use xlink:href="#m9844a7ad2e" x="595.496314" y="139.190623" style="stroke: #000000; stroke-width: 0.5"/>
      </g>
     </g>
     <g id="text_11">
      <!-- $\mathdefault{0}$ -->
      <g transform="translate(25.772028 145.417273) scale(0.18 -0.18)">
       <use xlink:href="#CMR17-30" transform="scale(0.996264)"/>
      </g>
     </g>
    </g>
    <g id="ytick_6">
     <g id="line2d_61">
      <g>
       <use xlink:href="#m391ed7ed57" x="37.496314" y="99.301671" style="stroke: #000000; stroke-width: 0.5"/>
      </g>
     </g>
     <g id="line2d_62">
      <g>
       <use xlink:href="#m9844a7ad2e" x="595.496314" y="99.301671" style="stroke: #000000; stroke-width: 0.5"/>
      </g>
     </g>
     <g id="text_12">
      <!-- $\mathdefault{5}$ -->
      <g transform="translate(25.772028 105.528321) scale(0.18 -0.18)">
       <use xlink:href="#CMR17-35" transform="scale(0.996264)"/>
      </g>
     </g>
    </g>
    <g id="ytick_7">
     <g id="line2d_63">
      <g>
       <use xlink:href="#m391ed7ed57" x="37.496314" y="59.412718" style="stroke: #000000; stroke-width: 0.5"/>
      </g>
     </g>
     <g id="line2d_64">
      <g>
       <use xlink:href="#m9844a7ad2e" x="595.496314" y="59.412718" style="stroke: #000000; stroke-width: 0.5"/>
      </g>
     </g>
     <g id="text_13">
      <!-- $\mathdefault{10}$ -->
      <g transform="translate(17.547742 65.639368) scale(0.18 -0.18)">
       <use xlink:href="#CMR17-31" transform="scale(0.996264)"/>
       <use xlink:href="#CMR17-30" transform="translate(45.690477 0) scale(0.996264)"/>
      </g>
     </g>
    </g>
    <g id="ytick_8">
     <g id="line2d_65">
      <g>
       <use xlink:href="#m391ed7ed57" x="37.496314" y="19.523765" style="stroke: #000000; stroke-width: 0.5"/>
      </g>
     </g>
     <g id="line2d_66">
      <g>
       <use xlink:href="#m9844a7ad2e" x="595.496314" y="19.523765" style="stroke: #000000; stroke-width: 0.5"/>
      </g>
     </g>
     <g id="text_14">
      <!-- $\mathdefault{15}$ -->
      <g transform="translate(17.547742 25.750415) scale(0.18 -0.18)">
       <use xlink:href="#CMR17-31" transform="scale(0.996264)"/>
       <use xlink:href="#CMR17-35" transform="translate(45.690477 0) scale(0.996264)"/>
      </g>
     </g>
    </g>
    <g id="ytick_9">
     <g id="line2d_67">
      <defs>
       <path id="mbc72f62b6d" d="M 0 0 
L 1.5 0 
" style="stroke: #000000; stroke-width: 0.5"/>
      </defs>
      <g>
       <use xlink:href="#mbc72f62b6d" x="37.496314" y="330.657596" style="stroke: #000000; stroke-width: 0.5"/>
      </g>
     </g>
     <g id="line2d_68">
      <defs>
       <path id="m57c51745ac" d="M 0 0 
L -1.5 0 
" style="stroke: #000000; stroke-width: 0.5"/>
      </defs>
      <g>
       <use xlink:href="#m57c51745ac" x="595.496314" y="330.657596" style="stroke: #000000; stroke-width: 0.5"/>
      </g>
     </g>
    </g>
    <g id="ytick_10">
     <g id="line2d_69">
      <g>
       <use xlink:href="#mbc72f62b6d" x="37.496314" y="322.679805" style="stroke: #000000; stroke-width: 0.5"/>
      </g>
     </g>
     <g id="line2d_70">
      <g>
       <use xlink:href="#m57c51745ac" x="595.496314" y="322.679805" style="stroke: #000000; stroke-width: 0.5"/>
      </g>
     </g>
    </g>
    <g id="ytick_11">
     <g id="line2d_71">
      <g>
       <use xlink:href="#mbc72f62b6d" x="37.496314" y="314.702015" style="stroke: #000000; stroke-width: 0.5"/>
      </g>
     </g>
     <g id="line2d_72">
      <g>
       <use xlink:href="#m57c51745ac" x="595.496314" y="314.702015" style="stroke: #000000; stroke-width: 0.5"/>
      </g>
     </g>
    </g>
    <g id="ytick_12">
     <g id="line2d_73">
      <g>
       <use xlink:href="#mbc72f62b6d" x="37.496314" y="306.724224" style="stroke: #000000; stroke-width: 0.5"/>
      </g>
     </g>
     <g id="line2d_74">
      <g>
       <use xlink:href="#m57c51745ac" x="595.496314" y="306.724224" style="stroke: #000000; stroke-width: 0.5"/>
      </g>
     </g>
    </g>
    <g id="ytick_13">
     <g id="line2d_75">
      <g>
       <use xlink:href="#mbc72f62b6d" x="37.496314" y="290.768643" style="stroke: #000000; stroke-width: 0.5"/>
      </g>
     </g>
     <g id="line2d_76">
      <g>
       <use xlink:href="#m57c51745ac" x="595.496314" y="290.768643" style="stroke: #000000; stroke-width: 0.5"/>
      </g>
     </g>
    </g>
    <g id="ytick_14">
     <g id="line2d_77">
      <g>
       <use xlink:href="#mbc72f62b6d" x="37.496314" y="282.790853" style="stroke: #000000; stroke-width: 0.5"/>
      </g>
     </g>
     <g id="line2d_78">
      <g>
       <use xlink:href="#m57c51745ac" x="595.496314" y="282.790853" style="stroke: #000000; stroke-width: 0.5"/>
      </g>
     </g>
    </g>
    <g id="ytick_15">
     <g id="line2d_79">
      <g>
       <use xlink:href="#mbc72f62b6d" x="37.496314" y="274.813062" style="stroke: #000000; stroke-width: 0.5"/>
      </g>
     </g>
     <g id="line2d_80">
      <g>
       <use xlink:href="#m57c51745ac" x="595.496314" y="274.813062" style="stroke: #000000; stroke-width: 0.5"/>
      </g>
     </g>
    </g>
    <g id="ytick_16">
     <g id="line2d_81">
      <g>
       <use xlink:href="#mbc72f62b6d" x="37.496314" y="266.835272" style="stroke: #000000; stroke-width: 0.5"/>
      </g>
     </g>
     <g id="line2d_82">
      <g>
       <use xlink:href="#m57c51745ac" x="595.496314" y="266.835272" style="stroke: #000000; stroke-width: 0.5"/>
      </g>
     </g>
    </g>
    <g id="ytick_17">
     <g id="line2d_83">
      <g>
       <use xlink:href="#mbc72f62b6d" x="37.496314" y="250.879691" style="stroke: #000000; stroke-width: 0.5"/>
      </g>
     </g>
     <g id="line2d_84">
      <g>
       <use xlink:href="#m57c51745ac" x="595.496314" y="250.879691" style="stroke: #000000; stroke-width: 0.5"/>
      </g>
     </g>
    </g>
    <g id="ytick_18">
     <g id="line2d_85">
      <g>
       <use xlink:href="#mbc72f62b6d" x="37.496314" y="242.9019" style="stroke: #000000; stroke-width: 0.5"/>
      </g>
     </g>
     <g id="line2d_86">
      <g>
       <use xlink:href="#m57c51745ac" x="595.496314" y="242.9019" style="stroke: #000000; stroke-width: 0.5"/>
      </g>
     </g>
    </g>
    <g id="ytick_19">
     <g id="line2d_87">
      <g>
       <use xlink:href="#mbc72f62b6d" x="37.496314" y="234.92411" style="stroke: #000000; stroke-width: 0.5"/>
      </g>
     </g>
     <g id="line2d_88">
      <g>
       <use xlink:href="#m57c51745ac" x="595.496314" y="234.92411" style="stroke: #000000; stroke-width: 0.5"/>
      </g>
     </g>
    </g>
    <g id="ytick_20">
     <g id="line2d_89">
      <g>
       <use xlink:href="#mbc72f62b6d" x="37.496314" y="226.946319" style="stroke: #000000; stroke-width: 0.5"/>
      </g>
     </g>
     <g id="line2d_90">
      <g>
       <use xlink:href="#m57c51745ac" x="595.496314" y="226.946319" style="stroke: #000000; stroke-width: 0.5"/>
      </g>
     </g>
    </g>
    <g id="ytick_21">
     <g id="line2d_91">
      <g>
       <use xlink:href="#mbc72f62b6d" x="37.496314" y="210.990738" style="stroke: #000000; stroke-width: 0.5"/>
      </g>
     </g>
     <g id="line2d_92">
      <g>
       <use xlink:href="#m57c51745ac" x="595.496314" y="210.990738" style="stroke: #000000; stroke-width: 0.5"/>
      </g>
     </g>
    </g>
    <g id="ytick_22">
     <g id="line2d_93">
      <g>
       <use xlink:href="#mbc72f62b6d" x="37.496314" y="203.012947" style="stroke: #000000; stroke-width: 0.5"/>
      </g>
     </g>
     <g id="line2d_94">
      <g>
       <use xlink:href="#m57c51745ac" x="595.496314" y="203.012947" style="stroke: #000000; stroke-width: 0.5"/>
      </g>
     </g>
    </g>
    <g id="ytick_23">
     <g id="line2d_95">
      <g>
       <use xlink:href="#mbc72f62b6d" x="37.496314" y="195.035157" style="stroke: #000000; stroke-width: 0.5"/>
      </g>
     </g>
     <g id="line2d_96">
      <g>
       <use xlink:href="#m57c51745ac" x="595.496314" y="195.035157" style="stroke: #000000; stroke-width: 0.5"/>
      </g>
     </g>
    </g>
    <g id="ytick_24">
     <g id="line2d_97">
      <g>
       <use xlink:href="#mbc72f62b6d" x="37.496314" y="187.057366" style="stroke: #000000; stroke-width: 0.5"/>
      </g>
     </g>
     <g id="line2d_98">
      <g>
       <use xlink:href="#m57c51745ac" x="595.496314" y="187.057366" style="stroke: #000000; stroke-width: 0.5"/>
      </g>
     </g>
    </g>
    <g id="ytick_25">
     <g id="line2d_99">
      <g>
       <use xlink:href="#mbc72f62b6d" x="37.496314" y="171.101785" style="stroke: #000000; stroke-width: 0.5"/>
      </g>
     </g>
     <g id="line2d_100">
      <g>
       <use xlink:href="#m57c51745ac" x="595.496314" y="171.101785" style="stroke: #000000; stroke-width: 0.5"/>
      </g>
     </g>
    </g>
    <g id="ytick_26">
     <g id="line2d_101">
      <g>
       <use xlink:href="#mbc72f62b6d" x="37.496314" y="163.123995" style="stroke: #000000; stroke-width: 0.5"/>
      </g>
     </g>
     <g id="line2d_102">
      <g>
       <use xlink:href="#m57c51745ac" x="595.496314" y="163.123995" style="stroke: #000000; stroke-width: 0.5"/>
      </g>
     </g>
    </g>
    <g id="ytick_27">
     <g id="line2d_103">
      <g>
       <use xlink:href="#mbc72f62b6d" x="37.496314" y="155.146204" style="stroke: #000000; stroke-width: 0.5"/>
      </g>
     </g>
     <g id="line2d_104">
      <g>
       <use xlink:href="#m57c51745ac" x="595.496314" y="155.146204" style="stroke: #000000; stroke-width: 0.5"/>
      </g>
     </g>
    </g>
    <g id="ytick_28">
     <g id="line2d_105">
      <g>
       <use xlink:href="#mbc72f62b6d" x="37.496314" y="147.168414" style="stroke: #000000; stroke-width: 0.5"/>
      </g>
     </g>
     <g id="line2d_106">
      <g>
       <use xlink:href="#m57c51745ac" x="595.496314" y="147.168414" style="stroke: #000000; stroke-width: 0.5"/>
      </g>
     </g>
    </g>
    <g id="ytick_29">
     <g id="line2d_107">
      <g>
       <use xlink:href="#mbc72f62b6d" x="37.496314" y="131.212833" style="stroke: #000000; stroke-width: 0.5"/>
      </g>
     </g>
     <g id="line2d_108">
      <g>
       <use xlink:href="#m57c51745ac" x="595.496314" y="131.212833" style="stroke: #000000; stroke-width: 0.5"/>
      </g>
     </g>
    </g>
    <g id="ytick_30">
     <g id="line2d_109">
      <g>
       <use xlink:href="#mbc72f62b6d" x="37.496314" y="123.235042" style="stroke: #000000; stroke-width: 0.5"/>
      </g>
     </g>
     <g id="line2d_110">
      <g>
       <use xlink:href="#m57c51745ac" x="595.496314" y="123.235042" style="stroke: #000000; stroke-width: 0.5"/>
      </g>
     </g>
    </g>
    <g id="ytick_31">
     <g id="line2d_111">
      <g>
       <use xlink:href="#mbc72f62b6d" x="37.496314" y="115.257252" style="stroke: #000000; stroke-width: 0.5"/>
      </g>
     </g>
     <g id="line2d_112">
      <g>
       <use xlink:href="#m57c51745ac" x="595.496314" y="115.257252" style="stroke: #000000; stroke-width: 0.5"/>
      </g>
     </g>
    </g>
    <g id="ytick_32">
     <g id="line2d_113">
      <g>
       <use xlink:href="#mbc72f62b6d" x="37.496314" y="107.279461" style="stroke: #000000; stroke-width: 0.5"/>
      </g>
     </g>
     <g id="line2d_114">
      <g>
       <use xlink:href="#m57c51745ac" x="595.496314" y="107.279461" style="stroke: #000000; stroke-width: 0.5"/>
      </g>
     </g>
    </g>
    <g id="ytick_33">
     <g id="line2d_115">
      <g>
       <use xlink:href="#mbc72f62b6d" x="37.496314" y="91.32388" style="stroke: #000000; stroke-width: 0.5"/>
      </g>
     </g>
     <g id="line2d_116">
      <g>
       <use xlink:href="#m57c51745ac" x="595.496314" y="91.32388" style="stroke: #000000; stroke-width: 0.5"/>
      </g>
     </g>
    </g>
    <g id="ytick_34">
     <g id="line2d_117">
      <g>
       <use xlink:href="#mbc72f62b6d" x="37.496314" y="83.346089" style="stroke: #000000; stroke-width: 0.5"/>
      </g>
     </g>
     <g id="line2d_118">
      <g>
       <use xlink:href="#m57c51745ac" x="595.496314" y="83.346089" style="stroke: #000000; stroke-width: 0.5"/>
      </g>
     </g>
    </g>
    <g id="ytick_35">
     <g id="line2d_119">
      <g>
       <use xlink:href="#mbc72f62b6d" x="37.496314" y="75.368299" style="stroke: #000000; stroke-width: 0.5"/>
      </g>
     </g>
     <g id="line2d_120">
      <g>
       <use xlink:href="#m57c51745ac" x="595.496314" y="75.368299" style="stroke: #000000; stroke-width: 0.5"/>
      </g>
     </g>
    </g>
    <g id="ytick_36">
     <g id="line2d_121">
      <g>
       <use xlink:href="#mbc72f62b6d" x="37.496314" y="67.390508" style="stroke: #000000; stroke-width: 0.5"/>
      </g>
     </g>
     <g id="line2d_122">
      <g>
       <use xlink:href="#m57c51745ac" x="595.496314" y="67.390508" style="stroke: #000000; stroke-width: 0.5"/>
      </g>
     </g>
    </g>
    <g id="ytick_37">
     <g id="line2d_123">
      <g>
       <use xlink:href="#mbc72f62b6d" x="37.496314" y="51.434927" style="stroke: #000000; stroke-width: 0.5"/>
      </g>
     </g>
     <g id="line2d_124">
      <g>
       <use xlink:href="#m57c51745ac" x="595.496314" y="51.434927" style="stroke: #000000; stroke-width: 0.5"/>
      </g>
     </g>
    </g>
    <g id="ytick_38">
     <g id="line2d_125">
      <g>
       <use xlink:href="#mbc72f62b6d" x="37.496314" y="43.457137" style="stroke: #000000; stroke-width: 0.5"/>
      </g>
     </g>
     <g id="line2d_126">
      <g>
       <use xlink:href="#m57c51745ac" x="595.496314" y="43.457137" style="stroke: #000000; stroke-width: 0.5"/>
      </g>
     </g>
    </g>
    <g id="ytick_39">
     <g id="line2d_127">
      <g>
       <use xlink:href="#mbc72f62b6d" x="37.496314" y="35.479346" style="stroke: #000000; stroke-width: 0.5"/>
      </g>
     </g>
     <g id="line2d_128">
      <g>
       <use xlink:href="#m57c51745ac" x="595.496314" y="35.479346" style="stroke: #000000; stroke-width: 0.5"/>
      </g>
     </g>
    </g>
    <g id="ytick_40">
     <g id="line2d_129">
      <g>
       <use xlink:href="#mbc72f62b6d" x="37.496314" y="27.501556" style="stroke: #000000; stroke-width: 0.5"/>
      </g>
     </g>
     <g id="line2d_130">
      <g>
       <use xlink:href="#m57c51745ac" x="595.496314" y="27.501556" style="stroke: #000000; stroke-width: 0.5"/>
      </g>
     </g>
    </g>
    <g id="ytick_41">
     <g id="line2d_131">
      <g>
       <use xlink:href="#mbc72f62b6d" x="37.496314" y="11.545975" style="stroke: #000000; stroke-width: 0.5"/>
      </g>
     </g>
     <g id="line2d_132">
      <g>
       <use xlink:href="#m57c51745ac" x="595.496314" y="11.545975" style="stroke: #000000; stroke-width: 0.5"/>
      </g>
     </g>
    </g>
   </g>
   <g id="line2d_133">
    <path d="M 62.85995 157.240775 
L 64.74527 216.030924 
L 66.569773 136.510862 
L 68.455093 86.94459 
L 70.279597 159.324717 
L 72.164917 161.566319 
L 74.050237 156.56672 
L 75.87474 235.378935 
L 77.76006 115.156484 
L 79.584563 100.788916 
L 81.469883 128.49313 
L 83.355203 142.486283 
L 85.058073 167.346935 
L 86.943393 101.588831 
L 88.767896 168.672494 
L 90.653216 162.989081 
L 92.47772 188.927142 
L 94.36304 231.176295 
L 96.24836 131.318809 
L 98.072863 179.295041 
L 99.958183 151.399969 
L 101.782686 89.170637 
L 103.668006 148.671778 
L 105.553327 142.159487 
L 107.256196 193.361347 
L 109.141516 130.09287 
L 110.96602 99.308526 
L 112.85134 99.048319 
L 114.675843 96.022833 
L 116.561163 135.533112 
L 118.446483 141.613663 
L 120.270986 115.433838 
L 122.156306 124.235971 
L 123.98081 130.657492 
L 127.75145 101.781343 
L 129.515136 131.590934 
L 131.400456 152.828926 
L 133.22496 132.560509 
L 135.11028 161.011801 
L 136.934783 117.791901 
L 138.820103 158.371515 
L 140.705423 151.484019 
L 142.529926 118.422466 
L 144.415246 139.511895 
L 146.23975 103.08087 
L 148.12507 118.794882 
L 150.01039 151.120903 
L 151.713259 126.980985 
L 153.598579 142.34239 
L 155.423083 159.797897 
L 157.308403 129.757643 
L 159.132906 123.124108 
L 161.018226 126.034896 
L 162.903546 137.866703 
L 164.728049 138.116147 
L 166.613369 161.602288 
L 168.437873 109.362344 
L 170.323193 123.422464 
L 172.208513 128.728415 
L 173.911383 140.489358 
L 175.796703 128.581926 
L 177.621206 134.009164 
L 179.506526 146.675493 
L 181.331029 162.305178 
L 183.216349 134.702448 
L 185.101669 122.334914 
L 186.926173 120.452647 
L 188.811493 112.027234 
L 190.635996 124.545043 
L 192.521316 123.388447 
L 194.406636 134.843043 
L 196.109506 127.71159 
L 197.994826 160.368995 
L 199.819329 107.676561 
L 201.704649 113.711276 
L 203.529152 137.582054 
L 205.414472 135.762815 
L 207.299792 174.638047 
L 209.124296 116.215732 
L 211.009616 116.83817 
L 212.834119 179.722546 
L 214.719439 130.607111 
L 216.604759 195.298725 
L 218.368446 153.135032 
L 220.253766 161.843276 
L 222.078269 107.404806 
L 223.963589 120.350394 
L 225.788092 175.224373 
L 227.673412 190.736396 
L 229.558732 124.018915 
L 231.383236 180.403991 
L 233.268556 321.12 
L 235.093059 213.134923 
L 236.978379 144.156934 
L 238.863699 150.156516 
L 240.566569 196.847592 
L 242.451889 188.328214 
L 244.276392 48.62472 
L 246.161712 89.719183 
L 247.986216 118.50034 
L 249.871536 130.878296 
L 251.756856 78.547371 
L 253.581359 112.143359 
L 255.466679 121.732691 
L 257.291182 124.083762 
L 259.176502 122.99825 
L 261.061822 129.762696 
L 262.764692 164.01213 
L 264.650012 94.406333 
L 266.474515 108.442015 
L 268.359835 188.851857 
L 270.184339 169.321976 
L 272.069659 141.8165 
L 273.954979 133.683294 
L 275.779482 114.056641 
L 277.664802 104.751172 
L 279.489305 120.807509 
L 281.374625 111.309553 
L 283.259946 113.214641 
L 284.962815 115.596307 
L 286.848135 149.29665 
L 288.672639 122.834974 
L 290.557959 135.126747 
L 292.382462 170.199011 
L 294.267782 116.041778 
L 296.153102 228.184075 
L 297.977605 146.920976 
L 299.862925 116.848267 
L 301.687429 126.602339 
L 303.572749 128.272327 
L 305.458069 103.270543 
L 307.221755 107.967929 
L 309.107075 117.802568 
L 312.816899 165.609213 
L 314.641402 149.842805 
L 316.526722 117.604086 
L 318.412042 113.972373 
L 320.236545 116.787546 
L 322.121865 142.291766 
L 323.946369 163.590678 
L 325.831689 123.454312 
L 327.717009 107.244301 
L 329.419878 122.177218 
L 331.305198 119.124894 
L 333.129702 129.034012 
L 335.015022 104.824459 
L 336.839525 149.507561 
L 338.724845 114.965031 
L 340.610165 138.516801 
L 344.319988 123.802133 
L 346.144492 110.264415 
L 348.029812 128.421069 
L 349.915132 132.782231 
L 351.618002 141.522979 
L 353.503322 119.040026 
L 355.327825 138.87389 
L 357.213145 128.348058 
L 359.037648 115.352329 
L 360.922968 128.604127 
L 362.808288 143.882465 
L 364.632792 126.400903 
L 366.518112 161.908716 
L 368.342615 96.184163 
L 370.227935 135.414691 
L 372.113255 149.387607 
L 373.816125 118.220053 
L 375.701445 140.037817 
L 377.525948 133.507533 
L 379.411268 132.712473 
L 381.235771 143.983491 
L 383.121091 141.150148 
L 386.830915 177.426172 
L 388.716235 106.866786 
L 390.540738 117.498965 
L 392.426058 149.432405 
L 394.311378 193.624927 
L 397.960385 91.415711 
L 399.784888 118.321546 
L 401.670208 143.039768 
L 403.494711 132.138412 
L 405.380031 114.683055 
L 407.265351 131.046275 
L 409.089855 144.07834 
L 410.975175 144.633196 
L 412.799678 131.053521 
L 414.684998 109.660374 
L 416.570318 129.137424 
L 418.273188 120.206001 
L 420.158508 126.651418 
L 421.983011 141.726028 
L 423.868331 127.096169 
L 425.692835 126.424141 
L 429.463475 138.501751 
L 431.287978 127.384259 
L 433.173298 118.917403 
L 434.997801 127.849371 
L 436.883121 117.725864 
L 438.768441 102.481988 
L 440.471311 163.769277 
L 442.356631 139.89577 
L 444.181134 153.828799 
L 446.066454 124.930356 
L 447.890958 123.731255 
L 449.776278 127.890941 
L 451.661598 121.070116 
L 453.486101 127.089314 
L 455.371421 171.751827 
L 457.195924 157.215926 
L 459.081244 186.22769 
L 460.966565 126.832178 
L 462.669434 95.29929 
L 464.554754 125.091305 
L 466.379258 111.284003 
L 468.264578 152.792726 
L 470.089081 129.341991 
L 471.974401 110.470042 
L 473.859721 165.890952 
L 475.684224 116.215496 
L 477.569544 140.388931 
L 479.394048 105.812757 
L 481.279368 120.940986 
L 483.164688 114.110962 
L 484.928374 139.406912 
L 486.813694 307.970162 
L 488.638198 106.893656 
L 490.523518 94.909363 
L 492.348021 90.164912 
L 494.233341 113.163525 
L 496.118661 94.670345 
L 497.943164 145.375586 
L 501.652988 109.351294 
L 503.538308 106.959801 
L 505.423628 118.216923 
L 507.126497 120.550702 
L 509.011817 133.647631 
L 510.836321 93.467914 
L 512.721641 134.068607 
L 514.546144 125.782533 
L 516.431464 115.962248 
L 518.316784 122.815704 
L 520.141287 140.743742 
L 522.026607 136.474018 
L 523.851111 103.057607 
L 525.736431 137.929149 
L 527.621751 156.608365 
L 529.324621 163.601927 
L 531.209941 147.273154 
L 533.034444 139.185031 
L 534.919764 205.638122 
L 536.744267 167.613389 
L 538.629587 136.579355 
L 540.514907 90.374532 
L 542.339411 200.588708 
L 544.224731 165.405149 
L 546.049234 99.220432 
L 547.934554 140.231446 
L 549.819874 129.406927 
L 551.522744 115.568449 
L 553.408064 161.222589 
L 555.232567 109.029654 
L 557.117887 134.422675 
L 558.94239 101.754216 
L 560.82771 109.865242 
L 562.71303 148.216675 
L 564.537534 147.875977 
L 566.422854 164.875868 
L 568.247357 104.336094 
L 570.132677 99.928771 
L 570.132677 99.928771 
" clip-path="url(#p63a8c76d9d)" style="fill: none; stroke-dasharray: 3.7,1.6; stroke-dashoffset: 0; stroke: #000000"/>
   </g>
   <g id="line2d_134">
    <path d="M 62.85995 131.108663 
L 64.74527 133.492281 
L 66.569773 142.679446 
L 68.455093 138.117092 
L 70.279597 123.82308 
L 72.164917 132.937354 
L 74.050237 136.82346 
L 75.87474 130.962885 
L 77.76006 164.088803 
L 79.584563 131.506757 
L 81.469883 133.931083 
L 83.355203 142.144878 
L 85.058073 143.55068 
L 86.943393 146.957873 
L 88.767896 137.925941 
L 90.653216 144.842978 
L 92.47772 144.077197 
L 94.36304 140.470612 
L 96.24836 151.972393 
L 98.072863 130.207169 
L 99.958183 138.525724 
L 101.782686 136.357103 
L 103.668006 126.450922 
L 105.553327 135.103297 
L 107.256196 135.894118 
L 109.141516 144.493613 
L 110.96602 133.269876 
L 112.85134 133.662414 
L 114.675843 125.174882 
L 116.561163 123.573692 
L 118.446483 149.907824 
L 120.270986 140.703556 
L 122.156306 130.232407 
L 123.98081 133.134079 
L 125.86613 136.712297 
L 127.75145 132.918093 
L 129.515136 123.802822 
L 131.400456 134.085648 
L 133.22496 132.914983 
L 135.11028 145.696284 
L 136.934783 141.398621 
L 138.820103 131.910249 
L 140.705423 135.050739 
L 142.529926 133.521428 
L 144.415246 129.806233 
L 146.23975 135.564056 
L 148.12507 130.459017 
L 150.01039 131.890355 
L 151.713259 136.140297 
L 153.598579 132.79688 
L 155.423083 139.169199 
L 157.308403 135.964582 
L 159.132906 131.588119 
L 161.018226 130.798864 
L 162.903546 135.721212 
L 164.728049 135.850555 
L 166.613369 134.555327 
L 168.437873 140.031344 
L 170.323193 131.885133 
L 172.208513 131.703689 
L 173.911383 133.268428 
L 175.796703 137.382391 
L 177.621206 135.23835 
L 179.506526 138.725303 
L 181.331029 137.445658 
L 183.216349 138.957274 
L 185.101669 133.961307 
L 186.926173 127.383502 
L 190.635996 127.82318 
L 192.521316 128.940107 
L 194.406636 130.216952 
L 196.109506 138.123461 
L 197.994826 133.398189 
L 199.819329 135.64197 
L 201.704649 132.434228 
L 203.529152 131.406684 
L 205.414472 138.885091 
L 207.299792 132.928222 
L 209.124296 134.218986 
L 211.009616 128.472022 
L 214.719439 132.159611 
L 216.604759 133.966363 
L 218.368446 134.856643 
L 220.253766 137.688371 
L 222.078269 132.704446 
L 223.963589 134.361195 
L 225.788092 135.429077 
L 227.673412 144.439403 
L 229.558732 140.838551 
L 231.383236 130.219631 
L 233.268556 135.724905 
L 235.093059 191.873884 
L 236.978379 176.947524 
L 238.863699 127.39113 
L 240.566569 179.635444 
L 242.451889 200.505292 
L 246.161712 114.147407 
L 247.986216 180.312723 
L 249.871536 123.531223 
L 251.756856 136.338134 
L 253.581359 135.627501 
L 255.466679 136.555148 
L 257.291182 117.139851 
L 259.176502 78.630906 
L 261.061822 112.582438 
L 262.764692 117.908623 
L 264.650012 137.754558 
L 266.474515 126.184603 
L 268.359835 132.05176 
L 270.184339 139.466043 
L 272.069659 137.534503 
L 273.954979 134.352523 
L 275.779482 124.470118 
L 277.664802 133.273817 
L 279.489305 125.031158 
L 281.374625 144.846279 
L 283.259946 149.688928 
L 284.962815 124.534165 
L 286.848135 138.118588 
L 288.672639 133.585155 
L 290.557959 135.252729 
L 292.382462 128.054084 
L 294.267782 138.803548 
L 296.153102 131.19473 
L 297.977605 137.247557 
L 299.862925 125.538369 
L 301.687429 146.334151 
L 303.572749 123.571563 
L 305.458069 133.373782 
L 307.221755 124.865068 
L 309.107075 128.697828 
L 310.931579 146.60615 
L 312.816899 127.883963 
L 314.641402 129.20091 
L 316.526722 127.126687 
L 318.412042 126.890725 
L 320.236545 144.094902 
L 322.121865 126.597475 
L 323.946369 139.686617 
L 325.831689 139.328834 
L 327.717009 136.269979 
L 329.419878 141.465827 
L 331.305198 130.424065 
L 333.129702 131.108396 
L 335.015022 126.410868 
L 336.839525 139.450922 
L 338.724845 156.515121 
L 340.610165 127.434444 
L 342.434668 135.067057 
L 344.319988 134.506343 
L 346.144492 129.014475 
L 348.029812 138.133976 
L 349.915132 140.472901 
L 351.618002 134.244542 
L 353.503322 132.775271 
L 355.327825 133.294033 
L 357.213145 136.500506 
L 359.037648 130.456923 
L 360.922968 134.431406 
L 362.808288 131.018107 
L 364.632792 134.270757 
L 366.518112 138.154334 
L 368.342615 134.160875 
L 370.227935 128.642978 
L 372.113255 128.372559 
L 373.816125 123.640776 
L 375.701445 140.650123 
L 377.525948 136.37427 
L 379.411268 130.942538 
L 381.235771 146.900314 
L 383.121091 134.697506 
L 385.006411 131.950138 
L 386.830915 135.173428 
L 388.716235 145.781156 
L 390.540738 123.422467 
L 392.426058 142.304251 
L 394.311378 134.725866 
L 396.075065 146.040092 
L 397.960385 121.677762 
L 399.784888 130.85196 
L 401.670208 127.935435 
L 403.494711 136.502217 
L 405.380031 131.806479 
L 407.265351 126.307645 
L 409.089855 138.617362 
L 412.799678 137.875912 
L 414.684998 139.325321 
L 416.570318 130.934786 
L 418.273188 130.821905 
L 421.983011 137.13662 
L 423.868331 133.039235 
L 425.692835 134.090422 
L 427.578155 131.46719 
L 429.463475 137.995332 
L 431.287978 133.719155 
L 433.173298 133.895745 
L 434.997801 135.597978 
L 436.883121 133.727657 
L 438.768441 132.931169 
L 440.471311 133.168165 
L 442.356631 141.615951 
L 444.181134 134.379668 
L 446.066454 136.920727 
L 447.890958 133.292534 
L 449.776278 131.793446 
L 451.661598 134.046689 
L 453.486101 133.071818 
L 455.371421 135.400791 
L 457.195924 140.88677 
L 459.081244 137.40978 
L 460.966565 140.39457 
L 462.669434 130.304738 
L 464.554754 125.461165 
L 466.379258 130.133516 
L 468.264578 129.65436 
L 470.089081 134.437554 
L 471.974401 126.364475 
L 473.859721 119.226389 
L 475.684224 137.968041 
L 477.569544 131.835913 
L 479.394048 136.690975 
L 481.279368 132.772967 
L 483.164688 132.996015 
L 484.928374 135.57754 
L 486.813694 140.415004 
L 488.638198 175.875043 
L 490.523518 132.479401 
L 492.348021 141.143104 
L 494.233341 126.976682 
L 496.118661 118.806308 
L 497.943164 126.914805 
L 499.828484 138.067931 
L 501.652988 137.118773 
L 503.538308 129.253557 
L 505.423628 125.233056 
L 507.126497 137.781766 
L 509.011817 129.907672 
L 510.836321 136.246805 
L 512.721641 124.485324 
L 514.546144 133.425748 
L 516.431464 132.748767 
L 518.316784 123.986869 
L 520.141287 130.697846 
L 522.026607 139.801944 
L 523.851111 135.332534 
L 525.736431 126.455688 
L 527.621751 137.024062 
L 529.324621 138.896499 
L 531.209941 139.263514 
L 533.034444 138.815329 
L 534.919764 142.459291 
L 536.744267 143.288584 
L 540.514907 133.751296 
L 542.339411 121.71096 
L 544.224731 160.515012 
L 546.049234 144.163461 
L 547.934554 120.391876 
L 549.819874 136.059883 
L 551.522744 130.879482 
L 553.408064 137.464798 
L 555.232567 138.081847 
L 557.117887 126.020151 
L 558.94239 141.584557 
L 560.82771 130.313173 
L 562.71303 130.547971 
L 564.537534 144.692668 
L 566.422854 139.982373 
L 568.247357 143.228607 
L 570.132677 122.967074 
L 570.132677 122.967074 
" clip-path="url(#p63a8c76d9d)" style="fill: none; stroke: #808000; stroke-linecap: square"/>
   </g>
   <g id="patch_3">
    <path d="M 37.496314 336.24 
L 37.496314 3.6 
" style="fill: none; stroke: #000000; stroke-width: 0.5; stroke-linejoin: miter; stroke-linecap: square"/>
   </g>
   <g id="patch_4">
    <path d="M 595.496314 336.24 
L 595.496314 3.6 
" style="fill: none; stroke: #000000; stroke-width: 0.5; stroke-linejoin: miter; stroke-linecap: square"/>
   </g>
   <g id="patch_5">
    <path d="M 37.496314 336.24 
L 595.496314 336.24 
" style="fill: none; stroke: #000000; stroke-width: 0.5; stroke-linejoin: miter; stroke-linecap: square"/>
   </g>
   <g id="patch_6">
    <path d="M 37.496314 3.6 
L 595.496314 3.6 
" style="fill: none; stroke: #000000; stroke-width: 0.5; stroke-linejoin: miter; stroke-linecap: square"/>
   </g>
   <g id="legend_1">
    <g id="line2d_135">
     <path d="M 48.296314 284.23564 
L 60.296314 284.23564 
L 72.296314 284.23564 
" style="fill: none; stroke-dasharray: 3.7,1.6; stroke-dashoffset: 0; stroke: #000000"/>
    </g>
    <g id="text_15">
     <!-- rendimenti SP 500 -->
     <g transform="translate(81.896314 288.43564) scale(0.12 -0.12)">
      <defs>
       <path id="CMR17-72" d="M 960 1517 
C 960 2134 1222 2713 1702 2713 
C 1747 2713 1792 2707 1837 2687 
C 1837 2687 1696 2642 1696 2475 
C 1696 2321 1818 2257 1914 2257 
C 1990 2257 2131 2302 2131 2482 
C 2131 2687 1926 2816 1709 2816 
C 1222 2816 1011 2340 947 2115 
L 941 2115 
L 941 2816 
L 198 2745 
L 198 2578 
C 576 2578 634 2540 634 2231 
L 634 443 
C 634 198 608 166 198 166 
L 198 0 
C 352 12 646 12 813 12 
C 998 12 1325 12 1498 0 
L 1498 166 
C 1037 166 960 166 960 455 
L 960 1517 
z
" transform="scale(0.015625)"/>
       <path id="CMR17-65" d="M 2438 1503 
C 2464 1529 2464 1542 2464 1606 
C 2464 2251 2118 2816 1389 2816 
C 710 2816 173 2175 173 1394 
C 173 554 781 -64 1459 -64 
C 2176 -64 2458 619 2458 755 
C 2458 800 2419 800 2406 800 
C 2362 800 2355 787 2330 709 
C 2189 270 1837 51 1504 51 
C 1229 51 954 206 781 490 
C 582 819 582 1200 582 1503 
L 2438 1503 
z
M 589 1600 
C 634 2511 1126 2713 1382 2713 
C 1818 2713 2112 2308 2118 1600 
L 589 1600 
z
" transform="scale(0.015625)"/>
       <path id="CMR17-6e" d="M 2656 1954 
C 2656 2282 2592 2816 1837 2816 
C 1331 2816 1069 2424 973 2166 
L 966 2166 
L 966 2816 
L 211 2745 
L 211 2578 
C 589 2578 646 2540 646 2231 
L 646 443 
C 646 198 621 166 211 166 
L 211 0 
C 365 12 646 12 813 12 
C 979 12 1267 12 1421 0 
L 1421 166 
C 1011 166 986 192 986 443 
L 986 1678 
C 986 2269 1344 2713 1792 2713 
C 2266 2713 2317 2289 2317 1980 
L 2317 443 
C 2317 198 2291 166 1882 166 
L 1882 0 
C 2035 12 2317 12 2483 12 
C 2650 12 2938 12 3091 0 
L 3091 166 
C 2682 166 2656 192 2656 443 
L 2656 1954 
z
" transform="scale(0.015625)"/>
       <path id="CMR17-64" d="M 1869 4345 
L 1869 4179 
C 2246 4179 2304 4141 2304 3843 
L 2304 2371 
C 2278 2403 2016 2816 1498 2816 
C 845 2816 211 2228 211 1376 
C 211 529 806 -64 1434 -64 
C 1978 -64 2259 361 2291 406 
L 2291 -64 
L 3066 -13 
L 3066 154 
C 2688 154 2630 193 2630 503 
L 2630 4416 
L 1869 4345 
z
M 2291 762 
C 2291 568 2176 393 2029 264 
C 1811 70 1594 38 1472 38 
C 1286 38 621 135 621 1369 
C 621 2636 1363 2713 1530 2713 
C 1824 2713 2061 2545 2208 2313 
C 2291 2177 2291 2157 2291 2041 
L 2291 762 
z
" transform="scale(0.015625)"/>
       <path id="CMR17-69" d="M 992 3961 
C 992 4102 877 4224 730 4224 
C 589 4224 467 4108 467 3961 
C 467 3820 582 3699 730 3699 
C 870 3699 992 3814 992 3961 
z
M 243 2745 
L 243 2579 
C 602 2579 653 2540 653 2231 
L 653 443 
C 653 198 627 166 218 166 
L 218 0 
C 371 12 646 12 806 12 
C 960 12 1222 12 1370 0 
L 1370 166 
C 992 166 979 205 979 436 
L 979 2816 
L 243 2745 
z
" transform="scale(0.015625)"/>
       <path id="CMR17-6d" d="M 4326 1954 
C 4326 2276 4269 2816 3507 2816 
C 3072 2816 2771 2520 2656 2173 
L 2650 2173 
C 2573 2700 2195 2816 1837 2816 
C 1331 2816 1069 2424 973 2166 
L 966 2166 
L 966 2816 
L 211 2745 
L 211 2578 
C 589 2578 646 2540 646 2231 
L 646 443 
C 646 198 621 166 211 166 
L 211 0 
C 365 12 646 12 813 12 
C 979 12 1267 12 1421 0 
L 1421 166 
C 1011 166 986 192 986 443 
L 986 1678 
C 986 2269 1344 2713 1792 2713 
C 2266 2713 2317 2289 2317 1980 
L 2317 443 
C 2317 198 2291 166 1882 166 
L 1882 0 
C 2035 12 2317 12 2483 12 
C 2650 12 2938 12 3091 0 
L 3091 166 
C 2682 166 2656 192 2656 443 
L 2656 1678 
C 2656 2269 3014 2713 3462 2713 
C 3936 2713 3987 2289 3987 1980 
L 3987 443 
C 3987 198 3962 166 3552 166 
L 3552 0 
C 3706 12 3987 12 4154 12 
C 4320 12 4608 12 4762 0 
L 4762 166 
C 4352 166 4326 192 4326 443 
L 4326 1954 
z
" transform="scale(0.015625)"/>
       <path id="CMR17-74" d="M 966 2585 
L 1862 2585 
L 1862 2752 
L 966 2752 
L 966 3968 
L 851 3968 
C 838 3292 614 2700 70 2687 
L 70 2585 
L 627 2585 
L 627 778 
C 627 655 627 -64 1370 -64 
C 1747 -64 1965 308 1965 784 
L 1965 1151 
L 1850 1151 
L 1850 790 
C 1850 347 1677 51 1408 51 
C 1222 51 966 179 966 765 
L 966 2585 
z
" transform="scale(0.015625)"/>
       <path id="CMR17-53" d="M 2803 4351 
C 2803 4467 2797 4473 2758 4473 
C 2720 4473 2707 4447 2682 4390 
L 2490 3965 
C 2246 4320 1875 4480 1472 4480 
C 819 4480 294 3958 294 3301 
C 294 3101 339 2817 557 2546 
C 794 2250 1018 2198 1530 2063 
C 1722 2011 2042 1927 2106 1901 
C 2470 1747 2662 1360 2662 999 
C 2662 534 2336 38 1779 38 
C 1094 38 454 425 410 1328 
C 403 1431 397 1437 352 1437 
C 301 1437 294 1431 294 1302 
L 294 0 
C 294 -116 301 -122 339 -122 
C 384 -122 397 -90 486 109 
C 493 128 493 141 614 386 
C 934 -39 1472 -128 1779 -128 
C 2477 -128 2970 457 2970 1141 
C 2970 1476 2848 1734 2778 1850 
C 2509 2263 2221 2340 1914 2417 
C 1869 2437 1856 2437 1498 2527 
C 1152 2617 1005 2662 845 2836 
C 666 3036 602 3243 602 3449 
C 602 3868 934 4326 1478 4326 
C 2157 4326 2579 3842 2675 3036 
C 2694 2920 2701 2914 2746 2914 
C 2803 2914 2803 2933 2803 3043 
L 2803 4351 
z
" transform="scale(0.015625)"/>
       <path id="CMR17-50" d="M 1267 2048 
L 2291 2048 
C 3117 2048 3718 2583 3718 3187 
C 3718 3791 3130 4352 2291 4352 
L 333 4352 
L 333 4185 
C 774 4185 845 4185 845 3899 
L 845 453 
C 845 166 774 166 333 166 
L 333 0 
C 518 12 858 12 1056 12 
C 1254 12 1594 12 1779 0 
L 1779 166 
C 1338 166 1267 166 1267 453 
L 1267 2048 
z
M 1254 2182 
L 1254 3937 
C 1254 4153 1267 4185 1523 4185 
L 2170 4185 
C 2995 4185 3232 3715 3232 3187 
C 3232 2608 2950 2182 2170 2182 
L 1254 2182 
z
" transform="scale(0.015625)"/>
      </defs>
      <use xlink:href="#CMR17-72" transform="scale(0.996264)"/>
      <use xlink:href="#CMR17-65" transform="translate(35.280768 0) scale(0.996264)"/>
      <use xlink:href="#CMR17-6e" transform="translate(75.766428 0) scale(0.996264)"/>
      <use xlink:href="#CMR17-64" transform="translate(126.661798 0) scale(0.996264)"/>
      <use xlink:href="#CMR17-69" transform="translate(177.557168 0) scale(0.996264)"/>
      <use xlink:href="#CMR17-6d" transform="translate(202.428226 0) scale(0.996264)"/>
      <use xlink:href="#CMR17-65" transform="translate(279.347816 0) scale(0.996264)"/>
      <use xlink:href="#CMR17-6e" transform="translate(319.833477 0) scale(0.996264)"/>
      <use xlink:href="#CMR17-74" transform="translate(368.126392 0) scale(0.996264)"/>
      <use xlink:href="#CMR17-69" transform="translate(403.40716 0) scale(0.996264)"/>
      <use xlink:href="#CMR17-53" transform="translate(458.354185 0) scale(0.996264)"/>
      <use xlink:href="#CMR17-50" transform="translate(509.249555 0) scale(0.996264)"/>
      <use xlink:href="#CMR17-35" transform="translate(601.911822 0) scale(0.996264)"/>
      <use xlink:href="#CMR17-30" transform="translate(647.602299 0) scale(0.996264)"/>
      <use xlink:href="#CMR17-30" transform="translate(693.292776 0) scale(0.996264)"/>
     </g>
    </g>
    <g id="line2d_136">
     <path d="M 48.296314 301.526612 
L 60.296314 301.526612 
L 72.296314 301.526612 
" style="fill: none; stroke: #808000; stroke-linecap: square"/>
    </g>
    <g id="text_16">
     <!-- combined forecast (AIC) -->
     <g transform="translate(81.896314 305.726612) scale(0.12 -0.12)">
      <defs>
       <path id="CMR17-63" d="M 2234 2240 
C 2112 2240 1933 2240 1933 2015 
C 1933 1836 2080 1785 2163 1785 
C 2208 1785 2394 1804 2394 2028 
C 2394 2476 1958 2816 1466 2816 
C 787 2816 211 2201 211 1379 
C 211 521 813 -64 1466 -64 
C 2259 -64 2458 676 2458 747 
C 2458 773 2451 792 2406 792 
C 2362 792 2355 786 2330 702 
C 2163 180 1798 51 1523 51 
C 1114 51 621 431 621 1385 
C 621 2358 1094 2700 1472 2700 
C 1722 2700 2093 2582 2234 2240 
z
" transform="scale(0.015625)"/>
       <path id="CMR17-6f" d="M 2758 1356 
C 2758 2176 2163 2816 1466 2816 
C 768 2816 173 2176 173 1356 
C 173 550 768 -64 1466 -64 
C 2163 -64 2758 550 2758 1356 
z
M 1466 51 
C 1165 51 909 230 762 480 
C 602 768 582 1126 582 1408 
C 582 1676 595 2009 762 2297 
C 890 2508 1139 2713 1466 2713 
C 1754 2713 1997 2553 2150 2329 
C 2349 2028 2349 1606 2349 1408 
C 2349 1158 2336 774 2163 467 
C 1984 172 1709 51 1466 51 
z
" transform="scale(0.015625)"/>
       <path id="CMR17-62" d="M 960 4416 
L 198 4345 
L 198 4179 
C 576 4179 634 4141 634 3843 
L 634 -13 
L 749 -13 
L 934 445 
C 1120 141 1395 -64 1766 -64 
C 2406 -64 3053 503 3053 1382 
C 3053 2209 2477 2816 1830 2816 
C 1434 2816 1152 2603 960 2351 
L 960 4416 
z
M 973 2022 
C 973 2138 973 2157 1062 2293 
C 1312 2681 1670 2713 1792 2713 
C 1984 2713 2643 2610 2643 1388 
C 2643 109 1888 38 1734 38 
C 1536 38 1248 115 1043 490 
C 973 613 973 626 973 742 
L 973 2022 
z
" transform="scale(0.015625)"/>
       <path id="CMR17-66" d="M 979 2585 
L 1709 2585 
L 1709 2752 
L 966 2752 
L 966 3539 
C 966 4076 1235 4377 1510 4377 
C 1594 4377 1690 4363 1754 4339 
C 1702 4326 1568 4281 1568 4121 
C 1568 3955 1696 3904 1786 3904 
C 1875 3904 2003 3955 2003 4121 
C 2003 4353 1773 4480 1517 4480 
C 1152 4480 653 4211 653 3526 
L 653 2752 
L 141 2752 
L 141 2585 
L 653 2585 
L 653 441 
C 653 198 627 166 218 166 
L 218 0 
C 371 12 666 12 832 12 
C 1018 12 1344 12 1517 0 
L 1517 166 
C 1056 166 979 166 979 454 
L 979 2585 
z
" transform="scale(0.015625)"/>
       <path id="CMR17-61" d="M 2304 1656 
C 2304 2048 2304 2275 2035 2534 
C 1798 2751 1523 2816 1306 2816 
C 800 2816 435 2408 435 1977 
C 435 1740 627 1728 666 1728 
C 749 1728 896 1779 896 1958 
C 896 2118 774 2188 666 2188 
C 640 2188 608 2182 589 2176 
C 723 2594 1069 2713 1293 2713 
C 1613 2713 1965 2421 1965 1875 
L 1965 1632 
C 1587 1619 1133 1568 774 1373 
C 371 1147 256 822 256 576 
C 256 77 832 -64 1171 -64 
C 1523 -64 1850 135 1990 505 
C 2003 219 2182 -39 2464 -39 
C 2598 -39 2938 51 2938 563 
L 2938 926 
L 2822 926 
L 2822 557 
C 2822 161 2650 109 2566 109 
C 2304 109 2304 446 2304 732 
L 2304 1656 
z
M 1965 887 
C 1965 323 1568 38 1216 38 
C 896 38 646 278 646 576 
C 646 771 730 1114 1101 1322 
C 1408 1497 1760 1523 1965 1536 
L 1965 887 
z
" transform="scale(0.015625)"/>
       <path id="CMR17-73" d="M 1978 2688 
C 1978 2803 1971 2809 1933 2809 
C 1907 2809 1901 2803 1824 2707 
C 1805 2681 1747 2617 1728 2592 
C 1523 2809 1235 2816 1126 2816 
C 416 2816 160 2444 160 2073 
C 160 1497 813 1363 998 1324 
C 1402 1241 1542 1216 1677 1100 
C 1760 1024 1901 883 1901 652 
C 1901 384 1747 38 1158 38 
C 602 38 403 460 288 1024 
C 269 1113 269 1120 218 1120 
C 166 1120 160 1113 160 985 
L 160 64 
C 160 -52 166 -58 205 -58 
C 237 -58 243 -52 275 0 
C 314 57 410 211 448 275 
C 576 102 800 -64 1158 -64 
C 1792 -64 2131 281 2131 780 
C 2131 1107 1958 1280 1875 1356 
C 1683 1555 1459 1600 1190 1651 
C 838 1728 390 1817 390 2208 
C 390 2374 480 2726 1126 2726 
C 1811 2726 1850 2086 1862 1881 
C 1869 1849 1901 1843 1920 1843 
C 1978 1843 1978 1862 1978 1971 
L 1978 2688 
z
" transform="scale(0.015625)"/>
       <path id="CMR17-28" d="M 1958 -1562 
C 1958 -1556 1958 -1543 1939 -1524 
C 1645 -1223 858 -403 858 1596 
C 858 3595 1632 4408 1946 4729 
C 1946 4735 1958 4748 1958 4767 
C 1958 4787 1939 4800 1914 4800 
C 1843 4800 1299 4325 986 3620 
C 666 2909 576 2218 576 1603 
C 576 1141 621 360 1005 -467 
C 1312 -1133 1837 -1600 1914 -1600 
C 1946 -1600 1958 -1588 1958 -1562 
z
" transform="scale(0.015625)"/>
       <path id="CMR17-41" d="M 2323 4441 
C 2291 4524 2278 4544 2214 4544 
C 2150 4544 2138 4524 2106 4441 
L 749 580 
C 627 236 371 166 147 166 
L 147 0 
C 262 12 518 12 640 12 
C 800 12 1056 12 1210 0 
L 1210 166 
C 909 179 864 382 864 459 
C 864 516 877 548 890 586 
L 1229 1536 
L 2906 1536 
L 3290 453 
C 3322 376 3322 363 3322 338 
C 3322 166 3046 166 2925 166 
L 2925 0 
C 3110 12 3443 12 3642 12 
C 3808 12 4128 12 4282 0 
L 4282 166 
C 3942 166 3827 166 3744 402 
L 2323 4441 
z
M 2067 3924 
L 2848 1702 
L 1286 1702 
L 2067 3924 
z
" transform="scale(0.015625)"/>
       <path id="CMR17-49" d="M 1261 3898 
C 1261 4185 1338 4185 1798 4185 
L 1798 4352 
C 1594 4339 1267 4339 1050 4339 
C 832 4339 506 4339 301 4352 
L 301 4185 
C 762 4185 838 4185 838 3898 
L 838 453 
C 838 166 762 166 301 166 
L 301 0 
C 506 12 832 12 1050 12 
C 1267 12 1594 12 1798 0 
L 1798 166 
C 1338 166 1261 166 1261 453 
L 1261 3898 
z
" transform="scale(0.015625)"/>
       <path id="CMR17-43" d="M 3974 4351 
C 3974 4467 3968 4473 3930 4473 
C 3904 4473 3898 4467 3853 4390 
L 3571 3849 
C 3258 4249 2874 4480 2381 4480 
C 1286 4480 294 3507 294 2179 
C 294 837 1286 -128 2387 -128 
C 3366 -128 3974 741 3974 1482 
C 3974 1547 3974 1573 3917 1573 
C 3866 1573 3866 1553 3859 1495 
C 3808 592 3168 38 2477 38 
C 1824 38 781 502 781 2179 
C 781 3862 1843 4313 2464 4313 
C 3187 4313 3712 3681 3834 2785 
C 3846 2707 3846 2695 3904 2695 
C 3974 2695 3974 2707 3974 2824 
L 3974 4351 
z
" transform="scale(0.015625)"/>
       <path id="CMR17-29" d="M 1683 1596 
C 1683 2057 1638 2839 1254 3665 
C 947 4332 422 4800 346 4800 
C 326 4800 301 4793 301 4761 
C 301 4748 307 4742 314 4729 
C 621 4408 1402 3595 1402 1603 
C 1402 -396 627 -1210 314 -1530 
C 307 -1543 301 -1549 301 -1562 
C 301 -1594 326 -1600 346 -1600 
C 416 -1600 960 -1127 1274 -422 
C 1594 289 1683 981 1683 1596 
z
" transform="scale(0.015625)"/>
      </defs>
      <use xlink:href="#CMR17-63" transform="scale(0.996264)"/>
      <use xlink:href="#CMR17-6f" transform="translate(40.48566 0) scale(0.996264)"/>
      <use xlink:href="#CMR17-6d" transform="translate(86.176138 0) scale(0.996264)"/>
      <use xlink:href="#CMR17-62" transform="translate(160.493274 0) scale(0.996264)"/>
      <use xlink:href="#CMR17-69" transform="translate(211.388643 0) scale(0.996264)"/>
      <use xlink:href="#CMR17-6e" transform="translate(236.259702 0) scale(0.996264)"/>
      <use xlink:href="#CMR17-65" transform="translate(287.155072 0) scale(0.996264)"/>
      <use xlink:href="#CMR17-64" transform="translate(327.640732 0) scale(0.996264)"/>
      <use xlink:href="#CMR17-66" transform="translate(408.612068 0) scale(0.996264)"/>
      <use xlink:href="#CMR17-6f" transform="translate(436.085581 0) scale(0.996264)"/>
      <use xlink:href="#CMR17-72" transform="translate(481.776058 0) scale(0.996264)"/>
      <use xlink:href="#CMR17-65" transform="translate(517.056825 0) scale(0.996264)"/>
      <use xlink:href="#CMR17-63" transform="translate(557.542486 0) scale(0.996264)"/>
      <use xlink:href="#CMR17-61" transform="translate(598.028146 0) scale(0.996264)"/>
      <use xlink:href="#CMR17-73" transform="translate(643.718624 0) scale(0.996264)"/>
      <use xlink:href="#CMR17-74" transform="translate(679.519961 0) scale(0.996264)"/>
      <use xlink:href="#CMR17-28" transform="translate(744.876695 0) scale(0.996264)"/>
      <use xlink:href="#CMR17-41" transform="translate(780.157463 0) scale(0.996264)"/>
      <use xlink:href="#CMR17-49" transform="translate(849.229893 0) scale(0.996264)"/>
      <use xlink:href="#CMR17-43" transform="translate(881.868302 0) scale(0.996264)"/>
      <use xlink:href="#CMR17-29" transform="translate(948.378183 0) scale(0.996264)"/>
     </g>
    </g>
    <g id="patch_7">
     <path d="M 48.296314 323.115404 
L 72.296314 323.115404 
L 72.296314 314.715404 
L 48.296314 314.715404 
z
" style="fill: #808080; fill-opacity: 0.3; stroke: #808080; stroke-opacity: 0.3; stroke-linejoin: miter"/>
    </g>
    <g id="text_17">
     <!-- 99 perc. CI -->
     <g transform="translate(81.896314 323.115404) scale(0.12 -0.12)">
      <defs>
       <path id="CMR17-39" d="M 2253 1871 
C 2253 448 1670 25 1190 25 
C 1043 25 685 43 538 281 
C 704 256 826 345 826 505 
C 826 678 685 736 595 736 
C 538 736 365 710 365 492 
C 365 68 742 -128 1203 -128 
C 1939 -128 2688 665 2688 2090 
C 2688 3857 1971 4224 1485 4224 
C 851 4224 243 3664 243 2800 
C 243 2000 762 1408 1414 1408 
C 1952 1408 2189 1910 2253 2122 
L 2253 1871 
z
M 1427 1510 
C 1254 1510 1011 1542 813 1929 
C 678 2181 678 2477 678 2793 
C 678 3174 678 3438 858 3722 
C 947 3857 1114 4076 1485 4076 
C 2240 4076 2240 2909 2240 2651 
C 2240 2193 2035 1510 1427 1510 
z
" transform="scale(0.015625)"/>
       <path id="CMR17-70" d="M 1408 -1114 
C 998 -1114 973 -1088 973 -834 
L 973 380 
C 1158 109 1427 -64 1766 -64 
C 2406 -64 3053 503 3053 1382 
C 3053 2196 2496 2816 1837 2816 
C 1453 2816 1139 2603 960 2345 
L 960 2816 
L 198 2745 
L 198 2577 
C 576 2577 634 2539 634 2228 
L 634 -834 
C 634 -1081 608 -1114 198 -1114 
L 198 -1280 
C 352 -1268 634 -1268 800 -1268 
C 966 -1268 1254 -1268 1408 -1280 
L 1408 -1114 
z
M 973 2015 
C 973 2106 973 2241 1222 2481 
C 1254 2506 1472 2700 1792 2700 
C 2259 2700 2643 2112 2643 1376 
C 2643 639 2234 38 1728 38 
C 1498 38 1248 148 1056 451 
C 973 594 973 632 973 736 
L 973 2015 
z
" transform="scale(0.015625)"/>
       <path id="CMR17-2e" d="M 1062 262 
C 1062 422 934 524 800 524 
C 672 524 538 422 538 262 
C 538 102 666 0 800 0 
C 928 0 1062 102 1062 262 
z
" transform="scale(0.015625)"/>
      </defs>
      <use xlink:href="#CMR17-39" transform="scale(0.996264)"/>
      <use xlink:href="#CMR17-39" transform="translate(45.690477 0) scale(0.996264)"/>
      <use xlink:href="#CMR17-70" transform="translate(121.456921 0) scale(0.996264)"/>
      <use xlink:href="#CMR17-65" transform="translate(174.954729 0) scale(0.996264)"/>
      <use xlink:href="#CMR17-72" transform="translate(215.44039 0) scale(0.996264)"/>
      <use xlink:href="#CMR17-63" transform="translate(250.721157 0) scale(0.996264)"/>
      <use xlink:href="#CMR17-2e" transform="translate(291.206818 0) scale(0.996264)"/>
      <use xlink:href="#CMR17-43" transform="translate(356.563537 0) scale(0.996264)"/>
      <use xlink:href="#CMR17-49" transform="translate(423.073417 0) scale(0.996264)"/>
     </g>
    </g>
   </g>
  </g>
 </g>
 <defs>
  <clipPath id="p63a8c76d9d">
   <rect x="37.496314" y="3.6" width="558" height="332.64"/>
  </clipPath>
 </defs>
</svg>
