<?xml version="1.0" encoding="utf-8" standalone="no"?>
<!DOCTYPE svg PUBLIC "-//W3C//DTD SVG 1.1//EN"
  "http://www.w3.org/Graphics/SVG/1.1/DTD/svg11.dtd">
<svg xmlns:xlink="http://www.w3.org/1999/xlink" width="599.096314pt" height="359.281364pt" viewBox="0 0 599.096314 359.281364" xmlns="http://www.w3.org/2000/svg" version="1.1">
 <metadata>
  <rdf:RDF xmlns:dc="http://purl.org/dc/elements/1.1/" xmlns:cc="http://creativecommons.org/ns#" xmlns:rdf="http://www.w3.org/1999/02/22-rdf-syntax-ns#">
   <cc:Work>
    <dc:type rdf:resource="http://purl.org/dc/dcmitype/StillImage"/>
    <dc:date>2025-03-28T01:13:15.270914</dc:date>
    <dc:format>image/svg+xml</dc:format>
    <dc:creator>
     <cc:Agent>
      <dc:title>Matplotlib v3.9.2, https://matplotlib.org/</dc:title>
     </cc:Agent>
    </dc:creator>
   </cc:Work>
  </rdf:RDF>
 </metadata>
 <defs>
  <style type="text/css">*{stroke-linejoin: round; stroke-linecap: butt}</style>
 </defs>
 <g id="figure_1">
  <g id="patch_1">
   <path d="M 0 359.281364 
L 599.096314 359.281364 
L 599.096314 0 
L 0 0 
z
" style="fill: #ffffff"/>
  </g>
  <g id="axes_1">
   <g id="patch_2">
    <path d="M 37.496314 336.24 
L 595.496314 336.24 
L 595.496314 3.6 
L 37.496314 3.6 
z
" style="fill: #ffffff"/>
   </g>
   <g id="PolyCollection_1">
    <defs>
     <path id="m3ac08ec23f" d="M 62.85995 -303.283611 
L 62.85995 -147.164161 
L 64.74527 -143.054883 
L 66.569773 -134.798222 
L 68.455093 -139.603936 
L 70.279597 -158.874921 
L 72.164917 -143.115497 
L 74.050237 -139.797996 
L 75.87474 -146.249441 
L 77.76006 -108.163028 
L 79.584563 -152.052429 
L 81.469883 -149.728294 
L 83.355203 -139.566592 
L 85.058073 -143.968116 
L 86.943393 -141.484383 
L 88.767896 -146.724907 
L 90.653216 -140.879189 
L 92.47772 -141.313101 
L 94.36304 -141.039216 
L 96.24836 -132.427051 
L 98.072863 -152.658617 
L 99.958183 -144.940928 
L 101.782686 -138.649361 
L 103.668006 -153.149152 
L 105.553327 -141.031405 
L 107.256196 -144.427374 
L 109.141516 -139.23097 
L 110.96602 -148.813788 
L 112.85134 -151.918602 
L 114.675843 -159.905482 
L 116.561163 -159.400959 
L 118.446483 -135.738372 
L 120.270986 -139.180823 
L 122.156306 -155.214663 
L 123.98081 -149.145839 
L 125.86613 -151.013463 
L 127.75145 -154.989758 
L 129.515136 -157.042439 
L 131.400456 -147.318275 
L 133.22496 -147.660014 
L 135.11028 -142.98139 
L 136.934783 -140.201622 
L 138.820103 -155.301802 
L 140.705423 -145.99258 
L 142.529926 -148.239664 
L 144.415246 -155.407116 
L 146.23975 -145.771195 
L 148.12507 -155.179101 
L 150.01039 -149.814523 
L 151.713259 -143.405092 
L 153.598579 -151.232833 
L 155.423083 -140.525218 
L 157.308403 -145.248835 
L 159.132906 -152.776587 
L 161.018226 -154.128078 
L 162.903546 -145.968023 
L 164.728049 -146.149993 
L 166.613369 -148.110559 
L 168.437873 -140.020806 
L 170.323193 -155.319749 
L 172.208513 -151.817811 
L 173.911383 -150.104854 
L 175.796703 -144.047987 
L 177.621206 -147.862094 
L 179.506526 -143.149614 
L 181.331029 -144.669854 
L 183.216349 -142.761758 
L 185.101669 -149.122412 
L 186.926173 -155.08497 
L 188.811493 -154.830865 
L 190.635996 -154.734425 
L 192.521316 -153.984947 
L 194.406636 -153.287397 
L 196.109506 -144.540361 
L 197.994826 -152.128318 
L 199.819329 -146.295666 
L 201.704649 -155.876477 
L 203.529152 -153.118109 
L 205.414472 -141.279277 
L 207.299792 -150.457581 
L 209.124296 -146.00263 
L 211.009616 -157.083904 
L 212.834119 -153.033806 
L 214.719439 -142.92693 
L 216.604759 -149.9053 
L 218.368446 -141.521824 
L 220.253766 -146.059871 
L 222.078269 -147.160537 
L 223.963589 -148.227327 
L 225.788092 -145.960803 
L 227.673412 -134.974823 
L 229.558732 -136.411805 
L 231.383236 -151.834514 
L 233.268556 -143.681388 
L 235.093059 -97.482096 
L 236.978379 -130.561045 
L 238.863699 -148.61061 
L 240.566569 -111.89878 
L 242.451889 -104.752532 
L 244.276392 -126.068544 
L 246.161712 -159.698828 
L 247.986216 -128.373265 
L 249.871536 -152.573892 
L 251.756856 -148.507771 
L 253.581359 -158.016841 
L 255.466679 -157.668235 
L 257.291182 -163.621408 
L 259.176502 -181.570683 
L 261.061822 -177.831537 
L 262.764692 -154.555438 
L 264.650012 -145.640149 
L 266.474515 -159.848225 
L 268.359835 -152.409169 
L 270.184339 -144.691669 
L 272.069659 -147.003558 
L 273.954979 -150.208609 
L 275.779482 -154.566435 
L 277.664802 -153.104052 
L 279.489305 -158.01485 
L 281.374625 -145.150763 
L 283.259946 -143.468789 
L 284.962815 -155.487989 
L 286.848135 -148.764373 
L 288.672639 -148.114499 
L 290.557959 -151.990679 
L 292.382462 -153.002995 
L 294.267782 -144.898833 
L 296.153102 -155.248343 
L 297.977605 -136.051452 
L 299.862925 -154.160463 
L 301.687429 -147.088338 
L 303.572749 -154.07737 
L 305.458069 -150.693406 
L 307.221755 -157.989595 
L 309.107075 -154.511407 
L 310.931579 -144.4415 
L 312.816899 -150.355472 
L 314.641402 -151.125063 
L 316.526722 -152.180365 
L 318.412042 -156.796477 
L 320.236545 -147.171294 
L 322.121865 -153.662003 
L 323.946369 -143.699616 
L 325.831689 -145.945079 
L 327.717009 -151.175355 
L 329.419878 -147.905687 
L 331.305198 -151.869371 
L 333.129702 -153.771128 
L 335.015022 -155.831789 
L 336.839525 -150.560303 
L 338.724845 -137.125352 
L 340.610165 -154.26457 
L 342.434668 -146.777682 
L 344.319988 -148.59804 
L 346.144492 -155.89041 
L 348.029812 -151.613325 
L 349.915132 -145.65379 
L 351.618002 -149.528431 
L 353.503322 -150.840207 
L 355.327825 -153.718492 
L 357.213145 -146.912599 
L 359.037648 -154.332725 
L 360.922968 -152.934689 
L 362.808288 -151.831309 
L 364.632792 -150.19708 
L 366.518112 -149.555882 
L 368.342615 -148.756378 
L 370.227935 -157.433686 
L 372.113255 -151.101381 
L 373.816125 -155.03639 
L 375.701445 -149.82643 
L 377.525948 -144.995748 
L 379.411268 -151.730967 
L 381.235771 -142.276774 
L 383.121091 -147.093166 
L 385.006411 -149.217309 
L 386.830915 -148.701543 
L 388.716235 -141.357037 
L 390.540738 -159.071429 
L 392.426058 -146.829791 
L 394.311378 -146.734761 
L 396.075065 -141.746557 
L 397.960385 -156.31946 
L 399.784888 -153.685343 
L 401.670208 -154.85645 
L 403.494711 -146.212224 
L 405.380031 -154.918353 
L 407.265351 -159.954562 
L 409.089855 -145.508394 
L 410.975175 -144.136532 
L 412.799678 -144.181456 
L 414.684998 -143.177644 
L 416.570318 -152.17779 
L 418.273188 -152.73042 
L 420.158508 -153.688048 
L 421.983011 -149.463344 
L 423.868331 -151.594063 
L 425.692835 -151.82914 
L 427.578155 -154.889127 
L 429.463475 -145.679577 
L 431.287978 -150.660855 
L 433.173298 -152.28952 
L 434.997801 -149.141854 
L 436.883121 -151.652156 
L 438.768441 -153.297178 
L 440.471311 -152.369425 
L 442.356631 -139.410595 
L 444.181134 -151.648106 
L 446.066454 -145.776881 
L 447.890958 -152.884137 
L 449.776278 -154.158441 
L 451.661598 -151.719765 
L 453.486101 -153.938031 
L 455.371421 -149.158026 
L 457.195924 -140.48321 
L 459.081244 -146.657979 
L 460.966565 -145.807481 
L 462.669434 -155.377527 
L 464.554754 -160.845381 
L 466.379258 -154.26616 
L 468.264578 -157.289936 
L 470.089081 -148.574888 
L 471.974401 -160.263124 
L 473.859721 -166.537139 
L 475.684224 -143.994294 
L 477.569544 -154.837581 
L 479.394048 -146.630245 
L 481.279368 -155.042947 
L 483.164688 -152.236057 
L 484.928374 -155.506273 
L 486.813694 -151.05057 
L 488.638198 -134.726077 
L 490.523518 -187.570834 
L 492.348021 -154.439316 
L 494.233341 -151.510056 
L 496.118661 -158.544378 
L 497.943164 -154.868631 
L 499.828484 -141.562318 
L 501.652988 -145.751907 
L 503.538308 -153.810683 
L 505.423628 -153.576497 
L 507.126497 -147.991296 
L 509.011817 -153.401127 
L 510.836321 -146.483023 
L 512.721641 -160.666571 
L 514.546144 -150.693716 
L 516.431464 -155.12515 
L 518.316784 -159.396566 
L 520.141287 -153.64978 
L 522.026607 -145.448463 
L 523.851111 -148.321497 
L 525.736431 -159.01429 
L 527.621751 -150.448345 
L 529.324621 -144.037092 
L 531.209941 -145.780848 
L 533.034444 -146.754332 
L 534.919764 -143.980944 
L 536.744267 -139.784997 
L 538.629587 -144.862445 
L 540.514907 -151.7339 
L 542.339411 -159.771468 
L 544.224731 -131.028741 
L 546.049234 -143.735385 
L 547.934554 -159.978453 
L 549.819874 -148.711155 
L 551.522744 -152.802788 
L 553.408064 -150.588633 
L 555.232567 -145.321917 
L 557.117887 -159.184221 
L 558.94239 -145.01006 
L 560.82771 -155.429252 
L 562.71303 -152.719314 
L 564.537534 -141.868177 
L 566.422854 -145.369039 
L 568.247357 -142.217296 
L 570.132677 -160.220544 
L 570.132677 -312.641312 
L 570.132677 -312.641312 
L 568.247357 -294.622044 
L 566.422854 -297.792198 
L 564.537534 -294.332363 
L 562.71303 -305.227572 
L 560.82771 -307.971423 
L 558.94239 -297.533913 
L 557.117887 -311.753819 
L 555.232567 -297.90362 
L 553.408064 -303.197674 
L 551.522744 -305.444167 
L 549.819874 -301.39856 
L 547.934554 -312.702394 
L 546.049234 -296.432368 
L 544.224731 -283.76283 
L 542.339411 -312.253818 
L 540.514907 -304.17498 
L 538.629587 -297.35324 
L 536.744267 -292.302519 
L 534.919764 -296.335833 
L 533.034444 -299.163589 
L 531.209941 -298.235687 
L 529.324621 -296.516676 
L 527.621751 -302.958264 
L 525.736431 -311.569606 
L 523.851111 -300.875528 
L 522.026607 -298.052793 
L 520.141287 -306.301252 
L 518.316784 -312.099197 
L 516.431464 -307.870391 
L 514.546144 -303.485163 
L 512.721641 -313.50454 
L 510.836321 -299.281042 
L 509.011817 -306.247063 
L 507.126497 -300.882679 
L 505.423628 -306.511236 
L 503.538308 -306.772401 
L 501.652988 -298.712127 
L 499.828484 -294.565091 
L 497.943164 -307.913165 
L 496.118661 -311.583258 
L 494.233341 -304.575021 
L 492.348021 -307.469485 
L 490.523518 -340.561364 
L 488.638198 -287.6482 
L 486.813694 -302.582979 
L 484.928374 -307.09663 
L 483.164688 -303.845418 
L 481.279368 -306.704615 
L 479.394048 -298.282742 
L 477.569544 -306.541796 
L 475.684224 -295.72104 
L 473.859721 -318.215165 
L 471.974401 -311.97329 
L 470.089081 -300.336225 
L 468.264578 -309.070257 
L 466.379258 -306.077835 
L 464.554754 -312.70981 
L 462.669434 -307.222595 
L 460.966565 -297.702216 
L 459.081244 -298.494114 
L 457.195924 -292.353324 
L 455.371421 -301.026663 
L 453.486101 -305.859258 
L 451.661598 -303.682326 
L 449.776278 -306.168335 
L 447.890958 -304.941012 
L 446.066454 -297.883361 
L 444.181134 -303.783553 
L 442.356631 -291.598327 
L 440.471311 -304.528049 
L 438.768441 -305.4551 
L 436.883121 -303.84983 
L 434.997801 -301.388868 
L 433.173298 -304.580445 
L 431.287978 -303.005861 
L 429.463475 -298.077904 
L 427.578155 -307.336975 
L 425.692835 -304.330092 
L 423.868331 -304.146335 
L 421.983011 -302.066169 
L 420.158508 -306.347424 
L 418.273188 -305.466658 
L 416.570318 -304.966531 
L 414.684998 -295.962374 
L 412.799678 -297.015304 
L 410.975175 -296.997368 
L 409.089855 -298.426636 
L 407.265351 -312.92581 
L 405.380031 -307.931854 
L 403.494711 -299.273294 
L 401.670208 -307.962356 
L 399.784888 -306.833232 
L 397.960385 -309.462941 
L 396.075065 -294.944136 
L 394.311378 -299.816763 
L 392.426058 -299.968786 
L 390.540738 -312.263758 
L 388.716235 -294.538612 
L 386.830915 -301.849171 
L 385.006411 -302.391777 
L 383.121091 -300.321328 
L 381.235771 -295.551293 
L 379.411268 -305.051718 
L 377.525948 -298.377465 
L 375.701445 -303.257136 
L 373.816125 -308.51676 
L 372.113255 -304.6326 
L 370.227935 -311.008743 
L 368.342615 -302.312432 
L 366.518112 -303.130144 
L 364.632792 -303.8212 
L 362.808288 -305.510218 
L 360.922968 -306.665823 
L 359.037648 -308.109115 
L 357.213145 -300.736368 
L 355.327825 -307.590425 
L 353.503322 -304.76042 
L 351.618002 -303.497147 
L 349.915132 -299.677692 
L 348.029812 -305.695273 
L 346.144492 -310.014015 
L 344.319988 -302.77062 
L 342.434668 -301.002023 
L 340.610165 -308.539462 
L 338.724845 -291.398957 
L 336.839525 -304.877922 
L 335.015022 -310.179779 
L 333.129702 -308.175158 
L 331.305198 -306.322246 
L 329.419878 -302.403287 
L 327.717009 -305.690568 
L 325.831689 -300.50457 
L 323.946369 -298.297722 
L 322.121865 -308.329166 
L 320.236545 -301.881568 
L 318.412042 -311.515261 
L 316.526722 -306.946065 
L 314.641402 -305.93637 
L 312.816899 -305.166082 
L 310.931579 -299.329418 
L 309.107075 -309.449274 
L 307.221755 -312.968786 
L 305.458069 -305.683846 
L 303.572749 -309.123574 
L 301.687429 -302.182041 
L 299.862925 -309.29824 
L 297.977605 -291.23946 
L 296.153102 -309.991621 
L 294.267782 -299.67569 
L 292.382462 -307.74895 
L 290.557959 -306.79161 
L 288.672639 -302.960754 
L 286.848135 -303.6557 
L 284.962815 -310.43078 
L 283.259946 -298.426141 
L 281.374625 -300.11997 
L 279.489305 -313.041875 
L 277.664802 -308.145362 
L 275.779482 -309.645135 
L 273.954979 -305.349189 
L 272.069659 -302.199176 
L 270.184339 -299.89883 
L 268.359835 -307.506821 
L 266.474515 -314.99007 
L 264.650012 -300.74497 
L 262.764692 -309.662191 
L 261.061822 -328.32438 
L 259.176502 -332.078561 
L 257.291182 -314.15085 
L 255.466679 -308.249763 
L 253.581359 -308.632615 
L 251.756856 -297.341793 
L 249.871536 -301.455967 
L 247.986216 -278.912633 
L 246.161712 -310.168153 
L 244.276392 -280.794673 
L 242.451889 -257.19782 
L 240.566569 -264.335626 
L 238.863699 -301.089541 
L 236.978379 -285.373781 
L 235.093059 -252.764189 
L 233.268556 -298.410471 
L 231.383236 -306.497507 
L 229.558732 -290.014618 
L 227.673412 -289.623698 
L 225.788092 -300.597354 
L 223.963589 -302.906873 
L 222.078269 -300.780769 
L 220.253766 -299.21476 
L 218.368446 -294.730872 
L 216.604759 -302.994649 
L 214.719439 -296.059322 
L 212.834119 -306.099773 
L 211.009616 -310.19135 
L 209.124296 -299.15567 
L 207.299792 -303.565173 
L 205.414472 -294.444272 
L 203.529152 -306.334908 
L 201.704649 -309.143546 
L 199.819329 -299.577124 
L 197.994826 -305.425441 
L 196.109506 -297.881331 
L 194.406636 -306.691864 
L 192.521316 -307.440917 
L 190.635996 -308.24974 
L 188.811493 -309.815164 
L 186.926173 -310.126192 
L 185.101669 -304.213802 
L 183.216349 -297.913333 
L 181.331029 -299.849283 
L 179.506526 -298.387977 
L 177.621206 -303.161856 
L 175.796703 -299.400774 
L 173.911383 -305.515615 
L 172.208513 -307.289625 
L 170.323193 -310.849087 
L 168.437873 -295.53085 
L 166.613369 -303.642731 
L 164.728049 -301.743608 
L 162.903546 -301.636465 
L 161.018226 -309.858315 
L 159.132906 -308.564272 
L 157.308403 -301.095976 
L 155.423083 -296.419271 
L 153.598579 -307.182476 
L 151.713259 -299.407151 
L 150.01039 -305.861109 
L 148.12507 -311.284247 
L 146.23975 -301.872226 
L 144.415246 -311.560071 
L 142.529926 -304.437288 
L 140.705423 -302.240587 
L 138.820103 -311.559306 
L 136.934783 -296.491259 
L 135.11028 -299.313297 
L 133.22496 -304.053857 
L 131.400456 -303.758744 
L 129.515136 -313.54359 
L 127.75145 -311.51047 
L 125.86613 -307.562938 
L 123.98081 -305.753989 
L 122.156306 -311.884888 
L 120.270986 -296.082024 
L 118.446483 -292.704678 
L 116.561163 -316.42345 
L 114.675843 -316.941062 
L 112.85134 -308.955449 
L 110.96602 -305.842295 
L 109.141516 -296.306114 
L 107.256196 -301.396636 
L 105.553327 -298.068902 
L 103.668006 -310.229601 
L 101.782686 -295.613295 
L 99.958183 -301.963127 
L 98.072863 -309.615162 
L 96.24836 -289.404663 
L 94.36304 -297.637734 
L 92.47772 -297.850755 
L 90.653216 -297.45683 
L 88.767896 -303.304489 
L 86.943393 -298.031804 
L 85.058073 -300.535102 
L 83.355203 -296.195715 
L 81.469883 -306.420466 
L 79.584563 -308.756058 
L 77.76006 -264.956753 
L 75.87474 -302.575246 
L 74.050237 -295.292874 
L 72.164917 -298.65112 
L 70.279597 -315.297647 
L 68.455093 -295.033046 
L 66.569773 -290.279693 
L 64.74527 -299.135903 
L 62.85995 -303.283611 
z
" style="stroke: #808080; stroke-opacity: 0.3"/>
    </defs>
    <g clip-path="url(#p09c9252751)">
     <use xlink:href="#m3ac08ec23f" x="0" y="359.281364" style="fill: #808080; fill-opacity: 0.3; stroke: #808080; stroke-opacity: 0.3"/>
    </g>
   </g>
   <g id="matplotlib.axis_1">
    <g id="xtick_1">
     <g id="line2d_1">
      <defs>
       <path id="m2c0f74504a" d="M 0 0 
L 0 -3 
" style="stroke: #000000; stroke-width: 0.5"/>
      </defs>
      <g>
       <use xlink:href="#m2c0f74504a" x="125.926946" y="336.24" style="stroke: #000000; stroke-width: 0.5"/>
      </g>
     </g>
     <g id="line2d_2">
      <defs>
       <path id="me0549d7372" d="M 0 0 
L 0 3 
" style="stroke: #000000; stroke-width: 0.5"/>
      </defs>
      <g>
       <use xlink:href="#me0549d7372" x="125.926946" y="3.6" style="stroke: #000000; stroke-width: 0.5"/>
      </g>
     </g>
     <g id="text_1">
      <!-- $\mathdefault{2004}$ -->
      <g transform="translate(109.478375 352.1933) scale(0.18 -0.18)">
       <defs>
        <path id="CMR17-32" d="M 2669 990 
L 2554 990 
C 2490 537 2438 460 2413 422 
C 2381 371 1920 371 1830 371 
L 602 371 
C 832 620 1280 1073 1824 1596 
C 2214 1966 2669 2400 2669 3033 
C 2669 3788 2067 4224 1395 4224 
C 691 4224 262 3603 262 3027 
C 262 2777 448 2745 525 2745 
C 589 2745 781 2783 781 3007 
C 781 3206 614 3264 525 3264 
C 486 3264 448 3257 422 3244 
C 544 3788 915 4057 1306 4057 
C 1862 4057 2227 3616 2227 3033 
C 2227 2477 1901 1998 1536 1583 
L 262 147 
L 262 0 
L 2515 0 
L 2669 990 
z
" transform="scale(0.015625)"/>
        <path id="CMR17-30" d="M 2688 2038 
C 2688 2430 2682 3099 2413 3613 
C 2176 4063 1798 4224 1466 4224 
C 1158 4224 768 4082 525 3620 
C 269 3137 243 2539 243 2038 
C 243 1671 250 1112 448 623 
C 723 -39 1216 -128 1466 -128 
C 1760 -128 2208 -7 2470 604 
C 2662 1048 2688 1568 2688 2038 
z
M 1466 -26 
C 1056 -26 813 328 723 816 
C 653 1196 653 1749 653 2109 
C 653 2604 653 3015 736 3407 
C 858 3954 1216 4121 1466 4121 
C 1728 4121 2067 3947 2189 3420 
C 2272 3054 2278 2623 2278 2109 
C 2278 1691 2278 1176 2202 797 
C 2067 96 1690 -26 1466 -26 
z
" transform="scale(0.015625)"/>
        <path id="CMR17-34" d="M 2150 4147 
C 2150 4281 2144 4288 2029 4288 
L 128 1254 
L 128 1088 
L 1779 1088 
L 1779 460 
C 1779 230 1766 166 1318 166 
L 1197 166 
L 1197 0 
C 1402 12 1747 12 1965 12 
C 2182 12 2528 12 2733 0 
L 2733 166 
L 2611 166 
C 2163 166 2150 230 2150 460 
L 2150 1088 
L 2803 1088 
L 2803 1254 
L 2150 1254 
L 2150 4147 
z
M 1798 3723 
L 1798 1254 
L 256 1254 
L 1798 3723 
z
" transform="scale(0.015625)"/>
       </defs>
       <use xlink:href="#CMR17-32" transform="scale(0.996264)"/>
       <use xlink:href="#CMR17-30" transform="translate(45.690477 0) scale(0.996264)"/>
       <use xlink:href="#CMR17-30" transform="translate(91.380954 0) scale(0.996264)"/>
       <use xlink:href="#CMR17-34" transform="translate(137.071431 0) scale(0.996264)"/>
      </g>
     </g>
    </g>
    <g id="xtick_2">
     <g id="line2d_3">
      <g>
       <use xlink:href="#m2c0f74504a" x="214.780256" y="336.24" style="stroke: #000000; stroke-width: 0.5"/>
      </g>
     </g>
     <g id="line2d_4">
      <g>
       <use xlink:href="#me0549d7372" x="214.780256" y="3.6" style="stroke: #000000; stroke-width: 0.5"/>
      </g>
     </g>
     <g id="text_2">
      <!-- $\mathdefault{2008}$ -->
      <g transform="translate(198.331684 352.1933) scale(0.18 -0.18)">
       <defs>
        <path id="CMR17-38" d="M 1741 2289 
C 2144 2494 2554 2803 2554 3298 
C 2554 3884 1990 4224 1472 4224 
C 890 4224 378 3800 378 3215 
C 378 3054 416 2777 666 2533 
C 730 2469 998 2276 1171 2154 
C 883 2006 211 1652 211 945 
C 211 282 838 -128 1459 -128 
C 2144 -128 2720 366 2720 1022 
C 2720 1607 2330 1877 2074 2051 
L 1741 2289 
z
M 902 2855 
C 851 2887 595 3086 595 3388 
C 595 3781 998 4076 1459 4076 
C 1965 4076 2336 3716 2336 3298 
C 2336 2700 1670 2359 1638 2359 
C 1632 2359 1626 2359 1574 2398 
L 902 2855 
z
M 2080 1536 
C 2176 1466 2483 1253 2483 861 
C 2483 385 2010 25 1472 25 
C 890 25 448 443 448 951 
C 448 1459 838 1884 1280 2083 
L 2080 1536 
z
" transform="scale(0.015625)"/>
       </defs>
       <use xlink:href="#CMR17-32" transform="scale(0.996264)"/>
       <use xlink:href="#CMR17-30" transform="translate(45.690477 0) scale(0.996264)"/>
       <use xlink:href="#CMR17-30" transform="translate(91.380954 0) scale(0.996264)"/>
       <use xlink:href="#CMR17-38" transform="translate(137.071431 0) scale(0.996264)"/>
      </g>
     </g>
    </g>
    <g id="xtick_3">
     <g id="line2d_5">
      <g>
       <use xlink:href="#m2c0f74504a" x="303.633565" y="336.24" style="stroke: #000000; stroke-width: 0.5"/>
      </g>
     </g>
     <g id="line2d_6">
      <g>
       <use xlink:href="#me0549d7372" x="303.633565" y="3.6" style="stroke: #000000; stroke-width: 0.5"/>
      </g>
     </g>
     <g id="text_3">
      <!-- $\mathdefault{2012}$ -->
      <g transform="translate(287.184994 352.1933) scale(0.18 -0.18)">
       <defs>
        <path id="CMR17-31" d="M 1702 4083 
C 1702 4217 1696 4224 1606 4224 
C 1357 3927 979 3833 621 3820 
C 602 3820 570 3820 563 3808 
C 557 3795 557 3782 557 3648 
C 755 3648 1088 3686 1344 3839 
L 1344 467 
C 1344 243 1331 166 781 166 
L 589 166 
L 589 0 
C 896 6 1216 12 1523 12 
C 1830 12 2150 6 2458 0 
L 2458 166 
L 2266 166 
C 1715 166 1702 236 1702 467 
L 1702 4083 
z
" transform="scale(0.015625)"/>
       </defs>
       <use xlink:href="#CMR17-32" transform="scale(0.996264)"/>
       <use xlink:href="#CMR17-30" transform="translate(45.690477 0) scale(0.996264)"/>
       <use xlink:href="#CMR17-31" transform="translate(91.380954 0) scale(0.996264)"/>
       <use xlink:href="#CMR17-32" transform="translate(137.071431 0) scale(0.996264)"/>
      </g>
     </g>
    </g>
    <g id="xtick_4">
     <g id="line2d_7">
      <g>
       <use xlink:href="#m2c0f74504a" x="392.486875" y="336.24" style="stroke: #000000; stroke-width: 0.5"/>
      </g>
     </g>
     <g id="line2d_8">
      <g>
       <use xlink:href="#me0549d7372" x="392.486875" y="3.6" style="stroke: #000000; stroke-width: 0.5"/>
      </g>
     </g>
     <g id="text_4">
      <!-- $\mathdefault{2016}$ -->
      <g transform="translate(376.038303 352.1933) scale(0.18 -0.18)">
       <defs>
        <path id="CMR17-36" d="M 678 2198 
C 678 3712 1395 4076 1811 4076 
C 1946 4076 2272 4049 2400 3782 
C 2298 3782 2106 3782 2106 3558 
C 2106 3385 2246 3328 2336 3328 
C 2394 3328 2566 3353 2566 3571 
C 2566 3987 2246 4224 1805 4224 
C 1043 4224 243 3411 243 2011 
C 243 257 966 -128 1478 -128 
C 2099 -128 2688 431 2688 1295 
C 2688 2101 2170 2688 1517 2688 
C 1126 2688 838 2430 678 1979 
L 678 2198 
z
M 1478 25 
C 691 25 691 1212 691 1450 
C 691 1914 909 2585 1504 2585 
C 1613 2585 1926 2585 2138 2140 
C 2253 1889 2253 1624 2253 1302 
C 2253 954 2253 696 2118 438 
C 1978 173 1773 25 1478 25 
z
" transform="scale(0.015625)"/>
       </defs>
       <use xlink:href="#CMR17-32" transform="scale(0.996264)"/>
       <use xlink:href="#CMR17-30" transform="translate(45.690477 0) scale(0.996264)"/>
       <use xlink:href="#CMR17-31" transform="translate(91.380954 0) scale(0.996264)"/>
       <use xlink:href="#CMR17-36" transform="translate(137.071431 0) scale(0.996264)"/>
      </g>
     </g>
    </g>
    <g id="xtick_5">
     <g id="line2d_9">
      <g>
       <use xlink:href="#m2c0f74504a" x="481.340184" y="336.24" style="stroke: #000000; stroke-width: 0.5"/>
      </g>
     </g>
     <g id="line2d_10">
      <g>
       <use xlink:href="#me0549d7372" x="481.340184" y="3.6" style="stroke: #000000; stroke-width: 0.5"/>
      </g>
     </g>
     <g id="text_5">
      <!-- $\mathdefault{2020}$ -->
      <g transform="translate(464.891613 352.1933) scale(0.18 -0.18)">
       <use xlink:href="#CMR17-32" transform="scale(0.996264)"/>
       <use xlink:href="#CMR17-30" transform="translate(45.690477 0) scale(0.996264)"/>
       <use xlink:href="#CMR17-32" transform="translate(91.380954 0) scale(0.996264)"/>
       <use xlink:href="#CMR17-30" transform="translate(137.071431 0) scale(0.996264)"/>
      </g>
     </g>
    </g>
    <g id="xtick_6">
     <g id="line2d_11">
      <g>
       <use xlink:href="#m2c0f74504a" x="570.193494" y="336.24" style="stroke: #000000; stroke-width: 0.5"/>
      </g>
     </g>
     <g id="line2d_12">
      <g>
       <use xlink:href="#me0549d7372" x="570.193494" y="3.6" style="stroke: #000000; stroke-width: 0.5"/>
      </g>
     </g>
     <g id="text_6">
      <!-- $\mathdefault{2024}$ -->
      <g transform="translate(553.744922 352.1933) scale(0.18 -0.18)">
       <use xlink:href="#CMR17-32" transform="scale(0.996264)"/>
       <use xlink:href="#CMR17-30" transform="translate(45.690477 0) scale(0.996264)"/>
       <use xlink:href="#CMR17-32" transform="translate(91.380954 0) scale(0.996264)"/>
       <use xlink:href="#CMR17-34" transform="translate(137.071431 0) scale(0.996264)"/>
      </g>
     </g>
    </g>
    <g id="xtick_7">
     <g id="line2d_13">
      <defs>
       <path id="maf364e2a68" d="M 0 0 
L 0 -1.5 
" style="stroke: #000000; stroke-width: 0.5"/>
      </defs>
      <g>
       <use xlink:href="#maf364e2a68" x="59.286964" y="336.24" style="stroke: #000000; stroke-width: 0.5"/>
      </g>
     </g>
     <g id="line2d_14">
      <defs>
       <path id="m1560a3f629" d="M 0 0 
L 0 1.5 
" style="stroke: #000000; stroke-width: 0.5"/>
      </defs>
      <g>
       <use xlink:href="#m1560a3f629" x="59.286964" y="3.6" style="stroke: #000000; stroke-width: 0.5"/>
      </g>
     </g>
    </g>
    <g id="xtick_8">
     <g id="line2d_15">
      <g>
       <use xlink:href="#maf364e2a68" x="81.500292" y="336.24" style="stroke: #000000; stroke-width: 0.5"/>
      </g>
     </g>
     <g id="line2d_16">
      <g>
       <use xlink:href="#m1560a3f629" x="81.500292" y="3.6" style="stroke: #000000; stroke-width: 0.5"/>
      </g>
     </g>
    </g>
    <g id="xtick_9">
     <g id="line2d_17">
      <g>
       <use xlink:href="#maf364e2a68" x="103.713619" y="336.24" style="stroke: #000000; stroke-width: 0.5"/>
      </g>
     </g>
     <g id="line2d_18">
      <g>
       <use xlink:href="#m1560a3f629" x="103.713619" y="3.6" style="stroke: #000000; stroke-width: 0.5"/>
      </g>
     </g>
    </g>
    <g id="xtick_10">
     <g id="line2d_19">
      <g>
       <use xlink:href="#maf364e2a68" x="148.140274" y="336.24" style="stroke: #000000; stroke-width: 0.5"/>
      </g>
     </g>
     <g id="line2d_20">
      <g>
       <use xlink:href="#m1560a3f629" x="148.140274" y="3.6" style="stroke: #000000; stroke-width: 0.5"/>
      </g>
     </g>
    </g>
    <g id="xtick_11">
     <g id="line2d_21">
      <g>
       <use xlink:href="#maf364e2a68" x="170.353601" y="336.24" style="stroke: #000000; stroke-width: 0.5"/>
      </g>
     </g>
     <g id="line2d_22">
      <g>
       <use xlink:href="#m1560a3f629" x="170.353601" y="3.6" style="stroke: #000000; stroke-width: 0.5"/>
      </g>
     </g>
    </g>
    <g id="xtick_12">
     <g id="line2d_23">
      <g>
       <use xlink:href="#maf364e2a68" x="192.566929" y="336.24" style="stroke: #000000; stroke-width: 0.5"/>
      </g>
     </g>
     <g id="line2d_24">
      <g>
       <use xlink:href="#m1560a3f629" x="192.566929" y="3.6" style="stroke: #000000; stroke-width: 0.5"/>
      </g>
     </g>
    </g>
    <g id="xtick_13">
     <g id="line2d_25">
      <g>
       <use xlink:href="#maf364e2a68" x="236.993583" y="336.24" style="stroke: #000000; stroke-width: 0.5"/>
      </g>
     </g>
     <g id="line2d_26">
      <g>
       <use xlink:href="#m1560a3f629" x="236.993583" y="3.6" style="stroke: #000000; stroke-width: 0.5"/>
      </g>
     </g>
    </g>
    <g id="xtick_14">
     <g id="line2d_27">
      <g>
       <use xlink:href="#maf364e2a68" x="259.206911" y="336.24" style="stroke: #000000; stroke-width: 0.5"/>
      </g>
     </g>
     <g id="line2d_28">
      <g>
       <use xlink:href="#m1560a3f629" x="259.206911" y="3.6" style="stroke: #000000; stroke-width: 0.5"/>
      </g>
     </g>
    </g>
    <g id="xtick_15">
     <g id="line2d_29">
      <g>
       <use xlink:href="#maf364e2a68" x="281.420238" y="336.24" style="stroke: #000000; stroke-width: 0.5"/>
      </g>
     </g>
     <g id="line2d_30">
      <g>
       <use xlink:href="#m1560a3f629" x="281.420238" y="3.6" style="stroke: #000000; stroke-width: 0.5"/>
      </g>
     </g>
    </g>
    <g id="xtick_16">
     <g id="line2d_31">
      <g>
       <use xlink:href="#maf364e2a68" x="325.846893" y="336.24" style="stroke: #000000; stroke-width: 0.5"/>
      </g>
     </g>
     <g id="line2d_32">
      <g>
       <use xlink:href="#m1560a3f629" x="325.846893" y="3.6" style="stroke: #000000; stroke-width: 0.5"/>
      </g>
     </g>
    </g>
    <g id="xtick_17">
     <g id="line2d_33">
      <g>
       <use xlink:href="#maf364e2a68" x="348.06022" y="336.24" style="stroke: #000000; stroke-width: 0.5"/>
      </g>
     </g>
     <g id="line2d_34">
      <g>
       <use xlink:href="#m1560a3f629" x="348.06022" y="3.6" style="stroke: #000000; stroke-width: 0.5"/>
      </g>
     </g>
    </g>
    <g id="xtick_18">
     <g id="line2d_35">
      <g>
       <use xlink:href="#maf364e2a68" x="370.273548" y="336.24" style="stroke: #000000; stroke-width: 0.5"/>
      </g>
     </g>
     <g id="line2d_36">
      <g>
       <use xlink:href="#m1560a3f629" x="370.273548" y="3.6" style="stroke: #000000; stroke-width: 0.5"/>
      </g>
     </g>
    </g>
    <g id="xtick_19">
     <g id="line2d_37">
      <g>
       <use xlink:href="#maf364e2a68" x="414.700202" y="336.24" style="stroke: #000000; stroke-width: 0.5"/>
      </g>
     </g>
     <g id="line2d_38">
      <g>
       <use xlink:href="#m1560a3f629" x="414.700202" y="3.6" style="stroke: #000000; stroke-width: 0.5"/>
      </g>
     </g>
    </g>
    <g id="xtick_20">
     <g id="line2d_39">
      <g>
       <use xlink:href="#maf364e2a68" x="436.91353" y="336.24" style="stroke: #000000; stroke-width: 0.5"/>
      </g>
     </g>
     <g id="line2d_40">
      <g>
       <use xlink:href="#m1560a3f629" x="436.91353" y="3.6" style="stroke: #000000; stroke-width: 0.5"/>
      </g>
     </g>
    </g>
    <g id="xtick_21">
     <g id="line2d_41">
      <g>
       <use xlink:href="#maf364e2a68" x="459.126857" y="336.24" style="stroke: #000000; stroke-width: 0.5"/>
      </g>
     </g>
     <g id="line2d_42">
      <g>
       <use xlink:href="#m1560a3f629" x="459.126857" y="3.6" style="stroke: #000000; stroke-width: 0.5"/>
      </g>
     </g>
    </g>
    <g id="xtick_22">
     <g id="line2d_43">
      <g>
       <use xlink:href="#maf364e2a68" x="503.553512" y="336.24" style="stroke: #000000; stroke-width: 0.5"/>
      </g>
     </g>
     <g id="line2d_44">
      <g>
       <use xlink:href="#m1560a3f629" x="503.553512" y="3.6" style="stroke: #000000; stroke-width: 0.5"/>
      </g>
     </g>
    </g>
    <g id="xtick_23">
     <g id="line2d_45">
      <g>
       <use xlink:href="#maf364e2a68" x="525.766839" y="336.24" style="stroke: #000000; stroke-width: 0.5"/>
      </g>
     </g>
     <g id="line2d_46">
      <g>
       <use xlink:href="#m1560a3f629" x="525.766839" y="3.6" style="stroke: #000000; stroke-width: 0.5"/>
      </g>
     </g>
    </g>
    <g id="xtick_24">
     <g id="line2d_47">
      <g>
       <use xlink:href="#maf364e2a68" x="547.980167" y="336.24" style="stroke: #000000; stroke-width: 0.5"/>
      </g>
     </g>
     <g id="line2d_48">
      <g>
       <use xlink:href="#m1560a3f629" x="547.980167" y="3.6" style="stroke: #000000; stroke-width: 0.5"/>
      </g>
     </g>
    </g>
    <g id="xtick_25">
     <g id="line2d_49">
      <g>
       <use xlink:href="#maf364e2a68" x="592.406821" y="336.24" style="stroke: #000000; stroke-width: 0.5"/>
      </g>
     </g>
     <g id="line2d_50">
      <g>
       <use xlink:href="#m1560a3f629" x="592.406821" y="3.6" style="stroke: #000000; stroke-width: 0.5"/>
      </g>
     </g>
    </g>
   </g>
   <g id="matplotlib.axis_2">
    <g id="ytick_1">
     <g id="line2d_51">
      <defs>
       <path id="me90b2c218c" d="M 0 0 
L 3 0 
" style="stroke: #000000; stroke-width: 0.5"/>
      </defs>
      <g>
       <use xlink:href="#me90b2c218c" x="37.496314" y="298.526715" style="stroke: #000000; stroke-width: 0.5"/>
      </g>
     </g>
     <g id="line2d_52">
      <defs>
       <path id="mce844b862a" d="M 0 0 
L -3 0 
" style="stroke: #000000; stroke-width: 0.5"/>
      </defs>
      <g>
       <use xlink:href="#mce844b862a" x="595.496314" y="298.526715" style="stroke: #000000; stroke-width: 0.5"/>
      </g>
     </g>
     <g id="text_7">
      <!-- $\mathdefault{−20}$ -->
      <g transform="translate(3.6 304.753365) scale(0.18 -0.18)">
       <defs>
        <path id="CMSY10-0" d="M 4218 1472 
C 4326 1472 4442 1472 4442 1600 
C 4442 1728 4326 1728 4218 1728 
L 755 1728 
C 646 1728 531 1728 531 1600 
C 531 1472 646 1472 755 1472 
L 4218 1472 
z
" transform="scale(0.015625)"/>
       </defs>
       <use xlink:href="#CMSY10-0" transform="scale(0.996264)"/>
       <use xlink:href="#CMR17-32" transform="translate(77.487468 0) scale(0.996264)"/>
       <use xlink:href="#CMR17-30" transform="translate(123.177945 0) scale(0.996264)"/>
      </g>
     </g>
    </g>
    <g id="ytick_2">
     <g id="line2d_53">
      <g>
       <use xlink:href="#me90b2c218c" x="37.496314" y="258.246034" style="stroke: #000000; stroke-width: 0.5"/>
      </g>
     </g>
     <g id="line2d_54">
      <g>
       <use xlink:href="#mce844b862a" x="595.496314" y="258.246034" style="stroke: #000000; stroke-width: 0.5"/>
      </g>
     </g>
     <g id="text_8">
      <!-- $\mathdefault{−15}$ -->
      <g transform="translate(3.6 264.472684) scale(0.18 -0.18)">
       <defs>
        <path id="CMR17-35" d="M 730 3750 
C 794 3724 1056 3641 1325 3641 
C 1920 3641 2246 3961 2432 4140 
C 2432 4191 2432 4224 2394 4224 
C 2387 4224 2374 4224 2323 4198 
C 2099 4102 1837 4032 1517 4032 
C 1325 4032 1037 4055 723 4191 
C 653 4224 640 4224 634 4224 
C 602 4224 595 4217 595 4090 
L 595 2231 
C 595 2113 595 2080 659 2080 
C 691 2080 704 2093 736 2139 
C 941 2435 1222 2560 1542 2560 
C 1766 2560 2246 2415 2246 1293 
C 2246 1087 2246 716 2054 422 
C 1894 159 1645 25 1370 25 
C 947 25 518 319 403 812 
C 429 806 480 793 506 793 
C 589 793 749 838 749 1036 
C 749 1209 627 1280 506 1280 
C 358 1280 262 1190 262 1011 
C 262 454 704 -128 1382 -128 
C 2042 -128 2669 441 2669 1267 
C 2669 2054 2170 2662 1549 2662 
C 1222 2662 947 2540 730 2304 
L 730 3750 
z
" transform="scale(0.015625)"/>
       </defs>
       <use xlink:href="#CMSY10-0" transform="scale(0.996264)"/>
       <use xlink:href="#CMR17-31" transform="translate(77.487468 0) scale(0.996264)"/>
       <use xlink:href="#CMR17-35" transform="translate(123.177945 0) scale(0.996264)"/>
      </g>
     </g>
    </g>
    <g id="ytick_3">
     <g id="line2d_55">
      <g>
       <use xlink:href="#me90b2c218c" x="37.496314" y="217.965353" style="stroke: #000000; stroke-width: 0.5"/>
      </g>
     </g>
     <g id="line2d_56">
      <g>
       <use xlink:href="#mce844b862a" x="595.496314" y="217.965353" style="stroke: #000000; stroke-width: 0.5"/>
      </g>
     </g>
     <g id="text_9">
      <!-- $\mathdefault{−10}$ -->
      <g transform="translate(3.6 224.192003) scale(0.18 -0.18)">
       <use xlink:href="#CMSY10-0" transform="scale(0.996264)"/>
       <use xlink:href="#CMR17-31" transform="translate(77.487468 0) scale(0.996264)"/>
       <use xlink:href="#CMR17-30" transform="translate(123.177945 0) scale(0.996264)"/>
      </g>
     </g>
    </g>
    <g id="ytick_4">
     <g id="line2d_57">
      <g>
       <use xlink:href="#me90b2c218c" x="37.496314" y="177.684672" style="stroke: #000000; stroke-width: 0.5"/>
      </g>
     </g>
     <g id="line2d_58">
      <g>
       <use xlink:href="#mce844b862a" x="595.496314" y="177.684672" style="stroke: #000000; stroke-width: 0.5"/>
      </g>
     </g>
     <g id="text_10">
      <!-- $\mathdefault{−5}$ -->
      <g transform="translate(11.824286 183.911322) scale(0.18 -0.18)">
       <use xlink:href="#CMSY10-0" transform="scale(0.996264)"/>
       <use xlink:href="#CMR17-35" transform="translate(77.487468 0) scale(0.996264)"/>
      </g>
     </g>
    </g>
    <g id="ytick_5">
     <g id="line2d_59">
      <g>
       <use xlink:href="#me90b2c218c" x="37.496314" y="137.403991" style="stroke: #000000; stroke-width: 0.5"/>
      </g>
     </g>
     <g id="line2d_60">
      <g>
       <use xlink:href="#mce844b862a" x="595.496314" y="137.403991" style="stroke: #000000; stroke-width: 0.5"/>
      </g>
     </g>
     <g id="text_11">
      <!-- $\mathdefault{0}$ -->
      <g transform="translate(25.772028 143.630641) scale(0.18 -0.18)">
       <use xlink:href="#CMR17-30" transform="scale(0.996264)"/>
      </g>
     </g>
    </g>
    <g id="ytick_6">
     <g id="line2d_61">
      <g>
       <use xlink:href="#me90b2c218c" x="37.496314" y="97.12331" style="stroke: #000000; stroke-width: 0.5"/>
      </g>
     </g>
     <g id="line2d_62">
      <g>
       <use xlink:href="#mce844b862a" x="595.496314" y="97.12331" style="stroke: #000000; stroke-width: 0.5"/>
      </g>
     </g>
     <g id="text_12">
      <!-- $\mathdefault{5}$ -->
      <g transform="translate(25.772028 103.34996) scale(0.18 -0.18)">
       <use xlink:href="#CMR17-35" transform="scale(0.996264)"/>
      </g>
     </g>
    </g>
    <g id="ytick_7">
     <g id="line2d_63">
      <g>
       <use xlink:href="#me90b2c218c" x="37.496314" y="56.842629" style="stroke: #000000; stroke-width: 0.5"/>
      </g>
     </g>
     <g id="line2d_64">
      <g>
       <use xlink:href="#mce844b862a" x="595.496314" y="56.842629" style="stroke: #000000; stroke-width: 0.5"/>
      </g>
     </g>
     <g id="text_13">
      <!-- $\mathdefault{10}$ -->
      <g transform="translate(17.547742 63.069279) scale(0.18 -0.18)">
       <use xlink:href="#CMR17-31" transform="scale(0.996264)"/>
       <use xlink:href="#CMR17-30" transform="translate(45.690477 0) scale(0.996264)"/>
      </g>
     </g>
    </g>
    <g id="ytick_8">
     <g id="line2d_65">
      <g>
       <use xlink:href="#me90b2c218c" x="37.496314" y="16.561948" style="stroke: #000000; stroke-width: 0.5"/>
      </g>
     </g>
     <g id="line2d_66">
      <g>
       <use xlink:href="#mce844b862a" x="595.496314" y="16.561948" style="stroke: #000000; stroke-width: 0.5"/>
      </g>
     </g>
     <g id="text_14">
      <!-- $\mathdefault{15}$ -->
      <g transform="translate(17.547742 22.788598) scale(0.18 -0.18)">
       <use xlink:href="#CMR17-31" transform="scale(0.996264)"/>
       <use xlink:href="#CMR17-35" transform="translate(45.690477 0) scale(0.996264)"/>
      </g>
     </g>
    </g>
    <g id="ytick_9">
     <g id="line2d_67">
      <defs>
       <path id="me7b2cdd44e" d="M 0 0 
L 1.5 0 
" style="stroke: #000000; stroke-width: 0.5"/>
      </defs>
      <g>
       <use xlink:href="#me7b2cdd44e" x="37.496314" y="330.75126" style="stroke: #000000; stroke-width: 0.5"/>
      </g>
     </g>
     <g id="line2d_68">
      <defs>
       <path id="mabe9292cef" d="M 0 0 
L -1.5 0 
" style="stroke: #000000; stroke-width: 0.5"/>
      </defs>
      <g>
       <use xlink:href="#mabe9292cef" x="595.496314" y="330.75126" style="stroke: #000000; stroke-width: 0.5"/>
      </g>
     </g>
    </g>
    <g id="ytick_10">
     <g id="line2d_69">
      <g>
       <use xlink:href="#me7b2cdd44e" x="37.496314" y="322.695123" style="stroke: #000000; stroke-width: 0.5"/>
      </g>
     </g>
     <g id="line2d_70">
      <g>
       <use xlink:href="#mabe9292cef" x="595.496314" y="322.695123" style="stroke: #000000; stroke-width: 0.5"/>
      </g>
     </g>
    </g>
    <g id="ytick_11">
     <g id="line2d_71">
      <g>
       <use xlink:href="#me7b2cdd44e" x="37.496314" y="314.638987" style="stroke: #000000; stroke-width: 0.5"/>
      </g>
     </g>
     <g id="line2d_72">
      <g>
       <use xlink:href="#mabe9292cef" x="595.496314" y="314.638987" style="stroke: #000000; stroke-width: 0.5"/>
      </g>
     </g>
    </g>
    <g id="ytick_12">
     <g id="line2d_73">
      <g>
       <use xlink:href="#me7b2cdd44e" x="37.496314" y="306.582851" style="stroke: #000000; stroke-width: 0.5"/>
      </g>
     </g>
     <g id="line2d_74">
      <g>
       <use xlink:href="#mabe9292cef" x="595.496314" y="306.582851" style="stroke: #000000; stroke-width: 0.5"/>
      </g>
     </g>
    </g>
    <g id="ytick_13">
     <g id="line2d_75">
      <g>
       <use xlink:href="#me7b2cdd44e" x="37.496314" y="290.470579" style="stroke: #000000; stroke-width: 0.5"/>
      </g>
     </g>
     <g id="line2d_76">
      <g>
       <use xlink:href="#mabe9292cef" x="595.496314" y="290.470579" style="stroke: #000000; stroke-width: 0.5"/>
      </g>
     </g>
    </g>
    <g id="ytick_14">
     <g id="line2d_77">
      <g>
       <use xlink:href="#me7b2cdd44e" x="37.496314" y="282.414442" style="stroke: #000000; stroke-width: 0.5"/>
      </g>
     </g>
     <g id="line2d_78">
      <g>
       <use xlink:href="#mabe9292cef" x="595.496314" y="282.414442" style="stroke: #000000; stroke-width: 0.5"/>
      </g>
     </g>
    </g>
    <g id="ytick_15">
     <g id="line2d_79">
      <g>
       <use xlink:href="#me7b2cdd44e" x="37.496314" y="274.358306" style="stroke: #000000; stroke-width: 0.5"/>
      </g>
     </g>
     <g id="line2d_80">
      <g>
       <use xlink:href="#mabe9292cef" x="595.496314" y="274.358306" style="stroke: #000000; stroke-width: 0.5"/>
      </g>
     </g>
    </g>
    <g id="ytick_16">
     <g id="line2d_81">
      <g>
       <use xlink:href="#me7b2cdd44e" x="37.496314" y="266.30217" style="stroke: #000000; stroke-width: 0.5"/>
      </g>
     </g>
     <g id="line2d_82">
      <g>
       <use xlink:href="#mabe9292cef" x="595.496314" y="266.30217" style="stroke: #000000; stroke-width: 0.5"/>
      </g>
     </g>
    </g>
    <g id="ytick_17">
     <g id="line2d_83">
      <g>
       <use xlink:href="#me7b2cdd44e" x="37.496314" y="250.189898" style="stroke: #000000; stroke-width: 0.5"/>
      </g>
     </g>
     <g id="line2d_84">
      <g>
       <use xlink:href="#mabe9292cef" x="595.496314" y="250.189898" style="stroke: #000000; stroke-width: 0.5"/>
      </g>
     </g>
    </g>
    <g id="ytick_18">
     <g id="line2d_85">
      <g>
       <use xlink:href="#me7b2cdd44e" x="37.496314" y="242.133761" style="stroke: #000000; stroke-width: 0.5"/>
      </g>
     </g>
     <g id="line2d_86">
      <g>
       <use xlink:href="#mabe9292cef" x="595.496314" y="242.133761" style="stroke: #000000; stroke-width: 0.5"/>
      </g>
     </g>
    </g>
    <g id="ytick_19">
     <g id="line2d_87">
      <g>
       <use xlink:href="#me7b2cdd44e" x="37.496314" y="234.077625" style="stroke: #000000; stroke-width: 0.5"/>
      </g>
     </g>
     <g id="line2d_88">
      <g>
       <use xlink:href="#mabe9292cef" x="595.496314" y="234.077625" style="stroke: #000000; stroke-width: 0.5"/>
      </g>
     </g>
    </g>
    <g id="ytick_20">
     <g id="line2d_89">
      <g>
       <use xlink:href="#me7b2cdd44e" x="37.496314" y="226.021489" style="stroke: #000000; stroke-width: 0.5"/>
      </g>
     </g>
     <g id="line2d_90">
      <g>
       <use xlink:href="#mabe9292cef" x="595.496314" y="226.021489" style="stroke: #000000; stroke-width: 0.5"/>
      </g>
     </g>
    </g>
    <g id="ytick_21">
     <g id="line2d_91">
      <g>
       <use xlink:href="#me7b2cdd44e" x="37.496314" y="209.909217" style="stroke: #000000; stroke-width: 0.5"/>
      </g>
     </g>
     <g id="line2d_92">
      <g>
       <use xlink:href="#mabe9292cef" x="595.496314" y="209.909217" style="stroke: #000000; stroke-width: 0.5"/>
      </g>
     </g>
    </g>
    <g id="ytick_22">
     <g id="line2d_93">
      <g>
       <use xlink:href="#me7b2cdd44e" x="37.496314" y="201.85308" style="stroke: #000000; stroke-width: 0.5"/>
      </g>
     </g>
     <g id="line2d_94">
      <g>
       <use xlink:href="#mabe9292cef" x="595.496314" y="201.85308" style="stroke: #000000; stroke-width: 0.5"/>
      </g>
     </g>
    </g>
    <g id="ytick_23">
     <g id="line2d_95">
      <g>
       <use xlink:href="#me7b2cdd44e" x="37.496314" y="193.796944" style="stroke: #000000; stroke-width: 0.5"/>
      </g>
     </g>
     <g id="line2d_96">
      <g>
       <use xlink:href="#mabe9292cef" x="595.496314" y="193.796944" style="stroke: #000000; stroke-width: 0.5"/>
      </g>
     </g>
    </g>
    <g id="ytick_24">
     <g id="line2d_97">
      <g>
       <use xlink:href="#me7b2cdd44e" x="37.496314" y="185.740808" style="stroke: #000000; stroke-width: 0.5"/>
      </g>
     </g>
     <g id="line2d_98">
      <g>
       <use xlink:href="#mabe9292cef" x="595.496314" y="185.740808" style="stroke: #000000; stroke-width: 0.5"/>
      </g>
     </g>
    </g>
    <g id="ytick_25">
     <g id="line2d_99">
      <g>
       <use xlink:href="#me7b2cdd44e" x="37.496314" y="169.628536" style="stroke: #000000; stroke-width: 0.5"/>
      </g>
     </g>
     <g id="line2d_100">
      <g>
       <use xlink:href="#mabe9292cef" x="595.496314" y="169.628536" style="stroke: #000000; stroke-width: 0.5"/>
      </g>
     </g>
    </g>
    <g id="ytick_26">
     <g id="line2d_101">
      <g>
       <use xlink:href="#me7b2cdd44e" x="37.496314" y="161.572399" style="stroke: #000000; stroke-width: 0.5"/>
      </g>
     </g>
     <g id="line2d_102">
      <g>
       <use xlink:href="#mabe9292cef" x="595.496314" y="161.572399" style="stroke: #000000; stroke-width: 0.5"/>
      </g>
     </g>
    </g>
    <g id="ytick_27">
     <g id="line2d_103">
      <g>
       <use xlink:href="#me7b2cdd44e" x="37.496314" y="153.516263" style="stroke: #000000; stroke-width: 0.5"/>
      </g>
     </g>
     <g id="line2d_104">
      <g>
       <use xlink:href="#mabe9292cef" x="595.496314" y="153.516263" style="stroke: #000000; stroke-width: 0.5"/>
      </g>
     </g>
    </g>
    <g id="ytick_28">
     <g id="line2d_105">
      <g>
       <use xlink:href="#me7b2cdd44e" x="37.496314" y="145.460127" style="stroke: #000000; stroke-width: 0.5"/>
      </g>
     </g>
     <g id="line2d_106">
      <g>
       <use xlink:href="#mabe9292cef" x="595.496314" y="145.460127" style="stroke: #000000; stroke-width: 0.5"/>
      </g>
     </g>
    </g>
    <g id="ytick_29">
     <g id="line2d_107">
      <g>
       <use xlink:href="#me7b2cdd44e" x="37.496314" y="129.347855" style="stroke: #000000; stroke-width: 0.5"/>
      </g>
     </g>
     <g id="line2d_108">
      <g>
       <use xlink:href="#mabe9292cef" x="595.496314" y="129.347855" style="stroke: #000000; stroke-width: 0.5"/>
      </g>
     </g>
    </g>
    <g id="ytick_30">
     <g id="line2d_109">
      <g>
       <use xlink:href="#me7b2cdd44e" x="37.496314" y="121.291718" style="stroke: #000000; stroke-width: 0.5"/>
      </g>
     </g>
     <g id="line2d_110">
      <g>
       <use xlink:href="#mabe9292cef" x="595.496314" y="121.291718" style="stroke: #000000; stroke-width: 0.5"/>
      </g>
     </g>
    </g>
    <g id="ytick_31">
     <g id="line2d_111">
      <g>
       <use xlink:href="#me7b2cdd44e" x="37.496314" y="113.235582" style="stroke: #000000; stroke-width: 0.5"/>
      </g>
     </g>
     <g id="line2d_112">
      <g>
       <use xlink:href="#mabe9292cef" x="595.496314" y="113.235582" style="stroke: #000000; stroke-width: 0.5"/>
      </g>
     </g>
    </g>
    <g id="ytick_32">
     <g id="line2d_113">
      <g>
       <use xlink:href="#me7b2cdd44e" x="37.496314" y="105.179446" style="stroke: #000000; stroke-width: 0.5"/>
      </g>
     </g>
     <g id="line2d_114">
      <g>
       <use xlink:href="#mabe9292cef" x="595.496314" y="105.179446" style="stroke: #000000; stroke-width: 0.5"/>
      </g>
     </g>
    </g>
    <g id="ytick_33">
     <g id="line2d_115">
      <g>
       <use xlink:href="#me7b2cdd44e" x="37.496314" y="89.067174" style="stroke: #000000; stroke-width: 0.5"/>
      </g>
     </g>
     <g id="line2d_116">
      <g>
       <use xlink:href="#mabe9292cef" x="595.496314" y="89.067174" style="stroke: #000000; stroke-width: 0.5"/>
      </g>
     </g>
    </g>
    <g id="ytick_34">
     <g id="line2d_117">
      <g>
       <use xlink:href="#me7b2cdd44e" x="37.496314" y="81.011037" style="stroke: #000000; stroke-width: 0.5"/>
      </g>
     </g>
     <g id="line2d_118">
      <g>
       <use xlink:href="#mabe9292cef" x="595.496314" y="81.011037" style="stroke: #000000; stroke-width: 0.5"/>
      </g>
     </g>
    </g>
    <g id="ytick_35">
     <g id="line2d_119">
      <g>
       <use xlink:href="#me7b2cdd44e" x="37.496314" y="72.954901" style="stroke: #000000; stroke-width: 0.5"/>
      </g>
     </g>
     <g id="line2d_120">
      <g>
       <use xlink:href="#mabe9292cef" x="595.496314" y="72.954901" style="stroke: #000000; stroke-width: 0.5"/>
      </g>
     </g>
    </g>
    <g id="ytick_36">
     <g id="line2d_121">
      <g>
       <use xlink:href="#me7b2cdd44e" x="37.496314" y="64.898765" style="stroke: #000000; stroke-width: 0.5"/>
      </g>
     </g>
     <g id="line2d_122">
      <g>
       <use xlink:href="#mabe9292cef" x="595.496314" y="64.898765" style="stroke: #000000; stroke-width: 0.5"/>
      </g>
     </g>
    </g>
    <g id="ytick_37">
     <g id="line2d_123">
      <g>
       <use xlink:href="#me7b2cdd44e" x="37.496314" y="48.786493" style="stroke: #000000; stroke-width: 0.5"/>
      </g>
     </g>
     <g id="line2d_124">
      <g>
       <use xlink:href="#mabe9292cef" x="595.496314" y="48.786493" style="stroke: #000000; stroke-width: 0.5"/>
      </g>
     </g>
    </g>
    <g id="ytick_38">
     <g id="line2d_125">
      <g>
       <use xlink:href="#me7b2cdd44e" x="37.496314" y="40.730356" style="stroke: #000000; stroke-width: 0.5"/>
      </g>
     </g>
     <g id="line2d_126">
      <g>
       <use xlink:href="#mabe9292cef" x="595.496314" y="40.730356" style="stroke: #000000; stroke-width: 0.5"/>
      </g>
     </g>
    </g>
    <g id="ytick_39">
     <g id="line2d_127">
      <g>
       <use xlink:href="#me7b2cdd44e" x="37.496314" y="32.67422" style="stroke: #000000; stroke-width: 0.5"/>
      </g>
     </g>
     <g id="line2d_128">
      <g>
       <use xlink:href="#mabe9292cef" x="595.496314" y="32.67422" style="stroke: #000000; stroke-width: 0.5"/>
      </g>
     </g>
    </g>
    <g id="ytick_40">
     <g id="line2d_129">
      <g>
       <use xlink:href="#me7b2cdd44e" x="37.496314" y="24.618084" style="stroke: #000000; stroke-width: 0.5"/>
      </g>
     </g>
     <g id="line2d_130">
      <g>
       <use xlink:href="#mabe9292cef" x="595.496314" y="24.618084" style="stroke: #000000; stroke-width: 0.5"/>
      </g>
     </g>
    </g>
    <g id="ytick_41">
     <g id="line2d_131">
      <g>
       <use xlink:href="#me7b2cdd44e" x="37.496314" y="8.505812" style="stroke: #000000; stroke-width: 0.5"/>
      </g>
     </g>
     <g id="line2d_132">
      <g>
       <use xlink:href="#mabe9292cef" x="595.496314" y="8.505812" style="stroke: #000000; stroke-width: 0.5"/>
      </g>
     </g>
    </g>
   </g>
   <g id="line2d_133">
    <path d="M 62.85995 155.631404 
L 64.74527 214.998899 
L 66.569773 134.697913 
L 68.455093 84.644877 
L 70.279597 157.73581 
L 72.164917 159.999426 
L 74.050237 154.950729 
L 75.87474 234.536918 
L 77.76006 113.133825 
L 79.584563 98.62516 
L 81.469883 126.601443 
L 83.355203 140.732016 
L 85.058073 165.836811 
L 86.943393 99.432931 
L 88.767896 167.175387 
L 90.653216 161.436161 
L 92.47772 187.628946 
L 94.36304 230.293006 
L 96.24836 129.454872 
L 98.072863 177.902253 
L 99.958183 149.733239 
L 101.782686 86.892785 
L 103.668006 146.978255 
L 105.553327 140.40201 
L 107.256196 192.106697 
L 109.141516 128.216893 
L 110.96602 97.130233 
L 112.85134 96.867471 
L 114.675843 93.812272 
L 116.561163 133.710561 
L 118.446483 139.850826 
L 120.270986 113.413902 
L 122.156306 122.302477 
L 123.98081 128.78706 
L 127.75145 99.627334 
L 129.515136 129.729669 
L 131.400456 151.176228 
L 133.22496 130.708766 
L 135.11028 159.439463 
L 136.934783 115.795123 
L 138.820103 156.773248 
L 140.705423 149.818113 
L 142.529926 116.43188 
L 144.415246 137.728418 
L 146.23975 100.939623 
L 148.12507 116.807954 
L 150.01039 149.451432 
L 151.713259 125.074449 
L 153.598579 140.586709 
L 155.423083 158.213637 
L 157.308403 127.878374 
L 159.132906 121.179695 
L 161.018226 124.119068 
L 162.903546 136.067069 
L 164.728049 136.318963 
L 166.613369 160.035749 
L 168.437873 107.282784 
L 170.323193 121.480981 
L 172.208513 126.839039 
L 173.911383 138.71548 
L 175.796703 126.691111 
L 177.621206 132.171647 
L 179.506526 144.962365 
L 181.331029 160.745541 
L 183.216349 132.871739 
L 185.101669 120.38275 
L 186.926173 118.481999 
L 188.811493 109.973844 
L 190.635996 122.614584 
L 192.521316 121.446629 
L 194.406636 133.013715 
L 196.109506 125.812228 
L 197.994826 158.790344 
L 199.819329 105.580446 
L 201.704649 111.674424 
L 203.529152 135.779624 
L 205.414472 133.94252 
L 207.299792 173.199525 
L 209.124296 114.203475 
L 211.009616 114.832026 
L 212.834119 178.333957 
L 214.719439 128.736185 
L 216.604759 194.063101 
L 218.368446 151.48534 
L 220.253766 160.279104 
L 222.078269 105.306022 
L 223.963589 118.378741 
L 225.788092 173.791609 
L 227.673412 189.455968 
L 229.558732 122.083289 
L 231.383236 179.022093 
L 233.268556 321.12 
L 235.093059 212.074458 
L 236.978379 142.419073 
L 238.863699 148.477574 
L 240.566569 195.627179 
L 242.451889 187.024136 
L 244.276392 45.948688 
L 246.161712 87.446718 
L 247.986216 116.510519 
L 249.871536 129.010033 
L 251.756856 76.165193 
L 253.581359 110.091109 
L 255.466679 119.774613 
L 257.291182 122.148773 
L 259.176502 121.052601 
L 261.061822 127.883477 
L 262.764692 162.469256 
L 264.650012 92.179898 
L 266.474515 106.353417 
L 268.359835 187.552922 
L 270.184339 167.831248 
L 272.069659 140.055655 
L 273.954979 131.842577 
L 275.779482 112.023181 
L 277.664802 102.626328 
L 279.489305 118.840346 
L 281.374625 109.249115 
L 283.259946 111.172912 
L 284.962815 113.577967 
L 286.848135 147.609264 
L 288.672639 120.887722 
L 290.557959 133.300205 
L 292.382462 168.716896 
L 294.267782 114.027813 
L 296.153102 227.2714 
L 297.977605 145.21026 
L 299.862925 114.842222 
L 301.687429 124.692084 
L 303.572749 126.378472 
L 305.458069 101.131159 
L 307.221755 105.874675 
L 309.107075 115.805895 
L 312.816899 164.082024 
L 314.641402 148.160782 
L 316.526722 115.605463 
L 318.412042 111.938086 
L 320.236545 114.780905 
L 322.121865 140.535588 
L 323.946369 162.043666 
L 325.831689 121.513142 
L 327.717009 105.14394 
L 329.419878 120.223506 
L 331.305198 117.141206 
L 333.129702 127.147636 
L 335.015022 102.700334 
L 336.839525 147.822246 
L 338.724845 112.940491 
L 340.610165 136.723551 
L 344.319988 121.864378 
L 346.144492 108.193713 
L 348.029812 126.528674 
L 349.915132 130.932665 
L 351.618002 139.759251 
L 353.503322 117.055505 
L 355.327825 137.084147 
L 357.213145 126.454947 
L 359.037648 113.331594 
L 360.922968 126.713531 
L 362.808288 142.141908 
L 364.632792 124.488669 
L 366.518112 160.345186 
L 368.342615 93.975187 
L 370.227935 133.590977 
L 372.113255 147.701114 
L 373.816125 116.22748 
L 375.701445 138.259505 
L 377.525948 131.66509 
L 379.411268 130.862222 
L 381.235771 142.243927 
L 383.121091 139.382759 
L 386.830915 176.01503 
L 388.716235 104.762718 
L 390.540738 115.49931 
L 392.426058 147.746351 
L 394.311378 192.372866 
L 397.960385 89.159906 
L 399.784888 116.329969 
L 401.670208 141.290936 
L 403.494711 130.282524 
L 405.380031 112.655747 
L 407.265351 129.179661 
L 409.089855 142.339707 
L 410.975175 142.900012 
L 412.799678 129.186979 
L 414.684998 107.583741 
L 416.570318 127.252065 
L 418.273188 118.232931 
L 420.158508 124.741644 
L 421.983011 139.964294 
L 423.868331 125.190764 
L 425.692835 124.512136 
L 429.463475 136.708353 
L 431.287978 125.481683 
L 433.173298 116.931678 
L 434.997801 125.951362 
L 436.883121 115.728437 
L 438.768441 100.334859 
L 440.471311 162.224019 
L 442.356631 138.116062 
L 444.181134 152.18592 
L 446.066454 123.003681 
L 447.890958 121.792804 
L 449.776278 125.99334 
L 451.661598 119.105532 
L 453.486101 125.183841 
L 455.371421 170.284961 
L 457.195924 155.606311 
L 459.081244 184.902984 
L 460.966565 124.92418 
L 462.669434 93.081624 
L 464.554754 123.166211 
L 466.379258 109.223314 
L 468.264578 151.139673 
L 470.089081 127.458641 
L 471.974401 108.40136 
L 473.859721 164.36653 
L 475.684224 114.203237 
L 477.569544 138.614067 
L 479.394048 103.698338 
L 481.279368 118.975133 
L 483.164688 112.078035 
L 484.928374 137.622404 
L 486.813694 307.841024 
L 488.638198 104.789853 
L 490.523518 92.687868 
L 492.348021 87.896824 
L 494.233341 111.121294 
L 496.118661 92.446503 
L 497.943164 143.649693 
L 501.652988 107.271625 
L 503.538308 104.856647 
L 505.423628 116.224319 
L 507.126497 118.581017 
L 509.011817 131.806563 
L 510.836321 91.232263 
L 512.721641 132.231674 
L 514.546144 123.864227 
L 516.431464 113.947502 
L 518.316784 120.868262 
L 520.141287 138.972362 
L 522.026607 134.660708 
L 523.851111 100.916131 
L 525.736431 136.130129 
L 527.621751 154.992783 
L 529.324621 162.055025 
L 531.209941 145.565896 
L 533.034444 137.398343 
L 534.919764 204.504035 
L 536.744267 166.105882 
L 538.629587 134.767079 
L 540.514907 88.108502 
L 542.339411 199.405034 
L 544.224731 163.875956 
L 546.049234 97.041273 
L 547.934554 138.455035 
L 549.819874 127.524214 
L 551.522744 113.549835 
L 553.408064 159.652321 
L 555.232567 106.946827 
L 557.117887 132.58922 
L 558.94239 99.59994 
L 560.82771 107.79062 
L 562.71303 146.518682 
L 564.537534 146.174639 
L 566.422854 163.341477 
L 568.247357 102.207174 
L 570.132677 97.756569 
L 570.132677 97.756569 
" clip-path="url(#p09c9252751)" style="fill: none; stroke-dasharray: 3.7,1.6; stroke-dashoffset: 0; stroke: #000000"/>
   </g>
   <g id="line2d_134">
    <path d="M 62.85995 134.057478 
L 64.74527 138.185971 
L 66.569773 146.742407 
L 68.455093 141.962873 
L 70.279597 122.19508 
L 72.164917 138.398056 
L 74.050237 141.735929 
L 75.87474 134.869021 
L 77.76006 172.721474 
L 79.584563 128.877121 
L 81.469883 131.206985 
L 83.355203 141.400211 
L 85.058073 137.029755 
L 86.943393 139.523271 
L 88.767896 134.266666 
L 90.653216 140.113355 
L 92.47772 139.699437 
L 94.36304 139.942889 
L 96.24836 148.365507 
L 98.072863 128.144475 
L 99.958183 135.829337 
L 101.782686 142.150036 
L 103.668006 127.591988 
L 105.553327 139.731211 
L 107.256196 136.36936 
L 109.141516 141.512822 
L 110.96602 131.953323 
L 112.85134 128.844339 
L 114.675843 120.858092 
L 116.561163 121.36916 
L 118.446483 145.059839 
L 120.270986 141.64994 
L 122.156306 125.731589 
L 123.98081 131.83145 
L 125.86613 129.993164 
L 127.75145 126.03125 
L 129.515136 123.98835 
L 131.400456 133.742855 
L 133.22496 133.424428 
L 135.11028 138.134021 
L 136.934783 140.934924 
L 138.820103 125.85081 
L 140.705423 135.164781 
L 142.529926 132.942888 
L 144.415246 125.797771 
L 146.23975 135.459654 
L 148.12507 126.04969 
L 150.01039 131.443549 
L 151.713259 137.875243 
L 153.598579 130.07371 
L 155.423083 140.80912 
L 157.308403 136.108959 
L 159.132906 128.610934 
L 161.018226 127.288168 
L 162.903546 135.47912 
L 164.728049 135.334564 
L 166.613369 133.404719 
L 168.437873 141.505536 
L 170.323193 126.196946 
L 172.208513 129.727647 
L 173.911383 131.47113 
L 175.796703 137.556984 
L 177.621206 133.769389 
L 179.506526 138.512569 
L 181.331029 137.021796 
L 183.216349 138.943819 
L 186.926173 126.675784 
L 188.811493 126.95835 
L 192.521316 128.568432 
L 194.406636 129.291734 
L 196.109506 138.070518 
L 197.994826 130.504485 
L 199.819329 136.34497 
L 201.704649 126.771353 
L 203.529152 129.554856 
L 205.414472 141.41959 
L 207.299792 132.269988 
L 209.124296 136.702214 
L 211.009616 125.643737 
L 212.834119 129.714575 
L 214.719439 139.788238 
L 216.604759 132.83139 
L 218.368446 141.155016 
L 220.253766 136.644048 
L 222.078269 135.310711 
L 223.963589 133.714265 
L 225.788092 136.002286 
L 227.673412 146.982104 
L 229.558732 146.068153 
L 231.383236 130.115354 
L 233.268556 138.235435 
L 235.093059 184.158222 
L 236.978379 151.313952 
L 238.863699 134.431289 
L 240.566569 171.164161 
L 242.451889 178.306188 
L 244.276392 155.849756 
L 246.161712 124.347873 
L 247.986216 155.638415 
L 249.871536 132.266435 
L 251.756856 136.356582 
L 253.581359 125.956636 
L 255.466679 126.322365 
L 257.291182 120.395235 
L 259.176502 102.456742 
L 261.061822 106.203406 
L 262.764692 127.17255 
L 264.650012 136.088805 
L 266.474515 121.862216 
L 270.184339 136.986114 
L 272.069659 134.679997 
L 273.954979 131.502465 
L 275.779482 127.175579 
L 277.664802 128.656657 
L 279.489305 123.753002 
L 281.374625 136.645998 
L 283.259946 138.333899 
L 284.962815 126.32198 
L 286.848135 133.071327 
L 288.672639 133.743738 
L 290.557959 129.89022 
L 292.382462 128.905392 
L 294.267782 136.994103 
L 296.153102 126.661382 
L 297.977605 145.635908 
L 299.862925 127.552013 
L 301.687429 134.646175 
L 303.572749 127.680893 
L 305.458069 131.092738 
L 307.221755 123.802173 
L 309.107075 127.301024 
L 310.931579 137.395905 
L 312.816899 131.520588 
L 314.641402 130.750648 
L 316.526722 129.718149 
L 318.412042 125.125496 
L 320.236545 134.754933 
L 322.121865 128.28578 
L 323.946369 138.282695 
L 325.831689 136.05654 
L 327.717009 130.848403 
L 329.419878 134.126877 
L 331.305198 130.185556 
L 335.015022 126.27558 
L 336.839525 131.562252 
L 338.724845 145.01921 
L 340.610165 127.879348 
L 342.434668 135.391512 
L 344.319988 133.597035 
L 346.144492 126.329152 
L 348.029812 130.627066 
L 349.915132 136.615623 
L 351.618002 132.768576 
L 353.503322 131.481051 
L 355.327825 128.626906 
L 357.213145 135.456881 
L 359.037648 128.060444 
L 360.922968 129.481108 
L 362.808288 130.610601 
L 364.632792 132.272224 
L 366.518112 132.938351 
L 368.342615 133.74696 
L 370.227935 125.06015 
L 372.113255 131.414374 
L 373.816125 127.504789 
L 377.525948 137.594758 
L 379.411268 130.890022 
L 381.235771 140.367331 
L 383.121091 135.574117 
L 385.006411 133.476821 
L 386.830915 134.006007 
L 388.716235 141.33354 
L 390.540738 123.613771 
L 392.426058 135.882076 
L 394.311378 136.005602 
L 396.075065 140.936018 
L 397.960385 126.390164 
L 399.784888 129.022077 
L 401.670208 127.871961 
L 403.494711 136.538606 
L 405.380031 127.856261 
L 407.265351 122.841178 
L 409.089855 137.313849 
L 410.975175 138.714414 
L 412.799678 138.682984 
L 414.684998 139.711355 
L 416.570318 130.709204 
L 418.273188 130.182825 
L 420.158508 129.263628 
L 421.983011 133.516608 
L 423.868331 131.411165 
L 425.692835 131.201749 
L 427.578155 128.168313 
L 429.463475 137.402624 
L 431.287978 132.448006 
L 433.173298 130.846382 
L 434.997801 134.016004 
L 436.883121 131.530371 
L 438.768441 129.905226 
L 440.471311 130.832627 
L 442.356631 143.776903 
L 444.181134 131.565535 
L 446.066454 137.451243 
L 447.890958 130.36879 
L 449.776278 129.117976 
L 451.661598 131.580319 
L 453.486101 129.38272 
L 455.371421 134.18902 
L 457.195924 142.863097 
L 459.081244 136.705318 
L 460.966565 137.526515 
L 462.669434 127.981303 
L 464.554754 122.503769 
L 466.379258 129.109367 
L 468.264578 126.101268 
L 470.089081 134.825808 
L 471.974401 123.163157 
L 473.859721 116.905212 
L 475.684224 139.423698 
L 477.569544 128.591676 
L 479.394048 136.824871 
L 481.279368 128.407583 
L 483.164688 131.240627 
L 484.928374 127.979913 
L 486.813694 132.46459 
L 488.638198 148.094226 
L 490.523518 95.215265 
L 492.348021 128.326964 
L 494.233341 131.238826 
L 496.118661 124.217546 
L 497.943164 127.890466 
L 499.828484 141.21766 
L 501.652988 137.049347 
L 503.538308 128.989822 
L 505.423628 129.237498 
L 507.126497 134.844377 
L 509.011817 129.457269 
L 510.836321 136.399332 
L 512.721641 122.195809 
L 514.546144 132.191925 
L 518.316784 123.533483 
L 520.141287 129.305849 
L 522.026607 137.530737 
L 523.851111 134.682852 
L 525.736431 123.989416 
L 527.621751 132.57806 
L 529.324621 139.00448 
L 531.209941 137.273097 
L 533.034444 136.322404 
L 534.919764 139.122976 
L 536.744267 143.237606 
L 538.629587 138.173521 
L 540.514907 131.326924 
L 542.339411 123.268721 
L 544.224731 151.885579 
L 546.049234 139.197488 
L 547.934554 122.940941 
L 549.819874 134.226507 
L 551.522744 130.157887 
L 553.408064 132.38821 
L 555.232567 137.668596 
L 557.117887 123.812344 
L 558.94239 138.009378 
L 560.82771 127.581027 
L 562.71303 130.307921 
L 564.537534 141.181094 
L 566.422854 137.700746 
L 568.247357 140.861694 
L 570.132677 122.850436 
L 570.132677 122.850436 
" clip-path="url(#p09c9252751)" style="fill: none; stroke: #00ff00; stroke-linecap: square"/>
   </g>
   <g id="patch_3">
    <path d="M 37.496314 336.24 
L 37.496314 3.6 
" style="fill: none; stroke: #000000; stroke-width: 0.5; stroke-linejoin: miter; stroke-linecap: square"/>
   </g>
   <g id="patch_4">
    <path d="M 595.496314 336.24 
L 595.496314 3.6 
" style="fill: none; stroke: #000000; stroke-width: 0.5; stroke-linejoin: miter; stroke-linecap: square"/>
   </g>
   <g id="patch_5">
    <path d="M 37.496314 336.24 
L 595.496314 336.24 
" style="fill: none; stroke: #000000; stroke-width: 0.5; stroke-linejoin: miter; stroke-linecap: square"/>
   </g>
   <g id="patch_6">
    <path d="M 37.496314 3.6 
L 595.496314 3.6 
" style="fill: none; stroke: #000000; stroke-width: 0.5; stroke-linejoin: miter; stroke-linecap: square"/>
   </g>
   <g id="legend_1">
    <g id="line2d_135">
     <path d="M 48.296314 284.23564 
L 60.296314 284.23564 
L 72.296314 284.23564 
" style="fill: none; stroke-dasharray: 3.7,1.6; stroke-dashoffset: 0; stroke: #000000"/>
    </g>
    <g id="text_15">
     <!-- rendimenti SP 500 -->
     <g transform="translate(81.896314 288.43564) scale(0.12 -0.12)">
      <defs>
       <path id="CMR17-72" d="M 960 1517 
C 960 2134 1222 2713 1702 2713 
C 1747 2713 1792 2707 1837 2687 
C 1837 2687 1696 2642 1696 2475 
C 1696 2321 1818 2257 1914 2257 
C 1990 2257 2131 2302 2131 2482 
C 2131 2687 1926 2816 1709 2816 
C 1222 2816 1011 2340 947 2115 
L 941 2115 
L 941 2816 
L 198 2745 
L 198 2578 
C 576 2578 634 2540 634 2231 
L 634 443 
C 634 198 608 166 198 166 
L 198 0 
C 352 12 646 12 813 12 
C 998 12 1325 12 1498 0 
L 1498 166 
C 1037 166 960 166 960 455 
L 960 1517 
z
" transform="scale(0.015625)"/>
       <path id="CMR17-65" d="M 2438 1503 
C 2464 1529 2464 1542 2464 1606 
C 2464 2251 2118 2816 1389 2816 
C 710 2816 173 2175 173 1394 
C 173 554 781 -64 1459 -64 
C 2176 -64 2458 619 2458 755 
C 2458 800 2419 800 2406 800 
C 2362 800 2355 787 2330 709 
C 2189 270 1837 51 1504 51 
C 1229 51 954 206 781 490 
C 582 819 582 1200 582 1503 
L 2438 1503 
z
M 589 1600 
C 634 2511 1126 2713 1382 2713 
C 1818 2713 2112 2308 2118 1600 
L 589 1600 
z
" transform="scale(0.015625)"/>
       <path id="CMR17-6e" d="M 2656 1954 
C 2656 2282 2592 2816 1837 2816 
C 1331 2816 1069 2424 973 2166 
L 966 2166 
L 966 2816 
L 211 2745 
L 211 2578 
C 589 2578 646 2540 646 2231 
L 646 443 
C 646 198 621 166 211 166 
L 211 0 
C 365 12 646 12 813 12 
C 979 12 1267 12 1421 0 
L 1421 166 
C 1011 166 986 192 986 443 
L 986 1678 
C 986 2269 1344 2713 1792 2713 
C 2266 2713 2317 2289 2317 1980 
L 2317 443 
C 2317 198 2291 166 1882 166 
L 1882 0 
C 2035 12 2317 12 2483 12 
C 2650 12 2938 12 3091 0 
L 3091 166 
C 2682 166 2656 192 2656 443 
L 2656 1954 
z
" transform="scale(0.015625)"/>
       <path id="CMR17-64" d="M 1869 4345 
L 1869 4179 
C 2246 4179 2304 4141 2304 3843 
L 2304 2371 
C 2278 2403 2016 2816 1498 2816 
C 845 2816 211 2228 211 1376 
C 211 529 806 -64 1434 -64 
C 1978 -64 2259 361 2291 406 
L 2291 -64 
L 3066 -13 
L 3066 154 
C 2688 154 2630 193 2630 503 
L 2630 4416 
L 1869 4345 
z
M 2291 762 
C 2291 568 2176 393 2029 264 
C 1811 70 1594 38 1472 38 
C 1286 38 621 135 621 1369 
C 621 2636 1363 2713 1530 2713 
C 1824 2713 2061 2545 2208 2313 
C 2291 2177 2291 2157 2291 2041 
L 2291 762 
z
" transform="scale(0.015625)"/>
       <path id="CMR17-69" d="M 992 3961 
C 992 4102 877 4224 730 4224 
C 589 4224 467 4108 467 3961 
C 467 3820 582 3699 730 3699 
C 870 3699 992 3814 992 3961 
z
M 243 2745 
L 243 2579 
C 602 2579 653 2540 653 2231 
L 653 443 
C 653 198 627 166 218 166 
L 218 0 
C 371 12 646 12 806 12 
C 960 12 1222 12 1370 0 
L 1370 166 
C 992 166 979 205 979 436 
L 979 2816 
L 243 2745 
z
" transform="scale(0.015625)"/>
       <path id="CMR17-6d" d="M 4326 1954 
C 4326 2276 4269 2816 3507 2816 
C 3072 2816 2771 2520 2656 2173 
L 2650 2173 
C 2573 2700 2195 2816 1837 2816 
C 1331 2816 1069 2424 973 2166 
L 966 2166 
L 966 2816 
L 211 2745 
L 211 2578 
C 589 2578 646 2540 646 2231 
L 646 443 
C 646 198 621 166 211 166 
L 211 0 
C 365 12 646 12 813 12 
C 979 12 1267 12 1421 0 
L 1421 166 
C 1011 166 986 192 986 443 
L 986 1678 
C 986 2269 1344 2713 1792 2713 
C 2266 2713 2317 2289 2317 1980 
L 2317 443 
C 2317 198 2291 166 1882 166 
L 1882 0 
C 2035 12 2317 12 2483 12 
C 2650 12 2938 12 3091 0 
L 3091 166 
C 2682 166 2656 192 2656 443 
L 2656 1678 
C 2656 2269 3014 2713 3462 2713 
C 3936 2713 3987 2289 3987 1980 
L 3987 443 
C 3987 198 3962 166 3552 166 
L 3552 0 
C 3706 12 3987 12 4154 12 
C 4320 12 4608 12 4762 0 
L 4762 166 
C 4352 166 4326 192 4326 443 
L 4326 1954 
z
" transform="scale(0.015625)"/>
       <path id="CMR17-74" d="M 966 2585 
L 1862 2585 
L 1862 2752 
L 966 2752 
L 966 3968 
L 851 3968 
C 838 3292 614 2700 70 2687 
L 70 2585 
L 627 2585 
L 627 778 
C 627 655 627 -64 1370 -64 
C 1747 -64 1965 308 1965 784 
L 1965 1151 
L 1850 1151 
L 1850 790 
C 1850 347 1677 51 1408 51 
C 1222 51 966 179 966 765 
L 966 2585 
z
" transform="scale(0.015625)"/>
       <path id="CMR17-53" d="M 2803 4351 
C 2803 4467 2797 4473 2758 4473 
C 2720 4473 2707 4447 2682 4390 
L 2490 3965 
C 2246 4320 1875 4480 1472 4480 
C 819 4480 294 3958 294 3301 
C 294 3101 339 2817 557 2546 
C 794 2250 1018 2198 1530 2063 
C 1722 2011 2042 1927 2106 1901 
C 2470 1747 2662 1360 2662 999 
C 2662 534 2336 38 1779 38 
C 1094 38 454 425 410 1328 
C 403 1431 397 1437 352 1437 
C 301 1437 294 1431 294 1302 
L 294 0 
C 294 -116 301 -122 339 -122 
C 384 -122 397 -90 486 109 
C 493 128 493 141 614 386 
C 934 -39 1472 -128 1779 -128 
C 2477 -128 2970 457 2970 1141 
C 2970 1476 2848 1734 2778 1850 
C 2509 2263 2221 2340 1914 2417 
C 1869 2437 1856 2437 1498 2527 
C 1152 2617 1005 2662 845 2836 
C 666 3036 602 3243 602 3449 
C 602 3868 934 4326 1478 4326 
C 2157 4326 2579 3842 2675 3036 
C 2694 2920 2701 2914 2746 2914 
C 2803 2914 2803 2933 2803 3043 
L 2803 4351 
z
" transform="scale(0.015625)"/>
       <path id="CMR17-50" d="M 1267 2048 
L 2291 2048 
C 3117 2048 3718 2583 3718 3187 
C 3718 3791 3130 4352 2291 4352 
L 333 4352 
L 333 4185 
C 774 4185 845 4185 845 3899 
L 845 453 
C 845 166 774 166 333 166 
L 333 0 
C 518 12 858 12 1056 12 
C 1254 12 1594 12 1779 0 
L 1779 166 
C 1338 166 1267 166 1267 453 
L 1267 2048 
z
M 1254 2182 
L 1254 3937 
C 1254 4153 1267 4185 1523 4185 
L 2170 4185 
C 2995 4185 3232 3715 3232 3187 
C 3232 2608 2950 2182 2170 2182 
L 1254 2182 
z
" transform="scale(0.015625)"/>
      </defs>
      <use xlink:href="#CMR17-72" transform="scale(0.996264)"/>
      <use xlink:href="#CMR17-65" transform="translate(35.280768 0) scale(0.996264)"/>
      <use xlink:href="#CMR17-6e" transform="translate(75.766428 0) scale(0.996264)"/>
      <use xlink:href="#CMR17-64" transform="translate(126.661798 0) scale(0.996264)"/>
      <use xlink:href="#CMR17-69" transform="translate(177.557168 0) scale(0.996264)"/>
      <use xlink:href="#CMR17-6d" transform="translate(202.428226 0) scale(0.996264)"/>
      <use xlink:href="#CMR17-65" transform="translate(279.347816 0) scale(0.996264)"/>
      <use xlink:href="#CMR17-6e" transform="translate(319.833477 0) scale(0.996264)"/>
      <use xlink:href="#CMR17-74" transform="translate(368.126392 0) scale(0.996264)"/>
      <use xlink:href="#CMR17-69" transform="translate(403.40716 0) scale(0.996264)"/>
      <use xlink:href="#CMR17-53" transform="translate(458.354185 0) scale(0.996264)"/>
      <use xlink:href="#CMR17-50" transform="translate(509.249555 0) scale(0.996264)"/>
      <use xlink:href="#CMR17-35" transform="translate(601.911822 0) scale(0.996264)"/>
      <use xlink:href="#CMR17-30" transform="translate(647.602299 0) scale(0.996264)"/>
      <use xlink:href="#CMR17-30" transform="translate(693.292776 0) scale(0.996264)"/>
     </g>
    </g>
    <g id="line2d_136">
     <path d="M 48.296314 301.526612 
L 60.296314 301.526612 
L 72.296314 301.526612 
" style="fill: none; stroke: #00ff00; stroke-linecap: square"/>
    </g>
    <g id="text_16">
     <!-- forecast media pesata (training rmse) -->
     <g transform="translate(81.896314 305.726612) scale(0.12 -0.12)">
      <defs>
       <path id="CMR17-66" d="M 979 2585 
L 1709 2585 
L 1709 2752 
L 966 2752 
L 966 3539 
C 966 4076 1235 4377 1510 4377 
C 1594 4377 1690 4363 1754 4339 
C 1702 4326 1568 4281 1568 4121 
C 1568 3955 1696 3904 1786 3904 
C 1875 3904 2003 3955 2003 4121 
C 2003 4353 1773 4480 1517 4480 
C 1152 4480 653 4211 653 3526 
L 653 2752 
L 141 2752 
L 141 2585 
L 653 2585 
L 653 441 
C 653 198 627 166 218 166 
L 218 0 
C 371 12 666 12 832 12 
C 1018 12 1344 12 1517 0 
L 1517 166 
C 1056 166 979 166 979 454 
L 979 2585 
z
" transform="scale(0.015625)"/>
       <path id="CMR17-6f" d="M 2758 1356 
C 2758 2176 2163 2816 1466 2816 
C 768 2816 173 2176 173 1356 
C 173 550 768 -64 1466 -64 
C 2163 -64 2758 550 2758 1356 
z
M 1466 51 
C 1165 51 909 230 762 480 
C 602 768 582 1126 582 1408 
C 582 1676 595 2009 762 2297 
C 890 2508 1139 2713 1466 2713 
C 1754 2713 1997 2553 2150 2329 
C 2349 2028 2349 1606 2349 1408 
C 2349 1158 2336 774 2163 467 
C 1984 172 1709 51 1466 51 
z
" transform="scale(0.015625)"/>
       <path id="CMR17-63" d="M 2234 2240 
C 2112 2240 1933 2240 1933 2015 
C 1933 1836 2080 1785 2163 1785 
C 2208 1785 2394 1804 2394 2028 
C 2394 2476 1958 2816 1466 2816 
C 787 2816 211 2201 211 1379 
C 211 521 813 -64 1466 -64 
C 2259 -64 2458 676 2458 747 
C 2458 773 2451 792 2406 792 
C 2362 792 2355 786 2330 702 
C 2163 180 1798 51 1523 51 
C 1114 51 621 431 621 1385 
C 621 2358 1094 2700 1472 2700 
C 1722 2700 2093 2582 2234 2240 
z
" transform="scale(0.015625)"/>
       <path id="CMR17-61" d="M 2304 1656 
C 2304 2048 2304 2275 2035 2534 
C 1798 2751 1523 2816 1306 2816 
C 800 2816 435 2408 435 1977 
C 435 1740 627 1728 666 1728 
C 749 1728 896 1779 896 1958 
C 896 2118 774 2188 666 2188 
C 640 2188 608 2182 589 2176 
C 723 2594 1069 2713 1293 2713 
C 1613 2713 1965 2421 1965 1875 
L 1965 1632 
C 1587 1619 1133 1568 774 1373 
C 371 1147 256 822 256 576 
C 256 77 832 -64 1171 -64 
C 1523 -64 1850 135 1990 505 
C 2003 219 2182 -39 2464 -39 
C 2598 -39 2938 51 2938 563 
L 2938 926 
L 2822 926 
L 2822 557 
C 2822 161 2650 109 2566 109 
C 2304 109 2304 446 2304 732 
L 2304 1656 
z
M 1965 887 
C 1965 323 1568 38 1216 38 
C 896 38 646 278 646 576 
C 646 771 730 1114 1101 1322 
C 1408 1497 1760 1523 1965 1536 
L 1965 887 
z
" transform="scale(0.015625)"/>
       <path id="CMR17-73" d="M 1978 2688 
C 1978 2803 1971 2809 1933 2809 
C 1907 2809 1901 2803 1824 2707 
C 1805 2681 1747 2617 1728 2592 
C 1523 2809 1235 2816 1126 2816 
C 416 2816 160 2444 160 2073 
C 160 1497 813 1363 998 1324 
C 1402 1241 1542 1216 1677 1100 
C 1760 1024 1901 883 1901 652 
C 1901 384 1747 38 1158 38 
C 602 38 403 460 288 1024 
C 269 1113 269 1120 218 1120 
C 166 1120 160 1113 160 985 
L 160 64 
C 160 -52 166 -58 205 -58 
C 237 -58 243 -52 275 0 
C 314 57 410 211 448 275 
C 576 102 800 -64 1158 -64 
C 1792 -64 2131 281 2131 780 
C 2131 1107 1958 1280 1875 1356 
C 1683 1555 1459 1600 1190 1651 
C 838 1728 390 1817 390 2208 
C 390 2374 480 2726 1126 2726 
C 1811 2726 1850 2086 1862 1881 
C 1869 1849 1901 1843 1920 1843 
C 1978 1843 1978 1862 1978 1971 
L 1978 2688 
z
" transform="scale(0.015625)"/>
       <path id="CMR17-70" d="M 1408 -1114 
C 998 -1114 973 -1088 973 -834 
L 973 380 
C 1158 109 1427 -64 1766 -64 
C 2406 -64 3053 503 3053 1382 
C 3053 2196 2496 2816 1837 2816 
C 1453 2816 1139 2603 960 2345 
L 960 2816 
L 198 2745 
L 198 2577 
C 576 2577 634 2539 634 2228 
L 634 -834 
C 634 -1081 608 -1114 198 -1114 
L 198 -1280 
C 352 -1268 634 -1268 800 -1268 
C 966 -1268 1254 -1268 1408 -1280 
L 1408 -1114 
z
M 973 2015 
C 973 2106 973 2241 1222 2481 
C 1254 2506 1472 2700 1792 2700 
C 2259 2700 2643 2112 2643 1376 
C 2643 639 2234 38 1728 38 
C 1498 38 1248 148 1056 451 
C 973 594 973 632 973 736 
L 973 2015 
z
" transform="scale(0.015625)"/>
       <path id="CMR17-28" d="M 1958 -1562 
C 1958 -1556 1958 -1543 1939 -1524 
C 1645 -1223 858 -403 858 1596 
C 858 3595 1632 4408 1946 4729 
C 1946 4735 1958 4748 1958 4767 
C 1958 4787 1939 4800 1914 4800 
C 1843 4800 1299 4325 986 3620 
C 666 2909 576 2218 576 1603 
C 576 1141 621 360 1005 -467 
C 1312 -1133 1837 -1600 1914 -1600 
C 1946 -1600 1958 -1588 1958 -1562 
z
" transform="scale(0.015625)"/>
       <path id="CMR17-67" d="M 710 1165 
C 832 1068 1043 960 1299 960 
C 1805 960 2240 1359 2240 1895 
C 2240 2063 2189 2321 1997 2521 
C 2176 2713 2438 2777 2586 2777 
C 2611 2777 2650 2777 2682 2758 
C 2656 2751 2598 2726 2598 2623 
C 2598 2540 2656 2483 2739 2483 
C 2835 2483 2886 2547 2886 2630 
C 2886 2751 2790 2880 2586 2880 
C 2330 2880 2106 2758 1926 2591 
C 1734 2764 1504 2828 1299 2828 
C 794 2828 358 2431 358 1895 
C 358 1527 570 1294 634 1230 
C 442 1004 442 742 442 710 
C 442 544 506 300 723 166 
C 390 82 128 -184 128 -517 
C 128 -996 736 -1344 1466 -1344 
C 2170 -1344 2803 -1009 2803 -510 
C 2803 384 1856 384 1363 384 
C 1216 384 954 384 922 390 
C 723 422 589 601 589 825 
C 589 883 589 1024 710 1165 
z
M 1299 1068 
C 736 1068 736 1766 736 1895 
C 736 2024 736 2719 1299 2719 
C 1862 2719 1862 2024 1862 1895 
C 1862 1766 1862 1068 1299 1068 
z
M 1466 -1236 
C 826 -1236 384 -883 384 -517 
C 384 -311 493 -118 634 -11 
C 794 102 858 102 1293 102 
C 1818 102 2547 102 2547 -517 
C 2547 -883 2106 -1236 1466 -1236 
z
" transform="scale(0.015625)"/>
       <path id="CMR17-29" d="M 1683 1596 
C 1683 2057 1638 2839 1254 3665 
C 947 4332 422 4800 346 4800 
C 326 4800 301 4793 301 4761 
C 301 4748 307 4742 314 4729 
C 621 4408 1402 3595 1402 1603 
C 1402 -396 627 -1210 314 -1530 
C 307 -1543 301 -1549 301 -1562 
C 301 -1594 326 -1600 346 -1600 
C 416 -1600 960 -1127 1274 -422 
C 1594 289 1683 981 1683 1596 
z
" transform="scale(0.015625)"/>
      </defs>
      <use xlink:href="#CMR17-66" transform="scale(0.996264)"/>
      <use xlink:href="#CMR17-6f" transform="translate(27.473512 0) scale(0.996264)"/>
      <use xlink:href="#CMR17-72" transform="translate(73.16399 0) scale(0.996264)"/>
      <use xlink:href="#CMR17-65" transform="translate(108.444757 0) scale(0.996264)"/>
      <use xlink:href="#CMR17-63" transform="translate(148.930418 0) scale(0.996264)"/>
      <use xlink:href="#CMR17-61" transform="translate(189.416078 0) scale(0.996264)"/>
      <use xlink:href="#CMR17-73" transform="translate(235.106555 0) scale(0.996264)"/>
      <use xlink:href="#CMR17-74" transform="translate(270.907893 0) scale(0.996264)"/>
      <use xlink:href="#CMR17-6d" transform="translate(336.264627 0) scale(0.996264)"/>
      <use xlink:href="#CMR17-65" transform="translate(413.184217 0) scale(0.996264)"/>
      <use xlink:href="#CMR17-64" transform="translate(453.669877 0) scale(0.996264)"/>
      <use xlink:href="#CMR17-69" transform="translate(504.565247 0) scale(0.996264)"/>
      <use xlink:href="#CMR17-61" transform="translate(529.436306 0) scale(0.996264)"/>
      <use xlink:href="#CMR17-70" transform="translate(605.202749 0) scale(0.996264)"/>
      <use xlink:href="#CMR17-65" transform="translate(658.700558 0) scale(0.996264)"/>
      <use xlink:href="#CMR17-73" transform="translate(699.186218 0) scale(0.996264)"/>
      <use xlink:href="#CMR17-61" transform="translate(734.987556 0) scale(0.996264)"/>
      <use xlink:href="#CMR17-74" transform="translate(780.678033 0) scale(0.996264)"/>
      <use xlink:href="#CMR17-61" transform="translate(815.958801 0) scale(0.996264)"/>
      <use xlink:href="#CMR17-28" transform="translate(891.725244 0) scale(0.996264)"/>
      <use xlink:href="#CMR17-74" transform="translate(927.006012 0) scale(0.996264)"/>
      <use xlink:href="#CMR17-72" transform="translate(962.28678 0) scale(0.996264)"/>
      <use xlink:href="#CMR17-61" transform="translate(997.567548 0) scale(0.996264)"/>
      <use xlink:href="#CMR17-69" transform="translate(1043.258025 0) scale(0.996264)"/>
      <use xlink:href="#CMR17-6e" transform="translate(1068.129083 0) scale(0.996264)"/>
      <use xlink:href="#CMR17-69" transform="translate(1119.024453 0) scale(0.996264)"/>
      <use xlink:href="#CMR17-6e" transform="translate(1143.895511 0) scale(0.996264)"/>
      <use xlink:href="#CMR17-67" transform="translate(1194.790881 0) scale(0.996264)"/>
      <use xlink:href="#CMR17-72" transform="translate(1270.557325 0) scale(0.996264)"/>
      <use xlink:href="#CMR17-6d" transform="translate(1305.838093 0) scale(0.996264)"/>
      <use xlink:href="#CMR17-73" transform="translate(1382.757682 0) scale(0.996264)"/>
      <use xlink:href="#CMR17-65" transform="translate(1418.55902 0) scale(0.996264)"/>
      <use xlink:href="#CMR17-29" transform="translate(1459.04468 0) scale(0.996264)"/>
     </g>
    </g>
    <g id="patch_7">
     <path d="M 48.296314 323.115404 
L 72.296314 323.115404 
L 72.296314 314.715404 
L 48.296314 314.715404 
z
" style="fill: #808080; fill-opacity: 0.3; stroke: #808080; stroke-opacity: 0.3; stroke-linejoin: miter"/>
    </g>
    <g id="text_17">
     <!-- 99 perc. CI -->
     <g transform="translate(81.896314 323.115404) scale(0.12 -0.12)">
      <defs>
       <path id="CMR17-39" d="M 2253 1871 
C 2253 448 1670 25 1190 25 
C 1043 25 685 43 538 281 
C 704 256 826 345 826 505 
C 826 678 685 736 595 736 
C 538 736 365 710 365 492 
C 365 68 742 -128 1203 -128 
C 1939 -128 2688 665 2688 2090 
C 2688 3857 1971 4224 1485 4224 
C 851 4224 243 3664 243 2800 
C 243 2000 762 1408 1414 1408 
C 1952 1408 2189 1910 2253 2122 
L 2253 1871 
z
M 1427 1510 
C 1254 1510 1011 1542 813 1929 
C 678 2181 678 2477 678 2793 
C 678 3174 678 3438 858 3722 
C 947 3857 1114 4076 1485 4076 
C 2240 4076 2240 2909 2240 2651 
C 2240 2193 2035 1510 1427 1510 
z
" transform="scale(0.015625)"/>
       <path id="CMR17-2e" d="M 1062 262 
C 1062 422 934 524 800 524 
C 672 524 538 422 538 262 
C 538 102 666 0 800 0 
C 928 0 1062 102 1062 262 
z
" transform="scale(0.015625)"/>
       <path id="CMR17-43" d="M 3974 4351 
C 3974 4467 3968 4473 3930 4473 
C 3904 4473 3898 4467 3853 4390 
L 3571 3849 
C 3258 4249 2874 4480 2381 4480 
C 1286 4480 294 3507 294 2179 
C 294 837 1286 -128 2387 -128 
C 3366 -128 3974 741 3974 1482 
C 3974 1547 3974 1573 3917 1573 
C 3866 1573 3866 1553 3859 1495 
C 3808 592 3168 38 2477 38 
C 1824 38 781 502 781 2179 
C 781 3862 1843 4313 2464 4313 
C 3187 4313 3712 3681 3834 2785 
C 3846 2707 3846 2695 3904 2695 
C 3974 2695 3974 2707 3974 2824 
L 3974 4351 
z
" transform="scale(0.015625)"/>
       <path id="CMR17-49" d="M 1261 3898 
C 1261 4185 1338 4185 1798 4185 
L 1798 4352 
C 1594 4339 1267 4339 1050 4339 
C 832 4339 506 4339 301 4352 
L 301 4185 
C 762 4185 838 4185 838 3898 
L 838 453 
C 838 166 762 166 301 166 
L 301 0 
C 506 12 832 12 1050 12 
C 1267 12 1594 12 1798 0 
L 1798 166 
C 1338 166 1261 166 1261 453 
L 1261 3898 
z
" transform="scale(0.015625)"/>
      </defs>
      <use xlink:href="#CMR17-39" transform="scale(0.996264)"/>
      <use xlink:href="#CMR17-39" transform="translate(45.690477 0) scale(0.996264)"/>
      <use xlink:href="#CMR17-70" transform="translate(121.456921 0) scale(0.996264)"/>
      <use xlink:href="#CMR17-65" transform="translate(174.954729 0) scale(0.996264)"/>
      <use xlink:href="#CMR17-72" transform="translate(215.44039 0) scale(0.996264)"/>
      <use xlink:href="#CMR17-63" transform="translate(250.721157 0) scale(0.996264)"/>
      <use xlink:href="#CMR17-2e" transform="translate(291.206818 0) scale(0.996264)"/>
      <use xlink:href="#CMR17-43" transform="translate(356.563537 0) scale(0.996264)"/>
      <use xlink:href="#CMR17-49" transform="translate(423.073417 0) scale(0.996264)"/>
     </g>
    </g>
   </g>
  </g>
 </g>
 <defs>
  <clipPath id="p09c9252751">
   <rect x="37.496314" y="3.6" width="558" height="332.64"/>
  </clipPath>
 </defs>
</svg>
