<?xml version="1.0" encoding="utf-8" standalone="no"?>
<!DOCTYPE svg PUBLIC "-//W3C//DTD SVG 1.1//EN"
  "http://www.w3.org/Graphics/SVG/1.1/DTD/svg11.dtd">
<svg xmlns:xlink="http://www.w3.org/1999/xlink" width="720pt" height="288pt" viewBox="0 0 720 288" xmlns="http://www.w3.org/2000/svg" version="1.1">
 <metadata>
  <rdf:RDF xmlns:dc="http://purl.org/dc/elements/1.1/" xmlns:cc="http://creativecommons.org/ns#" xmlns:rdf="http://www.w3.org/1999/02/22-rdf-syntax-ns#">
   <cc:Work>
    <dc:type rdf:resource="http://purl.org/dc/dcmitype/StillImage"/>
    <dc:date>2025-03-13T17:12:06.694592</dc:date>
    <dc:format>image/svg+xml</dc:format>
    <dc:creator>
     <cc:Agent>
      <dc:title>Matplotlib v3.9.2, https://matplotlib.org/</dc:title>
     </cc:Agent>
    </dc:creator>
   </cc:Work>
  </rdf:RDF>
 </metadata>
 <defs>
  <style type="text/css">*{stroke-linejoin: round; stroke-linecap: butt}</style>
 </defs>
 <g id="figure_1">
  <g id="patch_1">
   <path d="M 0 288 
L 720 288 
L 720 0 
L 0 0 
z
" style="fill: #ffffff"/>
  </g>
  <g id="axes_1">
   <g id="patch_2">
    <path d="M 90 256.32 
L 648 256.32 
L 648 34.56 
L 90 34.56 
z
" style="fill: #ffffff"/>
   </g>
   <g id="matplotlib.axis_1">
    <g id="xtick_1">
     <g id="line2d_1">
      <path d="M 178.430633 256.32 
L 178.430633 34.56 
" clip-path="url(#pe4c8446c43)" style="fill: none; stroke: #b0b0b0; stroke-width: 0.8; stroke-linecap: square"/>
     </g>
     <g id="line2d_2">
      <defs>
       <path id="m465d274fb0" d="M 0 0 
L 0 3.5 
" style="stroke: #000000; stroke-width: 0.8"/>
      </defs>
      <g>
       <use xlink:href="#m465d274fb0" x="178.430633" y="256.32" style="stroke: #000000; stroke-width: 0.8"/>
      </g>
     </g>
     <g id="text_1">
      <!-- 2004 -->
      <g transform="translate(171.383872 286.688774) rotate(-45) scale(0.1 -0.1)">
       <defs>
        <path id="DejaVuSans-32" d="M 1228 531 
L 3431 531 
L 3431 0 
L 469 0 
L 469 531 
Q 828 903 1448 1529 
Q 2069 2156 2228 2338 
Q 2531 2678 2651 2914 
Q 2772 3150 2772 3378 
Q 2772 3750 2511 3984 
Q 2250 4219 1831 4219 
Q 1534 4219 1204 4116 
Q 875 4013 500 3803 
L 500 4441 
Q 881 4594 1212 4672 
Q 1544 4750 1819 4750 
Q 2544 4750 2975 4387 
Q 3406 4025 3406 3419 
Q 3406 3131 3298 2873 
Q 3191 2616 2906 2266 
Q 2828 2175 2409 1742 
Q 1991 1309 1228 531 
z
" transform="scale(0.015625)"/>
        <path id="DejaVuSans-30" d="M 2034 4250 
Q 1547 4250 1301 3770 
Q 1056 3291 1056 2328 
Q 1056 1369 1301 889 
Q 1547 409 2034 409 
Q 2525 409 2770 889 
Q 3016 1369 3016 2328 
Q 3016 3291 2770 3770 
Q 2525 4250 2034 4250 
z
M 2034 4750 
Q 2819 4750 3233 4129 
Q 3647 3509 3647 2328 
Q 3647 1150 3233 529 
Q 2819 -91 2034 -91 
Q 1250 -91 836 529 
Q 422 1150 422 2328 
Q 422 3509 836 4129 
Q 1250 4750 2034 4750 
z
" transform="scale(0.015625)"/>
        <path id="DejaVuSans-34" d="M 2419 4116 
L 825 1625 
L 2419 1625 
L 2419 4116 
z
M 2253 4666 
L 3047 4666 
L 3047 1625 
L 3713 1625 
L 3713 1100 
L 3047 1100 
L 3047 0 
L 2419 0 
L 2419 1100 
L 313 1100 
L 313 1709 
L 2253 4666 
z
" transform="scale(0.015625)"/>
       </defs>
       <use xlink:href="#DejaVuSans-32"/>
       <use xlink:href="#DejaVuSans-30" x="63.623047"/>
       <use xlink:href="#DejaVuSans-30" x="127.246094"/>
       <use xlink:href="#DejaVuSans-34" x="190.869141"/>
      </g>
     </g>
    </g>
    <g id="xtick_2">
     <g id="line2d_3">
      <path d="M 267.283942 256.32 
L 267.283942 34.56 
" clip-path="url(#pe4c8446c43)" style="fill: none; stroke: #b0b0b0; stroke-width: 0.8; stroke-linecap: square"/>
     </g>
     <g id="line2d_4">
      <g>
       <use xlink:href="#m465d274fb0" x="267.283942" y="256.32" style="stroke: #000000; stroke-width: 0.8"/>
      </g>
     </g>
     <g id="text_2">
      <!-- 2008 -->
      <g transform="translate(260.237181 286.688774) rotate(-45) scale(0.1 -0.1)">
       <defs>
        <path id="DejaVuSans-38" d="M 2034 2216 
Q 1584 2216 1326 1975 
Q 1069 1734 1069 1313 
Q 1069 891 1326 650 
Q 1584 409 2034 409 
Q 2484 409 2743 651 
Q 3003 894 3003 1313 
Q 3003 1734 2745 1975 
Q 2488 2216 2034 2216 
z
M 1403 2484 
Q 997 2584 770 2862 
Q 544 3141 544 3541 
Q 544 4100 942 4425 
Q 1341 4750 2034 4750 
Q 2731 4750 3128 4425 
Q 3525 4100 3525 3541 
Q 3525 3141 3298 2862 
Q 3072 2584 2669 2484 
Q 3125 2378 3379 2068 
Q 3634 1759 3634 1313 
Q 3634 634 3220 271 
Q 2806 -91 2034 -91 
Q 1263 -91 848 271 
Q 434 634 434 1313 
Q 434 1759 690 2068 
Q 947 2378 1403 2484 
z
M 1172 3481 
Q 1172 3119 1398 2916 
Q 1625 2713 2034 2713 
Q 2441 2713 2670 2916 
Q 2900 3119 2900 3481 
Q 2900 3844 2670 4047 
Q 2441 4250 2034 4250 
Q 1625 4250 1398 4047 
Q 1172 3844 1172 3481 
z
" transform="scale(0.015625)"/>
       </defs>
       <use xlink:href="#DejaVuSans-32"/>
       <use xlink:href="#DejaVuSans-30" x="63.623047"/>
       <use xlink:href="#DejaVuSans-30" x="127.246094"/>
       <use xlink:href="#DejaVuSans-38" x="190.869141"/>
      </g>
     </g>
    </g>
    <g id="xtick_3">
     <g id="line2d_5">
      <path d="M 356.137252 256.32 
L 356.137252 34.56 
" clip-path="url(#pe4c8446c43)" style="fill: none; stroke: #b0b0b0; stroke-width: 0.8; stroke-linecap: square"/>
     </g>
     <g id="line2d_6">
      <g>
       <use xlink:href="#m465d274fb0" x="356.137252" y="256.32" style="stroke: #000000; stroke-width: 0.8"/>
      </g>
     </g>
     <g id="text_3">
      <!-- 2012 -->
      <g transform="translate(349.090491 286.688774) rotate(-45) scale(0.1 -0.1)">
       <defs>
        <path id="DejaVuSans-31" d="M 794 531 
L 1825 531 
L 1825 4091 
L 703 3866 
L 703 4441 
L 1819 4666 
L 2450 4666 
L 2450 531 
L 3481 531 
L 3481 0 
L 794 0 
L 794 531 
z
" transform="scale(0.015625)"/>
       </defs>
       <use xlink:href="#DejaVuSans-32"/>
       <use xlink:href="#DejaVuSans-30" x="63.623047"/>
       <use xlink:href="#DejaVuSans-31" x="127.246094"/>
       <use xlink:href="#DejaVuSans-32" x="190.869141"/>
      </g>
     </g>
    </g>
    <g id="xtick_4">
     <g id="line2d_7">
      <path d="M 444.990561 256.32 
L 444.990561 34.56 
" clip-path="url(#pe4c8446c43)" style="fill: none; stroke: #b0b0b0; stroke-width: 0.8; stroke-linecap: square"/>
     </g>
     <g id="line2d_8">
      <g>
       <use xlink:href="#m465d274fb0" x="444.990561" y="256.32" style="stroke: #000000; stroke-width: 0.8"/>
      </g>
     </g>
     <g id="text_4">
      <!-- 2016 -->
      <g transform="translate(437.9438 286.688774) rotate(-45) scale(0.1 -0.1)">
       <defs>
        <path id="DejaVuSans-36" d="M 2113 2584 
Q 1688 2584 1439 2293 
Q 1191 2003 1191 1497 
Q 1191 994 1439 701 
Q 1688 409 2113 409 
Q 2538 409 2786 701 
Q 3034 994 3034 1497 
Q 3034 2003 2786 2293 
Q 2538 2584 2113 2584 
z
M 3366 4563 
L 3366 3988 
Q 3128 4100 2886 4159 
Q 2644 4219 2406 4219 
Q 1781 4219 1451 3797 
Q 1122 3375 1075 2522 
Q 1259 2794 1537 2939 
Q 1816 3084 2150 3084 
Q 2853 3084 3261 2657 
Q 3669 2231 3669 1497 
Q 3669 778 3244 343 
Q 2819 -91 2113 -91 
Q 1303 -91 875 529 
Q 447 1150 447 2328 
Q 447 3434 972 4092 
Q 1497 4750 2381 4750 
Q 2619 4750 2861 4703 
Q 3103 4656 3366 4563 
z
" transform="scale(0.015625)"/>
       </defs>
       <use xlink:href="#DejaVuSans-32"/>
       <use xlink:href="#DejaVuSans-30" x="63.623047"/>
       <use xlink:href="#DejaVuSans-31" x="127.246094"/>
       <use xlink:href="#DejaVuSans-36" x="190.869141"/>
      </g>
     </g>
    </g>
    <g id="xtick_5">
     <g id="line2d_9">
      <path d="M 533.843871 256.32 
L 533.843871 34.56 
" clip-path="url(#pe4c8446c43)" style="fill: none; stroke: #b0b0b0; stroke-width: 0.8; stroke-linecap: square"/>
     </g>
     <g id="line2d_10">
      <g>
       <use xlink:href="#m465d274fb0" x="533.843871" y="256.32" style="stroke: #000000; stroke-width: 0.8"/>
      </g>
     </g>
     <g id="text_5">
      <!-- 2020 -->
      <g transform="translate(526.79711 286.688774) rotate(-45) scale(0.1 -0.1)">
       <use xlink:href="#DejaVuSans-32"/>
       <use xlink:href="#DejaVuSans-30" x="63.623047"/>
       <use xlink:href="#DejaVuSans-32" x="127.246094"/>
       <use xlink:href="#DejaVuSans-30" x="190.869141"/>
      </g>
     </g>
    </g>
    <g id="xtick_6">
     <g id="line2d_11">
      <path d="M 622.69718 256.32 
L 622.69718 34.56 
" clip-path="url(#pe4c8446c43)" style="fill: none; stroke: #b0b0b0; stroke-width: 0.8; stroke-linecap: square"/>
     </g>
     <g id="line2d_12">
      <g>
       <use xlink:href="#m465d274fb0" x="622.69718" y="256.32" style="stroke: #000000; stroke-width: 0.8"/>
      </g>
     </g>
     <g id="text_6">
      <!-- 2024 -->
      <g transform="translate(615.650419 286.688774) rotate(-45) scale(0.1 -0.1)">
       <use xlink:href="#DejaVuSans-32"/>
       <use xlink:href="#DejaVuSans-30" x="63.623047"/>
       <use xlink:href="#DejaVuSans-32" x="127.246094"/>
       <use xlink:href="#DejaVuSans-34" x="190.869141"/>
      </g>
     </g>
    </g>
    <g id="text_7">
     <!-- Data -->
     <g transform="translate(357.061719 299.757773) scale(0.1 -0.1)">
      <defs>
       <path id="DejaVuSans-44" d="M 1259 4147 
L 1259 519 
L 2022 519 
Q 2988 519 3436 956 
Q 3884 1394 3884 2338 
Q 3884 3275 3436 3711 
Q 2988 4147 2022 4147 
L 1259 4147 
z
M 628 4666 
L 1925 4666 
Q 3281 4666 3915 4102 
Q 4550 3538 4550 2338 
Q 4550 1131 3912 565 
Q 3275 0 1925 0 
L 628 0 
L 628 4666 
z
" transform="scale(0.015625)"/>
       <path id="DejaVuSans-61" d="M 2194 1759 
Q 1497 1759 1228 1600 
Q 959 1441 959 1056 
Q 959 750 1161 570 
Q 1363 391 1709 391 
Q 2188 391 2477 730 
Q 2766 1069 2766 1631 
L 2766 1759 
L 2194 1759 
z
M 3341 1997 
L 3341 0 
L 2766 0 
L 2766 531 
Q 2569 213 2275 61 
Q 1981 -91 1556 -91 
Q 1019 -91 701 211 
Q 384 513 384 1019 
Q 384 1609 779 1909 
Q 1175 2209 1959 2209 
L 2766 2209 
L 2766 2266 
Q 2766 2663 2505 2880 
Q 2244 3097 1772 3097 
Q 1472 3097 1187 3025 
Q 903 2953 641 2809 
L 641 3341 
Q 956 3463 1253 3523 
Q 1550 3584 1831 3584 
Q 2591 3584 2966 3190 
Q 3341 2797 3341 1997 
z
" transform="scale(0.015625)"/>
       <path id="DejaVuSans-74" d="M 1172 4494 
L 1172 3500 
L 2356 3500 
L 2356 3053 
L 1172 3053 
L 1172 1153 
Q 1172 725 1289 603 
Q 1406 481 1766 481 
L 2356 481 
L 2356 0 
L 1766 0 
Q 1100 0 847 248 
Q 594 497 594 1153 
L 594 3053 
L 172 3053 
L 172 3500 
L 594 3500 
L 594 4494 
L 1172 4494 
z
" transform="scale(0.015625)"/>
      </defs>
      <use xlink:href="#DejaVuSans-44"/>
      <use xlink:href="#DejaVuSans-61" x="77.001953"/>
      <use xlink:href="#DejaVuSans-74" x="138.28125"/>
      <use xlink:href="#DejaVuSans-61" x="177.490234"/>
     </g>
    </g>
   </g>
   <g id="matplotlib.axis_2">
    <g id="ytick_1">
     <g id="line2d_13">
      <path d="M 90 232.001773 
L 648 232.001773 
" clip-path="url(#pe4c8446c43)" style="fill: none; stroke: #b0b0b0; stroke-width: 0.8; stroke-linecap: square"/>
     </g>
     <g id="line2d_14">
      <defs>
       <path id="m9192bde05d" d="M 0 0 
L -3.5 0 
" style="stroke: #000000; stroke-width: 0.8"/>
      </defs>
      <g>
       <use xlink:href="#m9192bde05d" x="90" y="232.001773" style="stroke: #000000; stroke-width: 0.8"/>
      </g>
     </g>
     <g id="text_8">
      <!-- −20 -->
      <g transform="translate(61.895313 235.800992) scale(0.1 -0.1)">
       <defs>
        <path id="DejaVuSans-2212" d="M 678 2272 
L 4684 2272 
L 4684 1741 
L 678 1741 
L 678 2272 
z
" transform="scale(0.015625)"/>
       </defs>
       <use xlink:href="#DejaVuSans-2212"/>
       <use xlink:href="#DejaVuSans-32" x="83.789062"/>
       <use xlink:href="#DejaVuSans-30" x="147.412109"/>
      </g>
     </g>
    </g>
    <g id="ytick_2">
     <g id="line2d_15">
      <path d="M 90 207.07902 
L 648 207.07902 
" clip-path="url(#pe4c8446c43)" style="fill: none; stroke: #b0b0b0; stroke-width: 0.8; stroke-linecap: square"/>
     </g>
     <g id="line2d_16">
      <g>
       <use xlink:href="#m9192bde05d" x="90" y="207.07902" style="stroke: #000000; stroke-width: 0.8"/>
      </g>
     </g>
     <g id="text_9">
      <!-- −15 -->
      <g transform="translate(61.895313 210.878239) scale(0.1 -0.1)">
       <defs>
        <path id="DejaVuSans-35" d="M 691 4666 
L 3169 4666 
L 3169 4134 
L 1269 4134 
L 1269 2991 
Q 1406 3038 1543 3061 
Q 1681 3084 1819 3084 
Q 2600 3084 3056 2656 
Q 3513 2228 3513 1497 
Q 3513 744 3044 326 
Q 2575 -91 1722 -91 
Q 1428 -91 1123 -41 
Q 819 9 494 109 
L 494 744 
Q 775 591 1075 516 
Q 1375 441 1709 441 
Q 2250 441 2565 725 
Q 2881 1009 2881 1497 
Q 2881 1984 2565 2268 
Q 2250 2553 1709 2553 
Q 1456 2553 1204 2497 
Q 953 2441 691 2322 
L 691 4666 
z
" transform="scale(0.015625)"/>
       </defs>
       <use xlink:href="#DejaVuSans-2212"/>
       <use xlink:href="#DejaVuSans-31" x="83.789062"/>
       <use xlink:href="#DejaVuSans-35" x="147.412109"/>
      </g>
     </g>
    </g>
    <g id="ytick_3">
     <g id="line2d_17">
      <path d="M 90 182.156267 
L 648 182.156267 
" clip-path="url(#pe4c8446c43)" style="fill: none; stroke: #b0b0b0; stroke-width: 0.8; stroke-linecap: square"/>
     </g>
     <g id="line2d_18">
      <g>
       <use xlink:href="#m9192bde05d" x="90" y="182.156267" style="stroke: #000000; stroke-width: 0.8"/>
      </g>
     </g>
     <g id="text_10">
      <!-- −10 -->
      <g transform="translate(61.895313 185.955485) scale(0.1 -0.1)">
       <use xlink:href="#DejaVuSans-2212"/>
       <use xlink:href="#DejaVuSans-31" x="83.789062"/>
       <use xlink:href="#DejaVuSans-30" x="147.412109"/>
      </g>
     </g>
    </g>
    <g id="ytick_4">
     <g id="line2d_19">
      <path d="M 90 157.233513 
L 648 157.233513 
" clip-path="url(#pe4c8446c43)" style="fill: none; stroke: #b0b0b0; stroke-width: 0.8; stroke-linecap: square"/>
     </g>
     <g id="line2d_20">
      <g>
       <use xlink:href="#m9192bde05d" x="90" y="157.233513" style="stroke: #000000; stroke-width: 0.8"/>
      </g>
     </g>
     <g id="text_11">
      <!-- −5 -->
      <g transform="translate(68.257812 161.032732) scale(0.1 -0.1)">
       <use xlink:href="#DejaVuSans-2212"/>
       <use xlink:href="#DejaVuSans-35" x="83.789062"/>
      </g>
     </g>
    </g>
    <g id="ytick_5">
     <g id="line2d_21">
      <path d="M 90 132.31076 
L 648 132.31076 
" clip-path="url(#pe4c8446c43)" style="fill: none; stroke: #b0b0b0; stroke-width: 0.8; stroke-linecap: square"/>
     </g>
     <g id="line2d_22">
      <g>
       <use xlink:href="#m9192bde05d" x="90" y="132.31076" style="stroke: #000000; stroke-width: 0.8"/>
      </g>
     </g>
     <g id="text_12">
      <!-- 0 -->
      <g transform="translate(76.6375 136.109979) scale(0.1 -0.1)">
       <use xlink:href="#DejaVuSans-30"/>
      </g>
     </g>
    </g>
    <g id="ytick_6">
     <g id="line2d_23">
      <path d="M 90 107.388006 
L 648 107.388006 
" clip-path="url(#pe4c8446c43)" style="fill: none; stroke: #b0b0b0; stroke-width: 0.8; stroke-linecap: square"/>
     </g>
     <g id="line2d_24">
      <g>
       <use xlink:href="#m9192bde05d" x="90" y="107.388006" style="stroke: #000000; stroke-width: 0.8"/>
      </g>
     </g>
     <g id="text_13">
      <!-- 5 -->
      <g transform="translate(76.6375 111.187225) scale(0.1 -0.1)">
       <use xlink:href="#DejaVuSans-35"/>
      </g>
     </g>
    </g>
    <g id="ytick_7">
     <g id="line2d_25">
      <path d="M 90 82.465253 
L 648 82.465253 
" clip-path="url(#pe4c8446c43)" style="fill: none; stroke: #b0b0b0; stroke-width: 0.8; stroke-linecap: square"/>
     </g>
     <g id="line2d_26">
      <g>
       <use xlink:href="#m9192bde05d" x="90" y="82.465253" style="stroke: #000000; stroke-width: 0.8"/>
      </g>
     </g>
     <g id="text_14">
      <!-- 10 -->
      <g transform="translate(70.275 86.264472) scale(0.1 -0.1)">
       <use xlink:href="#DejaVuSans-31"/>
       <use xlink:href="#DejaVuSans-30" x="63.623047"/>
      </g>
     </g>
    </g>
    <g id="ytick_8">
     <g id="line2d_27">
      <path d="M 90 57.542499 
L 648 57.542499 
" clip-path="url(#pe4c8446c43)" style="fill: none; stroke: #b0b0b0; stroke-width: 0.8; stroke-linecap: square"/>
     </g>
     <g id="line2d_28">
      <g>
       <use xlink:href="#m9192bde05d" x="90" y="57.542499" style="stroke: #000000; stroke-width: 0.8"/>
      </g>
     </g>
     <g id="text_15">
      <!-- 15 -->
      <g transform="translate(70.275 61.341718) scale(0.1 -0.1)">
       <use xlink:href="#DejaVuSans-31"/>
       <use xlink:href="#DejaVuSans-35" x="63.623047"/>
      </g>
     </g>
    </g>
    <g id="text_16">
     <!-- Residui -->
     <g transform="translate(55.815625 163.491562) rotate(-90) scale(0.1 -0.1)">
      <defs>
       <path id="DejaVuSans-52" d="M 2841 2188 
Q 3044 2119 3236 1894 
Q 3428 1669 3622 1275 
L 4263 0 
L 3584 0 
L 2988 1197 
Q 2756 1666 2539 1819 
Q 2322 1972 1947 1972 
L 1259 1972 
L 1259 0 
L 628 0 
L 628 4666 
L 2053 4666 
Q 2853 4666 3247 4331 
Q 3641 3997 3641 3322 
Q 3641 2881 3436 2590 
Q 3231 2300 2841 2188 
z
M 1259 4147 
L 1259 2491 
L 2053 2491 
Q 2509 2491 2742 2702 
Q 2975 2913 2975 3322 
Q 2975 3731 2742 3939 
Q 2509 4147 2053 4147 
L 1259 4147 
z
" transform="scale(0.015625)"/>
       <path id="DejaVuSans-65" d="M 3597 1894 
L 3597 1613 
L 953 1613 
Q 991 1019 1311 708 
Q 1631 397 2203 397 
Q 2534 397 2845 478 
Q 3156 559 3463 722 
L 3463 178 
Q 3153 47 2828 -22 
Q 2503 -91 2169 -91 
Q 1331 -91 842 396 
Q 353 884 353 1716 
Q 353 2575 817 3079 
Q 1281 3584 2069 3584 
Q 2775 3584 3186 3129 
Q 3597 2675 3597 1894 
z
M 3022 2063 
Q 3016 2534 2758 2815 
Q 2500 3097 2075 3097 
Q 1594 3097 1305 2825 
Q 1016 2553 972 2059 
L 3022 2063 
z
" transform="scale(0.015625)"/>
       <path id="DejaVuSans-73" d="M 2834 3397 
L 2834 2853 
Q 2591 2978 2328 3040 
Q 2066 3103 1784 3103 
Q 1356 3103 1142 2972 
Q 928 2841 928 2578 
Q 928 2378 1081 2264 
Q 1234 2150 1697 2047 
L 1894 2003 
Q 2506 1872 2764 1633 
Q 3022 1394 3022 966 
Q 3022 478 2636 193 
Q 2250 -91 1575 -91 
Q 1294 -91 989 -36 
Q 684 19 347 128 
L 347 722 
Q 666 556 975 473 
Q 1284 391 1588 391 
Q 1994 391 2212 530 
Q 2431 669 2431 922 
Q 2431 1156 2273 1281 
Q 2116 1406 1581 1522 
L 1381 1569 
Q 847 1681 609 1914 
Q 372 2147 372 2553 
Q 372 3047 722 3315 
Q 1072 3584 1716 3584 
Q 2034 3584 2315 3537 
Q 2597 3491 2834 3397 
z
" transform="scale(0.015625)"/>
       <path id="DejaVuSans-69" d="M 603 3500 
L 1178 3500 
L 1178 0 
L 603 0 
L 603 3500 
z
M 603 4863 
L 1178 4863 
L 1178 4134 
L 603 4134 
L 603 4863 
z
" transform="scale(0.015625)"/>
       <path id="DejaVuSans-64" d="M 2906 2969 
L 2906 4863 
L 3481 4863 
L 3481 0 
L 2906 0 
L 2906 525 
Q 2725 213 2448 61 
Q 2172 -91 1784 -91 
Q 1150 -91 751 415 
Q 353 922 353 1747 
Q 353 2572 751 3078 
Q 1150 3584 1784 3584 
Q 2172 3584 2448 3432 
Q 2725 3281 2906 2969 
z
M 947 1747 
Q 947 1113 1208 752 
Q 1469 391 1925 391 
Q 2381 391 2643 752 
Q 2906 1113 2906 1747 
Q 2906 2381 2643 2742 
Q 2381 3103 1925 3103 
Q 1469 3103 1208 2742 
Q 947 2381 947 1747 
z
" transform="scale(0.015625)"/>
       <path id="DejaVuSans-75" d="M 544 1381 
L 544 3500 
L 1119 3500 
L 1119 1403 
Q 1119 906 1312 657 
Q 1506 409 1894 409 
Q 2359 409 2629 706 
Q 2900 1003 2900 1516 
L 2900 3500 
L 3475 3500 
L 3475 0 
L 2900 0 
L 2900 538 
Q 2691 219 2414 64 
Q 2138 -91 1772 -91 
Q 1169 -91 856 284 
Q 544 659 544 1381 
z
M 1991 3584 
L 1991 3584 
z
" transform="scale(0.015625)"/>
      </defs>
      <use xlink:href="#DejaVuSans-52"/>
      <use xlink:href="#DejaVuSans-65" x="64.982422"/>
      <use xlink:href="#DejaVuSans-73" x="126.505859"/>
      <use xlink:href="#DejaVuSans-69" x="178.605469"/>
      <use xlink:href="#DejaVuSans-64" x="206.388672"/>
      <use xlink:href="#DejaVuSans-75" x="269.865234"/>
      <use xlink:href="#DejaVuSans-69" x="333.244141"/>
     </g>
    </g>
   </g>
   <g id="line2d_29">
    <path d="M 115.363636 150.438531 
L 117.248956 184.140712 
L 119.07346 129.031007 
L 120.95878 102.947628 
L 122.783283 155.401311 
L 124.668603 152.055015 
L 126.553923 146.795237 
L 128.378426 199.552741 
L 130.263746 110.662987 
L 132.08825 115.393715 
L 133.97357 130.525315 
L 135.85889 129.897734 
L 137.56176 149.301104 
L 139.44708 106.303514 
L 141.271583 149.081233 
L 143.156903 142.748633 
L 144.981406 159.6129 
L 146.866726 185.733578 
L 148.752046 118.015991 
L 150.57655 164.154094 
L 152.46187 141.293716 
L 154.286373 101.715432 
L 156.171693 146.01929 
L 158.057013 136.18058 
L 159.759883 165.020985 
L 161.645203 122.308157 
L 163.469706 110.673903 
L 165.355026 109.479497 
L 167.179529 117.858606 
L 169.064849 141.264408 
L 170.950169 122.878427 
L 172.774673 110.567583 
L 174.659993 129.839405 
L 176.484496 127.942339 
L 178.369816 119.135785 
L 180.255136 113.57754 
L 182.018823 137.736445 
L 183.904143 146.460529 
L 185.728646 134.293371 
L 187.613966 142.231858 
L 189.438469 114.346007 
L 191.323789 150.639261 
L 193.209109 145.1728 
L 195.033613 125.594061 
L 196.918933 142.226556 
L 198.743436 115.09135 
L 200.628756 127.607162 
L 202.514076 146.379151 
L 204.216946 127.702153 
L 206.102266 141.052253 
L 207.926769 144.273525 
L 209.812089 130.317476 
L 211.636593 130.945018 
L 215.407233 134.729575 
L 217.231736 134.982769 
L 219.117056 151.862512 
L 220.941559 111.397922 
L 222.826879 129.648726 
L 224.712199 133.265112 
L 226.415069 139.77651 
L 228.300389 127.990972 
L 230.124892 132.943257 
L 232.010212 138.76022 
L 233.834716 148.882455 
L 235.720036 131.226864 
L 237.605356 127.02366 
L 239.429859 129.982489 
L 241.315179 124.462874 
L 243.139682 131.227005 
L 245.025002 130.814893 
L 246.910323 136.875148 
L 248.613192 127.716379 
L 250.498512 152.313116 
L 252.323016 116.949589 
L 254.208336 123.349517 
L 256.032839 138.350698 
L 257.918159 130.235731 
L 259.803479 161.656375 
L 261.627982 123.16178 
L 263.513302 128.694639 
L 265.337806 166.179847 
L 267.223126 132.798326 
L 269.108446 174.285119 
L 270.872132 143.833204 
L 272.757452 148.516273 
L 274.581956 117.3641 
L 276.467276 125.194822 
L 278.291779 157.092126 
L 280.177099 158.903191 
L 282.062419 119.891437 
L 283.886922 164.246824 
L 285.772242 246.24 
L 287.596746 148.547992 
L 289.482066 119.961313 
L 291.367386 142.632088 
L 293.070255 153.183209 
L 294.955575 149.144051 
L 296.780079 44.64 
L 298.665399 94.393046 
L 300.489902 103.492314 
L 302.375222 149.315436 
L 304.260542 100.388309 
L 306.085045 122.100007 
L 307.970365 130.465817 
L 309.794869 152.640305 
L 311.680189 148.520368 
L 313.565509 154.67006 
L 315.268379 112.64371 
L 317.153699 106.059517 
L 318.978202 123.22514 
L 320.863522 168.949407 
L 322.688025 155.534561 
L 324.573345 134.962567 
L 326.458665 134.798484 
L 328.283169 126.454627 
L 330.168489 116.582808 
L 331.992992 131.960647 
L 333.878312 114.809472 
L 335.763632 115.719415 
L 337.466502 128.0586 
L 339.351822 143.294412 
L 341.176325 128.346135 
L 343.061645 134.018578 
L 344.886148 161.432989 
L 346.771468 117.555185 
L 348.656788 194.700394 
L 350.481292 142.867507 
L 352.366612 123.695806 
L 354.191115 123.144457 
L 356.076435 136.860643 
L 357.961755 114.326299 
L 359.725442 122.086803 
L 361.610762 126.882975 
L 363.435265 134.538236 
L 365.320585 157.326386 
L 367.145088 144.356116 
L 369.030408 124.077316 
L 370.915728 124.494191 
L 372.740232 119.118904 
L 374.625552 141.365377 
L 376.450055 149.699926 
L 378.335375 125.667826 
L 380.220695 115.452033 
L 381.923565 125.121046 
L 383.808885 125.187842 
L 385.633388 133.246074 
L 387.518708 120.795849 
L 389.343212 140.362579 
L 391.228532 110.747031 
L 393.113852 137.061765 
L 394.938355 129.378121 
L 396.823675 127.145263 
L 398.648178 123.98529 
L 400.533498 129.682381 
L 402.418818 130.213425 
L 404.121688 139.504909 
L 406.007008 124.757866 
L 407.831511 137.023575 
L 409.716831 128.598779 
L 411.541335 125.060515 
L 413.426655 130.250783 
L 415.311975 141.029144 
L 417.136478 128.508162 
L 419.021798 148.423703 
L 420.846301 110.24308 
L 422.731621 136.913973 
L 424.616942 144.2418 
L 426.319811 127.779896 
L 428.205131 132.498362 
L 430.029635 130.361757 
L 431.914955 134.986965 
L 433.739458 130.667232 
L 435.624778 134.021646 
L 437.510098 149.93755 
L 439.334601 158.495053 
L 441.219921 107.524458 
L 443.044425 129.182342 
L 444.929745 137.916021 
L 446.815065 168.591132 
L 448.578751 133.840647 
L 450.464071 112.300471 
L 452.288575 123.111469 
L 454.173895 142.407915 
L 455.998398 128.466442 
L 457.883718 125.713983 
L 459.769038 136.45012 
L 461.593541 134.978229 
L 463.478861 135.608958 
L 465.303365 126.044473 
L 467.188685 109.02475 
L 469.074005 128.803046 
L 470.776874 127.678337 
L 472.662194 129.53892 
L 474.486698 136.676995 
L 476.372018 130.728279 
L 478.196521 127.516426 
L 480.081841 134.892058 
L 481.967161 131.383044 
L 483.791664 130.872516 
L 485.676984 123.409033 
L 487.501488 127.012814 
L 489.386808 124.043272 
L 491.272128 113.747951 
L 492.974998 152.197404 
L 494.860318 126.685208 
L 496.684821 146.783507 
L 498.570141 123.328641 
L 500.394644 126.378722 
L 502.279964 131.740545 
L 504.165284 125.149684 
L 505.989788 129.976076 
L 507.875108 155.061297 
L 509.699611 139.021363 
L 511.584931 163.807335 
L 513.470251 125.327863 
L 515.173121 111.483244 
L 517.058441 132.687705 
L 518.882944 120.614805 
L 520.768264 147.596734 
L 522.592767 128.491727 
L 524.478087 125.907703 
L 526.363407 165.382909 
L 528.187911 111.902369 
L 530.073231 137.885891 
L 531.897734 114.156194 
L 533.783054 126.341331 
L 535.668374 121.009698 
L 537.432061 139.704076 
L 539.317381 245.012658 
L 541.141884 105.455633 
L 543.027204 120.167517 
L 544.851707 104.671259 
L 546.737027 119.451554 
L 548.622347 116.690203 
L 550.446851 140.416267 
L 552.332171 122.619708 
L 554.156674 111.058189 
L 556.041994 115.043785 
L 557.927314 122.668918 
L 559.630184 122.163422 
L 561.515504 129.981694 
L 563.340007 99.384142 
L 565.225327 141.563491 
L 567.049831 127.601311 
L 568.935151 125.573153 
L 570.820471 132.709698 
L 572.644974 137.852775 
L 574.530294 130.280927 
L 576.354797 109.234241 
L 578.240117 142.524865 
L 580.125437 147.940908 
L 581.828307 140.406453 
L 583.713627 135.916589 
L 585.53813 132.175564 
L 587.42345 168.364144 
L 589.247954 143.544614 
L 591.133274 128.297489 
L 593.018594 109.671611 
L 594.843097 179.550689 
L 596.728417 132.72256 
L 598.55292 104.641952 
L 600.43824 144.422474 
L 602.323561 129.292486 
L 604.02643 121.899978 
L 605.91175 148.941592 
L 607.736254 113.892579 
L 609.621574 139.084773 
L 611.446077 109.268014 
L 613.331397 120.273855 
L 615.216717 142.545589 
L 617.04122 135.779041 
L 618.92654 148.712659 
L 620.751044 106.72607 
L 622.636364 120.025046 
L 622.636364 120.025046 
" clip-path="url(#pe4c8446c43)" style="fill: none; stroke: #0000ff; stroke-width: 1.5; stroke-linecap: square"/>
    <defs>
     <path id="mc3603ebdf9" d="M 0 3 
C 0.795609 3 1.55874 2.683901 2.12132 2.12132 
C 2.683901 1.55874 3 0.795609 3 0 
C 3 -0.795609 2.683901 -1.55874 2.12132 -2.12132 
C 1.55874 -2.683901 0.795609 -3 0 -3 
C -0.795609 -3 -1.55874 -2.683901 -2.12132 -2.12132 
C -2.683901 -1.55874 -3 -0.795609 -3 0 
C -3 0.795609 -2.683901 1.55874 -2.12132 2.12132 
C -1.55874 2.683901 -0.795609 3 0 3 
z
" style="stroke: #0000ff"/>
    </defs>
    <g clip-path="url(#pe4c8446c43)">
     <use xlink:href="#mc3603ebdf9" x="115.363636" y="150.438531" style="fill: #0000ff; stroke: #0000ff"/>
     <use xlink:href="#mc3603ebdf9" x="117.248956" y="184.140712" style="fill: #0000ff; stroke: #0000ff"/>
     <use xlink:href="#mc3603ebdf9" x="119.07346" y="129.031007" style="fill: #0000ff; stroke: #0000ff"/>
     <use xlink:href="#mc3603ebdf9" x="120.95878" y="102.947628" style="fill: #0000ff; stroke: #0000ff"/>
     <use xlink:href="#mc3603ebdf9" x="122.783283" y="155.401311" style="fill: #0000ff; stroke: #0000ff"/>
     <use xlink:href="#mc3603ebdf9" x="124.668603" y="152.055015" style="fill: #0000ff; stroke: #0000ff"/>
     <use xlink:href="#mc3603ebdf9" x="126.553923" y="146.795237" style="fill: #0000ff; stroke: #0000ff"/>
     <use xlink:href="#mc3603ebdf9" x="128.378426" y="199.552741" style="fill: #0000ff; stroke: #0000ff"/>
     <use xlink:href="#mc3603ebdf9" x="130.263746" y="110.662987" style="fill: #0000ff; stroke: #0000ff"/>
     <use xlink:href="#mc3603ebdf9" x="132.08825" y="115.393715" style="fill: #0000ff; stroke: #0000ff"/>
     <use xlink:href="#mc3603ebdf9" x="133.97357" y="130.525315" style="fill: #0000ff; stroke: #0000ff"/>
     <use xlink:href="#mc3603ebdf9" x="135.85889" y="129.897734" style="fill: #0000ff; stroke: #0000ff"/>
     <use xlink:href="#mc3603ebdf9" x="137.56176" y="149.301104" style="fill: #0000ff; stroke: #0000ff"/>
     <use xlink:href="#mc3603ebdf9" x="139.44708" y="106.303514" style="fill: #0000ff; stroke: #0000ff"/>
     <use xlink:href="#mc3603ebdf9" x="141.271583" y="149.081233" style="fill: #0000ff; stroke: #0000ff"/>
     <use xlink:href="#mc3603ebdf9" x="143.156903" y="142.748633" style="fill: #0000ff; stroke: #0000ff"/>
     <use xlink:href="#mc3603ebdf9" x="144.981406" y="159.6129" style="fill: #0000ff; stroke: #0000ff"/>
     <use xlink:href="#mc3603ebdf9" x="146.866726" y="185.733578" style="fill: #0000ff; stroke: #0000ff"/>
     <use xlink:href="#mc3603ebdf9" x="148.752046" y="118.015991" style="fill: #0000ff; stroke: #0000ff"/>
     <use xlink:href="#mc3603ebdf9" x="150.57655" y="164.154094" style="fill: #0000ff; stroke: #0000ff"/>
     <use xlink:href="#mc3603ebdf9" x="152.46187" y="141.293716" style="fill: #0000ff; stroke: #0000ff"/>
     <use xlink:href="#mc3603ebdf9" x="154.286373" y="101.715432" style="fill: #0000ff; stroke: #0000ff"/>
     <use xlink:href="#mc3603ebdf9" x="156.171693" y="146.01929" style="fill: #0000ff; stroke: #0000ff"/>
     <use xlink:href="#mc3603ebdf9" x="158.057013" y="136.18058" style="fill: #0000ff; stroke: #0000ff"/>
     <use xlink:href="#mc3603ebdf9" x="159.759883" y="165.020985" style="fill: #0000ff; stroke: #0000ff"/>
     <use xlink:href="#mc3603ebdf9" x="161.645203" y="122.308157" style="fill: #0000ff; stroke: #0000ff"/>
     <use xlink:href="#mc3603ebdf9" x="163.469706" y="110.673903" style="fill: #0000ff; stroke: #0000ff"/>
     <use xlink:href="#mc3603ebdf9" x="165.355026" y="109.479497" style="fill: #0000ff; stroke: #0000ff"/>
     <use xlink:href="#mc3603ebdf9" x="167.179529" y="117.858606" style="fill: #0000ff; stroke: #0000ff"/>
     <use xlink:href="#mc3603ebdf9" x="169.064849" y="141.264408" style="fill: #0000ff; stroke: #0000ff"/>
     <use xlink:href="#mc3603ebdf9" x="170.950169" y="122.878427" style="fill: #0000ff; stroke: #0000ff"/>
     <use xlink:href="#mc3603ebdf9" x="172.774673" y="110.567583" style="fill: #0000ff; stroke: #0000ff"/>
     <use xlink:href="#mc3603ebdf9" x="174.659993" y="129.839405" style="fill: #0000ff; stroke: #0000ff"/>
     <use xlink:href="#mc3603ebdf9" x="176.484496" y="127.942339" style="fill: #0000ff; stroke: #0000ff"/>
     <use xlink:href="#mc3603ebdf9" x="178.369816" y="119.135785" style="fill: #0000ff; stroke: #0000ff"/>
     <use xlink:href="#mc3603ebdf9" x="180.255136" y="113.57754" style="fill: #0000ff; stroke: #0000ff"/>
     <use xlink:href="#mc3603ebdf9" x="182.018823" y="137.736445" style="fill: #0000ff; stroke: #0000ff"/>
     <use xlink:href="#mc3603ebdf9" x="183.904143" y="146.460529" style="fill: #0000ff; stroke: #0000ff"/>
     <use xlink:href="#mc3603ebdf9" x="185.728646" y="134.293371" style="fill: #0000ff; stroke: #0000ff"/>
     <use xlink:href="#mc3603ebdf9" x="187.613966" y="142.231858" style="fill: #0000ff; stroke: #0000ff"/>
     <use xlink:href="#mc3603ebdf9" x="189.438469" y="114.346007" style="fill: #0000ff; stroke: #0000ff"/>
     <use xlink:href="#mc3603ebdf9" x="191.323789" y="150.639261" style="fill: #0000ff; stroke: #0000ff"/>
     <use xlink:href="#mc3603ebdf9" x="193.209109" y="145.1728" style="fill: #0000ff; stroke: #0000ff"/>
     <use xlink:href="#mc3603ebdf9" x="195.033613" y="125.594061" style="fill: #0000ff; stroke: #0000ff"/>
     <use xlink:href="#mc3603ebdf9" x="196.918933" y="142.226556" style="fill: #0000ff; stroke: #0000ff"/>
     <use xlink:href="#mc3603ebdf9" x="198.743436" y="115.09135" style="fill: #0000ff; stroke: #0000ff"/>
     <use xlink:href="#mc3603ebdf9" x="200.628756" y="127.607162" style="fill: #0000ff; stroke: #0000ff"/>
     <use xlink:href="#mc3603ebdf9" x="202.514076" y="146.379151" style="fill: #0000ff; stroke: #0000ff"/>
     <use xlink:href="#mc3603ebdf9" x="204.216946" y="127.702153" style="fill: #0000ff; stroke: #0000ff"/>
     <use xlink:href="#mc3603ebdf9" x="206.102266" y="141.052253" style="fill: #0000ff; stroke: #0000ff"/>
     <use xlink:href="#mc3603ebdf9" x="207.926769" y="144.273525" style="fill: #0000ff; stroke: #0000ff"/>
     <use xlink:href="#mc3603ebdf9" x="209.812089" y="130.317476" style="fill: #0000ff; stroke: #0000ff"/>
     <use xlink:href="#mc3603ebdf9" x="211.636593" y="130.945018" style="fill: #0000ff; stroke: #0000ff"/>
     <use xlink:href="#mc3603ebdf9" x="213.521913" y="132.879798" style="fill: #0000ff; stroke: #0000ff"/>
     <use xlink:href="#mc3603ebdf9" x="215.407233" y="134.729575" style="fill: #0000ff; stroke: #0000ff"/>
     <use xlink:href="#mc3603ebdf9" x="217.231736" y="134.982769" style="fill: #0000ff; stroke: #0000ff"/>
     <use xlink:href="#mc3603ebdf9" x="219.117056" y="151.862512" style="fill: #0000ff; stroke: #0000ff"/>
     <use xlink:href="#mc3603ebdf9" x="220.941559" y="111.397922" style="fill: #0000ff; stroke: #0000ff"/>
     <use xlink:href="#mc3603ebdf9" x="222.826879" y="129.648726" style="fill: #0000ff; stroke: #0000ff"/>
     <use xlink:href="#mc3603ebdf9" x="224.712199" y="133.265112" style="fill: #0000ff; stroke: #0000ff"/>
     <use xlink:href="#mc3603ebdf9" x="226.415069" y="139.77651" style="fill: #0000ff; stroke: #0000ff"/>
     <use xlink:href="#mc3603ebdf9" x="228.300389" y="127.990972" style="fill: #0000ff; stroke: #0000ff"/>
     <use xlink:href="#mc3603ebdf9" x="230.124892" y="132.943257" style="fill: #0000ff; stroke: #0000ff"/>
     <use xlink:href="#mc3603ebdf9" x="232.010212" y="138.76022" style="fill: #0000ff; stroke: #0000ff"/>
     <use xlink:href="#mc3603ebdf9" x="233.834716" y="148.882455" style="fill: #0000ff; stroke: #0000ff"/>
     <use xlink:href="#mc3603ebdf9" x="235.720036" y="131.226864" style="fill: #0000ff; stroke: #0000ff"/>
     <use xlink:href="#mc3603ebdf9" x="237.605356" y="127.02366" style="fill: #0000ff; stroke: #0000ff"/>
     <use xlink:href="#mc3603ebdf9" x="239.429859" y="129.982489" style="fill: #0000ff; stroke: #0000ff"/>
     <use xlink:href="#mc3603ebdf9" x="241.315179" y="124.462874" style="fill: #0000ff; stroke: #0000ff"/>
     <use xlink:href="#mc3603ebdf9" x="243.139682" y="131.227005" style="fill: #0000ff; stroke: #0000ff"/>
     <use xlink:href="#mc3603ebdf9" x="245.025002" y="130.814893" style="fill: #0000ff; stroke: #0000ff"/>
     <use xlink:href="#mc3603ebdf9" x="246.910323" y="136.875148" style="fill: #0000ff; stroke: #0000ff"/>
     <use xlink:href="#mc3603ebdf9" x="248.613192" y="127.716379" style="fill: #0000ff; stroke: #0000ff"/>
     <use xlink:href="#mc3603ebdf9" x="250.498512" y="152.313116" style="fill: #0000ff; stroke: #0000ff"/>
     <use xlink:href="#mc3603ebdf9" x="252.323016" y="116.949589" style="fill: #0000ff; stroke: #0000ff"/>
     <use xlink:href="#mc3603ebdf9" x="254.208336" y="123.349517" style="fill: #0000ff; stroke: #0000ff"/>
     <use xlink:href="#mc3603ebdf9" x="256.032839" y="138.350698" style="fill: #0000ff; stroke: #0000ff"/>
     <use xlink:href="#mc3603ebdf9" x="257.918159" y="130.235731" style="fill: #0000ff; stroke: #0000ff"/>
     <use xlink:href="#mc3603ebdf9" x="259.803479" y="161.656375" style="fill: #0000ff; stroke: #0000ff"/>
     <use xlink:href="#mc3603ebdf9" x="261.627982" y="123.16178" style="fill: #0000ff; stroke: #0000ff"/>
     <use xlink:href="#mc3603ebdf9" x="263.513302" y="128.694639" style="fill: #0000ff; stroke: #0000ff"/>
     <use xlink:href="#mc3603ebdf9" x="265.337806" y="166.179847" style="fill: #0000ff; stroke: #0000ff"/>
     <use xlink:href="#mc3603ebdf9" x="267.223126" y="132.798326" style="fill: #0000ff; stroke: #0000ff"/>
     <use xlink:href="#mc3603ebdf9" x="269.108446" y="174.285119" style="fill: #0000ff; stroke: #0000ff"/>
     <use xlink:href="#mc3603ebdf9" x="270.872132" y="143.833204" style="fill: #0000ff; stroke: #0000ff"/>
     <use xlink:href="#mc3603ebdf9" x="272.757452" y="148.516273" style="fill: #0000ff; stroke: #0000ff"/>
     <use xlink:href="#mc3603ebdf9" x="274.581956" y="117.3641" style="fill: #0000ff; stroke: #0000ff"/>
     <use xlink:href="#mc3603ebdf9" x="276.467276" y="125.194822" style="fill: #0000ff; stroke: #0000ff"/>
     <use xlink:href="#mc3603ebdf9" x="278.291779" y="157.092126" style="fill: #0000ff; stroke: #0000ff"/>
     <use xlink:href="#mc3603ebdf9" x="280.177099" y="158.903191" style="fill: #0000ff; stroke: #0000ff"/>
     <use xlink:href="#mc3603ebdf9" x="282.062419" y="119.891437" style="fill: #0000ff; stroke: #0000ff"/>
     <use xlink:href="#mc3603ebdf9" x="283.886922" y="164.246824" style="fill: #0000ff; stroke: #0000ff"/>
     <use xlink:href="#mc3603ebdf9" x="285.772242" y="246.24" style="fill: #0000ff; stroke: #0000ff"/>
     <use xlink:href="#mc3603ebdf9" x="287.596746" y="148.547992" style="fill: #0000ff; stroke: #0000ff"/>
     <use xlink:href="#mc3603ebdf9" x="289.482066" y="119.961313" style="fill: #0000ff; stroke: #0000ff"/>
     <use xlink:href="#mc3603ebdf9" x="291.367386" y="142.632088" style="fill: #0000ff; stroke: #0000ff"/>
     <use xlink:href="#mc3603ebdf9" x="293.070255" y="153.183209" style="fill: #0000ff; stroke: #0000ff"/>
     <use xlink:href="#mc3603ebdf9" x="294.955575" y="149.144051" style="fill: #0000ff; stroke: #0000ff"/>
     <use xlink:href="#mc3603ebdf9" x="296.780079" y="44.64" style="fill: #0000ff; stroke: #0000ff"/>
     <use xlink:href="#mc3603ebdf9" x="298.665399" y="94.393046" style="fill: #0000ff; stroke: #0000ff"/>
     <use xlink:href="#mc3603ebdf9" x="300.489902" y="103.492314" style="fill: #0000ff; stroke: #0000ff"/>
     <use xlink:href="#mc3603ebdf9" x="302.375222" y="149.315436" style="fill: #0000ff; stroke: #0000ff"/>
     <use xlink:href="#mc3603ebdf9" x="304.260542" y="100.388309" style="fill: #0000ff; stroke: #0000ff"/>
     <use xlink:href="#mc3603ebdf9" x="306.085045" y="122.100007" style="fill: #0000ff; stroke: #0000ff"/>
     <use xlink:href="#mc3603ebdf9" x="307.970365" y="130.465817" style="fill: #0000ff; stroke: #0000ff"/>
     <use xlink:href="#mc3603ebdf9" x="309.794869" y="152.640305" style="fill: #0000ff; stroke: #0000ff"/>
     <use xlink:href="#mc3603ebdf9" x="311.680189" y="148.520368" style="fill: #0000ff; stroke: #0000ff"/>
     <use xlink:href="#mc3603ebdf9" x="313.565509" y="154.67006" style="fill: #0000ff; stroke: #0000ff"/>
     <use xlink:href="#mc3603ebdf9" x="315.268379" y="112.64371" style="fill: #0000ff; stroke: #0000ff"/>
     <use xlink:href="#mc3603ebdf9" x="317.153699" y="106.059517" style="fill: #0000ff; stroke: #0000ff"/>
     <use xlink:href="#mc3603ebdf9" x="318.978202" y="123.22514" style="fill: #0000ff; stroke: #0000ff"/>
     <use xlink:href="#mc3603ebdf9" x="320.863522" y="168.949407" style="fill: #0000ff; stroke: #0000ff"/>
     <use xlink:href="#mc3603ebdf9" x="322.688025" y="155.534561" style="fill: #0000ff; stroke: #0000ff"/>
     <use xlink:href="#mc3603ebdf9" x="324.573345" y="134.962567" style="fill: #0000ff; stroke: #0000ff"/>
     <use xlink:href="#mc3603ebdf9" x="326.458665" y="134.798484" style="fill: #0000ff; stroke: #0000ff"/>
     <use xlink:href="#mc3603ebdf9" x="328.283169" y="126.454627" style="fill: #0000ff; stroke: #0000ff"/>
     <use xlink:href="#mc3603ebdf9" x="330.168489" y="116.582808" style="fill: #0000ff; stroke: #0000ff"/>
     <use xlink:href="#mc3603ebdf9" x="331.992992" y="131.960647" style="fill: #0000ff; stroke: #0000ff"/>
     <use xlink:href="#mc3603ebdf9" x="333.878312" y="114.809472" style="fill: #0000ff; stroke: #0000ff"/>
     <use xlink:href="#mc3603ebdf9" x="335.763632" y="115.719415" style="fill: #0000ff; stroke: #0000ff"/>
     <use xlink:href="#mc3603ebdf9" x="337.466502" y="128.0586" style="fill: #0000ff; stroke: #0000ff"/>
     <use xlink:href="#mc3603ebdf9" x="339.351822" y="143.294412" style="fill: #0000ff; stroke: #0000ff"/>
     <use xlink:href="#mc3603ebdf9" x="341.176325" y="128.346135" style="fill: #0000ff; stroke: #0000ff"/>
     <use xlink:href="#mc3603ebdf9" x="343.061645" y="134.018578" style="fill: #0000ff; stroke: #0000ff"/>
     <use xlink:href="#mc3603ebdf9" x="344.886148" y="161.432989" style="fill: #0000ff; stroke: #0000ff"/>
     <use xlink:href="#mc3603ebdf9" x="346.771468" y="117.555185" style="fill: #0000ff; stroke: #0000ff"/>
     <use xlink:href="#mc3603ebdf9" x="348.656788" y="194.700394" style="fill: #0000ff; stroke: #0000ff"/>
     <use xlink:href="#mc3603ebdf9" x="350.481292" y="142.867507" style="fill: #0000ff; stroke: #0000ff"/>
     <use xlink:href="#mc3603ebdf9" x="352.366612" y="123.695806" style="fill: #0000ff; stroke: #0000ff"/>
     <use xlink:href="#mc3603ebdf9" x="354.191115" y="123.144457" style="fill: #0000ff; stroke: #0000ff"/>
     <use xlink:href="#mc3603ebdf9" x="356.076435" y="136.860643" style="fill: #0000ff; stroke: #0000ff"/>
     <use xlink:href="#mc3603ebdf9" x="357.961755" y="114.326299" style="fill: #0000ff; stroke: #0000ff"/>
     <use xlink:href="#mc3603ebdf9" x="359.725442" y="122.086803" style="fill: #0000ff; stroke: #0000ff"/>
     <use xlink:href="#mc3603ebdf9" x="361.610762" y="126.882975" style="fill: #0000ff; stroke: #0000ff"/>
     <use xlink:href="#mc3603ebdf9" x="363.435265" y="134.538236" style="fill: #0000ff; stroke: #0000ff"/>
     <use xlink:href="#mc3603ebdf9" x="365.320585" y="157.326386" style="fill: #0000ff; stroke: #0000ff"/>
     <use xlink:href="#mc3603ebdf9" x="367.145088" y="144.356116" style="fill: #0000ff; stroke: #0000ff"/>
     <use xlink:href="#mc3603ebdf9" x="369.030408" y="124.077316" style="fill: #0000ff; stroke: #0000ff"/>
     <use xlink:href="#mc3603ebdf9" x="370.915728" y="124.494191" style="fill: #0000ff; stroke: #0000ff"/>
     <use xlink:href="#mc3603ebdf9" x="372.740232" y="119.118904" style="fill: #0000ff; stroke: #0000ff"/>
     <use xlink:href="#mc3603ebdf9" x="374.625552" y="141.365377" style="fill: #0000ff; stroke: #0000ff"/>
     <use xlink:href="#mc3603ebdf9" x="376.450055" y="149.699926" style="fill: #0000ff; stroke: #0000ff"/>
     <use xlink:href="#mc3603ebdf9" x="378.335375" y="125.667826" style="fill: #0000ff; stroke: #0000ff"/>
     <use xlink:href="#mc3603ebdf9" x="380.220695" y="115.452033" style="fill: #0000ff; stroke: #0000ff"/>
     <use xlink:href="#mc3603ebdf9" x="381.923565" y="125.121046" style="fill: #0000ff; stroke: #0000ff"/>
     <use xlink:href="#mc3603ebdf9" x="383.808885" y="125.187842" style="fill: #0000ff; stroke: #0000ff"/>
     <use xlink:href="#mc3603ebdf9" x="385.633388" y="133.246074" style="fill: #0000ff; stroke: #0000ff"/>
     <use xlink:href="#mc3603ebdf9" x="387.518708" y="120.795849" style="fill: #0000ff; stroke: #0000ff"/>
     <use xlink:href="#mc3603ebdf9" x="389.343212" y="140.362579" style="fill: #0000ff; stroke: #0000ff"/>
     <use xlink:href="#mc3603ebdf9" x="391.228532" y="110.747031" style="fill: #0000ff; stroke: #0000ff"/>
     <use xlink:href="#mc3603ebdf9" x="393.113852" y="137.061765" style="fill: #0000ff; stroke: #0000ff"/>
     <use xlink:href="#mc3603ebdf9" x="394.938355" y="129.378121" style="fill: #0000ff; stroke: #0000ff"/>
     <use xlink:href="#mc3603ebdf9" x="396.823675" y="127.145263" style="fill: #0000ff; stroke: #0000ff"/>
     <use xlink:href="#mc3603ebdf9" x="398.648178" y="123.98529" style="fill: #0000ff; stroke: #0000ff"/>
     <use xlink:href="#mc3603ebdf9" x="400.533498" y="129.682381" style="fill: #0000ff; stroke: #0000ff"/>
     <use xlink:href="#mc3603ebdf9" x="402.418818" y="130.213425" style="fill: #0000ff; stroke: #0000ff"/>
     <use xlink:href="#mc3603ebdf9" x="404.121688" y="139.504909" style="fill: #0000ff; stroke: #0000ff"/>
     <use xlink:href="#mc3603ebdf9" x="406.007008" y="124.757866" style="fill: #0000ff; stroke: #0000ff"/>
     <use xlink:href="#mc3603ebdf9" x="407.831511" y="137.023575" style="fill: #0000ff; stroke: #0000ff"/>
     <use xlink:href="#mc3603ebdf9" x="409.716831" y="128.598779" style="fill: #0000ff; stroke: #0000ff"/>
     <use xlink:href="#mc3603ebdf9" x="411.541335" y="125.060515" style="fill: #0000ff; stroke: #0000ff"/>
     <use xlink:href="#mc3603ebdf9" x="413.426655" y="130.250783" style="fill: #0000ff; stroke: #0000ff"/>
     <use xlink:href="#mc3603ebdf9" x="415.311975" y="141.029144" style="fill: #0000ff; stroke: #0000ff"/>
     <use xlink:href="#mc3603ebdf9" x="417.136478" y="128.508162" style="fill: #0000ff; stroke: #0000ff"/>
     <use xlink:href="#mc3603ebdf9" x="419.021798" y="148.423703" style="fill: #0000ff; stroke: #0000ff"/>
     <use xlink:href="#mc3603ebdf9" x="420.846301" y="110.24308" style="fill: #0000ff; stroke: #0000ff"/>
     <use xlink:href="#mc3603ebdf9" x="422.731621" y="136.913973" style="fill: #0000ff; stroke: #0000ff"/>
     <use xlink:href="#mc3603ebdf9" x="424.616942" y="144.2418" style="fill: #0000ff; stroke: #0000ff"/>
     <use xlink:href="#mc3603ebdf9" x="426.319811" y="127.779896" style="fill: #0000ff; stroke: #0000ff"/>
     <use xlink:href="#mc3603ebdf9" x="428.205131" y="132.498362" style="fill: #0000ff; stroke: #0000ff"/>
     <use xlink:href="#mc3603ebdf9" x="430.029635" y="130.361757" style="fill: #0000ff; stroke: #0000ff"/>
     <use xlink:href="#mc3603ebdf9" x="431.914955" y="134.986965" style="fill: #0000ff; stroke: #0000ff"/>
     <use xlink:href="#mc3603ebdf9" x="433.739458" y="130.667232" style="fill: #0000ff; stroke: #0000ff"/>
     <use xlink:href="#mc3603ebdf9" x="435.624778" y="134.021646" style="fill: #0000ff; stroke: #0000ff"/>
     <use xlink:href="#mc3603ebdf9" x="437.510098" y="149.93755" style="fill: #0000ff; stroke: #0000ff"/>
     <use xlink:href="#mc3603ebdf9" x="439.334601" y="158.495053" style="fill: #0000ff; stroke: #0000ff"/>
     <use xlink:href="#mc3603ebdf9" x="441.219921" y="107.524458" style="fill: #0000ff; stroke: #0000ff"/>
     <use xlink:href="#mc3603ebdf9" x="443.044425" y="129.182342" style="fill: #0000ff; stroke: #0000ff"/>
     <use xlink:href="#mc3603ebdf9" x="444.929745" y="137.916021" style="fill: #0000ff; stroke: #0000ff"/>
     <use xlink:href="#mc3603ebdf9" x="446.815065" y="168.591132" style="fill: #0000ff; stroke: #0000ff"/>
     <use xlink:href="#mc3603ebdf9" x="448.578751" y="133.840647" style="fill: #0000ff; stroke: #0000ff"/>
     <use xlink:href="#mc3603ebdf9" x="450.464071" y="112.300471" style="fill: #0000ff; stroke: #0000ff"/>
     <use xlink:href="#mc3603ebdf9" x="452.288575" y="123.111469" style="fill: #0000ff; stroke: #0000ff"/>
     <use xlink:href="#mc3603ebdf9" x="454.173895" y="142.407915" style="fill: #0000ff; stroke: #0000ff"/>
     <use xlink:href="#mc3603ebdf9" x="455.998398" y="128.466442" style="fill: #0000ff; stroke: #0000ff"/>
     <use xlink:href="#mc3603ebdf9" x="457.883718" y="125.713983" style="fill: #0000ff; stroke: #0000ff"/>
     <use xlink:href="#mc3603ebdf9" x="459.769038" y="136.45012" style="fill: #0000ff; stroke: #0000ff"/>
     <use xlink:href="#mc3603ebdf9" x="461.593541" y="134.978229" style="fill: #0000ff; stroke: #0000ff"/>
     <use xlink:href="#mc3603ebdf9" x="463.478861" y="135.608958" style="fill: #0000ff; stroke: #0000ff"/>
     <use xlink:href="#mc3603ebdf9" x="465.303365" y="126.044473" style="fill: #0000ff; stroke: #0000ff"/>
     <use xlink:href="#mc3603ebdf9" x="467.188685" y="109.02475" style="fill: #0000ff; stroke: #0000ff"/>
     <use xlink:href="#mc3603ebdf9" x="469.074005" y="128.803046" style="fill: #0000ff; stroke: #0000ff"/>
     <use xlink:href="#mc3603ebdf9" x="470.776874" y="127.678337" style="fill: #0000ff; stroke: #0000ff"/>
     <use xlink:href="#mc3603ebdf9" x="472.662194" y="129.53892" style="fill: #0000ff; stroke: #0000ff"/>
     <use xlink:href="#mc3603ebdf9" x="474.486698" y="136.676995" style="fill: #0000ff; stroke: #0000ff"/>
     <use xlink:href="#mc3603ebdf9" x="476.372018" y="130.728279" style="fill: #0000ff; stroke: #0000ff"/>
     <use xlink:href="#mc3603ebdf9" x="478.196521" y="127.516426" style="fill: #0000ff; stroke: #0000ff"/>
     <use xlink:href="#mc3603ebdf9" x="480.081841" y="134.892058" style="fill: #0000ff; stroke: #0000ff"/>
     <use xlink:href="#mc3603ebdf9" x="481.967161" y="131.383044" style="fill: #0000ff; stroke: #0000ff"/>
     <use xlink:href="#mc3603ebdf9" x="483.791664" y="130.872516" style="fill: #0000ff; stroke: #0000ff"/>
     <use xlink:href="#mc3603ebdf9" x="485.676984" y="123.409033" style="fill: #0000ff; stroke: #0000ff"/>
     <use xlink:href="#mc3603ebdf9" x="487.501488" y="127.012814" style="fill: #0000ff; stroke: #0000ff"/>
     <use xlink:href="#mc3603ebdf9" x="489.386808" y="124.043272" style="fill: #0000ff; stroke: #0000ff"/>
     <use xlink:href="#mc3603ebdf9" x="491.272128" y="113.747951" style="fill: #0000ff; stroke: #0000ff"/>
     <use xlink:href="#mc3603ebdf9" x="492.974998" y="152.197404" style="fill: #0000ff; stroke: #0000ff"/>
     <use xlink:href="#mc3603ebdf9" x="494.860318" y="126.685208" style="fill: #0000ff; stroke: #0000ff"/>
     <use xlink:href="#mc3603ebdf9" x="496.684821" y="146.783507" style="fill: #0000ff; stroke: #0000ff"/>
     <use xlink:href="#mc3603ebdf9" x="498.570141" y="123.328641" style="fill: #0000ff; stroke: #0000ff"/>
     <use xlink:href="#mc3603ebdf9" x="500.394644" y="126.378722" style="fill: #0000ff; stroke: #0000ff"/>
     <use xlink:href="#mc3603ebdf9" x="502.279964" y="131.740545" style="fill: #0000ff; stroke: #0000ff"/>
     <use xlink:href="#mc3603ebdf9" x="504.165284" y="125.149684" style="fill: #0000ff; stroke: #0000ff"/>
     <use xlink:href="#mc3603ebdf9" x="505.989788" y="129.976076" style="fill: #0000ff; stroke: #0000ff"/>
     <use xlink:href="#mc3603ebdf9" x="507.875108" y="155.061297" style="fill: #0000ff; stroke: #0000ff"/>
     <use xlink:href="#mc3603ebdf9" x="509.699611" y="139.021363" style="fill: #0000ff; stroke: #0000ff"/>
     <use xlink:href="#mc3603ebdf9" x="511.584931" y="163.807335" style="fill: #0000ff; stroke: #0000ff"/>
     <use xlink:href="#mc3603ebdf9" x="513.470251" y="125.327863" style="fill: #0000ff; stroke: #0000ff"/>
     <use xlink:href="#mc3603ebdf9" x="515.173121" y="111.483244" style="fill: #0000ff; stroke: #0000ff"/>
     <use xlink:href="#mc3603ebdf9" x="517.058441" y="132.687705" style="fill: #0000ff; stroke: #0000ff"/>
     <use xlink:href="#mc3603ebdf9" x="518.882944" y="120.614805" style="fill: #0000ff; stroke: #0000ff"/>
     <use xlink:href="#mc3603ebdf9" x="520.768264" y="147.596734" style="fill: #0000ff; stroke: #0000ff"/>
     <use xlink:href="#mc3603ebdf9" x="522.592767" y="128.491727" style="fill: #0000ff; stroke: #0000ff"/>
     <use xlink:href="#mc3603ebdf9" x="524.478087" y="125.907703" style="fill: #0000ff; stroke: #0000ff"/>
     <use xlink:href="#mc3603ebdf9" x="526.363407" y="165.382909" style="fill: #0000ff; stroke: #0000ff"/>
     <use xlink:href="#mc3603ebdf9" x="528.187911" y="111.902369" style="fill: #0000ff; stroke: #0000ff"/>
     <use xlink:href="#mc3603ebdf9" x="530.073231" y="137.885891" style="fill: #0000ff; stroke: #0000ff"/>
     <use xlink:href="#mc3603ebdf9" x="531.897734" y="114.156194" style="fill: #0000ff; stroke: #0000ff"/>
     <use xlink:href="#mc3603ebdf9" x="533.783054" y="126.341331" style="fill: #0000ff; stroke: #0000ff"/>
     <use xlink:href="#mc3603ebdf9" x="535.668374" y="121.009698" style="fill: #0000ff; stroke: #0000ff"/>
     <use xlink:href="#mc3603ebdf9" x="537.432061" y="139.704076" style="fill: #0000ff; stroke: #0000ff"/>
     <use xlink:href="#mc3603ebdf9" x="539.317381" y="245.012658" style="fill: #0000ff; stroke: #0000ff"/>
     <use xlink:href="#mc3603ebdf9" x="541.141884" y="105.455633" style="fill: #0000ff; stroke: #0000ff"/>
     <use xlink:href="#mc3603ebdf9" x="543.027204" y="120.167517" style="fill: #0000ff; stroke: #0000ff"/>
     <use xlink:href="#mc3603ebdf9" x="544.851707" y="104.671259" style="fill: #0000ff; stroke: #0000ff"/>
     <use xlink:href="#mc3603ebdf9" x="546.737027" y="119.451554" style="fill: #0000ff; stroke: #0000ff"/>
     <use xlink:href="#mc3603ebdf9" x="548.622347" y="116.690203" style="fill: #0000ff; stroke: #0000ff"/>
     <use xlink:href="#mc3603ebdf9" x="550.446851" y="140.416267" style="fill: #0000ff; stroke: #0000ff"/>
     <use xlink:href="#mc3603ebdf9" x="552.332171" y="122.619708" style="fill: #0000ff; stroke: #0000ff"/>
     <use xlink:href="#mc3603ebdf9" x="554.156674" y="111.058189" style="fill: #0000ff; stroke: #0000ff"/>
     <use xlink:href="#mc3603ebdf9" x="556.041994" y="115.043785" style="fill: #0000ff; stroke: #0000ff"/>
     <use xlink:href="#mc3603ebdf9" x="557.927314" y="122.668918" style="fill: #0000ff; stroke: #0000ff"/>
     <use xlink:href="#mc3603ebdf9" x="559.630184" y="122.163422" style="fill: #0000ff; stroke: #0000ff"/>
     <use xlink:href="#mc3603ebdf9" x="561.515504" y="129.981694" style="fill: #0000ff; stroke: #0000ff"/>
     <use xlink:href="#mc3603ebdf9" x="563.340007" y="99.384142" style="fill: #0000ff; stroke: #0000ff"/>
     <use xlink:href="#mc3603ebdf9" x="565.225327" y="141.563491" style="fill: #0000ff; stroke: #0000ff"/>
     <use xlink:href="#mc3603ebdf9" x="567.049831" y="127.601311" style="fill: #0000ff; stroke: #0000ff"/>
     <use xlink:href="#mc3603ebdf9" x="568.935151" y="125.573153" style="fill: #0000ff; stroke: #0000ff"/>
     <use xlink:href="#mc3603ebdf9" x="570.820471" y="132.709698" style="fill: #0000ff; stroke: #0000ff"/>
     <use xlink:href="#mc3603ebdf9" x="572.644974" y="137.852775" style="fill: #0000ff; stroke: #0000ff"/>
     <use xlink:href="#mc3603ebdf9" x="574.530294" y="130.280927" style="fill: #0000ff; stroke: #0000ff"/>
     <use xlink:href="#mc3603ebdf9" x="576.354797" y="109.234241" style="fill: #0000ff; stroke: #0000ff"/>
     <use xlink:href="#mc3603ebdf9" x="578.240117" y="142.524865" style="fill: #0000ff; stroke: #0000ff"/>
     <use xlink:href="#mc3603ebdf9" x="580.125437" y="147.940908" style="fill: #0000ff; stroke: #0000ff"/>
     <use xlink:href="#mc3603ebdf9" x="581.828307" y="140.406453" style="fill: #0000ff; stroke: #0000ff"/>
     <use xlink:href="#mc3603ebdf9" x="583.713627" y="135.916589" style="fill: #0000ff; stroke: #0000ff"/>
     <use xlink:href="#mc3603ebdf9" x="585.53813" y="132.175564" style="fill: #0000ff; stroke: #0000ff"/>
     <use xlink:href="#mc3603ebdf9" x="587.42345" y="168.364144" style="fill: #0000ff; stroke: #0000ff"/>
     <use xlink:href="#mc3603ebdf9" x="589.247954" y="143.544614" style="fill: #0000ff; stroke: #0000ff"/>
     <use xlink:href="#mc3603ebdf9" x="591.133274" y="128.297489" style="fill: #0000ff; stroke: #0000ff"/>
     <use xlink:href="#mc3603ebdf9" x="593.018594" y="109.671611" style="fill: #0000ff; stroke: #0000ff"/>
     <use xlink:href="#mc3603ebdf9" x="594.843097" y="179.550689" style="fill: #0000ff; stroke: #0000ff"/>
     <use xlink:href="#mc3603ebdf9" x="596.728417" y="132.72256" style="fill: #0000ff; stroke: #0000ff"/>
     <use xlink:href="#mc3603ebdf9" x="598.55292" y="104.641952" style="fill: #0000ff; stroke: #0000ff"/>
     <use xlink:href="#mc3603ebdf9" x="600.43824" y="144.422474" style="fill: #0000ff; stroke: #0000ff"/>
     <use xlink:href="#mc3603ebdf9" x="602.323561" y="129.292486" style="fill: #0000ff; stroke: #0000ff"/>
     <use xlink:href="#mc3603ebdf9" x="604.02643" y="121.899978" style="fill: #0000ff; stroke: #0000ff"/>
     <use xlink:href="#mc3603ebdf9" x="605.91175" y="148.941592" style="fill: #0000ff; stroke: #0000ff"/>
     <use xlink:href="#mc3603ebdf9" x="607.736254" y="113.892579" style="fill: #0000ff; stroke: #0000ff"/>
     <use xlink:href="#mc3603ebdf9" x="609.621574" y="139.084773" style="fill: #0000ff; stroke: #0000ff"/>
     <use xlink:href="#mc3603ebdf9" x="611.446077" y="109.268014" style="fill: #0000ff; stroke: #0000ff"/>
     <use xlink:href="#mc3603ebdf9" x="613.331397" y="120.273855" style="fill: #0000ff; stroke: #0000ff"/>
     <use xlink:href="#mc3603ebdf9" x="615.216717" y="142.545589" style="fill: #0000ff; stroke: #0000ff"/>
     <use xlink:href="#mc3603ebdf9" x="617.04122" y="135.779041" style="fill: #0000ff; stroke: #0000ff"/>
     <use xlink:href="#mc3603ebdf9" x="618.92654" y="148.712659" style="fill: #0000ff; stroke: #0000ff"/>
     <use xlink:href="#mc3603ebdf9" x="620.751044" y="106.72607" style="fill: #0000ff; stroke: #0000ff"/>
     <use xlink:href="#mc3603ebdf9" x="622.636364" y="120.025046" style="fill: #0000ff; stroke: #0000ff"/>
    </g>
   </g>
   <g id="line2d_30">
    <path d="M 90 132.31076 
L 648 132.31076 
" clip-path="url(#pe4c8446c43)" style="fill: none; stroke-dasharray: 5.55,2.4; stroke-dashoffset: 0; stroke: #000000; stroke-width: 1.5"/>
   </g>
   <g id="patch_3">
    <path d="M 90 256.32 
L 90 34.56 
" style="fill: none; stroke: #000000; stroke-width: 0.8; stroke-linejoin: miter; stroke-linecap: square"/>
   </g>
   <g id="patch_4">
    <path d="M 648 256.32 
L 648 34.56 
" style="fill: none; stroke: #000000; stroke-width: 0.8; stroke-linejoin: miter; stroke-linecap: square"/>
   </g>
   <g id="patch_5">
    <path d="M 90 256.32 
L 648 256.32 
" style="fill: none; stroke: #000000; stroke-width: 0.8; stroke-linejoin: miter; stroke-linecap: square"/>
   </g>
   <g id="patch_6">
    <path d="M 90 34.56 
L 648 34.56 
" style="fill: none; stroke: #000000; stroke-width: 0.8; stroke-linejoin: miter; stroke-linecap: square"/>
   </g>
   <g id="text_17">
    <!-- Residui del modello Engle-Granger nel tempo -->
    <g transform="translate(232.378125 28.56) scale(0.12 -0.12)">
     <defs>
      <path id="DejaVuSans-20" transform="scale(0.015625)"/>
      <path id="DejaVuSans-6c" d="M 603 4863 
L 1178 4863 
L 1178 0 
L 603 0 
L 603 4863 
z
" transform="scale(0.015625)"/>
      <path id="DejaVuSans-6d" d="M 3328 2828 
Q 3544 3216 3844 3400 
Q 4144 3584 4550 3584 
Q 5097 3584 5394 3201 
Q 5691 2819 5691 2113 
L 5691 0 
L 5113 0 
L 5113 2094 
Q 5113 2597 4934 2840 
Q 4756 3084 4391 3084 
Q 3944 3084 3684 2787 
Q 3425 2491 3425 1978 
L 3425 0 
L 2847 0 
L 2847 2094 
Q 2847 2600 2669 2842 
Q 2491 3084 2119 3084 
Q 1678 3084 1418 2786 
Q 1159 2488 1159 1978 
L 1159 0 
L 581 0 
L 581 3500 
L 1159 3500 
L 1159 2956 
Q 1356 3278 1631 3431 
Q 1906 3584 2284 3584 
Q 2666 3584 2933 3390 
Q 3200 3197 3328 2828 
z
" transform="scale(0.015625)"/>
      <path id="DejaVuSans-6f" d="M 1959 3097 
Q 1497 3097 1228 2736 
Q 959 2375 959 1747 
Q 959 1119 1226 758 
Q 1494 397 1959 397 
Q 2419 397 2687 759 
Q 2956 1122 2956 1747 
Q 2956 2369 2687 2733 
Q 2419 3097 1959 3097 
z
M 1959 3584 
Q 2709 3584 3137 3096 
Q 3566 2609 3566 1747 
Q 3566 888 3137 398 
Q 2709 -91 1959 -91 
Q 1206 -91 779 398 
Q 353 888 353 1747 
Q 353 2609 779 3096 
Q 1206 3584 1959 3584 
z
" transform="scale(0.015625)"/>
      <path id="DejaVuSans-45" d="M 628 4666 
L 3578 4666 
L 3578 4134 
L 1259 4134 
L 1259 2753 
L 3481 2753 
L 3481 2222 
L 1259 2222 
L 1259 531 
L 3634 531 
L 3634 0 
L 628 0 
L 628 4666 
z
" transform="scale(0.015625)"/>
      <path id="DejaVuSans-6e" d="M 3513 2113 
L 3513 0 
L 2938 0 
L 2938 2094 
Q 2938 2591 2744 2837 
Q 2550 3084 2163 3084 
Q 1697 3084 1428 2787 
Q 1159 2491 1159 1978 
L 1159 0 
L 581 0 
L 581 3500 
L 1159 3500 
L 1159 2956 
Q 1366 3272 1645 3428 
Q 1925 3584 2291 3584 
Q 2894 3584 3203 3211 
Q 3513 2838 3513 2113 
z
" transform="scale(0.015625)"/>
      <path id="DejaVuSans-67" d="M 2906 1791 
Q 2906 2416 2648 2759 
Q 2391 3103 1925 3103 
Q 1463 3103 1205 2759 
Q 947 2416 947 1791 
Q 947 1169 1205 825 
Q 1463 481 1925 481 
Q 2391 481 2648 825 
Q 2906 1169 2906 1791 
z
M 3481 434 
Q 3481 -459 3084 -895 
Q 2688 -1331 1869 -1331 
Q 1566 -1331 1297 -1286 
Q 1028 -1241 775 -1147 
L 775 -588 
Q 1028 -725 1275 -790 
Q 1522 -856 1778 -856 
Q 2344 -856 2625 -561 
Q 2906 -266 2906 331 
L 2906 616 
Q 2728 306 2450 153 
Q 2172 0 1784 0 
Q 1141 0 747 490 
Q 353 981 353 1791 
Q 353 2603 747 3093 
Q 1141 3584 1784 3584 
Q 2172 3584 2450 3431 
Q 2728 3278 2906 2969 
L 2906 3500 
L 3481 3500 
L 3481 434 
z
" transform="scale(0.015625)"/>
      <path id="DejaVuSans-2d" d="M 313 2009 
L 1997 2009 
L 1997 1497 
L 313 1497 
L 313 2009 
z
" transform="scale(0.015625)"/>
      <path id="DejaVuSans-47" d="M 3809 666 
L 3809 1919 
L 2778 1919 
L 2778 2438 
L 4434 2438 
L 4434 434 
Q 4069 175 3628 42 
Q 3188 -91 2688 -91 
Q 1594 -91 976 548 
Q 359 1188 359 2328 
Q 359 3472 976 4111 
Q 1594 4750 2688 4750 
Q 3144 4750 3555 4637 
Q 3966 4525 4313 4306 
L 4313 3634 
Q 3963 3931 3569 4081 
Q 3175 4231 2741 4231 
Q 1884 4231 1454 3753 
Q 1025 3275 1025 2328 
Q 1025 1384 1454 906 
Q 1884 428 2741 428 
Q 3075 428 3337 486 
Q 3600 544 3809 666 
z
" transform="scale(0.015625)"/>
      <path id="DejaVuSans-72" d="M 2631 2963 
Q 2534 3019 2420 3045 
Q 2306 3072 2169 3072 
Q 1681 3072 1420 2755 
Q 1159 2438 1159 1844 
L 1159 0 
L 581 0 
L 581 3500 
L 1159 3500 
L 1159 2956 
Q 1341 3275 1631 3429 
Q 1922 3584 2338 3584 
Q 2397 3584 2469 3576 
Q 2541 3569 2628 3553 
L 2631 2963 
z
" transform="scale(0.015625)"/>
      <path id="DejaVuSans-70" d="M 1159 525 
L 1159 -1331 
L 581 -1331 
L 581 3500 
L 1159 3500 
L 1159 2969 
Q 1341 3281 1617 3432 
Q 1894 3584 2278 3584 
Q 2916 3584 3314 3078 
Q 3713 2572 3713 1747 
Q 3713 922 3314 415 
Q 2916 -91 2278 -91 
Q 1894 -91 1617 61 
Q 1341 213 1159 525 
z
M 3116 1747 
Q 3116 2381 2855 2742 
Q 2594 3103 2138 3103 
Q 1681 3103 1420 2742 
Q 1159 2381 1159 1747 
Q 1159 1113 1420 752 
Q 1681 391 2138 391 
Q 2594 391 2855 752 
Q 3116 1113 3116 1747 
z
" transform="scale(0.015625)"/>
     </defs>
     <use xlink:href="#DejaVuSans-52"/>
     <use xlink:href="#DejaVuSans-65" x="64.982422"/>
     <use xlink:href="#DejaVuSans-73" x="126.505859"/>
     <use xlink:href="#DejaVuSans-69" x="178.605469"/>
     <use xlink:href="#DejaVuSans-64" x="206.388672"/>
     <use xlink:href="#DejaVuSans-75" x="269.865234"/>
     <use xlink:href="#DejaVuSans-69" x="333.244141"/>
     <use xlink:href="#DejaVuSans-20" x="361.027344"/>
     <use xlink:href="#DejaVuSans-64" x="392.814453"/>
     <use xlink:href="#DejaVuSans-65" x="456.291016"/>
     <use xlink:href="#DejaVuSans-6c" x="517.814453"/>
     <use xlink:href="#DejaVuSans-20" x="545.597656"/>
     <use xlink:href="#DejaVuSans-6d" x="577.384766"/>
     <use xlink:href="#DejaVuSans-6f" x="674.796875"/>
     <use xlink:href="#DejaVuSans-64" x="735.978516"/>
     <use xlink:href="#DejaVuSans-65" x="799.455078"/>
     <use xlink:href="#DejaVuSans-6c" x="860.978516"/>
     <use xlink:href="#DejaVuSans-6c" x="888.761719"/>
     <use xlink:href="#DejaVuSans-6f" x="916.544922"/>
     <use xlink:href="#DejaVuSans-20" x="977.726562"/>
     <use xlink:href="#DejaVuSans-45" x="1009.513672"/>
     <use xlink:href="#DejaVuSans-6e" x="1072.697266"/>
     <use xlink:href="#DejaVuSans-67" x="1136.076172"/>
     <use xlink:href="#DejaVuSans-6c" x="1199.552734"/>
     <use xlink:href="#DejaVuSans-65" x="1227.335938"/>
     <use xlink:href="#DejaVuSans-2d" x="1288.859375"/>
     <use xlink:href="#DejaVuSans-47" x="1328.568359"/>
     <use xlink:href="#DejaVuSans-72" x="1406.058594"/>
     <use xlink:href="#DejaVuSans-61" x="1447.171875"/>
     <use xlink:href="#DejaVuSans-6e" x="1508.451172"/>
     <use xlink:href="#DejaVuSans-67" x="1571.830078"/>
     <use xlink:href="#DejaVuSans-65" x="1635.306641"/>
     <use xlink:href="#DejaVuSans-72" x="1696.830078"/>
     <use xlink:href="#DejaVuSans-20" x="1737.943359"/>
     <use xlink:href="#DejaVuSans-6e" x="1769.730469"/>
     <use xlink:href="#DejaVuSans-65" x="1833.109375"/>
     <use xlink:href="#DejaVuSans-6c" x="1894.632812"/>
     <use xlink:href="#DejaVuSans-20" x="1922.416016"/>
     <use xlink:href="#DejaVuSans-74" x="1954.203125"/>
     <use xlink:href="#DejaVuSans-65" x="1993.412109"/>
     <use xlink:href="#DejaVuSans-6d" x="2054.935547"/>
     <use xlink:href="#DejaVuSans-70" x="2152.347656"/>
     <use xlink:href="#DejaVuSans-6f" x="2215.824219"/>
    </g>
   </g>
   <g id="legend_1">
    <g id="patch_7">
     <path d="M 496.875 57.238125 
L 641 57.238125 
Q 643 57.238125 643 55.238125 
L 643 41.56 
Q 643 39.56 641 39.56 
L 496.875 39.56 
Q 494.875 39.56 494.875 41.56 
L 494.875 55.238125 
Q 494.875 57.238125 496.875 57.238125 
z
" style="fill: #ffffff; opacity: 0.8; stroke: #cccccc; stroke-linejoin: miter"/>
    </g>
    <g id="line2d_31">
     <path d="M 498.875 47.658438 
L 508.875 47.658438 
L 518.875 47.658438 
" style="fill: none; stroke: #0000ff; stroke-width: 1.5; stroke-linecap: square"/>
     <g>
      <use xlink:href="#mc3603ebdf9" x="508.875" y="47.658438" style="fill: #0000ff; stroke: #0000ff"/>
     </g>
    </g>
    <g id="text_18">
     <!-- Residui Engle-Granger -->
     <g transform="translate(526.875 51.158438) scale(0.1 -0.1)">
      <use xlink:href="#DejaVuSans-52"/>
      <use xlink:href="#DejaVuSans-65" x="64.982422"/>
      <use xlink:href="#DejaVuSans-73" x="126.505859"/>
      <use xlink:href="#DejaVuSans-69" x="178.605469"/>
      <use xlink:href="#DejaVuSans-64" x="206.388672"/>
      <use xlink:href="#DejaVuSans-75" x="269.865234"/>
      <use xlink:href="#DejaVuSans-69" x="333.244141"/>
      <use xlink:href="#DejaVuSans-20" x="361.027344"/>
      <use xlink:href="#DejaVuSans-45" x="392.814453"/>
      <use xlink:href="#DejaVuSans-6e" x="455.998047"/>
      <use xlink:href="#DejaVuSans-67" x="519.376953"/>
      <use xlink:href="#DejaVuSans-6c" x="582.853516"/>
      <use xlink:href="#DejaVuSans-65" x="610.636719"/>
      <use xlink:href="#DejaVuSans-2d" x="672.160156"/>
      <use xlink:href="#DejaVuSans-47" x="711.869141"/>
      <use xlink:href="#DejaVuSans-72" x="789.359375"/>
      <use xlink:href="#DejaVuSans-61" x="830.472656"/>
      <use xlink:href="#DejaVuSans-6e" x="891.751953"/>
      <use xlink:href="#DejaVuSans-67" x="955.130859"/>
      <use xlink:href="#DejaVuSans-65" x="1018.607422"/>
      <use xlink:href="#DejaVuSans-72" x="1080.130859"/>
     </g>
    </g>
   </g>
  </g>
 </g>
 <defs>
  <clipPath id="pe4c8446c43">
   <rect x="90" y="34.56" width="558" height="221.76"/>
  </clipPath>
 </defs>
</svg>
