<?xml version="1.0" encoding="utf-8" standalone="no"?>
<!DOCTYPE svg PUBLIC "-//W3C//DTD SVG 1.1//EN"
  "http://www.w3.org/Graphics/SVG/1.1/DTD/svg11.dtd">
<svg xmlns:xlink="http://www.w3.org/1999/xlink" width="720pt" height="288pt" viewBox="0 0 720 288" xmlns="http://www.w3.org/2000/svg" version="1.1">
 <metadata>
  <rdf:RDF xmlns:dc="http://purl.org/dc/elements/1.1/" xmlns:cc="http://creativecommons.org/ns#" xmlns:rdf="http://www.w3.org/1999/02/22-rdf-syntax-ns#">
   <cc:Work>
    <dc:type rdf:resource="http://purl.org/dc/dcmitype/StillImage"/>
    <dc:date>2025-03-13T17:12:07.971882</dc:date>
    <dc:format>image/svg+xml</dc:format>
    <dc:creator>
     <cc:Agent>
      <dc:title>Matplotlib v3.9.2, https://matplotlib.org/</dc:title>
     </cc:Agent>
    </dc:creator>
   </cc:Work>
  </rdf:RDF>
 </metadata>
 <defs>
  <style type="text/css">*{stroke-linejoin: round; stroke-linecap: butt}</style>
 </defs>
 <g id="figure_1">
  <g id="patch_1">
   <path d="M 0 288 
L 720 288 
L 720 0 
L 0 0 
z
" style="fill: #ffffff"/>
  </g>
  <g id="axes_1">
   <g id="patch_2">
    <path d="M 90 256.32 
L 648 256.32 
L 648 34.56 
L 90 34.56 
z
" style="fill: #ffffff"/>
   </g>
   <g id="matplotlib.axis_1">
    <g id="xtick_1">
     <g id="line2d_1">
      <path d="M 178.430633 256.32 
L 178.430633 34.56 
" clip-path="url(#p3b30227cbe)" style="fill: none; stroke: #b0b0b0; stroke-width: 0.8; stroke-linecap: square"/>
     </g>
     <g id="line2d_2">
      <defs>
       <path id="ma3bac5b788" d="M 0 0 
L 0 3.5 
" style="stroke: #000000; stroke-width: 0.8"/>
      </defs>
      <g>
       <use xlink:href="#ma3bac5b788" x="178.430633" y="256.32" style="stroke: #000000; stroke-width: 0.8"/>
      </g>
     </g>
     <g id="text_1">
      <!-- 2004 -->
      <g transform="translate(171.383872 286.688774) rotate(-45) scale(0.1 -0.1)">
       <defs>
        <path id="DejaVuSans-32" d="M 1228 531 
L 3431 531 
L 3431 0 
L 469 0 
L 469 531 
Q 828 903 1448 1529 
Q 2069 2156 2228 2338 
Q 2531 2678 2651 2914 
Q 2772 3150 2772 3378 
Q 2772 3750 2511 3984 
Q 2250 4219 1831 4219 
Q 1534 4219 1204 4116 
Q 875 4013 500 3803 
L 500 4441 
Q 881 4594 1212 4672 
Q 1544 4750 1819 4750 
Q 2544 4750 2975 4387 
Q 3406 4025 3406 3419 
Q 3406 3131 3298 2873 
Q 3191 2616 2906 2266 
Q 2828 2175 2409 1742 
Q 1991 1309 1228 531 
z
" transform="scale(0.015625)"/>
        <path id="DejaVuSans-30" d="M 2034 4250 
Q 1547 4250 1301 3770 
Q 1056 3291 1056 2328 
Q 1056 1369 1301 889 
Q 1547 409 2034 409 
Q 2525 409 2770 889 
Q 3016 1369 3016 2328 
Q 3016 3291 2770 3770 
Q 2525 4250 2034 4250 
z
M 2034 4750 
Q 2819 4750 3233 4129 
Q 3647 3509 3647 2328 
Q 3647 1150 3233 529 
Q 2819 -91 2034 -91 
Q 1250 -91 836 529 
Q 422 1150 422 2328 
Q 422 3509 836 4129 
Q 1250 4750 2034 4750 
z
" transform="scale(0.015625)"/>
        <path id="DejaVuSans-34" d="M 2419 4116 
L 825 1625 
L 2419 1625 
L 2419 4116 
z
M 2253 4666 
L 3047 4666 
L 3047 1625 
L 3713 1625 
L 3713 1100 
L 3047 1100 
L 3047 0 
L 2419 0 
L 2419 1100 
L 313 1100 
L 313 1709 
L 2253 4666 
z
" transform="scale(0.015625)"/>
       </defs>
       <use xlink:href="#DejaVuSans-32"/>
       <use xlink:href="#DejaVuSans-30" x="63.623047"/>
       <use xlink:href="#DejaVuSans-30" x="127.246094"/>
       <use xlink:href="#DejaVuSans-34" x="190.869141"/>
      </g>
     </g>
    </g>
    <g id="xtick_2">
     <g id="line2d_3">
      <path d="M 267.283942 256.32 
L 267.283942 34.56 
" clip-path="url(#p3b30227cbe)" style="fill: none; stroke: #b0b0b0; stroke-width: 0.8; stroke-linecap: square"/>
     </g>
     <g id="line2d_4">
      <g>
       <use xlink:href="#ma3bac5b788" x="267.283942" y="256.32" style="stroke: #000000; stroke-width: 0.8"/>
      </g>
     </g>
     <g id="text_2">
      <!-- 2008 -->
      <g transform="translate(260.237181 286.688774) rotate(-45) scale(0.1 -0.1)">
       <defs>
        <path id="DejaVuSans-38" d="M 2034 2216 
Q 1584 2216 1326 1975 
Q 1069 1734 1069 1313 
Q 1069 891 1326 650 
Q 1584 409 2034 409 
Q 2484 409 2743 651 
Q 3003 894 3003 1313 
Q 3003 1734 2745 1975 
Q 2488 2216 2034 2216 
z
M 1403 2484 
Q 997 2584 770 2862 
Q 544 3141 544 3541 
Q 544 4100 942 4425 
Q 1341 4750 2034 4750 
Q 2731 4750 3128 4425 
Q 3525 4100 3525 3541 
Q 3525 3141 3298 2862 
Q 3072 2584 2669 2484 
Q 3125 2378 3379 2068 
Q 3634 1759 3634 1313 
Q 3634 634 3220 271 
Q 2806 -91 2034 -91 
Q 1263 -91 848 271 
Q 434 634 434 1313 
Q 434 1759 690 2068 
Q 947 2378 1403 2484 
z
M 1172 3481 
Q 1172 3119 1398 2916 
Q 1625 2713 2034 2713 
Q 2441 2713 2670 2916 
Q 2900 3119 2900 3481 
Q 2900 3844 2670 4047 
Q 2441 4250 2034 4250 
Q 1625 4250 1398 4047 
Q 1172 3844 1172 3481 
z
" transform="scale(0.015625)"/>
       </defs>
       <use xlink:href="#DejaVuSans-32"/>
       <use xlink:href="#DejaVuSans-30" x="63.623047"/>
       <use xlink:href="#DejaVuSans-30" x="127.246094"/>
       <use xlink:href="#DejaVuSans-38" x="190.869141"/>
      </g>
     </g>
    </g>
    <g id="xtick_3">
     <g id="line2d_5">
      <path d="M 356.137252 256.32 
L 356.137252 34.56 
" clip-path="url(#p3b30227cbe)" style="fill: none; stroke: #b0b0b0; stroke-width: 0.8; stroke-linecap: square"/>
     </g>
     <g id="line2d_6">
      <g>
       <use xlink:href="#ma3bac5b788" x="356.137252" y="256.32" style="stroke: #000000; stroke-width: 0.8"/>
      </g>
     </g>
     <g id="text_3">
      <!-- 2012 -->
      <g transform="translate(349.090491 286.688774) rotate(-45) scale(0.1 -0.1)">
       <defs>
        <path id="DejaVuSans-31" d="M 794 531 
L 1825 531 
L 1825 4091 
L 703 3866 
L 703 4441 
L 1819 4666 
L 2450 4666 
L 2450 531 
L 3481 531 
L 3481 0 
L 794 0 
L 794 531 
z
" transform="scale(0.015625)"/>
       </defs>
       <use xlink:href="#DejaVuSans-32"/>
       <use xlink:href="#DejaVuSans-30" x="63.623047"/>
       <use xlink:href="#DejaVuSans-31" x="127.246094"/>
       <use xlink:href="#DejaVuSans-32" x="190.869141"/>
      </g>
     </g>
    </g>
    <g id="xtick_4">
     <g id="line2d_7">
      <path d="M 444.990561 256.32 
L 444.990561 34.56 
" clip-path="url(#p3b30227cbe)" style="fill: none; stroke: #b0b0b0; stroke-width: 0.8; stroke-linecap: square"/>
     </g>
     <g id="line2d_8">
      <g>
       <use xlink:href="#ma3bac5b788" x="444.990561" y="256.32" style="stroke: #000000; stroke-width: 0.8"/>
      </g>
     </g>
     <g id="text_4">
      <!-- 2016 -->
      <g transform="translate(437.9438 286.688774) rotate(-45) scale(0.1 -0.1)">
       <defs>
        <path id="DejaVuSans-36" d="M 2113 2584 
Q 1688 2584 1439 2293 
Q 1191 2003 1191 1497 
Q 1191 994 1439 701 
Q 1688 409 2113 409 
Q 2538 409 2786 701 
Q 3034 994 3034 1497 
Q 3034 2003 2786 2293 
Q 2538 2584 2113 2584 
z
M 3366 4563 
L 3366 3988 
Q 3128 4100 2886 4159 
Q 2644 4219 2406 4219 
Q 1781 4219 1451 3797 
Q 1122 3375 1075 2522 
Q 1259 2794 1537 2939 
Q 1816 3084 2150 3084 
Q 2853 3084 3261 2657 
Q 3669 2231 3669 1497 
Q 3669 778 3244 343 
Q 2819 -91 2113 -91 
Q 1303 -91 875 529 
Q 447 1150 447 2328 
Q 447 3434 972 4092 
Q 1497 4750 2381 4750 
Q 2619 4750 2861 4703 
Q 3103 4656 3366 4563 
z
" transform="scale(0.015625)"/>
       </defs>
       <use xlink:href="#DejaVuSans-32"/>
       <use xlink:href="#DejaVuSans-30" x="63.623047"/>
       <use xlink:href="#DejaVuSans-31" x="127.246094"/>
       <use xlink:href="#DejaVuSans-36" x="190.869141"/>
      </g>
     </g>
    </g>
    <g id="xtick_5">
     <g id="line2d_9">
      <path d="M 533.843871 256.32 
L 533.843871 34.56 
" clip-path="url(#p3b30227cbe)" style="fill: none; stroke: #b0b0b0; stroke-width: 0.8; stroke-linecap: square"/>
     </g>
     <g id="line2d_10">
      <g>
       <use xlink:href="#ma3bac5b788" x="533.843871" y="256.32" style="stroke: #000000; stroke-width: 0.8"/>
      </g>
     </g>
     <g id="text_5">
      <!-- 2020 -->
      <g transform="translate(526.79711 286.688774) rotate(-45) scale(0.1 -0.1)">
       <use xlink:href="#DejaVuSans-32"/>
       <use xlink:href="#DejaVuSans-30" x="63.623047"/>
       <use xlink:href="#DejaVuSans-32" x="127.246094"/>
       <use xlink:href="#DejaVuSans-30" x="190.869141"/>
      </g>
     </g>
    </g>
    <g id="xtick_6">
     <g id="line2d_11">
      <path d="M 622.69718 256.32 
L 622.69718 34.56 
" clip-path="url(#p3b30227cbe)" style="fill: none; stroke: #b0b0b0; stroke-width: 0.8; stroke-linecap: square"/>
     </g>
     <g id="line2d_12">
      <g>
       <use xlink:href="#ma3bac5b788" x="622.69718" y="256.32" style="stroke: #000000; stroke-width: 0.8"/>
      </g>
     </g>
     <g id="text_6">
      <!-- 2024 -->
      <g transform="translate(615.650419 286.688774) rotate(-45) scale(0.1 -0.1)">
       <use xlink:href="#DejaVuSans-32"/>
       <use xlink:href="#DejaVuSans-30" x="63.623047"/>
       <use xlink:href="#DejaVuSans-32" x="127.246094"/>
       <use xlink:href="#DejaVuSans-34" x="190.869141"/>
      </g>
     </g>
    </g>
    <g id="text_7">
     <!-- Data -->
     <g transform="translate(357.061719 299.757773) scale(0.1 -0.1)">
      <defs>
       <path id="DejaVuSans-44" d="M 1259 4147 
L 1259 519 
L 2022 519 
Q 2988 519 3436 956 
Q 3884 1394 3884 2338 
Q 3884 3275 3436 3711 
Q 2988 4147 2022 4147 
L 1259 4147 
z
M 628 4666 
L 1925 4666 
Q 3281 4666 3915 4102 
Q 4550 3538 4550 2338 
Q 4550 1131 3912 565 
Q 3275 0 1925 0 
L 628 0 
L 628 4666 
z
" transform="scale(0.015625)"/>
       <path id="DejaVuSans-61" d="M 2194 1759 
Q 1497 1759 1228 1600 
Q 959 1441 959 1056 
Q 959 750 1161 570 
Q 1363 391 1709 391 
Q 2188 391 2477 730 
Q 2766 1069 2766 1631 
L 2766 1759 
L 2194 1759 
z
M 3341 1997 
L 3341 0 
L 2766 0 
L 2766 531 
Q 2569 213 2275 61 
Q 1981 -91 1556 -91 
Q 1019 -91 701 211 
Q 384 513 384 1019 
Q 384 1609 779 1909 
Q 1175 2209 1959 2209 
L 2766 2209 
L 2766 2266 
Q 2766 2663 2505 2880 
Q 2244 3097 1772 3097 
Q 1472 3097 1187 3025 
Q 903 2953 641 2809 
L 641 3341 
Q 956 3463 1253 3523 
Q 1550 3584 1831 3584 
Q 2591 3584 2966 3190 
Q 3341 2797 3341 1997 
z
" transform="scale(0.015625)"/>
       <path id="DejaVuSans-74" d="M 1172 4494 
L 1172 3500 
L 2356 3500 
L 2356 3053 
L 1172 3053 
L 1172 1153 
Q 1172 725 1289 603 
Q 1406 481 1766 481 
L 2356 481 
L 2356 0 
L 1766 0 
Q 1100 0 847 248 
Q 594 497 594 1153 
L 594 3053 
L 172 3053 
L 172 3500 
L 594 3500 
L 594 4494 
L 1172 4494 
z
" transform="scale(0.015625)"/>
      </defs>
      <use xlink:href="#DejaVuSans-44"/>
      <use xlink:href="#DejaVuSans-61" x="77.001953"/>
      <use xlink:href="#DejaVuSans-74" x="138.28125"/>
      <use xlink:href="#DejaVuSans-61" x="177.490234"/>
     </g>
    </g>
   </g>
   <g id="matplotlib.axis_2">
    <g id="ytick_1">
     <g id="line2d_13">
      <path d="M 90 255.816697 
L 648 255.816697 
" clip-path="url(#p3b30227cbe)" style="fill: none; stroke: #b0b0b0; stroke-width: 0.8; stroke-linecap: square"/>
     </g>
     <g id="line2d_14">
      <defs>
       <path id="m70055b6287" d="M 0 0 
L -3.5 0 
" style="stroke: #000000; stroke-width: 0.8"/>
      </defs>
      <g>
       <use xlink:href="#m70055b6287" x="90" y="255.816697" style="stroke: #000000; stroke-width: 0.8"/>
      </g>
     </g>
     <g id="text_8">
      <!-- −25 -->
      <g transform="translate(61.895313 259.615916) scale(0.1 -0.1)">
       <defs>
        <path id="DejaVuSans-2212" d="M 678 2272 
L 4684 2272 
L 4684 1741 
L 678 1741 
L 678 2272 
z
" transform="scale(0.015625)"/>
        <path id="DejaVuSans-35" d="M 691 4666 
L 3169 4666 
L 3169 4134 
L 1269 4134 
L 1269 2991 
Q 1406 3038 1543 3061 
Q 1681 3084 1819 3084 
Q 2600 3084 3056 2656 
Q 3513 2228 3513 1497 
Q 3513 744 3044 326 
Q 2575 -91 1722 -91 
Q 1428 -91 1123 -41 
Q 819 9 494 109 
L 494 744 
Q 775 591 1075 516 
Q 1375 441 1709 441 
Q 2250 441 2565 725 
Q 2881 1009 2881 1497 
Q 2881 1984 2565 2268 
Q 2250 2553 1709 2553 
Q 1456 2553 1204 2497 
Q 953 2441 691 2322 
L 691 4666 
z
" transform="scale(0.015625)"/>
       </defs>
       <use xlink:href="#DejaVuSans-2212"/>
       <use xlink:href="#DejaVuSans-32" x="83.789062"/>
       <use xlink:href="#DejaVuSans-35" x="147.412109"/>
      </g>
     </g>
    </g>
    <g id="ytick_2">
     <g id="line2d_15">
      <path d="M 90 228.552933 
L 648 228.552933 
" clip-path="url(#p3b30227cbe)" style="fill: none; stroke: #b0b0b0; stroke-width: 0.8; stroke-linecap: square"/>
     </g>
     <g id="line2d_16">
      <g>
       <use xlink:href="#m70055b6287" x="90" y="228.552933" style="stroke: #000000; stroke-width: 0.8"/>
      </g>
     </g>
     <g id="text_9">
      <!-- −20 -->
      <g transform="translate(61.895313 232.352152) scale(0.1 -0.1)">
       <use xlink:href="#DejaVuSans-2212"/>
       <use xlink:href="#DejaVuSans-32" x="83.789062"/>
       <use xlink:href="#DejaVuSans-30" x="147.412109"/>
      </g>
     </g>
    </g>
    <g id="ytick_3">
     <g id="line2d_17">
      <path d="M 90 201.289169 
L 648 201.289169 
" clip-path="url(#p3b30227cbe)" style="fill: none; stroke: #b0b0b0; stroke-width: 0.8; stroke-linecap: square"/>
     </g>
     <g id="line2d_18">
      <g>
       <use xlink:href="#m70055b6287" x="90" y="201.289169" style="stroke: #000000; stroke-width: 0.8"/>
      </g>
     </g>
     <g id="text_10">
      <!-- −15 -->
      <g transform="translate(61.895313 205.088388) scale(0.1 -0.1)">
       <use xlink:href="#DejaVuSans-2212"/>
       <use xlink:href="#DejaVuSans-31" x="83.789062"/>
       <use xlink:href="#DejaVuSans-35" x="147.412109"/>
      </g>
     </g>
    </g>
    <g id="ytick_4">
     <g id="line2d_19">
      <path d="M 90 174.025405 
L 648 174.025405 
" clip-path="url(#p3b30227cbe)" style="fill: none; stroke: #b0b0b0; stroke-width: 0.8; stroke-linecap: square"/>
     </g>
     <g id="line2d_20">
      <g>
       <use xlink:href="#m70055b6287" x="90" y="174.025405" style="stroke: #000000; stroke-width: 0.8"/>
      </g>
     </g>
     <g id="text_11">
      <!-- −10 -->
      <g transform="translate(61.895313 177.824624) scale(0.1 -0.1)">
       <use xlink:href="#DejaVuSans-2212"/>
       <use xlink:href="#DejaVuSans-31" x="83.789062"/>
       <use xlink:href="#DejaVuSans-30" x="147.412109"/>
      </g>
     </g>
    </g>
    <g id="ytick_5">
     <g id="line2d_21">
      <path d="M 90 146.761641 
L 648 146.761641 
" clip-path="url(#p3b30227cbe)" style="fill: none; stroke: #b0b0b0; stroke-width: 0.8; stroke-linecap: square"/>
     </g>
     <g id="line2d_22">
      <g>
       <use xlink:href="#m70055b6287" x="90" y="146.761641" style="stroke: #000000; stroke-width: 0.8"/>
      </g>
     </g>
     <g id="text_12">
      <!-- −5 -->
      <g transform="translate(68.257812 150.56086) scale(0.1 -0.1)">
       <use xlink:href="#DejaVuSans-2212"/>
       <use xlink:href="#DejaVuSans-35" x="83.789062"/>
      </g>
     </g>
    </g>
    <g id="ytick_6">
     <g id="line2d_23">
      <path d="M 90 119.497878 
L 648 119.497878 
" clip-path="url(#p3b30227cbe)" style="fill: none; stroke: #b0b0b0; stroke-width: 0.8; stroke-linecap: square"/>
     </g>
     <g id="line2d_24">
      <g>
       <use xlink:href="#m70055b6287" x="90" y="119.497878" style="stroke: #000000; stroke-width: 0.8"/>
      </g>
     </g>
     <g id="text_13">
      <!-- 0 -->
      <g transform="translate(76.6375 123.297096) scale(0.1 -0.1)">
       <use xlink:href="#DejaVuSans-30"/>
      </g>
     </g>
    </g>
    <g id="ytick_7">
     <g id="line2d_25">
      <path d="M 90 92.234114 
L 648 92.234114 
" clip-path="url(#p3b30227cbe)" style="fill: none; stroke: #b0b0b0; stroke-width: 0.8; stroke-linecap: square"/>
     </g>
     <g id="line2d_26">
      <g>
       <use xlink:href="#m70055b6287" x="90" y="92.234114" style="stroke: #000000; stroke-width: 0.8"/>
      </g>
     </g>
     <g id="text_14">
      <!-- 5 -->
      <g transform="translate(76.6375 96.033332) scale(0.1 -0.1)">
       <use xlink:href="#DejaVuSans-35"/>
      </g>
     </g>
    </g>
    <g id="ytick_8">
     <g id="line2d_27">
      <path d="M 90 64.97035 
L 648 64.97035 
" clip-path="url(#p3b30227cbe)" style="fill: none; stroke: #b0b0b0; stroke-width: 0.8; stroke-linecap: square"/>
     </g>
     <g id="line2d_28">
      <g>
       <use xlink:href="#m70055b6287" x="90" y="64.97035" style="stroke: #000000; stroke-width: 0.8"/>
      </g>
     </g>
     <g id="text_15">
      <!-- 10 -->
      <g transform="translate(70.275 68.769569) scale(0.1 -0.1)">
       <use xlink:href="#DejaVuSans-31"/>
       <use xlink:href="#DejaVuSans-30" x="63.623047"/>
      </g>
     </g>
    </g>
    <g id="ytick_9">
     <g id="line2d_29">
      <path d="M 90 37.706586 
L 648 37.706586 
" clip-path="url(#p3b30227cbe)" style="fill: none; stroke: #b0b0b0; stroke-width: 0.8; stroke-linecap: square"/>
     </g>
     <g id="line2d_30">
      <g>
       <use xlink:href="#m70055b6287" x="90" y="37.706586" style="stroke: #000000; stroke-width: 0.8"/>
      </g>
     </g>
     <g id="text_16">
      <!-- 15 -->
      <g transform="translate(70.275 41.505805) scale(0.1 -0.1)">
       <use xlink:href="#DejaVuSans-31"/>
       <use xlink:href="#DejaVuSans-35" x="63.623047"/>
      </g>
     </g>
    </g>
    <g id="text_17">
     <!-- Residui -->
     <g transform="translate(55.815625 163.491562) rotate(-90) scale(0.1 -0.1)">
      <defs>
       <path id="DejaVuSans-52" d="M 2841 2188 
Q 3044 2119 3236 1894 
Q 3428 1669 3622 1275 
L 4263 0 
L 3584 0 
L 2988 1197 
Q 2756 1666 2539 1819 
Q 2322 1972 1947 1972 
L 1259 1972 
L 1259 0 
L 628 0 
L 628 4666 
L 2053 4666 
Q 2853 4666 3247 4331 
Q 3641 3997 3641 3322 
Q 3641 2881 3436 2590 
Q 3231 2300 2841 2188 
z
M 1259 4147 
L 1259 2491 
L 2053 2491 
Q 2509 2491 2742 2702 
Q 2975 2913 2975 3322 
Q 2975 3731 2742 3939 
Q 2509 4147 2053 4147 
L 1259 4147 
z
" transform="scale(0.015625)"/>
       <path id="DejaVuSans-65" d="M 3597 1894 
L 3597 1613 
L 953 1613 
Q 991 1019 1311 708 
Q 1631 397 2203 397 
Q 2534 397 2845 478 
Q 3156 559 3463 722 
L 3463 178 
Q 3153 47 2828 -22 
Q 2503 -91 2169 -91 
Q 1331 -91 842 396 
Q 353 884 353 1716 
Q 353 2575 817 3079 
Q 1281 3584 2069 3584 
Q 2775 3584 3186 3129 
Q 3597 2675 3597 1894 
z
M 3022 2063 
Q 3016 2534 2758 2815 
Q 2500 3097 2075 3097 
Q 1594 3097 1305 2825 
Q 1016 2553 972 2059 
L 3022 2063 
z
" transform="scale(0.015625)"/>
       <path id="DejaVuSans-73" d="M 2834 3397 
L 2834 2853 
Q 2591 2978 2328 3040 
Q 2066 3103 1784 3103 
Q 1356 3103 1142 2972 
Q 928 2841 928 2578 
Q 928 2378 1081 2264 
Q 1234 2150 1697 2047 
L 1894 2003 
Q 2506 1872 2764 1633 
Q 3022 1394 3022 966 
Q 3022 478 2636 193 
Q 2250 -91 1575 -91 
Q 1294 -91 989 -36 
Q 684 19 347 128 
L 347 722 
Q 666 556 975 473 
Q 1284 391 1588 391 
Q 1994 391 2212 530 
Q 2431 669 2431 922 
Q 2431 1156 2273 1281 
Q 2116 1406 1581 1522 
L 1381 1569 
Q 847 1681 609 1914 
Q 372 2147 372 2553 
Q 372 3047 722 3315 
Q 1072 3584 1716 3584 
Q 2034 3584 2315 3537 
Q 2597 3491 2834 3397 
z
" transform="scale(0.015625)"/>
       <path id="DejaVuSans-69" d="M 603 3500 
L 1178 3500 
L 1178 0 
L 603 0 
L 603 3500 
z
M 603 4863 
L 1178 4863 
L 1178 4134 
L 603 4134 
L 603 4863 
z
" transform="scale(0.015625)"/>
       <path id="DejaVuSans-64" d="M 2906 2969 
L 2906 4863 
L 3481 4863 
L 3481 0 
L 2906 0 
L 2906 525 
Q 2725 213 2448 61 
Q 2172 -91 1784 -91 
Q 1150 -91 751 415 
Q 353 922 353 1747 
Q 353 2572 751 3078 
Q 1150 3584 1784 3584 
Q 2172 3584 2448 3432 
Q 2725 3281 2906 2969 
z
M 947 1747 
Q 947 1113 1208 752 
Q 1469 391 1925 391 
Q 2381 391 2643 752 
Q 2906 1113 2906 1747 
Q 2906 2381 2643 2742 
Q 2381 3103 1925 3103 
Q 1469 3103 1208 2742 
Q 947 2381 947 1747 
z
" transform="scale(0.015625)"/>
       <path id="DejaVuSans-75" d="M 544 1381 
L 544 3500 
L 1119 3500 
L 1119 1403 
Q 1119 906 1312 657 
Q 1506 409 1894 409 
Q 2359 409 2629 706 
Q 2900 1003 2900 1516 
L 2900 3500 
L 3475 3500 
L 3475 0 
L 2900 0 
L 2900 538 
Q 2691 219 2414 64 
Q 2138 -91 1772 -91 
Q 1169 -91 856 284 
Q 544 659 544 1381 
z
M 1991 3584 
L 1991 3584 
z
" transform="scale(0.015625)"/>
      </defs>
      <use xlink:href="#DejaVuSans-52"/>
      <use xlink:href="#DejaVuSans-65" x="64.982422"/>
      <use xlink:href="#DejaVuSans-73" x="126.505859"/>
      <use xlink:href="#DejaVuSans-69" x="178.605469"/>
      <use xlink:href="#DejaVuSans-64" x="206.388672"/>
      <use xlink:href="#DejaVuSans-75" x="269.865234"/>
      <use xlink:href="#DejaVuSans-69" x="333.244141"/>
     </g>
    </g>
   </g>
   <g id="line2d_31">
    <path d="M 115.363636 137.424701 
L 117.248956 175.848932 
L 119.07346 115.307519 
L 120.95878 84.49788 
L 122.783283 144.202168 
L 124.668603 139.204592 
L 126.553923 132.971836 
L 128.378426 191.139377 
L 130.263746 86.432618 
L 132.08825 98.779251 
L 133.97357 116.141003 
L 135.85889 119.813052 
L 137.56176 135.988341 
L 139.44708 88.746223 
L 141.271583 141.044237 
L 143.156903 132.102162 
L 144.981406 150.314067 
L 146.866726 181.412584 
L 148.752046 105.362466 
L 150.57655 153.131102 
L 152.46187 128.253819 
L 154.286373 87.059673 
L 156.171693 134.84198 
L 158.057013 124.160871 
L 159.759883 158.686781 
L 161.645203 109.56394 
L 163.469706 96.160023 
L 165.355026 95.784804 
L 167.179529 99.769626 
L 169.064849 127.769134 
L 170.950169 113.654626 
L 172.774673 102.029537 
L 174.659993 115.419886 
L 176.484496 117.690675 
L 178.369816 105.541564 
L 180.255136 98.033628 
L 182.018823 124.680931 
L 183.904143 132.261169 
L 185.728646 119.195167 
L 187.613966 129.87742 
L 189.438469 103.251648 
L 191.323789 137.541098 
L 193.209109 130.69075 
L 195.033613 109.143989 
L 196.918933 126.161351 
L 198.743436 97.216552 
L 200.628756 111.604266 
L 202.514076 132.639065 
L 204.216946 113.109306 
L 206.102266 125.98373 
L 207.926769 133.433642 
L 209.812089 115.137422 
L 211.636593 113.720066 
L 213.521913 116.229412 
L 215.407233 120.884571 
L 217.231736 120.977015 
L 219.117056 137.902439 
L 220.941559 98.478938 
L 222.826879 113.741707 
L 224.712199 117.436558 
L 226.415069 124.389185 
L 228.300389 113.207671 
L 230.124892 118.448107 
L 232.010212 124.709877 
L 233.834716 136.339989 
L 235.720036 116.369492 
L 237.605356 111.274344 
L 239.429859 114.466535 
L 241.315179 108.537578 
L 243.139682 117.111754 
L 245.025002 115.407255 
L 246.910323 122.407847 
L 248.613192 112.340421 
L 250.498512 137.918385 
L 252.323016 100.331184 
L 254.208336 106.725265 
L 256.032839 123.73365 
L 257.918159 117.296377 
L 259.803479 148.007522 
L 261.627982 107.236582 
L 263.513302 111.591239 
L 265.337806 153.254342 
L 267.223126 118.55845 
L 269.108446 161.436493 
L 270.872132 132.05286 
L 272.757452 135.906843 
L 274.581956 102.246028 
L 276.467276 109.920073 
L 278.291779 146.6456 
L 280.177099 151.055675 
L 282.062419 107.942277 
L 283.886922 153.822474 
L 285.772242 246.24 
L 287.596746 133.623305 
L 289.482066 97.046962 
L 291.367386 133.385008 
L 293.070255 128.871021 
L 294.955575 108.01501 
L 296.780079 44.64 
L 298.665399 101.221207 
L 300.489902 79.772398 
L 302.375222 123.849616 
L 304.260542 80.043432 
L 306.085045 103.731516 
L 307.970365 109.596013 
L 309.794869 119.830633 
L 311.680189 137.847342 
L 313.565509 126.501013 
L 315.268379 146.795798 
L 317.153699 89.719569 
L 318.978202 106.350137 
L 320.863522 157.961881 
L 322.688025 138.534585 
L 324.573345 122.418279 
L 326.458665 118.280447 
L 328.283169 111.103282 
L 330.168489 99.577394 
L 331.992992 115.221773 
L 333.878312 96.991516 
L 335.763632 94.831077 
L 337.466502 112.156682 
L 339.351822 126.737962 
L 341.176325 111.310618 
L 343.061645 119.283196 
L 344.886148 146.787168 
L 346.771468 104.171169 
L 348.656788 185.207647 
L 350.481292 124.297132 
L 352.366612 113.213901 
L 354.191115 106.856272 
L 356.076435 121.096626 
L 357.961755 98.674106 
L 359.725442 106.993972 
L 361.610762 111.257625 
L 363.435265 115.722306 
L 365.320585 144.121943 
L 367.145088 132.873171 
L 369.030408 112.598535 
L 370.915728 109.971111 
L 372.740232 101.239823 
L 374.625552 129.717553 
L 376.450055 135.851107 
L 378.335375 108.264097 
L 380.220695 99.722642 
L 381.923565 106.223734 
L 383.808885 111.518207 
L 385.633388 117.397993 
L 387.518708 103.396695 
L 389.343212 126.78274 
L 391.228532 92.473306 
L 393.113852 126.991683 
L 394.938355 116.875055 
L 396.823675 111.769053 
L 398.648178 105.442525 
L 400.533498 112.687146 
L 402.418818 114.412065 
L 404.121688 123.764988 
L 406.007008 109.626481 
L 407.831511 123.115301 
L 409.716831 113.793538 
L 411.541335 108.281574 
L 413.426655 115.37697 
L 415.311975 127.858475 
L 417.136478 113.815759 
L 419.021798 135.996861 
L 420.846301 92.952738 
L 422.731621 123.765887 
L 424.616942 133.50218 
L 426.319811 114.837229 
L 428.205131 119.851659 
L 430.029635 117.771338 
L 431.914955 119.931403 
L 433.739458 118.856332 
L 435.624778 124.482556 
L 437.510098 138.501413 
L 439.334601 148.452472 
L 441.219921 93.87899 
L 443.044425 114.260306 
L 444.929745 125.181158 
L 446.815065 159.766686 
L 448.578751 118.832778 
L 450.464071 97.655171 
L 452.288575 110.827364 
L 454.173895 129.903293 
L 455.998398 116.476752 
L 457.883718 107.847815 
L 459.769038 122.85919 
L 461.593541 123.14094 
L 463.478861 123.775842 
L 465.303365 114.784841 
L 467.188685 99.13499 
L 469.074005 118.645029 
L 470.776874 111.460725 
L 472.662194 114.18034 
L 474.486698 122.653583 
L 476.372018 114.743299 
L 478.196521 114.234764 
L 480.081841 120.297222 
L 481.967161 119.77544 
L 483.791664 115.164659 
L 485.676984 109.242035 
L 487.501488 114.113314 
L 489.386808 108.549398 
L 491.272128 98.667594 
L 492.974998 140.349536 
L 494.860318 118.205795 
L 496.684821 132.824646 
L 498.570141 111.255572 
L 500.394644 112.950127 
L 502.279964 116.816724 
L 504.165284 110.589612 
L 505.989788 115.375502 
L 507.875108 144.281187 
L 509.699611 130.608865 
L 511.584931 152.817822 
L 513.470251 110.214678 
L 515.173121 95.58488 
L 517.058441 119.305492 
L 518.882944 106.625687 
L 520.768264 135.35146 
L 522.592767 115.992627 
L 524.478087 108.776372 
L 526.363407 151.719143 
L 528.187911 104.607339 
L 530.073231 125.390923 
L 531.897734 98.34151 
L 533.783054 111.417214 
L 535.668374 106.569209 
L 537.432061 122.329394 
L 539.317381 234.317152 
L 541.141884 73.50068 
L 543.027204 94.877632 
L 544.851707 85.191128 
L 546.737027 109.195569 
L 548.622347 101.18904 
L 550.446851 132.131228 
L 552.332171 111.637957 
L 554.156674 100.380547 
L 556.041994 104.361364 
L 557.927314 115.045769 
L 559.630184 108.236552 
L 561.515504 122.773117 
L 563.340007 91.624139 
L 565.225327 124.852785 
L 567.049831 114.134648 
L 568.935151 107.4739 
L 570.820471 117.728223 
L 572.644974 126.417623 
L 574.530294 117.693886 
L 576.354797 97.989721 
L 578.240117 126.282015 
L 581.828307 137.938823 
L 583.713627 125.505003 
L 585.53813 120.213151 
L 587.42345 164.073703 
L 589.247954 137.148038 
L 591.133274 119.010205 
L 593.018594 88.764672 
L 594.843097 172.938441 
L 596.728417 125.450935 
L 598.55292 89.422306 
L 600.43824 131.919799 
L 602.323561 114.806488 
L 604.02643 109.028123 
L 605.91175 135.887548 
L 607.736254 99.929261 
L 609.621574 124.342076 
L 611.446077 92.597395 
L 613.331397 105.153618 
L 615.216717 131.57069 
L 617.04122 122.364039 
L 618.92654 136.836319 
L 620.751044 93.846169 
L 622.636364 102.395646 
L 622.636364 102.395646 
" clip-path="url(#p3b30227cbe)" style="fill: none; stroke: #ff0000; stroke-width: 1.5; stroke-linecap: square"/>
    <defs>
     <path id="m4967a19a14" d="M 0 3 
C 0.795609 3 1.55874 2.683901 2.12132 2.12132 
C 2.683901 1.55874 3 0.795609 3 0 
C 3 -0.795609 2.683901 -1.55874 2.12132 -2.12132 
C 1.55874 -2.683901 0.795609 -3 0 -3 
C -0.795609 -3 -1.55874 -2.683901 -2.12132 -2.12132 
C -2.683901 -1.55874 -3 -0.795609 -3 0 
C -3 0.795609 -2.683901 1.55874 -2.12132 2.12132 
C -1.55874 2.683901 -0.795609 3 0 3 
z
" style="stroke: #ff0000"/>
    </defs>
    <g clip-path="url(#p3b30227cbe)">
     <use xlink:href="#m4967a19a14" x="115.363636" y="137.424701" style="fill: #ff0000; stroke: #ff0000"/>
     <use xlink:href="#m4967a19a14" x="117.248956" y="175.848932" style="fill: #ff0000; stroke: #ff0000"/>
     <use xlink:href="#m4967a19a14" x="119.07346" y="115.307519" style="fill: #ff0000; stroke: #ff0000"/>
     <use xlink:href="#m4967a19a14" x="120.95878" y="84.49788" style="fill: #ff0000; stroke: #ff0000"/>
     <use xlink:href="#m4967a19a14" x="122.783283" y="144.202168" style="fill: #ff0000; stroke: #ff0000"/>
     <use xlink:href="#m4967a19a14" x="124.668603" y="139.204592" style="fill: #ff0000; stroke: #ff0000"/>
     <use xlink:href="#m4967a19a14" x="126.553923" y="132.971836" style="fill: #ff0000; stroke: #ff0000"/>
     <use xlink:href="#m4967a19a14" x="128.378426" y="191.139377" style="fill: #ff0000; stroke: #ff0000"/>
     <use xlink:href="#m4967a19a14" x="130.263746" y="86.432618" style="fill: #ff0000; stroke: #ff0000"/>
     <use xlink:href="#m4967a19a14" x="132.08825" y="98.779251" style="fill: #ff0000; stroke: #ff0000"/>
     <use xlink:href="#m4967a19a14" x="133.97357" y="116.141003" style="fill: #ff0000; stroke: #ff0000"/>
     <use xlink:href="#m4967a19a14" x="135.85889" y="119.813052" style="fill: #ff0000; stroke: #ff0000"/>
     <use xlink:href="#m4967a19a14" x="137.56176" y="135.988341" style="fill: #ff0000; stroke: #ff0000"/>
     <use xlink:href="#m4967a19a14" x="139.44708" y="88.746223" style="fill: #ff0000; stroke: #ff0000"/>
     <use xlink:href="#m4967a19a14" x="141.271583" y="141.044237" style="fill: #ff0000; stroke: #ff0000"/>
     <use xlink:href="#m4967a19a14" x="143.156903" y="132.102162" style="fill: #ff0000; stroke: #ff0000"/>
     <use xlink:href="#m4967a19a14" x="144.981406" y="150.314067" style="fill: #ff0000; stroke: #ff0000"/>
     <use xlink:href="#m4967a19a14" x="146.866726" y="181.412584" style="fill: #ff0000; stroke: #ff0000"/>
     <use xlink:href="#m4967a19a14" x="148.752046" y="105.362466" style="fill: #ff0000; stroke: #ff0000"/>
     <use xlink:href="#m4967a19a14" x="150.57655" y="153.131102" style="fill: #ff0000; stroke: #ff0000"/>
     <use xlink:href="#m4967a19a14" x="152.46187" y="128.253819" style="fill: #ff0000; stroke: #ff0000"/>
     <use xlink:href="#m4967a19a14" x="154.286373" y="87.059673" style="fill: #ff0000; stroke: #ff0000"/>
     <use xlink:href="#m4967a19a14" x="156.171693" y="134.84198" style="fill: #ff0000; stroke: #ff0000"/>
     <use xlink:href="#m4967a19a14" x="158.057013" y="124.160871" style="fill: #ff0000; stroke: #ff0000"/>
     <use xlink:href="#m4967a19a14" x="159.759883" y="158.686781" style="fill: #ff0000; stroke: #ff0000"/>
     <use xlink:href="#m4967a19a14" x="161.645203" y="109.56394" style="fill: #ff0000; stroke: #ff0000"/>
     <use xlink:href="#m4967a19a14" x="163.469706" y="96.160023" style="fill: #ff0000; stroke: #ff0000"/>
     <use xlink:href="#m4967a19a14" x="165.355026" y="95.784804" style="fill: #ff0000; stroke: #ff0000"/>
     <use xlink:href="#m4967a19a14" x="167.179529" y="99.769626" style="fill: #ff0000; stroke: #ff0000"/>
     <use xlink:href="#m4967a19a14" x="169.064849" y="127.769134" style="fill: #ff0000; stroke: #ff0000"/>
     <use xlink:href="#m4967a19a14" x="170.950169" y="113.654626" style="fill: #ff0000; stroke: #ff0000"/>
     <use xlink:href="#m4967a19a14" x="172.774673" y="102.029537" style="fill: #ff0000; stroke: #ff0000"/>
     <use xlink:href="#m4967a19a14" x="174.659993" y="115.419886" style="fill: #ff0000; stroke: #ff0000"/>
     <use xlink:href="#m4967a19a14" x="176.484496" y="117.690675" style="fill: #ff0000; stroke: #ff0000"/>
     <use xlink:href="#m4967a19a14" x="178.369816" y="105.541564" style="fill: #ff0000; stroke: #ff0000"/>
     <use xlink:href="#m4967a19a14" x="180.255136" y="98.033628" style="fill: #ff0000; stroke: #ff0000"/>
     <use xlink:href="#m4967a19a14" x="182.018823" y="124.680931" style="fill: #ff0000; stroke: #ff0000"/>
     <use xlink:href="#m4967a19a14" x="183.904143" y="132.261169" style="fill: #ff0000; stroke: #ff0000"/>
     <use xlink:href="#m4967a19a14" x="185.728646" y="119.195167" style="fill: #ff0000; stroke: #ff0000"/>
     <use xlink:href="#m4967a19a14" x="187.613966" y="129.87742" style="fill: #ff0000; stroke: #ff0000"/>
     <use xlink:href="#m4967a19a14" x="189.438469" y="103.251648" style="fill: #ff0000; stroke: #ff0000"/>
     <use xlink:href="#m4967a19a14" x="191.323789" y="137.541098" style="fill: #ff0000; stroke: #ff0000"/>
     <use xlink:href="#m4967a19a14" x="193.209109" y="130.69075" style="fill: #ff0000; stroke: #ff0000"/>
     <use xlink:href="#m4967a19a14" x="195.033613" y="109.143989" style="fill: #ff0000; stroke: #ff0000"/>
     <use xlink:href="#m4967a19a14" x="196.918933" y="126.161351" style="fill: #ff0000; stroke: #ff0000"/>
     <use xlink:href="#m4967a19a14" x="198.743436" y="97.216552" style="fill: #ff0000; stroke: #ff0000"/>
     <use xlink:href="#m4967a19a14" x="200.628756" y="111.604266" style="fill: #ff0000; stroke: #ff0000"/>
     <use xlink:href="#m4967a19a14" x="202.514076" y="132.639065" style="fill: #ff0000; stroke: #ff0000"/>
     <use xlink:href="#m4967a19a14" x="204.216946" y="113.109306" style="fill: #ff0000; stroke: #ff0000"/>
     <use xlink:href="#m4967a19a14" x="206.102266" y="125.98373" style="fill: #ff0000; stroke: #ff0000"/>
     <use xlink:href="#m4967a19a14" x="207.926769" y="133.433642" style="fill: #ff0000; stroke: #ff0000"/>
     <use xlink:href="#m4967a19a14" x="209.812089" y="115.137422" style="fill: #ff0000; stroke: #ff0000"/>
     <use xlink:href="#m4967a19a14" x="211.636593" y="113.720066" style="fill: #ff0000; stroke: #ff0000"/>
     <use xlink:href="#m4967a19a14" x="213.521913" y="116.229412" style="fill: #ff0000; stroke: #ff0000"/>
     <use xlink:href="#m4967a19a14" x="215.407233" y="120.884571" style="fill: #ff0000; stroke: #ff0000"/>
     <use xlink:href="#m4967a19a14" x="217.231736" y="120.977015" style="fill: #ff0000; stroke: #ff0000"/>
     <use xlink:href="#m4967a19a14" x="219.117056" y="137.902439" style="fill: #ff0000; stroke: #ff0000"/>
     <use xlink:href="#m4967a19a14" x="220.941559" y="98.478938" style="fill: #ff0000; stroke: #ff0000"/>
     <use xlink:href="#m4967a19a14" x="222.826879" y="113.741707" style="fill: #ff0000; stroke: #ff0000"/>
     <use xlink:href="#m4967a19a14" x="224.712199" y="117.436558" style="fill: #ff0000; stroke: #ff0000"/>
     <use xlink:href="#m4967a19a14" x="226.415069" y="124.389185" style="fill: #ff0000; stroke: #ff0000"/>
     <use xlink:href="#m4967a19a14" x="228.300389" y="113.207671" style="fill: #ff0000; stroke: #ff0000"/>
     <use xlink:href="#m4967a19a14" x="230.124892" y="118.448107" style="fill: #ff0000; stroke: #ff0000"/>
     <use xlink:href="#m4967a19a14" x="232.010212" y="124.709877" style="fill: #ff0000; stroke: #ff0000"/>
     <use xlink:href="#m4967a19a14" x="233.834716" y="136.339989" style="fill: #ff0000; stroke: #ff0000"/>
     <use xlink:href="#m4967a19a14" x="235.720036" y="116.369492" style="fill: #ff0000; stroke: #ff0000"/>
     <use xlink:href="#m4967a19a14" x="237.605356" y="111.274344" style="fill: #ff0000; stroke: #ff0000"/>
     <use xlink:href="#m4967a19a14" x="239.429859" y="114.466535" style="fill: #ff0000; stroke: #ff0000"/>
     <use xlink:href="#m4967a19a14" x="241.315179" y="108.537578" style="fill: #ff0000; stroke: #ff0000"/>
     <use xlink:href="#m4967a19a14" x="243.139682" y="117.111754" style="fill: #ff0000; stroke: #ff0000"/>
     <use xlink:href="#m4967a19a14" x="245.025002" y="115.407255" style="fill: #ff0000; stroke: #ff0000"/>
     <use xlink:href="#m4967a19a14" x="246.910323" y="122.407847" style="fill: #ff0000; stroke: #ff0000"/>
     <use xlink:href="#m4967a19a14" x="248.613192" y="112.340421" style="fill: #ff0000; stroke: #ff0000"/>
     <use xlink:href="#m4967a19a14" x="250.498512" y="137.918385" style="fill: #ff0000; stroke: #ff0000"/>
     <use xlink:href="#m4967a19a14" x="252.323016" y="100.331184" style="fill: #ff0000; stroke: #ff0000"/>
     <use xlink:href="#m4967a19a14" x="254.208336" y="106.725265" style="fill: #ff0000; stroke: #ff0000"/>
     <use xlink:href="#m4967a19a14" x="256.032839" y="123.73365" style="fill: #ff0000; stroke: #ff0000"/>
     <use xlink:href="#m4967a19a14" x="257.918159" y="117.296377" style="fill: #ff0000; stroke: #ff0000"/>
     <use xlink:href="#m4967a19a14" x="259.803479" y="148.007522" style="fill: #ff0000; stroke: #ff0000"/>
     <use xlink:href="#m4967a19a14" x="261.627982" y="107.236582" style="fill: #ff0000; stroke: #ff0000"/>
     <use xlink:href="#m4967a19a14" x="263.513302" y="111.591239" style="fill: #ff0000; stroke: #ff0000"/>
     <use xlink:href="#m4967a19a14" x="265.337806" y="153.254342" style="fill: #ff0000; stroke: #ff0000"/>
     <use xlink:href="#m4967a19a14" x="267.223126" y="118.55845" style="fill: #ff0000; stroke: #ff0000"/>
     <use xlink:href="#m4967a19a14" x="269.108446" y="161.436493" style="fill: #ff0000; stroke: #ff0000"/>
     <use xlink:href="#m4967a19a14" x="270.872132" y="132.05286" style="fill: #ff0000; stroke: #ff0000"/>
     <use xlink:href="#m4967a19a14" x="272.757452" y="135.906843" style="fill: #ff0000; stroke: #ff0000"/>
     <use xlink:href="#m4967a19a14" x="274.581956" y="102.246028" style="fill: #ff0000; stroke: #ff0000"/>
     <use xlink:href="#m4967a19a14" x="276.467276" y="109.920073" style="fill: #ff0000; stroke: #ff0000"/>
     <use xlink:href="#m4967a19a14" x="278.291779" y="146.6456" style="fill: #ff0000; stroke: #ff0000"/>
     <use xlink:href="#m4967a19a14" x="280.177099" y="151.055675" style="fill: #ff0000; stroke: #ff0000"/>
     <use xlink:href="#m4967a19a14" x="282.062419" y="107.942277" style="fill: #ff0000; stroke: #ff0000"/>
     <use xlink:href="#m4967a19a14" x="283.886922" y="153.822474" style="fill: #ff0000; stroke: #ff0000"/>
     <use xlink:href="#m4967a19a14" x="285.772242" y="246.24" style="fill: #ff0000; stroke: #ff0000"/>
     <use xlink:href="#m4967a19a14" x="287.596746" y="133.623305" style="fill: #ff0000; stroke: #ff0000"/>
     <use xlink:href="#m4967a19a14" x="289.482066" y="97.046962" style="fill: #ff0000; stroke: #ff0000"/>
     <use xlink:href="#m4967a19a14" x="291.367386" y="133.385008" style="fill: #ff0000; stroke: #ff0000"/>
     <use xlink:href="#m4967a19a14" x="293.070255" y="128.871021" style="fill: #ff0000; stroke: #ff0000"/>
     <use xlink:href="#m4967a19a14" x="294.955575" y="108.01501" style="fill: #ff0000; stroke: #ff0000"/>
     <use xlink:href="#m4967a19a14" x="296.780079" y="44.64" style="fill: #ff0000; stroke: #ff0000"/>
     <use xlink:href="#m4967a19a14" x="298.665399" y="101.221207" style="fill: #ff0000; stroke: #ff0000"/>
     <use xlink:href="#m4967a19a14" x="300.489902" y="79.772398" style="fill: #ff0000; stroke: #ff0000"/>
     <use xlink:href="#m4967a19a14" x="302.375222" y="123.849616" style="fill: #ff0000; stroke: #ff0000"/>
     <use xlink:href="#m4967a19a14" x="304.260542" y="80.043432" style="fill: #ff0000; stroke: #ff0000"/>
     <use xlink:href="#m4967a19a14" x="306.085045" y="103.731516" style="fill: #ff0000; stroke: #ff0000"/>
     <use xlink:href="#m4967a19a14" x="307.970365" y="109.596013" style="fill: #ff0000; stroke: #ff0000"/>
     <use xlink:href="#m4967a19a14" x="309.794869" y="119.830633" style="fill: #ff0000; stroke: #ff0000"/>
     <use xlink:href="#m4967a19a14" x="311.680189" y="137.847342" style="fill: #ff0000; stroke: #ff0000"/>
     <use xlink:href="#m4967a19a14" x="313.565509" y="126.501013" style="fill: #ff0000; stroke: #ff0000"/>
     <use xlink:href="#m4967a19a14" x="315.268379" y="146.795798" style="fill: #ff0000; stroke: #ff0000"/>
     <use xlink:href="#m4967a19a14" x="317.153699" y="89.719569" style="fill: #ff0000; stroke: #ff0000"/>
     <use xlink:href="#m4967a19a14" x="318.978202" y="106.350137" style="fill: #ff0000; stroke: #ff0000"/>
     <use xlink:href="#m4967a19a14" x="320.863522" y="157.961881" style="fill: #ff0000; stroke: #ff0000"/>
     <use xlink:href="#m4967a19a14" x="322.688025" y="138.534585" style="fill: #ff0000; stroke: #ff0000"/>
     <use xlink:href="#m4967a19a14" x="324.573345" y="122.418279" style="fill: #ff0000; stroke: #ff0000"/>
     <use xlink:href="#m4967a19a14" x="326.458665" y="118.280447" style="fill: #ff0000; stroke: #ff0000"/>
     <use xlink:href="#m4967a19a14" x="328.283169" y="111.103282" style="fill: #ff0000; stroke: #ff0000"/>
     <use xlink:href="#m4967a19a14" x="330.168489" y="99.577394" style="fill: #ff0000; stroke: #ff0000"/>
     <use xlink:href="#m4967a19a14" x="331.992992" y="115.221773" style="fill: #ff0000; stroke: #ff0000"/>
     <use xlink:href="#m4967a19a14" x="333.878312" y="96.991516" style="fill: #ff0000; stroke: #ff0000"/>
     <use xlink:href="#m4967a19a14" x="335.763632" y="94.831077" style="fill: #ff0000; stroke: #ff0000"/>
     <use xlink:href="#m4967a19a14" x="337.466502" y="112.156682" style="fill: #ff0000; stroke: #ff0000"/>
     <use xlink:href="#m4967a19a14" x="339.351822" y="126.737962" style="fill: #ff0000; stroke: #ff0000"/>
     <use xlink:href="#m4967a19a14" x="341.176325" y="111.310618" style="fill: #ff0000; stroke: #ff0000"/>
     <use xlink:href="#m4967a19a14" x="343.061645" y="119.283196" style="fill: #ff0000; stroke: #ff0000"/>
     <use xlink:href="#m4967a19a14" x="344.886148" y="146.787168" style="fill: #ff0000; stroke: #ff0000"/>
     <use xlink:href="#m4967a19a14" x="346.771468" y="104.171169" style="fill: #ff0000; stroke: #ff0000"/>
     <use xlink:href="#m4967a19a14" x="348.656788" y="185.207647" style="fill: #ff0000; stroke: #ff0000"/>
     <use xlink:href="#m4967a19a14" x="350.481292" y="124.297132" style="fill: #ff0000; stroke: #ff0000"/>
     <use xlink:href="#m4967a19a14" x="352.366612" y="113.213901" style="fill: #ff0000; stroke: #ff0000"/>
     <use xlink:href="#m4967a19a14" x="354.191115" y="106.856272" style="fill: #ff0000; stroke: #ff0000"/>
     <use xlink:href="#m4967a19a14" x="356.076435" y="121.096626" style="fill: #ff0000; stroke: #ff0000"/>
     <use xlink:href="#m4967a19a14" x="357.961755" y="98.674106" style="fill: #ff0000; stroke: #ff0000"/>
     <use xlink:href="#m4967a19a14" x="359.725442" y="106.993972" style="fill: #ff0000; stroke: #ff0000"/>
     <use xlink:href="#m4967a19a14" x="361.610762" y="111.257625" style="fill: #ff0000; stroke: #ff0000"/>
     <use xlink:href="#m4967a19a14" x="363.435265" y="115.722306" style="fill: #ff0000; stroke: #ff0000"/>
     <use xlink:href="#m4967a19a14" x="365.320585" y="144.121943" style="fill: #ff0000; stroke: #ff0000"/>
     <use xlink:href="#m4967a19a14" x="367.145088" y="132.873171" style="fill: #ff0000; stroke: #ff0000"/>
     <use xlink:href="#m4967a19a14" x="369.030408" y="112.598535" style="fill: #ff0000; stroke: #ff0000"/>
     <use xlink:href="#m4967a19a14" x="370.915728" y="109.971111" style="fill: #ff0000; stroke: #ff0000"/>
     <use xlink:href="#m4967a19a14" x="372.740232" y="101.239823" style="fill: #ff0000; stroke: #ff0000"/>
     <use xlink:href="#m4967a19a14" x="374.625552" y="129.717553" style="fill: #ff0000; stroke: #ff0000"/>
     <use xlink:href="#m4967a19a14" x="376.450055" y="135.851107" style="fill: #ff0000; stroke: #ff0000"/>
     <use xlink:href="#m4967a19a14" x="378.335375" y="108.264097" style="fill: #ff0000; stroke: #ff0000"/>
     <use xlink:href="#m4967a19a14" x="380.220695" y="99.722642" style="fill: #ff0000; stroke: #ff0000"/>
     <use xlink:href="#m4967a19a14" x="381.923565" y="106.223734" style="fill: #ff0000; stroke: #ff0000"/>
     <use xlink:href="#m4967a19a14" x="383.808885" y="111.518207" style="fill: #ff0000; stroke: #ff0000"/>
     <use xlink:href="#m4967a19a14" x="385.633388" y="117.397993" style="fill: #ff0000; stroke: #ff0000"/>
     <use xlink:href="#m4967a19a14" x="387.518708" y="103.396695" style="fill: #ff0000; stroke: #ff0000"/>
     <use xlink:href="#m4967a19a14" x="389.343212" y="126.78274" style="fill: #ff0000; stroke: #ff0000"/>
     <use xlink:href="#m4967a19a14" x="391.228532" y="92.473306" style="fill: #ff0000; stroke: #ff0000"/>
     <use xlink:href="#m4967a19a14" x="393.113852" y="126.991683" style="fill: #ff0000; stroke: #ff0000"/>
     <use xlink:href="#m4967a19a14" x="394.938355" y="116.875055" style="fill: #ff0000; stroke: #ff0000"/>
     <use xlink:href="#m4967a19a14" x="396.823675" y="111.769053" style="fill: #ff0000; stroke: #ff0000"/>
     <use xlink:href="#m4967a19a14" x="398.648178" y="105.442525" style="fill: #ff0000; stroke: #ff0000"/>
     <use xlink:href="#m4967a19a14" x="400.533498" y="112.687146" style="fill: #ff0000; stroke: #ff0000"/>
     <use xlink:href="#m4967a19a14" x="402.418818" y="114.412065" style="fill: #ff0000; stroke: #ff0000"/>
     <use xlink:href="#m4967a19a14" x="404.121688" y="123.764988" style="fill: #ff0000; stroke: #ff0000"/>
     <use xlink:href="#m4967a19a14" x="406.007008" y="109.626481" style="fill: #ff0000; stroke: #ff0000"/>
     <use xlink:href="#m4967a19a14" x="407.831511" y="123.115301" style="fill: #ff0000; stroke: #ff0000"/>
     <use xlink:href="#m4967a19a14" x="409.716831" y="113.793538" style="fill: #ff0000; stroke: #ff0000"/>
     <use xlink:href="#m4967a19a14" x="411.541335" y="108.281574" style="fill: #ff0000; stroke: #ff0000"/>
     <use xlink:href="#m4967a19a14" x="413.426655" y="115.37697" style="fill: #ff0000; stroke: #ff0000"/>
     <use xlink:href="#m4967a19a14" x="415.311975" y="127.858475" style="fill: #ff0000; stroke: #ff0000"/>
     <use xlink:href="#m4967a19a14" x="417.136478" y="113.815759" style="fill: #ff0000; stroke: #ff0000"/>
     <use xlink:href="#m4967a19a14" x="419.021798" y="135.996861" style="fill: #ff0000; stroke: #ff0000"/>
     <use xlink:href="#m4967a19a14" x="420.846301" y="92.952738" style="fill: #ff0000; stroke: #ff0000"/>
     <use xlink:href="#m4967a19a14" x="422.731621" y="123.765887" style="fill: #ff0000; stroke: #ff0000"/>
     <use xlink:href="#m4967a19a14" x="424.616942" y="133.50218" style="fill: #ff0000; stroke: #ff0000"/>
     <use xlink:href="#m4967a19a14" x="426.319811" y="114.837229" style="fill: #ff0000; stroke: #ff0000"/>
     <use xlink:href="#m4967a19a14" x="428.205131" y="119.851659" style="fill: #ff0000; stroke: #ff0000"/>
     <use xlink:href="#m4967a19a14" x="430.029635" y="117.771338" style="fill: #ff0000; stroke: #ff0000"/>
     <use xlink:href="#m4967a19a14" x="431.914955" y="119.931403" style="fill: #ff0000; stroke: #ff0000"/>
     <use xlink:href="#m4967a19a14" x="433.739458" y="118.856332" style="fill: #ff0000; stroke: #ff0000"/>
     <use xlink:href="#m4967a19a14" x="435.624778" y="124.482556" style="fill: #ff0000; stroke: #ff0000"/>
     <use xlink:href="#m4967a19a14" x="437.510098" y="138.501413" style="fill: #ff0000; stroke: #ff0000"/>
     <use xlink:href="#m4967a19a14" x="439.334601" y="148.452472" style="fill: #ff0000; stroke: #ff0000"/>
     <use xlink:href="#m4967a19a14" x="441.219921" y="93.87899" style="fill: #ff0000; stroke: #ff0000"/>
     <use xlink:href="#m4967a19a14" x="443.044425" y="114.260306" style="fill: #ff0000; stroke: #ff0000"/>
     <use xlink:href="#m4967a19a14" x="444.929745" y="125.181158" style="fill: #ff0000; stroke: #ff0000"/>
     <use xlink:href="#m4967a19a14" x="446.815065" y="159.766686" style="fill: #ff0000; stroke: #ff0000"/>
     <use xlink:href="#m4967a19a14" x="448.578751" y="118.832778" style="fill: #ff0000; stroke: #ff0000"/>
     <use xlink:href="#m4967a19a14" x="450.464071" y="97.655171" style="fill: #ff0000; stroke: #ff0000"/>
     <use xlink:href="#m4967a19a14" x="452.288575" y="110.827364" style="fill: #ff0000; stroke: #ff0000"/>
     <use xlink:href="#m4967a19a14" x="454.173895" y="129.903293" style="fill: #ff0000; stroke: #ff0000"/>
     <use xlink:href="#m4967a19a14" x="455.998398" y="116.476752" style="fill: #ff0000; stroke: #ff0000"/>
     <use xlink:href="#m4967a19a14" x="457.883718" y="107.847815" style="fill: #ff0000; stroke: #ff0000"/>
     <use xlink:href="#m4967a19a14" x="459.769038" y="122.85919" style="fill: #ff0000; stroke: #ff0000"/>
     <use xlink:href="#m4967a19a14" x="461.593541" y="123.14094" style="fill: #ff0000; stroke: #ff0000"/>
     <use xlink:href="#m4967a19a14" x="463.478861" y="123.775842" style="fill: #ff0000; stroke: #ff0000"/>
     <use xlink:href="#m4967a19a14" x="465.303365" y="114.784841" style="fill: #ff0000; stroke: #ff0000"/>
     <use xlink:href="#m4967a19a14" x="467.188685" y="99.13499" style="fill: #ff0000; stroke: #ff0000"/>
     <use xlink:href="#m4967a19a14" x="469.074005" y="118.645029" style="fill: #ff0000; stroke: #ff0000"/>
     <use xlink:href="#m4967a19a14" x="470.776874" y="111.460725" style="fill: #ff0000; stroke: #ff0000"/>
     <use xlink:href="#m4967a19a14" x="472.662194" y="114.18034" style="fill: #ff0000; stroke: #ff0000"/>
     <use xlink:href="#m4967a19a14" x="474.486698" y="122.653583" style="fill: #ff0000; stroke: #ff0000"/>
     <use xlink:href="#m4967a19a14" x="476.372018" y="114.743299" style="fill: #ff0000; stroke: #ff0000"/>
     <use xlink:href="#m4967a19a14" x="478.196521" y="114.234764" style="fill: #ff0000; stroke: #ff0000"/>
     <use xlink:href="#m4967a19a14" x="480.081841" y="120.297222" style="fill: #ff0000; stroke: #ff0000"/>
     <use xlink:href="#m4967a19a14" x="481.967161" y="119.77544" style="fill: #ff0000; stroke: #ff0000"/>
     <use xlink:href="#m4967a19a14" x="483.791664" y="115.164659" style="fill: #ff0000; stroke: #ff0000"/>
     <use xlink:href="#m4967a19a14" x="485.676984" y="109.242035" style="fill: #ff0000; stroke: #ff0000"/>
     <use xlink:href="#m4967a19a14" x="487.501488" y="114.113314" style="fill: #ff0000; stroke: #ff0000"/>
     <use xlink:href="#m4967a19a14" x="489.386808" y="108.549398" style="fill: #ff0000; stroke: #ff0000"/>
     <use xlink:href="#m4967a19a14" x="491.272128" y="98.667594" style="fill: #ff0000; stroke: #ff0000"/>
     <use xlink:href="#m4967a19a14" x="492.974998" y="140.349536" style="fill: #ff0000; stroke: #ff0000"/>
     <use xlink:href="#m4967a19a14" x="494.860318" y="118.205795" style="fill: #ff0000; stroke: #ff0000"/>
     <use xlink:href="#m4967a19a14" x="496.684821" y="132.824646" style="fill: #ff0000; stroke: #ff0000"/>
     <use xlink:href="#m4967a19a14" x="498.570141" y="111.255572" style="fill: #ff0000; stroke: #ff0000"/>
     <use xlink:href="#m4967a19a14" x="500.394644" y="112.950127" style="fill: #ff0000; stroke: #ff0000"/>
     <use xlink:href="#m4967a19a14" x="502.279964" y="116.816724" style="fill: #ff0000; stroke: #ff0000"/>
     <use xlink:href="#m4967a19a14" x="504.165284" y="110.589612" style="fill: #ff0000; stroke: #ff0000"/>
     <use xlink:href="#m4967a19a14" x="505.989788" y="115.375502" style="fill: #ff0000; stroke: #ff0000"/>
     <use xlink:href="#m4967a19a14" x="507.875108" y="144.281187" style="fill: #ff0000; stroke: #ff0000"/>
     <use xlink:href="#m4967a19a14" x="509.699611" y="130.608865" style="fill: #ff0000; stroke: #ff0000"/>
     <use xlink:href="#m4967a19a14" x="511.584931" y="152.817822" style="fill: #ff0000; stroke: #ff0000"/>
     <use xlink:href="#m4967a19a14" x="513.470251" y="110.214678" style="fill: #ff0000; stroke: #ff0000"/>
     <use xlink:href="#m4967a19a14" x="515.173121" y="95.58488" style="fill: #ff0000; stroke: #ff0000"/>
     <use xlink:href="#m4967a19a14" x="517.058441" y="119.305492" style="fill: #ff0000; stroke: #ff0000"/>
     <use xlink:href="#m4967a19a14" x="518.882944" y="106.625687" style="fill: #ff0000; stroke: #ff0000"/>
     <use xlink:href="#m4967a19a14" x="520.768264" y="135.35146" style="fill: #ff0000; stroke: #ff0000"/>
     <use xlink:href="#m4967a19a14" x="522.592767" y="115.992627" style="fill: #ff0000; stroke: #ff0000"/>
     <use xlink:href="#m4967a19a14" x="524.478087" y="108.776372" style="fill: #ff0000; stroke: #ff0000"/>
     <use xlink:href="#m4967a19a14" x="526.363407" y="151.719143" style="fill: #ff0000; stroke: #ff0000"/>
     <use xlink:href="#m4967a19a14" x="528.187911" y="104.607339" style="fill: #ff0000; stroke: #ff0000"/>
     <use xlink:href="#m4967a19a14" x="530.073231" y="125.390923" style="fill: #ff0000; stroke: #ff0000"/>
     <use xlink:href="#m4967a19a14" x="531.897734" y="98.34151" style="fill: #ff0000; stroke: #ff0000"/>
     <use xlink:href="#m4967a19a14" x="533.783054" y="111.417214" style="fill: #ff0000; stroke: #ff0000"/>
     <use xlink:href="#m4967a19a14" x="535.668374" y="106.569209" style="fill: #ff0000; stroke: #ff0000"/>
     <use xlink:href="#m4967a19a14" x="537.432061" y="122.329394" style="fill: #ff0000; stroke: #ff0000"/>
     <use xlink:href="#m4967a19a14" x="539.317381" y="234.317152" style="fill: #ff0000; stroke: #ff0000"/>
     <use xlink:href="#m4967a19a14" x="541.141884" y="73.50068" style="fill: #ff0000; stroke: #ff0000"/>
     <use xlink:href="#m4967a19a14" x="543.027204" y="94.877632" style="fill: #ff0000; stroke: #ff0000"/>
     <use xlink:href="#m4967a19a14" x="544.851707" y="85.191128" style="fill: #ff0000; stroke: #ff0000"/>
     <use xlink:href="#m4967a19a14" x="546.737027" y="109.195569" style="fill: #ff0000; stroke: #ff0000"/>
     <use xlink:href="#m4967a19a14" x="548.622347" y="101.18904" style="fill: #ff0000; stroke: #ff0000"/>
     <use xlink:href="#m4967a19a14" x="550.446851" y="132.131228" style="fill: #ff0000; stroke: #ff0000"/>
     <use xlink:href="#m4967a19a14" x="552.332171" y="111.637957" style="fill: #ff0000; stroke: #ff0000"/>
     <use xlink:href="#m4967a19a14" x="554.156674" y="100.380547" style="fill: #ff0000; stroke: #ff0000"/>
     <use xlink:href="#m4967a19a14" x="556.041994" y="104.361364" style="fill: #ff0000; stroke: #ff0000"/>
     <use xlink:href="#m4967a19a14" x="557.927314" y="115.045769" style="fill: #ff0000; stroke: #ff0000"/>
     <use xlink:href="#m4967a19a14" x="559.630184" y="108.236552" style="fill: #ff0000; stroke: #ff0000"/>
     <use xlink:href="#m4967a19a14" x="561.515504" y="122.773117" style="fill: #ff0000; stroke: #ff0000"/>
     <use xlink:href="#m4967a19a14" x="563.340007" y="91.624139" style="fill: #ff0000; stroke: #ff0000"/>
     <use xlink:href="#m4967a19a14" x="565.225327" y="124.852785" style="fill: #ff0000; stroke: #ff0000"/>
     <use xlink:href="#m4967a19a14" x="567.049831" y="114.134648" style="fill: #ff0000; stroke: #ff0000"/>
     <use xlink:href="#m4967a19a14" x="568.935151" y="107.4739" style="fill: #ff0000; stroke: #ff0000"/>
     <use xlink:href="#m4967a19a14" x="570.820471" y="117.728223" style="fill: #ff0000; stroke: #ff0000"/>
     <use xlink:href="#m4967a19a14" x="572.644974" y="126.417623" style="fill: #ff0000; stroke: #ff0000"/>
     <use xlink:href="#m4967a19a14" x="574.530294" y="117.693886" style="fill: #ff0000; stroke: #ff0000"/>
     <use xlink:href="#m4967a19a14" x="576.354797" y="97.989721" style="fill: #ff0000; stroke: #ff0000"/>
     <use xlink:href="#m4967a19a14" x="578.240117" y="126.282015" style="fill: #ff0000; stroke: #ff0000"/>
     <use xlink:href="#m4967a19a14" x="580.125437" y="132.566883" style="fill: #ff0000; stroke: #ff0000"/>
     <use xlink:href="#m4967a19a14" x="581.828307" y="137.938823" style="fill: #ff0000; stroke: #ff0000"/>
     <use xlink:href="#m4967a19a14" x="583.713627" y="125.505003" style="fill: #ff0000; stroke: #ff0000"/>
     <use xlink:href="#m4967a19a14" x="585.53813" y="120.213151" style="fill: #ff0000; stroke: #ff0000"/>
     <use xlink:href="#m4967a19a14" x="587.42345" y="164.073703" style="fill: #ff0000; stroke: #ff0000"/>
     <use xlink:href="#m4967a19a14" x="589.247954" y="137.148038" style="fill: #ff0000; stroke: #ff0000"/>
     <use xlink:href="#m4967a19a14" x="591.133274" y="119.010205" style="fill: #ff0000; stroke: #ff0000"/>
     <use xlink:href="#m4967a19a14" x="593.018594" y="88.764672" style="fill: #ff0000; stroke: #ff0000"/>
     <use xlink:href="#m4967a19a14" x="594.843097" y="172.938441" style="fill: #ff0000; stroke: #ff0000"/>
     <use xlink:href="#m4967a19a14" x="596.728417" y="125.450935" style="fill: #ff0000; stroke: #ff0000"/>
     <use xlink:href="#m4967a19a14" x="598.55292" y="89.422306" style="fill: #ff0000; stroke: #ff0000"/>
     <use xlink:href="#m4967a19a14" x="600.43824" y="131.919799" style="fill: #ff0000; stroke: #ff0000"/>
     <use xlink:href="#m4967a19a14" x="602.323561" y="114.806488" style="fill: #ff0000; stroke: #ff0000"/>
     <use xlink:href="#m4967a19a14" x="604.02643" y="109.028123" style="fill: #ff0000; stroke: #ff0000"/>
     <use xlink:href="#m4967a19a14" x="605.91175" y="135.887548" style="fill: #ff0000; stroke: #ff0000"/>
     <use xlink:href="#m4967a19a14" x="607.736254" y="99.929261" style="fill: #ff0000; stroke: #ff0000"/>
     <use xlink:href="#m4967a19a14" x="609.621574" y="124.342076" style="fill: #ff0000; stroke: #ff0000"/>
     <use xlink:href="#m4967a19a14" x="611.446077" y="92.597395" style="fill: #ff0000; stroke: #ff0000"/>
     <use xlink:href="#m4967a19a14" x="613.331397" y="105.153618" style="fill: #ff0000; stroke: #ff0000"/>
     <use xlink:href="#m4967a19a14" x="615.216717" y="131.57069" style="fill: #ff0000; stroke: #ff0000"/>
     <use xlink:href="#m4967a19a14" x="617.04122" y="122.364039" style="fill: #ff0000; stroke: #ff0000"/>
     <use xlink:href="#m4967a19a14" x="618.92654" y="136.836319" style="fill: #ff0000; stroke: #ff0000"/>
     <use xlink:href="#m4967a19a14" x="620.751044" y="93.846169" style="fill: #ff0000; stroke: #ff0000"/>
     <use xlink:href="#m4967a19a14" x="622.636364" y="102.395646" style="fill: #ff0000; stroke: #ff0000"/>
    </g>
   </g>
   <g id="line2d_32">
    <path d="M 90 119.497878 
L 648 119.497878 
" clip-path="url(#p3b30227cbe)" style="fill: none; stroke-dasharray: 5.55,2.4; stroke-dashoffset: 0; stroke: #000000; stroke-width: 1.5"/>
   </g>
   <g id="patch_3">
    <path d="M 90 256.32 
L 90 34.56 
" style="fill: none; stroke: #000000; stroke-width: 0.8; stroke-linejoin: miter; stroke-linecap: square"/>
   </g>
   <g id="patch_4">
    <path d="M 648 256.32 
L 648 34.56 
" style="fill: none; stroke: #000000; stroke-width: 0.8; stroke-linejoin: miter; stroke-linecap: square"/>
   </g>
   <g id="patch_5">
    <path d="M 90 256.32 
L 648 256.32 
" style="fill: none; stroke: #000000; stroke-width: 0.8; stroke-linejoin: miter; stroke-linecap: square"/>
   </g>
   <g id="patch_6">
    <path d="M 90 34.56 
L 648 34.56 
" style="fill: none; stroke: #000000; stroke-width: 0.8; stroke-linejoin: miter; stroke-linecap: square"/>
   </g>
   <g id="text_18">
    <!-- Residui del modello BIC Weighted Avg nel tempo -->
    <g transform="translate(222.67875 28.56) scale(0.12 -0.12)">
     <defs>
      <path id="DejaVuSans-20" transform="scale(0.015625)"/>
      <path id="DejaVuSans-6c" d="M 603 4863 
L 1178 4863 
L 1178 0 
L 603 0 
L 603 4863 
z
" transform="scale(0.015625)"/>
      <path id="DejaVuSans-6d" d="M 3328 2828 
Q 3544 3216 3844 3400 
Q 4144 3584 4550 3584 
Q 5097 3584 5394 3201 
Q 5691 2819 5691 2113 
L 5691 0 
L 5113 0 
L 5113 2094 
Q 5113 2597 4934 2840 
Q 4756 3084 4391 3084 
Q 3944 3084 3684 2787 
Q 3425 2491 3425 1978 
L 3425 0 
L 2847 0 
L 2847 2094 
Q 2847 2600 2669 2842 
Q 2491 3084 2119 3084 
Q 1678 3084 1418 2786 
Q 1159 2488 1159 1978 
L 1159 0 
L 581 0 
L 581 3500 
L 1159 3500 
L 1159 2956 
Q 1356 3278 1631 3431 
Q 1906 3584 2284 3584 
Q 2666 3584 2933 3390 
Q 3200 3197 3328 2828 
z
" transform="scale(0.015625)"/>
      <path id="DejaVuSans-6f" d="M 1959 3097 
Q 1497 3097 1228 2736 
Q 959 2375 959 1747 
Q 959 1119 1226 758 
Q 1494 397 1959 397 
Q 2419 397 2687 759 
Q 2956 1122 2956 1747 
Q 2956 2369 2687 2733 
Q 2419 3097 1959 3097 
z
M 1959 3584 
Q 2709 3584 3137 3096 
Q 3566 2609 3566 1747 
Q 3566 888 3137 398 
Q 2709 -91 1959 -91 
Q 1206 -91 779 398 
Q 353 888 353 1747 
Q 353 2609 779 3096 
Q 1206 3584 1959 3584 
z
" transform="scale(0.015625)"/>
      <path id="DejaVuSans-42" d="M 1259 2228 
L 1259 519 
L 2272 519 
Q 2781 519 3026 730 
Q 3272 941 3272 1375 
Q 3272 1813 3026 2020 
Q 2781 2228 2272 2228 
L 1259 2228 
z
M 1259 4147 
L 1259 2741 
L 2194 2741 
Q 2656 2741 2882 2914 
Q 3109 3088 3109 3444 
Q 3109 3797 2882 3972 
Q 2656 4147 2194 4147 
L 1259 4147 
z
M 628 4666 
L 2241 4666 
Q 2963 4666 3353 4366 
Q 3744 4066 3744 3513 
Q 3744 3084 3544 2831 
Q 3344 2578 2956 2516 
Q 3422 2416 3680 2098 
Q 3938 1781 3938 1306 
Q 3938 681 3513 340 
Q 3088 0 2303 0 
L 628 0 
L 628 4666 
z
" transform="scale(0.015625)"/>
      <path id="DejaVuSans-49" d="M 628 4666 
L 1259 4666 
L 1259 0 
L 628 0 
L 628 4666 
z
" transform="scale(0.015625)"/>
      <path id="DejaVuSans-43" d="M 4122 4306 
L 4122 3641 
Q 3803 3938 3442 4084 
Q 3081 4231 2675 4231 
Q 1875 4231 1450 3742 
Q 1025 3253 1025 2328 
Q 1025 1406 1450 917 
Q 1875 428 2675 428 
Q 3081 428 3442 575 
Q 3803 722 4122 1019 
L 4122 359 
Q 3791 134 3420 21 
Q 3050 -91 2638 -91 
Q 1578 -91 968 557 
Q 359 1206 359 2328 
Q 359 3453 968 4101 
Q 1578 4750 2638 4750 
Q 3056 4750 3426 4639 
Q 3797 4528 4122 4306 
z
" transform="scale(0.015625)"/>
      <path id="DejaVuSans-57" d="M 213 4666 
L 850 4666 
L 1831 722 
L 2809 4666 
L 3519 4666 
L 4500 722 
L 5478 4666 
L 6119 4666 
L 4947 0 
L 4153 0 
L 3169 4050 
L 2175 0 
L 1381 0 
L 213 4666 
z
" transform="scale(0.015625)"/>
      <path id="DejaVuSans-67" d="M 2906 1791 
Q 2906 2416 2648 2759 
Q 2391 3103 1925 3103 
Q 1463 3103 1205 2759 
Q 947 2416 947 1791 
Q 947 1169 1205 825 
Q 1463 481 1925 481 
Q 2391 481 2648 825 
Q 2906 1169 2906 1791 
z
M 3481 434 
Q 3481 -459 3084 -895 
Q 2688 -1331 1869 -1331 
Q 1566 -1331 1297 -1286 
Q 1028 -1241 775 -1147 
L 775 -588 
Q 1028 -725 1275 -790 
Q 1522 -856 1778 -856 
Q 2344 -856 2625 -561 
Q 2906 -266 2906 331 
L 2906 616 
Q 2728 306 2450 153 
Q 2172 0 1784 0 
Q 1141 0 747 490 
Q 353 981 353 1791 
Q 353 2603 747 3093 
Q 1141 3584 1784 3584 
Q 2172 3584 2450 3431 
Q 2728 3278 2906 2969 
L 2906 3500 
L 3481 3500 
L 3481 434 
z
" transform="scale(0.015625)"/>
      <path id="DejaVuSans-68" d="M 3513 2113 
L 3513 0 
L 2938 0 
L 2938 2094 
Q 2938 2591 2744 2837 
Q 2550 3084 2163 3084 
Q 1697 3084 1428 2787 
Q 1159 2491 1159 1978 
L 1159 0 
L 581 0 
L 581 4863 
L 1159 4863 
L 1159 2956 
Q 1366 3272 1645 3428 
Q 1925 3584 2291 3584 
Q 2894 3584 3203 3211 
Q 3513 2838 3513 2113 
z
" transform="scale(0.015625)"/>
      <path id="DejaVuSans-41" d="M 2188 4044 
L 1331 1722 
L 3047 1722 
L 2188 4044 
z
M 1831 4666 
L 2547 4666 
L 4325 0 
L 3669 0 
L 3244 1197 
L 1141 1197 
L 716 0 
L 50 0 
L 1831 4666 
z
" transform="scale(0.015625)"/>
      <path id="DejaVuSans-76" d="M 191 3500 
L 800 3500 
L 1894 563 
L 2988 3500 
L 3597 3500 
L 2284 0 
L 1503 0 
L 191 3500 
z
" transform="scale(0.015625)"/>
      <path id="DejaVuSans-6e" d="M 3513 2113 
L 3513 0 
L 2938 0 
L 2938 2094 
Q 2938 2591 2744 2837 
Q 2550 3084 2163 3084 
Q 1697 3084 1428 2787 
Q 1159 2491 1159 1978 
L 1159 0 
L 581 0 
L 581 3500 
L 1159 3500 
L 1159 2956 
Q 1366 3272 1645 3428 
Q 1925 3584 2291 3584 
Q 2894 3584 3203 3211 
Q 3513 2838 3513 2113 
z
" transform="scale(0.015625)"/>
      <path id="DejaVuSans-70" d="M 1159 525 
L 1159 -1331 
L 581 -1331 
L 581 3500 
L 1159 3500 
L 1159 2969 
Q 1341 3281 1617 3432 
Q 1894 3584 2278 3584 
Q 2916 3584 3314 3078 
Q 3713 2572 3713 1747 
Q 3713 922 3314 415 
Q 2916 -91 2278 -91 
Q 1894 -91 1617 61 
Q 1341 213 1159 525 
z
M 3116 1747 
Q 3116 2381 2855 2742 
Q 2594 3103 2138 3103 
Q 1681 3103 1420 2742 
Q 1159 2381 1159 1747 
Q 1159 1113 1420 752 
Q 1681 391 2138 391 
Q 2594 391 2855 752 
Q 3116 1113 3116 1747 
z
" transform="scale(0.015625)"/>
     </defs>
     <use xlink:href="#DejaVuSans-52"/>
     <use xlink:href="#DejaVuSans-65" x="64.982422"/>
     <use xlink:href="#DejaVuSans-73" x="126.505859"/>
     <use xlink:href="#DejaVuSans-69" x="178.605469"/>
     <use xlink:href="#DejaVuSans-64" x="206.388672"/>
     <use xlink:href="#DejaVuSans-75" x="269.865234"/>
     <use xlink:href="#DejaVuSans-69" x="333.244141"/>
     <use xlink:href="#DejaVuSans-20" x="361.027344"/>
     <use xlink:href="#DejaVuSans-64" x="392.814453"/>
     <use xlink:href="#DejaVuSans-65" x="456.291016"/>
     <use xlink:href="#DejaVuSans-6c" x="517.814453"/>
     <use xlink:href="#DejaVuSans-20" x="545.597656"/>
     <use xlink:href="#DejaVuSans-6d" x="577.384766"/>
     <use xlink:href="#DejaVuSans-6f" x="674.796875"/>
     <use xlink:href="#DejaVuSans-64" x="735.978516"/>
     <use xlink:href="#DejaVuSans-65" x="799.455078"/>
     <use xlink:href="#DejaVuSans-6c" x="860.978516"/>
     <use xlink:href="#DejaVuSans-6c" x="888.761719"/>
     <use xlink:href="#DejaVuSans-6f" x="916.544922"/>
     <use xlink:href="#DejaVuSans-20" x="977.726562"/>
     <use xlink:href="#DejaVuSans-42" x="1009.513672"/>
     <use xlink:href="#DejaVuSans-49" x="1078.117188"/>
     <use xlink:href="#DejaVuSans-43" x="1107.609375"/>
     <use xlink:href="#DejaVuSans-20" x="1177.433594"/>
     <use xlink:href="#DejaVuSans-57" x="1209.220703"/>
     <use xlink:href="#DejaVuSans-65" x="1302.222656"/>
     <use xlink:href="#DejaVuSans-69" x="1363.746094"/>
     <use xlink:href="#DejaVuSans-67" x="1391.529297"/>
     <use xlink:href="#DejaVuSans-68" x="1455.005859"/>
     <use xlink:href="#DejaVuSans-74" x="1518.384766"/>
     <use xlink:href="#DejaVuSans-65" x="1557.59375"/>
     <use xlink:href="#DejaVuSans-64" x="1619.117188"/>
     <use xlink:href="#DejaVuSans-20" x="1682.59375"/>
     <use xlink:href="#DejaVuSans-41" x="1714.380859"/>
     <use xlink:href="#DejaVuSans-76" x="1776.914062"/>
     <use xlink:href="#DejaVuSans-67" x="1836.09375"/>
     <use xlink:href="#DejaVuSans-20" x="1899.570312"/>
     <use xlink:href="#DejaVuSans-6e" x="1931.357422"/>
     <use xlink:href="#DejaVuSans-65" x="1994.736328"/>
     <use xlink:href="#DejaVuSans-6c" x="2056.259766"/>
     <use xlink:href="#DejaVuSans-20" x="2084.042969"/>
     <use xlink:href="#DejaVuSans-74" x="2115.830078"/>
     <use xlink:href="#DejaVuSans-65" x="2155.039062"/>
     <use xlink:href="#DejaVuSans-6d" x="2216.5625"/>
     <use xlink:href="#DejaVuSans-70" x="2313.974609"/>
     <use xlink:href="#DejaVuSans-6f" x="2377.451172"/>
    </g>
   </g>
   <g id="legend_1">
    <g id="patch_7">
     <path d="M 480.709375 57.238125 
L 641 57.238125 
Q 643 57.238125 643 55.238125 
L 643 41.56 
Q 643 39.56 641 39.56 
L 480.709375 39.56 
Q 478.709375 39.56 478.709375 41.56 
L 478.709375 55.238125 
Q 478.709375 57.238125 480.709375 57.238125 
z
" style="fill: #ffffff; opacity: 0.8; stroke: #cccccc; stroke-linejoin: miter"/>
    </g>
    <g id="line2d_33">
     <path d="M 482.709375 47.658438 
L 492.709375 47.658438 
L 502.709375 47.658438 
" style="fill: none; stroke: #ff0000; stroke-width: 1.5; stroke-linecap: square"/>
     <g>
      <use xlink:href="#m4967a19a14" x="492.709375" y="47.658438" style="fill: #ff0000; stroke: #ff0000"/>
     </g>
    </g>
    <g id="text_19">
     <!-- Residui BIC Weighted Avg -->
     <g transform="translate(510.709375 51.158438) scale(0.1 -0.1)">
      <use xlink:href="#DejaVuSans-52"/>
      <use xlink:href="#DejaVuSans-65" x="64.982422"/>
      <use xlink:href="#DejaVuSans-73" x="126.505859"/>
      <use xlink:href="#DejaVuSans-69" x="178.605469"/>
      <use xlink:href="#DejaVuSans-64" x="206.388672"/>
      <use xlink:href="#DejaVuSans-75" x="269.865234"/>
      <use xlink:href="#DejaVuSans-69" x="333.244141"/>
      <use xlink:href="#DejaVuSans-20" x="361.027344"/>
      <use xlink:href="#DejaVuSans-42" x="392.814453"/>
      <use xlink:href="#DejaVuSans-49" x="461.417969"/>
      <use xlink:href="#DejaVuSans-43" x="490.910156"/>
      <use xlink:href="#DejaVuSans-20" x="560.734375"/>
      <use xlink:href="#DejaVuSans-57" x="592.521484"/>
      <use xlink:href="#DejaVuSans-65" x="685.523438"/>
      <use xlink:href="#DejaVuSans-69" x="747.046875"/>
      <use xlink:href="#DejaVuSans-67" x="774.830078"/>
      <use xlink:href="#DejaVuSans-68" x="838.306641"/>
      <use xlink:href="#DejaVuSans-74" x="901.685547"/>
      <use xlink:href="#DejaVuSans-65" x="940.894531"/>
      <use xlink:href="#DejaVuSans-64" x="1002.417969"/>
      <use xlink:href="#DejaVuSans-20" x="1065.894531"/>
      <use xlink:href="#DejaVuSans-41" x="1097.681641"/>
      <use xlink:href="#DejaVuSans-76" x="1160.214844"/>
      <use xlink:href="#DejaVuSans-67" x="1219.394531"/>
     </g>
    </g>
   </g>
  </g>
 </g>
 <defs>
  <clipPath id="p3b30227cbe">
   <rect x="90" y="34.56" width="558" height="221.76"/>
  </clipPath>
 </defs>
</svg>
