<?xml version="1.0" encoding="utf-8" standalone="no"?>
<!DOCTYPE svg PUBLIC "-//W3C//DTD SVG 1.1//EN"
  "http://www.w3.org/Graphics/SVG/1.1/DTD/svg11.dtd">
<svg xmlns:xlink="http://www.w3.org/1999/xlink" width="576.924286pt" height="359.281364pt" viewBox="0 0 576.924286 359.281364" xmlns="http://www.w3.org/2000/svg" version="1.1">
 <metadata>
  <rdf:RDF xmlns:dc="http://purl.org/dc/elements/1.1/" xmlns:cc="http://creativecommons.org/ns#" xmlns:rdf="http://www.w3.org/1999/02/22-rdf-syntax-ns#">
   <cc:Work>
    <dc:type rdf:resource="http://purl.org/dc/dcmitype/StillImage"/>
    <dc:date>2024-11-08T12:21:45.869740</dc:date>
    <dc:format>image/svg+xml</dc:format>
    <dc:creator>
     <cc:Agent>
      <dc:title>Matplotlib v3.9.2, https://matplotlib.org/</dc:title>
     </cc:Agent>
    </dc:creator>
   </cc:Work>
  </rdf:RDF>
 </metadata>
 <defs>
  <style type="text/css">*{stroke-linejoin: round; stroke-linecap: butt}</style>
 </defs>
 <g id="figure_1">
  <g id="patch_1">
   <path d="M 0 359.281364 
L 576.924286 359.281364 
L 576.924286 0 
L 0 0 
z
" style="fill: #ffffff"/>
  </g>
  <g id="axes_1">
   <g id="patch_2">
    <path d="M 15.324286 336.24 
L 573.324286 336.24 
L 573.324286 3.6 
L 15.324286 3.6 
z
" style="fill: #ffffff"/>
   </g>
   <g id="matplotlib.axis_1">
    <g id="xtick_1">
     <g id="line2d_1">
      <defs>
       <path id="m284e8fd3fb" d="M 0 0 
L 0 -3 
" style="stroke: #000000; stroke-width: 0.5"/>
      </defs>
      <g>
       <use xlink:href="#m284e8fd3fb" x="72.29677" y="336.24" style="stroke: #000000; stroke-width: 0.5"/>
      </g>
     </g>
     <g id="line2d_2">
      <defs>
       <path id="m42be7a6cfa" d="M 0 0 
L 0 3 
" style="stroke: #000000; stroke-width: 0.5"/>
      </defs>
      <g>
       <use xlink:href="#m42be7a6cfa" x="72.29677" y="3.6" style="stroke: #000000; stroke-width: 0.5"/>
      </g>
     </g>
     <g id="text_1">
      <!-- $\mathdefault{1950}$ -->
      <g transform="translate(55.848198 352.1933) scale(0.18 -0.18)">
       <defs>
        <path id="CMR17-31" d="M 1702 4083 
C 1702 4217 1696 4224 1606 4224 
C 1357 3927 979 3833 621 3820 
C 602 3820 570 3820 563 3808 
C 557 3795 557 3782 557 3648 
C 755 3648 1088 3686 1344 3839 
L 1344 467 
C 1344 243 1331 166 781 166 
L 589 166 
L 589 0 
C 896 6 1216 12 1523 12 
C 1830 12 2150 6 2458 0 
L 2458 166 
L 2266 166 
C 1715 166 1702 236 1702 467 
L 1702 4083 
z
" transform="scale(0.015625)"/>
        <path id="CMR17-39" d="M 2253 1871 
C 2253 448 1670 25 1190 25 
C 1043 25 685 43 538 281 
C 704 256 826 345 826 505 
C 826 678 685 736 595 736 
C 538 736 365 710 365 492 
C 365 68 742 -128 1203 -128 
C 1939 -128 2688 665 2688 2090 
C 2688 3857 1971 4224 1485 4224 
C 851 4224 243 3664 243 2800 
C 243 2000 762 1408 1414 1408 
C 1952 1408 2189 1910 2253 2122 
L 2253 1871 
z
M 1427 1510 
C 1254 1510 1011 1542 813 1929 
C 678 2181 678 2477 678 2793 
C 678 3174 678 3438 858 3722 
C 947 3857 1114 4076 1485 4076 
C 2240 4076 2240 2909 2240 2651 
C 2240 2193 2035 1510 1427 1510 
z
" transform="scale(0.015625)"/>
        <path id="CMR17-35" d="M 730 3750 
C 794 3724 1056 3641 1325 3641 
C 1920 3641 2246 3961 2432 4140 
C 2432 4191 2432 4224 2394 4224 
C 2387 4224 2374 4224 2323 4198 
C 2099 4102 1837 4032 1517 4032 
C 1325 4032 1037 4055 723 4191 
C 653 4224 640 4224 634 4224 
C 602 4224 595 4217 595 4090 
L 595 2231 
C 595 2113 595 2080 659 2080 
C 691 2080 704 2093 736 2139 
C 941 2435 1222 2560 1542 2560 
C 1766 2560 2246 2415 2246 1293 
C 2246 1087 2246 716 2054 422 
C 1894 159 1645 25 1370 25 
C 947 25 518 319 403 812 
C 429 806 480 793 506 793 
C 589 793 749 838 749 1036 
C 749 1209 627 1280 506 1280 
C 358 1280 262 1190 262 1011 
C 262 454 704 -128 1382 -128 
C 2042 -128 2669 441 2669 1267 
C 2669 2054 2170 2662 1549 2662 
C 1222 2662 947 2540 730 2304 
L 730 3750 
z
" transform="scale(0.015625)"/>
        <path id="CMR17-30" d="M 2688 2038 
C 2688 2430 2682 3099 2413 3613 
C 2176 4063 1798 4224 1466 4224 
C 1158 4224 768 4082 525 3620 
C 269 3137 243 2539 243 2038 
C 243 1671 250 1112 448 623 
C 723 -39 1216 -128 1466 -128 
C 1760 -128 2208 -7 2470 604 
C 2662 1048 2688 1568 2688 2038 
z
M 1466 -26 
C 1056 -26 813 328 723 816 
C 653 1196 653 1749 653 2109 
C 653 2604 653 3015 736 3407 
C 858 3954 1216 4121 1466 4121 
C 1728 4121 2067 3947 2189 3420 
C 2272 3054 2278 2623 2278 2109 
C 2278 1691 2278 1176 2202 797 
C 2067 96 1690 -26 1466 -26 
z
" transform="scale(0.015625)"/>
       </defs>
       <use xlink:href="#CMR17-31" transform="scale(0.996264)"/>
       <use xlink:href="#CMR17-39" transform="translate(45.690477 0) scale(0.996264)"/>
       <use xlink:href="#CMR17-35" transform="translate(91.380954 0) scale(0.996264)"/>
       <use xlink:href="#CMR17-30" transform="translate(137.071431 0) scale(0.996264)"/>
      </g>
     </g>
    </g>
    <g id="xtick_2">
     <g id="line2d_3">
      <g>
       <use xlink:href="#m284e8fd3fb" x="136.57044" y="336.24" style="stroke: #000000; stroke-width: 0.5"/>
      </g>
     </g>
     <g id="line2d_4">
      <g>
       <use xlink:href="#m42be7a6cfa" x="136.57044" y="3.6" style="stroke: #000000; stroke-width: 0.5"/>
      </g>
     </g>
     <g id="text_2">
      <!-- $\mathdefault{1960}$ -->
      <g transform="translate(120.121869 352.1933) scale(0.18 -0.18)">
       <defs>
        <path id="CMR17-36" d="M 678 2198 
C 678 3712 1395 4076 1811 4076 
C 1946 4076 2272 4049 2400 3782 
C 2298 3782 2106 3782 2106 3558 
C 2106 3385 2246 3328 2336 3328 
C 2394 3328 2566 3353 2566 3571 
C 2566 3987 2246 4224 1805 4224 
C 1043 4224 243 3411 243 2011 
C 243 257 966 -128 1478 -128 
C 2099 -128 2688 431 2688 1295 
C 2688 2101 2170 2688 1517 2688 
C 1126 2688 838 2430 678 1979 
L 678 2198 
z
M 1478 25 
C 691 25 691 1212 691 1450 
C 691 1914 909 2585 1504 2585 
C 1613 2585 1926 2585 2138 2140 
C 2253 1889 2253 1624 2253 1302 
C 2253 954 2253 696 2118 438 
C 1978 173 1773 25 1478 25 
z
" transform="scale(0.015625)"/>
       </defs>
       <use xlink:href="#CMR17-31" transform="scale(0.996264)"/>
       <use xlink:href="#CMR17-39" transform="translate(45.690477 0) scale(0.996264)"/>
       <use xlink:href="#CMR17-36" transform="translate(91.380954 0) scale(0.996264)"/>
       <use xlink:href="#CMR17-30" transform="translate(137.071431 0) scale(0.996264)"/>
      </g>
     </g>
    </g>
    <g id="xtick_3">
     <g id="line2d_5">
      <g>
       <use xlink:href="#m284e8fd3fb" x="200.86171" y="336.24" style="stroke: #000000; stroke-width: 0.5"/>
      </g>
     </g>
     <g id="line2d_6">
      <g>
       <use xlink:href="#m42be7a6cfa" x="200.86171" y="3.6" style="stroke: #000000; stroke-width: 0.5"/>
      </g>
     </g>
     <g id="text_3">
      <!-- $\mathdefault{1970}$ -->
      <g transform="translate(184.413138 352.1933) scale(0.18 -0.18)">
       <defs>
        <path id="CMR17-37" d="M 2886 3955 
L 2886 4096 
L 1382 4096 
C 634 4096 621 4166 595 4288 
L 480 4288 
L 294 3104 
L 410 3104 
C 429 3226 474 3552 550 3673 
C 589 3724 1062 3724 1171 3724 
L 2579 3724 
L 1869 2670 
C 1395 1961 1069 1003 1069 166 
C 1069 89 1069 -128 1299 -128 
C 1530 -128 1530 89 1530 172 
L 1530 466 
C 1530 1514 1709 2204 2003 2644 
L 2886 3955 
z
" transform="scale(0.015625)"/>
       </defs>
       <use xlink:href="#CMR17-31" transform="scale(0.996264)"/>
       <use xlink:href="#CMR17-39" transform="translate(45.690477 0) scale(0.996264)"/>
       <use xlink:href="#CMR17-37" transform="translate(91.380954 0) scale(0.996264)"/>
       <use xlink:href="#CMR17-30" transform="translate(137.071431 0) scale(0.996264)"/>
      </g>
     </g>
    </g>
    <g id="xtick_4">
     <g id="line2d_7">
      <g>
       <use xlink:href="#m284e8fd3fb" x="265.135381" y="336.24" style="stroke: #000000; stroke-width: 0.5"/>
      </g>
     </g>
     <g id="line2d_8">
      <g>
       <use xlink:href="#m42be7a6cfa" x="265.135381" y="3.6" style="stroke: #000000; stroke-width: 0.5"/>
      </g>
     </g>
     <g id="text_4">
      <!-- $\mathdefault{1980}$ -->
      <g transform="translate(248.686809 352.1933) scale(0.18 -0.18)">
       <defs>
        <path id="CMR17-38" d="M 1741 2289 
C 2144 2494 2554 2803 2554 3298 
C 2554 3884 1990 4224 1472 4224 
C 890 4224 378 3800 378 3215 
C 378 3054 416 2777 666 2533 
C 730 2469 998 2276 1171 2154 
C 883 2006 211 1652 211 945 
C 211 282 838 -128 1459 -128 
C 2144 -128 2720 366 2720 1022 
C 2720 1607 2330 1877 2074 2051 
L 1741 2289 
z
M 902 2855 
C 851 2887 595 3086 595 3388 
C 595 3781 998 4076 1459 4076 
C 1965 4076 2336 3716 2336 3298 
C 2336 2700 1670 2359 1638 2359 
C 1632 2359 1626 2359 1574 2398 
L 902 2855 
z
M 2080 1536 
C 2176 1466 2483 1253 2483 861 
C 2483 385 2010 25 1472 25 
C 890 25 448 443 448 951 
C 448 1459 838 1884 1280 2083 
L 2080 1536 
z
" transform="scale(0.015625)"/>
       </defs>
       <use xlink:href="#CMR17-31" transform="scale(0.996264)"/>
       <use xlink:href="#CMR17-39" transform="translate(45.690477 0) scale(0.996264)"/>
       <use xlink:href="#CMR17-38" transform="translate(91.380954 0) scale(0.996264)"/>
       <use xlink:href="#CMR17-30" transform="translate(137.071431 0) scale(0.996264)"/>
      </g>
     </g>
    </g>
    <g id="xtick_5">
     <g id="line2d_9">
      <g>
       <use xlink:href="#m284e8fd3fb" x="329.42665" y="336.24" style="stroke: #000000; stroke-width: 0.5"/>
      </g>
     </g>
     <g id="line2d_10">
      <g>
       <use xlink:href="#m42be7a6cfa" x="329.42665" y="3.6" style="stroke: #000000; stroke-width: 0.5"/>
      </g>
     </g>
     <g id="text_5">
      <!-- $\mathdefault{1990}$ -->
      <g transform="translate(312.978079 352.1933) scale(0.18 -0.18)">
       <use xlink:href="#CMR17-31" transform="scale(0.996264)"/>
       <use xlink:href="#CMR17-39" transform="translate(45.690477 0) scale(0.996264)"/>
       <use xlink:href="#CMR17-39" transform="translate(91.380954 0) scale(0.996264)"/>
       <use xlink:href="#CMR17-30" transform="translate(137.071431 0) scale(0.996264)"/>
      </g>
     </g>
    </g>
    <g id="xtick_6">
     <g id="line2d_11">
      <g>
       <use xlink:href="#m284e8fd3fb" x="393.700321" y="336.24" style="stroke: #000000; stroke-width: 0.5"/>
      </g>
     </g>
     <g id="line2d_12">
      <g>
       <use xlink:href="#m42be7a6cfa" x="393.700321" y="3.6" style="stroke: #000000; stroke-width: 0.5"/>
      </g>
     </g>
     <g id="text_6">
      <!-- $\mathdefault{2000}$ -->
      <g transform="translate(377.251749 352.1933) scale(0.18 -0.18)">
       <defs>
        <path id="CMR17-32" d="M 2669 990 
L 2554 990 
C 2490 537 2438 460 2413 422 
C 2381 371 1920 371 1830 371 
L 602 371 
C 832 620 1280 1073 1824 1596 
C 2214 1966 2669 2400 2669 3033 
C 2669 3788 2067 4224 1395 4224 
C 691 4224 262 3603 262 3027 
C 262 2777 448 2745 525 2745 
C 589 2745 781 2783 781 3007 
C 781 3206 614 3264 525 3264 
C 486 3264 448 3257 422 3244 
C 544 3788 915 4057 1306 4057 
C 1862 4057 2227 3616 2227 3033 
C 2227 2477 1901 1998 1536 1583 
L 262 147 
L 262 0 
L 2515 0 
L 2669 990 
z
" transform="scale(0.015625)"/>
       </defs>
       <use xlink:href="#CMR17-32" transform="scale(0.996264)"/>
       <use xlink:href="#CMR17-30" transform="translate(45.690477 0) scale(0.996264)"/>
       <use xlink:href="#CMR17-30" transform="translate(91.380954 0) scale(0.996264)"/>
       <use xlink:href="#CMR17-30" transform="translate(137.071431 0) scale(0.996264)"/>
      </g>
     </g>
    </g>
    <g id="xtick_7">
     <g id="line2d_13">
      <g>
       <use xlink:href="#m284e8fd3fb" x="457.991591" y="336.24" style="stroke: #000000; stroke-width: 0.5"/>
      </g>
     </g>
     <g id="line2d_14">
      <g>
       <use xlink:href="#m42be7a6cfa" x="457.991591" y="3.6" style="stroke: #000000; stroke-width: 0.5"/>
      </g>
     </g>
     <g id="text_7">
      <!-- $\mathdefault{2010}$ -->
      <g transform="translate(441.543019 352.1933) scale(0.18 -0.18)">
       <use xlink:href="#CMR17-32" transform="scale(0.996264)"/>
       <use xlink:href="#CMR17-30" transform="translate(45.690477 0) scale(0.996264)"/>
       <use xlink:href="#CMR17-31" transform="translate(91.380954 0) scale(0.996264)"/>
       <use xlink:href="#CMR17-30" transform="translate(137.071431 0) scale(0.996264)"/>
      </g>
     </g>
    </g>
    <g id="xtick_8">
     <g id="line2d_15">
      <g>
       <use xlink:href="#m284e8fd3fb" x="522.265261" y="336.24" style="stroke: #000000; stroke-width: 0.5"/>
      </g>
     </g>
     <g id="line2d_16">
      <g>
       <use xlink:href="#m42be7a6cfa" x="522.265261" y="3.6" style="stroke: #000000; stroke-width: 0.5"/>
      </g>
     </g>
     <g id="text_8">
      <!-- $\mathdefault{2020}$ -->
      <g transform="translate(505.816689 352.1933) scale(0.18 -0.18)">
       <use xlink:href="#CMR17-32" transform="scale(0.996264)"/>
       <use xlink:href="#CMR17-30" transform="translate(45.690477 0) scale(0.996264)"/>
       <use xlink:href="#CMR17-32" transform="translate(91.380954 0) scale(0.996264)"/>
       <use xlink:href="#CMR17-30" transform="translate(137.071431 0) scale(0.996264)"/>
      </g>
     </g>
    </g>
    <g id="xtick_9">
     <g id="line2d_17">
      <defs>
       <path id="mcaf26fbc8f" d="M 0 0 
L 0 -1.5 
" style="stroke: #000000; stroke-width: 0.5"/>
      </defs>
      <g>
       <use xlink:href="#mcaf26fbc8f" x="24.078318" y="336.24" style="stroke: #000000; stroke-width: 0.5"/>
      </g>
     </g>
     <g id="line2d_18">
      <defs>
       <path id="ma3e85814a1" d="M 0 0 
L 0 1.5 
" style="stroke: #000000; stroke-width: 0.5"/>
      </defs>
      <g>
       <use xlink:href="#ma3e85814a1" x="24.078318" y="3.6" style="stroke: #000000; stroke-width: 0.5"/>
      </g>
     </g>
    </g>
    <g id="xtick_10">
     <g id="line2d_19">
      <g>
       <use xlink:href="#mcaf26fbc8f" x="40.151135" y="336.24" style="stroke: #000000; stroke-width: 0.5"/>
      </g>
     </g>
     <g id="line2d_20">
      <g>
       <use xlink:href="#ma3e85814a1" x="40.151135" y="3.6" style="stroke: #000000; stroke-width: 0.5"/>
      </g>
     </g>
    </g>
    <g id="xtick_11">
     <g id="line2d_21">
      <g>
       <use xlink:href="#mcaf26fbc8f" x="56.223952" y="336.24" style="stroke: #000000; stroke-width: 0.5"/>
      </g>
     </g>
     <g id="line2d_22">
      <g>
       <use xlink:href="#ma3e85814a1" x="56.223952" y="3.6" style="stroke: #000000; stroke-width: 0.5"/>
      </g>
     </g>
    </g>
    <g id="xtick_12">
     <g id="line2d_23">
      <g>
       <use xlink:href="#mcaf26fbc8f" x="88.369587" y="336.24" style="stroke: #000000; stroke-width: 0.5"/>
      </g>
     </g>
     <g id="line2d_24">
      <g>
       <use xlink:href="#ma3e85814a1" x="88.369587" y="3.6" style="stroke: #000000; stroke-width: 0.5"/>
      </g>
     </g>
    </g>
    <g id="xtick_13">
     <g id="line2d_25">
      <g>
       <use xlink:href="#mcaf26fbc8f" x="104.442405" y="336.24" style="stroke: #000000; stroke-width: 0.5"/>
      </g>
     </g>
     <g id="line2d_26">
      <g>
       <use xlink:href="#ma3e85814a1" x="104.442405" y="3.6" style="stroke: #000000; stroke-width: 0.5"/>
      </g>
     </g>
    </g>
    <g id="xtick_14">
     <g id="line2d_27">
      <g>
       <use xlink:href="#mcaf26fbc8f" x="120.515222" y="336.24" style="stroke: #000000; stroke-width: 0.5"/>
      </g>
     </g>
     <g id="line2d_28">
      <g>
       <use xlink:href="#ma3e85814a1" x="120.515222" y="3.6" style="stroke: #000000; stroke-width: 0.5"/>
      </g>
     </g>
    </g>
    <g id="xtick_15">
     <g id="line2d_29">
      <g>
       <use xlink:href="#mcaf26fbc8f" x="136.58804" y="336.24" style="stroke: #000000; stroke-width: 0.5"/>
      </g>
     </g>
     <g id="line2d_30">
      <g>
       <use xlink:href="#ma3e85814a1" x="136.58804" y="3.6" style="stroke: #000000; stroke-width: 0.5"/>
      </g>
     </g>
    </g>
    <g id="xtick_16">
     <g id="line2d_31">
      <g>
       <use xlink:href="#mcaf26fbc8f" x="152.660857" y="336.24" style="stroke: #000000; stroke-width: 0.5"/>
      </g>
     </g>
     <g id="line2d_32">
      <g>
       <use xlink:href="#ma3e85814a1" x="152.660857" y="3.6" style="stroke: #000000; stroke-width: 0.5"/>
      </g>
     </g>
    </g>
    <g id="xtick_17">
     <g id="line2d_33">
      <g>
       <use xlink:href="#mcaf26fbc8f" x="168.733675" y="336.24" style="stroke: #000000; stroke-width: 0.5"/>
      </g>
     </g>
     <g id="line2d_34">
      <g>
       <use xlink:href="#ma3e85814a1" x="168.733675" y="3.6" style="stroke: #000000; stroke-width: 0.5"/>
      </g>
     </g>
    </g>
    <g id="xtick_18">
     <g id="line2d_35">
      <g>
       <use xlink:href="#mcaf26fbc8f" x="184.806492" y="336.24" style="stroke: #000000; stroke-width: 0.5"/>
      </g>
     </g>
     <g id="line2d_36">
      <g>
       <use xlink:href="#ma3e85814a1" x="184.806492" y="3.6" style="stroke: #000000; stroke-width: 0.5"/>
      </g>
     </g>
    </g>
    <g id="xtick_19">
     <g id="line2d_37">
      <g>
       <use xlink:href="#mcaf26fbc8f" x="200.87931" y="336.24" style="stroke: #000000; stroke-width: 0.5"/>
      </g>
     </g>
     <g id="line2d_38">
      <g>
       <use xlink:href="#ma3e85814a1" x="200.87931" y="3.6" style="stroke: #000000; stroke-width: 0.5"/>
      </g>
     </g>
    </g>
    <g id="xtick_20">
     <g id="line2d_39">
      <g>
       <use xlink:href="#mcaf26fbc8f" x="216.952127" y="336.24" style="stroke: #000000; stroke-width: 0.5"/>
      </g>
     </g>
     <g id="line2d_40">
      <g>
       <use xlink:href="#ma3e85814a1" x="216.952127" y="3.6" style="stroke: #000000; stroke-width: 0.5"/>
      </g>
     </g>
    </g>
    <g id="xtick_21">
     <g id="line2d_41">
      <g>
       <use xlink:href="#mcaf26fbc8f" x="233.024945" y="336.24" style="stroke: #000000; stroke-width: 0.5"/>
      </g>
     </g>
     <g id="line2d_42">
      <g>
       <use xlink:href="#ma3e85814a1" x="233.024945" y="3.6" style="stroke: #000000; stroke-width: 0.5"/>
      </g>
     </g>
    </g>
    <g id="xtick_22">
     <g id="line2d_43">
      <g>
       <use xlink:href="#mcaf26fbc8f" x="249.097762" y="336.24" style="stroke: #000000; stroke-width: 0.5"/>
      </g>
     </g>
     <g id="line2d_44">
      <g>
       <use xlink:href="#ma3e85814a1" x="249.097762" y="3.6" style="stroke: #000000; stroke-width: 0.5"/>
      </g>
     </g>
    </g>
    <g id="xtick_23">
     <g id="line2d_45">
      <g>
       <use xlink:href="#mcaf26fbc8f" x="265.17058" y="336.24" style="stroke: #000000; stroke-width: 0.5"/>
      </g>
     </g>
     <g id="line2d_46">
      <g>
       <use xlink:href="#ma3e85814a1" x="265.17058" y="3.6" style="stroke: #000000; stroke-width: 0.5"/>
      </g>
     </g>
    </g>
    <g id="xtick_24">
     <g id="line2d_47">
      <g>
       <use xlink:href="#mcaf26fbc8f" x="281.243397" y="336.24" style="stroke: #000000; stroke-width: 0.5"/>
      </g>
     </g>
     <g id="line2d_48">
      <g>
       <use xlink:href="#ma3e85814a1" x="281.243397" y="3.6" style="stroke: #000000; stroke-width: 0.5"/>
      </g>
     </g>
    </g>
    <g id="xtick_25">
     <g id="line2d_49">
      <g>
       <use xlink:href="#mcaf26fbc8f" x="297.316215" y="336.24" style="stroke: #000000; stroke-width: 0.5"/>
      </g>
     </g>
     <g id="line2d_50">
      <g>
       <use xlink:href="#ma3e85814a1" x="297.316215" y="3.6" style="stroke: #000000; stroke-width: 0.5"/>
      </g>
     </g>
    </g>
    <g id="xtick_26">
     <g id="line2d_51">
      <g>
       <use xlink:href="#mcaf26fbc8f" x="313.389032" y="336.24" style="stroke: #000000; stroke-width: 0.5"/>
      </g>
     </g>
     <g id="line2d_52">
      <g>
       <use xlink:href="#ma3e85814a1" x="313.389032" y="3.6" style="stroke: #000000; stroke-width: 0.5"/>
      </g>
     </g>
    </g>
    <g id="xtick_27">
     <g id="line2d_53">
      <g>
       <use xlink:href="#mcaf26fbc8f" x="329.46185" y="336.24" style="stroke: #000000; stroke-width: 0.5"/>
      </g>
     </g>
     <g id="line2d_54">
      <g>
       <use xlink:href="#ma3e85814a1" x="329.46185" y="3.6" style="stroke: #000000; stroke-width: 0.5"/>
      </g>
     </g>
    </g>
    <g id="xtick_28">
     <g id="line2d_55">
      <g>
       <use xlink:href="#mcaf26fbc8f" x="345.534667" y="336.24" style="stroke: #000000; stroke-width: 0.5"/>
      </g>
     </g>
     <g id="line2d_56">
      <g>
       <use xlink:href="#ma3e85814a1" x="345.534667" y="3.6" style="stroke: #000000; stroke-width: 0.5"/>
      </g>
     </g>
    </g>
    <g id="xtick_29">
     <g id="line2d_57">
      <g>
       <use xlink:href="#mcaf26fbc8f" x="361.607485" y="336.24" style="stroke: #000000; stroke-width: 0.5"/>
      </g>
     </g>
     <g id="line2d_58">
      <g>
       <use xlink:href="#ma3e85814a1" x="361.607485" y="3.6" style="stroke: #000000; stroke-width: 0.5"/>
      </g>
     </g>
    </g>
    <g id="xtick_30">
     <g id="line2d_59">
      <g>
       <use xlink:href="#mcaf26fbc8f" x="377.680302" y="336.24" style="stroke: #000000; stroke-width: 0.5"/>
      </g>
     </g>
     <g id="line2d_60">
      <g>
       <use xlink:href="#ma3e85814a1" x="377.680302" y="3.6" style="stroke: #000000; stroke-width: 0.5"/>
      </g>
     </g>
    </g>
    <g id="xtick_31">
     <g id="line2d_61">
      <g>
       <use xlink:href="#mcaf26fbc8f" x="393.75312" y="336.24" style="stroke: #000000; stroke-width: 0.5"/>
      </g>
     </g>
     <g id="line2d_62">
      <g>
       <use xlink:href="#ma3e85814a1" x="393.75312" y="3.6" style="stroke: #000000; stroke-width: 0.5"/>
      </g>
     </g>
    </g>
    <g id="xtick_32">
     <g id="line2d_63">
      <g>
       <use xlink:href="#mcaf26fbc8f" x="409.825937" y="336.24" style="stroke: #000000; stroke-width: 0.5"/>
      </g>
     </g>
     <g id="line2d_64">
      <g>
       <use xlink:href="#ma3e85814a1" x="409.825937" y="3.6" style="stroke: #000000; stroke-width: 0.5"/>
      </g>
     </g>
    </g>
    <g id="xtick_33">
     <g id="line2d_65">
      <g>
       <use xlink:href="#mcaf26fbc8f" x="425.898755" y="336.24" style="stroke: #000000; stroke-width: 0.5"/>
      </g>
     </g>
     <g id="line2d_66">
      <g>
       <use xlink:href="#ma3e85814a1" x="425.898755" y="3.6" style="stroke: #000000; stroke-width: 0.5"/>
      </g>
     </g>
    </g>
    <g id="xtick_34">
     <g id="line2d_67">
      <g>
       <use xlink:href="#mcaf26fbc8f" x="441.971572" y="336.24" style="stroke: #000000; stroke-width: 0.5"/>
      </g>
     </g>
     <g id="line2d_68">
      <g>
       <use xlink:href="#ma3e85814a1" x="441.971572" y="3.6" style="stroke: #000000; stroke-width: 0.5"/>
      </g>
     </g>
    </g>
    <g id="xtick_35">
     <g id="line2d_69">
      <g>
       <use xlink:href="#mcaf26fbc8f" x="458.044389" y="336.24" style="stroke: #000000; stroke-width: 0.5"/>
      </g>
     </g>
     <g id="line2d_70">
      <g>
       <use xlink:href="#ma3e85814a1" x="458.044389" y="3.6" style="stroke: #000000; stroke-width: 0.5"/>
      </g>
     </g>
    </g>
    <g id="xtick_36">
     <g id="line2d_71">
      <g>
       <use xlink:href="#mcaf26fbc8f" x="474.117207" y="336.24" style="stroke: #000000; stroke-width: 0.5"/>
      </g>
     </g>
     <g id="line2d_72">
      <g>
       <use xlink:href="#ma3e85814a1" x="474.117207" y="3.6" style="stroke: #000000; stroke-width: 0.5"/>
      </g>
     </g>
    </g>
    <g id="xtick_37">
     <g id="line2d_73">
      <g>
       <use xlink:href="#mcaf26fbc8f" x="490.190024" y="336.24" style="stroke: #000000; stroke-width: 0.5"/>
      </g>
     </g>
     <g id="line2d_74">
      <g>
       <use xlink:href="#ma3e85814a1" x="490.190024" y="3.6" style="stroke: #000000; stroke-width: 0.5"/>
      </g>
     </g>
    </g>
    <g id="xtick_38">
     <g id="line2d_75">
      <g>
       <use xlink:href="#mcaf26fbc8f" x="506.262842" y="336.24" style="stroke: #000000; stroke-width: 0.5"/>
      </g>
     </g>
     <g id="line2d_76">
      <g>
       <use xlink:href="#ma3e85814a1" x="506.262842" y="3.6" style="stroke: #000000; stroke-width: 0.5"/>
      </g>
     </g>
    </g>
    <g id="xtick_39">
     <g id="line2d_77">
      <g>
       <use xlink:href="#mcaf26fbc8f" x="522.335659" y="336.24" style="stroke: #000000; stroke-width: 0.5"/>
      </g>
     </g>
     <g id="line2d_78">
      <g>
       <use xlink:href="#ma3e85814a1" x="522.335659" y="3.6" style="stroke: #000000; stroke-width: 0.5"/>
      </g>
     </g>
    </g>
    <g id="xtick_40">
     <g id="line2d_79">
      <g>
       <use xlink:href="#mcaf26fbc8f" x="538.408477" y="336.24" style="stroke: #000000; stroke-width: 0.5"/>
      </g>
     </g>
     <g id="line2d_80">
      <g>
       <use xlink:href="#ma3e85814a1" x="538.408477" y="3.6" style="stroke: #000000; stroke-width: 0.5"/>
      </g>
     </g>
    </g>
    <g id="xtick_41">
     <g id="line2d_81">
      <g>
       <use xlink:href="#mcaf26fbc8f" x="554.481294" y="336.24" style="stroke: #000000; stroke-width: 0.5"/>
      </g>
     </g>
     <g id="line2d_82">
      <g>
       <use xlink:href="#ma3e85814a1" x="554.481294" y="3.6" style="stroke: #000000; stroke-width: 0.5"/>
      </g>
     </g>
    </g>
    <g id="xtick_42">
     <g id="line2d_83">
      <g>
       <use xlink:href="#mcaf26fbc8f" x="570.554112" y="336.24" style="stroke: #000000; stroke-width: 0.5"/>
      </g>
     </g>
     <g id="line2d_84">
      <g>
       <use xlink:href="#ma3e85814a1" x="570.554112" y="3.6" style="stroke: #000000; stroke-width: 0.5"/>
      </g>
     </g>
    </g>
   </g>
   <g id="matplotlib.axis_2">
    <g id="ytick_1">
     <g id="line2d_85">
      <defs>
       <path id="md91351d3d6" d="M 0 0 
L 3 0 
" style="stroke: #000000; stroke-width: 0.5"/>
      </defs>
      <g>
       <use xlink:href="#md91351d3d6" x="15.324286" y="304.932396" style="stroke: #000000; stroke-width: 0.5"/>
      </g>
     </g>
     <g id="line2d_86">
      <defs>
       <path id="m9ce9e1bed8" d="M 0 0 
L -3 0 
" style="stroke: #000000; stroke-width: 0.5"/>
      </defs>
      <g>
       <use xlink:href="#m9ce9e1bed8" x="573.324286" y="304.932396" style="stroke: #000000; stroke-width: 0.5"/>
      </g>
     </g>
     <g id="text_9">
      <!-- $\mathdefault{0}$ -->
      <g transform="translate(3.6 311.159046) scale(0.18 -0.18)">
       <use xlink:href="#CMR17-30" transform="scale(0.996264)"/>
      </g>
     </g>
    </g>
    <g id="ytick_2">
     <g id="line2d_87">
      <g>
       <use xlink:href="#md91351d3d6" x="15.324286" y="237.206906" style="stroke: #000000; stroke-width: 0.5"/>
      </g>
     </g>
     <g id="line2d_88">
      <g>
       <use xlink:href="#m9ce9e1bed8" x="573.324286" y="237.206906" style="stroke: #000000; stroke-width: 0.5"/>
      </g>
     </g>
     <g id="text_10">
      <!-- $\mathdefault{2}$ -->
      <g transform="translate(3.6 243.433556) scale(0.18 -0.18)">
       <use xlink:href="#CMR17-32" transform="scale(0.996264)"/>
      </g>
     </g>
    </g>
    <g id="ytick_3">
     <g id="line2d_89">
      <g>
       <use xlink:href="#md91351d3d6" x="15.324286" y="169.481416" style="stroke: #000000; stroke-width: 0.5"/>
      </g>
     </g>
     <g id="line2d_90">
      <g>
       <use xlink:href="#m9ce9e1bed8" x="573.324286" y="169.481416" style="stroke: #000000; stroke-width: 0.5"/>
      </g>
     </g>
     <g id="text_11">
      <!-- $\mathdefault{4}$ -->
      <g transform="translate(3.6 175.708066) scale(0.18 -0.18)">
       <defs>
        <path id="CMR17-34" d="M 2150 4147 
C 2150 4281 2144 4288 2029 4288 
L 128 1254 
L 128 1088 
L 1779 1088 
L 1779 460 
C 1779 230 1766 166 1318 166 
L 1197 166 
L 1197 0 
C 1402 12 1747 12 1965 12 
C 2182 12 2528 12 2733 0 
L 2733 166 
L 2611 166 
C 2163 166 2150 230 2150 460 
L 2150 1088 
L 2803 1088 
L 2803 1254 
L 2150 1254 
L 2150 4147 
z
M 1798 3723 
L 1798 1254 
L 256 1254 
L 1798 3723 
z
" transform="scale(0.015625)"/>
       </defs>
       <use xlink:href="#CMR17-34" transform="scale(0.996264)"/>
      </g>
     </g>
    </g>
    <g id="ytick_4">
     <g id="line2d_91">
      <g>
       <use xlink:href="#md91351d3d6" x="15.324286" y="101.755927" style="stroke: #000000; stroke-width: 0.5"/>
      </g>
     </g>
     <g id="line2d_92">
      <g>
       <use xlink:href="#m9ce9e1bed8" x="573.324286" y="101.755927" style="stroke: #000000; stroke-width: 0.5"/>
      </g>
     </g>
     <g id="text_12">
      <!-- $\mathdefault{6}$ -->
      <g transform="translate(3.6 107.982577) scale(0.18 -0.18)">
       <use xlink:href="#CMR17-36" transform="scale(0.996264)"/>
      </g>
     </g>
    </g>
    <g id="ytick_5">
     <g id="line2d_93">
      <g>
       <use xlink:href="#md91351d3d6" x="15.324286" y="34.030437" style="stroke: #000000; stroke-width: 0.5"/>
      </g>
     </g>
     <g id="line2d_94">
      <g>
       <use xlink:href="#m9ce9e1bed8" x="573.324286" y="34.030437" style="stroke: #000000; stroke-width: 0.5"/>
      </g>
     </g>
     <g id="text_13">
      <!-- $\mathdefault{8}$ -->
      <g transform="translate(3.6 40.257087) scale(0.18 -0.18)">
       <use xlink:href="#CMR17-38" transform="scale(0.996264)"/>
      </g>
     </g>
    </g>
    <g id="ytick_6">
     <g id="line2d_95">
      <defs>
       <path id="mf96eade1da" d="M 0 0 
L 1.5 0 
" style="stroke: #000000; stroke-width: 0.5"/>
      </defs>
      <g>
       <use xlink:href="#mf96eade1da" x="15.324286" y="321.863768" style="stroke: #000000; stroke-width: 0.5"/>
      </g>
     </g>
     <g id="line2d_96">
      <defs>
       <path id="mcec4cad12f" d="M 0 0 
L -1.5 0 
" style="stroke: #000000; stroke-width: 0.5"/>
      </defs>
      <g>
       <use xlink:href="#mcec4cad12f" x="573.324286" y="321.863768" style="stroke: #000000; stroke-width: 0.5"/>
      </g>
     </g>
    </g>
    <g id="ytick_7">
     <g id="line2d_97">
      <g>
       <use xlink:href="#mf96eade1da" x="15.324286" y="288.001023" style="stroke: #000000; stroke-width: 0.5"/>
      </g>
     </g>
     <g id="line2d_98">
      <g>
       <use xlink:href="#mcec4cad12f" x="573.324286" y="288.001023" style="stroke: #000000; stroke-width: 0.5"/>
      </g>
     </g>
    </g>
    <g id="ytick_8">
     <g id="line2d_99">
      <g>
       <use xlink:href="#mf96eade1da" x="15.324286" y="271.069651" style="stroke: #000000; stroke-width: 0.5"/>
      </g>
     </g>
     <g id="line2d_100">
      <g>
       <use xlink:href="#mcec4cad12f" x="573.324286" y="271.069651" style="stroke: #000000; stroke-width: 0.5"/>
      </g>
     </g>
    </g>
    <g id="ytick_9">
     <g id="line2d_101">
      <g>
       <use xlink:href="#mf96eade1da" x="15.324286" y="254.138278" style="stroke: #000000; stroke-width: 0.5"/>
      </g>
     </g>
     <g id="line2d_102">
      <g>
       <use xlink:href="#mcec4cad12f" x="573.324286" y="254.138278" style="stroke: #000000; stroke-width: 0.5"/>
      </g>
     </g>
    </g>
    <g id="ytick_10">
     <g id="line2d_103">
      <g>
       <use xlink:href="#mf96eade1da" x="15.324286" y="220.275534" style="stroke: #000000; stroke-width: 0.5"/>
      </g>
     </g>
     <g id="line2d_104">
      <g>
       <use xlink:href="#mcec4cad12f" x="573.324286" y="220.275534" style="stroke: #000000; stroke-width: 0.5"/>
      </g>
     </g>
    </g>
    <g id="ytick_11">
     <g id="line2d_105">
      <g>
       <use xlink:href="#mf96eade1da" x="15.324286" y="203.344161" style="stroke: #000000; stroke-width: 0.5"/>
      </g>
     </g>
     <g id="line2d_106">
      <g>
       <use xlink:href="#mcec4cad12f" x="573.324286" y="203.344161" style="stroke: #000000; stroke-width: 0.5"/>
      </g>
     </g>
    </g>
    <g id="ytick_12">
     <g id="line2d_107">
      <g>
       <use xlink:href="#mf96eade1da" x="15.324286" y="186.412789" style="stroke: #000000; stroke-width: 0.5"/>
      </g>
     </g>
     <g id="line2d_108">
      <g>
       <use xlink:href="#mcec4cad12f" x="573.324286" y="186.412789" style="stroke: #000000; stroke-width: 0.5"/>
      </g>
     </g>
    </g>
    <g id="ytick_13">
     <g id="line2d_109">
      <g>
       <use xlink:href="#mf96eade1da" x="15.324286" y="152.550044" style="stroke: #000000; stroke-width: 0.5"/>
      </g>
     </g>
     <g id="line2d_110">
      <g>
       <use xlink:href="#mcec4cad12f" x="573.324286" y="152.550044" style="stroke: #000000; stroke-width: 0.5"/>
      </g>
     </g>
    </g>
    <g id="ytick_14">
     <g id="line2d_111">
      <g>
       <use xlink:href="#mf96eade1da" x="15.324286" y="135.618671" style="stroke: #000000; stroke-width: 0.5"/>
      </g>
     </g>
     <g id="line2d_112">
      <g>
       <use xlink:href="#mcec4cad12f" x="573.324286" y="135.618671" style="stroke: #000000; stroke-width: 0.5"/>
      </g>
     </g>
    </g>
    <g id="ytick_15">
     <g id="line2d_113">
      <g>
       <use xlink:href="#mf96eade1da" x="15.324286" y="118.687299" style="stroke: #000000; stroke-width: 0.5"/>
      </g>
     </g>
     <g id="line2d_114">
      <g>
       <use xlink:href="#mcec4cad12f" x="573.324286" y="118.687299" style="stroke: #000000; stroke-width: 0.5"/>
      </g>
     </g>
    </g>
    <g id="ytick_16">
     <g id="line2d_115">
      <g>
       <use xlink:href="#mf96eade1da" x="15.324286" y="84.824554" style="stroke: #000000; stroke-width: 0.5"/>
      </g>
     </g>
     <g id="line2d_116">
      <g>
       <use xlink:href="#mcec4cad12f" x="573.324286" y="84.824554" style="stroke: #000000; stroke-width: 0.5"/>
      </g>
     </g>
    </g>
    <g id="ytick_17">
     <g id="line2d_117">
      <g>
       <use xlink:href="#mf96eade1da" x="15.324286" y="67.893182" style="stroke: #000000; stroke-width: 0.5"/>
      </g>
     </g>
     <g id="line2d_118">
      <g>
       <use xlink:href="#mcec4cad12f" x="573.324286" y="67.893182" style="stroke: #000000; stroke-width: 0.5"/>
      </g>
     </g>
    </g>
    <g id="ytick_18">
     <g id="line2d_119">
      <g>
       <use xlink:href="#mf96eade1da" x="15.324286" y="50.961809" style="stroke: #000000; stroke-width: 0.5"/>
      </g>
     </g>
     <g id="line2d_120">
      <g>
       <use xlink:href="#mcec4cad12f" x="573.324286" y="50.961809" style="stroke: #000000; stroke-width: 0.5"/>
      </g>
     </g>
    </g>
    <g id="ytick_19">
     <g id="line2d_121">
      <g>
       <use xlink:href="#mf96eade1da" x="15.324286" y="17.099064" style="stroke: #000000; stroke-width: 0.5"/>
      </g>
     </g>
     <g id="line2d_122">
      <g>
       <use xlink:href="#mcec4cad12f" x="573.324286" y="17.099064" style="stroke: #000000; stroke-width: 0.5"/>
      </g>
     </g>
    </g>
   </g>
   <g id="line2d_123">
    <path d="M 40.687922 216.823272 
L 41.180711 215.712109 
L 41.726298 215.736409 
L 42.254285 214.896099 
L 42.799872 213.639193 
L 43.327859 213.027813 
L 43.873446 213.730714 
L 44.419033 213.616352 
L 44.947021 211.385263 
L 46.020595 208.912432 
L 46.566182 208.340978 
L 47.111769 207.01887 
L 47.604558 206.925041 
L 48.150145 207.952417 
L 48.678132 205.837062 
L 49.223719 205.764551 
L 49.751707 205.982552 
L 50.297294 206.962542 
L 50.842881 207.625609 
L 51.370868 213.027813 
L 51.916455 213.799518 
L 52.444442 213.937546 
L 52.990029 212.93817 
L 53.535616 212.759592 
L 54.028405 211.470883 
L 55.101979 214.145648 
L 55.647566 214.754117 
L 56.175554 213.593525 
L 56.721141 211.535241 
L 57.266728 212.20753 
L 57.794715 213.095202 
L 58.340302 212.22944 
L 59.413877 213.162725 
L 59.959464 213.616352 
L 60.469851 215.325654 
L 61.015438 214.848706 
L 61.543426 212.339206 
L 62.617 209.352473 
L 63.708174 211.172155 
L 64.236162 211.55672 
L 64.781749 210.64518 
L 65.309736 212.581951 
L 65.855323 212.804148 
L 66.40091 212.427276 
L 66.893699 213.753633 
L 67.439286 213.434171 
L 67.967273 213.479624 
L 68.51286 213.730714 
L 69.040847 215.639312 
L 69.586434 213.776568 
L 70.132021 212.581951 
L 70.660009 212.141883 
L 71.205596 211.278542 
L 71.733583 210.812921 
L 72.824757 209.231894 
L 73.317546 208.576273 
L 73.863133 208.301921 
L 74.936707 206.238673 
L 75.464695 205.692194 
L 76.010282 208.243419 
L 76.555869 206.257042 
L 77.629443 203.709504 
L 78.703018 203.91463 
L 79.248605 201.499564 
L 79.741393 200.261214 
L 80.28698 200.835567 
L 80.814967 200.384575 
L 81.360554 200.369131 
L 81.888542 200.961043 
L 82.434129 200.369131 
L 82.979716 198.918296 
L 83.507703 198.056528 
L 84.05329 198.230035 
L 84.581278 199.185635 
L 85.672452 197.047745 
L 86.182839 197.669357 
L 86.728427 197.583917 
L 87.802001 197.697885 
L 88.875575 195.824237 
L 89.421162 195.689487 
L 90.494737 196.949896 
L 91.568311 194.552247 
L 92.113898 194.370677 
L 92.606687 194.787134 
L 93.152274 194.617331 
L 93.680261 196.327529 
L 94.225848 196.149843 
L 94.753836 197.385391 
L 95.299423 196.908047 
L 95.84501 196.768923 
L 96.372997 198.360751 
L 97.446571 196.616544 
L 97.992158 196.163478 
L 99.576121 193.869949 
L 100.649695 191.223267 
L 101.177683 190.953256 
L 101.72327 189.612095 
L 102.796844 188.160141 
L 103.342431 187.383121 
L 104.416006 184.567589 
L 104.961593 183.962967 
L 105.454381 182.849545 
L 105.999968 183.117528 
L 106.527955 181.968292 
L 107.073542 182.112083 
L 107.60153 180.203571 
L 108.147117 177.812847 
L 108.692704 178.019716 
L 109.220691 176.528687 
L 109.766278 178.276071 
L 110.294266 176.066001 
L 110.839853 175.751066 
L 111.38544 176.674103 
L 111.895828 176.460023 
L 112.441415 174.20462 
L 112.969402 173.807648 
L 113.514989 174.888885 
L 114.042976 175.08591 
L 114.588563 173.297057 
L 115.13415 173.498974 
L 115.662138 174.671304 
L 116.735712 175.461227 
L 117.281299 174.961724 
L 117.826886 175.706314 
L 118.319675 177.199716 
L 118.865262 176.766267 
L 119.393249 175.990751 
L 119.938836 174.714708 
L 121.012411 173.48501 
L 121.557998 175.402078 
L 122.085985 176.804743 
L 122.631572 178.983009 
L 123.159559 179.721802 
L 123.705146 179.73859 
L 124.250734 179.081687 
L 124.743522 178.966591 
L 125.289109 178.276071 
L 125.817096 178.09162 
L 126.890671 176.217006 
L 127.436258 175.298815 
L 127.981845 174.05521 
L 128.509832 173.172332 
L 129.583407 170.80839 
L 130.128994 170.175781 
L 130.674581 168.853505 
L 131.167369 169.374999 
L 131.712956 168.526326 
L 132.78653 167.458012 
L 133.314518 167.751401 
L 133.860105 166.433708 
L 134.405692 166.626982 
L 134.933679 167.993891 
L 135.479266 168.023582 
L 136.007254 167.887218 
L 136.552841 166.821366 
L 137.098428 167.417139 
L 137.608816 168.756233 
L 138.154403 169.220783 
L 138.68239 168.7866 
L 139.227977 169.097914 
L 139.755964 167.869472 
L 140.301552 168.719828 
L 140.847139 168.315941 
L 141.375126 169.350277 
L 141.920713 170.024185 
L 142.4487 168.944951 
L 142.994287 168.142608 
L 144.032663 165.083575 
L 145.106237 163.146521 
L 145.651824 162.803617 
L 146.179812 163.254717 
L 146.725399 163.347732 
L 147.270986 162.153021 
L 147.798973 162.418809 
L 148.34456 162.048283 
L 148.872548 160.548221 
L 149.418135 160.235246 
L 149.963722 161.519591 
L 150.45651 160.960426 
L 151.002097 160.926687 
L 151.530084 162.023393 
L 152.075671 164.639857 
L 152.603659 168.847417 
L 153.694833 167.132406 
L 154.22282 167.43465 
L 154.768407 168.520297 
L 155.296395 166.264083 
L 156.387569 163.544941 
L 156.880357 163.100257 
L 157.425944 163.228925 
L 157.953931 161.671916 
L 158.499518 160.999027 
L 159.027506 161.013514 
L 159.573093 161.519591 
L 160.646667 159.715315 
L 161.192254 159.631749 
L 161.720242 159.822395 
L 162.265829 159.107234 
L 162.811416 158.081966 
L 163.321804 157.668141 
L 164.395378 156.570352 
L 164.940965 156.241544 
L 165.468953 156.44351 
L 166.01454 155.208686 
L 166.560127 155.708786 
L 167.633701 154.55184 
L 168.161688 154.317192 
L 168.707275 154.908906 
L 169.252862 154.048752 
L 169.745651 153.801935 
L 170.291238 153.770722 
L 171.364812 152.82848 
L 171.8928 154.476098 
L 172.438387 154.527903 
L 172.983974 153.903578 
L 173.511961 152.790573 
L 174.057548 152.037495 
L 174.585536 151.757057 
L 175.131123 151.911749 
L 175.67671 151.329819 
L 176.169498 151.5592 
L 176.715085 152.980536 
L 177.243072 151.959773 
L 177.788659 153.790227 
L 178.316647 154.072353 
L 178.862234 154.159029 
L 179.407821 156.270923 
L 179.935808 157.484863 
L 180.481395 157.782098 
L 181.009383 156.128466 
L 181.55497 155.986606 
L 182.593345 153.564656 
L 183.666919 152.197199 
L 184.212506 151.595753 
L 184.740494 152.022677 
L 186.359655 150.438124 
L 186.905242 150.491181 
L 187.43323 151.570162 
L 187.978817 150.618858 
L 188.524404 150.711369 
L 189.034792 152.275469 
L 189.580379 152.900622 
L 190.108366 150.487641 
L 191.181941 148.819801 
L 191.727528 148.887257 
L 192.273115 149.634824 
L 192.801102 148.551314 
L 193.346689 147.725755 
L 193.874677 147.207768 
L 194.420264 146.856193 
L 194.965851 148.318121 
L 195.458639 148.484523 
L 196.004226 149.226565 
L 196.532213 148.551314 
L 197.0778 147.465771 
L 198.151375 150.829153 
L 198.696962 151.019182 
L 199.224949 150.900737 
L 200.298524 150.297044 
L 200.844111 152.141403 
L 201.389698 152.440051 
L 201.882486 153.642269 
L 202.428073 153.068278 
L 202.95606 154.115663 
L 203.501647 158.255154 
L 204.029635 158.465053 
L 204.575222 158.406865 
L 205.120809 157.437025 
L 205.648796 155.470112 
L 206.194383 154.743947 
L 206.722371 154.780089 
L 207.267958 152.537682 
L 208.85192 149.124415 
L 209.379907 147.98775 
L 209.925495 148.451177 
L 210.453482 149.083641 
L 210.999069 149.329025 
L 211.544656 149.936444 
L 212.072643 149.192481 
L 212.61823 149.919037 
L 213.146218 151.526336 
L 213.691805 149.270926 
L 214.237392 147.889264 
L 215.821354 146.13267 
L 216.366941 146.476775 
L 216.894929 146.382581 
L 217.440516 146.634349 
L 217.986103 145.454776 
L 218.51409 145.94644 
L 219.059677 145.88459 
L 219.587665 144.226537 
L 220.133252 143.527711 
L 220.678839 143.269325 
L 221.171627 144.49236 
L 222.245201 145.669001 
L 223.318776 147.401086 
L 223.864363 147.0795 
L 224.40995 147.725755 
L 224.937937 147.143573 
L 225.483524 145.822853 
L 226.557099 150.804134 
L 227.102686 150.332259 
L 227.595474 151.282679 
L 228.141061 149.866868 
L 228.669048 151.643331 
L 229.214635 152.680881 
L 229.742623 152.635594 
L 230.28821 156.838279 
L 230.833797 158.268513 
L 231.361784 161.988578 
L 231.907371 161.338677 
L 232.435359 160.235246 
L 232.980946 162.514602 
L 233.526533 159.850384 
L 234.019321 156.502644 
L 234.564908 154.981581 
L 235.092896 154.603762 
L 235.638483 152.518885 
L 236.16647 151.665313 
L 236.712057 151.632345 
L 237.257644 154.210351 
L 237.785631 154.623753 
L 238.331218 153.098851 
L 238.859206 152.530161 
L 239.404793 153.049184 
L 239.95038 150.069034 
L 240.460768 148.786123 
L 241.534342 148.351336 
L 242.079929 148.584759 
L 242.607917 148.384584 
L 243.153504 147.595514 
L 243.699091 147.889264 
L 244.227078 147.175655 
L 244.772665 148.351336 
L 245.300653 148.584759 
L 245.84624 147.433413 
L 246.391827 147.725755 
L 246.884615 148.651747 
L 247.430202 148.786123 
L 247.958189 149.311927 
L 248.503776 149.411216 
L 249.031764 149.229976 
L 249.577351 148.921035 
L 250.122938 149.759307 
L 250.650925 150.290005 
L 251.196512 151.177756 
L 251.7245 150.983246 
L 252.270087 151.148869 
L 252.815674 152.462556 
L 253.308462 152.942458 
L 253.854049 153.003403 
L 254.927623 149.877295 
L 255.455611 149.790499 
L 256.001198 149.953861 
L 256.546785 147.693148 
L 257.074772 147.693148 
L 257.620359 148.786123 
L 258.148347 150.829153 
L 258.693934 150.332259 
L 259.239521 149.087037 
L 259.732309 149.593431 
L 260.805884 148.284939 
L 261.351471 149.080246 
L 261.879458 148.417864 
L 262.425045 148.086524 
L 262.970632 146.571231 
L 263.49862 146.194975 
L 264.044207 147.49816 
L 264.572194 147.758394 
L 265.117781 146.445347 
L 265.663368 145.485297 
L 266.173756 144.167747 
L 266.719343 147.433413 
L 267.24733 147.98775 
L 267.792917 146.476775 
L 268.320905 144.373958 
L 268.866492 142.871269 
L 269.940066 141.028505 
L 270.485653 140.052262 
L 271.013641 138.651196 
L 271.559228 139.204686 
L 272.104815 139.331751 
L 272.597603 140.523677 
L 273.14319 139.280868 
L 273.671177 138.977164 
L 274.216764 139.664368 
L 274.744752 139.510447 
L 275.290339 140.339568 
L 275.835926 140.208672 
L 276.363913 143.297937 
L 276.9095 142.871269 
L 277.437488 142.006167 
L 277.983075 141.759092 
L 278.528662 143.585398 
L 279.567037 145.515845 
L 280.095025 143.875321 
L 280.640612 143.846217 
L 281.168599 145.853707 
L 281.714186 145.94644 
L 282.259773 145.853707 
L 282.78776 142.144213 
L 283.333347 139.408219 
L 283.861335 138.057532 
L 284.406922 137.740257 
L 284.952509 136.570402 
L 285.445297 135.988753 
L 286.518872 133.563389 
L 287.064459 132.216278 
L 287.592446 131.744959 
L 288.138033 131.623077 
L 288.68362 132.56891 
L 289.211608 131.582547 
L 289.757195 131.481434 
L 290.285182 131.990046 
L 290.830769 132.154429 
L 291.376356 131.744959 
L 291.886744 133.64939 
L 292.960318 133.584869 
L 293.505905 133.800419 
L 294.033893 134.565835 
L 294.57948 135.01111 
L 295.125067 132.154429 
L 295.653054 131.806064 
L 296.198641 132.072138 
L 296.726629 131.765315 
L 297.272216 132.133837 
L 297.817803 130.702946 
L 298.310591 128.915731 
L 298.856178 129.197687 
L 299.384165 128.971935 
L 300.45774 127.450375 
L 301.003327 126.811102 
L 302.076901 128.321958 
L 302.622488 127.937877 
L 303.696063 124.302859 
L 304.24165 124.156161 
L 305.280025 120.447158 
L 305.808013 119.62629 
L 306.3536 119.555225 
L 306.881587 118.603253 
L 307.427174 119.314711 
L 307.972761 118.644693 
L 308.500748 119.583633 
L 309.046336 119.711766 
L 309.574323 118.630874 
L 310.11991 118.150738 
L 311.158285 114.014283 
L 311.703872 112.643996 
L 312.23186 113.016501 
L 312.777447 113.039919 
L 313.305434 111.629006 
L 313.851021 110.66539 
L 314.396608 108.620825 
L 314.924596 109.739061 
L 315.99817 118.644693 
L 316.543757 119.202117 
L 317.599732 116.88082 
L 318.145319 115.898097 
L 318.673306 116.295507 
L 319.218893 117.144242 
L 319.746881 115.266783 
L 320.292468 115.467526 
L 320.838055 116.153956 
L 321.366042 115.60623 
L 321.911629 114.438862 
L 322.439617 115.229275 
L 322.985204 114.548905 
L 324.023579 112.470784 
L 324.569166 112.620849 
L 327.261902 106.89726 
L 328.335476 106.819191 
L 328.863464 107.528384 
L 329.409051 106.702423 
L 330.447426 108.513056 
L 330.993013 107.702024 
L 331.521001 107.73005 
L 332.594575 105.576092 
L 333.140162 105.609935 
L 333.685749 108.482327 
L 334.213737 110.09045 
L 334.759324 110.992378 
L 335.287311 110.103335 
L 335.832898 108.687712 
L 336.378485 109.025183 
L 336.871273 105.400838 
L 337.41686 104.476925 
L 337.944848 103.81042 
L 338.490435 103.961484 
L 339.018422 103.934618 
L 339.564009 103.761403 
L 340.109596 102.954428 
L 340.637584 103.146285 
L 341.711158 103.258413 
L 342.256745 103.031912 
L 342.802332 100.710328 
L 343.858307 101.427549 
L 344.386294 101.423393 
L 344.931881 100.813845 
L 345.459869 101.351987 
L 346.005456 100.794259 
L 346.551043 100.560099 
L 347.07903 100.515565 
L 347.624617 101.002948 
L 348.698192 99.154719 
L 349.243779 99.186603 
L 350.282154 98.044466 
L 350.810142 98.581283 
L 351.883716 98.202805 
L 352.429303 98.261049 
L 353.502877 97.368231 
L 354.048464 97.02635 
L 354.576452 97.100157 
L 355.122039 96.877039 
L 355.667626 96.369236 
L 356.160414 96.470333 
L 356.706001 97.032921 
L 357.233989 98.265592 
L 358.307563 97.69498 
L 358.85315 97.951316 
L 359.398737 97.001541 
L 359.926725 96.803717 
L 361.000299 97.237968 
L 361.545886 97.668188 
L 362.091473 96.927949 
L 362.584261 95.735871 
L 363.129848 94.955834 
L 365.276997 90.810496 
L 365.822584 90.704947 
L 366.350572 89.534687 
L 366.896159 89.292745 
L 367.424146 88.568021 
L 367.969733 87.502324 
L 368.51532 87.51059 
L 369.025708 85.628306 
L 369.571295 85.757321 
L 370.099282 85.752088 
L 370.64487 85.024286 
L 371.172857 84.654008 
L 371.718444 85.914683 
L 372.264031 84.95011 
L 372.792018 84.332363 
L 373.337605 83.024279 
L 373.865593 81.411811 
L 374.41118 81.06469 
L 374.956767 80.034014 
L 375.449555 78.641312 
L 375.995142 78.906586 
L 376.52313 80.135371 
L 377.068717 77.200639 
L 378.142291 73.646218 
L 378.687878 73.574929 
L 379.215866 73.219635 
L 379.761453 72.71245 
L 380.28944 73.151041 
L 380.835027 72.31569 
L 381.380614 72.280873 
L 381.873402 70.222334 
L 382.418989 68.510269 
L 382.946977 67.415876 
L 384.020551 67.532077 
L 384.566138 66.090917 
L 385.111725 68.579837 
L 385.639713 70.325029 
L 386.1853 69.934791 
L 386.713287 66.44853 
L 387.258874 65.124882 
L 387.804461 63.493925 
L 388.297249 63.553363 
L 388.842836 62.613594 
L 389.370824 61.238923 
L 389.916411 61.307237 
L 390.444398 61.550115 
L 390.989985 60.085926 
L 391.535572 61.423866 
L 392.06356 61.662447 
L 392.609147 62.132207 
L 393.137134 59.841359 
L 393.682721 58.936275 
L 394.228308 59.009594 
L 394.738696 59.893252 
L 395.284283 58.617094 
L 395.812271 58.170416 
L 396.357858 59.178904 
L 396.885845 58.156516 
L 397.977019 57.616524 
L 398.505006 58.015749 
L 399.050593 59.862302 
L 399.578581 60.158339 
L 400.124168 61.336229 
L 400.669755 61.216858 
L 401.162543 61.98302 
L 401.70813 65.244604 
L 402.236118 65.130858 
L 402.781705 62.913209 
L 404.400866 65.455141 
L 404.928854 69.537976 
L 405.474441 68.517817 
L 406.002428 66.887807 
L 406.548015 66.433739 
L 407.093602 66.573627 
L 407.58639 67.768758 
L 408.131977 66.172702 
L 409.205552 68.434253 
L 409.733539 70.545383 
L 410.279126 74.449831 
L 410.824713 74.115702 
L 411.352701 75.817985 
L 411.898288 76.336226 
L 412.426275 74.213065 
L 412.971862 74.615504 
L 413.517449 74.741521 
L 414.010237 77.040867 
L 414.555824 76.654701 
L 416.157386 71.425652 
L 416.702973 71.270404 
L 417.24856 71.373253 
L 417.776548 70.364866 
L 418.322135 69.730097 
L 418.850122 69.367897 
L 419.395709 68.390668 
L 419.941296 66.802784 
L 420.451684 66.480205 
L 420.997271 67.0591 
L 421.525259 66.777677 
L 422.070846 67.703904 
L 422.598833 66.795609 
L 423.14442 67.609766 
L 423.690007 68.131575 
L 424.217995 67.250044 
L 424.763582 67.263681 
L 425.291569 65.730956 
L 425.837156 64.865233 
L 426.382743 65.371629 
L 426.875531 64.853375 
L 427.421118 64.987156 
L 427.949106 65.861858 
L 428.494693 65.461463 
L 429.568267 64.221088 
L 430.641842 64.119285 
L 431.187429 65.070577 
L 431.715416 63.804477 
L 432.261003 63.135178 
L 432.80659 62.691096 
L 433.299378 62.746223 
L 433.844965 62.295923 
L 434.372953 62.075989 
L 434.91854 62.393694 
L 435.446527 63.374821 
L 435.992114 63.184315 
L 437.065689 61.673495 
L 437.611276 60.520511 
L 438.68485 59.228117 
L 439.230437 59.043579 
L 439.723225 58.556336 
L 440.268813 59.455279 
L 441.342387 57.036122 
L 442.415961 56.822346 
L 442.961548 58.326957 
L 444.035123 56.40298 
L 444.56311 58.123409 
L 445.108697 57.759071 
L 445.654284 60.140651 
L 446.164672 60.732539 
L 446.710259 61.69406 
L 447.238247 60.34487 
L 447.783834 59.545173 
L 448.311821 61.074671 
L 448.857408 63.262597 
L 449.402995 62.618614 
L 449.930983 64.367968 
L 450.47657 72.090192 
L 451.004557 75.228851 
L 451.550144 75.439653 
L 452.095731 75.905114 
L 452.588519 78.352437 
L 453.134106 80.438145 
L 453.662094 76.59396 
L 454.207681 74.494082 
L 454.735668 73.615856 
L 455.281255 73.263029 
L 455.826842 70.688949 
L 456.35483 69.540894 
L 457.973991 67.471334 
L 458.519578 67.071154 
L 459.012366 68.124734 
L 459.557953 66.223808 
L 460.085941 64.918644 
L 460.631528 67.026578 
L 461.159515 68.305542 
L 461.705102 68.417001 
L 462.250689 68.183235 
L 462.778677 67.116391 
L 463.324264 65.654565 
L 463.852251 64.87427 
L 465.436214 61.586749 
L 465.981801 62.015712 
L 466.509788 61.321476 
L 467.055375 61.148979 
L 467.583362 62.46517 
L 468.128949 61.482587 
L 468.674536 65.260027 
L 469.202524 65.588152 
L 469.748111 64.639802 
L 470.821685 63.642036 
L 471.87766 60.792076 
L 472.423247 59.884232 
L 472.951235 59.952796 
L 473.496822 61.074166 
L 474.024809 61.526311 
L 475.115983 59.539623 
L 475.643971 58.588696 
L 476.189558 58.720328 
L 476.717545 59.756019 
L 477.263132 59.088071 
L 477.808719 57.732069 
L 478.847094 56.158198 
L 479.375082 55.727088 
L 479.920669 54.268372 
L 480.448656 54.706288 
L 480.994243 53.678002 
L 481.53983 53.649401 
L 482.067818 53.304845 
L 482.613405 52.651661 
L 483.141392 51.423852 
L 483.686979 50.966724 
L 484.232566 50.694712 
L 484.725354 50.793712 
L 485.270941 49.938394 
L 485.798929 49.92495 
L 486.344516 49.464724 
L 486.872503 48.452877 
L 487.41809 48.00352 
L 487.963677 48.202671 
L 488.491665 47.659795 
L 489.037252 48.624093 
L 489.565239 46.798629 
L 490.110826 46.638355 
L 490.656413 47.071179 
L 491.149202 46.181057 
L 491.694789 46.217017 
L 492.768363 45.700818 
L 493.29635 45.904257 
L 493.841938 45.987431 
L 494.387525 46.876562 
L 494.915512 48.499518 
L 495.461099 47.127492 
L 495.989086 46.206762 
L 496.534673 46.641487 
L 497.08026 48.95202 
L 497.590648 49.203223 
L 498.136235 47.175356 
L 498.664223 46.289542 
L 499.20981 46.452923 
L 499.737797 46.153583 
L 500.283384 45.113329 
L 500.828971 44.767631 
L 501.902546 45.206114 
L 502.430533 44.860724 
L 502.97612 43.607275 
L 503.521707 43.180554 
L 504.014495 42.374728 
L 504.560082 41.842485 
L 505.08807 41.950104 
L 506.161644 40.89485 
L 506.707231 40.61622 
L 507.252818 40.58698 
L 507.780806 40.085844 
L 508.326393 39.225321 
L 508.85438 38.743928 
L 509.399967 37.832829 
L 509.945554 36.274684 
L 510.438343 37.317956 
L 510.98393 37.347887 
L 511.511917 37.969223 
L 514.204653 34.945302 
L 514.75024 36.327404 
L 515.278227 37.092511 
L 515.823814 39.089059 
L 516.369401 38.564489 
L 516.86219 36.701466 
L 517.407777 36.103002 
L 517.935764 34.91847 
L 518.481351 35.495829 
L 519.009339 35.077791 
L 519.554926 33.85871 
L 520.100513 34.992039 
L 520.6285 34.016831 
L 521.174087 34.067694 
L 521.702074 32.650928 
L 522.247661 31.876299 
L 522.793248 30.811761 
L 523.303636 30.820942 
L 523.849223 37.985004 
L 524.377211 36.614118 
L 525.450785 32.653585 
L 525.996372 31.548832 
L 526.541959 29.659112 
L 527.069947 29.921641 
L 527.615534 29.390698 
L 528.689108 26.756051 
L 529.727483 25.074601 
L 530.27307 24.839321 
L 530.801058 22.898563 
L 531.346645 22.681153 
L 531.874632 22.112029 
L 532.420219 21.126071 
L 532.965806 20.431017 
L 533.493794 20.496941 
L 534.039381 20.381631 
L 534.567368 18.84792 
L 535.112955 18.794375 
L 535.658542 19.533693 
L 536.151331 20.569862 
L 536.696918 20.912935 
L 537.224905 20.912698 
L 537.770492 23.733146 
L 538.298479 24.939586 
L 538.844066 24.828748 
L 539.389654 22.756687 
L 539.917641 25.362807 
L 540.463228 26.475515 
L 540.991215 24.77893 
L 541.536802 24.823109 
L 542.082389 24.407828 
L 542.575178 23.405154 
L 543.120765 24.340329 
L 543.648752 23.060108 
L 544.194339 22.857727 
L 544.722327 21.268691 
L 545.267914 20.023938 
L 546.341488 20.775721 
L 546.887075 21.865964 
L 547.96065 18.72 
L 547.96065 18.72 
" clip-path="url(#pbe3b8e0535)" style="fill: none; stroke: #0c5da5; stroke-linecap: square"/>
   </g>
   <g id="line2d_124">
    <path d="M 40.687922 307.027667 
L 42.799872 305.386925 
L 43.327859 304.932396 
L 44.947021 305.272728 
L 46.566182 306.31474 
L 48.150145 308.500192 
L 49.751707 310.83648 
L 51.370868 308.878551 
L 54.573992 296.838627 
L 56.175554 292.584579 
L 57.794715 290.091881 
L 59.413877 288.805799 
L 61.015438 286.765258 
L 63.162587 282.666964 
L 65.855323 276.875357 
L 67.439286 275.569993 
L 69.040847 275.286621 
L 70.660009 275.428011 
L 72.27917 276.434621 
L 73.863133 275.712573 
L 76.555869 271.803588 
L 77.083856 271.048254 
L 78.703018 269.586325 
L 80.28698 269.705771 
L 81.888542 271.048254 
L 83.507703 273.769096 
L 85.672452 274.912397 
L 87.256414 275.569993 
L 88.329988 276.143952 
L 90.494737 275.665027 
L 92.606687 275.005601 
L 93.152274 274.865961 
L 94.753836 273.769096 
L 96.372997 273.233705 
L 97.992158 273.769096 
L 99.576121 273.233705 
L 101.177683 272.316669 
L 102.796844 272.187668 
L 104.961593 269.665949 
L 107.073542 266.257879 
L 108.147117 264.571417 
L 109.766278 262.510403 
L 110.839853 261.368854 
L 112.441415 260.7203 
L 114.042976 261.55646 
L 115.662138 262.899634 
L 117.281299 263.39255 
L 119.393249 263.425635 
L 121.012411 263.128736 
L 122.085985 262.801906 
L 123.705146 263.792115 
L 126.890671 268.529863 
L 128.509832 269.112713 
L 130.128994 268.995337 
L 131.712956 266.510956 
L 133.314518 263.492 
L 134.933679 263.194522 
L 136.552841 263.591744 
L 138.154403 263.591744 
L 139.755964 264.915869 
L 142.994287 264.812155 
L 144.57825 266.729426 
L 146.179812 267.393423 
L 147.798973 267.17064 
L 149.963722 265.019902 
L 151.002097 263.792115 
L 152.603659 262.801906 
L 154.22282 262.221388 
L 155.841982 260.904337 
L 157.425944 260.537258 
L 159.573093 259.020096 
L 160.646667 258.328995 
L 162.265829 257.819772 
L 165.468953 255.304256 
L 167.088114 254.226714 
L 168.707275 253.626029 
L 170.819225 252.288391 
L 172.983974 250.886973 
L 173.511961 250.568133 
L 175.131123 249.169473 
L 177.788659 247.701112 
L 178.316647 247.45212 
L 181.55497 246.898494 
L 183.666919 247.763647 
L 184.740494 248.26813 
L 186.359655 248.459265 
L 187.978817 248.26813 
L 190.653953 247.041139 
L 191.727528 246.59479 
L 196.004226 245.289934 
L 198.696962 244.981055 
L 199.224949 244.88508 
L 201.389698 245.817676 
L 202.95606 246.635147 
L 204.575222 247.410779 
L 205.648796 248.078067 
L 207.267958 249.56323 
L 210.999069 248.099111 
L 212.072643 247.638692 
L 213.691805 245.995434 
L 215.821354 245.038759 
L 218.51409 243.477448 
L 220.678839 241.30577 
L 224.937937 235.855079 
L 226.557099 233.846226 
L 228.141061 233.026265 
L 230.833797 230.578532 
L 231.361784 230.116971 
L 232.980946 230.944768 
L 234.564908 232.663662 
L 236.16647 234.686536 
L 237.785631 235.54823 
L 239.404793 234.686536 
L 241.534342 231.071964 
L 242.607917 229.600536 
L 245.300653 227.679235 
L 245.84624 227.266689 
L 247.430202 226.69072 
L 249.577351 225.25456 
L 251.196512 224.448626 
L 252.270087 224.073412 
L 253.854049 223.980254 
L 257.074772 222.022325 
L 259.239521 218.991524 
L 260.277896 217.303602 
L 262.425045 215.09421 
L 263.49862 214.076138 
L 265.117781 213.547919 
L 266.719343 212.581951 
L 269.940066 214.053 
L 271.559228 213.639193 
L 273.14319 214.192067 
L 274.744752 213.207815 
L 276.363913 212.626274 
L 277.983075 212.427276 
L 279.567037 213.66205 
L 282.78776 216.648011 
L 284.406922 219.027136 
L 285.990884 219.621709 
L 287.592446 219.161353 
L 290.830769 215.494185 
L 292.432331 212.648457 
L 294.033893 210.624271 
L 295.653054 209.880004 
L 297.272216 209.71681 
L 298.856178 210.229426 
L 300.45774 211.880562 
L 302.076901 212.715094 
L 303.696063 214.122462 
L 305.280025 214.331707 
L 307.972761 213.677373 
L 308.500748 213.570715 
L 310.11991 214.425122 
L 311.703872 213.00538 
L 313.305434 214.565728 
L 316.543757 208.010418 
L 318.145319 205.964332 
L 319.746881 200.773003 
L 324.569166 195.986649 
L 326.170728 195.635736 
L 327.789889 197.755013 
L 329.409051 198.947896 
L 330.447426 200.1383 
L 330.993013 200.773003 
L 332.594575 201.41983 
L 334.213737 200.663793 
L 337.41686 201.933398 
L 338.490435 203.732178 
L 339.018422 204.50266 
L 341.183171 208.589459 
L 342.256745 211.108483 
L 343.858307 210.64518 
L 348.698192 205.065586 
L 350.282154 203.760669 
L 351.883716 204.642517 
L 354.048464 201.998145 
L 355.122039 200.430952 
L 356.706001 199.185635 
L 358.307563 195.662601 
L 359.926725 192.914944 
L 361.545886 189.087945 
L 364.73141 185.09457 
L 366.350572 184.364846 
L 367.969733 185.560011 
L 369.571295 185.480334 
L 372.264031 183.928076 
L 372.792018 183.584608 
L 374.41118 181.109392 
L 375.995142 179.814243 
L 378.142291 179.529328 
L 379.215866 179.479297 
L 380.835027 180.254685 
L 382.418989 180.40849 
L 384.566138 181.156026 
L 385.639713 181.673637 
L 387.258874 182.013161 
L 388.842836 181.416798 
L 392.609147 175.756043 
L 393.682721 173.723185 
L 395.284283 171.823203 
L 396.885845 171.184574 
L 398.505006 170.043098 
L 400.124168 172.460559 
L 401.70813 175.698861 
L 403.309692 182.849545 
L 404.400866 188.499204 
L 404.928854 191.721956 
L 406.548015 196.354948 
L 408.131977 196.341236 
L 409.733539 193.653979 
L 411.352701 189.713396 
L 412.971862 192.594318 
L 414.555824 189.399227 
L 416.157386 184.976753 
L 417.776548 181.240796 
L 419.395709 173.324836 
L 421.525259 170.243376 
L 422.598833 168.532356 
L 424.217995 167.5692 
L 425.837156 167.115051 
L 427.421118 166.162714 
L 431.715416 161.696549 
L 433.299378 160.243113 
L 433.844965 159.799088 
L 435.446527 158.96145 
L 437.065689 157.155718 
L 438.68485 155.911744 
L 441.870374 154.523916 
L 443.489536 157.14279 
L 445.108697 162.966959 
L 446.710259 166.067255 
L 448.857408 172.757592 
L 449.930983 175.320916 
L 450.47657 183.969309 
L 451.004557 195.613365 
L 451.550144 213.502374 
L 452.095731 220.208409 
L 453.134106 239.722656 
L 454.735668 236.657129 
L 455.826842 224.156434 
L 456.35483 219.296103 
L 456.900417 195.461634 
L 457.428404 181.611463 
L 457.973991 171.809913 
L 459.557953 165.765804 
L 461.159515 162.499459 
L 464.943425 157.112646 
L 465.981801 155.994934 
L 469.202524 153.712274 
L 470.821685 153.723955 
L 472.423247 153.110322 
L 474.570396 153.531079 
L 475.643971 153.899663 
L 477.263132 153.895749 
L 478.847094 153.43312 
L 482.067818 150.950936 
L 483.686979 148.921035 
L 485.270941 148.702076 
L 487.963677 147.332224 
L 488.491665 147.028328 
L 492.222776 149.740836 
L 495.989086 153.353416 
L 496.534673 153.887921 
L 498.664223 153.860538 
L 499.737797 153.735641 
L 501.356959 152.900622 
L 504.560082 148.890633 
L 506.707231 147.323626 
L 509.399967 145.79819 
L 510.98393 144.126655 
L 514.204653 140.002882 
L 517.935764 138.905852 
L 519.009339 138.75867 
L 520.6285 139.357221 
L 522.247661 137.723257 
L 523.303636 141.692599 
L 524.377211 145.56784 
L 525.450785 149.250445 
L 527.069947 149.596879 
L 528.689108 151.037165 
L 530.27307 140.576464 
L 531.346645 135.582145 
L 531.874632 133.336538 
L 534.039381 128.541553 
L 535.112955 125.879399 
L 536.696918 125.872554 
L 539.917641 127.751076 
L 541.536802 130.476767 
L 543.120765 130.005687 
L 544.722327 128.895146 
L 546.341488 128.294379 
L 547.96065 126.823418 
L 547.96065 126.823418 
" clip-path="url(#pbe3b8e0535)" style="fill: none; stroke: #00b945; stroke-linecap: square"/>
   </g>
   <g id="line2d_125">
    <path d="M 40.687922 275.712573 
L 46.566182 278.156192 
L 47.111769 278.387338 
L 54.028405 277.234614 
L 59.959464 274.726894 
L 66.40091 276.580896 
L 72.824757 276.434621 
L 74.936707 275.239622 
L 79.248605 272.969151 
L 84.05329 271.8992 
L 87.256414 271.079392 
L 92.113898 269.705771 
L 93.152274 270.41106 
L 93.680261 269.705771 
L 94.225848 267.17064 
L 94.753836 266.510956 
L 95.299423 268.529863 
L 95.84501 268.299503 
L 96.372997 269.230496 
L 96.918584 271.803588 
L 97.446571 271.549933 
L 97.992158 272.706648 
L 98.537745 274.176268 
L 99.030534 274.313087 
L 100.104108 276.875357 
L 100.649695 275.712573 
L 101.177683 275.569993 
L 101.72327 276.727807 
L 102.268857 275.855756 
L 102.796844 275.569993 
L 103.870419 274.176268 
L 104.416006 273.769096 
L 104.961593 272.446164 
L 105.454381 271.931131 
L 105.999968 271.549933 
L 106.527955 270.676812 
L 107.073542 270.553898 
L 107.60153 270.309401 
L 108.147117 268.878368 
L 108.692704 268.0707 
L 109.220691 268.0707 
L 109.766278 269.112713 
L 110.294266 268.995337 
L 110.839853 268.184908 
L 111.895828 269.586325 
L 112.441415 268.184908 
L 112.969402 265.757223 
L 113.514989 266.949315 
L 114.042976 267.730368 
L 114.588563 266.510956 
L 115.13415 264.196451 
L 115.662138 263.691781 
L 116.207725 264.094914 
L 116.735712 262.607292 
L 117.281299 261.650654 
L 118.319675 264.094914 
L 119.393249 262.704459 
L 119.938836 261.55646 
L 120.466824 259.725595 
L 121.012411 258.586508 
L 122.085985 258.672783 
L 122.631572 258.243591 
L 123.159559 260.446106 
L 123.705146 265.43926 
L 124.250734 266.729426 
L 124.743522 267.17064 
L 125.289109 267.956876 
L 125.817096 269.112713 
L 126.890671 268.0707 
L 127.436258 265.544917 
L 127.981845 262.125595 
L 128.509832 260.083934 
L 129.055419 259.725595 
L 129.583407 260.264536 
L 130.128994 259.195097 
L 130.674581 257.819772 
L 131.167369 258.328995 
L 131.712956 258.073426 
L 132.240943 256.987721 
L 132.78653 255.461028 
L 133.314518 255.226141 
L 133.860105 254.761199 
L 134.405692 254.5311 
L 134.933679 252.672086 
L 135.479266 253.775204 
L 136.007254 253.775204 
L 136.552841 252.599806 
L 137.098428 252.38389 
L 138.154403 255.935747 
L 138.68239 255.697556 
L 139.227977 255.148206 
L 139.755964 256.742041 
L 140.301552 258.845994 
L 140.847139 259.725595 
L 141.375126 259.725595 
L 141.920713 258.932933 
L 142.4487 258.586508 
L 142.994287 259.371008 
L 143.539874 259.371008 
L 144.032663 259.904291 
L 144.57825 260.264536 
L 145.106237 259.904291 
L 145.651824 260.537258 
L 146.179812 259.020096 
L 146.725399 258.672783 
L 147.270986 257.651718 
L 148.34456 258.672783 
L 148.872548 258.500453 
L 149.418135 257.484494 
L 149.963722 257.318092 
L 150.45651 257.651718 
L 151.530084 259.371008 
L 152.603659 258.759277 
L 153.149246 257.904112 
L 153.694833 258.158402 
L 154.22282 258.158402 
L 154.768407 258.586508 
L 155.296395 258.672783 
L 155.841982 259.195097 
L 156.387569 259.459307 
L 156.880357 258.672783 
L 157.425944 258.586508 
L 157.953931 258.243591 
L 158.499518 258.586508 
L 159.027506 258.073426 
L 159.573093 257.819772 
L 160.11868 257.988663 
L 160.646667 257.318092 
L 161.192254 257.070012 
L 162.265829 256.90563 
L 162.811416 256.579239 
L 163.321804 256.742041 
L 163.867391 256.175626 
L 164.395378 256.095478 
L 165.468953 256.579239 
L 166.01454 256.417216 
L 167.633701 256.417216 
L 168.161688 256.742041 
L 168.707275 256.498131 
L 170.291238 256.255965 
L 170.819225 256.336495 
L 171.8928 256.255965 
L 172.438387 256.336495 
L 174.057548 255.148206 
L 174.585536 254.378565 
L 175.131123 253.10903 
L 175.67671 253.182406 
L 176.169498 251.603772 
L 176.715085 251.32449 
L 177.243072 252.169342 
L 178.316647 251.744281 
L 179.407821 248.974298 
L 179.935808 249.234782 
L 180.481395 250.364752 
L 181.009383 249.365779 
L 182.100557 253.403491 
L 182.593345 253.035813 
L 183.138932 253.700534 
L 183.666919 253.329635 
L 184.212506 251.463843 
L 184.740494 250.297229 
L 185.831668 248.587291 
L 186.359655 248.459265 
L 186.905242 247.328308 
L 187.43323 245.699687 
L 187.978817 245.995434 
L 188.524404 247.020742 
L 189.034792 246.837535 
L 189.580379 245.75863 
L 190.108366 246.353773 
L 190.653953 245.00026 
L 191.181941 245.876825 
L 191.727528 247.204946 
L 192.273115 247.701112 
L 192.801102 247.45212 
L 193.874677 245.995434 
L 194.420264 244.08961 
L 194.965851 244.033499 
L 195.458639 243.20281 
L 196.004226 242.606333 
L 196.532213 243.312398 
L 197.0778 242.499003 
L 197.605788 241.18531 
L 198.151375 240.420882 
L 198.696962 240.572393 
L 199.224949 238.273244 
L 199.770536 238.558206 
L 200.298524 238.367965 
L 200.844111 236.031677 
L 201.389698 235.417569 
L 201.882486 237.896988 
L 202.428073 238.701591 
L 202.95606 237.202581 
L 203.501647 234.899912 
L 204.029635 235.200916 
L 204.575222 236.883333 
L 205.120809 236.567068 
L 205.648796 237.202581 
L 206.194383 237.478637 
L 207.267958 242.126002 
L 208.306333 243.643307 
L 208.85192 245.995434 
L 209.379907 245.231801 
L 209.925495 242.126002 
L 210.453482 241.444003 
L 210.999069 240.370528 
L 211.544656 241.133808 
L 212.072643 243.477448 
L 212.61823 244.65589 
L 213.146218 245.348168 
L 213.691805 244.65589 
L 214.237392 244.541874 
L 214.74778 243.809982 
L 215.293367 243.865723 
L 215.821354 243.20281 
L 216.366941 243.532644 
L 216.894929 243.643307 
L 217.440516 243.643307 
L 217.986103 243.093575 
L 218.51409 241.28855 
L 219.059677 241.65239 
L 219.587665 242.714005 
L 220.678839 241.757066 
L 221.171627 240.826428 
L 221.717214 240.47131 
L 222.245201 240.673779 
L 222.790788 239.772055 
L 223.318776 239.525779 
L 224.40995 237.156789 
L 225.483524 240.069969 
L 226.011512 240.370528 
L 226.557099 240.320249 
L 227.102686 239.086947 
L 227.595474 239.232593 
L 228.669048 236.657129 
L 229.214635 236.342959 
L 229.742623 236.522127 
L 230.833797 234.347905 
L 231.361784 234.347905 
L 231.907371 234.942749 
L 232.980946 237.019785 
L 233.526533 236.702249 
L 234.019321 237.202581 
L 234.564908 235.679396 
L 235.092896 233.556976 
L 236.16647 235.114642 
L 236.712057 234.263774 
L 237.257644 232.864628 
L 237.785631 232.743905 
L 238.331218 233.929325 
L 238.859206 234.305814 
L 239.404793 234.516797 
L 239.95038 235.635617 
L 240.460768 235.417569 
L 241.006355 235.679396 
L 241.534342 236.432425 
L 242.079929 234.942749 
L 243.699091 235.50462 
L 244.772665 237.11106 
L 245.300653 237.663933 
L 245.84624 239.673329 
L 246.391827 238.037595 
L 246.884615 237.202581 
L 247.430202 236.883333 
L 247.958189 237.29435 
L 248.503776 236.883333 
L 249.031764 237.710416 
L 250.122938 237.156789 
L 250.650925 237.432471 
L 251.196512 236.612068 
L 251.7245 236.342959 
L 252.270087 235.855079 
L 252.815674 234.686536 
L 253.308462 234.39005 
L 253.854049 234.347905 
L 254.382036 233.88775 
L 254.927623 233.066795 
L 255.455611 232.623611 
L 256.001198 231.910685 
L 256.546785 232.82434 
L 257.074772 232.784099 
L 258.148347 231.250874 
L 258.693934 230.490736 
L 259.239521 230.154163 
L 260.277896 230.079821 
L 261.351471 229.600536 
L 261.879458 230.868672 
L 262.425045 230.716991 
L 262.970632 230.415652 
L 263.49862 229.308928 
L 264.044207 225.959602 
L 264.572194 224.828045 
L 265.117781 225.664999 
L 265.663368 224.354432 
L 266.173756 219.648985 
L 266.719343 218.73372 
L 267.792917 226.356436 
L 268.320905 227.713842 
L 268.866492 226.124385 
L 269.412079 223.426628 
L 269.940066 222.198388 
L 270.485653 221.499562 
L 271.013641 218.920145 
L 271.559228 218.495528 
L 272.104815 219.215189 
L 272.597603 217.584835 
L 273.14319 217.765025 
L 273.671177 216.349659 
L 274.216764 215.325654 
L 274.744752 216.873513 
L 275.290339 214.896099 
L 275.835926 213.366105 
L 276.363913 212.515575 
L 276.9095 212.893437 
L 277.437488 217.075228 
L 277.983075 216.25079 
L 278.528662 214.168849 
L 279.02145 214.542253 
L 279.567037 215.907003 
L 280.095025 215.882579 
L 280.640612 216.498507 
L 281.168599 214.848706 
L 281.714186 215.687826 
L 282.78776 219.840532 
L 283.333347 224.011278 
L 283.861335 225.147507 
L 284.406922 225.179619 
L 284.952509 225.437623 
L 285.445297 224.606201 
L 285.990884 225.27614 
L 286.518872 225.632423 
L 287.064459 225.697607 
L 288.68362 221.212588 
L 289.211608 221.788989 
L 289.757195 222.110242 
L 290.830769 221.269788 
L 291.376356 221.730905 
L 291.886744 221.241176 
L 292.432331 219.89546 
L 292.960318 219.053937 
L 293.505905 217.024686 
L 294.033893 216.648011 
L 294.57948 217.151182 
L 295.125067 218.813491 
L 295.653054 219.350154 
L 296.198641 220.338116 
L 296.726629 222.022325 
L 297.272216 222.227821 
L 297.817803 222.583028 
L 298.310591 222.198388 
L 298.856178 221.184024 
L 299.384165 222.434572 
L 299.929752 224.198022 
L 300.45774 226.423029 
L 301.003327 225.926741 
L 302.076901 225.730245 
L 302.622488 226.157437 
L 303.696063 229.563947 
L 304.24165 229.820902 
L 304.734438 231.67634 
L 305.280025 235.461067 
L 305.808013 237.617514 
L 306.3536 235.767123 
L 306.881587 235.374128 
L 307.427174 237.617514 
L 307.972761 238.225983 
L 308.500748 236.928756 
L 309.046336 237.019785 
L 310.11991 238.510546 
L 310.665497 238.653729 
L 311.158285 237.850248 
L 311.703872 237.850248 
L 312.23186 234.432246 
L 312.777447 232.028469 
L 313.305434 232.864628 
L 313.851021 232.663662 
L 314.396608 231.443605 
L 314.924596 228.983843 
L 315.470183 228.626261 
L 315.99817 231.059234 
L 316.543757 230.565987 
L 317.089344 231.79331 
L 317.599732 233.639367 
L 318.145319 232.985783 
L 319.218893 230.191395 
L 319.746881 230.830688 
L 320.292468 230.303338 
L 320.838055 229.563947 
L 321.366042 230.603675 
L 321.911629 231.289333 
L 322.985204 230.116971 
L 323.530791 230.191395 
L 324.023579 229.894677 
L 324.569166 229.200219 
L 325.097154 229.857769 
L 325.642741 231.059234 
L 326.170728 233.351871 
L 326.716315 234.432246 
L 327.789889 233.721959 
L 328.863464 235.071587 
L 329.409051 235.200916 
L 329.954638 233.639367 
L 330.447426 232.583608 
L 330.993013 232.107219 
L 331.521001 231.327835 
L 332.066588 231.443605 
L 332.594575 232.543652 
L 333.140162 232.583608 
L 333.685749 231.482284 
L 334.213737 230.944768 
L 334.759324 231.598584 
L 335.832898 234.179852 
L 336.378485 234.137968 
L 336.871273 235.157752 
L 337.41686 234.054357 
L 337.944848 234.347905 
L 338.490435 234.221787 
L 339.018422 233.351871 
L 339.564009 233.392792 
L 340.109596 234.942749 
L 340.637584 236.031677 
L 341.711158 237.065392 
L 342.256745 238.605934 
L 342.802332 238.893721 
L 343.31272 237.432471 
L 343.858307 236.522127 
L 344.386294 236.79267 
L 344.931881 237.202581 
L 345.459869 237.803573 
L 346.005456 239.821525 
L 346.551043 241.082384 
L 347.07903 241.967394 
L 347.624617 241.082384 
L 348.152605 239.673329 
L 348.698192 240.169859 
L 349.243779 241.031038 
L 349.736567 242.82202 
L 350.282154 244.371566 
L 350.810142 244.42824 
L 351.355729 244.033499 
L 351.883716 244.485009 
L 352.97489 246.114459 
L 353.502877 248.078067 
L 354.048464 248.26813 
L 354.576452 245.876825 
L 355.122039 245.582108 
L 355.667626 245.699687 
L 356.160414 244.42824 
L 357.233989 239.183975 
L 357.779576 238.178788 
L 358.307563 238.558206 
L 358.85315 237.617514 
L 359.398737 237.896988 
L 361.000299 234.686536 
L 361.545886 235.330742 
L 362.091473 235.461067 
L 363.129848 238.084594 
L 363.657836 238.749522 
L 364.73141 243.312398 
L 365.276997 242.714005 
L 365.822584 241.600173 
L 366.350572 243.148149 
L 366.896159 244.033499 
L 367.424146 244.65589 
L 367.969733 245.936077 
L 368.51532 246.293786 
L 369.025708 245.348168 
L 369.571295 242.767969 
L 370.64487 240.320249 
L 371.172857 239.476738 
L 371.718444 239.673329 
L 372.264031 240.826428 
L 372.792018 239.871068 
L 373.865593 243.148149 
L 374.41118 242.606333 
L 374.956767 241.133808 
L 375.449555 241.967394 
L 375.995142 240.572393 
L 376.52313 239.574891 
L 377.068717 240.47131 
L 377.596704 241.600173 
L 378.142291 243.03909 
L 378.687878 242.606333 
L 379.215866 243.093575 
L 380.28944 244.942621 
L 380.835027 245.348168 
L 381.380614 246.959563 
L 381.873402 246.776685 
L 382.418989 246.293786 
L 382.946977 246.353773 
L 383.492564 246.293786 
L 384.020551 247.204946 
L 384.566138 247.45212 
L 385.111725 248.204657 
L 385.639713 251.744281 
L 386.1853 253.775204 
L 386.713287 251.603772 
L 387.258874 252.889853 
L 387.804461 252.38389 
L 388.297249 250.43241 
L 388.842836 248.909489 
L 389.370824 249.234782 
L 390.444398 244.827637 
L 390.989985 245.464936 
L 391.535572 244.598834 
L 392.06356 244.713042 
L 392.609147 243.643307 
L 393.137134 244.08961 
L 393.682721 242.714005 
L 394.228308 240.724585 
L 394.738696 241.444003 
L 395.812271 244.314987 
L 396.357858 241.862067 
L 396.885845 243.698774 
L 397.431432 243.977482 
L 397.977019 245.231801 
L 398.505006 245.406502 
L 399.050593 245.75863 
L 399.578581 245.876825 
L 400.124168 248.844803 
L 401.162543 249.761839 
L 401.70813 251.185708 
L 402.781705 247.889065 
L 403.309692 248.587291 
L 403.855279 248.844803 
L 404.928854 252.312223 
L 405.474441 253.477508 
L 406.002428 252.889853 
L 406.548015 249.828302 
L 407.093602 250.162586 
L 407.58639 251.047492 
L 408.131977 248.587291 
L 409.205552 249.365779 
L 409.733539 250.909839 
L 410.279126 252.889853 
L 411.352701 259.107484 
L 411.898288 258.500453 
L 412.426275 257.568003 
L 412.971862 257.73564 
L 413.517449 257.568003 
L 414.010237 258.845994 
L 414.555824 259.6366 
L 415.083812 258.328995 
L 415.629399 261.839832 
L 416.157386 264.196451 
L 416.702973 258.158402 
L 417.24856 254.378565 
L 417.776548 255.776767 
L 418.850122 255.539687 
L 419.395709 255.776767 
L 419.941296 256.742041 
L 420.451684 257.318092 
L 420.997271 259.459307 
L 421.525259 255.148206 
L 422.070846 252.38389 
L 422.598833 252.312223 
L 423.690007 255.697556 
L 424.217995 256.90563 
L 424.763582 257.152504 
L 425.291569 256.417216 
L 425.837156 256.095478 
L 426.382743 256.175626 
L 426.875531 256.579239 
L 427.421118 254.000207 
L 427.949106 255.226141 
L 428.494693 256.823737 
L 429.02268 257.988663 
L 429.568267 256.498131 
L 430.113854 255.856164 
L 430.641842 256.336495 
L 431.187429 254.302554 
L 431.715416 253.700534 
L 432.80659 254.607626 
L 433.844965 252.38389 
L 434.372953 250.500204 
L 434.91854 249.695506 
L 435.446527 249.695506 
L 435.992114 249.828302 
L 437.065689 252.38389 
L 437.611276 252.312223 
L 438.139263 253.25594 
L 438.68485 253.551687 
L 439.230437 252.098127 
L 439.723225 252.38389 
L 440.268813 253.551687 
L 440.7968 252.599806 
L 441.342387 252.169342 
L 441.870374 249.761839 
L 442.415961 250.43241 
L 442.961548 252.744519 
L 443.489536 253.850039 
L 444.035123 253.775204 
L 444.56311 256.742041 
L 445.108697 257.152504 
L 445.654284 260.264536 
L 446.164672 260.264536 
L 446.710259 262.41379 
L 447.783834 259.020096 
L 448.311821 257.152504 
L 448.857408 257.904112 
L 449.402995 258.932933 
L 449.930983 260.7203 
L 450.47657 259.6366 
L 451.004557 262.221388 
L 451.550144 275.005601 
L 452.095731 273.634452 
L 452.588519 269.230496 
L 453.134106 269.825639 
L 453.662094 268.529863 
L 454.735668 260.446106 
L 455.281255 261.934818 
L 455.826842 261.650654 
L 456.35483 263.492 
L 456.900417 263.591744 
L 457.428404 263.492 
L 457.973991 261.650654 
L 458.519578 260.3552 
L 459.012366 260.7203 
L 459.557953 260.3552 
L 460.085941 259.282939 
L 460.631528 263.293391 
L 461.705102 267.61768 
L 462.250689 271.298164 
L 462.778677 271.931131 
L 463.324264 273.366761 
L 463.852251 270.553898 
L 464.397838 264.605674 
L 464.943425 263.591744 
L 465.436214 261.745111 
L 465.981801 263.39255 
L 466.509788 262.899634 
L 467.055375 265.863877 
L 467.583362 267.730368 
L 468.128949 267.730368 
L 468.674536 276.727807 
L 469.202524 281.800861 
L 469.748111 279.011553 
L 470.276098 281.291638 
L 470.821685 281.800861 
L 471.367272 281.972319 
L 471.87766 281.972319 
L 472.423247 278.698007 
L 472.951235 280.62437 
L 474.024809 288.596122 
L 474.570396 290.531663 
L 475.115983 287.364614 
L 475.643971 286.567807 
L 476.189558 285.982269 
L 476.717545 287.97477 
L 477.263132 286.567807 
L 477.808719 283.019704 
L 478.301507 281.800861 
L 478.847094 282.144649 
L 479.375082 285.789318 
L 479.920669 282.666964 
L 480.448656 276.727807 
L 480.994243 272.837645 
L 481.53983 270.800174 
L 482.067818 269.945933 
L 482.613405 272.316669 
L 483.141392 271.048254 
L 483.686979 268.878368 
L 484.232566 269.348691 
L 484.725354 271.172978 
L 485.270941 271.048254 
L 485.798929 271.172978 
L 486.344516 273.10117 
L 486.872503 272.576155 
L 487.41809 273.366761 
L 487.963677 275.005601 
L 488.491665 273.500342 
L 489.037252 276.727807 
L 489.565239 276.288974 
L 490.110826 278.079492 
L 490.656413 283.555801 
L 491.149202 281.800861 
L 491.694789 280.789958 
L 492.222776 282.491962 
L 492.768363 278.233065 
L 493.29635 275.855756 
L 493.841938 276.434621 
L 494.387525 278.698007 
L 494.915512 278.698007 
L 495.461099 280.295603 
L 495.989086 277.321905 
L 496.534673 277.622909 
L 497.08026 279.969997 
L 497.590648 285.406684 
L 498.136235 283.376157 
L 498.664223 284.84072 
L 499.20981 284.84072 
L 500.283384 291.202234 
L 501.356959 288.387735 
L 501.902546 285.789318 
L 502.430533 279.169422 
L 502.97612 274.039999 
L 503.521707 274.865961 
L 504.014495 275.005601 
L 504.560082 274.176268 
L 505.08807 276.727807 
L 505.633657 276.727807 
L 506.161644 278.387338 
L 506.707231 276.434621 
L 507.252818 278.079492 
L 507.780806 278.233065 
L 508.326393 275.855756 
L 508.85438 275.999547 
L 509.399967 275.286621 
L 509.945554 272.837645 
L 510.438343 269.348691 
L 510.98393 269.586325 
L 511.511917 269.230496 
L 512.057504 268.002359 
L 512.585491 268.7618 
L 513.131078 268.995337 
L 513.676665 268.995337 
L 514.204653 267.730368 
L 514.75024 266.078199 
L 515.278227 266.402247 
L 515.823814 269.705771 
L 516.369401 271.172978 
L 516.86219 271.549933 
L 517.407777 272.969151 
L 517.935764 273.500342 
L 518.481351 275.286621 
L 519.009339 280.459587 
L 519.554926 288.387735 
L 520.100513 288.387735 
L 520.6285 286.963867 
L 521.174087 286.765258 
L 521.702074 284.84072 
L 522.247661 283.917972 
L 522.793248 285.789318 
L 523.303636 291.202234 
L 523.849223 309.648191 
L 524.377211 319.002889 
L 524.922798 318.493665 
L 525.450785 315.589365 
L 525.996372 321.12 
L 527.069947 317.991986 
L 527.615534 312.914601 
L 528.143521 309.648191 
L 528.689108 307.389839 
L 529.727483 297.106318 
L 530.27307 288.805799 
L 530.801058 288.180623 
L 531.346645 288.596122 
L 531.874632 290.753714 
L 532.420219 295.531023 
L 532.965806 296.573036 
L 533.493794 294.27204 
L 534.039381 289.442735 
L 534.567368 289.874113 
L 535.112955 291.886353 
L 535.658542 285.789318 
L 536.696918 279.32803 
L 537.224905 270.676812 
L 537.770492 268.878368 
L 538.298479 266.185871 
L 538.844066 268.878368 
L 539.389654 268.878368 
L 539.917641 262.317452 
L 540.463228 258.158402 
L 540.991215 258.932933 
L 541.536802 261.368854 
L 542.082389 262.221388 
L 542.575178 260.174115 
L 543.120765 260.996732 
L 543.648752 262.899634 
L 544.194339 261.839832 
L 544.722327 260.174115 
L 545.267914 258.845994 
L 545.813501 256.579239 
L 546.341488 254.915472 
L 546.887075 251.814755 
L 547.415063 254.000207 
L 547.96065 257.819772 
L 547.96065 257.819772 
" clip-path="url(#pbe3b8e0535)" style="fill: none; stroke: #ff9500; stroke-linecap: square"/>
   </g>
   <g id="patch_3">
    <path d="M 15.324286 336.24 
L 15.324286 3.6 
" style="fill: none; stroke: #000000; stroke-width: 0.5; stroke-linejoin: miter; stroke-linecap: square"/>
   </g>
   <g id="patch_4">
    <path d="M 573.324286 336.24 
L 573.324286 3.6 
" style="fill: none; stroke: #000000; stroke-width: 0.5; stroke-linejoin: miter; stroke-linecap: square"/>
   </g>
   <g id="patch_5">
    <path d="M 15.324286 336.24 
L 573.324286 336.24 
" style="fill: none; stroke: #000000; stroke-width: 0.5; stroke-linejoin: miter; stroke-linecap: square"/>
   </g>
   <g id="patch_6">
    <path d="M 15.324286 3.6 
L 573.324286 3.6 
" style="fill: none; stroke: #000000; stroke-width: 0.5; stroke-linejoin: miter; stroke-linecap: square"/>
   </g>
   <g id="legend_1">
    <g id="line2d_126">
     <path d="M 31.524286 26.1 
L 49.524286 26.1 
L 67.524286 26.1 
" style="fill: none; stroke: #0c5da5; stroke-linecap: square"/>
    </g>
    <g id="text_14">
     <!-- l_SP 500 -->
     <g transform="translate(81.924286 32.4) scale(0.18 -0.18)">
      <defs>
       <path id="CMR17-6c" d="M 979 4416 
L 218 4345 
L 218 4179 
C 595 4179 653 4141 653 3835 
L 653 439 
C 653 198 627 166 218 166 
L 218 0 
C 371 12 653 12 813 12 
C 979 12 1261 12 1414 0 
L 1414 166 
C 1005 166 979 191 979 439 
L 979 4416 
z
" transform="scale(0.015625)"/>
       <path id="CMR17-53" d="M 2803 4351 
C 2803 4467 2797 4473 2758 4473 
C 2720 4473 2707 4447 2682 4390 
L 2490 3965 
C 2246 4320 1875 4480 1472 4480 
C 819 4480 294 3958 294 3301 
C 294 3101 339 2817 557 2546 
C 794 2250 1018 2198 1530 2063 
C 1722 2011 2042 1927 2106 1901 
C 2470 1747 2662 1360 2662 999 
C 2662 534 2336 38 1779 38 
C 1094 38 454 425 410 1328 
C 403 1431 397 1437 352 1437 
C 301 1437 294 1431 294 1302 
L 294 0 
C 294 -116 301 -122 339 -122 
C 384 -122 397 -90 486 109 
C 493 128 493 141 614 386 
C 934 -39 1472 -128 1779 -128 
C 2477 -128 2970 457 2970 1141 
C 2970 1476 2848 1734 2778 1850 
C 2509 2263 2221 2340 1914 2417 
C 1869 2437 1856 2437 1498 2527 
C 1152 2617 1005 2662 845 2836 
C 666 3036 602 3243 602 3449 
C 602 3868 934 4326 1478 4326 
C 2157 4326 2579 3842 2675 3036 
C 2694 2920 2701 2914 2746 2914 
C 2803 2914 2803 2933 2803 3043 
L 2803 4351 
z
" transform="scale(0.015625)"/>
       <path id="CMR17-50" d="M 1267 2048 
L 2291 2048 
C 3117 2048 3718 2583 3718 3187 
C 3718 3791 3130 4352 2291 4352 
L 333 4352 
L 333 4185 
C 774 4185 845 4185 845 3899 
L 845 453 
C 845 166 774 166 333 166 
L 333 0 
C 518 12 858 12 1056 12 
C 1254 12 1594 12 1779 0 
L 1779 166 
C 1338 166 1267 166 1267 453 
L 1267 2048 
z
M 1254 2182 
L 1254 3937 
C 1254 4153 1267 4185 1523 4185 
L 2170 4185 
C 2995 4185 3232 3715 3232 3187 
C 3232 2608 2950 2182 2170 2182 
L 1254 2182 
z
" transform="scale(0.015625)"/>
      </defs>
      <use xlink:href="#CMR17-6c" transform="scale(0.996264)"/>
      <use xlink:href="#CMR17-53" transform="translate(57.768278 0) scale(0.996264)"/>
      <use xlink:href="#CMR17-50" transform="translate(108.663648 0) scale(0.996264)"/>
      <use xlink:href="#CMR17-35" transform="translate(201.325915 0) scale(0.996264)"/>
      <use xlink:href="#CMR17-30" transform="translate(247.016392 0) scale(0.996264)"/>
      <use xlink:href="#CMR17-30" transform="translate(292.706869 0) scale(0.996264)"/>
      <path d="M 30.353688 0 
L 57.768278 0 
L 57.768278 0.3985 
L 30.353688 0.3985 
L 30.353688 0 
z
"/>
     </g>
    </g>
    <g id="line2d_127">
     <path d="M 31.524286 51.188064 
L 49.524286 51.188064 
L 67.524286 51.188064 
" style="fill: none; stroke: #00b945; stroke-linecap: square"/>
    </g>
    <g id="text_15">
     <!-- l_Earnings -->
     <g transform="translate(81.924286 57.488064) scale(0.18 -0.18)">
      <defs>
       <path id="CMR17-45" d="M 3885 1614 
L 3770 1614 
C 3629 676 3546 166 2419 166 
L 1530 166 
C 1274 166 1261 198 1261 415 
L 1261 2176 
L 1862 2176 
C 2464 2176 2522 1959 2522 1429 
L 2637 1429 
L 2637 3086 
L 2522 3086 
C 2522 2558 2464 2342 1862 2342 
L 1261 2342 
L 1261 3924 
C 1261 4141 1274 4172 1530 4172 
L 2406 4172 
C 3398 4172 3514 3778 3603 2933 
L 3718 2933 
L 3565 4339 
L 326 4339 
L 326 4172 
C 768 4172 838 4172 838 3886 
L 838 453 
C 838 166 768 166 326 166 
L 326 0 
L 3654 0 
L 3885 1614 
z
" transform="scale(0.015625)"/>
       <path id="CMR17-61" d="M 2304 1656 
C 2304 2048 2304 2275 2035 2534 
C 1798 2751 1523 2816 1306 2816 
C 800 2816 435 2408 435 1977 
C 435 1740 627 1728 666 1728 
C 749 1728 896 1779 896 1958 
C 896 2118 774 2188 666 2188 
C 640 2188 608 2182 589 2176 
C 723 2594 1069 2713 1293 2713 
C 1613 2713 1965 2421 1965 1875 
L 1965 1632 
C 1587 1619 1133 1568 774 1373 
C 371 1147 256 822 256 576 
C 256 77 832 -64 1171 -64 
C 1523 -64 1850 135 1990 505 
C 2003 219 2182 -39 2464 -39 
C 2598 -39 2938 51 2938 563 
L 2938 926 
L 2822 926 
L 2822 557 
C 2822 161 2650 109 2566 109 
C 2304 109 2304 446 2304 732 
L 2304 1656 
z
M 1965 887 
C 1965 323 1568 38 1216 38 
C 896 38 646 278 646 576 
C 646 771 730 1114 1101 1322 
C 1408 1497 1760 1523 1965 1536 
L 1965 887 
z
" transform="scale(0.015625)"/>
       <path id="CMR17-72" d="M 960 1517 
C 960 2134 1222 2713 1702 2713 
C 1747 2713 1792 2707 1837 2687 
C 1837 2687 1696 2642 1696 2475 
C 1696 2321 1818 2257 1914 2257 
C 1990 2257 2131 2302 2131 2482 
C 2131 2687 1926 2816 1709 2816 
C 1222 2816 1011 2340 947 2115 
L 941 2115 
L 941 2816 
L 198 2745 
L 198 2578 
C 576 2578 634 2540 634 2231 
L 634 443 
C 634 198 608 166 198 166 
L 198 0 
C 352 12 646 12 813 12 
C 998 12 1325 12 1498 0 
L 1498 166 
C 1037 166 960 166 960 455 
L 960 1517 
z
" transform="scale(0.015625)"/>
       <path id="CMR17-6e" d="M 2656 1954 
C 2656 2282 2592 2816 1837 2816 
C 1331 2816 1069 2424 973 2166 
L 966 2166 
L 966 2816 
L 211 2745 
L 211 2578 
C 589 2578 646 2540 646 2231 
L 646 443 
C 646 198 621 166 211 166 
L 211 0 
C 365 12 646 12 813 12 
C 979 12 1267 12 1421 0 
L 1421 166 
C 1011 166 986 192 986 443 
L 986 1678 
C 986 2269 1344 2713 1792 2713 
C 2266 2713 2317 2289 2317 1980 
L 2317 443 
C 2317 198 2291 166 1882 166 
L 1882 0 
C 2035 12 2317 12 2483 12 
C 2650 12 2938 12 3091 0 
L 3091 166 
C 2682 166 2656 192 2656 443 
L 2656 1954 
z
" transform="scale(0.015625)"/>
       <path id="CMR17-69" d="M 992 3961 
C 992 4102 877 4224 730 4224 
C 589 4224 467 4108 467 3961 
C 467 3820 582 3699 730 3699 
C 870 3699 992 3814 992 3961 
z
M 243 2745 
L 243 2579 
C 602 2579 653 2540 653 2231 
L 653 443 
C 653 198 627 166 218 166 
L 218 0 
C 371 12 646 12 806 12 
C 960 12 1222 12 1370 0 
L 1370 166 
C 992 166 979 205 979 436 
L 979 2816 
L 243 2745 
z
" transform="scale(0.015625)"/>
       <path id="CMR17-67" d="M 710 1165 
C 832 1068 1043 960 1299 960 
C 1805 960 2240 1359 2240 1895 
C 2240 2063 2189 2321 1997 2521 
C 2176 2713 2438 2777 2586 2777 
C 2611 2777 2650 2777 2682 2758 
C 2656 2751 2598 2726 2598 2623 
C 2598 2540 2656 2483 2739 2483 
C 2835 2483 2886 2547 2886 2630 
C 2886 2751 2790 2880 2586 2880 
C 2330 2880 2106 2758 1926 2591 
C 1734 2764 1504 2828 1299 2828 
C 794 2828 358 2431 358 1895 
C 358 1527 570 1294 634 1230 
C 442 1004 442 742 442 710 
C 442 544 506 300 723 166 
C 390 82 128 -184 128 -517 
C 128 -996 736 -1344 1466 -1344 
C 2170 -1344 2803 -1009 2803 -510 
C 2803 384 1856 384 1363 384 
C 1216 384 954 384 922 390 
C 723 422 589 601 589 825 
C 589 883 589 1024 710 1165 
z
M 1299 1068 
C 736 1068 736 1766 736 1895 
C 736 2024 736 2719 1299 2719 
C 1862 2719 1862 2024 1862 1895 
C 1862 1766 1862 1068 1299 1068 
z
M 1466 -1236 
C 826 -1236 384 -883 384 -517 
C 384 -311 493 -118 634 -11 
C 794 102 858 102 1293 102 
C 1818 102 2547 102 2547 -517 
C 2547 -883 2106 -1236 1466 -1236 
z
" transform="scale(0.015625)"/>
       <path id="CMR17-73" d="M 1978 2688 
C 1978 2803 1971 2809 1933 2809 
C 1907 2809 1901 2803 1824 2707 
C 1805 2681 1747 2617 1728 2592 
C 1523 2809 1235 2816 1126 2816 
C 416 2816 160 2444 160 2073 
C 160 1497 813 1363 998 1324 
C 1402 1241 1542 1216 1677 1100 
C 1760 1024 1901 883 1901 652 
C 1901 384 1747 38 1158 38 
C 602 38 403 460 288 1024 
C 269 1113 269 1120 218 1120 
C 166 1120 160 1113 160 985 
L 160 64 
C 160 -52 166 -58 205 -58 
C 237 -58 243 -52 275 0 
C 314 57 410 211 448 275 
C 576 102 800 -64 1158 -64 
C 1792 -64 2131 281 2131 780 
C 2131 1107 1958 1280 1875 1356 
C 1683 1555 1459 1600 1190 1651 
C 838 1728 390 1817 390 2208 
C 390 2374 480 2726 1126 2726 
C 1811 2726 1850 2086 1862 1881 
C 1869 1849 1901 1843 1920 1843 
C 1978 1843 1978 1862 1978 1971 
L 1978 2688 
z
" transform="scale(0.015625)"/>
      </defs>
      <use xlink:href="#CMR17-6c" transform="scale(0.996264)"/>
      <use xlink:href="#CMR17-45" transform="translate(57.768278 0) scale(0.996264)"/>
      <use xlink:href="#CMR17-61" transform="translate(120.354579 0) scale(0.996264)"/>
      <use xlink:href="#CMR17-72" transform="translate(166.045056 0) scale(0.996264)"/>
      <use xlink:href="#CMR17-6e" transform="translate(201.325823 0) scale(0.996264)"/>
      <use xlink:href="#CMR17-69" transform="translate(252.221193 0) scale(0.996264)"/>
      <use xlink:href="#CMR17-6e" transform="translate(277.092252 0) scale(0.996264)"/>
      <use xlink:href="#CMR17-67" transform="translate(327.987621 0) scale(0.996264)"/>
      <use xlink:href="#CMR17-73" transform="translate(373.678099 0) scale(0.996264)"/>
      <path d="M 30.353688 0 
L 57.768278 0 
L 57.768278 0.3985 
L 30.353688 0.3985 
L 30.353688 0 
z
"/>
     </g>
    </g>
    <g id="line2d_128">
     <path d="M 31.524286 76.276128 
L 49.524286 76.276128 
L 67.524286 76.276128 
" style="fill: none; stroke: #ff9500; stroke-linecap: square"/>
    </g>
    <g id="text_16">
     <!-- l_10Y Usa Rate -->
     <g transform="translate(81.924286 82.576128) scale(0.18 -0.18)">
      <defs>
       <path id="CMR17-59" d="M 3706 3784 
C 3955 4178 4301 4185 4416 4185 
L 4416 4352 
C 4269 4339 4102 4339 3942 4339 
C 3782 4339 3526 4339 3373 4352 
L 3373 4185 
C 3533 4178 3616 4096 3616 3975 
C 3616 3898 3584 3847 3533 3764 
L 2381 1924 
L 1120 3930 
C 1075 4007 1069 4013 1069 4057 
C 1069 4185 1293 4185 1382 4185 
L 1382 4352 
C 1178 4339 864 4339 653 4339 
C 486 4339 166 4339 13 4352 
L 13 4185 
C 378 4185 480 4166 595 3981 
L 2010 1739 
L 2010 453 
C 2010 166 1939 166 1498 166 
L 1498 0 
C 1683 12 2016 12 2214 12 
C 2413 12 2752 12 2938 0 
L 2938 166 
C 2477 166 2419 166 2419 478 
L 2419 1739 
L 3706 3784 
z
" transform="scale(0.015625)"/>
       <path id="CMR17-55" d="M 3456 1442 
C 3456 583 2899 38 2291 38 
C 1965 38 1670 211 1491 480 
C 1286 788 1261 1185 1261 1410 
L 1261 3897 
C 1261 4185 1331 4185 1773 4185 
L 1773 4352 
C 1587 4339 1248 4339 1050 4339 
C 851 4339 512 4339 326 4352 
L 326 4185 
C 768 4185 838 4185 838 3897 
L 838 1442 
C 838 519 1536 -128 2278 -128 
C 3110 -128 3590 724 3590 1352 
L 3590 3788 
C 3590 4147 3917 4185 4102 4185 
L 4102 4352 
C 3955 4339 3686 4339 3526 4339 
C 3366 4339 3091 4339 2944 4352 
L 2944 4185 
C 3456 4185 3456 3884 3456 3724 
L 3456 1442 
z
" transform="scale(0.015625)"/>
       <path id="CMR17-52" d="M 2509 2156 
C 3117 2278 3629 2689 3629 3203 
C 3629 3806 2950 4352 2054 4352 
L 333 4352 
L 333 4185 
C 774 4185 845 4185 845 3896 
L 845 428 
C 845 140 774 140 333 140 
L 333 -26 
C 518 -13 851 -13 1050 -13 
C 1248 -13 1581 -13 1766 -26 
L 1766 140 
C 1325 140 1254 140 1254 428 
L 1254 2112 
L 2003 2112 
C 2368 2112 2573 1964 2662 1881 
C 2918 1632 2918 1459 2918 1024 
C 2918 595 2918 377 3110 160 
C 3354 -103 3680 -128 3821 -128 
C 4294 -128 4365 403 4365 512 
C 4365 550 4365 595 4307 595 
C 4256 595 4250 556 4250 531 
C 4218 115 4032 -26 3834 -26 
C 3482 -26 3443 377 3405 768 
C 3386 902 3373 998 3360 1139 
C 3322 1459 3270 1926 2509 2156 
z
M 1984 2214 
L 1254 2214 
L 1254 3935 
C 1254 4153 1267 4185 1523 4185 
L 1990 4185 
C 2522 4185 3142 3999 3142 3203 
C 3142 2374 2464 2214 1984 2214 
z
" transform="scale(0.015625)"/>
       <path id="CMR17-74" d="M 966 2585 
L 1862 2585 
L 1862 2752 
L 966 2752 
L 966 3968 
L 851 3968 
C 838 3292 614 2700 70 2687 
L 70 2585 
L 627 2585 
L 627 778 
C 627 655 627 -64 1370 -64 
C 1747 -64 1965 308 1965 784 
L 1965 1151 
L 1850 1151 
L 1850 790 
C 1850 347 1677 51 1408 51 
C 1222 51 966 179 966 765 
L 966 2585 
z
" transform="scale(0.015625)"/>
       <path id="CMR17-65" d="M 2438 1503 
C 2464 1529 2464 1542 2464 1606 
C 2464 2251 2118 2816 1389 2816 
C 710 2816 173 2175 173 1394 
C 173 554 781 -64 1459 -64 
C 2176 -64 2458 619 2458 755 
C 2458 800 2419 800 2406 800 
C 2362 800 2355 787 2330 709 
C 2189 270 1837 51 1504 51 
C 1229 51 954 206 781 490 
C 582 819 582 1200 582 1503 
L 2438 1503 
z
M 589 1600 
C 634 2511 1126 2713 1382 2713 
C 1818 2713 2112 2308 2118 1600 
L 589 1600 
z
" transform="scale(0.015625)"/>
      </defs>
      <use xlink:href="#CMR17-6c" transform="scale(0.996264)"/>
      <use xlink:href="#CMR17-31" transform="translate(57.768278 0) scale(0.996264)"/>
      <use xlink:href="#CMR17-30" transform="translate(103.458755 0) scale(0.996264)"/>
      <use xlink:href="#CMR17-59" transform="translate(149.149232 0) scale(0.996264)"/>
      <use xlink:href="#CMR17-55" transform="translate(248.297628 0) scale(0.996264)"/>
      <use xlink:href="#CMR17-73" transform="translate(317.370058 0) scale(0.996264)"/>
      <use xlink:href="#CMR17-61" transform="translate(353.171396 0) scale(0.996264)"/>
      <use xlink:href="#CMR17-52" transform="translate(428.937839 0) scale(0.996264)"/>
      <use xlink:href="#CMR17-61" transform="translate(496.728941 0) scale(0.996264)"/>
      <use xlink:href="#CMR17-74" transform="translate(542.419418 0) scale(0.996264)"/>
      <use xlink:href="#CMR17-65" transform="translate(577.700186 0) scale(0.996264)"/>
      <path d="M 30.353688 0 
L 57.768278 0 
L 57.768278 0.3985 
L 30.353688 0.3985 
L 30.353688 0 
z
"/>
     </g>
    </g>
   </g>
  </g>
 </g>
 <defs>
  <clipPath id="pbe3b8e0535">
   <rect x="15.324286" y="3.6" width="558" height="332.64"/>
  </clipPath>
 </defs>
</svg>
